<svg width="26" height="32" viewBox="0 0 26 32" fill="none" xmlns="http://www.w3.org/2000/svg">
<path d="M0.296 32.0001L0.912 29.0081L15.916 16.9961C17.2947 15.8815 18.3653 14.8841 19.128 14.0041C19.92 13.1241 20.4773 12.3028 20.8 11.5401C21.1227 10.7481 21.284 9.94148 21.284 9.12014C21.284 7.77081 20.7853 6.70014 19.788 5.90814C18.82 5.08681 17.3093 4.67614 15.256 4.67614C13.76 4.67614 12.3227 4.96948 10.944 5.55614C9.56533 6.14281 8.348 6.99348 7.292 8.10814L4.344 5.55614C5.63467 4.11881 7.27733 2.97481 9.272 2.12414C11.296 1.27348 13.496 0.848145 15.872 0.848145C17.9547 0.848145 19.7293 1.18548 21.196 1.86014C22.6627 2.50548 23.7773 3.40014 24.54 4.54414C25.3027 5.68814 25.684 7.02281 25.684 8.54814C25.684 9.72148 25.4787 10.8801 25.068 12.0241C24.6573 13.1388 23.9533 14.2975 22.956 15.5001C21.988 16.6735 20.624 17.9641 18.864 19.3721L5.532 29.9321L4.52 28.1721H23.176L22.428 32.0001H0.296Z" fill="#F47500"/>
</svg>
