<svg width="90" height="25" viewBox="0 0 90 25" fill="none" xmlns="http://www.w3.org/2000/svg">
<path fill-rule="evenodd" clip-rule="evenodd" d="M35.1658 4.28669C31.7469 4.71798 29.4978 6.95183 29.3083 10.1044L29.2699 10.7452H32.9993L33.0447 10.3232C33.16 9.25295 33.6968 8.40131 34.5637 7.91331C35.1958 7.55748 36.1529 7.4217 36.917 7.57936C38.0625 7.81573 38.7771 8.49227 38.9891 9.54096C39.2005 10.5873 38.6844 11.5489 37.5101 12.2965C36.6929 12.8167 34.3505 13.9098 32.6932 14.5444C32.2869 14.7 31.3621 15.0312 30.6379 15.2806L29.3213 15.7339L29.2877 20.4975H42.905V17.2476L34.4657 17.2155L35.3296 16.8452C36.8708 16.1846 39.0041 15.1551 39.6468 14.7617C41.2841 13.7597 42.2272 12.647 42.6272 11.2453C42.8094 10.6063 42.792 8.94725 42.5959 8.27584C41.9694 6.13107 40.2339 4.74005 37.6817 4.33714C37.1449 4.25237 35.6717 4.22286 35.1658 4.28669ZM80.7659 4.282C79.794 4.4201 78.5542 4.77168 77.8758 5.10164C76.0414 5.9936 74.5526 7.68676 73.9303 9.58866C73.5707 10.6877 73.5106 11.1035 73.5106 12.4956C73.5106 13.8877 73.5707 14.3035 73.9303 15.4026C74.5678 17.3508 76.0694 19.0359 77.94 19.9019C79.1532 20.4636 80.1122 20.68 81.6008 20.7278C84.2279 20.8122 86.2845 20.1332 87.8423 18.667C88.5154 18.0334 88.9834 17.4086 89.3406 16.6667C89.5995 16.1289 89.8972 15.2162 89.9619 14.7618L89.9997 14.4961H88.1265C86.3987 14.4961 86.2504 14.5046 86.2176 14.6055C86.198 14.6656 86.0767 14.9259 85.9481 15.1838C85.6059 15.8698 84.8144 16.6283 84.0735 16.9802C83.2913 17.3517 82.8309 17.4552 81.9541 17.4566C81.3813 17.4574 81.1008 17.4262 80.7046 17.3176C79.0112 16.8535 77.7467 15.5546 77.2579 13.7772C77.0468 13.01 77.0605 11.841 77.2891 11.1023C77.9164 9.07528 79.3621 7.82898 81.4082 7.55141C82.336 7.42551 83.2322 7.57236 84.1056 7.9934C84.9862 8.41787 85.7187 9.19 86.0944 10.0898L86.2505 10.4639L90 10.4971L89.962 10.2304C89.8481 9.42999 89.3601 8.23883 88.8155 7.43188C88.4654 6.91314 87.5018 5.96716 86.9691 5.61926C86.4472 5.27843 85.5807 4.86239 85.0226 4.68466C84.0911 4.38796 83.4575 4.29676 82.1789 4.27519C81.5077 4.26387 80.8719 4.26693 80.7659 4.282ZM44.9602 20.4975H48.5569V7.74446H56.2639V4.49368H44.9602V20.4975ZM58.0622 20.4995L61.6705 20.4663L68.3062 10.3455L68.3391 20.4975H71.9349V4.49368L68.3062 4.49905L61.691 14.6445L61.6581 4.49368H58.0622V20.4995Z" fill="black"/>
<path fill-rule="evenodd" clip-rule="evenodd" d="M11.3382 0.0632729C7.3119 0.554704 3.79389 2.79849 1.74966 6.17881C-0.278135 9.53187 -0.561561 13.7209 0.99475 17.3366C3.44784 23.0358 9.82248 26.1304 15.9947 24.6184C19.3144 23.8052 22.214 21.6717 23.9744 18.7471C25.0939 16.887 25.6926 14.709 25.6926 12.4956C25.6926 9.71991 24.7675 7.08459 23.0043 4.83749C22.5882 4.30723 21.5086 3.23554 20.9399 2.78818C18.5927 0.941859 15.7606 -0.0238099 12.7639 0.000445952C12.227 0.00482201 11.5855 0.0330782 11.3382 0.0632729ZM17.9048 6.20294C16.8099 5.16882 15.543 4.55973 14.023 4.33668C12.4695 4.10875 10.8171 4.35093 9.49345 5.00059C7.7521 5.85517 6.43426 7.44299 5.92958 9.29444C5.78507 9.82481 5.76413 10.0272 5.76336 10.9014C5.76227 12.2011 5.96034 13.1059 6.53124 14.4087L6.75314 14.9152L7.37581 14.9532C9.50854 15.0831 10.9845 16.1061 11.5871 17.8719C11.7781 18.4314 11.8624 18.8894 11.9668 19.9349L12.0448 20.7163H13.6502L13.7305 19.9036C13.884 18.3474 14.1384 17.5092 14.6983 16.7153C15.4303 15.6776 16.7184 15.0508 18.3192 14.9532L18.9419 14.9152L19.1637 14.4087C19.7346 13.1059 19.9327 12.2011 19.9316 10.9014C19.9309 10.0272 19.9099 9.82481 19.7654 9.29444C19.4381 8.09358 18.821 7.0684 17.9048 6.20294Z" fill="#19AA1E"/>
</svg>
