<svg width="28" height="32" viewBox="0 0 28 32" fill="none" xmlns="http://www.w3.org/2000/svg">
<path d="M11.636 31.3522C9.31867 31.3522 7.20667 31.0149 5.3 30.3402C3.42267 29.6362 1.94134 28.6829 0.856003 27.4802L3.144 24.0922C3.99467 25.0602 5.18267 25.8669 6.708 26.5122C8.23334 27.1282 9.964 27.4362 11.9 27.4362C13.6893 27.4362 15.2 27.1869 16.432 26.6882C17.6933 26.1895 18.6613 25.4855 19.336 24.5762C20.0107 23.6375 20.348 22.5375 20.348 21.2762C20.348 19.7215 19.7907 18.5629 18.676 17.8002C17.5613 17.0082 15.86 16.6122 13.572 16.6122H11.24L11.856 13.5322L23.12 2.3122L23.648 4.0282H6.664L7.456 0.200195H27.784L27.212 3.1922L15.904 14.4122L13.792 13.0922H14.76C16.9013 13.0922 18.7053 13.4149 20.172 14.0602C21.668 14.6762 22.7973 15.5855 23.56 16.7882C24.352 17.9615 24.748 19.3842 24.748 21.0562C24.748 23.0509 24.2053 24.8255 23.12 26.3802C22.0347 27.9349 20.5093 29.1522 18.544 30.0322C16.5787 30.9122 14.276 31.3522 11.636 31.3522Z" fill="#F47500"/>
</svg>
