<svg width="27" height="32" viewBox="0 0 27 32" fill="none" xmlns="http://www.w3.org/2000/svg">
<path d="M11.252 31.3522C8.93467 31.3522 6.82267 31.0149 4.916 30.3402C3.03867 29.6362 1.55733 28.6829 0.472 27.4802L2.804 24.0922C3.65467 25.0602 4.828 25.8669 6.324 26.5122C7.84933 27.1282 9.59467 27.4362 11.56 27.4362C14.2293 27.4362 16.2973 26.8789 17.764 25.7642C19.2307 24.6495 19.964 23.1242 19.964 21.1882C19.964 19.6629 19.3627 18.4749 18.16 17.6242C16.9573 16.7442 14.948 16.3042 12.132 16.3042H4.652L9.448 0.200195H26.828L26.08 4.0282H10.284L13.144 1.8722L9.272 14.5882L7.292 12.4762H12.924C16.884 12.4762 19.7733 13.2242 21.592 14.7202C23.44 16.2162 24.364 18.2109 24.364 20.7042C24.364 22.8162 23.8213 24.6789 22.736 26.2922C21.6507 27.8762 20.1253 29.1229 18.16 30.0322C16.1947 30.9122 13.892 31.3522 11.252 31.3522Z" fill="#F47500"/>
</svg>
