<svg width="150" height="150" viewBox="0 0 150 150" fill="none" xmlns="http://www.w3.org/2000/svg">
<path fill-rule="evenodd" clip-rule="evenodd" d="M149.96 77.4593L147.462 77.3788C147.487 76.5891 147.5 75.7961 147.5 75C147.5 74.2039 147.487 73.4109 147.462 72.6212L149.96 72.5407C149.987 73.3572 150 74.1771 150 75C150 75.8229 149.987 76.6428 149.96 77.4593ZM149.644 67.6459L147.156 67.888C147.002 66.3036 146.796 64.7343 146.542 63.1818L149.009 62.7774C149.272 64.3836 149.485 66.007 149.644 67.6459ZM148.056 57.9615L145.621 58.5272C145.262 56.9806 144.853 55.453 144.396 53.9462L146.789 53.2213C147.261 54.7805 147.684 56.3612 148.056 57.9615ZM145.212 48.5732L142.872 49.4543C142.313 47.9697 141.707 46.5083 141.055 45.0718L143.331 44.0387C144.006 45.5249 144.633 47.0371 145.212 48.5732ZM141.157 39.639L138.954 40.8194C138.205 39.4224 137.413 38.0528 136.577 36.7124L138.699 35.3902C139.563 36.7769 140.383 38.1938 141.157 39.639ZM135.969 31.3114L133.938 32.7693C133.014 31.4831 132.05 30.2283 131.046 29.0068L132.978 27.4198C134.016 28.6831 135.013 29.981 135.969 31.3114ZM129.74 23.7306L127.916 25.4399C126.834 24.2853 125.715 23.1661 124.56 22.0842L126.269 20.2599C127.464 21.3788 128.621 22.5364 129.74 23.7306ZM122.58 17.022L120.993 18.9536C119.772 17.9501 118.517 16.9857 117.231 16.0624L118.689 14.0315C120.019 14.9865 121.317 15.984 122.58 17.022ZM114.61 11.3008L113.288 13.4225C111.947 12.5873 110.578 11.7946 109.181 11.0464L110.361 8.84258C111.806 9.61666 113.223 10.4367 114.61 11.3008ZM105.961 6.66879L104.928 8.94532C103.492 8.29342 102.03 7.68703 100.546 7.12798L101.427 4.78837C102.963 5.36684 104.475 5.99428 105.961 6.66879ZM96.7787 3.21099L96.0538 5.60359C94.547 5.14707 93.0194 4.73828 91.4728 4.37899L92.0385 1.94383C93.6388 2.3156 95.2195 2.73859 96.7787 3.21099ZM87.2226 0.990972L86.8182 3.45805C85.2657 3.20359 83.6964 2.99842 82.112 2.84422L82.3541 0.355974C83.993 0.515467 85.6163 0.727706 87.2226 0.990972ZM77.4593 0.0395591L77.3788 2.53826C76.5891 2.51282 75.7961 2.5 75 2.5C74.2039 2.5 73.4109 2.51282 72.6212 2.53826L72.5407 0.0395596C73.3572 0.0132538 74.1771 0 75 0C75.8229 0 76.6428 0.0132536 77.4593 0.0395591ZM67.6459 0.355974L67.888 2.84422C66.3036 2.99842 64.7343 3.20359 63.1818 3.45805L62.7774 0.990973C64.3836 0.727707 66.007 0.515468 67.6459 0.355974ZM57.9615 1.94384L58.5272 4.37899C56.9806 4.73828 55.453 5.14707 53.9462 5.60359L53.2213 3.21099C54.7805 2.73859 56.3612 2.3156 57.9615 1.94384ZM48.5732 4.78837L49.4543 7.12798C47.9697 7.68703 46.5083 8.29342 45.0718 8.94532L44.0387 6.66879C45.5249 5.99428 47.0371 5.36684 48.5732 4.78837ZM39.639 8.84258L40.8194 11.0464C39.4224 11.7946 38.0528 12.5873 36.7124 13.4225L35.3902 11.3008C36.7769 10.4367 38.1938 9.61665 39.639 8.84258ZM31.3114 14.0315L32.7693 16.0624C31.4831 16.9857 30.2283 17.9501 29.0068 18.9536L27.4198 17.022C28.6831 15.984 29.981 14.9865 31.3114 14.0315ZM23.7306 20.2598L25.4399 22.0842C24.2853 23.166 23.1661 24.2853 22.0842 25.4399L20.2599 23.7306C21.3788 22.5364 22.5364 21.3788 23.7306 20.2598ZM17.022 27.4198L18.9536 29.0068C17.9501 30.2283 16.9857 31.4831 16.0624 32.7693L14.0315 31.3114C14.9865 29.981 15.984 28.6831 17.022 27.4198ZM11.3008 35.3902L13.4225 36.7124C12.5873 38.0528 11.7946 39.4224 11.0464 40.8193L8.84258 39.639C9.61666 38.1937 10.4367 36.7768 11.3008 35.3902ZM6.66879 44.0387L8.94532 45.0718C8.29342 46.5083 7.68703 47.9697 7.12798 49.4543L4.78837 48.5732C5.36684 47.0371 5.99428 45.5249 6.66879 44.0387ZM3.21099 53.2213L5.60359 53.9462C5.14707 55.453 4.73828 56.9806 4.37899 58.5272L1.94383 57.9615C2.3156 56.3612 2.73859 54.7805 3.21099 53.2213ZM0.990972 62.7774L3.45805 63.1818C3.20359 64.7343 2.99842 66.3036 2.84422 67.888L0.355974 67.6459C0.515467 66.007 0.727706 64.3837 0.990972 62.7774ZM0.0395591 72.5407C0.0132536 73.3572 0 74.1771 0 75C0 75.8229 0.0132538 76.6428 0.0395596 77.4593L2.53826 77.3788C2.51282 76.5891 2.5 75.7961 2.5 75C2.5 74.2039 2.51282 73.4109 2.53826 72.6212L0.0395591 72.5407ZM0.355974 82.3541L2.84422 82.112C2.99842 83.6964 3.20359 85.2657 3.45805 86.8182L0.990974 87.2226C0.727707 85.6164 0.515468 83.993 0.355974 82.3541ZM1.94384 92.0385L4.37899 91.4728C4.73828 93.0194 5.14707 94.547 5.60359 96.0538L3.21099 96.7787C2.73859 95.2195 2.3156 93.6388 1.94384 92.0385ZM4.78837 101.427L7.12798 100.546C7.68703 102.03 8.29342 103.492 8.94532 104.928L6.66878 105.961C5.99428 104.475 5.36684 102.963 4.78837 101.427ZM8.84258 110.361L11.0464 109.181C11.7946 110.578 12.5873 111.947 13.4225 113.288L11.3008 114.61C10.4367 113.223 9.61666 111.806 8.84258 110.361ZM14.0315 118.689L16.0624 117.231C16.9857 118.517 17.9501 119.772 18.9536 120.993L17.022 122.58C15.984 121.317 14.9865 120.019 14.0315 118.689ZM20.2598 126.269L22.0842 124.56C23.166 125.715 24.2853 126.834 25.4399 127.916L23.7306 129.74C22.5364 128.621 21.3788 127.464 20.2598 126.269ZM27.4198 132.978L29.0068 131.046C30.2283 132.05 31.4831 133.014 32.7693 133.938L31.3114 135.969C29.981 135.013 28.6831 134.016 27.4198 132.978ZM35.3902 138.699L36.7124 136.577C38.0528 137.413 39.4224 138.205 40.8193 138.954L39.639 141.157C38.1937 140.383 36.7768 139.563 35.3902 138.699ZM44.0387 143.331L45.0718 141.055C46.5083 141.707 47.9697 142.313 49.4543 142.872L48.5732 145.212C47.0371 144.633 45.5249 144.006 44.0387 143.331ZM53.2213 146.789L53.9462 144.396C55.453 144.853 56.9806 145.262 58.5272 145.621L57.9615 148.056C56.3612 147.684 54.7805 147.261 53.2213 146.789ZM62.7774 149.009L63.1818 146.542C64.7343 146.796 66.3036 147.002 67.888 147.156L67.6459 149.644C66.007 149.485 64.3837 149.272 62.7774 149.009ZM72.5407 149.96L72.6212 147.462C73.4109 147.487 74.2039 147.5 75 147.5C75.7961 147.5 76.5891 147.487 77.3788 147.462L77.4593 149.96C76.6428 149.987 75.8229 150 75 150C74.1771 150 73.3572 149.987 72.5407 149.96ZM82.3541 149.644L82.112 147.156C83.6964 147.002 85.2657 146.796 86.8182 146.542L87.2226 149.009C85.6164 149.272 83.993 149.485 82.3541 149.644ZM92.0385 148.056L91.4728 145.621C93.0194 145.262 94.547 144.853 96.0538 144.396L96.7787 146.789C95.2195 147.261 93.6388 147.684 92.0385 148.056ZM101.427 145.212L100.546 142.872C102.03 142.313 103.492 141.707 104.928 141.055L105.961 143.331C104.475 144.006 102.963 144.633 101.427 145.212ZM110.361 141.157L109.181 138.954C110.578 138.205 111.947 137.413 113.288 136.577L114.61 138.699C113.223 139.563 111.806 140.383 110.361 141.157ZM118.689 135.969L117.231 133.938C118.517 133.014 119.772 132.05 120.993 131.046L122.58 132.978C121.317 134.016 120.019 135.013 118.689 135.969ZM126.269 129.74L124.56 127.916C125.715 126.834 126.834 125.715 127.916 124.56L129.74 126.269C128.621 127.464 127.464 128.621 126.269 129.74ZM132.978 122.58C134.016 121.317 135.013 120.019 135.969 118.689L133.938 117.231C133.014 118.517 132.05 119.772 131.046 120.993L132.978 122.58ZM138.699 114.61L136.577 113.288C137.413 111.947 138.205 110.578 138.954 109.181L141.157 110.361C140.383 111.806 139.563 113.223 138.699 114.61ZM143.331 105.961L141.055 104.928C141.707 103.492 142.313 102.03 142.872 100.546L145.212 101.427C144.633 102.963 144.006 104.475 143.331 105.961ZM146.789 96.7787L144.396 96.0538C144.853 94.547 145.262 93.0194 145.621 91.4728L148.056 92.0385C147.684 93.6388 147.261 95.2195 146.789 96.7787ZM149.009 87.2226L146.542 86.8182C146.796 85.2657 147.002 83.6964 147.156 82.112L149.644 82.3541C149.485 83.993 149.272 85.6163 149.009 87.2226Z" fill="#565557"/>
<path fill-rule="evenodd" clip-rule="evenodd" d="M101.563 41C103.461 41 105 42.5388 105 44.437C105 50.9321 102.154 57.101 97.2119 61.316L88.4388 68.799C87.9136 69.247 87.851 70.0359 88.299 70.5612C88.747 71.0864 89.5359 71.149 90.0612 70.701L98.8343 63.2181C104.333 58.5281 107.5 51.6641 107.5 44.437C107.5 41.1581 104.842 38.5 101.563 38.5H95.75C95.0596 38.5 94.5 39.0596 94.5 39.75C94.5 40.4404 95.0596 41 95.75 41H101.563Z" fill="#565557"/>
<path fill-rule="evenodd" clip-rule="evenodd" d="M47.937 41C46.0388 41 44.5 42.5388 44.5 44.437C44.5 50.9321 47.3464 57.101 52.2881 61.316L61.0612 68.799C61.5864 69.247 61.649 70.0359 61.201 70.5612C60.753 71.0864 59.9641 71.149 59.4388 70.701L50.6657 63.2181C45.1671 58.5281 42 51.6641 42 44.437C42 41.1581 44.6581 38.5 47.937 38.5H53.75C54.4404 38.5 55 39.0596 55 39.75C55 40.4404 54.4404 41 53.75 41H47.937Z" fill="#565557"/>
<path fill-rule="evenodd" clip-rule="evenodd" d="M90.0088 45C90.6991 45 91.2588 45.5596 91.2588 46.25C91.2588 53.5343 88.6635 60.3833 85.5734 65.4051C85.3637 65.7459 85.2378 65.9499 85.1608 66.0698C85.1252 66.1253 85.0811 66.1927 85.0348 66.2542C85.0003 66.3 84.9149 66.4115 84.7748 66.5204C84.7407 66.5618 84.6821 66.635 84.5902 66.756C84.1727 67.3058 83.3885 67.413 82.8387 66.9955C82.2889 66.578 82.1817 65.7938 82.5992 65.244C82.7822 65.003 82.919 64.8349 83.0342 64.7182C83.0519 64.7003 83.0722 64.6803 83.0952 64.6591C83.1613 64.5541 83.2674 64.3822 83.4442 64.0949C86.3541 59.366 88.7588 52.9657 88.7588 46.25C88.7588 45.5596 89.3184 45 90.0088 45ZM83.4594 64.4114C83.4562 64.4129 83.4518 64.4149 83.4463 64.4176C83.4619 64.4098 83.4681 64.4073 83.4594 64.4114ZM81.3391 69.2855C81.8551 69.744 81.9017 70.5341 81.4432 71.0502C80.959 71.5951 80.563 71.9995 80.283 72.2719C80.1429 72.4082 80.0319 72.5115 79.9533 72.5829C79.914 72.6186 79.8828 72.6463 79.8602 72.6662L79.8326 72.6902L79.8238 72.6978L79.8206 72.7005L79.8185 72.7023C79.8185 72.7023 79.8183 72.7025 79.0088 71.75L79.8185 72.7023C79.2925 73.1493 78.5034 73.0855 78.0563 72.5595C77.6098 72.0341 77.6731 71.2467 78.1972 70.7993L78.1991 70.7977L78.2103 70.7879C78.2226 70.7771 78.2435 70.7586 78.2724 70.7323C78.3302 70.6798 78.4204 70.5961 78.5395 70.4802C78.7778 70.2483 79.1318 69.8876 79.5744 69.3896C80.033 68.8735 80.823 68.8269 81.3391 69.2855Z" fill="#565557"/>
<path fill-rule="evenodd" clip-rule="evenodd" d="M81.556 100H66.8946C70.3779 95.0436 77.9385 95.0413 81.556 100ZM64.022 99.9323C68.2651 91.6813 80.055 91.7982 84.432 99.8842C85.053 101.031 84.2551 102.5 82.882 102.5H65.5889C64.2704 102.5 63.419 101.105 64.022 99.9323Z" fill="#565557"/>
<path fill-rule="evenodd" clip-rule="evenodd" d="M57.5194 39.5C55.7302 39.5 54.3145 40.7241 54.1709 42.3252C53.6875 47.7167 54.0513 55.8378 57.6168 62.6718C61.5465 70.2037 65.7311 75.0433 68.0984 77.2567C68.615 77.7397 69.3479 78 70.1754 78H79.0834C79.9109 78 80.6438 77.7397 81.1604 77.2567C83.5277 75.0433 87.7123 70.2037 91.642 62.6718C95.2075 55.8378 95.5713 47.7167 95.0878 42.3252C94.9443 40.7241 93.5286 39.5 91.7393 39.5H57.5194ZM80.5088 80.3334C81.3625 80.1277 82.1818 79.7242 82.8678 79.0828C85.4493 76.6692 89.8032 71.6007 93.8584 63.8282C97.7353 56.3976 98.0826 47.73 97.5779 42.1019C97.3028 39.0349 94.6371 37 91.7393 37H57.5194C54.6217 37 51.956 39.0349 51.6809 42.1019C51.1762 47.73 51.5235 56.3976 55.4004 63.8282C59.4556 71.6007 63.8095 76.6692 66.391 79.0828C67.077 79.7242 67.8963 80.1277 68.75 80.3334V80.5H80.5088V80.3334Z" fill="#565557"/>
<path fill-rule="evenodd" clip-rule="evenodd" d="M78.5088 80.75H70.5088C70.2326 80.75 70.0088 80.9739 70.0088 81.25C70.0088 82.6307 71.1281 83.75 72.5088 83.75H76.5088C77.8895 83.75 79.0088 82.6307 79.0088 81.25C79.0088 80.9739 78.7849 80.75 78.5088 80.75ZM70.5088 78.25C68.8519 78.25 67.5088 79.5931 67.5088 81.25C67.5088 84.0114 69.7474 86.25 72.5088 86.25H76.5088C79.2702 86.25 81.5088 84.0114 81.5088 81.25C81.5088 79.5931 80.1656 78.25 78.5088 78.25H70.5088Z" fill="#565557"/>
<path fill-rule="evenodd" clip-rule="evenodd" d="M78.0088 86.75H71.0088V93.75H78.0088V86.75ZM68.5088 84.25V95.25C68.5088 95.8023 68.9565 96.25 69.5088 96.25H79.5088C80.0611 96.25 80.5088 95.8023 80.5088 95.25V84.25H68.5088Z" fill="#565557"/>
<path fill-rule="evenodd" clip-rule="evenodd" d="M62.0088 102.5V115.25H87.0088V102.5H62.0088ZM61.5088 100.25C60.4042 100.25 59.5088 101.145 59.5088 102.25V115.25C59.5088 116.355 60.4042 117.25 61.5088 117.25H87.5088C88.6134 117.25 89.5088 116.355 89.5088 115.25V102.25C89.5088 101.145 88.6134 100.25 87.5088 100.25H61.5088Z" fill="#565557"/>
<path fill-rule="evenodd" clip-rule="evenodd" d="M59.0088 117.25L58.915 119.25H89.915L90.0088 117.25H59.0088ZM58.5088 115.25C57.4042 115.25 56.5088 116.145 56.5088 117.25V119.25C56.5088 120.355 57.4042 121.25 58.5088 121.25H90.5088C91.6134 121.25 92.5088 120.355 92.5088 119.25V117.25C92.5088 116.145 91.6134 115.25 90.5088 115.25H58.5088Z" fill="#565557"/>
</svg>
