<svg width="150" height="150" viewBox="0 0 150 150" fill="none" xmlns="http://www.w3.org/2000/svg">
<path fill-rule="evenodd" clip-rule="evenodd" d="M149.96 77.4593L147.462 77.3788C147.487 76.5891 147.5 75.7961 147.5 75C147.5 74.2039 147.487 73.4109 147.462 72.6212L149.96 72.5407C149.987 73.3572 150 74.1771 150 75C150 75.8229 149.987 76.6428 149.96 77.4593ZM149.644 67.6459L147.156 67.888C147.002 66.3036 146.796 64.7343 146.542 63.1818L149.009 62.7774C149.272 64.3836 149.485 66.007 149.644 67.6459ZM148.056 57.9615L145.621 58.5272C145.262 56.9806 144.853 55.453 144.396 53.9462L146.789 53.2213C147.261 54.7805 147.684 56.3612 148.056 57.9615ZM145.212 48.5732L142.872 49.4543C142.313 47.9697 141.707 46.5083 141.055 45.0718L143.331 44.0387C144.006 45.5249 144.633 47.0371 145.212 48.5732ZM141.157 39.639L138.954 40.8194C138.205 39.4224 137.413 38.0528 136.577 36.7124L138.699 35.3902C139.563 36.7769 140.383 38.1938 141.157 39.639ZM135.969 31.3114L133.938 32.7693C133.014 31.4831 132.05 30.2283 131.046 29.0068L132.978 27.4198C134.016 28.6831 135.013 29.981 135.969 31.3114ZM129.74 23.7306L127.916 25.4399C126.834 24.2853 125.715 23.1661 124.56 22.0842L126.269 20.2599C127.464 21.3788 128.621 22.5364 129.74 23.7306ZM122.58 17.022L120.993 18.9536C119.772 17.9501 118.517 16.9857 117.231 16.0624L118.689 14.0315C120.019 14.9865 121.317 15.984 122.58 17.022ZM114.61 11.3008L113.288 13.4225C111.947 12.5873 110.578 11.7946 109.181 11.0464L110.361 8.84258C111.806 9.61666 113.223 10.4367 114.61 11.3008ZM105.961 6.66879L104.928 8.94532C103.492 8.29342 102.03 7.68703 100.546 7.12798L101.427 4.78837C102.963 5.36684 104.475 5.99428 105.961 6.66879ZM96.7787 3.21099L96.0538 5.60359C94.547 5.14707 93.0194 4.73828 91.4728 4.37899L92.0385 1.94383C93.6388 2.3156 95.2195 2.73859 96.7787 3.21099ZM87.2226 0.990972L86.8182 3.45805C85.2657 3.20359 83.6964 2.99842 82.112 2.84422L82.3541 0.355974C83.993 0.515467 85.6163 0.727706 87.2226 0.990972ZM77.4593 0.0395591L77.3788 2.53826C76.5891 2.51282 75.7961 2.5 75 2.5C74.2039 2.5 73.4109 2.51282 72.6212 2.53826L72.5407 0.0395596C73.3572 0.0132538 74.1771 0 75 0C75.8229 0 76.6428 0.0132536 77.4593 0.0395591ZM67.6459 0.355974L67.888 2.84422C66.3036 2.99842 64.7343 3.20359 63.1818 3.45805L62.7774 0.990973C64.3836 0.727707 66.007 0.515468 67.6459 0.355974ZM57.9615 1.94384L58.5272 4.37899C56.9806 4.73828 55.453 5.14707 53.9462 5.60359L53.2213 3.21099C54.7805 2.73859 56.3612 2.3156 57.9615 1.94384ZM48.5732 4.78837L49.4543 7.12798C47.9697 7.68703 46.5083 8.29342 45.0718 8.94532L44.0387 6.66879C45.5249 5.99428 47.0371 5.36684 48.5732 4.78837ZM39.639 8.84258L40.8194 11.0464C39.4224 11.7946 38.0528 12.5873 36.7124 13.4225L35.3902 11.3008C36.7769 10.4367 38.1938 9.61665 39.639 8.84258ZM31.3114 14.0315L32.7693 16.0624C31.4831 16.9857 30.2283 17.9501 29.0068 18.9536L27.4198 17.022C28.6831 15.984 29.981 14.9865 31.3114 14.0315ZM23.7306 20.2598L25.4399 22.0842C24.2853 23.166 23.1661 24.2853 22.0842 25.4399L20.2599 23.7306C21.3788 22.5364 22.5364 21.3788 23.7306 20.2598ZM17.022 27.4198L18.9536 29.0068C17.9501 30.2283 16.9857 31.4831 16.0624 32.7693L14.0315 31.3114C14.9865 29.981 15.984 28.6831 17.022 27.4198ZM11.3008 35.3902L13.4225 36.7124C12.5873 38.0528 11.7946 39.4224 11.0464 40.8193L8.84258 39.639C9.61666 38.1937 10.4367 36.7768 11.3008 35.3902ZM6.66879 44.0387L8.94532 45.0718C8.29342 46.5083 7.68703 47.9697 7.12798 49.4543L4.78837 48.5732C5.36684 47.0371 5.99428 45.5249 6.66879 44.0387ZM3.21099 53.2213L5.60359 53.9462C5.14707 55.453 4.73828 56.9806 4.37899 58.5272L1.94383 57.9615C2.3156 56.3612 2.73859 54.7805 3.21099 53.2213ZM0.990972 62.7774L3.45805 63.1818C3.20359 64.7343 2.99842 66.3036 2.84422 67.888L0.355974 67.6459C0.515467 66.007 0.727706 64.3837 0.990972 62.7774ZM0.0395591 72.5407C0.0132536 73.3572 0 74.1771 0 75C0 75.8229 0.0132538 76.6428 0.0395596 77.4593L2.53826 77.3788C2.51282 76.5891 2.5 75.7961 2.5 75C2.5 74.2039 2.51282 73.4109 2.53826 72.6212L0.0395591 72.5407ZM0.355974 82.3541L2.84422 82.112C2.99842 83.6964 3.20359 85.2657 3.45805 86.8182L0.990974 87.2226C0.727707 85.6164 0.515468 83.993 0.355974 82.3541ZM1.94384 92.0385L4.37899 91.4728C4.73828 93.0194 5.14707 94.547 5.60359 96.0538L3.21099 96.7787C2.73859 95.2195 2.3156 93.6388 1.94384 92.0385ZM4.78837 101.427L7.12798 100.546C7.68703 102.03 8.29342 103.492 8.94532 104.928L6.66878 105.961C5.99428 104.475 5.36684 102.963 4.78837 101.427ZM8.84258 110.361L11.0464 109.181C11.7946 110.578 12.5873 111.947 13.4225 113.288L11.3008 114.61C10.4367 113.223 9.61666 111.806 8.84258 110.361ZM14.0315 118.689L16.0624 117.231C16.9857 118.517 17.9501 119.772 18.9536 120.993L17.022 122.58C15.984 121.317 14.9865 120.019 14.0315 118.689ZM20.2598 126.269L22.0842 124.56C23.166 125.715 24.2853 126.834 25.4399 127.916L23.7306 129.74C22.5364 128.621 21.3788 127.464 20.2598 126.269ZM27.4198 132.978L29.0068 131.046C30.2283 132.05 31.4831 133.014 32.7693 133.938L31.3114 135.969C29.981 135.013 28.6831 134.016 27.4198 132.978ZM35.3902 138.699L36.7124 136.577C38.0528 137.413 39.4224 138.205 40.8193 138.954L39.639 141.157C38.1937 140.383 36.7768 139.563 35.3902 138.699ZM44.0387 143.331L45.0718 141.055C46.5083 141.707 47.9697 142.313 49.4543 142.872L48.5732 145.212C47.0371 144.633 45.5249 144.006 44.0387 143.331ZM53.2213 146.789L53.9462 144.396C55.453 144.853 56.9806 145.262 58.5272 145.621L57.9615 148.056C56.3612 147.684 54.7805 147.261 53.2213 146.789ZM62.7774 149.009L63.1818 146.542C64.7343 146.796 66.3036 147.002 67.888 147.156L67.6459 149.644C66.007 149.485 64.3837 149.272 62.7774 149.009ZM72.5407 149.96L72.6212 147.462C73.4109 147.487 74.2039 147.5 75 147.5C75.7961 147.5 76.5891 147.487 77.3788 147.462L77.4593 149.96C76.6428 149.987 75.8229 150 75 150C74.1771 150 73.3572 149.987 72.5407 149.96ZM82.3541 149.644L82.112 147.156C83.6964 147.002 85.2657 146.796 86.8182 146.542L87.2226 149.009C85.6164 149.272 83.993 149.485 82.3541 149.644ZM92.0385 148.056L91.4728 145.621C93.0194 145.262 94.547 144.853 96.0538 144.396L96.7787 146.789C95.2195 147.261 93.6388 147.684 92.0385 148.056ZM101.427 145.212L100.546 142.872C102.03 142.313 103.492 141.707 104.928 141.055L105.961 143.331C104.475 144.006 102.963 144.633 101.427 145.212ZM110.361 141.157L109.181 138.954C110.578 138.205 111.947 137.413 113.288 136.577L114.61 138.699C113.223 139.563 111.806 140.383 110.361 141.157ZM118.689 135.969L117.231 133.938C118.517 133.014 119.772 132.05 120.993 131.046L122.58 132.978C121.317 134.016 120.019 135.013 118.689 135.969ZM126.269 129.74L124.56 127.916C125.715 126.834 126.834 125.715 127.916 124.56L129.74 126.269C128.621 127.464 127.464 128.621 126.269 129.74ZM132.978 122.58C134.016 121.317 135.013 120.019 135.969 118.689L133.938 117.231C133.014 118.517 132.05 119.772 131.046 120.993L132.978 122.58ZM138.699 114.61L136.577 113.288C137.413 111.947 138.205 110.578 138.954 109.181L141.157 110.361C140.383 111.806 139.563 113.223 138.699 114.61ZM143.331 105.961L141.055 104.928C141.707 103.492 142.313 102.03 142.872 100.546L145.212 101.427C144.633 102.963 144.006 104.475 143.331 105.961ZM146.789 96.7787L144.396 96.0538C144.853 94.547 145.262 93.0194 145.621 91.4728L148.056 92.0385C147.684 93.6388 147.261 95.2195 146.789 96.7787ZM149.009 87.2226L146.542 86.8182C146.796 85.2657 147.002 83.6964 147.156 82.112L149.644 82.3541C149.485 83.993 149.272 85.6163 149.009 87.2226Z" fill="#565557"/>
<path fill-rule="evenodd" clip-rule="evenodd" d="M114.836 88.71C115.479 88.71 116 89.2339 116 89.8802V90.5421C116 91.1884 115.479 91.7123 114.836 91.7123C114.193 91.7123 113.672 91.1884 113.672 90.5421V89.8802C113.672 89.2339 114.193 88.71 114.836 88.71Z" fill="#565557"/>
<path fill-rule="evenodd" clip-rule="evenodd" d="M69.1243 32.1673C69.1259 32.8136 68.6061 33.3388 67.9633 33.3403L67.305 33.3419C66.6622 33.3435 66.1399 32.8209 66.1383 32.1746C66.1368 31.5284 66.6566 31.0032 67.2993 31.0016L67.9577 31C68.6004 30.9984 69.1228 31.5211 69.1243 32.1673Z" fill="#565557"/>
<path fill-rule="evenodd" clip-rule="evenodd" d="M102.95 44.1495H63.5933C62.3879 44.1495 61.4106 45.1214 61.4106 46.3203V51.7767C61.4106 52.9755 62.3879 53.9474 63.5933 53.9474H102.95C104.156 53.9474 105.133 52.9755 105.133 51.7767V46.3203C105.133 45.1214 104.156 44.1495 102.95 44.1495ZM63.5933 41.9788C61.1824 41.9788 59.228 43.9226 59.228 46.3203V51.7767C59.228 54.1744 61.1824 56.1181 63.5933 56.1181H102.95C105.361 56.1181 107.315 54.1744 107.315 51.7767V46.3203C107.315 43.9226 105.361 41.9788 102.95 41.9788H63.5933Z" fill="#565557"/>
<path fill-rule="evenodd" clip-rule="evenodd" d="M50.1917 36.5475C50.1917 33.5504 52.6348 31.1207 55.6484 31.1207H62.6123C63.215 31.1207 63.7036 31.6066 63.7036 32.206C63.7036 32.8055 63.215 33.2914 62.6123 33.2914H55.6484C53.8402 33.2914 52.3744 34.7492 52.3744 36.5475V74.0056C52.3744 74.605 51.8858 75.0909 51.2831 75.0909C50.6803 75.0909 50.1917 74.605 50.1917 74.0056V36.5475ZM78.1297 32.206C78.1297 31.6066 78.6183 31.1207 79.221 31.1207H110.477C113.49 31.1207 115.934 33.5504 115.934 36.5475V79.2976C115.934 79.897 115.445 80.3829 114.842 80.3829C114.239 80.3829 113.751 79.897 113.751 79.2976V36.5475C113.751 34.7492 112.285 33.2914 110.477 33.2914H79.221C78.6183 33.2914 78.1297 32.8055 78.1297 32.206ZM114.842 94.2282C115.445 94.2282 115.934 94.7142 115.934 95.3136V110.413C115.934 113.41 113.49 115.84 110.477 115.84H73.5922C72.9895 115.84 72.5009 115.354 72.5009 114.755C72.5009 114.155 72.9895 113.669 73.5922 113.669H110.477C112.285 113.669 113.751 112.212 113.751 110.413V95.3136C113.751 94.7142 114.239 94.2282 114.842 94.2282Z" fill="#565557"/>
<path fill-rule="evenodd" clip-rule="evenodd" d="M40.9979 93.1478V99.2776C40.9979 99.779 41.249 100.368 41.952 101.018C42.6582 101.671 43.7465 102.311 45.2016 102.871C48.1054 103.988 52.2498 104.705 57.0488 104.705C61.8473 104.705 66.1434 103.988 69.2004 102.865C70.7332 102.301 71.8973 101.657 72.6582 100.995C73.4215 100.332 73.6775 99.7486 73.6775 99.2776V93.1478H75.8602V99.2776C75.8602 100.605 75.1245 101.735 74.0944 102.63C73.0619 103.527 71.631 104.286 69.9571 104.901C66.6007 106.135 62.0367 106.876 57.0488 106.876C52.0613 106.876 47.6346 106.135 44.4138 104.895C42.8067 104.277 41.4444 103.513 40.4656 102.607C39.4836 101.699 38.8152 100.575 38.8152 99.2776V93.1478H40.9979Z" fill="#565557"/>
<path fill-rule="evenodd" clip-rule="evenodd" d="M68.8623 106.365V112.495C68.8623 112.964 68.6437 113.506 68.042 114.106C67.4348 114.712 66.4931 115.316 65.2185 115.861C62.8883 116.856 59.6206 117.58 55.7728 117.828C55.1775 117.867 54.7132 118.371 54.7375 118.97C54.7619 119.569 55.2644 120.036 55.8591 119.998C59.9049 119.742 63.4505 118.979 66.08 117.855C67.5082 117.245 68.7187 116.506 69.588 115.639C70.4628 114.766 71.045 113.704 71.045 112.495V106.365H68.8623ZM34.5393 107.706V112.495C34.5393 113.651 35.0747 114.674 35.8882 115.523C36.6955 116.366 37.8198 117.087 39.1456 117.69C41.5705 118.792 44.8386 119.572 48.5828 119.908C49.1761 119.961 49.6899 119.507 49.7296 118.91C49.7693 118.311 49.3179 117.795 48.7235 117.741C45.1736 117.417 42.1815 116.683 40.0527 115.715C38.8807 115.183 38.0208 114.602 37.4683 114.026C36.922 113.456 36.722 112.942 36.722 112.495V107.706H34.5393Z" fill="#565557"/>
<path fill-rule="evenodd" clip-rule="evenodd" d="M72.5356 90.9441C71.6853 90.246 70.392 89.5752 68.7066 89.0039L69.4107 86.9492C71.2363 87.568 72.798 88.3447 73.9252 89.2701C75.0457 90.1901 75.8602 91.3672 75.8602 92.7655C75.8602 94.0929 75.1245 95.2227 74.0944 96.1179C73.062 97.015 71.631 97.7736 69.9571 98.3888C66.6007 99.6224 62.0368 100.364 57.0488 100.364C52.0612 100.364 47.6284 99.6225 44.4015 98.3832C42.7913 97.7648 41.4259 97.0013 40.4446 96.0964C39.4604 95.1888 38.789 94.0639 38.789 92.7655C38.789 91.8902 39.1127 91.091 39.6309 90.3954L41.3847 91.6876C41.0847 92.0902 40.9716 92.4471 40.9716 92.7655C40.9716 93.2655 41.223 93.8539 41.9287 94.5047C42.6374 95.1582 43.7291 95.798 45.1878 96.3582C48.0985 97.4761 52.2498 98.1929 57.0488 98.1929C61.8474 98.1929 66.1434 97.4763 69.2004 96.3527C70.7332 95.7893 71.8973 95.1444 72.6582 94.4832C73.4215 93.82 73.6775 93.2365 73.6775 92.7655C73.6775 92.2699 73.3924 91.6476 72.5356 90.9441Z" fill="#565557"/>
<path fill-rule="evenodd" clip-rule="evenodd" d="M37.3246 104.161C38.1749 103.463 39.4682 102.792 41.1536 102.221L40.4495 100.166C38.6239 100.785 37.0621 101.562 35.935 102.487C34.8145 103.407 34 104.584 34 105.982C34 107.31 34.7357 108.44 35.7658 109.335C36.7982 110.232 38.2292 110.991 39.9031 111.606C43.2595 112.839 47.8234 113.581 52.8114 113.581C57.7989 113.581 62.2318 112.84 65.4587 111.6C67.0689 110.982 68.4343 110.218 69.4156 109.313C70.3998 108.406 71.0712 107.281 71.0712 105.982C71.0712 105.107 70.7475 104.308 70.2293 103.612L68.4755 104.905C68.7755 105.307 68.8885 105.664 68.8885 105.982C68.8885 106.482 68.6372 107.071 67.9315 107.722C67.2228 108.375 66.1311 109.015 64.6724 109.575C61.7617 110.693 57.6103 111.41 52.8114 111.41C48.0128 111.41 43.7168 110.693 40.6597 109.57C39.127 109.006 37.9629 108.361 37.2019 107.7C36.4387 107.037 36.1827 106.453 36.1827 105.982C36.1827 105.487 36.4678 104.865 37.3246 104.161Z" fill="#565557"/>
<path fill-rule="evenodd" clip-rule="evenodd" d="M103.477 65.7746H100.132C99.6051 65.7746 99.1782 66.1991 99.1782 66.7228C99.1782 67.2465 99.6051 67.671 100.132 67.671H103.477C104.003 67.671 104.43 67.2465 104.43 66.7228C104.43 66.1991 104.003 65.7746 103.477 65.7746ZM100.132 63.6038C98.3996 63.6038 96.9955 65.0003 96.9955 66.7228C96.9955 68.4454 98.3996 69.8418 100.132 69.8418H103.477C105.209 69.8418 106.613 68.4454 106.613 66.7228C106.613 65.0003 105.209 63.6038 103.477 63.6038H100.132Z" fill="#565557"/>
<path fill-rule="evenodd" clip-rule="evenodd" d="M103.477 79.0822H100.132C99.6051 79.0822 99.1782 79.5067 99.1782 80.0304C99.1782 80.5541 99.6051 80.9786 100.132 80.9786H103.477C104.003 80.9786 104.43 80.5541 104.43 80.0304C104.43 79.5067 104.003 79.0822 103.477 79.0822ZM100.132 76.9114C98.3996 76.9114 96.9955 78.3079 96.9955 80.0304C96.9955 81.753 98.3996 83.1494 100.132 83.1494H103.477C105.209 83.1494 106.613 81.753 106.613 80.0304C106.613 78.3079 105.209 76.9114 103.477 76.9114H100.132Z" fill="#565557"/>
<path fill-rule="evenodd" clip-rule="evenodd" d="M103.477 89.8946H100.132C99.6051 89.8946 99.1782 90.3191 99.1782 90.8428C99.1782 91.3665 99.6051 91.7911 100.132 91.7911H103.477C104.003 91.7911 104.43 91.3665 104.43 90.8428C104.43 90.3191 104.003 89.8946 103.477 89.8946ZM100.132 87.7239C98.3996 87.7239 96.9955 89.1203 96.9955 90.8428C96.9955 92.5654 98.3996 93.9618 100.132 93.9618H103.477C105.209 93.9618 106.613 92.5654 106.613 90.8428C106.613 89.1203 105.209 87.7239 103.477 87.7239H100.132Z" fill="#565557"/>
<path fill-rule="evenodd" clip-rule="evenodd" d="M103.477 100.707H100.132C99.6051 100.707 99.1782 101.132 99.1782 101.655C99.1782 102.179 99.6051 102.603 100.132 102.603H103.477C104.003 102.603 104.43 102.179 104.43 101.655C104.43 101.132 104.003 100.707 103.477 100.707ZM100.132 98.5363C98.3996 98.5363 96.9955 99.9327 96.9955 101.655C96.9955 103.378 98.3996 104.774 100.132 104.774H103.477C105.209 104.774 106.613 103.378 106.613 101.655C106.613 99.9327 105.209 98.5363 103.477 98.5363H100.132Z" fill="#565557"/>
<path fill-rule="evenodd" clip-rule="evenodd" d="M91.0662 65.7746H87.721C87.1944 65.7746 86.7675 66.1991 86.7675 66.7228C86.7675 67.2465 87.1944 67.671 87.721 67.671H91.0662C91.5928 67.671 92.0196 67.2465 92.0196 66.7228C92.0196 66.1991 91.5928 65.7746 91.0662 65.7746ZM87.721 63.6038C85.9889 63.6038 84.5848 65.0003 84.5848 66.7228C84.5848 68.4454 85.9889 69.8418 87.721 69.8418H91.0662C92.7982 69.8418 94.2023 68.4454 94.2023 66.7228C94.2023 65.0003 92.7982 63.6038 91.0662 63.6038H87.721Z" fill="#565557"/>
<path fill-rule="evenodd" clip-rule="evenodd" d="M91.0662 79.0822H87.721C87.1944 79.0822 86.7675 79.5067 86.7675 80.0304C86.7675 80.5541 87.1944 80.9786 87.721 80.9786H91.0662C91.5928 80.9786 92.0196 80.5541 92.0196 80.0304C92.0196 79.5067 91.5928 79.0822 91.0662 79.0822ZM87.721 76.9114C85.9889 76.9114 84.5848 78.3079 84.5848 80.0304C84.5848 81.753 85.9889 83.1494 87.721 83.1494H91.0662C92.7982 83.1494 94.2023 81.753 94.2023 80.0304C94.2023 78.3079 92.7982 76.9114 91.0662 76.9114H87.721Z" fill="#565557"/>
<path fill-rule="evenodd" clip-rule="evenodd" d="M91.0662 89.8946H87.721C87.1944 89.8946 86.7675 90.3191 86.7675 90.8428C86.7675 91.3665 87.1944 91.7911 87.721 91.7911H91.0662C91.5928 91.7911 92.0196 91.3665 92.0196 90.8428C92.0196 90.3191 91.5928 89.8946 91.0662 89.8946ZM87.721 87.7239C85.9889 87.7239 84.5848 89.1203 84.5848 90.8428C84.5848 92.5654 85.9889 93.9618 87.721 93.9618H91.0662C92.7982 93.9618 94.2023 92.5654 94.2023 90.8428C94.2023 89.1203 92.7982 87.7239 91.0662 87.7239H87.721Z" fill="#565557"/>
<path fill-rule="evenodd" clip-rule="evenodd" d="M91.0662 100.707H87.721C87.1944 100.707 86.7675 101.132 86.7675 101.655C86.7675 102.179 87.1944 102.603 87.721 102.603H91.0662C91.5928 102.603 92.0196 102.179 92.0196 101.655C92.0196 101.132 91.5928 100.707 91.0662 100.707ZM87.721 98.5363C85.9889 98.5363 84.5848 99.9327 84.5848 101.655C84.5848 103.378 85.9889 104.774 87.721 104.774H91.0662C92.7982 104.774 94.2023 103.378 94.2023 101.655C94.2023 99.9327 92.7982 98.5363 91.0662 98.5363H87.721Z" fill="#565557"/>
<path fill-rule="evenodd" clip-rule="evenodd" d="M66.2448 65.8477H62.8996C62.373 65.8477 61.9461 66.2722 61.9461 66.7959C61.9461 67.3196 62.373 67.7442 62.8996 67.7442H66.2448C66.7714 67.7442 67.1983 67.3196 67.1983 66.7959C67.1983 66.2723 66.7714 65.8477 66.2448 65.8477ZM62.8996 63.677C61.1676 63.677 59.7635 65.0734 59.7635 66.7959C59.7635 68.5185 61.1676 69.9149 62.8996 69.9149H66.2448C67.9769 69.9149 69.381 68.5185 69.381 66.7959C69.381 65.0734 67.9769 63.677 66.2448 63.677H62.8996Z" fill="#565557"/>
<path fill-rule="evenodd" clip-rule="evenodd" d="M37.7842 79.8565V85.9862C37.7842 86.5222 38.0339 87.1392 38.6902 87.808C39.3503 88.4808 40.3708 89.1481 41.7497 89.7375C44.5039 90.9148 48.497 91.7001 53.2846 91.7001C58.1066 91.7001 62.132 91.1102 64.9106 90.1211C66.3024 89.6256 67.318 89.0522 67.9678 88.4568C68.6041 87.8737 68.8408 87.3213 68.8408 86.8028V80.0984H71.0235V86.8028C71.0235 88.0828 70.4026 89.1774 69.4467 90.0533C68.5042 90.9169 67.1928 91.6143 65.6461 92.1648C62.5475 93.2678 58.2491 93.8708 53.2846 93.8708C48.2857 93.8708 43.9829 93.0549 40.8878 91.7318C39.3421 91.0711 38.0497 90.2634 37.128 89.3241C36.2025 88.3808 35.6015 87.2487 35.6015 85.9862V79.8565H37.7842Z" fill="#565557"/>
<path fill-rule="evenodd" clip-rule="evenodd" d="M68.176 80.6601C68.8057 80.1128 68.822 79.8024 68.822 79.7596C68.822 79.7168 68.8057 79.4064 68.176 78.8592C67.5508 78.3159 66.5201 77.7279 65.058 77.1905C62.1506 76.1219 57.9885 75.4175 53.2846 75.4175C48.5808 75.4175 44.4187 76.1219 41.5113 77.1905C40.0491 77.7279 39.0184 78.3159 38.3932 78.8592C37.7635 79.4064 37.7473 79.7168 37.7473 79.7596C37.7473 79.8024 37.7635 80.1128 38.3932 80.6601C39.0184 81.2033 40.0491 81.7914 41.5113 82.3288C44.4187 83.3974 48.5808 84.1017 53.2846 84.1017C57.9885 84.1017 62.1506 83.3974 65.058 82.3288C66.5201 81.7914 67.5508 81.2033 68.176 80.6601ZM53.2846 86.2725C63.0711 86.2725 71.0047 83.3566 71.0047 79.7596C71.0047 76.1627 63.0711 73.2468 53.2846 73.2468C43.4981 73.2468 35.5646 76.1627 35.5646 79.7596C35.5646 83.3566 43.4981 86.2725 53.2846 86.2725Z" fill="#565557"/>
<path fill-rule="evenodd" clip-rule="evenodd" d="M75.3103 66.0561H78.6555C79.1821 66.0561 79.6089 66.4807 79.6089 67.0044C79.6089 67.5281 79.1821 67.9526 78.6555 67.9526H75.3103C74.7837 67.9526 74.3568 67.5281 74.3568 67.0044C74.3568 66.4807 74.7837 66.0561 75.3103 66.0561ZM72.1741 67.0044C72.1741 65.2818 73.5782 63.8854 75.3103 63.8854H78.6555C80.3875 63.8854 81.7916 65.2818 81.7916 67.0044C81.7916 68.7269 80.3875 70.1234 78.6555 70.1234H75.3103C73.5782 70.1234 72.1741 68.7269 72.1741 67.0044ZM75.3103 79.3637H78.6555C79.1821 79.3637 79.6089 79.7883 79.6089 80.312C79.6089 80.8357 79.1821 81.2602 78.6555 81.2602H75.3103C74.7837 81.2602 74.3568 80.8357 74.3568 80.312C74.3568 79.7883 74.7837 79.3637 75.3103 79.3637ZM72.1741 80.312C72.1741 78.5894 73.5782 77.193 75.3103 77.193H78.6555C80.3875 77.193 81.7916 78.5894 81.7916 80.312C81.7916 82.0345 80.3875 83.4309 78.6555 83.4309H75.3103C73.5782 83.4309 72.1741 82.0345 72.1741 80.312ZM78.6555 90.1762H75.3103C74.7837 90.1762 74.3568 90.6007 74.3568 91.1244C74.3568 91.6481 74.7837 92.0726 75.3103 92.0726H78.6555C79.1821 92.0726 79.6089 91.6481 79.6089 91.1244C79.6089 90.6007 79.1821 90.1762 78.6555 90.1762ZM74.0357 93.975C74.4251 94.1475 74.8564 94.2434 75.3103 94.2434H78.6555C80.3875 94.2434 81.7916 92.847 81.7916 91.1244C81.7916 89.4019 80.3875 88.0054 78.6555 88.0054H75.3103C74.1664 88.0054 73.1655 88.6146 72.6177 89.5245C73.4643 90.0069 74.0357 90.9211 74.0357 91.9695V93.975ZM72.3514 102.973C73.3424 102.542 74.0357 101.55 74.0357 100.395V99.0862C74.4251 98.9137 74.8564 98.8179 75.3103 98.8179H78.6555C80.3875 98.8179 81.7916 100.214 81.7916 101.937C81.7916 103.659 80.3875 105.056 78.6555 105.056H75.3103C73.9435 105.056 72.781 104.186 72.3514 102.973ZM75.3103 100.989H78.6555C79.1821 100.989 79.6089 101.413 79.6089 101.937C79.6089 102.461 79.1821 102.885 78.6555 102.885H75.3103C74.7837 102.885 74.3568 102.461 74.3568 101.937C74.3568 101.413 74.7837 100.989 75.3103 100.989Z" fill="#565557"/>
</svg>
