<svg width="150" height="150" viewBox="0 0 150 150" fill="none" xmlns="http://www.w3.org/2000/svg">
<path fill-rule="evenodd" clip-rule="evenodd" d="M149.96 77.4593L147.462 77.3788C147.487 76.5891 147.5 75.7961 147.5 75C147.5 74.2039 147.487 73.4109 147.462 72.6212L149.96 72.5407C149.987 73.3572 150 74.1771 150 75C150 75.8229 149.987 76.6428 149.96 77.4593ZM149.644 67.6459L147.156 67.888C147.002 66.3036 146.796 64.7343 146.542 63.1818L149.009 62.7774C149.272 64.3836 149.485 66.007 149.644 67.6459ZM148.056 57.9615L145.621 58.5272C145.262 56.9806 144.853 55.453 144.396 53.9462L146.789 53.2213C147.261 54.7805 147.684 56.3612 148.056 57.9615ZM145.212 48.5732L142.872 49.4543C142.313 47.9697 141.707 46.5083 141.055 45.0718L143.331 44.0387C144.006 45.5249 144.633 47.0371 145.212 48.5732ZM141.157 39.639L138.954 40.8194C138.205 39.4224 137.413 38.0528 136.577 36.7124L138.699 35.3902C139.563 36.7769 140.383 38.1938 141.157 39.639ZM135.969 31.3114L133.938 32.7693C133.014 31.4831 132.05 30.2283 131.046 29.0068L132.978 27.4198C134.016 28.6831 135.013 29.981 135.969 31.3114ZM129.74 23.7306L127.916 25.4399C126.834 24.2853 125.715 23.1661 124.56 22.0842L126.269 20.2599C127.464 21.3788 128.621 22.5364 129.74 23.7306ZM122.58 17.022L120.993 18.9536C119.772 17.9501 118.517 16.9857 117.231 16.0624L118.689 14.0315C120.019 14.9865 121.317 15.984 122.58 17.022ZM114.61 11.3008L113.288 13.4225C111.947 12.5873 110.578 11.7946 109.181 11.0464L110.361 8.84258C111.806 9.61666 113.223 10.4367 114.61 11.3008ZM105.961 6.66879L104.928 8.94532C103.492 8.29342 102.03 7.68703 100.546 7.12798L101.427 4.78837C102.963 5.36684 104.475 5.99428 105.961 6.66879ZM96.7787 3.21099L96.0538 5.60359C94.547 5.14707 93.0194 4.73828 91.4728 4.37899L92.0385 1.94383C93.6388 2.3156 95.2195 2.73859 96.7787 3.21099ZM87.2226 0.990972L86.8182 3.45805C85.2657 3.20359 83.6964 2.99842 82.112 2.84422L82.3541 0.355974C83.993 0.515467 85.6163 0.727706 87.2226 0.990972ZM77.4593 0.0395591L77.3788 2.53826C76.5891 2.51282 75.7961 2.5 75 2.5C74.2039 2.5 73.4109 2.51282 72.6212 2.53826L72.5407 0.0395596C73.3572 0.0132538 74.1771 0 75 0C75.8229 0 76.6428 0.0132536 77.4593 0.0395591ZM67.6459 0.355974L67.888 2.84422C66.3036 2.99842 64.7343 3.20359 63.1818 3.45805L62.7774 0.990973C64.3836 0.727707 66.007 0.515468 67.6459 0.355974ZM57.9615 1.94384L58.5272 4.37899C56.9806 4.73828 55.453 5.14707 53.9462 5.60359L53.2213 3.21099C54.7805 2.73859 56.3612 2.3156 57.9615 1.94384ZM48.5732 4.78837L49.4543 7.12798C47.9697 7.68703 46.5083 8.29342 45.0718 8.94532L44.0387 6.66879C45.5249 5.99428 47.0371 5.36684 48.5732 4.78837ZM39.639 8.84258L40.8194 11.0464C39.4224 11.7946 38.0528 12.5873 36.7124 13.4225L35.3902 11.3008C36.7769 10.4367 38.1938 9.61665 39.639 8.84258ZM31.3114 14.0315L32.7693 16.0624C31.4831 16.9857 30.2283 17.9501 29.0068 18.9536L27.4198 17.022C28.6831 15.984 29.981 14.9865 31.3114 14.0315ZM23.7306 20.2598L25.4399 22.0842C24.2853 23.166 23.1661 24.2853 22.0842 25.4399L20.2599 23.7306C21.3788 22.5364 22.5364 21.3788 23.7306 20.2598ZM17.022 27.4198L18.9536 29.0068C17.9501 30.2283 16.9857 31.4831 16.0624 32.7693L14.0315 31.3114C14.9865 29.981 15.984 28.6831 17.022 27.4198ZM11.3008 35.3902L13.4225 36.7124C12.5873 38.0528 11.7946 39.4224 11.0464 40.8193L8.84258 39.639C9.61666 38.1937 10.4367 36.7768 11.3008 35.3902ZM6.66879 44.0387L8.94532 45.0718C8.29342 46.5083 7.68703 47.9697 7.12798 49.4543L4.78837 48.5732C5.36684 47.0371 5.99428 45.5249 6.66879 44.0387ZM3.21099 53.2213L5.60359 53.9462C5.14707 55.453 4.73828 56.9806 4.37899 58.5272L1.94383 57.9615C2.3156 56.3612 2.73859 54.7805 3.21099 53.2213ZM0.990972 62.7774L3.45805 63.1818C3.20359 64.7343 2.99842 66.3036 2.84422 67.888L0.355974 67.6459C0.515467 66.007 0.727706 64.3837 0.990972 62.7774ZM0.0395591 72.5407C0.0132536 73.3572 0 74.1771 0 75C0 75.8229 0.0132538 76.6428 0.0395596 77.4593L2.53826 77.3788C2.51282 76.5891 2.5 75.7961 2.5 75C2.5 74.2039 2.51282 73.4109 2.53826 72.6212L0.0395591 72.5407ZM0.355974 82.3541L2.84422 82.112C2.99842 83.6964 3.20359 85.2657 3.45805 86.8182L0.990974 87.2226C0.727707 85.6164 0.515468 83.993 0.355974 82.3541ZM1.94384 92.0385L4.37899 91.4728C4.73828 93.0194 5.14707 94.547 5.60359 96.0538L3.21099 96.7787C2.73859 95.2195 2.3156 93.6388 1.94384 92.0385ZM4.78837 101.427L7.12798 100.546C7.68703 102.03 8.29342 103.492 8.94532 104.928L6.66878 105.961C5.99428 104.475 5.36684 102.963 4.78837 101.427ZM8.84258 110.361L11.0464 109.181C11.7946 110.578 12.5873 111.947 13.4225 113.288L11.3008 114.61C10.4367 113.223 9.61666 111.806 8.84258 110.361ZM14.0315 118.689L16.0624 117.231C16.9857 118.517 17.9501 119.772 18.9536 120.993L17.022 122.58C15.984 121.317 14.9865 120.019 14.0315 118.689ZM20.2598 126.269L22.0842 124.56C23.166 125.715 24.2853 126.834 25.4399 127.916L23.7306 129.74C22.5364 128.621 21.3788 127.464 20.2598 126.269ZM27.4198 132.978L29.0068 131.046C30.2283 132.05 31.4831 133.014 32.7693 133.938L31.3114 135.969C29.981 135.013 28.6831 134.016 27.4198 132.978ZM35.3902 138.699L36.7124 136.577C38.0528 137.413 39.4224 138.205 40.8193 138.954L39.639 141.157C38.1937 140.383 36.7768 139.563 35.3902 138.699ZM44.0387 143.331L45.0718 141.055C46.5083 141.707 47.9697 142.313 49.4543 142.872L48.5732 145.212C47.0371 144.633 45.5249 144.006 44.0387 143.331ZM53.2213 146.789L53.9462 144.396C55.453 144.853 56.9806 145.262 58.5272 145.621L57.9615 148.056C56.3612 147.684 54.7805 147.261 53.2213 146.789ZM62.7774 149.009L63.1818 146.542C64.7343 146.796 66.3036 147.002 67.888 147.156L67.6459 149.644C66.007 149.485 64.3837 149.272 62.7774 149.009ZM72.5407 149.96L72.6212 147.462C73.4109 147.487 74.2039 147.5 75 147.5C75.7961 147.5 76.5891 147.487 77.3788 147.462L77.4593 149.96C76.6428 149.987 75.8229 150 75 150C74.1771 150 73.3572 149.987 72.5407 149.96ZM82.3541 149.644L82.112 147.156C83.6964 147.002 85.2657 146.796 86.8182 146.542L87.2226 149.009C85.6164 149.272 83.993 149.485 82.3541 149.644ZM92.0385 148.056L91.4728 145.621C93.0194 145.262 94.547 144.853 96.0538 144.396L96.7787 146.789C95.2195 147.261 93.6388 147.684 92.0385 148.056ZM101.427 145.212L100.546 142.872C102.03 142.313 103.492 141.707 104.928 141.055L105.961 143.331C104.475 144.006 102.963 144.633 101.427 145.212ZM110.361 141.157L109.181 138.954C110.578 138.205 111.947 137.413 113.288 136.577L114.61 138.699C113.223 139.563 111.806 140.383 110.361 141.157ZM118.689 135.969L117.231 133.938C118.517 133.014 119.772 132.05 120.993 131.046L122.58 132.978C121.317 134.016 120.019 135.013 118.689 135.969ZM126.269 129.74L124.56 127.916C125.715 126.834 126.834 125.715 127.916 124.56L129.74 126.269C128.621 127.464 127.464 128.621 126.269 129.74ZM132.978 122.58C134.016 121.317 135.013 120.019 135.969 118.689L133.938 117.231C133.014 118.517 132.05 119.772 131.046 120.993L132.978 122.58ZM138.699 114.61L136.577 113.288C137.413 111.947 138.205 110.578 138.954 109.181L141.157 110.361C140.383 111.806 139.563 113.223 138.699 114.61ZM143.331 105.961L141.055 104.928C141.707 103.492 142.313 102.03 142.872 100.546L145.212 101.427C144.633 102.963 144.006 104.475 143.331 105.961ZM146.789 96.7787L144.396 96.0538C144.853 94.547 145.262 93.0194 145.621 91.4728L148.056 92.0385C147.684 93.6388 147.261 95.2195 146.789 96.7787ZM149.009 87.2226L146.542 86.8182C146.796 85.2657 147.002 83.6964 147.156 82.112L149.644 82.3541C149.485 83.993 149.272 85.6163 149.009 87.2226Z" fill="#565557"/>
<path fill-rule="evenodd" clip-rule="evenodd" d="M61.7843 68.8798L45.3668 52.8332C43.5588 51.066 40.6605 51.0992 38.8933 52.9072C37.1261 54.7152 37.1592 57.6135 38.9672 59.3807L55.3847 75.4273C57.1927 77.1945 60.091 77.1614 61.8582 75.3534C63.6254 73.5453 63.5923 70.647 61.7843 68.8798ZM37.1055 51.1597C34.3732 53.9552 34.4244 58.4363 37.2198 61.1686L53.6372 77.2152C56.4326 79.9475 60.9138 79.8963 63.646 77.1008C66.3783 74.3054 66.3271 69.8243 63.5317 67.092L47.1143 51.0454C44.3189 48.3131 39.8377 48.3643 37.1055 51.1597Z" fill="#565557"/>
<path fill-rule="evenodd" clip-rule="evenodd" d="M74.1385 68.2011L86.1385 56.2011C86.8708 55.4688 86.8708 54.2815 86.1385 53.5491C85.4062 52.8168 84.2188 52.8168 83.4865 53.5491L71.4865 65.5491C70.7542 66.2815 70.7542 67.4688 71.4865 68.2011C72.2188 68.9334 73.4062 68.9334 74.1385 68.2011ZM87.9062 51.7814C86.1976 50.0727 83.4274 50.0727 81.7188 51.7814L69.7188 63.7814C68.0101 65.49 68.0101 68.2602 69.7188 69.9689C71.4274 71.6775 74.1976 71.6775 75.9062 69.9689L87.9062 57.9689C89.6149 56.2602 89.6149 53.49 87.9062 51.7814Z" fill="#565557"/>
<path fill-rule="evenodd" clip-rule="evenodd" d="M93.6261 36.7817L77.2086 20.7351C75.4006 18.9679 72.5023 19.001 70.7351 20.809C68.9679 22.6171 69.001 25.5154 70.809 27.2826L87.2265 43.3292C89.0345 45.0964 91.9328 45.0633 93.7 43.2552C95.4672 41.4472 95.4341 38.5489 93.6261 36.7817ZM68.9473 19.0616C66.215 21.857 66.2662 26.3381 69.0616 29.0704L85.479 45.117C88.2744 47.8493 92.7556 47.7981 95.4878 45.0027C98.2201 42.2073 98.1689 37.7261 95.3735 34.9939L78.9561 18.9473C76.1607 16.215 71.6796 16.2661 68.9473 19.0616Z" fill="#565557"/>
<path fill-rule="evenodd" clip-rule="evenodd" d="M69.8839 37.1162C70.372 37.6044 70.372 38.3958 69.8839 38.884L61.8839 46.884C61.3957 47.3722 60.6043 47.3722 60.1161 46.884C59.628 46.3958 59.628 45.6044 60.1161 45.1162L68.1161 37.1162C68.6043 36.6281 69.3957 36.6281 69.8839 37.1162ZM56.8839 50.1162C57.372 50.6044 57.372 51.3958 56.8839 51.884L56.3839 52.384C55.8957 52.8722 55.1043 52.8722 54.6161 52.384C54.128 51.8958 54.128 51.1044 54.6161 50.6162L55.1161 50.1162C55.6043 49.6281 56.3957 49.6281 56.8839 50.1162Z" fill="#565557"/>
<path fill-rule="evenodd" clip-rule="evenodd" d="M69.3839 27.6162C69.872 28.1044 69.872 28.8958 69.3839 29.384L46.8839 51.884C46.3957 52.3722 45.6043 52.3722 45.1161 51.884C44.628 51.3958 44.628 50.6044 45.1161 50.1162L67.6161 27.6162C68.1043 27.1281 68.8957 27.1281 69.3839 27.6162ZM89.3839 45.1162C89.872 45.6044 89.872 46.3958 89.3839 46.884L65.8839 70.384C65.3957 70.8722 64.6043 70.8722 64.1161 70.384C63.628 69.8958 63.628 69.1044 64.1161 68.6162L87.6161 45.1162C88.1043 44.6281 88.8957 44.6281 89.3839 45.1162ZM85.5618 59.1741C86.018 58.656 86.8079 58.6057 87.326 59.0619L125.872 92.9993C130.435 97.0165 130.595 104.074 126.219 108.293C121.969 112.392 115.163 112.135 111.234 107.727L76.5669 68.8318C76.1075 68.3165 76.1529 67.5263 76.6683 67.067C77.1836 66.6076 77.9738 66.653 78.4331 67.1684L113.1 106.063C116.085 109.412 121.255 109.607 124.483 106.494C127.808 103.288 127.686 97.9274 124.22 94.8757L85.674 60.9383C85.1558 60.4821 85.1056 59.6922 85.5618 59.1741Z" fill="#565557"/>
<path fill-rule="evenodd" clip-rule="evenodd" d="M67 92.5H37C35.067 92.5 33.5 94.067 33.5 96C33.5 97.933 35.067 99.5 37 99.5H67C68.933 99.5 70.5 97.933 70.5 96C70.5 94.067 68.933 92.5 67 92.5ZM37 90C33.6863 90 31 92.6863 31 96C31 99.3137 33.6863 102 37 102H67C70.3137 102 73 99.3137 73 96C73 92.6863 70.3137 90 67 90H37Z" fill="#565557"/>
<path fill-rule="evenodd" clip-rule="evenodd" d="M70 102H33C29.9624 102 27.5 104.963 27.5 108C27.5 108.829 28.1716 109.5 29 109.5H74C74.8284 109.5 75.5 108.829 75.5 108C75.5 104.963 73.0376 102 70 102ZM33 100C28.5817 100 25 103.582 25 108C25 110.209 26.7909 112 29 112H74C76.2091 112 78 110.209 78 108C78 103.582 74.4183 100 70 100H33Z" fill="#565557"/>
<path fill-rule="evenodd" clip-rule="evenodd" d="M110.884 80.6161C111.372 81.1043 111.372 81.8957 110.884 82.3839L100.384 92.8839C99.8957 93.372 99.1043 93.372 98.6161 92.8839C98.128 92.3957 98.128 91.6043 98.6161 91.1161L109.116 80.6161C109.604 80.128 110.396 80.128 110.884 80.6161ZM117.384 86.1161C117.872 86.6043 117.872 87.3957 117.384 87.8839L106.384 98.8839C105.896 99.372 105.104 99.372 104.616 98.8839C104.128 98.3957 104.128 97.6043 104.616 97.1161L115.616 86.1161C116.104 85.628 116.896 85.628 117.384 86.1161Z" fill="#565557"/>
</svg>
