<svg width="39" height="36" viewBox="0 0 39 36" fill="none" xmlns="http://www.w3.org/2000/svg">
<path fill-rule="evenodd" clip-rule="evenodd" d="M37.3586 0.051322C37.3454 0.079624 37.3209 0.10278 37.3041 0.10278C37.2874 0.10278 37.2454 0.125936 37.211 0.154238C37.1765 0.18254 37.1369 0.205697 37.123 0.205697C37.1092 0.205697 37.0736 0.224221 37.0442 0.246863C37.0146 0.269505 36.9797 0.28803 36.9664 0.28803C36.9532 0.28803 36.9261 0.306555 36.9062 0.329196C36.8863 0.351838 36.8533 0.370363 36.8327 0.370363C36.8122 0.370363 36.7836 0.388888 36.7691 0.411529C36.7546 0.434171 36.7253 0.452696 36.704 0.452696C36.6827 0.452696 36.6481 0.471221 36.6271 0.493862C36.6061 0.516504 36.576 0.535029 36.5603 0.535029C36.5446 0.535029 36.5155 0.553554 36.4956 0.576195C36.4758 0.598837 36.4479 0.617362 36.4337 0.617362C36.4194 0.617362 36.3822 0.640518 36.3509 0.66882C36.3196 0.697122 36.2785 0.720278 36.2596 0.720278C36.2407 0.720278 36.2089 0.738803 36.189 0.761445C36.1692 0.784086 36.1407 0.802611 36.1258 0.802611C36.1108 0.802611 36.0824 0.821136 36.0625 0.843778C36.0426 0.866419 36.0076 0.884944 35.9847 0.884944C35.9618 0.884944 35.9329 0.903469 35.9205 0.926111C35.9081 0.948753 35.8796 0.967277 35.8572 0.967277C35.8348 0.967277 35.8064 0.985802 35.7939 1.00844C35.7815 1.03109 35.7565 1.04961 35.7382 1.04961C35.72 1.04961 35.6769 1.07277 35.6425 1.10107C35.608 1.12937 35.5663 1.15253 35.5498 1.15253C35.5332 1.15253 35.5197 1.162 35.5197 1.17354C35.5197 1.18511 35.4938 1.20596 35.462 1.21985C35.4303 1.23377 35.3876 1.26137 35.3671 1.28117C35.3467 1.30099 35.3157 1.31719 35.2983 1.31719C35.2809 1.31719 35.2666 1.32693 35.2666 1.33883C35.2666 1.35072 35.2334 1.374 35.1928 1.39055C35.1522 1.40712 35.119 1.4289 35.119 1.43896C35.119 1.44901 35.0905 1.46694 35.0557 1.47877C35.0209 1.49061 34.9924 1.50913 34.9924 1.51994C34.9924 1.53074 34.9663 1.54968 34.9344 1.56201C34.9025 1.57434 34.8337 1.61689 34.7815 1.65657C34.7293 1.69623 34.6672 1.73703 34.6435 1.74722C34.6199 1.75741 34.5879 1.7806 34.5724 1.79876C34.557 1.81691 34.5327 1.83177 34.5185 1.83177C34.5043 1.83177 34.4756 1.8503 34.4546 1.87294C34.4336 1.89558 34.404 1.91411 34.3888 1.91411C34.3736 1.91411 34.351 1.93263 34.3386 1.95527C34.3261 1.97792 34.2977 1.99644 34.2753 1.99644C34.2529 1.99644 34.2244 2.01497 34.212 2.03761C34.1996 2.06025 34.1754 2.07877 34.1583 2.07877C34.1412 2.07877 34.111 2.0973 34.0911 2.11994C34.0712 2.14258 34.0445 2.16111 34.0317 2.16111C34.0189 2.16111 33.9861 2.18426 33.9589 2.21257C33.9316 2.24087 33.8989 2.26402 33.8861 2.26402C33.8733 2.26402 33.8466 2.28255 33.8267 2.30519C33.8068 2.32783 33.7766 2.34636 33.7595 2.34636C33.7424 2.34636 33.7182 2.36488 33.7058 2.38752C33.6934 2.41016 33.6649 2.42869 33.6425 2.42869C33.6201 2.42869 33.5917 2.44721 33.5792 2.46986C33.5668 2.4925 33.5442 2.51102 33.529 2.51102C33.5138 2.51102 33.4842 2.52955 33.4632 2.55219C33.4422 2.57483 33.412 2.59336 33.396 2.59336C33.3801 2.59336 33.362 2.60612 33.3558 2.6217C33.3467 2.64502 33.2118 2.74077 33.0333 2.85065C33.0149 2.86197 32.9873 2.88743 32.972 2.90725C32.9566 2.92705 32.9318 2.94327 32.9169 2.94327C32.902 2.94327 32.8725 2.9618 32.8515 2.98444C32.8306 3.00708 32.8016 3.0256 32.7873 3.0256C32.7729 3.0256 32.7556 3.03964 32.7489 3.05679C32.7421 3.07393 32.7126 3.09686 32.6833 3.10773C32.6541 3.1186 32.6301 3.13607 32.6301 3.14655C32.6301 3.15705 32.5992 3.18486 32.5615 3.20834C32.5238 3.23185 32.4741 3.26287 32.4511 3.27728C32.4281 3.29168 32.3967 3.31968 32.3814 3.3395C32.366 3.3593 32.3413 3.37552 32.3263 3.37552C32.3114 3.37552 32.2819 3.39404 32.261 3.41669C32.24 3.43933 32.2123 3.45785 32.1995 3.45785C32.1867 3.45785 32.1643 3.47638 32.1498 3.49902C32.1353 3.52166 32.1097 3.54019 32.0928 3.54019C32.0759 3.54019 32.0519 3.55871 32.0395 3.58135C32.0271 3.60399 32.0031 3.62252 31.9862 3.62252C31.9693 3.62252 31.9436 3.64104 31.9291 3.66369C31.9146 3.68633 31.8913 3.70485 31.8773 3.70485C31.8633 3.70485 31.8275 3.7257 31.7978 3.75116C31.7681 3.77665 31.7225 3.81337 31.6965 3.83278C31.6705 3.85219 31.5953 3.91009 31.5294 3.96142C31.4635 4.01276 31.4046 4.05477 31.3984 4.05477C31.3923 4.05477 31.3486 4.09182 31.3012 4.1371C31.2539 4.18238 31.2077 4.21943 31.1986 4.21943C31.1895 4.21943 31.1598 4.24259 31.1325 4.27089C31.1053 4.29919 31.0709 4.32235 31.056 4.32235C31.0413 4.32235 31.0216 4.33474 31.0123 4.34991C31.003 4.36506 30.9798 4.38589 30.9607 4.39622C30.9417 4.40654 30.8895 4.44455 30.8447 4.48068C30.6149 4.66628 30.5004 4.7546 30.4895 4.7546C30.4828 4.7546 30.4424 4.79165 30.3997 4.83693C30.3571 4.88222 30.3122 4.91926 30.3 4.91926C30.2878 4.91926 30.266 4.93779 30.2515 4.96043C30.237 4.98307 30.2134 5.0016 30.199 5.0016C30.1846 5.0016 30.1312 5.03865 30.0805 5.08393C30.0297 5.12921 29.9833 5.16626 29.9774 5.16626C29.9715 5.16626 29.9451 5.18711 29.9187 5.21258C29.8922 5.23806 29.8485 5.2747 29.8213 5.29404C29.7113 5.37249 29.6229 5.4457 29.5968 5.47995C29.5817 5.49988 29.5607 5.51618 29.5502 5.51618C29.5397 5.51618 29.4924 5.55323 29.4451 5.59851C29.3978 5.6438 29.3543 5.68085 29.3484 5.68085C29.3304 5.68085 29.077 5.89065 29.0591 5.92039C29.0498 5.93581 29.0308 5.94843 29.0167 5.94843C29.0027 5.94843 28.9794 5.96695 28.9649 5.98959C28.9504 6.01224 28.925 6.03076 28.9085 6.03076C28.892 6.03076 28.8724 6.04929 28.8651 6.07193C28.8577 6.09457 28.8385 6.11309 28.8225 6.11309C28.8065 6.11309 28.7858 6.12621 28.7765 6.14224C28.7672 6.15825 28.7216 6.19954 28.6752 6.23396C28.5993 6.29032 28.5438 6.33648 28.3504 6.50418C28.3178 6.53248 28.2078 6.62973 28.1061 6.7203C28.0043 6.81087 27.9104 6.88826 27.8974 6.89227C27.8844 6.89629 27.8405 6.93054 27.7999 6.96837C27.7593 7.0062 27.6773 7.08164 27.6176 7.13602C27.558 7.1904 27.4476 7.29278 27.3723 7.36353C27.2971 7.43429 27.2293 7.49217 27.2217 7.49217C27.2142 7.49217 27.1731 7.52922 27.1304 7.57451C27.0877 7.61979 27.045 7.65684 27.0354 7.65684C27.0182 7.65684 26.7779 7.87177 26.696 7.96044C26.6725 7.9859 26.6414 8.00675 26.6269 8.00675C26.6123 8.00675 26.5944 8.02528 26.5871 8.04792C26.5797 8.07056 26.5601 8.08909 26.5435 8.08909C26.5269 8.08909 26.5133 8.09769 26.5133 8.10821C26.5133 8.11871 26.4997 8.13956 26.4831 8.15452C26.2492 8.36523 25.9583 8.63613 25.7778 8.81127C25.6543 8.93111 25.5418 9.033 25.5279 9.03769C25.514 9.04238 25.328 9.21524 25.1146 9.42185C24.9012 9.62845 24.7209 9.7975 24.714 9.7975C24.6947 9.7975 24.5516 9.94543 24.5516 9.96531C24.5516 9.97491 24.538 9.98275 24.5214 9.98275C24.5048 9.98275 24.4852 10.0013 24.4778 10.0239C24.4705 10.0466 24.4515 10.0651 24.4356 10.0651C24.4198 10.0651 24.4008 10.0836 24.3935 10.1062C24.3861 10.1289 24.3671 10.1474 24.3513 10.1474C24.3354 10.1474 24.3164 10.1659 24.3091 10.1886C24.3017 10.2112 24.2874 10.2297 24.2774 10.2297C24.2539 10.2297 24.0243 10.4567 24.0243 10.4799C24.0243 10.4895 24.0107 10.4973 23.9941 10.4973C23.9775 10.4973 23.9579 10.5159 23.9505 10.5385C23.9432 10.5611 23.9242 10.5797 23.9083 10.5797C23.8925 10.5797 23.8735 10.5982 23.8661 10.6208C23.8588 10.6435 23.8398 10.662 23.824 10.662C23.8081 10.662 23.7891 10.6805 23.7818 10.7032C23.7744 10.7258 23.7601 10.7443 23.7501 10.7443C23.7266 10.7443 23.497 10.9713 23.497 10.9945C23.497 11.0041 23.4834 11.0119 23.4668 11.0119C23.4502 11.0119 23.4306 11.0304 23.4232 11.0531C23.4158 11.0757 23.3969 11.0942 23.381 11.0942C23.3652 11.0942 23.3469 11.1107 23.3403 11.1308C23.3338 11.1509 23.1481 11.3426 22.9276 11.5568C22.7072 11.7709 22.5268 11.954 22.5268 11.9636C22.5268 11.9732 22.42 12.0864 22.2895 12.2151C22.0587 12.4428 21.7134 12.794 21.4841 13.0342C21.422 13.0993 21.3607 13.1526 21.3478 13.1526C21.335 13.1526 21.3245 13.1609 21.3245 13.1711C21.3245 13.1812 21.2433 13.2732 21.1442 13.3754C21.045 13.4776 20.9361 13.5952 20.9022 13.6369C20.8683 13.6785 20.793 13.7602 20.7348 13.8185C20.4615 14.0924 20.3542 14.204 20.3542 14.2146C20.3542 14.2355 20.2314 14.3464 20.2082 14.3464C20.1957 14.3464 20.1855 14.3548 20.1855 14.3651C20.1855 14.3754 20.1214 14.4506 20.0431 14.5321C19.9648 14.6136 19.897 14.6909 19.8924 14.7038C19.884 14.7273 19.829 14.7871 19.619 15.001C19.5569 15.0643 19.4917 15.1375 19.4742 15.1635C19.4567 15.1896 19.4299 15.2109 19.4146 15.2109C19.3993 15.2109 19.3809 15.2292 19.3736 15.2515C19.3664 15.2738 19.323 15.3266 19.2773 15.3689C19.2316 15.4112 19.1942 15.4555 19.1941 15.4673C19.1941 15.4791 19.1565 15.5244 19.1106 15.5679C19.0646 15.6114 19.0213 15.6646 19.0143 15.6862C19.0072 15.7078 18.9879 15.7255 18.9713 15.7255C18.9547 15.7255 18.941 15.7324 18.9409 15.7409C18.9408 15.7494 18.8834 15.8166 18.8132 15.8901C18.7431 15.9637 18.6717 16.0494 18.6546 16.0805C18.6376 16.1117 18.6151 16.1371 18.6048 16.1371C18.5944 16.1371 18.5644 16.1719 18.5381 16.2143C18.5118 16.2568 18.4555 16.3239 18.413 16.3636C18.3704 16.4032 18.2723 16.5143 18.1949 16.6106C18.1176 16.7068 18.0025 16.8411 17.9391 16.909C17.8758 16.9769 17.8024 17.0621 17.7761 17.0983C17.7022 17.1999 17.6072 17.3168 17.5656 17.3575C17.5448 17.3778 17.5279 17.4032 17.5279 17.4141C17.5279 17.425 17.5136 17.4339 17.4962 17.4339C17.4788 17.4339 17.4646 17.4432 17.4646 17.4545C17.4646 17.4658 17.4471 17.4921 17.4257 17.513C17.4044 17.5338 17.3513 17.6033 17.3077 17.6673C17.2641 17.7314 17.2205 17.7838 17.2108 17.7838C17.2012 17.7838 17.1872 17.8023 17.1798 17.825C17.1725 17.8476 17.1552 17.8662 17.1415 17.8662C17.1278 17.8662 17.1023 17.8886 17.0849 17.9159C16.9954 18.0563 16.8852 18.2005 16.8601 18.2099C16.8445 18.2157 16.8318 18.2329 16.8318 18.2481C16.8318 18.2633 16.8185 18.2832 16.8022 18.2922C16.7859 18.3013 16.704 18.3967 16.6202 18.5042C16.5365 18.6118 16.4525 18.7151 16.4337 18.7338C16.4148 18.7525 16.3709 18.8148 16.3361 18.8723C16.3013 18.9298 16.261 18.977 16.2465 18.9772C16.232 18.9775 16.2201 18.9882 16.2201 19.001C16.2201 19.0139 16.1988 19.045 16.1727 19.0702C16.1465 19.0953 16.1025 19.1534 16.0748 19.1991C16.0471 19.2449 15.9854 19.3237 15.9377 19.3744C15.89 19.425 15.8083 19.5321 15.7561 19.6123C15.7039 19.6924 15.6517 19.7585 15.6401 19.7591C15.62 19.76 15.5702 19.8284 15.5051 19.944C15.4888 19.9729 15.4627 20.0039 15.4471 20.013C15.4314 20.022 15.4186 20.0429 15.4186 20.0593C15.4186 20.0757 15.4068 20.0892 15.3922 20.0893C15.3675 20.0894 15.3269 20.142 15.2484 20.2754C15.2302 20.3063 15.1993 20.3472 15.1798 20.3662C15.1603 20.3853 15.1444 20.4094 15.1444 20.4199C15.1444 20.4304 15.1308 20.439 15.1142 20.439C15.0976 20.439 15.0777 20.4584 15.0699 20.4822C15.0504 20.5423 14.943 20.6941 14.8688 20.7665C14.8347 20.7999 14.7993 20.8441 14.7903 20.8647C14.754 20.9478 14.6894 21.0357 14.6645 21.0358C14.6501 21.0359 14.6382 21.0483 14.6382 21.0633C14.6382 21.0783 14.6145 21.1123 14.5855 21.1389C14.5564 21.1655 14.5327 21.2027 14.5327 21.2216C14.5327 21.2405 14.5137 21.2728 14.4905 21.2933C14.4673 21.3137 14.4483 21.343 14.4483 21.3582C14.4483 21.3734 14.4356 21.3859 14.4201 21.3859C14.4046 21.3859 14.3809 21.4067 14.3675 21.4322C14.3163 21.5296 14.2675 21.6039 14.2269 21.6463C14.1372 21.7399 14.0898 21.802 14.0898 21.826C14.0898 21.8555 14.0348 21.9294 13.9685 21.9888C13.9424 22.0122 13.921 22.0422 13.921 22.0554C13.921 22.0685 13.9021 22.0961 13.8789 22.1166C13.8557 22.1371 13.8367 22.1662 13.8367 22.1814C13.8367 22.1965 13.8177 22.2204 13.7945 22.2346C13.7713 22.2487 13.7523 22.2705 13.7523 22.283C13.7523 22.2955 13.7344 22.3216 13.7125 22.3409C13.6907 22.3602 13.6672 22.4033 13.6603 22.4367C13.6531 22.472 13.6345 22.4974 13.6157 22.4974C13.598 22.4974 13.5836 22.5053 13.5836 22.515C13.5836 22.5246 13.5598 22.5575 13.5308 22.588C13.5018 22.6186 13.4781 22.6598 13.4781 22.6795C13.4781 22.6993 13.4401 22.754 13.3937 22.8012C13.3473 22.8483 13.3094 22.8937 13.3094 22.902C13.3094 22.9205 13.2023 23.0761 13.17 23.1046C13.1571 23.1159 13.1161 23.1784 13.0788 23.2435C13.0415 23.3086 13.0024 23.3619 12.9918 23.3619C12.9813 23.3619 12.9669 23.3844 12.9598 23.4118C12.9528 23.4393 12.9289 23.4778 12.9067 23.4973C12.8846 23.5169 12.8664 23.545 12.8664 23.5599C12.8664 23.5747 12.8474 23.5968 12.8242 23.6089C12.801 23.621 12.782 23.643 12.782 23.6579C12.782 23.6727 12.7631 23.7016 12.7399 23.7221C12.7167 23.7426 12.6977 23.7759 12.6977 23.7961C12.6977 23.8164 12.6811 23.8451 12.6608 23.8599C12.616 23.8927 12.5289 24.011 12.5289 24.0392C12.5289 24.0504 12.5052 24.0846 12.4762 24.1151C12.4472 24.1456 12.4235 24.1811 12.4235 24.194C12.4235 24.2068 12.4045 24.2306 12.3813 24.247C12.3581 24.2633 12.3391 24.2926 12.3391 24.3121C12.3391 24.3316 12.3225 24.3597 12.3022 24.3745C12.2603 24.4052 12.2001 24.4975 12.1673 24.5814C12.1551 24.6126 12.1339 24.638 12.1202 24.638C12.1065 24.638 12.0835 24.6635 12.0691 24.6946C12.0126 24.8166 11.9651 24.8906 11.9314 24.909C11.912 24.9196 11.8962 24.9402 11.8962 24.9549C11.8962 24.9696 11.8772 24.9983 11.854 25.0188C11.8308 25.0393 11.8118 25.0701 11.8118 25.0872C11.8118 25.1043 11.7973 25.133 11.7796 25.1509C11.7326 25.1986 11.6495 25.3269 11.6332 25.3769C11.6255 25.4007 11.6079 25.4203 11.5942 25.4204C11.5804 25.4204 11.5586 25.4413 11.5456 25.4667C11.4771 25.6008 11.4438 25.6558 11.4132 25.6861C11.3946 25.7046 11.3557 25.7673 11.3267 25.8255C11.2977 25.8837 11.2573 25.9359 11.237 25.9414C11.2143 25.9476 11.2001 25.9716 11.2001 26.0037C11.2001 26.0324 11.1834 26.0681 11.1629 26.0828C11.1424 26.0976 11.1134 26.1329 11.0985 26.1612C11.0836 26.1895 11.0528 26.2474 11.0301 26.2898C10.9757 26.3915 10.9259 26.3923 10.9259 26.2915C10.9259 26.2499 10.9117 26.2006 10.8944 26.1819C10.877 26.1632 10.8565 26.1023 10.8487 26.0465C10.8409 25.9907 10.8209 25.9353 10.8043 25.9232C10.7876 25.9112 10.7691 25.8557 10.7632 25.7997C10.7573 25.7438 10.7379 25.6868 10.7201 25.6731C10.702 25.659 10.6833 25.6023 10.6776 25.5437C10.6706 25.473 10.6555 25.4332 10.6306 25.4202C10.6056 25.4071 10.5906 25.3671 10.5834 25.294C10.5769 25.2283 10.5595 25.1774 10.5385 25.1623C10.5195 25.1488 10.5041 25.113 10.5041 25.0826C10.5041 25.0523 10.4848 25.0021 10.4613 24.971C10.4378 24.94 10.4126 24.8778 10.4054 24.8329C10.3981 24.788 10.3794 24.7438 10.3637 24.7348C10.3481 24.7257 10.3353 24.7004 10.3353 24.6786C10.3353 24.624 10.2717 24.4734 10.2486 24.4734C10.2383 24.4734 10.2299 24.4385 10.2299 24.396C10.2299 24.3409 10.2177 24.3112 10.1877 24.2929C10.1622 24.2774 10.1455 24.2448 10.1454 24.2108C10.1454 24.1797 10.1264 24.124 10.1032 24.0869C10.0801 24.0499 10.0611 23.998 10.0611 23.9718C10.0611 23.9455 10.0421 23.9072 10.0189 23.8867C9.99573 23.8663 9.97674 23.8235 9.97674 23.7917C9.97674 23.76 9.95913 23.7174 9.9376 23.6972C9.91606 23.6769 9.89242 23.6295 9.88503 23.5917C9.87765 23.554 9.85257 23.497 9.82927 23.465C9.80598 23.4331 9.78691 23.3833 9.78691 23.3543C9.78691 23.3226 9.77006 23.2928 9.74473 23.2795C9.71513 23.2641 9.70254 23.2364 9.70254 23.1869C9.70254 23.1374 9.68995 23.1097 9.66036 23.0943C9.63064 23.0788 9.61817 23.0512 9.61817 23.0009C9.61817 22.9517 9.60851 22.9296 9.58693 22.9296C9.56977 22.9296 9.54992 22.9042 9.54285 22.873C9.51733 22.7605 9.48801 22.6826 9.47118 22.6826C9.46173 22.6826 9.44764 22.6579 9.43986 22.6276C9.43209 22.5974 9.40733 22.5498 9.38485 22.522C9.36236 22.4941 9.34376 22.4563 9.34351 22.438C9.34325 22.4197 9.32448 22.3816 9.30178 22.3533C9.27909 22.325 9.26032 22.2874 9.26006 22.2697C9.25981 22.252 9.24062 22.2177 9.21741 22.1934C9.19421 22.1691 9.17523 22.1389 9.17523 22.1264C9.17523 22.0966 8.99094 21.7556 8.95213 21.7136C8.93562 21.6957 8.92212 21.6661 8.92212 21.6478C8.92212 21.6294 8.89839 21.5894 8.86939 21.5589C8.84039 21.5284 8.81666 21.4925 8.81666 21.4792C8.81666 21.4659 8.77869 21.4054 8.73229 21.3447C8.68588 21.284 8.64792 21.2192 8.64792 21.2006C8.64792 21.1821 8.62657 21.147 8.60046 21.1227C8.50626 21.035 8.47918 21.0011 8.47918 20.9709C8.47918 20.954 8.45545 20.9185 8.42645 20.8919C8.39744 20.8653 8.37372 20.8323 8.37372 20.8185C8.37372 20.8046 8.36098 20.7886 8.34541 20.7828C8.32035 20.7734 8.21012 20.6292 8.12061 20.4888C8.1032 20.4615 8.07711 20.4391 8.0626 20.4391C8.04811 20.4391 8.03624 20.4312 8.03624 20.4215C8.03624 20.4119 8.00753 20.3725 7.97245 20.334C7.64392 19.9737 7.51631 19.8421 7.49545 19.8421C7.48695 19.8421 7.44143 19.8055 7.39426 19.7607C7.19043 19.5671 7.10443 19.4922 7.08602 19.4922C7.0752 19.4922 7.05449 19.4737 7.04 19.4511C7.02551 19.4284 7.00161 19.4099 6.98688 19.4099C6.97216 19.4099 6.94386 19.3914 6.92399 19.3687C6.90412 19.3461 6.87712 19.3276 6.864 19.3276C6.85086 19.3276 6.81452 19.3044 6.78324 19.2761C6.75194 19.2478 6.71469 19.2246 6.70047 19.2246C6.68623 19.2246 6.65835 19.2061 6.63848 19.1835C6.61861 19.1608 6.58362 19.1423 6.56071 19.1423C6.53781 19.1423 6.50891 19.1238 6.49648 19.1011C6.48391 19.0782 6.45232 19.06 6.42519 19.06C6.39838 19.06 6.35928 19.0414 6.33829 19.0188C6.3173 18.9962 6.27459 18.9776 6.24337 18.9776C6.21216 18.9776 6.16945 18.9591 6.14846 18.9365C6.12538 18.9116 6.08349 18.8953 6.04257 18.8953C6.00533 18.8953 5.95224 18.8781 5.92456 18.857C5.8941 18.8337 5.82652 18.8148 5.75329 18.809C5.68054 18.8032 5.61644 18.7853 5.59244 18.7641C5.56114 18.7365 5.49626 18.7263 5.29155 18.7171C5.12533 18.7095 5.0136 18.6949 4.98384 18.6768C4.92126 18.6386 4.62244 18.6383 4.56595 18.6763C4.53879 18.6945 4.43081 18.7081 4.25509 18.7153C4.05081 18.7237 3.97254 18.7348 3.93075 18.7615C3.90044 18.7809 3.81753 18.8018 3.74651 18.8079C3.66767 18.8147 3.59777 18.8339 3.56706 18.8572C3.53915 18.8783 3.48256 18.8953 3.43991 18.8953C3.38918 18.8953 3.35081 18.9093 3.32696 18.9365C3.3065 18.9598 3.26474 18.9776 3.23063 18.9776C3.1972 18.9776 3.15343 18.996 3.13223 19.0188C3.11125 19.0414 3.07328 19.06 3.04786 19.06C3.02245 19.06 2.98448 19.0785 2.96349 19.1011C2.94251 19.1238 2.90454 19.1423 2.87912 19.1423C2.85371 19.1423 2.81652 19.16 2.79646 19.1816C2.77642 19.2033 2.73504 19.227 2.7045 19.2345C2.67398 19.242 2.63616 19.266 2.62049 19.2878C2.60482 19.3097 2.57581 19.3276 2.55607 19.3276C2.53631 19.3276 2.5083 19.3461 2.49381 19.3687C2.47932 19.3914 2.45067 19.4099 2.43015 19.4099C2.40963 19.4099 2.37657 19.4284 2.35671 19.4511C2.33684 19.4737 2.30659 19.4922 2.28948 19.4922C2.27238 19.4922 2.24823 19.5107 2.2358 19.5334C2.22338 19.556 2.1949 19.5746 2.17253 19.5746C2.15015 19.5746 2.12167 19.5931 2.10925 19.6157C2.09682 19.6384 2.07514 19.6571 2.06105 19.6573C2.04696 19.6576 1.98889 19.6993 1.93203 19.75C1.87514 19.8007 1.82294 19.8423 1.81602 19.8424C1.80908 19.8426 1.76145 19.8796 1.71018 19.9248C1.6589 19.9699 1.60497 20.0068 1.59033 20.0068C1.57567 20.0068 1.55766 20.0253 1.5503 20.048C1.54294 20.0706 1.52695 20.0891 1.51478 20.0891C1.50259 20.0891 1.43418 20.1493 1.36274 20.2229C1.29132 20.2965 1.22596 20.3567 1.2175 20.3567C1.18441 20.3567 0.210925 21.3329 0.210925 21.3661C0.210925 21.377 0.196687 21.3859 0.179286 21.3859C0.161885 21.3859 0.147647 21.3943 0.147647 21.4047C0.147647 21.415 0.114427 21.4569 0.0738237 21.4977C0.00487236 21.567 0 21.5807 0 21.7053C0 21.7991 0.00790968 21.8387 0.0266609 21.8387C0.0413202 21.8387 0.116409 21.8943 0.193545 21.9622C0.270659 22.0301 0.343744 22.0857 0.355978 22.0857C0.36819 22.0857 0.388334 22.1042 0.400757 22.1269C0.413181 22.1495 0.436593 22.168 0.452813 22.168C0.469012 22.168 0.488312 22.1866 0.495673 22.2092C0.503035 22.2319 0.522187 22.2504 0.538238 22.2504C0.554268 22.2504 0.574981 22.2627 0.584262 22.2777C0.593542 22.2927 0.658085 22.3532 0.727691 22.4121C1.01058 22.6516 1.14203 22.7736 1.56202 23.1869C2.19419 23.809 2.20505 23.8201 2.23475 23.8744C2.2496 23.9016 2.29625 23.9585 2.33842 24.0009C2.48691 24.1503 2.59438 24.2717 2.59438 24.2901C2.59438 24.3003 2.60884 24.3087 2.62654 24.3087C2.64422 24.3087 2.66695 24.3299 2.67708 24.3559C2.68718 24.3818 2.71068 24.4153 2.72928 24.4304C2.74789 24.4455 2.76312 24.4679 2.76312 24.4803C2.76312 24.4927 2.78166 24.5216 2.80431 24.5447C2.95826 24.7013 3.0131 24.7634 3.06896 24.8446C3.10376 24.8951 3.18682 25.0043 3.25352 25.0871C3.32023 25.1699 3.3748 25.2458 3.3748 25.2558C3.3748 25.2658 3.39838 25.3 3.42719 25.3317C3.51979 25.4335 3.532 25.4486 3.59062 25.5329C3.6223 25.5784 3.64841 25.6269 3.64862 25.6404C3.64883 25.654 3.66393 25.6733 3.68218 25.6833C3.71662 25.7021 3.75136 25.7535 3.80692 25.8679C3.82478 25.9047 3.84824 25.9348 3.85906 25.9348C3.86986 25.9348 3.8911 25.9567 3.90622 25.9835C3.92137 26.0104 3.9553 26.0706 3.98163 26.1173C4.00797 26.1641 4.03674 26.2024 4.04556 26.2024C4.05438 26.2024 4.07319 26.2278 4.08734 26.259C4.12858 26.3496 4.18479 26.4378 4.21238 26.4551C4.22641 26.4639 4.24408 26.5032 4.25163 26.5425C4.25942 26.583 4.27798 26.614 4.29439 26.614C4.31033 26.614 4.33809 26.6441 4.35608 26.6809C4.42022 26.8122 4.45731 26.8716 4.48534 26.8878C4.50099 26.8968 4.51379 26.9215 4.51379 26.9427C4.51379 26.9998 4.53617 27.0463 4.56363 27.0463C4.57696 27.0463 4.60966 27.0926 4.63628 27.1493C4.66292 27.2059 4.70795 27.2768 4.73636 27.3067C4.76475 27.3366 4.78799 27.3825 4.78799 27.4088C4.78799 27.4354 4.80662 27.4662 4.83018 27.4785C4.85338 27.4907 4.87236 27.5129 4.87236 27.5279C4.87236 27.543 4.89135 27.5788 4.91455 27.6076C4.93775 27.6364 4.95673 27.6744 4.95673 27.692C4.95673 27.7097 4.97572 27.734 4.99892 27.7461C5.02636 27.7604 5.0411 27.7892 5.0411 27.8284C5.0411 27.8677 5.05585 27.8965 5.08329 27.9108C5.10649 27.9229 5.12547 27.9503 5.12547 27.9716C5.12547 28.032 5.14829 28.0754 5.18006 28.0754C5.19601 28.0754 5.21524 28.1009 5.22282 28.132C5.23041 28.1632 5.24792 28.2025 5.26173 28.2195C5.27555 28.2365 5.31457 28.306 5.34842 28.3739C5.38227 28.4418 5.42665 28.5095 5.44703 28.5243C5.46738 28.5391 5.48405 28.5738 5.48405 28.6015C5.48405 28.6292 5.50303 28.6703 5.52623 28.6929C5.54943 28.7156 5.56842 28.7581 5.56842 28.7875C5.56842 28.8236 5.5821 28.8444 5.6106 28.8516C5.63737 28.8585 5.65279 28.8797 5.65279 28.9098C5.65279 28.9786 5.67415 29.0223 5.70777 29.0223C5.72479 29.0223 5.73715 29.0432 5.73715 29.072C5.73715 29.1431 5.75814 29.1869 5.79214 29.1869C5.8083 29.1869 5.82222 29.1985 5.82309 29.2127C5.82777 29.2895 5.8481 29.3432 5.88531 29.3771C5.90824 29.3979 5.92699 29.4374 5.92699 29.4649C5.92699 29.4938 5.94479 29.5241 5.96917 29.5369C5.9968 29.5513 6.01136 29.58 6.01136 29.6199C6.01136 29.6535 6.03032 29.6994 6.05354 29.7221C6.07674 29.7447 6.09573 29.7844 6.09573 29.8102C6.09573 29.8359 6.11471 29.8729 6.13791 29.8923C6.16111 29.9117 6.1801 29.947 6.1801 29.9708C6.1801 29.9946 6.19908 30.0376 6.22228 30.0664C6.24548 30.0952 6.26476 30.1337 6.26512 30.152C6.26548 30.1703 6.28917 30.2223 6.31775 30.2676C6.34633 30.3128 6.36976 30.3731 6.36982 30.4015C6.36989 30.4308 6.3882 30.4643 6.41211 30.4789C6.43903 30.4953 6.4543 30.5269 6.4543 30.5662C6.4543 30.6003 6.47309 30.6461 6.49648 30.6689C6.51969 30.6916 6.53871 30.7309 6.53875 30.7564C6.5388 30.7819 6.55778 30.833 6.58094 30.8701C6.6041 30.9072 6.62304 30.9605 6.62304 30.9887C6.62304 31.0168 6.64202 31.0557 6.66522 31.0751C6.69022 31.096 6.70741 31.1358 6.70741 31.1729C6.70741 31.2131 6.72245 31.2445 6.74959 31.2611C6.78033 31.2798 6.79178 31.3091 6.79178 31.3689C6.79178 31.4237 6.80587 31.4648 6.83396 31.4923C6.86008 31.5177 6.87615 31.5609 6.87615 31.6055C6.87615 31.6451 6.88539 31.6775 6.89669 31.6775C6.92462 31.6775 6.98161 31.7886 6.98161 31.8431C6.98161 31.8673 7.00059 31.9107 7.0238 31.9395C7.047 31.9683 7.06598 32.0222 7.06598 32.0594C7.06598 32.1474 7.0845 32.1921 7.12097 32.1921C7.14063 32.1921 7.15035 32.2165 7.15035 32.266C7.15035 32.3088 7.16813 32.362 7.19254 32.3923C7.21719 32.4229 7.23472 32.4758 7.23472 32.5196C7.23472 32.5691 7.24904 32.6066 7.27691 32.6299C7.3061 32.6543 7.31909 32.6906 7.31909 32.7478C7.31909 32.8051 7.33208 32.8414 7.36128 32.8658C7.39125 32.8909 7.40346 32.9265 7.40346 32.9891C7.40346 33.0481 7.41667 33.0901 7.44335 33.1161C7.46646 33.1387 7.48977 33.2014 7.49878 33.2652C7.50888 33.337 7.5281 33.3849 7.55381 33.4024C7.58327 33.4226 7.59329 33.455 7.59329 33.5305C7.59329 33.6104 7.60209 33.6361 7.63548 33.6535C7.66897 33.671 7.67766 33.6966 7.67766 33.7777C7.67766 33.8525 7.68899 33.891 7.71985 33.9211C7.74991 33.9504 7.76203 33.9897 7.76203 34.0578C7.76203 34.1231 7.77313 34.1612 7.79719 34.1783C7.8197 34.1944 7.8379 34.2493 7.84777 34.331C7.85625 34.4012 7.8784 34.475 7.89698 34.4951C7.91651 34.5162 7.93077 34.5675 7.93077 34.6168C7.93077 34.6636 7.95096 34.7398 7.97562 34.786C8.00029 34.8321 8.02388 34.9172 8.02803 34.975C8.03229 35.0343 8.05066 35.0964 8.07019 35.1174C8.09053 35.1394 8.11078 35.2109 8.11923 35.2907C8.1279 35.3725 8.14552 35.4338 8.16338 35.4446C8.1826 35.4562 8.1978 35.5184 8.20637 35.6206C8.21609 35.7367 8.22887 35.7838 8.25448 35.7977C8.27876 35.811 8.28935 35.8446 8.28935 35.9084V36H8.45667C8.60335 36 8.62558 35.9951 8.63689 35.9603C8.64397 35.9385 8.68021 35.9017 8.7174 35.8785C8.8484 35.7967 8.86629 35.7832 8.94412 35.7067C8.98732 35.6642 9.03766 35.6295 9.05602 35.6295C9.07437 35.6295 9.09953 35.611 9.11195 35.5883C9.12438 35.5657 9.1481 35.5472 9.16468 35.5472C9.18126 35.5472 9.20499 35.5286 9.21741 35.506C9.22984 35.4834 9.25 35.4648 9.26226 35.4648C9.27449 35.4648 9.3345 35.4232 9.3956 35.3722C9.45671 35.3213 9.51708 35.2796 9.52975 35.2796C9.54243 35.2796 9.56038 35.2678 9.56966 35.2534C9.57894 35.2389 9.61115 35.2119 9.64125 35.1932C9.67132 35.1746 9.72517 35.1308 9.7609 35.096C9.79661 35.0611 9.83232 35.0326 9.84025 35.0326C9.84816 35.0326 9.88449 35.009 9.92097 34.9803C9.95744 34.9515 10.0092 34.9121 10.0361 34.8928C10.0629 34.8734 10.1049 34.8368 10.1295 34.8113C10.1541 34.7859 10.1844 34.765 10.1969 34.765C10.2095 34.765 10.2316 34.7465 10.2461 34.7238C10.2605 34.7012 10.289 34.6827 10.3093 34.6827C10.3296 34.6827 10.3581 34.6641 10.3726 34.6415C10.3871 34.6189 10.4108 34.6003 10.4253 34.6003C10.4399 34.6003 10.4636 34.5818 10.4781 34.5592C10.4926 34.5365 10.5171 34.518 10.5326 34.518C10.5481 34.518 10.578 34.4995 10.599 34.4768C10.62 34.4542 10.6496 34.4357 10.6648 34.4357C10.68 34.4357 10.7026 34.4171 10.715 34.3945C10.7274 34.3719 10.7498 34.3533 10.7648 34.3533C10.7798 34.3533 10.8143 34.3302 10.8415 34.3019C10.8688 34.2736 10.9015 34.2504 10.9143 34.2504C10.9272 34.2504 10.9539 34.2319 10.9737 34.2093C10.9936 34.1866 11.0239 34.1681 11.041 34.1681C11.0581 34.1681 11.0822 34.1496 11.0946 34.1269C11.1071 34.1043 11.1297 34.0858 11.1448 34.0858C11.1601 34.0858 11.1897 34.0672 11.2107 34.0446C11.2316 34.0219 11.2613 34.0034 11.2765 34.0034C11.2916 34.0034 11.3142 33.9849 11.3267 33.9623C11.3391 33.9396 11.3631 33.9211 11.38 33.9211C11.3969 33.9211 11.4225 33.9026 11.437 33.8799C11.4515 33.8573 11.4724 33.8388 11.4835 33.8388C11.5097 33.8388 11.6486 33.7475 11.7725 33.649C11.8263 33.6062 11.8795 33.5712 11.8905 33.5712C11.9016 33.5712 11.9279 33.5527 11.9489 33.53C11.9699 33.5074 11.9995 33.4888 12.0147 33.4888C12.0299 33.4888 12.0525 33.4703 12.0649 33.4477C12.0773 33.425 12.1015 33.4065 12.1186 33.4065C12.1357 33.4065 12.1659 33.388 12.1858 33.3653C12.2057 33.3427 12.2337 33.3242 12.248 33.3242C12.2624 33.3242 12.293 33.3044 12.3161 33.2803C12.3571 33.2374 12.4019 33.2082 12.5078 33.1555C12.5368 33.1411 12.573 33.1129 12.5881 33.0929C12.6033 33.0729 12.6273 33.0566 12.6414 33.0566C12.6556 33.0566 12.6835 33.0381 12.7033 33.0154C12.7232 32.9928 12.7523 32.9743 12.768 32.9743C12.7837 32.9743 12.8138 32.9557 12.8348 32.9331C12.8558 32.9105 12.8858 32.8919 12.9015 32.8919C12.9172 32.8919 12.9464 32.8734 12.9662 32.8508C12.9861 32.8281 13.0131 32.8096 13.0262 32.8096C13.0394 32.8096 13.0757 32.7864 13.107 32.7581C13.1383 32.7298 13.1762 32.7067 13.1912 32.7067C13.2062 32.7067 13.2356 32.6882 13.2566 32.6655C13.2776 32.6429 13.3061 32.6243 13.3199 32.6243C13.3337 32.6243 13.3622 32.6058 13.3832 32.5832C13.4042 32.5605 13.4374 32.542 13.457 32.542C13.4766 32.542 13.5098 32.5235 13.5308 32.5008C13.5518 32.4782 13.585 32.4597 13.6047 32.4597C13.6243 32.4597 13.6575 32.4412 13.6785 32.4185C13.6995 32.3959 13.7279 32.3773 13.7418 32.3773C13.7556 32.3773 13.784 32.3588 13.805 32.3362C13.826 32.3135 13.8608 32.295 13.8823 32.295C13.9037 32.295 13.9419 32.2719 13.9672 32.2436C13.9924 32.2153 14.0296 32.1921 14.05 32.1921C14.0703 32.1921 14.093 32.1736 14.1003 32.1509C14.1077 32.1283 14.1263 32.1098 14.1417 32.1098C14.1706 32.1098 14.1952 32.0664 14.1952 32.0152C14.1952 31.9991 14.2285 31.9397 14.2691 31.8833C14.3097 31.827 14.3429 31.7739 14.3429 31.7655C14.3429 31.7302 14.4616 31.521 14.4957 31.4962C14.5161 31.4815 14.5327 31.4468 14.5327 31.4192C14.5327 31.3914 14.5515 31.3577 14.5749 31.3434C14.5981 31.3293 14.6171 31.2975 14.6171 31.2729C14.6171 31.2079 14.6387 31.1629 14.6698 31.1629C14.6992 31.1629 14.7226 31.1186 14.7226 31.0629C14.7226 31.0437 14.7415 31.0121 14.7647 30.9928C14.7879 30.9734 14.8069 30.9446 14.8069 30.9289C14.8069 30.9132 14.8205 30.8894 14.8372 30.8759C14.8539 30.8624 14.8736 30.8242 14.8811 30.791C14.8885 30.7578 14.9071 30.7307 14.9223 30.7307C14.9544 30.7307 14.9757 30.6859 14.9757 30.6182C14.9757 30.5881 14.9911 30.5669 15.0178 30.56C15.047 30.5526 15.06 30.532 15.06 30.4931C15.06 30.4596 15.0813 30.4177 15.1128 30.3892C15.1419 30.3629 15.1655 30.3186 15.1655 30.2901C15.1655 30.2619 15.1786 30.2313 15.1945 30.2223C15.2105 30.2132 15.2505 30.1552 15.2835 30.0932C15.3165 30.0313 15.3604 29.9642 15.3811 29.944C15.4017 29.9238 15.4186 29.8889 15.4186 29.8664C15.4186 29.8438 15.4376 29.8138 15.4608 29.7997C15.4893 29.7822 15.503 29.7517 15.503 29.7049C15.503 29.6532 15.5136 29.6332 15.5452 29.6252C15.5748 29.6176 15.5873 29.5971 15.5873 29.5562C15.5873 29.5242 15.604 29.4859 15.6243 29.4711C15.6446 29.4563 15.6897 29.3864 15.7245 29.3156C15.7592 29.2449 15.7986 29.187 15.8118 29.187C15.8395 29.1869 15.8615 29.1402 15.8615 29.0817C15.8615 29.0596 15.8757 29.0363 15.893 29.0298C15.9102 29.0233 15.9341 28.9829 15.9459 28.9399C15.9578 28.897 15.9816 28.8565 15.9989 28.8501C16.0162 28.8436 16.0303 28.8233 16.0303 28.8049C16.0303 28.7865 16.0493 28.7479 16.0725 28.7191C16.0957 28.6903 16.1147 28.6556 16.1147 28.6419C16.1147 28.6282 16.1336 28.6002 16.1568 28.5797C16.18 28.5593 16.199 28.5267 16.199 28.5075C16.199 28.4883 16.2228 28.4475 16.2518 28.417C16.2808 28.3865 16.3045 28.3465 16.3045 28.3281C16.3045 28.3098 16.3177 28.2802 16.3338 28.2623C16.3499 28.2444 16.3899 28.1792 16.4228 28.1172C16.4556 28.0553 16.4994 27.9882 16.5201 27.968C16.5407 27.9478 16.5576 27.9143 16.5576 27.8934C16.5576 27.8725 16.5766 27.8386 16.5998 27.8182C16.623 27.7977 16.642 27.7637 16.642 27.7427C16.642 27.7217 16.661 27.6887 16.6842 27.6693C16.7074 27.6499 16.7263 27.6235 16.7263 27.6105C16.7263 27.5976 16.7453 27.5635 16.7685 27.5347C16.7917 27.5059 16.8107 27.471 16.8107 27.4571C16.8107 27.4432 16.8344 27.4103 16.8634 27.3841C16.8924 27.3579 16.9162 27.315 16.9162 27.2889C16.9162 27.2628 16.9352 27.2299 16.9584 27.2157C16.9816 27.2016 17.0008 27.1739 17.001 27.1542C17.0013 27.1345 17.02 27.0952 17.0427 27.0669C17.0654 27.0386 17.0842 27.0053 17.0844 26.9929C17.0847 26.9805 17.1039 26.9536 17.1271 26.9331C17.1503 26.9126 17.1693 26.8791 17.1693 26.8586C17.1693 26.8381 17.1866 26.8123 17.2078 26.8012C17.2289 26.7902 17.2578 26.7435 17.2719 26.6976C17.286 26.6516 17.3057 26.614 17.3157 26.614C17.3257 26.614 17.3447 26.5886 17.3579 26.5574C17.4021 26.4532 17.45 26.3775 17.4891 26.3504C17.5104 26.3356 17.5279 26.2985 17.5279 26.2679C17.5279 26.2346 17.5447 26.202 17.57 26.1866C17.5932 26.1724 17.6122 26.1508 17.6122 26.1385C17.6122 26.1263 17.6312 26.0927 17.6544 26.0639C17.6776 26.0351 17.6966 25.9965 17.6966 25.9781C17.6966 25.9597 17.7156 25.9331 17.7388 25.919C17.762 25.9048 17.781 25.8752 17.781 25.8531C17.781 25.831 17.7982 25.7963 17.8192 25.7761C17.8403 25.7558 17.8845 25.6861 17.9175 25.6212C17.9504 25.5562 17.9949 25.4876 18.0163 25.4687C18.0377 25.4499 18.0552 25.417 18.0552 25.3958C18.0552 25.3745 18.0693 25.3519 18.0866 25.3454C18.1038 25.3389 18.1277 25.2985 18.1395 25.2555C18.1514 25.2126 18.1752 25.1721 18.1925 25.1657C18.2098 25.1592 18.2239 25.1412 18.2239 25.1256C18.2239 25.11 18.2429 25.0805 18.2661 25.06C18.2893 25.0395 18.3083 25.007 18.3083 24.9878C18.3083 24.9685 18.332 24.9278 18.361 24.8973C18.39 24.8667 18.4137 24.8258 18.4137 24.8062C18.4137 24.7867 18.4327 24.7548 18.4559 24.7354C18.4791 24.716 18.4981 24.6876 18.4981 24.6723C18.4981 24.657 18.5171 24.6276 18.5403 24.6072C18.5635 24.5867 18.5825 24.5532 18.5825 24.5326C18.5825 24.5122 18.6015 24.4855 18.6247 24.4734C18.6494 24.4604 18.6668 24.4303 18.6668 24.4004C18.6668 24.3724 18.6858 24.3336 18.709 24.3142C18.7322 24.2948 18.7512 24.2686 18.7512 24.2559C18.7512 24.2431 18.7702 24.216 18.7934 24.1955C18.8166 24.175 18.8356 24.1417 18.8356 24.1214C18.8356 24.1012 18.8532 24.0725 18.8748 24.0577C18.8963 24.0429 18.921 24.009 18.9296 23.9824C18.9472 23.928 19.0226 23.8146 19.0751 23.7633C19.0942 23.7447 19.1098 23.7092 19.1098 23.6844C19.1098 23.6596 19.1288 23.6278 19.152 23.6136C19.1752 23.5995 19.1942 23.5779 19.1942 23.5656C19.1942 23.5534 19.2131 23.5198 19.2363 23.491C19.2595 23.4622 19.2785 23.4214 19.2785 23.4003C19.2785 23.3791 19.2913 23.3619 19.307 23.3619C19.3226 23.3619 19.351 23.3272 19.3701 23.2847C19.4128 23.1898 19.5613 22.9503 19.5885 22.9324C19.5994 22.9252 19.6306 22.874 19.6578 22.8186C19.6849 22.7631 19.7293 22.699 19.7565 22.6759C19.7836 22.6529 19.8058 22.6131 19.8058 22.5874C19.8058 22.5618 19.8225 22.5286 19.8428 22.5137C19.8885 22.48 19.9238 22.4275 19.968 22.3276C19.9867 22.2851 20.0098 22.2504 20.0193 22.2504C20.0288 22.2504 20.0627 22.1983 20.0946 22.1346C20.1266 22.071 20.1743 22.0051 20.2007 21.9882C20.2272 21.9713 20.2488 21.9368 20.2488 21.9116C20.2488 21.8863 20.2678 21.8489 20.291 21.8284C20.3142 21.8079 20.3332 21.7787 20.3332 21.7635C20.3332 21.7482 20.3465 21.7358 20.3627 21.7358C20.379 21.7358 20.4018 21.7092 20.4134 21.6766C20.4251 21.6441 20.4687 21.5701 20.5104 21.5122C20.5521 21.4543 20.5863 21.3983 20.5863 21.3878C20.5863 21.3774 20.6049 21.3472 20.6277 21.3207C20.7427 21.1874 20.7761 21.1406 20.7761 21.1134C20.7761 21.097 20.7951 21.0667 20.8183 21.0463C20.8415 21.0258 20.8605 20.998 20.8605 20.9845C20.8605 20.971 20.8794 20.9432 20.9026 20.9228C20.9259 20.9023 20.9448 20.8744 20.9448 20.8608C20.9448 20.8473 20.9678 20.8119 20.9959 20.7823C21.024 20.7528 21.0531 20.7097 21.0606 20.6867C21.0681 20.6637 21.0821 20.6449 21.0916 20.6449C21.1012 20.6449 21.115 20.6217 21.1222 20.5934C21.1295 20.5651 21.1446 20.542 21.1557 20.542C21.1669 20.542 21.1975 20.5037 21.2239 20.4568C21.2894 20.3403 21.3096 20.3087 21.3406 20.2736C21.3866 20.2217 21.4721 20.0882 21.4721 20.0684C21.4721 20.058 21.4911 20.0395 21.5143 20.0274C21.5375 20.0153 21.5565 19.9954 21.5565 19.9832C21.5565 19.9531 21.6861 19.7598 21.7063 19.7598C21.7152 19.7598 21.7288 19.7403 21.7365 19.7165C21.7557 19.6574 21.8481 19.5268 21.885 19.5066C21.9015 19.4976 21.9151 19.4721 21.9151 19.45C21.9151 19.428 21.9239 19.4099 21.9347 19.4099C21.9454 19.4099 21.971 19.3728 21.9914 19.3276C22.0119 19.2823 22.0411 19.2452 22.0562 19.2452C22.0714 19.2452 22.0838 19.2347 22.0838 19.2219C22.0838 19.209 22.1076 19.177 22.1366 19.1508C22.1656 19.1246 22.1893 19.0859 22.1893 19.065C22.1893 19.044 22.2232 18.9907 22.2646 18.9466C22.3061 18.9024 22.353 18.8358 22.369 18.7985C22.385 18.7612 22.408 18.7306 22.4202 18.7306C22.4324 18.7306 22.4424 18.7165 22.4424 18.6991C22.4424 18.6818 22.457 18.6621 22.4748 18.6554C22.4927 18.6488 22.5214 18.6143 22.5387 18.5789C22.6041 18.4448 22.6337 18.4056 22.7535 18.294C22.7796 18.2697 22.801 18.2304 22.801 18.2066C22.801 18.1829 22.8176 18.1478 22.8379 18.1287C22.9454 18.0276 22.9633 18.0037 23.0466 17.8507C23.0666 17.8139 23.0955 17.7838 23.1107 17.7838C23.126 17.7838 23.1385 17.771 23.1385 17.7554C23.1385 17.7399 23.1542 17.7144 23.1734 17.6988C23.1926 17.6833 23.2212 17.6405 23.2369 17.6037C23.2527 17.5669 23.2749 17.5368 23.2864 17.5368C23.2978 17.5368 23.3072 17.5232 23.3072 17.5067C23.3072 17.4901 23.3262 17.4666 23.3494 17.4545C23.3726 17.4423 23.4061 17.4026 23.4238 17.3663C23.4725 17.2661 23.5015 17.2245 23.5779 17.1457C23.6163 17.1061 23.6625 17.0464 23.6806 17.0129C23.6986 16.9795 23.724 16.9409 23.7371 16.9271C23.75 16.9133 23.7797 16.8779 23.8029 16.8484C23.8261 16.8189 23.855 16.7834 23.8672 16.7696C23.8793 16.7557 23.9247 16.692 23.9681 16.6279C24.0114 16.5639 24.0608 16.5063 24.0778 16.4999C24.0948 16.4936 24.1087 16.4753 24.1087 16.4594C24.1087 16.4434 24.1235 16.4184 24.1416 16.4037C24.1596 16.3891 24.1876 16.3463 24.2038 16.3086C24.2199 16.2709 24.2431 16.2401 24.2553 16.2401C24.2675 16.2401 24.2774 16.2303 24.2774 16.2185C24.2774 16.2066 24.3088 16.1653 24.3472 16.1268C24.3855 16.0882 24.4303 16.0308 24.4467 15.9992C24.4631 15.9675 24.4911 15.9261 24.5088 15.9072C24.5667 15.8455 24.6377 15.7586 24.7333 15.6329C24.7848 15.5649 24.8547 15.4768 24.8885 15.437C24.9791 15.3303 25.0541 15.227 25.0768 15.1777C25.0878 15.1538 25.1118 15.1286 25.1301 15.1217C25.1484 15.1149 25.1633 15.0951 25.1633 15.0777C25.1633 15.0604 25.1721 15.0462 25.1829 15.0462C25.2046 15.0462 25.3321 14.87 25.3321 14.8401C25.3321 14.8297 25.3504 14.8117 25.3728 14.8C25.3952 14.7883 25.4196 14.7602 25.427 14.7375C25.4343 14.7148 25.454 14.6963 25.4706 14.6963C25.4872 14.6963 25.5008 14.6877 25.5008 14.6772C25.5008 14.6667 25.5136 14.6456 25.5292 14.6304C25.5447 14.6152 25.5821 14.5647 25.6122 14.5182C25.6628 14.44 25.7128 14.3794 25.8133 14.2744C25.8349 14.2517 25.8986 14.173 25.9547 14.0994C26.0108 14.0258 26.0717 13.9498 26.0899 13.9306C26.1925 13.8222 26.4078 13.5437 26.4078 13.5194C26.4078 13.5101 26.422 13.5025 26.4394 13.5025C26.4568 13.5025 26.4711 13.4929 26.4711 13.4812C26.4711 13.4694 26.5138 13.4163 26.566 13.3632C26.6182 13.31 26.6609 13.2559 26.6609 13.2429C26.6609 13.23 26.6761 13.207 26.6947 13.192C26.7133 13.1769 26.7368 13.1433 26.7469 13.1174C26.7571 13.0915 26.7798 13.0702 26.7975 13.0702C26.8152 13.0702 26.8296 13.0618 26.8296 13.0515C26.8296 13.0413 26.87 12.9908 26.9193 12.9395C27.0192 12.8354 27.1476 12.6727 27.1858 12.602C27.1995 12.5765 27.2247 12.5557 27.2417 12.5557C27.2587 12.5557 27.2726 12.5483 27.2726 12.5393C27.2726 12.5169 27.331 12.4444 27.4224 12.3534C27.4641 12.3118 27.5158 12.2511 27.5373 12.2185C27.5736 12.1634 27.6372 12.0878 27.7524 11.963C27.7785 11.9347 27.7999 11.9037 27.7999 11.894C27.7999 11.8843 27.8141 11.8764 27.8315 11.8764C27.8489 11.8764 27.8632 11.8682 27.8632 11.8582C27.8632 11.8481 27.9106 11.7906 27.9686 11.7303C28.0266 11.67 28.0741 11.6104 28.0741 11.5979C28.0741 11.5853 28.0955 11.5553 28.1216 11.531C28.1476 11.5068 28.2022 11.4496 28.2428 11.4038C28.2834 11.3581 28.377 11.2581 28.4507 11.1817C28.5245 11.1053 28.6094 11.0104 28.6395 10.9707C28.6696 10.9311 28.7184 10.8748 28.748 10.8456C28.7776 10.8164 28.8492 10.7385 28.9072 10.6724C29.0058 10.5602 29.0989 10.4621 29.2993 10.2596C29.3447 10.2137 29.3821 10.1674 29.3825 10.1567C29.3829 10.1459 29.4446 10.0739 29.5196 9.99654C29.5946 9.91921 29.656 9.84741 29.656 9.83702C29.656 9.8266 29.6657 9.81808 29.6775 9.81808C29.6893 9.81808 29.7248 9.78945 29.7566 9.75446C29.7883 9.71947 29.8759 9.62744 29.9513 9.54992C30.0267 9.47243 30.1644 9.32758 30.2572 9.22804C30.35 9.1285 30.5008 8.97153 30.5924 8.87924C30.684 8.78692 30.7665 8.69823 30.7757 8.68211C30.8042 8.63257 31.0864 8.35667 31.1087 8.35667C31.1202 8.35667 31.1357 8.33815 31.143 8.3155C31.1504 8.29286 31.17 8.27434 31.1866 8.27434C31.2033 8.27434 31.2169 8.26419 31.2169 8.2518C31.2169 8.2257 33.3581 6.13368 33.3848 6.13368C33.3946 6.13368 33.4815 6.05495 33.578 5.95872C33.6745 5.86249 33.7624 5.78376 33.7733 5.78376C33.7842 5.78376 33.8523 5.72588 33.9247 5.65512C33.9971 5.58437 34.1197 5.4709 34.1972 5.40297C34.4153 5.21184 34.4862 5.14317 34.4862 5.12304C34.4862 5.11285 34.4972 5.10451 34.5105 5.10451C34.5324 5.10451 34.5933 5.05371 34.8472 4.8237C34.8892 4.78568 34.929 4.7546 34.9356 4.7546C34.9423 4.7546 34.9896 4.71524 35.0406 4.66712C35.0918 4.619 35.1781 4.54259 35.2325 4.49731C35.2869 4.45202 35.3706 4.37562 35.4185 4.3275C35.4664 4.27937 35.515 4.24002 35.5267 4.24002C35.5488 4.24002 35.5533 4.23627 35.7132 4.08577C35.7674 4.03476 35.8179 3.99302 35.8256 3.99302C35.8376 3.99302 35.9102 3.92822 36.0794 3.76646C36.1031 3.7439 36.132 3.72544 36.1437 3.72544C36.1555 3.72544 36.2046 3.68839 36.2529 3.6431C36.3012 3.59782 36.3453 3.56077 36.3508 3.56077C36.3564 3.56077 36.4031 3.52139 36.4547 3.47329C36.5062 3.42517 36.5708 3.36928 36.5983 3.34909C36.7769 3.21763 36.8188 3.18362 36.8338 3.15767C36.8431 3.14163 36.8597 3.12852 36.8707 3.12852C36.8818 3.12852 36.9276 3.09147 36.9727 3.04619C37.0177 3.0009 37.0648 2.96385 37.0774 2.96385C37.0899 2.96385 37.1103 2.94533 37.1228 2.92269C37.1352 2.90005 37.1549 2.88152 37.1666 2.88152C37.1923 2.88152 37.4428 2.68151 37.4666 2.64197C37.4759 2.62656 37.4957 2.61394 37.5108 2.61394C37.5258 2.61394 37.5553 2.59541 37.5763 2.57277C37.5972 2.55013 37.622 2.53161 37.6313 2.53161C37.6406 2.53161 37.6705 2.51078 37.6977 2.48529C37.7436 2.44242 37.8365 2.36562 38.0011 2.23451C38.0376 2.20546 38.0757 2.18169 38.0857 2.18169C38.0958 2.18169 38.1158 2.16317 38.1303 2.14052C38.1448 2.11788 38.1685 2.09936 38.183 2.09936C38.1976 2.09936 38.2213 2.08083 38.2358 2.05819C38.2503 2.03555 38.2703 2.01702 38.2804 2.01702C38.2904 2.01702 38.3401 1.97997 38.3909 1.93469C38.4417 1.88941 38.4912 1.85236 38.5009 1.85236C38.5107 1.85236 38.5687 1.81068 38.6298 1.75973C38.6909 1.70879 38.7494 1.66711 38.7599 1.66711C38.7704 1.66711 38.7908 1.64858 38.8053 1.62594C38.8198 1.6033 38.8434 1.58449 38.8578 1.58412C38.8722 1.58377 38.9101 1.56106 38.942 1.53365C38.9942 1.48884 39 1.47029 39 1.34906C39 1.2545 38.9921 1.21428 38.9735 1.21428C38.9589 1.21428 38.909 1.17237 38.8627 1.12116C38.7932 1.04424 38.6955 0.942516 38.4111 0.65081C38.4015 0.640909 38.3592 0.600607 38.3171 0.561273C38.2751 0.521938 38.2407 0.483694 38.2407 0.476284C38.2407 0.468874 38.1718 0.393375 38.0877 0.308531C38.0037 0.223666 37.9111 0.119576 37.8821 0.0771952L37.8294 0.000152003L37.606 7.91824e-06C37.3882 -0.000136165 37.3821 0.00114 37.3586 0.051322Z" fill="#58974D" fill-opacity="0.996094"/>
</svg>
