<svg width="15" height="14" viewBox="0 0 15 14" fill="none" xmlns="http://www.w3.org/2000/svg">
<path d="M7.68869 3.11111H6.52203V7.77778L10.2165 9.99444L10.7998 9.03778L7.68869 7.19444V3.11111ZM7.2998 0C3.43425 0 0.299805 3.13444 0.299805 7C0.299805 10.8656 3.42647 14 7.2998 14C11.1654 14 14.2998 10.8656 14.2998 7C14.2998 3.13444 11.1654 0 7.2998 0ZM7.2998 12.4444C4.2898 12.4444 1.85536 10.01 1.85536 7C1.85536 3.99 4.2898 1.55556 7.2998 1.55556C10.3098 1.55556 12.7442 3.99 12.7442 7C12.7442 10.01 10.3098 12.4444 7.2998 12.4444Z" fill="#727584"/>
</svg>
