<svg width="21" height="20" viewBox="0 0 21 20" fill="none" xmlns="http://www.w3.org/2000/svg">
<path d="M6.72902 11.352C6.86854 11.1809 7.0034 11.0193 7.14291 10.8529C9.00775 8.63306 10.9377 6.47497 12.9792 4.42147C13.8721 3.52782 14.7836 2.65319 15.7556 1.84985C16.309 1.38877 16.881 0.946689 17.4995 0.575918C17.839 0.371519 18.1831 0.195641 18.5645 0.086311C18.8156 0.0150089 19.0667 -0.023016 19.3271 0.0150118C19.5039 0.0435326 19.6713 0.100574 19.8201 0.200397C20.1224 0.395289 20.2479 0.742288 20.141 1.09404C20.0898 1.26992 19.9922 1.42204 19.8806 1.56464C19.6666 1.84034 19.4202 2.07801 19.1783 2.32044C18.5366 2.96216 17.8808 3.59437 17.253 4.25035C15.6905 5.87604 14.2907 7.63483 13.0258 9.50769C11.9143 11.1571 10.9191 12.8731 10.0215 14.6509C9.21702 16.2529 8.49155 17.8928 7.84048 19.5613C7.82653 19.5946 7.81723 19.6278 7.80328 19.6564C7.70562 19.8655 7.54285 19.9843 7.31498 19.9986C7.0871 20.0129 6.91039 19.9178 6.78482 19.7277C6.76157 19.6944 6.74297 19.6564 6.72437 19.6231C6.064 18.43 5.38503 17.2463 4.6456 16.1008C3.96199 15.036 3.22721 14.0092 2.39943 13.049C1.78556 12.3408 1.13915 11.6705 0.446229 11.0383C0.204404 10.8197 0.139298 10.5677 0.199754 10.2635C0.297414 9.78339 0.585747 9.48868 1.04614 9.36509C1.32052 9.28903 1.59955 9.29854 1.87857 9.33657C2.45058 9.41738 2.99469 9.598 3.52949 9.80716C4.46424 10.1732 5.36178 10.62 6.24537 11.0858C6.40813 11.1809 6.56625 11.2617 6.72902 11.352Z" fill="#FBA04D"/>
</svg>
