<svg width="43" height="43" viewBox="0 0 43 43" fill="none" xmlns="http://www.w3.org/2000/svg">
<path d="M43 21.5C43 33.3741 33.3741 43 21.5 43C9.62588 43 0 33.3741 0 21.5C0 9.62588 9.62588 0 21.5 0C33.3741 0 43 9.62588 43 21.5Z" fill="#FBA04D"/>
<path fill-rule="evenodd" clip-rule="evenodd" d="M16.0534 12.045C14.3467 12.3169 12.8619 13.5455 12.2866 15.162C12.0661 15.7818 11.9981 16.2167 12 16.9949C12.005 18.9086 12.3943 20.9105 13.1207 22.7577C13.3305 23.2912 13.8235 24.3176 14.1244 24.8473C15.3526 27.0093 17.1062 28.8899 19.1966 30.2867C21.3716 31.7402 23.7957 32.6219 26.4877 32.9388C27.1755 33.0198 28.7417 33.0205 29.1199 32.9401C31.147 32.5089 32.6561 30.9028 32.9647 28.8483C33.0104 28.544 33.0108 27.851 32.9654 27.5192C32.917 27.1659 32.7923 26.6985 32.6912 26.4918C32.5943 26.2937 32.388 26.0907 32.1981 26.0066C32.1253 25.9744 30.6333 25.6181 28.8826 25.215C25.3816 24.4088 25.3563 24.4044 25.0463 24.5468C24.7001 24.7057 24.5817 24.8566 24.1411 25.7001C23.9984 25.9735 23.8739 26.1971 23.8645 26.1971C23.8552 26.1971 23.6773 26.1113 23.4691 26.0063C21.7451 25.1369 20.2042 23.6696 19.2291 21.9688C19.0026 21.5739 18.7616 21.0926 18.7816 21.0754C18.7895 21.0686 19.0825 20.9171 19.4327 20.7387C20.1367 20.38 20.2931 20.2581 20.444 19.9504C20.6081 19.616 20.6137 19.6491 19.7969 16.1245C19.3959 14.3939 19.0401 12.9154 19.0063 12.8389C18.9287 12.6633 18.7445 12.4579 18.5779 12.3612C18.4225 12.2711 17.9788 12.149 17.49 12.0618C17.0747 11.9878 16.458 11.9806 16.0534 12.045ZM23.2213 12.0412C22.4889 12.3032 22.2636 13.1956 22.7895 13.7521C23.0307 14.0074 23.2169 14.0756 23.7325 14.0972C24.8733 14.1451 25.8493 14.3901 26.8142 14.8706C28.007 15.4647 28.982 16.3328 29.7186 17.4566C29.9804 17.8559 30.3469 18.6142 30.5041 19.0816C30.727 19.744 30.885 20.5977 30.8855 21.1421C30.8861 21.8137 31.0715 22.1859 31.5136 22.4032C31.663 22.4767 31.7289 22.4895 31.9571 22.4895C32.1852 22.4895 32.2511 22.4767 32.4005 22.4032C32.687 22.2624 32.907 21.9958 32.9803 21.7006C33.0124 21.5713 33.0039 20.9207 32.9647 20.5173C32.7187 17.9812 31.3971 15.5758 29.3837 13.9993C27.7886 12.7504 25.6915 11.9984 23.8082 12C23.5023 12.0003 23.295 12.0148 23.2213 12.0412ZM17.1724 14.0969C17.1724 14.1061 17.4207 15.1936 17.7241 16.5135C18.0275 17.8334 18.2758 18.9256 18.2758 18.9406C18.2758 18.9555 18.1233 19.0483 17.9369 19.1467C17.1037 19.5866 16.9068 19.71 16.6816 19.9334C16.3045 20.3073 16.2968 20.4743 16.6188 21.2904C17.92 24.5885 20.432 27.1051 23.7239 28.409C24.3964 28.6753 24.6069 28.6854 24.9364 28.4669C25.1487 28.3261 25.3493 28.0381 25.7194 27.3429C26.0126 26.7919 26.0523 26.7322 26.1145 26.7478C26.1525 26.7573 27.2095 26.9992 28.4635 27.2853C29.7174 27.5715 30.7753 27.8131 30.8143 27.8224C30.8825 27.8385 30.8852 27.8524 30.8847 28.1778C30.8839 28.6872 30.7841 29.0827 30.5509 29.5019C30.164 30.1971 29.4959 30.6895 28.7177 30.8529C28.5434 30.8895 28.3206 30.9033 27.9378 30.9012C25.7052 30.8894 23.2514 30.2203 21.239 29.0749C17.6564 27.0357 15.1829 23.5969 14.3687 19.5234C14.1931 18.6449 14.1361 18.0684 14.1331 17.141L14.1304 16.3048L14.2287 16.0156C14.5962 14.9337 15.4664 14.2302 16.5819 14.1128C16.8653 14.083 17.1724 14.0747 17.1724 14.0969ZM23.2352 16.2398C23.0469 16.2988 22.8986 16.3982 22.7541 16.5625C22.2984 17.0807 22.4867 17.9142 23.1258 18.2073C23.2681 18.2726 23.3783 18.294 23.6752 18.3141C24.2533 18.3531 24.6063 18.4504 25.0534 18.6936C25.8452 19.1245 26.4106 19.8719 26.6162 20.7596C26.6418 20.8699 26.6756 21.1307 26.6914 21.339C26.7136 21.6315 26.7379 21.7565 26.7977 21.8875C26.9005 22.1122 27.0946 22.3008 27.3426 22.417C27.5237 22.5019 27.5709 22.5107 27.7888 22.5007C27.9819 22.4918 28.0706 22.4701 28.217 22.3959C28.4264 22.2896 28.6255 22.0832 28.72 21.8742C28.8817 21.517 28.7964 20.5766 28.5312 19.7916C28.0077 18.2418 26.8664 17.0722 25.3267 16.5077C24.6105 16.2451 23.6226 16.1185 23.2352 16.2398Z" fill="#292D38"/>
</svg>
