<svg width="50" height="50" viewBox="0 0 50 50" fill="none" xmlns="http://www.w3.org/2000/svg">
<path fill-rule="evenodd" clip-rule="evenodd" d="M0 45.8333C0 48.1345 1.86548 50 4.16667 50H45.8333C48.1345 50 50 48.1345 50 45.8333V4.16667C50 1.86548 48.1345 0 45.8333 0H4.16667C1.86548 0 0 1.86548 0 4.16667V45.8333Z" fill="#545760"/>
<path fill-rule="evenodd" clip-rule="evenodd" d="M25 17.1548L38.5059 30.6607C38.8314 30.9862 38.8314 31.5138 38.5059 31.8393C38.1805 32.1647 37.6528 32.1647 37.3274 31.8393L25 19.5118L12.6726 31.8393C12.3472 32.1647 11.8195 32.1647 11.4941 31.8393C11.1686 31.5138 11.1686 30.9862 11.4941 30.6607L25 17.1548Z" fill="#C2C2C2"/>
</svg>
