<svg width="14" height="14" viewBox="0 0 14 14" fill="none" xmlns="http://www.w3.org/2000/svg">
<path d="M13.295 2.51801C13.6844 2.12865 13.6844 1.49738 13.295 1.10802C12.9056 0.718654 12.2744 0.718654 11.885 1.10802L7 5.99302L2.115 1.10802C1.72564 0.718654 1.09436 0.718654 0.705 1.10802C0.315639 1.49738 0.315639 2.12865 0.705 2.51801L5.59 7.40302L0.705 12.288C0.315639 12.6774 0.315639 13.3087 0.705 13.698C1.09436 14.0874 1.72564 14.0874 2.115 13.698L7 8.81301L11.885 13.698C12.2744 14.0874 12.9056 14.0874 13.295 13.698C13.6844 13.3087 13.6844 12.6774 13.295 12.288L8.41 7.40302L13.295 2.51801Z" fill="#1F232E"/>
</svg>
