<svg width="31" height="30" viewBox="0 0 31 30" fill="none" xmlns="http://www.w3.org/2000/svg">
<path fill-rule="evenodd" clip-rule="evenodd" d="M17.5294 3.1263C16.8863 2.44564 17.1618 1.3542 18.0575 1.0338C18.1477 1.0015 18.4013 0.98371 18.7753 0.983401C21.0787 0.981472 23.6436 1.90121 25.5945 3.42867C28.057 5.35676 29.6733 8.29871 29.9742 11.4005C30.0221 11.8938 30.0326 12.6896 29.9933 12.8477C29.9036 13.2088 29.6346 13.5348 29.2842 13.707C29.1014 13.7969 29.0208 13.8126 28.7418 13.8126C28.4628 13.8126 28.3822 13.7969 28.1994 13.707C27.6587 13.4412 27.432 12.9861 27.4313 12.1647C27.4306 11.4988 27.2374 10.4547 26.9648 9.64455C26.7725 9.07288 26.3242 8.14542 26.0041 7.65703C25.1032 6.28259 23.9107 5.22087 22.4519 4.49433C21.2718 3.9066 20.078 3.60701 18.6828 3.54842C18.0522 3.52195 17.8245 3.43859 17.5294 3.1263ZM17.4861 6.56359C17.6628 6.36264 17.8442 6.24099 18.0746 6.16886C18.5484 6.02059 19.7566 6.17535 20.6326 6.49651C22.5157 7.18694 23.9116 8.61741 24.5519 10.5129C24.8762 11.473 24.9805 12.6231 24.7828 13.06C24.6671 13.3156 24.4236 13.5682 24.1675 13.6981C23.9885 13.7888 23.88 13.8154 23.6438 13.8263C23.3774 13.8385 23.3197 13.8277 23.0982 13.7239C22.7948 13.5819 22.5574 13.3511 22.4317 13.0762C22.3585 12.9161 22.3288 12.7631 22.3017 12.4055C22.2824 12.1507 22.241 11.8318 22.2097 11.6968C21.9582 10.6111 21.2667 9.697 20.2983 9.17006C19.7515 8.87255 19.3197 8.7536 18.6128 8.70583C18.2495 8.68124 18.1148 8.65508 17.9407 8.57523C17.1591 8.21678 16.9287 7.1974 17.4861 6.56359Z" fill="white"/>
<path d="M28.3696 20.5974C26.3098 20.5974 24.3325 20.2678 22.487 19.6582C21.9102 19.4769 21.2676 19.6087 20.8062 20.0536L17.1811 23.6788C12.5178 21.306 8.69495 17.4996 6.32213 12.8363L9.94727 9.19468C10.4087 8.74978 10.5405 8.10714 10.3592 7.53041C9.74953 5.68488 9.41998 3.70753 9.41998 1.64779C9.41998 0.741507 8.67847 0 7.77218 0H2.00491C1.09862 0 0.357117 0.741507 0.357117 1.64779C0.357117 17.1206 12.8968 29.6603 28.3696 29.6603C29.2759 29.6603 30.0174 28.9188 30.0174 28.0125V22.2452C30.0174 21.3389 29.2759 20.5974 28.3696 20.5974Z" fill="white"/>
</svg>
