<svg width="31" height="31" viewBox="0 0 31 31" fill="none" xmlns="http://www.w3.org/2000/svg">
<path d="M27.3571 0.660156H3.35712C1.70712 0.660156 0.372117 2.01016 0.372117 3.66016L0.357117 30.6602L6.35712 24.6602H27.3571C29.0071 24.6602 30.3571 23.3102 30.3571 21.6602V3.66016C30.3571 2.01016 29.0071 0.660156 27.3571 0.660156ZM9.35712 18.6602H6.35712V15.6602H9.35712V18.6602ZM9.35712 14.1602H6.35712V11.1602H9.35712V14.1602ZM9.35712 9.66016H6.35712V6.66016H9.35712V9.66016ZM19.8571 18.6602H12.3571V15.6602H19.8571V18.6602ZM24.3571 14.1602H12.3571V11.1602H24.3571V14.1602ZM24.3571 9.66016H12.3571V6.66016H24.3571V9.66016Z" fill="white"/>
</svg>
