<svg width="106" height="114" viewBox="0 0 106 114" fill="none" xmlns="http://www.w3.org/2000/svg">
<path fill-rule="evenodd" clip-rule="evenodd" d="M25 95C25 98.866 28.134 102 32 102H42V105H32C26.4771 105 22 100.523 22 95V93H25V95ZM25 46V18C25 14.134 28.134 11 32 11V8C26.4771 8 22 12.4772 22 18V46H25Z" fill="#565557"/>
<path d="M72.0055 19.7599C71.1893 19.7599 70.5292 20.4181 70.5292 21.2292C70.5292 22.0403 71.1893 22.6986 72.0055 22.6986H80.8603C81.6749 22.6986 82.3366 22.0403 82.3366 21.2292C82.3366 20.4181 81.6749 19.7599 80.8603 19.7599H72.0055Z" fill="#565557"/>
<path d="M33.6562 19.7599C32.8401 19.7599 32.1799 20.4181 32.1799 21.2292C32.1799 22.0403 32.8401 22.6986 33.6562 22.6986H66.1018C66.9164 22.6986 67.5781 22.0403 67.5781 21.2292C67.5781 20.4181 66.9164 19.7599 66.1018 19.7599H33.6562Z" fill="#565557"/>
<path d="M33.6562 28.5774C32.8401 28.5774 32.1799 29.2357 32.1799 30.0467C32.1799 30.8593 32.8401 31.5161 33.6562 31.5161H76.4329C77.2475 31.5161 77.9077 30.8593 77.9077 30.0467C77.9077 29.2357 77.2475 28.5774 76.4329 28.5774H33.6562Z" fill="#565557"/>
<path d="M76.4329 38.8643C76.4329 38.0532 75.7712 37.3949 74.9566 37.3949H48.3906C47.576 37.3949 46.9158 38.0532 46.9158 38.8643C46.9158 39.6769 47.576 40.3351 48.3906 40.3351H74.9566C75.7712 40.3351 76.4329 39.6769 76.4329 38.8643Z" fill="#565557"/>
<path d="M41.6562 46.2124C40.8401 46.2124 40.1799 46.8707 40.1799 47.6833C40.1799 48.4944 40.8401 49.1526 41.6562 49.1526H58.7217C59.5379 49.1526 60.198 48.4944 60.198 47.6833C60.198 46.8707 59.5379 46.2124 58.7217 46.2124H41.6562Z" fill="#565557"/>
<path d="M36.6562 37.3949C35.8401 37.3949 35.1799 38.0532 35.1799 38.8643C35.1799 39.6769 35.8401 40.3351 36.6562 40.3351H42.4884C43.303 40.3351 43.9632 39.6769 43.9632 38.8643C43.9632 38.0532 43.303 37.3949 42.4884 37.3949H36.6562Z" fill="#565557"/>
<path d="M82.4329 66.2884C82.4329 67.0994 81.7712 67.7577 80.9566 67.7577H54.3906C53.576 67.7577 52.9158 67.0994 52.9158 66.2884C52.9158 65.4758 53.576 64.8175 54.3906 64.8175H80.9566C81.7712 64.8175 82.4329 65.4758 82.4329 66.2884Z" fill="#565557"/>
<path d="M47.6562 58.9402C46.8401 58.9402 46.1799 58.2819 46.1799 57.4693C46.1799 56.6582 46.8401 56 47.6562 56H64.7217C65.5379 56 66.198 56.6582 66.198 57.4693C66.198 58.2819 65.5379 58.9402 64.7217 58.9402H47.6562Z" fill="#565557"/>
<path d="M42.6562 67.7577C41.8401 67.7577 41.1799 67.0994 41.1799 66.2884C41.1799 65.4758 41.8401 64.8175 42.6562 64.8175H48.4884C49.303 64.8175 49.9632 65.4758 49.9632 66.2884C49.9632 67.0994 49.303 67.7577 48.4884 67.7577H42.6562Z" fill="#565557"/>
<path d="M4 15.6149V39.8642C4 40.6768 4.66018 41.3351 5.4748 41.3351C6.29093 41.3351 6.95111 40.6768 6.95111 39.8642V15.6149C6.95111 8.72673 12.5793 3.12328 19.496 3.12328H26.1083C26.9229 3.12328 27.5846 2.46503 27.5846 1.65395C27.5846 0.842862 26.9229 0.184613 26.1083 0.184613H19.496C10.9515 0.184613 4 7.10758 4 15.6149Z" fill="#565557"/>
<path d="M30.5357 0C29.6212 0 28.8762 0.74299 28.8762 1.65395C28.8762 2.5649 29.6212 3.30789 30.5357 3.30789C31.4518 3.30789 32.1968 2.5649 32.1968 1.65395C32.1968 0.74299 31.4518 0 30.5357 0Z" fill="#565557"/>
<path fill-rule="evenodd" clip-rule="evenodd" d="M9.47783 93.146C8.53622 93.7921 7.2507 93.55 6.60794 92.6042C5.96368 91.66 6.20396 90.3692 7.14557 89.7231C8.08718 89.0769 9.37269 89.3191 10.0155 90.2633C10.6597 91.2091 10.4194 92.4998 9.47783 93.146Z" fill="#565557"/>
<path fill-rule="evenodd" clip-rule="evenodd" d="M0.413879 86.4657L7.05922 79.6395V58.5937C7.05922 58.4923 7.06972 58.3924 7.08924 58.2971C7.24392 55.8427 8.59702 53.5925 10.7115 52.3396L24.669 44.1395L24.8882 44.0063C26.0221 43.345 27.3031 43 28.5916 43C31.2182 43 33.6781 44.4043 34.9951 46.6665C37.0451 50.1938 35.8587 54.7426 32.346 56.8157L24.669 61.3266L25 93L22 95L8.54446 82.3285L2.50735 88.5221C1.94269 89.1032 1.0221 89.1108 0.442421 88.5448C-0.135761 87.9789 -0.149285 87.0452 0.413879 86.4657ZM21.7405 90.9766L9.98616 79.6168V58.7556C9.98616 57.1607 10.8362 55.6762 12.1893 54.8833L23.849 48.0269L24.0247 47.924L24.0457 47.9089L26.366 46.5424C27.0478 46.1535 27.8152 45.9402 28.5916 45.9402C30.1865 45.9402 31.6732 46.7846 32.4707 48.151C33.7066 50.2831 32.9903 53.0311 30.8683 54.2871L22.5094 59.196L22.4659 59.2187C22.3998 59.2625 22.3337 59.3064 22.2751 59.3579C22.2676 59.3579 22.2676 59.3654 22.2676 59.3654C22.2316 59.3866 22.2016 59.4169 22.173 59.4532C22.1355 59.4895 22.1069 59.5198 22.0769 59.5561C22.0559 59.5773 22.0409 59.6 22.0183 59.6227C21.9898 59.6666 21.9613 59.718 21.9312 59.7695C21.9027 59.8209 21.8727 59.8799 21.8501 59.9374C21.8216 59.9965 21.8066 60.0555 21.7916 60.1145C21.7706 60.1735 21.763 60.2401 21.7555 60.2991C21.748 60.3642 21.7405 60.4232 21.7405 60.4898V90.9766Z" fill="#565557"/>
<path d="M65.6595 113.844C66.5756 113.844 67.3206 113.103 67.3206 112.192C67.3206 111.281 66.5756 110.538 65.6595 110.538C64.745 110.538 64 111.281 64 112.192C64 113.103 64.745 113.844 65.6595 113.844Z" fill="#565557"/>
<path d="M87.7512 113.661C97.516 113.661 105.462 105.75 105.462 96.026C105.462 95.2134 104.801 94.5552 103.986 94.5552C103.171 94.5552 102.51 95.2134 102.51 96.026C102.51 104.129 95.8883 110.722 87.7497 110.722H70.0869C69.2723 110.722 68.6106 111.379 68.6106 112.192C68.6106 113.003 69.2723 113.661 70.0869 113.661H87.7512Z" fill="#565557"/>
<path d="M14 24C14 18.4772 18.4772 14 24 14H23.5V17H24C20.134 17 17 20.134 17 24V50L14 52V24Z" fill="#565557"/>
<path fill-rule="evenodd" clip-rule="evenodd" d="M92 95C92 98.866 88.866 102 85 102H40V105H85C90.5229 105 95 100.523 95 95V18C95 12.4772 90.5229 8 85 8H32C26.4771 8 22 12.4772 22 18V46H25V18C25 14.134 28.134 11 32 11H85C88.866 11 92 14.134 92 18V95Z" fill="#565557"/>
<path fill-rule="evenodd" clip-rule="evenodd" d="M65.6968 72.6183C64.9712 72.9348 64.4836 73.554 64.2815 74.4153C64.0835 75.2599 64.1648 76.9197 64.4604 78.063C64.5149 78.2742 64.4754 78.3193 63.9142 78.6836C63.0826 79.2235 61.4565 79.9895 60.3728 80.352C59.8764 80.518 59.4151 80.6538 59.3477 80.6538C59.1639 80.6538 58.9463 81.0359 59.012 81.2434C59.0427 81.3409 59.1575 81.4548 59.2669 81.4966C59.7385 81.6765 62.824 80.4648 64.2884 79.5247C64.5548 79.3537 64.7829 79.2254 64.7955 79.2397C64.808 79.2539 64.9381 79.5053 65.0845 79.7984C66.0497 81.7306 67.9108 82.0834 69.3283 80.6028L69.7844 80.1263V80.5874C69.7844 81.4757 70.2118 81.5315 71.8339 80.8549C73.6202 80.1098 73.979 79.9771 74.3407 79.9273C74.7955 79.8647 74.8317 79.9379 74.7239 80.7014C74.6321 81.3524 74.7526 81.6634 75.0968 81.6634C75.4128 81.6634 75.5547 81.4097 75.6869 80.6087C75.8307 79.7359 76.0635 79.0751 76.1686 79.2412C76.2062 79.3009 76.2377 79.8618 76.2384 80.4878C76.2398 81.7093 76.3227 82 76.6701 82C76.7632 82 77.3364 81.7129 77.9438 81.362C79.4447 80.4949 80.707 79.8897 82.9883 78.9436C85.4288 77.9314 85.9078 77.7159 85.9842 77.5957C86.1084 77.4 86.0448 77.1216 85.8457 76.9907C85.651 76.8627 85.547 76.8979 83.1421 77.9049C80.4928 79.0143 79.2001 79.6126 77.9373 80.314L77.1618 80.7448L77.1604 80.1734C77.1578 79.1783 76.8196 77.9763 76.4832 77.7673C76.2138 77.6 75.9307 77.7751 75.5915 78.3187C75.4109 78.6081 75.2401 78.9077 75.2119 78.9845C75.1682 79.1042 75.1113 79.1116 74.8163 79.0365C74.3379 78.9146 73.7228 79.0802 72.1155 79.7635C71.3991 80.068 70.7845 80.3172 70.7498 80.3172C70.7152 80.3172 70.7048 79.8345 70.7268 79.2445C70.7605 78.3408 70.8068 78.0525 71.0206 77.4145C71.2825 76.6327 71.4971 75.664 71.5917 74.8359C71.6388 74.4227 71.623 74.3378 71.4697 74.1839C70.9262 73.6385 70.543 74.389 70.0805 76.9042C69.8364 78.2313 69.4291 79.1312 68.7288 79.8903C67.9684 80.7146 67.3339 80.842 66.61 80.3157C66.2282 80.0382 65.9471 79.6337 65.7227 79.0394L65.5739 78.645L66.168 78.057C67.2049 77.0307 67.7477 75.9968 67.8325 74.8862C67.9579 73.2466 66.8802 72.1021 65.6968 72.6183ZM66.7162 73.698C66.8632 73.8967 66.8921 74.056 66.8921 74.6675C66.8921 75.3213 66.8635 75.4571 66.6235 75.9441C66.3662 76.4662 65.4851 77.6249 65.3453 77.6249C65.1685 77.6249 64.9945 75.8214 65.0944 75.0235C65.1841 74.3063 65.3695 73.9178 65.7605 73.6282C66.1367 73.3493 66.4767 73.3742 66.7162 73.698Z" fill="#FBA04D" stroke="#FBA04D" stroke-width="1.8"/>
</svg>
