<svg width="97" height="100" viewBox="0 0 97 100" fill="none" xmlns="http://www.w3.org/2000/svg">
<path d="M85.6393 63.2857V67.0351H71.4797V63.2857C71.4797 59.485 74.6433 56.3929 78.5595 56.3929C82.4757 56.3929 85.6393 59.485 85.6393 63.2857ZM68.7808 63.2857V67.0351H66.7644C64.0011 67.0351 61.75 69.2197 61.75 71.928V94.3571C61.75 97.0654 64.0011 99.25 66.7644 99.25H91.2356C93.9989 99.25 96.25 97.0654 96.25 94.3571V71.928C96.25 69.2197 93.9989 67.0351 91.2356 67.0351H88.3383V63.2857C88.3383 58.0133 83.954 53.75 78.5595 53.75C73.165 53.75 68.7808 58.0133 68.7808 63.2857ZM74.8602 82.0881C74.8602 84.1315 76.2422 85.8527 78.1368 86.4231V89.3653C78.1368 90.1012 78.7471 90.6867 79.4863 90.6867C80.2255 90.6867 80.8358 90.1012 80.8358 89.3653V86.436C82.7528 85.8791 84.156 84.1471 84.156 82.0881C84.156 79.5771 82.069 77.5524 79.5081 77.5524C76.9473 77.5524 74.8602 79.5771 74.8602 82.0881ZM81.8236 82.0881C81.8236 83.3247 80.793 84.3381 79.5081 84.3381C78.2232 84.3381 77.1927 83.3247 77.1927 82.0881C77.1927 80.8515 78.2232 79.8381 79.5081 79.8381C80.793 79.8381 81.8236 80.8515 81.8236 82.0881ZM64.4489 71.928C64.4489 70.6914 65.4795 69.678 66.7644 69.678H91.2356C92.5205 69.678 93.5511 70.6914 93.5511 71.928V94.3571C93.5511 95.5937 92.5205 96.6071 91.2356 96.6071H66.7644C65.4795 96.6071 64.4489 95.5937 64.4489 94.3571V71.928Z" fill="#FBA04D" stroke="#FBA04D" stroke-width="0.5"/>
<path d="M53.253 76.2884C53.253 77.0994 52.5913 77.7577 51.7767 77.7577H40.2106C39.396 77.7577 38.7358 77.0994 38.7358 76.2884C38.7358 75.4758 39.396 74.8175 40.2106 74.8175H51.7767C52.5913 74.8175 53.253 75.4758 53.253 76.2884Z" fill="#565557"/>
<path d="M19.4763 68.9402C18.6602 68.9402 18 68.2819 18 67.4693C18 66.6582 18.6602 66 19.4763 66H50.5418C51.3579 66 52.0181 66.6582 52.0181 67.4693C52.0181 68.2819 51.3579 68.9402 50.5418 68.9402H19.4763Z" fill="#565557"/>
<path d="M19.4763 77.7577C18.6602 77.7577 18 77.0994 18 76.2884C18 75.4758 18.6602 74.8175 19.4763 74.8175H34.3084C35.1231 74.8175 35.7832 75.4758 35.7832 76.2884C35.7832 77.0994 35.1231 77.7577 34.3084 77.7577H19.4763Z" fill="#565557"/>
<path d="M19.4763 68.9402C18.6602 68.9402 18 68.2819 18 67.4693C18 66.6582 18.6602 66 19.4763 66H50.5418C51.3579 66 52.0181 66.6582 52.0181 67.4693C52.0181 68.2819 51.3579 68.9402 50.5418 68.9402H19.4763Z" fill="#565557"/>
<path d="M50.4763 38C49.6602 38 49 38.6583 49 39.4693C49 40.2819 49.6602 40.9402 50.4763 40.9402H67.3084C68.123 40.9402 68.7832 40.2819 68.7832 39.4693C68.7832 38.6583 68.123 38 67.3084 38H50.4763Z" fill="#565557"/>
<path fill-rule="evenodd" clip-rule="evenodd" d="M9 6C4.58172 6 0 9.58172 0 14V82C0 86.4183 4.58172 90 9 90V87C6.23858 87 3 84.7614 3 82V14C3 11.2386 6.23858 9 9 9V6Z" fill="#565557"/>
<path fill-rule="evenodd" clip-rule="evenodd" d="M11 87C11 90.8662 14.134 94 18 94H54.5C55.3284 94 56 94.6716 56 95.5C56 96.3284 55.3284 97 54.5 97H18C12.4771 97 8 92.5229 8 87V10C8 4.47705 12.4771 0 18 0H71C76.5229 0 81 4.47705 81 10V47.5C81 48.3284 80.3284 49 79.5 49C78.6716 49 78 48.3284 78 47.5V10C78 6.13379 74.866 3 71 3H18C14.134 3 11 6.13379 11 10V85V87ZM58.0054 11.7598C57.1895 11.7598 56.5293 12.418 56.5293 13.229C56.5293 14.0405 57.1895 14.6987 58.0054 14.6987H66.8604C67.675 14.6987 68.3367 14.0405 68.3367 13.229C68.3367 12.418 67.675 11.7598 66.8604 11.7598H58.0054ZM18.1799 13.229C18.1799 12.418 18.8401 11.7598 19.6562 11.7598H52.1018C52.9165 11.7598 53.5781 12.418 53.5781 13.229C53.5781 14.0405 52.9165 14.6987 52.1018 14.6987H19.6562C18.8401 14.6987 18.1799 14.0405 18.1799 13.229ZM19.6562 20.5776C18.8401 20.5776 18.1799 21.2358 18.1799 22.0469C18.1799 22.8594 18.8401 23.5161 19.6562 23.5161H66.4329C67.2476 23.5161 67.9077 22.8594 67.9077 22.0469C67.9077 21.2358 67.2476 20.5776 66.4329 20.5776H19.6562ZM66.9565 29.395C67.7712 29.395 68.4329 30.0532 68.4329 30.8643C68.4329 31.6768 67.7712 32.335 66.9565 32.335H34.3906C33.5759 32.335 32.9158 31.6768 32.9158 30.8643C32.9158 30.0532 33.5759 29.395 34.3906 29.395H66.9565ZM19.6562 38.2124C18.8401 38.2124 18.1799 38.8706 18.1799 39.6831C18.1799 39.7778 18.189 39.8701 18.2061 39.9595C18.2324 40.0981 18.2786 40.23 18.3413 40.3521C18.4226 40.5103 18.532 40.6519 18.6628 40.7705C18.7729 40.8701 18.8982 40.9536 19.0349 41.0166C19.2236 41.104 19.4341 41.1528 19.6562 41.1528H44.7217C45.5378 41.1528 46.198 40.4941 46.198 39.6831C46.198 38.8706 45.5378 38.2124 44.7217 38.2124H19.6562ZM18.1799 30.8643C18.1799 30.0532 18.8401 29.395 19.6562 29.395H28.4883C29.303 29.395 29.9631 30.0532 29.9631 30.8643C29.9631 31.6768 29.303 32.335 28.4883 32.335H19.6562C18.8401 32.335 18.1799 31.6768 18.1799 30.8643ZM18.1799 49.4692C18.1799 50.2817 18.8401 50.9399 19.6562 50.9399H50.7217C51.5378 50.9399 52.198 50.2817 52.198 49.4692C52.198 48.6582 51.5378 48 50.7217 48H19.6562C18.8401 48 18.1799 48.6582 18.1799 49.4692ZM19.6562 59.7578C18.8401 59.7578 18.1799 59.0996 18.1799 58.2886C18.1799 57.4756 18.8401 56.8174 19.6562 56.8174H34.4883C35.303 56.8174 35.9631 57.4756 35.9631 58.2886C35.9631 59.0996 35.303 59.7578 34.4883 59.7578H19.6562Z" fill="#565557"/>
<path d="M40.6562 59.7578C39.8401 59.7578 39.1799 59.0996 39.1799 58.2886C39.1799 57.4756 39.8401 56.8174 40.6562 56.8174H55.4883C56.303 56.8174 56.9631 57.4756 56.9631 58.2886C56.9631 59.0996 56.303 59.7578 55.4883 59.7578H40.6562Z" fill="#565557"/>
<path d="M55 49.4692C55 50.2817 55.6602 50.9399 56.4763 50.9399H67.5417C68.3579 50.9399 69.0181 50.2817 69.0181 49.4692C69.0181 48.6582 68.3579 48 67.5417 48H56.4763C55.6602 48 55 48.6582 55 49.4692Z" fill="#565557"/>
</svg>
