<svg width="106" height="115" viewBox="0 0 106 115" fill="none" xmlns="http://www.w3.org/2000/svg">
<path fill-rule="evenodd" clip-rule="evenodd" d="M105.583 77.2603L98.8825 70.4342V49.3884C98.8825 49.287 98.8719 49.1871 98.8522 49.0918C98.6963 46.6374 97.332 44.3872 95.2001 43.1343L84.08 36.6532V20.7598H92.9318C93.7465 20.7598 94.4082 20.1016 94.4082 19.2905V15.6149C94.4082 12.363 91.9764 9.55143 88.7921 9.08385C88.4802 9.02786 88.1547 9.00213 87.7701 9.00213H87.7685H16.9571C13.2898 9.00213 10.316 11.9711 10.316 15.6149V66.3183C10.316 66.4136 10.3236 66.5165 10.3463 66.6058V94.2417H1.4748C0.663204 94.2417 0 94.903 0 95.711V97.1819C0 102.045 3.97014 105.999 8.85483 105.999H15.393H75.2464C75.254 105.999 75.254 105.999 75.2616 105.999C80.1235 105.977 84.08 102.03 84.08 97.1819V86.3714L97.385 73.1232L103.472 79.3168C104.041 79.8979 104.969 79.9054 105.554 79.3395C106.137 78.7736 106.151 77.8399 105.583 77.2603ZM84.08 15.6149C84.08 13.5872 85.732 11.9423 87.7685 11.9408C87.976 11.9408 88.1365 11.9529 88.3182 11.9847C90.1064 12.248 91.4555 13.8096 91.4555 15.6149V17.8197H84.08V15.6149ZM11.7999 103.059H8.81849C5.57818 103.038 2.95111 100.407 2.95111 97.1819H10.3463H13.2974H66.3689C66.3689 99.4366 67.2259 101.502 68.628 103.059H11.7999ZM81.1274 85.0852V88.3114V97.1819C81.1274 100.422 78.4867 103.052 75.2313 103.059C75.2237 103.059 75.2237 103.059 75.2237 103.059C71.9698 103.059 69.3215 100.422 69.3215 97.1819V95.711C69.3215 94.903 68.6568 94.2417 67.8452 94.2417H13.2974V66.3183C13.2974 66.2229 13.2823 66.12 13.2686 66.0323V15.6149C13.2686 13.5872 14.9206 11.9408 16.9571 11.9408H82.2479C82.0859 12.1814 81.9451 12.4356 81.8164 12.6974C81.7921 12.7443 81.7694 12.7897 81.7482 12.8381C81.4999 13.3693 81.3212 13.9398 81.2213 14.5375C81.2137 14.5889 81.2046 14.6404 81.1971 14.6933C81.1547 14.996 81.1244 15.3017 81.1244 15.6149V19.2905C81.1244 19.2981 81.1274 19.3056 81.1274 19.3147V34.9341L80.9064 34.801C79.7632 34.1397 78.4716 33.7947 77.1724 33.7947C74.5241 33.7947 72.0439 35.199 70.716 37.4612C68.6492 40.9885 69.8454 45.5373 73.387 47.6104L76.7893 49.5942L81.1274 52.1213V85.0852ZM95.9314 70.4115L84.08 81.7712V51.2845C84.08 51.2179 84.0725 51.1589 84.0649 51.0938C84.0573 51.0348 84.0498 50.9682 84.0286 50.9092C84.0134 50.8502 83.9983 50.7911 83.9695 50.7321C83.9468 50.6746 83.9165 50.6156 83.8877 50.5642C83.8575 50.5127 83.8287 50.4613 83.7999 50.4174C83.7772 50.3947 83.7621 50.372 83.7409 50.3508C83.7106 50.3145 83.6818 50.2842 83.644 50.2479C83.6152 50.2116 83.5849 50.1813 83.5486 50.1601C83.5486 50.1601 83.5486 50.1526 83.541 50.1526C83.4819 50.1011 83.4153 50.0572 83.3487 50.0134L83.3048 49.9907L74.877 45.0818C72.7374 43.8258 72.0152 41.0778 73.2613 38.9457C74.0654 37.5792 75.5644 36.7349 77.1724 36.7349C77.9552 36.7349 78.729 36.9482 79.4164 37.3371L81.7558 38.7036L81.777 38.7187L81.9542 38.8216L93.7101 45.678C95.0744 46.4709 95.9314 47.9554 95.9314 49.5503V70.4115ZM99.1217 81.399C98.4737 82.3448 97.1776 82.5869 96.2282 81.9407C95.2788 81.2946 95.0365 80.0038 95.6861 79.0581C96.3342 78.1138 97.6303 77.8717 98.5797 78.5178C99.5291 79.164 99.7713 80.4548 99.1217 81.399ZM58.9873 22.2292C58.9873 21.4181 59.6475 20.7598 60.4636 20.7598H69.3185C70.1331 20.7598 70.7948 21.4181 70.7948 22.2292C70.7948 23.0403 70.1331 23.6985 69.3185 23.6985H60.4636C59.6475 23.6985 58.9873 23.0403 58.9873 22.2292ZM20.6381 22.2292C20.6381 21.4181 21.2982 20.7598 22.1144 20.7598H54.5599C55.3745 20.7598 56.0362 21.4181 56.0362 22.2292C56.0362 23.0403 55.3745 23.6985 54.5599 23.6985H22.1144C21.2982 23.6985 20.6381 23.0403 20.6381 22.2292ZM20.6381 31.0467C20.6381 30.2356 21.2982 29.5774 22.1144 29.5774H64.891C65.7057 29.5774 66.3658 30.2356 66.3658 31.0467C66.3658 31.8593 65.7057 32.516 64.891 32.516H22.1144C21.2982 32.516 20.6381 31.8593 20.6381 31.0467ZM63.4147 38.3949C64.2293 38.3949 64.891 39.0531 64.891 39.8642C64.891 40.6768 64.2293 41.3351 63.4147 41.3351H36.8487C36.0341 41.3351 35.3739 40.6768 35.3739 39.8642C35.3739 39.0531 36.0341 38.3949 36.8487 38.3949H63.4147ZM20.6381 48.6832C20.6381 47.8706 21.2982 47.2124 22.1144 47.2124H47.1799C47.996 47.2124 48.6562 47.8706 48.6562 48.6832C48.6562 49.4943 47.996 50.1526 47.1799 50.1526H22.1144C21.2982 50.1526 20.6381 49.4943 20.6381 48.6832ZM20.6381 39.8642C20.6381 39.0531 21.2982 38.3949 22.1144 38.3949H30.9465C31.7611 38.3949 32.4213 39.0531 32.4213 39.8642C32.4213 40.6768 31.7611 41.3351 30.9465 41.3351H22.1144C21.2982 41.3351 20.6381 40.6768 20.6381 39.8642ZM20.6381 57.5008C20.6381 56.6897 21.2982 56.0314 22.1144 56.0314H42.7524C43.5686 56.0314 44.2287 56.6897 44.2287 57.5008C44.2287 58.3118 43.5686 58.9701 42.7524 58.9701H22.1144C21.2982 58.9701 20.6381 58.3118 20.6381 57.5008ZM20.6381 66.3183C20.6381 65.5072 21.2982 64.8489 22.1144 64.8489H38.325C39.1412 64.8489 39.8013 65.5072 39.8013 66.3183C39.8013 67.1294 39.1412 67.7876 38.325 67.7876H22.1144C21.2982 67.7876 20.6381 67.1294 20.6381 66.3183ZM45.7051 75.1358C45.7051 75.9484 45.0434 76.6066 44.2287 76.6066H22.1144C21.2982 76.6066 20.6381 75.9484 20.6381 75.1358C20.6381 74.3247 21.2982 73.6665 22.1144 73.6665H44.2287C45.0434 73.6665 45.7051 74.3247 45.7051 75.1358ZM41.2776 83.9548C41.2776 84.7659 40.616 85.4242 39.8013 85.4242H22.1144C21.2982 85.4242 20.6381 84.7659 20.6381 83.9548C20.6381 83.1422 21.2982 82.484 22.1144 82.484H39.8013C40.616 82.484 41.2776 83.1422 41.2776 83.9548ZM1.45814 39.8642V15.6149C1.45814 7.10758 8.40967 0.184613 16.9541 0.184613H23.5665C24.3811 0.184613 25.0428 0.842862 25.0428 1.65395C25.0428 2.46503 24.3811 3.12328 23.5665 3.12328H16.9541C10.0374 3.12328 4.40925 8.72673 4.40925 15.6149V39.8642C4.40925 40.6768 3.74907 41.3351 2.93294 41.3351C2.11832 41.3351 1.45814 40.6768 1.45814 39.8642ZM26.3344 1.65395C26.3344 0.74299 27.0793 0 27.9939 0C28.9099 0 29.6549 0.74299 29.6549 1.65395C29.6549 2.5649 28.9099 3.30789 27.9939 3.30789C27.0793 3.30789 26.3344 2.5649 26.3344 1.65395ZM54.7916 113.348C54.7916 114.259 54.0466 115 53.1305 115C52.216 115 51.471 114.259 51.471 113.348C51.471 112.437 52.216 111.694 53.1305 111.694C54.0466 111.694 54.7916 112.437 54.7916 113.348ZM92.9334 97.1819C92.9334 106.906 84.987 114.817 75.2222 114.817H57.5579C56.7433 114.817 56.0816 114.159 56.0816 113.348C56.0816 112.535 56.7433 111.878 57.5579 111.878H75.2207C83.3593 111.878 89.9807 105.285 89.9807 97.1819C89.9807 96.3693 90.6424 95.711 91.4571 95.711C92.2717 95.711 92.9334 96.3693 92.9334 97.1819Z" fill="#565557"/>
<path fill-rule="evenodd" clip-rule="evenodd" d="M58.0804 72.0505C58.8527 72.2896 59.6567 72.4106 60.4652 72.4106C61.2844 72.4106 62.0884 72.2881 62.847 72.052C64.5459 71.5315 66.0525 70.4465 67.0943 68.9892C68.0679 67.6183 68.5827 66.0067 68.5827 64.327C68.5827 59.8706 64.9411 56.2434 60.4652 56.2434C55.9894 56.2434 52.3478 59.8706 52.3478 64.327C52.3478 66.0021 52.8626 67.6122 53.8347 68.9771C54.8704 70.4495 56.3846 71.542 58.0804 72.0505ZM60.4652 59.1836C63.3134 59.1836 65.6316 61.4912 65.6316 64.327C65.6316 65.3953 65.3045 66.4213 64.6883 67.2884C64.0235 68.2175 63.062 68.9106 61.9718 69.245C61.0164 69.5431 59.9535 69.5506 58.9435 69.2389C57.8639 68.9166 56.9085 68.2236 56.2468 67.2838C55.6275 66.4122 55.3004 65.3893 55.3004 64.327C55.3004 61.4912 57.6171 59.1836 60.4652 59.1836ZM70.7934 75.0603C71.0917 74.4883 71.2779 73.8694 71.3036 73.2414C71.3218 72.9297 71.4293 72.6316 71.605 72.3879C71.7882 72.1383 72.0319 71.9491 72.3121 71.8447C74.0806 71.1713 75.2238 69.5189 75.2238 67.6334C75.2238 66.7709 74.9725 65.9235 74.4849 65.1699C74.3214 64.9247 74.2351 64.6327 74.2351 64.327C74.2351 64.0213 74.3214 63.7308 74.4955 63.469C74.9725 62.7306 75.2238 61.8832 75.2238 61.0206C75.2238 59.1594 74.0534 57.4646 72.3121 56.8033C72.0289 56.6959 71.7867 56.5113 71.605 56.2585C71.4263 56.0164 71.3218 55.7229 71.3051 55.4308C71.187 53.0308 69.2035 51.1514 66.7899 51.1514C66.375 51.1514 65.9753 51.2044 65.6028 51.3073C65.0153 51.4647 64.3688 51.2543 63.9842 50.7807C63.1211 49.7139 61.8386 49.1025 60.4652 49.1025C59.0889 49.1025 57.8033 49.7139 56.9403 50.7807C56.6435 51.1469 56.2029 51.3572 55.7274 51.3572C55.5775 51.3572 55.4458 51.3406 55.3247 51.3073C54.9507 51.2044 54.5494 51.1514 54.1345 51.1514C51.7315 51.1514 49.748 53.0293 49.6193 55.4308C49.6057 55.7319 49.5042 56.0179 49.3195 56.2676C49.1453 56.5112 48.9031 56.6944 48.6109 56.8048C46.8469 57.4767 45.7067 59.1321 45.7067 61.0206C45.7067 61.8983 45.9626 62.7487 46.4471 63.4857C46.6106 63.7308 46.6969 64.0213 46.6969 64.327C46.6969 64.6327 46.6106 64.9247 46.4441 65.1744C45.9626 65.9053 45.7067 66.7557 45.7067 67.6334C45.7067 69.5174 46.8469 71.1683 48.6184 71.8462C48.8985 71.9506 49.1438 72.1382 49.3195 72.3788C49.5012 72.63 49.6057 72.9221 49.6208 73.2263C49.6602 74.0313 49.9282 74.8091 50.3764 75.4794L45.478 85.5408C45.2146 86.081 45.3085 86.7272 45.7158 87.1721C46.1231 87.6154 46.7605 87.7668 47.3253 87.5564L51.8012 85.8828L53.4834 90.3483C53.6894 90.8991 54.2072 91.2744 54.7977 91.3016C54.8189 91.3016 54.8416 91.3032 54.8644 91.3032C55.4291 91.3032 55.947 90.9824 56.1938 90.4724L60.65 81.3008L64.7094 90.427C64.9472 90.9612 65.4756 91.3032 66.0586 91.3032C66.0737 91.3032 66.0873 91.3032 66.1025 91.3016C66.7006 91.285 67.2305 90.9082 67.441 90.3483L69.1232 85.8828L73.6067 87.5579C74.1624 87.7637 74.7908 87.62 75.1996 87.1887C75.6069 86.759 75.7159 86.1264 75.4752 85.5862L70.7934 75.0603ZM48.6578 67.6334C48.6578 67.3262 48.7441 67.0417 48.9076 66.792C49.3922 66.0642 49.6481 65.2122 49.6481 64.327C49.6481 63.4418 49.3922 62.5898 48.9107 61.868C48.7441 61.6123 48.6578 61.3278 48.6578 61.0206C48.6578 60.3609 49.0545 59.7828 49.6587 59.5528C50.4884 59.2411 51.2016 58.6979 51.7103 57.9927C52.2282 57.286 52.525 56.4492 52.5689 55.5806C52.6128 54.7453 53.3002 54.0916 54.1345 54.0916C54.2859 54.0916 54.4162 54.1067 54.5373 54.1416C54.9128 54.2445 55.3141 54.2959 55.7274 54.2959C57.0993 54.2959 58.3787 53.6876 59.2388 52.6253C59.6491 52.1169 60.1836 52.0412 60.4652 52.0412C60.7438 52.0412 61.2753 52.1169 61.6887 52.6283C62.8046 54.0008 64.6655 54.6106 66.3856 54.1416C66.5068 54.1083 66.64 54.0916 66.7899 54.0916C67.5243 54.0916 68.3101 54.6455 68.3571 55.5912C68.4101 56.4643 68.7084 57.2951 69.2141 57.9851C69.7289 58.6948 70.436 59.2381 71.2612 59.5498C71.876 59.7828 72.2727 60.3609 72.2727 61.0206C72.2727 61.3187 72.1818 61.6153 72.0229 61.8635C71.5398 62.5929 71.2839 63.4433 71.2839 64.327C71.2839 65.2107 71.5398 66.0627 72.0123 66.7754C72.1818 67.0387 72.2727 67.3353 72.2727 67.6334C72.2727 68.2886 71.876 68.8636 71.2597 69.0967C70.4466 69.4069 69.741 69.9441 69.2141 70.6629C68.7068 71.3665 68.4101 72.1973 68.3556 73.0931C68.3404 73.4865 68.1723 73.7771 68.0149 73.9708C68.0073 73.9798 67.9967 73.9844 67.9891 73.9935C67.98 74.0056 67.9558 74.0358 67.9361 74.0631C67.8922 74.1085 67.8438 74.1478 67.7953 74.1871C67.7605 74.2159 67.7287 74.2492 67.6908 74.2749C67.6394 74.3112 67.5833 74.3385 67.5273 74.3687C67.4895 74.3899 67.4531 74.4141 67.4137 74.4323C67.3502 74.4595 67.2835 74.4777 67.2169 74.4958C67.1821 74.5064 67.1488 74.5216 67.1124 74.5291C67.0095 74.5518 66.9035 74.5624 66.7975 74.5624C66.6627 74.5624 66.5204 74.5443 66.3599 74.4989C65.9072 74.3839 65.459 74.337 65.0214 74.3521C63.7101 74.399 62.5139 75.0088 61.6917 76.0212C61.6251 76.1014 61.5524 76.174 61.4752 76.2391C61.242 76.4297 60.9558 76.5523 60.6485 76.5871C60.6318 76.5886 60.6182 76.5962 60.6015 76.5977C60.5909 76.5992 60.5788 76.6038 60.5667 76.6038C60.5606 76.6038 60.5561 76.6022 60.5485 76.6022L60.4652 76.6068L60.3456 76.6038C59.9095 76.5705 59.5143 76.3647 59.2433 76.0348C58.3848 74.9634 57.0977 74.3506 55.7138 74.3506C55.3398 74.3506 54.9522 74.4005 54.5373 74.5064C54.4056 74.5428 54.2723 74.5564 54.1406 74.5579C54.0664 74.5579 53.9937 74.5443 53.9195 74.5322C53.8695 74.5261 53.8196 74.5216 53.7696 74.5095C53.6591 74.4822 53.5501 74.4414 53.4471 74.3869C53.4425 74.3839 53.4365 74.3823 53.4319 74.3808C53.3184 74.3203 53.2109 74.2462 53.1109 74.1569C53.1049 74.1523 53.0988 74.1493 53.0928 74.1448C53.0564 74.1115 53.014 74.0873 52.9822 74.051C52.8066 73.8588 52.5916 73.5334 52.5689 73.081C52.525 72.2124 52.2312 71.3756 51.7103 70.6538C51.188 69.9426 50.4778 69.4024 49.6677 69.0982C49.0545 68.8652 48.6578 68.2901 48.6578 67.6334ZM55.037 86.1022L54.0482 83.4753C53.9104 83.1106 53.6333 82.814 53.276 82.6536C53.0837 82.5658 52.8747 82.5219 52.6658 82.5219C52.4917 82.5219 52.3145 82.5522 52.1479 82.6158L49.7465 83.5131L52.7748 77.2923C52.9747 77.3543 53.1806 77.3997 53.388 77.4345C53.4002 77.4375 53.4123 77.4391 53.4244 77.4406C53.656 77.4784 53.8907 77.5026 54.127 77.5026C54.3056 77.5026 54.4843 77.4875 54.6584 77.4663C54.6705 77.4648 54.6826 77.4663 54.6932 77.4648C54.9022 77.4375 55.1051 77.3997 55.2974 77.3467C55.4443 77.3089 55.5881 77.2892 55.7138 77.2892C56.1953 77.2892 56.6405 77.4996 56.9463 77.8809C57.0493 78.0065 57.1583 78.1261 57.2719 78.238C57.3037 78.2683 57.337 78.2955 57.3688 78.3258C57.4536 78.4045 57.5384 78.4832 57.6262 78.5543C57.6686 78.5876 57.7125 78.6163 57.7549 78.6481C57.8382 78.7102 57.9215 78.7737 58.0078 78.8297C58.0562 78.86 58.1077 78.8872 58.1561 78.916C58.2409 78.9674 58.3257 79.0173 58.4136 79.0612C58.4257 79.0673 58.4363 79.0748 58.4484 79.0809L55.037 86.1022ZM68.7765 82.6143C68.4101 82.4781 68.0043 82.4917 67.6469 82.6536C67.2911 82.814 67.014 83.1091 66.8762 83.4753L65.945 85.9494L62.8061 78.8917C63.0181 78.7631 63.221 78.6178 63.4118 78.4544C63.43 78.4378 63.4482 78.4196 63.4678 78.403C63.6495 78.2411 63.8252 78.0686 63.9827 77.8749C64.3642 77.4058 65.0229 77.1939 65.5998 77.3392C65.8208 77.4012 66.0449 77.4391 66.2705 77.4648C66.3659 77.4769 66.4613 77.4769 66.5567 77.4814C66.6824 77.4875 66.8066 77.4935 66.9307 77.489C67.0549 77.486 67.1775 77.4723 67.3017 77.4587C67.391 77.4481 67.4789 77.436 67.5667 77.4209C67.706 77.3967 67.8438 77.3679 67.98 77.3301C68.0497 77.3119 68.1163 77.2877 68.1845 77.265C68.2904 77.2317 68.3995 77.2075 68.5009 77.1652L71.3536 83.5767L68.7765 82.6143Z" fill="#FBA04D"/>
</svg>
