<svg width="86" height="107" viewBox="0 0 86 107" fill="none" xmlns="http://www.w3.org/2000/svg">
<path fill-rule="evenodd" clip-rule="evenodd" d="M52.9316 47.1846L52.1636 47.1901C51.5753 47.1944 50.8356 47.219 50.5215 47.2442C46.7626 47.5468 43.6074 48.9173 41.4162 51.1805C40.294 52.3396 39.6141 53.3763 39.0748 54.7455C38.6021 55.9456 38.3698 57.1177 38.3219 58.5573C38.2706 60.0981 38.4734 61.6238 38.9326 63.1459L39.1548 63.8822L38.8641 64.3088C38.6078 64.685 38.3336 65.3916 38.2409 65.9265C38.2037 66.1411 38.1939 66.5123 38.21 66.8943C38.226 67.2765 38.2668 67.6439 38.3216 67.8515C38.5534 68.7298 39.002 69.4938 39.652 70.1175C39.9043 70.3596 40.1912 70.6086 40.2883 70.6742C40.3825 70.738 40.4644 70.8027 40.5237 70.9075C40.5783 71.0038 40.6056 71.1208 40.6338 71.2649C40.742 71.8195 41.1122 72.8765 41.4225 73.5103C41.7969 74.2752 42.3573 75.09 42.9168 75.6839L43.4136 76.2113V80.1763L43.1901 80.5511C42.6041 81.5342 41.5654 82.199 38.863 83.4105C38.2673 83.6776 37.5803 83.9862 37.3362 84.0964C36.2454 84.5889 34.7479 85.4088 33.9477 85.9506C32.9769 86.608 31.893 87.641 31.2138 88.5553C30.7425 89.1899 30.0726 90.4719 29.8308 91.201C29.3842 92.5484 29.2491 93.4595 29.2118 95.4269L29.198 96.1553C29.3416 96.4365 29.5687 96.6682 29.847 96.8173H84.8891C85.3674 96.8173 85.7515 96.3978 85.7301 95.9199C85.7123 95.5233 85.6724 94.9364 85.6417 94.6178C85.4126 92.2422 84.4653 90.083 82.969 88.5083C82.2755 87.7785 81.7392 87.3276 80.8815 86.7536C79.7014 85.9639 78.705 85.462 76.0469 84.3249C73.6166 83.2853 72.6526 82.7556 72.0353 82.0769L72.0014 82.0397C71.7703 81.7862 71.6196 81.6208 71.5488 81.3046C71.5139 81.1484 71.4986 80.9593 71.4913 80.7091C71.4845 80.474 71.4845 80.1747 71.4845 79.7851L71.4846 78.1429L71.7001 77.8039C72.3908 76.718 72.9127 75.1871 73.0949 73.6977L73.1617 73.1513L73.5563 72.754C74.485 71.8187 75.0329 70.6939 75.2392 69.2868C75.3998 68.1916 75.2628 67.2894 74.7859 66.2988C74.6619 66.0411 74.5852 65.879 74.5536 65.7606C74.5359 65.6947 74.5291 65.6326 74.5377 65.5677C74.5458 65.5065 74.5665 65.4538 74.5846 65.4105C74.7073 65.1171 74.9813 64.1037 75.0959 63.5073C75.7284 60.2138 74.8652 56.8717 72.9145 54.9311C71.9907 54.0122 70.877 53.4709 69.2683 53.1761L68.6722 53.0669L67.5559 50.7406L66.4652 50.7699C64.2785 50.8286 62.4611 51.2637 60.547 52.1857L59.6282 52.6283L59.3364 52.2438C59.0467 51.8621 58.3558 51.2199 57.9209 50.9297C57.1608 50.4226 56.2398 50.0662 55.0776 49.8371L54.3544 49.6945L53.2054 47.3539C53.4139 47.5118 53.5871 47.7183 53.7068 47.9622L54.4779 49.5328L53.8561 48.2663L53.7068 47.9622C53.5871 47.7183 53.4139 47.5118 53.2054 47.3539L53.2054 47.3539C53.1196 47.289 53.028 47.2323 52.9316 47.1846ZM39.7978 86.5113C37.4879 87.5412 36.3086 88.1758 35.3187 88.93C34.2852 89.7176 33.5601 90.6147 33.1604 91.6183C33.066 91.8552 32.9433 92.2363 32.8448 92.577C32.7953 92.7481 32.7512 92.9114 32.7193 93.0438C32.7034 93.1099 32.6902 93.1698 32.6808 93.2199C32.6722 93.266 32.6644 93.3159 32.6644 93.3561C32.6644 93.4651 32.7508 93.5131 32.7597 93.5181C32.781 93.5301 32.8006 93.5356 32.8088 93.5378C32.8279 93.543 32.848 93.5459 32.8636 93.5478C32.8973 93.552 32.944 93.5554 33.0027 93.5585C33.1217 93.5647 33.3054 93.57 33.5678 93.5748C34.0934 93.5844 34.9422 93.5916 36.2362 93.5969C38.8247 93.6076 43.1986 93.611 50.3404 93.611C57.4821 93.611 61.856 93.6076 64.4445 93.5969C65.7386 93.5916 66.5874 93.5844 67.1129 93.5748C67.3753 93.57 67.5591 93.5647 67.678 93.5585C67.7367 93.5554 67.7835 93.552 67.8171 93.5478C67.8327 93.5459 67.8528 93.543 67.872 93.5378C67.8801 93.5356 67.9002 93.5298 67.9215 93.5178C67.9304 93.5129 68.0164 93.4651 68.0164 93.3561C68.0164 93.3159 68.0086 93.266 68 93.2199C67.9906 93.1698 67.9773 93.1099 67.9614 93.0438C67.9295 92.9114 67.8854 92.7481 67.836 92.577C67.7374 92.2363 67.6147 91.8552 67.5204 91.6183C66.8728 89.9926 65.482 88.7494 62.9877 87.4963C62.5333 87.268 61.5868 86.8254 60.8829 86.5118C57.848 85.1601 56.6139 84.4126 55.567 83.3212C55.0026 82.7329 54.5511 82.0563 54.2748 81.3897L54.08 80.9198L54.0767 75.0147L54.4582 74.6153C55.0645 73.9807 55.4096 73.4441 55.7523 72.6056C56.0491 71.879 56.295 70.5093 56.297 69.5918L56.2979 69.1922L56.9706 68.6126C57.3898 68.2514 57.6641 67.9926 57.8498 67.7486C58.0415 67.497 58.1356 67.2659 58.208 66.9691C58.3228 66.4981 58.3408 66.0982 58.2164 65.6694C58.0942 65.248 57.8386 64.8136 57.4376 64.2651C57.3137 64.0956 57.2013 63.9385 57.1202 63.8222C57.0915 63.781 57.067 63.7453 57.0475 63.7164C57.0625 63.6903 57.0807 63.6589 57.1019 63.6232C57.1673 63.5128 57.258 63.3638 57.358 63.2032C57.5621 62.8752 57.7944 62.4207 57.8736 62.1856C58.0723 61.5954 58.2315 60.6921 58.2984 59.7985C58.5385 56.5923 57.3331 53.8541 55.1918 53.0425C54.571 52.8071 54.0352 52.7325 53.0571 52.7325H52.2861L51.2279 50.6081L50.8477 50.621C50.4495 50.6345 50.2617 50.6589 49.3318 50.8129C46.9533 51.2066 45.0511 52.0936 43.6989 53.4268C42.3452 54.7617 41.5554 56.5319 41.3829 58.6667C41.2405 60.428 41.612 62.1919 42.5469 64.2567L42.6825 64.5563L42.3048 64.9501C41.9111 65.3604 41.6398 65.7561 41.4985 66.1581C41.3557 66.5643 41.3491 66.967 41.4688 67.381C41.546 67.6478 41.6455 67.8507 41.8505 68.0377C42.0451 68.2152 42.327 68.3705 42.7438 68.5695L43.3797 68.8732L43.4067 69.1523C43.544 70.5724 43.8397 71.5177 44.5037 72.6467C45.0554 73.585 45.6067 74.1738 46.4307 74.6968L46.6038 74.8068L46.6007 80.9198L46.406 81.3897C46.1296 82.0563 45.6782 82.7329 45.1138 83.3212C44.0674 84.412 42.8435 85.1533 39.7978 86.5113ZM68.465 82.4557L68.2959 82.0368L68.2941 77.2511L68.5816 76.9155C68.7769 76.6874 68.8995 76.5357 69.0075 76.3396C69.1135 76.1473 69.2028 75.917 69.3431 75.5369C69.7582 74.4127 70.0132 73.1859 70.1023 71.8907L70.1294 71.4968L70.7998 71.0577C71.1346 70.8383 71.3363 70.7021 71.4687 70.5865C71.6129 70.4606 71.6781 70.3562 71.7481 70.2125C71.9469 69.8042 72.0845 69.1308 72.0848 68.596C72.0851 68.2384 72.0436 68.0316 71.8989 67.6375C71.8192 67.4204 71.7589 67.2726 71.6611 67.1272C71.5653 66.9846 71.4379 66.851 71.2384 66.6517C71.1189 66.5325 71.0114 66.4171 70.9346 66.328C70.9064 66.2952 70.8834 66.2672 70.866 66.2447C70.8826 66.2038 70.9067 66.1485 70.9369 66.0817C71.0003 65.9419 71.0882 65.7575 71.1853 65.5629C71.7365 64.4577 71.9554 63.6182 72.0701 62.1907C72.1126 61.6632 72.1124 61.2359 72.0693 60.7335C71.8956 58.7065 71.1 57.2244 69.7458 56.5537C69.0855 56.2266 68.6218 56.1397 67.4491 56.0987L66.5842 56.0686L65.6786 54.1786L65.3741 54.1911C65.1458 54.2005 65.1105 54.2062 64.1946 54.3599C63.8067 54.4249 63.2602 54.5522 62.9745 54.645C62.6527 54.7494 62.2116 54.948 61.8545 55.1333C61.6755 55.2261 61.513 55.318 61.3939 55.3957C61.3352 55.434 61.2818 55.4723 61.2414 55.5081C61.2217 55.5256 61.1992 55.5477 61.1805 55.5734C61.1673 55.5916 61.1282 55.6481 61.1359 55.7256C61.1392 55.7587 61.1596 55.8692 61.1856 56.0045C61.2129 56.1464 61.2493 56.3306 61.2884 56.5229C61.725 58.6731 61.615 60.6185 60.9458 62.6172L60.6528 63.4927L60.896 63.9842C61.4276 65.0581 61.5979 66.1489 61.4091 67.2317C61.207 68.3917 60.7343 69.3063 59.8446 70.2458L59.3337 70.7852L59.2688 71.2449C59.1831 71.8524 59.0189 72.5603 58.8334 73.1236C58.5995 73.8333 58.0319 74.9729 57.6407 75.5208L57.2681 76.0428L57.2671 80.1763L57.4906 80.5511C58.0809 81.5413 59.105 82.1962 61.8284 83.4159C62.4182 83.6801 63.1006 83.9864 63.3446 84.0966C64.0522 84.4159 65.3988 85.1193 65.9627 85.4637C68.9256 87.2737 70.5391 89.4655 71.1838 92.5323C71.2214 92.711 71.2555 92.8886 71.2801 93.0303C71.2847 93.0571 71.289 93.0824 71.2929 93.1062C71.2993 93.1454 71.3047 93.1802 71.3088 93.2096C71.3122 93.2333 71.3146 93.2526 71.3161 93.2675C71.3164 93.2707 71.3167 93.2735 71.3169 93.2759C71.3173 93.2797 71.3175 93.2826 71.3177 93.2848L71.3179 93.2898V93.611H82.1988L81.9468 92.924C81.5714 91.9011 81.1571 91.2129 80.5157 90.5601C79.4585 89.4843 77.9684 88.6194 75.208 87.4549C71.889 86.0547 70.685 85.3463 69.596 84.1893C69.0884 83.65 68.7164 83.0785 68.465 82.4557Z" fill="#FBA04D"/>
<path fill-rule="evenodd" clip-rule="evenodd" d="M6.5 105C6.5 104.172 7.17157 103.5 8 103.5H8.51945C9.34788 103.5 10.0195 104.172 10.0195 105C10.0195 105.828 9.34788 106.5 8.51945 106.5H8C7.17157 106.5 6.5 105.828 6.5 105ZM11.6945 105C11.6945 104.172 12.3661 103.5 13.1945 103.5H65C65.8284 103.5 66.5 104.172 66.5 105C66.5 105.828 65.8284 106.5 65 106.5H13.1945C12.3661 106.5 11.6945 105.828 11.6945 105Z" fill="#565557"/>
<path d="M22.3313 23C23.1474 23 23.8076 23.6582 23.8076 24.4693C23.8076 25.2804 23.1474 25.9387 22.3313 25.9387H13.4765C12.6618 25.9387 12.0002 25.2804 12.0002 24.4693C12.0002 23.6582 12.6618 23 13.4765 23H22.3313Z" fill="#565557"/>
<path d="M39.3313 23C40.1474 23 40.8076 23.6582 40.8076 24.4693C40.8076 25.2804 40.1474 25.9387 39.3313 25.9387H30.4765C29.6618 25.9387 29.0002 25.2804 29.0002 24.4693C29.0002 23.6582 29.6618 23 30.4765 23H39.3313Z" fill="#565557"/>
<path d="M56.3313 23C57.1474 23 57.8076 23.6582 57.8076 24.4693C57.8076 25.2804 57.1474 25.9387 56.3313 25.9387H47.4765C46.6618 25.9387 46.0002 25.2804 46.0002 24.4693C46.0002 23.6582 46.6618 23 47.4765 23H56.3313Z" fill="#565557"/>
<path d="M22.3311 82C23.1472 82 23.8074 82.6582 23.8074 83.4693C23.8074 84.2804 23.1472 84.9387 22.3311 84.9387H13.4762C12.6616 84.9387 11.9999 84.2804 11.9999 83.4693C11.9999 82.6582 12.6616 82 13.4762 82H22.3311Z" fill="#565557"/>
<path d="M31.3311 82C32.1472 82 32.8074 82.6582 32.8074 83.4693C32.8074 84.2804 32.1472 84.9387 31.3311 84.9387H30.4762C29.6616 84.9387 28.9999 84.2804 28.9999 83.4693C28.9999 82.6582 29.6616 82 30.4762 82H31.3311Z" fill="#565557"/>
<path d="M22.3311 72C23.1472 72 23.8074 72.6582 23.8074 73.4693C23.8074 74.2804 23.1472 74.9387 22.3311 74.9387H13.4762C12.6616 74.9387 11.9999 74.2804 11.9999 73.4693C11.9999 72.6582 12.6616 72 13.4762 72H22.3311Z" fill="#565557"/>
<path d="M36.3311 72C37.1472 72 37.8074 72.6582 37.8074 73.4693C37.8074 74.2804 37.1472 74.9387 36.3311 74.9387H30.4762C29.6616 74.9387 28.9999 74.2804 28.9999 73.4693C28.9999 72.6582 29.6616 72 30.4762 72H36.3311Z" fill="#565557"/>
<path d="M22.3311 62C23.1472 62 23.8074 62.6582 23.8074 63.4693C23.8074 64.2804 23.1472 64.9387 22.3311 64.9387H13.4762C12.6616 64.9387 11.9999 64.2804 11.9999 63.4693C11.9999 62.6582 12.6616 62 13.4762 62H22.3311Z" fill="#565557"/>
<path d="M33.3311 62C34.1472 62 34.8074 62.6582 34.8074 63.4693C34.8074 64.2804 34.1472 64.9387 33.3311 64.9387H30.4762C29.6616 64.9387 28.9999 64.2804 28.9999 63.4693C28.9999 62.6582 29.6616 62 30.4762 62H33.3311Z" fill="#565557"/>
<path d="M22.3311 52C23.1472 52 23.8074 52.6582 23.8074 53.4693C23.8074 54.2804 23.1472 54.9387 22.3311 54.9387H13.4762C12.6616 54.9387 11.9999 54.2804 11.9999 53.4693C11.9999 52.6582 12.6616 52 13.4762 52H22.3311Z" fill="#565557"/>
<path d="M34.3311 52C35.1472 52 35.8074 52.6582 35.8074 53.4693C35.8074 54.2804 35.1472 54.9387 34.3311 54.9387H30.4762C29.6616 54.9387 28.9999 54.2804 28.9999 53.4693C28.9999 52.6582 29.6616 52 30.4762 52H34.3311Z" fill="#565557"/>
<path d="M22.3311 42C23.1472 42 23.8074 42.6582 23.8074 43.4693C23.8074 44.2804 23.1472 44.9387 22.3311 44.9387H13.4762C12.6616 44.9387 11.9999 44.2804 11.9999 43.4693C11.9999 42.6582 12.6616 42 13.4762 42H22.3311Z" fill="#565557"/>
<path d="M39.3311 42C40.1472 42 40.8074 42.6582 40.8074 43.4693C40.8074 44.2804 40.1472 44.9387 39.3311 44.9387H30.4762C29.6616 44.9387 28.9999 44.2804 28.9999 43.4693C28.9999 42.6582 29.6616 42 30.4762 42H39.3311Z" fill="#565557"/>
<path d="M56.3311 42C57.1472 42 57.8074 42.6582 57.8074 43.4693C57.8074 44.2804 57.1472 44.9387 56.3311 44.9387H47.4762C46.6616 44.9387 45.9999 44.2804 45.9999 43.4693C45.9999 42.6582 46.6616 42 47.4762 42H56.3311Z" fill="#565557"/>
<path d="M22.3313 32C23.1474 32 23.8076 32.6582 23.8076 33.4693C23.8076 34.2804 23.1474 34.9387 22.3313 34.9387H13.4765C12.6618 34.9387 12.0002 34.2804 12.0002 33.4693C12.0002 32.6582 12.6618 32 13.4765 32H22.3313Z" fill="#565557"/>
<path d="M39.3313 32C40.1474 32 40.8076 32.6582 40.8076 33.4693C40.8076 34.2804 40.1474 34.9387 39.3313 34.9387H30.4765C29.6618 34.9387 29.0002 34.2804 29.0002 33.4693C29.0002 32.6582 29.6618 32 30.4765 32H39.3313Z" fill="#565557"/>
<path d="M56.3313 32C57.1474 32 57.8076 32.6582 57.8076 33.4693C57.8076 34.2804 57.1474 34.9387 56.3313 34.9387H47.4765C46.6618 34.9387 46.0002 34.2804 46.0002 33.4693C46.0002 32.6582 46.6618 32 47.4765 32H56.3313Z" fill="#565557"/>
<path fill-rule="evenodd" clip-rule="evenodd" d="M10.2687 8.78261V4.8913C10.2687 2.46605 12.2348 0.5 14.66 0.5H51.7673C54.1926 0.5 56.1586 2.46605 56.1586 4.8913V8.78261C56.1586 9.61104 56.8302 10.2826 57.6586 10.2826H61.543C63.9644 10.2826 65.9274 12.2456 65.9274 14.667V43.2636C65.9274 44.0665 65.2765 44.7174 64.4736 44.7174C63.6707 44.7174 63.0199 44.0665 63.0199 43.2636V15.6957C63.0199 14.3149 61.9006 13.1957 60.5199 13.1957H19.5402C18.7358 13.1957 18.0837 12.5435 18.0837 11.7391C18.0837 10.9347 18.7358 10.2826 19.5402 10.2826H51.7512C52.5796 10.2826 53.2512 9.61104 53.2512 8.78261V4.91304C53.2512 4.08462 52.5796 3.41304 51.7512 3.41304H14.6762C13.8478 3.41304 13.1762 4.08461 13.1762 4.91304V12.6957C13.1762 12.9718 12.9524 13.1957 12.6762 13.1957H5.90749C4.52678 13.1957 3.40749 14.3149 3.40749 15.6957V86.1739C3.40749 89.7638 6.31764 92.6739 9.90749 92.6739H21.4884C22.2929 92.6739 22.945 93.326 22.945 94.1304C22.945 94.9349 22.2928 95.587 21.4884 95.587H10C4.7533 95.587 0.5 91.3337 0.5 86.087V14.667C0.5 12.2456 2.46295 10.2826 4.88437 10.2826H8.76873C9.59716 10.2826 10.2687 9.61104 10.2687 8.78261Z" fill="#565557"/>
</svg>
