<svg width="115" height="109" viewBox="0 0 115 109" fill="none" xmlns="http://www.w3.org/2000/svg">
<path fill-rule="evenodd" clip-rule="evenodd" d="M41 3.5C39.067 3.5 37.5 5.067 37.5 7V12C37.5 12.8284 36.8284 13.5 36 13.5C35.1716 13.5 34.5 12.8284 34.5 12V7C34.5 3.41015 37.4101 0.5 41 0.5H43C43.8284 0.5 44.5 1.17157 44.5 2C44.5 2.82843 43.8284 3.5 43 3.5H41ZM49.5 2C49.5 1.17157 50.1716 0.5 51 0.5H74C77.5899 0.5 80.5 3.41015 80.5 7V12C80.5 12.8284 79.8284 13.5 79 13.5C78.1716 13.5 77.5 12.8284 77.5 12V7C77.5 5.067 75.933 3.5 74 3.5H51C50.1716 3.5 49.5 2.82843 49.5 2Z" fill="#565557"/>
<path fill-rule="evenodd" clip-rule="evenodd" d="M0 93.4584C0 96.2199 2.23858 98.4584 5 98.4584H110C112.761 98.4584 115 96.2198 115 93.4584V17.5C115 14.7386 112.761 12.5 110 12.5H5C2.23858 12.5 0 14.7386 0 17.5V93.4584ZM22.2931 15.5H5C3.89543 15.5 3 16.3954 3 17.5V45.4895C3.41383 46.4847 3.89433 47.5432 4.44042 48.5852C5.20292 50.04 6.07105 51.4186 7.03155 52.53C7.99866 53.6491 8.99211 54.4191 9.98769 54.7827C12.4434 55.6794 15.1492 56.0488 17.2808 56.1867C18.3385 56.2552 19.2366 56.2656 19.8671 56.2591C20.182 56.2558 20.4291 56.2483 20.5949 56.2418C20.6777 56.2386 20.7402 56.2356 20.7805 56.2335L20.8242 56.2311L20.8331 56.2306C20.8331 56.2306 20.8333 56.2305 20.9291 57.7275C21.025 59.2244 21.0243 59.2245 21.0243 59.2245L21.0161 59.225L20.9984 59.226L20.9366 59.2294C20.884 59.2322 20.8087 59.2358 20.7126 59.2395C20.5203 59.2471 20.2443 59.2554 19.8982 59.2589C19.2068 59.2661 18.2324 59.2546 17.087 59.1805C14.8125 59.0332 11.7903 58.6347 8.95867 57.6007C7.31058 56.9989 5.91737 55.8288 4.76173 54.4916C4.12304 53.7526 3.53615 52.9384 3 52.0933V93.4584C3 94.563 3.89542 95.4584 5 95.4584H22.2931V69.1363H25.2931V95.4584H32.8678V69.1363H35.8678V95.4584H79.3525V69.1363H82.3525V95.4584H89.2663V69.1363H92.2663V95.4584H110C111.105 95.4584 112 94.563 112 93.4584V53.0487C110.411 54.9267 108.354 56.6759 105.821 57.6007C103.932 58.2905 101.965 58.6954 100.2 58.9328C98.4246 59.1715 96.8242 59.2445 95.6678 59.2582C95.0885 59.2651 94.6175 59.2571 94.2881 59.2472C94.1233 59.2422 93.9938 59.2368 93.9036 59.2324C93.8584 59.2303 93.8231 59.2284 93.7982 59.227L93.7685 59.2253L93.7556 59.2245C93.7556 59.2245 93.7547 59.2244 93.8506 57.7275C93.9464 56.2305 93.9461 56.2305 93.9461 56.2305L93.9486 56.2307L93.9664 56.2317C93.9833 56.2327 94.0104 56.2341 94.0471 56.2359C94.1205 56.2394 94.2323 56.2441 94.3783 56.2485C94.6706 56.2573 95.0994 56.2647 95.6323 56.2584C96.7005 56.2458 98.1748 56.1781 99.8001 55.9595C101.423 55.7413 103.165 55.3767 104.792 54.7827C107.055 53.9564 108.968 52.1777 110.462 50.1596C111.058 49.3559 111.571 48.5349 112 47.7567V17.5C112 16.3954 111.105 15.5 110 15.5H92.2663V48.2217H89.2663V15.5H82.3525V48.2217H79.3525V15.5H35.8678V48.0023H32.8678V15.5H25.2931V48.2217H22.2931V15.5Z" fill="#565557"/>
<path fill-rule="evenodd" clip-rule="evenodd" d="M19.5 107C19.5 106.172 20.1716 105.5 21 105.5H21.5195C22.3479 105.5 23.0195 106.172 23.0195 107C23.0195 107.828 22.3479 108.5 21.5195 108.5H21C20.1716 108.5 19.5 107.828 19.5 107ZM24.6945 107C24.6945 106.172 25.3661 105.5 26.1945 105.5L94 105.5C94.8284 105.5 95.5 106.172 95.5 107C95.5 107.828 94.8284 108.5 94 108.5L26.1945 108.5C25.3661 108.5 24.6945 107.828 24.6945 107Z" fill="#565557"/>
<path fill-rule="evenodd" clip-rule="evenodd" d="M19.5 50.6992C19.5 48.6081 21.4375 47.3691 23.2093 47.3691H35.1395C36.9114 47.3691 38.8488 48.6081 38.8488 50.6992V57.9835H41.4082C42.2366 57.9835 42.9082 58.6551 42.9082 59.4835C42.9082 60.3119 42.2366 60.9835 41.4082 60.9835H38.8488V67.1698C38.8488 69.2609 36.9114 70.4999 35.1395 70.4999H23.2093C21.4375 70.4999 19.5 69.2609 19.5 67.1698V50.6992ZM22.5 50.6992V67.1698C22.5 67.173 22.5 67.1813 22.5095 67.2C22.5207 67.2218 22.5475 67.2619 22.604 67.3087C22.7203 67.4051 22.9295 67.4999 23.2093 67.4999H35.1395C35.4194 67.4999 35.6285 67.4051 35.7449 67.3087C35.8014 67.2619 35.8282 67.2218 35.8393 67.2C35.8491 67.1809 35.8488 67.1729 35.8488 67.1698V50.6992C35.8488 50.696 35.8489 50.6877 35.8393 50.669C35.8282 50.6472 35.8014 50.6071 35.7449 50.5603C35.6285 50.4639 35.4194 50.3691 35.1395 50.3691H23.2093C22.9295 50.3691 22.7203 50.4639 22.604 50.5603C22.5474 50.6071 22.5207 50.6472 22.5095 50.669C22.5 50.6877 22.5 50.696 22.5 50.6992ZM45.418 59.4835C45.418 58.6551 46.0896 57.9835 46.918 57.9835H76C76.8284 57.9835 77.5 58.6551 77.5 59.4835C77.5 60.3119 76.8284 60.9835 76 60.9835H46.918C46.0896 60.9835 45.418 60.3119 45.418 59.4835Z" fill="#FBA04D"/>
<path fill-rule="evenodd" clip-rule="evenodd" d="M76.75 50.8181C76.75 48.9294 78.4894 47.7499 80.1622 47.7499H91.8378C93.5106 47.7499 95.25 48.9294 95.25 50.8181V67.1817C95.25 69.0704 93.5106 70.2499 91.8378 70.2499H80.1622C78.4894 70.2499 76.75 69.0704 76.75 67.1817V50.8181ZM79.4378 50.4891C79.285 50.6176 79.25 50.7388 79.25 50.8181V67.1817C79.25 67.261 79.285 67.3822 79.4378 67.5106C79.5932 67.6413 79.8453 67.7499 80.1622 67.7499H91.8378C92.1547 67.7499 92.4068 67.6413 92.5622 67.5106C92.715 67.3822 92.75 67.261 92.75 67.1817V50.8181C92.75 50.7388 92.715 50.6176 92.5622 50.4891C92.4068 50.3584 92.1547 50.2499 91.8378 50.2499H80.1622C79.8453 50.2499 79.5932 50.3584 79.4378 50.4891Z" fill="#FBA04D"/>
<path fill-rule="evenodd" clip-rule="evenodd" d="M20 54.9999C20 54.1715 20.6716 53.4999 21.5 53.4999H36.5C37.3284 53.4999 38 54.1715 38 54.9999C38 55.8283 37.3284 56.4999 36.5 56.4999H21.5C20.6716 56.4999 20 55.8283 20 54.9999ZM77 54.9999C77 54.1715 77.6716 53.4999 78.5 53.4999H94C94.8284 53.4999 95.5 54.1715 95.5 54.9999C95.5 55.8283 94.8284 56.4999 94 56.4999H78.5C77.6716 56.4999 77 55.8283 77 54.9999Z" fill="#FBA04D"/>
</svg>
