<svg width="123" height="116" viewBox="0 0 123 116" fill="none" xmlns="http://www.w3.org/2000/svg">
<path fill-rule="evenodd" clip-rule="evenodd" d="M96.1413 29.6194C95.8812 29.6194 95.6275 29.5382 95.4157 29.3872L59.3166 3.64911C57.9511 2.90631 56.3434 2.5164 54.75 2.50056C53.1505 2.51646 51.5365 2.9093 50.1677 3.65766L10.0826 30.4901H23.5154L48.8222 13.5501L48.8479 13.5329L48.8743 13.517C50.6353 12.4602 52.7092 11.9836 54.7502 12.0005C56.7911 11.9836 58.865 12.4602 60.626 13.517L60.6576 13.5359L60.6879 13.5567L80.8607 27.3373C81.8759 28.0308 81.3851 29.6194 80.1556 29.6194C79.904 29.6194 79.6583 29.5435 79.4505 29.4016L59.3274 15.6549C57.9806 14.9199 56.3696 14.5173 54.7502 14.5006C53.1288 14.5173 51.5157 14.9209 50.1679 15.6577L28.0097 30.4901H28.25H39.3039C39.9942 30.4901 40.5539 31.0497 40.5539 31.7401C40.5539 32.4304 39.9942 32.9901 39.3039 32.9901H28.25H7.48758C5.4165 32.9901 3.73757 34.669 3.73757 36.7401V41.7752C3.73757 43.8463 5.4165 45.5252 7.48757 45.5252H9.47099H16.4544H36.7859H44.2113H44.25H59.75C60.4404 45.5252 61 46.0849 61 46.7752C61 47.4656 60.4404 48.0252 59.75 48.0252H45.4613V85.676H65C65.6904 85.676 66.25 86.2356 66.25 86.926C66.25 87.6163 65.6904 88.176 65 88.176H44.25H44.2113H36.7859H32.9088V92.681H44.25H65C65.6904 92.681 66.25 93.2407 66.25 93.931C66.25 94.6214 65.6904 95.181 65 95.181H44.25H32.9088V100.369H44.25H65C65.6904 100.369 66.25 100.929 66.25 101.619C66.25 102.31 65.6904 102.869 65 102.869H44.25H31.6588H24.4102H6.25C2.79822 102.869 0 100.071 0 96.6195V91.926C0 88.4742 2.79822 85.676 6.25 85.676H8.22099V48.0252H7.48757C4.03579 48.0252 1.23757 45.227 1.23757 41.7752V36.7401C1.23757 34.5489 2.36513 32.6211 4.07166 31.5053L48.822 1.55006L48.8477 1.53288L48.8742 1.517C50.6201 0.469243 52.6862 -0.0172082 54.75 0.000464338C56.8138 -0.0172082 58.8799 0.469243 60.6258 1.517L60.6681 1.54238L60.7083 1.57102L96.867 27.3516C97.8576 28.0579 97.3579 29.6194 96.1413 29.6194ZM43.6202 31.7401C43.6202 32.4304 44.1798 32.9901 44.8702 32.9901H45.8798H59.9461H70C70.6904 32.9901 71.25 32.4304 71.25 31.7401C71.25 31.0497 70.6904 30.4901 70 30.4901H59.9461H45.8798H44.8702C44.1798 30.4901 43.6202 31.0497 43.6202 31.7401ZM71.25 46.7752C71.25 47.4656 70.6904 48.0252 70 48.0252H65.625C64.9346 48.0252 64.375 47.4656 64.375 46.7752C64.375 46.0849 64.9346 45.5252 65.625 45.5252H70C70.6904 45.5252 71.25 46.0849 71.25 46.7752ZM10.721 85.676V48.0252H15.2044V85.676H10.721ZM17.7044 85.676V48.0252H35.5359V85.676H31.6588H24.4102H17.7044ZM38.0359 85.676V48.0252H42.9613V85.676H38.0359ZM30.4088 93.931V100.369H25.6602V88.176H30.4088V93.931ZM23.1602 88.176V100.369H6.25C4.17893 100.369 2.5 98.6905 2.5 96.6195V91.926C2.5 89.8549 4.17893 88.176 6.25 88.176H9.47099H16.4544H23.1602Z" fill="#565557"/>
<path fill-rule="evenodd" clip-rule="evenodd" d="M81 49.2001C83.3196 49.2001 85.2 47.3197 85.2 45.0001C85.2 42.6805 83.3196 40.8001 81 40.8001C78.6804 40.8001 76.8 42.6805 76.8 45.0001C76.8 47.3197 78.6804 49.2001 81 49.2001ZM81 52.0001C84.866 52.0001 88 48.8661 88 45.0001C88 41.1341 84.866 38.0001 81 38.0001C77.134 38.0001 74 41.1341 74 45.0001C74 48.8661 77.134 52.0001 81 52.0001Z" fill="#FBA04D"/>
<path fill-rule="evenodd" clip-rule="evenodd" d="M102.25 43.8196C104.57 43.8196 106.45 41.9392 106.45 39.6196C106.45 37.3 104.57 35.4196 102.25 35.4196C99.9304 35.4196 98.05 37.3 98.05 39.6196C98.05 41.9392 99.9304 43.8196 102.25 43.8196ZM102.25 46.6196C106.116 46.6196 109.25 43.4856 109.25 39.6196C109.25 35.7536 106.116 32.6196 102.25 32.6196C98.384 32.6196 95.25 35.7536 95.25 39.6196C95.25 43.4856 98.384 46.6196 102.25 46.6196Z" fill="#FBA04D"/>
<path fill-rule="evenodd" clip-rule="evenodd" d="M108.927 47.1125L109.589 47.2481C110.409 47.4161 111.212 47.8318 111.904 48.2776C112.613 48.7346 113.301 49.285 113.903 49.8133C115.798 51.4773 116.736 53.8393 116.929 56.1924C117.221 59.7512 117.625 65.595 117.476 69.3488C117.408 71.0415 116.952 72.6923 115.95 73.9514C115.038 75.0987 113.744 75.8267 112.15 75.9864V100.72H120.75C121.523 100.72 122.15 101.346 122.15 102.12C122.15 102.893 121.523 103.52 120.75 103.52H92.25C91.4768 103.52 90.85 102.893 90.85 102.12C90.85 101.346 91.4768 100.72 92.25 100.72H98.8499V81.6196C98.8499 79.4657 100.596 77.7196 102.75 77.7196C104.904 77.7196 106.65 79.4657 106.65 81.6196V100.72H109.35V61.1196C109.35 60.3464 109.977 59.7196 110.75 59.7196C111.523 59.7196 112.15 60.3464 112.15 61.1196V73.1614C112.871 73.0293 113.383 72.6811 113.759 72.2086C114.28 71.5536 114.626 70.5411 114.678 69.2372C114.82 65.6796 114.432 60.0007 114.139 56.4216C113.991 54.6237 113.29 53.0013 112.055 51.9173C111.515 51.443 110.941 50.9881 110.388 50.6316C110.099 50.4457 109.838 50.3012 109.608 50.195L102.779 55.9227L95.4703 50.1803C94.985 50.3979 94.3118 50.8033 93.6776 51.4143C92.7816 52.2774 92.15 53.3707 92.15 54.6196C92.15 55.3928 91.5232 56.0196 90.75 56.0196C89.9768 56.0196 89.35 55.3928 89.35 54.6196C89.35 52.3685 90.4935 50.5937 91.7351 49.3977C92.9451 48.2321 94.4343 47.4359 95.4996 47.2422L96.1195 47.1295L102.721 52.3166L108.927 47.1125ZM103.85 100.72V81.6196C103.85 81.0121 103.357 80.5196 102.75 80.5196C102.142 80.5196 101.65 81.0121 101.65 81.6196V100.72H103.85Z" fill="#FBA04D"/>
<path fill-rule="evenodd" clip-rule="evenodd" d="M94.6 76.3696C95.3732 76.3696 96 74.9964 96 75.7696V100.27C96 101.043 95.3732 101.67 94.6 101.67C93.8268 101.67 93.35 100.893 93.35 100.12V77.6196C93.35 76.8464 93.8268 74.3696 94.6 76.3696Z" fill="#FBA04D"/>
<path fill-rule="evenodd" clip-rule="evenodd" d="M61 113.5C61 112.727 61.6268 112.1 62.4 112.1H98.9C99.6732 112.1 100.3 112.727 100.3 113.5C100.3 114.273 99.6732 114.9 98.9 114.9H62.4C61.6268 114.9 61 114.273 61 113.5Z" fill="#FBA04D"/>
<path fill-rule="evenodd" clip-rule="evenodd" d="M71.7774 77.4251L71.4001 111.385C71.3915 112.158 72.0113 112.791 72.7845 112.8C73.5576 112.809 74.1913 112.189 74.1999 111.416L74.6995 66.4572C74.7084 65.6552 74.0606 65.0001 73.2584 65.0001C72.466 65.0001 71.8222 65.64 71.8174 66.4324L71.7519 77.1488C71.7513 77.2433 71.7601 77.3357 71.7774 77.4251ZM88.8 65.0001C89.5732 65.0001 90.2 65.6269 90.2 66.4001V111.4C90.2 112.173 89.5732 112.8 88.8 112.8C88.0268 112.8 87.4 112.173 87.4 111.4V66.4001C87.4 65.6269 88.0268 65.0001 88.8 65.0001ZM80.8 85.8001C80.1925 85.8001 79.7 86.2926 79.7 86.9001V111.4C79.7 112.173 79.0732 112.8 78.3 112.8C77.5268 112.8 76.9 112.173 76.9 111.4V86.9001C76.9 84.7462 78.6461 83.0001 80.8 83.0001C82.9539 83.0001 84.7 84.7462 84.7 86.9001V111.4C84.7 112.173 84.0732 112.8 83.3 112.8C82.5268 112.8 81.9 112.173 81.9 111.4V86.9001C81.9 86.2926 81.4075 85.8001 80.8 85.8001Z" fill="#FBA04D"/>
<path fill-rule="evenodd" clip-rule="evenodd" d="M75.1416 53.0001L81.246 58.1652L87.4041 53.0008L88.0507 53.1183C89.1353 53.3155 90.7488 53.8568 92.2263 54.8639C93.7141 55.8781 95.1665 57.4401 95.6669 59.692C95.9971 61.1782 96.1167 64.7136 96.1383 67.4582C96.1603 70.2512 96.0799 73.4088 95.9676 76.2249C95.8212 79.8991 93.0636 82.8957 89.2419 82.8957C88.4687 82.8957 87.8419 82.2689 87.8419 81.4957C87.8419 80.7225 88.4687 80.0957 89.2419 80.0957C91.4182 80.0957 93.0774 78.4323 93.1699 76.1133C93.2812 73.3208 93.3599 70.2118 93.3384 67.4802C93.3165 64.7003 93.19 61.4534 92.9336 60.2994C92.634 58.9514 91.7531 57.93 90.6492 57.1775C89.8016 56.5998 88.8833 56.225 88.1628 56.0188L81.2379 61.8263L74.3756 56.0198C73.6556 56.2263 72.739 56.6007 71.8928 57.1775C70.7889 57.93 69.908 58.9514 69.6084 60.2994C69.3046 61.6665 69.1881 65.5225 69.201 68.9143C69.2138 72.2461 69.3483 75.9283 69.4951 78.8399C69.5303 79.5384 70.1107 80.0957 70.8343 80.0957C71.5819 80.0957 72.1893 79.4921 72.1938 78.7445C72.1985 77.9713 72.8292 77.3483 73.6023 77.353C73.3755 77.3577 73.9985 77.9884 73.9938 78.7616C73.9798 81.0489 73.1216 82.8957 70.8343 82.8957C68.6434 82.8957 66.8101 81.1932 66.6986 78.9809C66.5506 76.0438 66.414 72.3151 66.401 68.925C66.3883 65.5948 66.4916 61.4178 66.8751 59.692C67.3755 57.4401 68.8279 55.8781 70.3157 54.8639C71.7931 53.8568 73.4067 53.3155 74.4913 53.1183L75.1416 53.0001Z" fill="#FBA04D"/>
<path d="M105.1 113.55C105.1 114.406 104.406 115.1 103.55 115.1C102.694 115.1 102 114.406 102 113.55C102 112.694 102.694 112 103.55 112C104.406 112 105.1 112.694 105.1 113.55Z" fill="#FBA04D"/>
</svg>
