<svg width="100" height="25" viewBox="0 0 100 25" fill="none" xmlns="http://www.w3.org/2000/svg">
<path fill-rule="evenodd" clip-rule="evenodd" d="M25 24.5614H100V0H25V24.5614ZM53.125 17.5614V6.14035H50V17.5614H53.125ZM49 8.9606V6.26316L43.5938 6.27131C37.8047 6.28043 37.6623 6.29338 36.6556 6.91893C35.5696 7.59389 35.0468 8.72218 35.1521 10.1637C35.2406 11.3745 35.775 12.2596 36.8262 12.9355C37.0415 13.0742 37.3198 13.2147 37.5133 13.2867C37.5602 13.3039 37.6022 13.3174 37.6371 13.3255C37.9544 13.4013 37.9702 13.3745 38.3341 12.1545L38.7064 10.9058L38.3532 10.559C37.5575 9.77707 38.0868 8.96491 39.3919 8.96491H40.125V17.6842H43.125V13.8772H47.625V11.1812L43.1875 11.114V9.02632L49 8.9606ZM71.1656 9.88932C71.0104 9.66482 70.6919 9.365 70.4578 9.223C69.892 8.87952 68.7412 8.78838 67.9839 9.0268C67.6147 9.14337 67.2414 9.38754 66.9526 9.70127L66.5 10.1939V9.08772H63.625V17.5614H66.625L66.6255 14.9518C66.6259 12.5743 66.6478 12.3071 66.8716 11.9463C67.2786 11.2906 68.221 11.2292 68.6751 11.8288C68.9194 12.1517 68.9405 12.3618 68.981 14.8683L69.0245 17.5614H71.875V15.04C71.875 12.3599 71.9683 11.8235 72.4813 11.5535C72.9026 11.3323 73.561 11.3937 73.8244 11.6791C74.0414 11.9147 74.0659 12.1867 74.1003 14.7493L74.1381 17.5614H77.1468L77.0959 14.3991C77.042 11.0546 76.9939 10.7451 76.4058 9.96752C75.3269 8.54084 72.6529 8.53605 71.6794 9.95936L71.448 10.2976L71.1656 9.88932ZM87.0185 11.2805C86.6226 10.2884 86.1359 9.68976 85.41 9.30215C84.6422 8.892 83.5675 8.77351 82.7276 9.00617C82.137 9.16975 81.25 9.73869 81.25 9.95361C81.25 10.0179 81.1895 10.0702 81.1156 10.0702C81.0416 10.0702 80.9914 9.91811 81.0039 9.73246C81.0209 9.47869 81.0368 9.3247 80.9678 9.23115C80.8568 9.081 80.5257 9.08772 79.625 9.08772H78.25V20.8772H81.119L81.1875 16.7881L81.5625 17.0913C82.1585 17.572 82.7385 17.7456 83.75 17.7456C84.5576 17.7456 84.7814 17.6948 85.3654 17.3772C86.1354 16.9589 86.618 16.3722 87.0185 15.3686C87.2445 14.8026 87.2951 14.4279 87.2951 13.3246C87.2951 12.2212 87.2445 11.8466 87.0185 11.2805ZM61.5367 10.0078C61.2909 9.75884 60.8304 9.44319 60.5135 9.30599C59.7275 8.96539 57.6957 8.88576 56.819 9.16064C55.8368 9.46909 55.1428 10.0083 54.8012 10.7293C54.6369 11.0761 54.5019 11.4287 54.5013 11.5132C54.5004 11.6269 54.8576 11.6667 55.875 11.6667C56.9335 11.6667 57.25 11.6292 57.25 11.504C57.25 11.2685 57.7563 10.8521 58.1552 10.7595C58.677 10.6386 59.3494 10.9629 59.4446 11.3822C59.4761 11.5208 59.5163 11.6883 59.5475 11.8115L59.5778 11.9281C59.6254 12.1027 59.4385 12.1349 58.0974 12.1824C56.8474 12.227 56.4398 12.2898 55.9008 12.522C54.1852 13.2603 53.6374 15.2132 54.7164 16.7425C55.5869 17.9768 58.1106 18.2133 59.3159 17.1738L59.75 16.7991V17.5614H62.375V14.5747C62.375 11.1994 62.2975 10.7773 61.5367 10.0078ZM81.2329 12.2193C81.4945 11.6542 81.716 11.446 82.2108 11.3002C82.7213 11.1495 82.8186 11.1553 83.3526 11.3654C84.0482 11.6388 84.375 12.2644 84.375 13.3226C84.375 14.7958 83.7502 15.5351 82.5879 15.4367C82.1529 15.3998 81.892 15.2952 81.6371 15.0554C80.9965 14.4524 80.8089 13.1356 81.2329 12.2193ZM57 14.851C57 14.4341 57.0581 14.33 57.4062 14.1214C57.7135 13.9372 58.036 13.8782 58.7297 13.8777L59.647 13.8772L59.559 14.3991C59.395 15.3715 59.0172 15.7193 58.125 15.7193C57.3316 15.7193 57 15.4631 57 14.851Z" fill="#2E6AE4"/>
<path fill-rule="evenodd" clip-rule="evenodd" d="M0 24.5614V0H25V24.5614H0ZM20.1819 10.3724C19.4699 7.674 17.1626 5.40543 14.4425 4.72903C13.506 4.49637 11.4204 4.50021 10.5 4.73671C7.82587 5.42366 5.49289 7.73588 4.81363 10.3724C4.56888 11.3222 4.57126 13.2536 4.81812 14.189C5.53012 16.8874 7.83737 19.156 10.5575 19.8324C11.514 20.0703 13.486 20.0703 14.4425 19.8324C17.1545 19.1579 19.4999 16.8533 20.1864 14.189C20.4311 13.2392 20.4287 11.3078 20.1819 10.3724ZM7.50101 9.88597C8.19724 8.45402 9.85312 7.19764 11.4388 6.89734C11.7819 6.83258 13.4125 6.78797 15.0625 6.79756L18.0625 6.81579L18.0986 9.57895C18.1201 11.2177 18.0784 12.6669 17.996 13.1404C17.5941 15.4526 15.7286 17.2856 13.375 17.6804C12.8932 17.7614 11.4178 17.8022 9.75 17.7811L6.9375 17.7456L6.90137 14.9825C6.86087 11.8845 6.96661 10.9845 7.50101 9.88597ZM14.5234 14.9441C16.4525 13.4987 16.2941 10.6737 14.213 9.40961C13.7345 9.1189 13.4501 9.04215 12.7174 9.00569C11.6829 8.95436 11.0815 9.12706 10.3909 9.67393C9.66214 10.2505 9.23212 11.0411 9.15976 11.9363C9.08124 12.9067 9.26736 13.5966 9.789 14.2686C10.9239 15.7303 13.0661 16.0359 14.5234 14.9441Z" fill="#2F3640"/>
</svg>
