<svg width="200" height="52" viewBox="0 0 200 52" fill="none" xmlns="http://www.w3.org/2000/svg">
<path d="M43.0823 0H0V4.64161H43.0823V0Z" fill="white"/>
<path d="M13.002 8.09664C13.3534 8.48054 13.8102 9.07383 14.1968 9.87651C14.5833 10.6443 14.7942 11.3772 14.8996 11.9007C14.9347 12.1799 14.9699 12.3893 14.9699 12.5289H27.761C27.761 12.3893 27.7962 12.1799 27.8313 11.9007C27.9367 11.3772 28.1124 10.6443 28.5341 9.87651C28.9207 9.07383 29.3775 8.51544 29.7289 8.09664C29.7992 8.02685 29.8695 7.95705 29.9046 7.88725H12.7912C12.8614 7.95705 12.9317 8.02685 13.002 8.09664Z" fill="white"/>
<path d="M33.9106 9.59732C31.9428 9.59732 30.2912 11.098 30.2912 12.9477V23.557C30.2912 24.1154 30.5723 24.6389 31.0642 24.953L31.4859 25.2322L30.748 26C30.4669 26.3141 30.2912 26.7329 30.2912 27.1517V41.5302C30.2912 42.8913 31.9076 43.694 33.1375 42.9611L36.0893 40.553V37.4121L33.9809 39.3315V26.5933L36.0893 25.3718V21.498L33.9809 22.7195V13.0524H37.495V39.6107L41.1847 36.8188V9.59732H33.9106Z" fill="white"/>
<path d="M8.89056 9.59732H1.58132V36.8188L5.27108 39.6107V13.0524H8.78514V22.7195L6.6767 21.498V25.3718L8.78514 26.5933V39.3664L6.6767 37.447V40.5879L9.62851 42.996C10.8584 43.7289 12.4749 42.9262 12.4749 41.5651V27.1517C12.4749 26.7329 12.2992 26.3141 12.0181 26L11.2801 25.2322L11.7018 24.953C12.1938 24.6389 12.4749 24.1154 12.4749 23.557V12.9826C12.51 11.098 10.8584 9.59732 8.89056 9.59732Z" fill="white"/>
<path d="M15.251 48.0564L19.8544 52V20.4161H22.8414V52L27.4799 48.0564V15.7745H15.251V48.0564Z" fill="white"/>
<path d="M62.4905 20.0334H65.7862V10.8723H69.4326V8.23505H58.8441V10.8723H62.4905V20.0334Z" fill="white"/>
<path d="M82.1948 17.4655H75.989V15.3141H81.2832V12.8156H75.989V10.8029H81.9844V8.23505H72.6582V20.0334H82.1948V17.4655Z" fill="white"/>
<path d="M88.4006 20.0334L90.7848 16.5633L93.1689 20.0334H97.1308L92.8884 13.8566L96.7802 8.23505H92.8884L90.7848 11.4275L88.646 8.23505H84.8244L88.7512 14.0301L84.5439 20.0334H88.4006Z" fill="white"/>
<path d="M103.196 15.4529H107.789V20.0334H111.155V8.23505H107.789V12.6768H103.196V8.23505H99.8305V20.0334H103.196V15.4529Z" fill="white"/>
<path d="M127.318 11.7052C127.003 10.9764 126.547 10.3171 125.951 9.7619C125.355 9.20668 124.654 8.75557 123.847 8.47796C123.041 8.16565 122.164 8.02685 121.218 8.02685C120.271 8.02685 119.395 8.16565 118.588 8.47796C117.782 8.79027 117.081 9.20668 116.485 9.7619C115.889 10.3171 115.433 10.9417 115.117 11.7052C114.802 12.4339 114.626 13.2667 114.626 14.1342C114.626 15.0018 114.802 15.8346 115.117 16.5633C115.433 17.292 115.889 17.9513 116.485 18.5066C117.081 19.0618 117.782 19.4782 118.588 19.7905C119.395 20.1028 120.271 20.2416 121.218 20.2416C122.164 20.2416 123.041 20.1028 123.847 19.7905C124.654 19.4782 125.355 19.0618 125.951 18.5066C126.547 17.9513 127.003 17.3267 127.318 16.5633C127.669 15.7999 127.844 15.0018 127.844 14.0995C127.844 13.1973 127.669 12.4339 127.318 11.7052ZM124.163 15.5223C123.988 15.9387 123.777 16.2857 123.497 16.598C123.216 16.8756 122.866 17.1185 122.48 17.2573C122.094 17.4308 121.674 17.5002 121.218 17.5002C120.762 17.5002 120.341 17.4308 119.956 17.2573C119.57 17.0838 119.219 16.8756 118.939 16.598C118.658 16.2857 118.413 15.9387 118.273 15.5223C118.097 15.1059 118.027 14.6547 118.027 14.1342C118.027 13.6137 118.097 13.1626 118.273 12.7462C118.448 12.3298 118.658 11.9828 118.939 11.6705C119.219 11.3581 119.57 11.1499 119.956 10.9764C120.341 10.8029 120.762 10.7335 121.218 10.7335C121.674 10.7335 122.094 10.8029 122.48 10.9764C122.866 11.1499 123.216 11.3581 123.497 11.6705C123.777 11.9481 124.023 12.3298 124.163 12.7462C124.338 13.1626 124.408 13.6137 124.408 14.1342C124.443 14.6547 124.338 15.1059 124.163 15.5223Z" fill="white"/>
<path d="M132.401 12.8003C132.366 13.713 132.33 14.4853 132.223 15.1522C132.117 15.8191 131.974 16.3457 131.725 16.7318C131.476 17.0828 131.121 17.2934 130.658 17.2934C130.516 17.2934 130.338 17.2934 130.196 17.2583L130.018 20.0314C130.303 20.1016 130.587 20.1367 130.836 20.1718C131.085 20.2069 131.334 20.2069 131.583 20.2069C132.33 20.2069 132.97 20.0314 133.433 19.6804C133.931 19.3294 134.322 18.8379 134.571 18.171C134.856 17.504 135.033 16.7318 135.176 15.784C135.318 14.8363 135.389 13.8183 135.425 12.6599L135.496 10.7293H138.946V19.9963H142.29V8.06155H132.579L132.401 12.8003Z" fill="white"/>
<path d="M156.84 18.5413C157.436 17.986 157.892 17.3614 158.207 16.598C158.558 15.8346 158.733 15.0365 158.733 14.1342C158.733 13.232 158.558 12.4339 158.207 11.7052C157.892 10.9764 157.436 10.3171 156.84 9.7619C156.244 9.20668 155.543 8.75557 154.736 8.47796C153.93 8.16565 153.053 8.02685 152.107 8.02685C151.16 8.02685 150.283 8.16565 149.477 8.47796C148.671 8.79027 147.969 9.20668 147.373 9.7619C146.777 10.3171 146.322 10.9417 146.006 11.7052C145.69 12.4686 145.515 13.2667 145.515 14.1342C145.515 15.0018 145.69 15.8346 146.006 16.5633C146.322 17.292 146.777 17.9513 147.373 18.5066C147.969 19.0618 148.671 19.4782 149.477 19.7905C150.283 20.1028 151.16 20.2416 152.107 20.2416C153.053 20.2416 153.93 20.1028 154.736 19.7905C155.578 19.5129 156.244 19.0965 156.84 18.5413ZM153.404 17.2573C153.018 17.4308 152.597 17.5002 152.142 17.5002C151.686 17.5002 151.265 17.4308 150.879 17.2573C150.494 17.0838 150.143 16.8756 149.863 16.598C149.582 16.2857 149.337 15.9387 149.197 15.5223C149.021 15.1059 148.951 14.6547 148.951 14.1342C148.951 13.6137 149.021 13.1626 149.197 12.7462C149.372 12.3298 149.582 11.9828 149.863 11.6705C150.143 11.3581 150.494 11.1499 150.879 10.9764C151.265 10.8029 151.686 10.7335 152.142 10.7335C152.597 10.7335 153.018 10.8029 153.404 10.9764C153.79 11.1499 154.14 11.3581 154.421 11.6705C154.701 11.9481 154.947 12.3298 155.087 12.7462C155.262 13.1626 155.332 13.6137 155.332 14.1342C155.332 14.6547 155.262 15.1059 155.087 15.5223C154.911 15.9387 154.701 16.2857 154.421 16.598C154.14 16.8756 153.79 17.1185 153.404 17.2573Z" fill="white"/>
<path d="M170.934 8.23505H162.239V20.0334H165.535V10.8723H170.899L170.934 8.23505Z" fill="white"/>
<path d="M182.189 20.0334H185.485V8.23505H182.329L177.421 15.1753V8.23505H174.125V20.0334H177.28L182.189 13.1279V20.0334Z" fill="white"/>
<path d="M192.216 16.4939L189.727 20.0681H192.637L194.741 16.9103H197.265V20.0681H200V8.20036H194.846C193.794 8.20036 192.883 8.37387 192.111 8.75558C191.34 9.10259 190.744 9.6231 190.323 10.2824C189.902 10.9417 189.692 11.7052 189.692 12.6421C189.692 13.579 189.902 14.3771 190.323 15.0365C190.779 15.6611 191.41 16.1469 192.216 16.4939ZM193.128 10.9764C193.549 10.6294 194.145 10.4212 194.951 10.4212H197.3V14.7242H194.881C194.11 14.7242 193.514 14.5506 193.128 14.1689C192.742 13.7872 192.532 13.2667 192.532 12.5727C192.497 11.8787 192.707 11.3582 193.128 10.9764Z" fill="white"/>
<path d="M67.6302 37.551C66.9491 37.0112 65.9275 36.7413 64.6334 36.7413H61.8409V35.0206H67.8345V32.6926H58.8441V43.388H64.2247C65.621 43.388 66.7107 43.0843 67.494 42.477C68.2772 41.8697 68.6518 41.0262 68.6518 39.9466C68.6859 38.9006 68.3453 38.0909 67.6302 37.551ZM65.2123 40.8913C64.9399 41.0937 64.5653 41.1949 64.0545 41.1949H61.875V38.9006H64.0545C65.1102 38.9006 65.621 39.2718 65.621 40.0478C65.621 40.3852 65.4848 40.6888 65.2123 40.8913Z" fill="white"/>
<path d="M75.3606 32.6588L70.5929 43.3542H73.6919L74.5433 41.2624H79.1066L79.9579 43.3542H83.125L78.3574 32.6588H75.3606ZM75.4627 39.0693L76.859 35.6279L78.2552 39.0693H75.4627Z" fill="white"/>
<path d="M93.103 36.6738H88.9483V32.6588H85.9175V43.3542H88.9483V39.2043H93.103V43.3542H96.1338V32.6588H93.103V36.6738Z" fill="white"/>
<path d="M110.198 32.6588H106.997L104.443 36.8088H102.945V32.6588H99.9479V43.3542H102.945V39.2718H104.341L106.793 43.3542H110.232L106.827 37.821L110.198 32.6588Z" fill="white"/>
<path d="M120.176 33.1312C119.461 32.8275 118.61 32.6588 117.622 32.6588H112.718V43.3542H115.749V40.5539H117.622C118.61 40.5539 119.461 40.3852 120.176 40.0815C120.891 39.7441 121.436 39.3055 121.845 38.6982C122.22 38.0909 122.424 37.4161 122.424 36.6063C122.424 35.7966 122.22 35.0881 121.845 34.4808C121.47 33.9072 120.925 33.4348 120.176 33.1312ZM118.882 37.7535C118.576 38.0234 118.099 38.1584 117.452 38.1584H115.749V35.0206H117.452C118.099 35.0206 118.576 35.1555 118.882 35.4255C119.189 35.6954 119.359 36.1002 119.359 36.5726C119.359 37.1124 119.189 37.4836 118.882 37.7535Z" fill="white"/>
<path d="M135.058 34.0421C134.513 33.536 133.9 33.1312 133.151 32.8613C132.436 32.5913 131.653 32.4564 130.767 32.4564C129.916 32.4564 129.099 32.5913 128.383 32.8613C127.668 33.1312 127.021 33.536 126.476 34.0421C125.931 34.5482 125.523 35.1218 125.216 35.7966C124.91 36.4714 124.774 37.2136 124.774 38.0234C124.774 38.8331 124.91 39.5754 125.216 40.2502C125.523 40.925 125.931 41.4986 126.476 42.0384C127.021 42.5445 127.668 42.9156 128.383 43.1855C129.099 43.4555 129.916 43.5904 130.767 43.5904C131.653 43.5904 132.436 43.4555 133.151 43.1855C133.866 42.9156 134.513 42.5108 135.058 42.0384C135.603 41.5323 136.012 40.9587 136.318 40.2839C136.625 39.6092 136.795 38.8669 136.795 38.0571C136.795 37.2474 136.625 36.5051 136.318 35.8303C136.012 35.1218 135.603 34.5482 135.058 34.0421ZM133.458 39.2718C133.321 39.6429 133.117 39.9803 132.845 40.2502C132.572 40.5201 132.266 40.7226 131.925 40.8575C131.585 40.9925 131.21 41.06 130.801 41.06C130.393 41.06 130.018 40.9925 129.643 40.8575C129.303 40.7226 128.996 40.5201 128.724 40.2502C128.452 39.9803 128.247 39.6429 128.111 39.2718C127.975 38.9006 127.907 38.462 127.907 38.0234C127.907 37.551 127.975 37.1462 128.111 36.775C128.281 36.4039 128.486 36.0665 128.724 35.7966C128.996 35.5267 129.303 35.3242 129.643 35.1555C130.018 35.0206 130.393 34.9531 130.801 34.9531C131.21 34.9531 131.585 35.0206 131.925 35.1555C132.3 35.2905 132.606 35.4929 132.845 35.7966C133.117 36.0665 133.321 36.3702 133.458 36.775C133.628 37.1462 133.696 37.551 133.696 38.0234C133.696 38.462 133.628 38.9006 133.458 39.2718Z" fill="white"/>
<path d="M138.872 35.0543H142.175V43.3542H145.172V35.0543H148.476V32.6588H138.872V35.0543Z" fill="white"/>
<path d="M154.469 35.7966C154.742 35.5267 155.048 35.3242 155.423 35.1555C155.797 35.0206 156.206 34.9531 156.649 34.9531C157.159 34.9531 157.636 35.0543 158.045 35.2905C158.454 35.4929 158.862 35.8303 159.203 36.2352L161.144 34.4808C160.633 33.8397 159.952 33.3336 159.169 32.9962C158.385 32.6588 157.5 32.4901 156.512 32.4901C155.661 32.4901 154.878 32.6251 154.129 32.895C153.413 33.1649 152.8 33.536 152.256 34.0421C151.745 34.5482 151.336 35.1218 151.03 35.8303C150.723 36.5051 150.587 37.2474 150.587 38.0571C150.587 38.8669 150.723 39.6092 151.03 40.3177C151.336 40.9925 151.745 41.566 152.256 42.0721C152.8 42.5782 153.413 42.9494 154.129 43.2193C154.844 43.4892 155.661 43.6242 156.512 43.6242C157.5 43.6242 158.385 43.4555 159.169 43.1181C159.952 42.7469 160.599 42.2746 161.144 41.6335L159.203 39.8791C158.862 40.2839 158.454 40.5876 158.045 40.8238C157.636 41.0262 157.159 41.1612 156.649 41.1612C156.206 41.1612 155.797 41.0937 155.423 40.9587C155.048 40.8238 154.742 40.6213 154.469 40.3514C154.197 40.0815 153.992 39.7441 153.856 39.373C153.72 39.0018 153.652 38.5632 153.652 38.1246C153.652 37.6523 153.72 37.2474 153.856 36.8763C154.026 36.3702 154.231 36.0665 154.469 35.7966Z" fill="white"/>
<path d="M163.017 35.0543H166.32V43.3542H169.317V35.0543H172.62V32.6588H163.017V35.0543Z" fill="white"/>
<path d="M184.335 38.2258C184.062 38.0234 183.756 37.8884 183.415 37.7872C183.586 37.7197 183.722 37.6185 183.892 37.5173C184.573 37.0112 184.88 36.3364 184.88 35.4592C184.88 34.582 184.505 33.8734 183.79 33.4011C183.075 32.895 182.087 32.6588 180.793 32.6588H175.549V43.3542H181.066C182.462 43.3542 183.518 43.0843 184.233 42.5445C184.982 42.0047 185.357 41.2624 185.357 40.3177C185.357 39.373 185.016 38.6982 184.335 38.2258ZM178.546 34.8181H180.487C180.93 34.8181 181.236 34.9194 181.44 35.0881C181.645 35.2568 181.747 35.5267 181.747 35.8641C181.747 36.2015 181.645 36.4714 181.44 36.6738C181.236 36.8425 180.895 36.9437 180.487 36.9437H178.546V34.8181ZM181.951 40.925C181.747 41.0937 181.406 41.1949 180.964 41.1949H178.58V39.0018H180.964C181.406 39.0018 181.747 39.1031 181.951 39.2718C182.19 39.4405 182.292 39.7104 182.292 40.0815C182.292 40.4526 182.155 40.7226 181.951 40.925Z" fill="white"/>
<path d="M195.232 32.6588H192.236L187.468 43.3542H190.567L191.418 41.2624H195.982L196.833 43.3542H200L195.232 32.6588ZM192.304 39.0693L193.7 35.6616L195.096 39.0693H192.304Z" fill="white"/>
</svg>
