<svg width="183" height="48" viewBox="0 0 183 48" fill="none" xmlns="http://www.w3.org/2000/svg">
<path d="M39.3833 0H0.178406V4.23923H39.3833V0Z" fill="white"/>
<path d="M12.0102 7.39475C12.33 7.74536 12.7457 8.28722 13.0975 9.02032C13.4492 9.72154 13.6411 10.3909 13.737 10.869C13.769 11.124 13.801 11.3152 13.801 11.4427H25.4409C25.4409 11.3152 25.4729 11.124 25.5049 10.869C25.6008 10.3909 25.7607 9.72154 26.1445 9.02032C26.4962 8.28722 26.9119 7.77723 27.2317 7.39475C27.2957 7.331 27.3596 7.26725 27.3916 7.2035H11.8184C11.8823 7.26725 11.9463 7.331 12.0102 7.39475Z" fill="white"/>
<path d="M31.0371 8.76532C29.2463 8.76532 27.7434 10.1359 27.7434 11.8252V21.5149C27.7434 22.0249 27.9992 22.503 28.4469 22.7898L28.8306 23.0448L28.1591 23.7461C27.9032 24.0329 27.7434 24.4154 27.7434 24.7979V37.9299C27.7434 39.173 29.2143 39.9061 30.3336 39.2368L33.0197 37.0375V34.1688L31.101 35.9219V24.2879L33.0197 23.1723V19.6343L31.101 20.7499V11.9208H34.2988V36.1769L37.6565 33.627V8.76532H31.0371Z" fill="white"/>
<path d="M8.26881 8.76532H1.61741V33.627L4.97509 36.1769V11.9208H8.17288V20.7499L6.25421 19.6343V23.1723L8.17288 24.2879V35.9538L6.25421 34.2007V37.0694L8.94035 39.2687C10.0596 39.938 11.5306 39.2049 11.5306 37.9618V24.7979C11.5306 24.4154 11.3707 24.0329 11.1148 23.7461L10.4433 23.0448L10.827 22.7898C11.2747 22.503 11.5306 22.0249 11.5306 21.5149V11.8571C11.5625 10.1359 10.0596 8.76532 8.26881 8.76532Z" fill="white"/>
<path d="M14.0568 43.8904L18.2459 47.4921V18.6462H20.964V47.4921L25.1851 43.8904V14.407H14.0568V43.8904Z" fill="white"/>
<path d="M57.0448 18.2967H60.0439V9.92981H63.3621V7.52116H53.7266V9.92981H57.0448V18.2967Z" fill="white"/>
<path d="M74.9757 15.9514H69.3284V13.9865H74.1461V11.7046H69.3284V9.86642H74.7842V7.52116H66.2974V18.2967H74.9757V15.9514Z" fill="white"/>
<path d="M80.623 18.2967L82.7925 15.1274L84.9621 18.2967H88.5675L84.7069 12.6554L88.2484 7.52116H84.7069L82.7925 10.4369L80.8463 7.52116H77.3686L80.942 12.8139L77.1134 18.2967H80.623Z" fill="white"/>
<path d="M94.0871 14.1133H98.2668V18.2967H101.33V7.52116H98.2668V11.5778H94.0871V7.52116H91.0242V18.2967H94.0871V14.1133Z" fill="white"/>
<path d="M116.038 10.6904C115.751 10.0249 115.336 9.42272 114.794 8.91564C114.251 8.40855 113.613 7.99655 112.88 7.743C112.146 7.45777 111.348 7.331 110.487 7.331C109.625 7.331 108.828 7.45777 108.094 7.743C107.36 8.02824 106.722 8.40855 106.179 8.91564C105.637 9.42272 105.222 9.99319 104.935 10.6904C104.648 11.356 104.488 12.1166 104.488 12.9089C104.488 13.7013 104.648 14.4619 104.935 15.1274C105.222 15.793 105.637 16.3951 106.179 16.9022C106.722 17.4093 107.36 17.7896 108.094 18.0749C108.828 18.3601 109.625 18.4869 110.487 18.4869C111.348 18.4869 112.146 18.3601 112.88 18.0749C113.613 17.7896 114.251 17.4093 114.794 16.9022C115.336 16.3951 115.751 15.8247 116.038 15.1274C116.357 14.4302 116.517 13.7013 116.517 12.8772C116.517 12.0532 116.357 11.356 116.038 10.6904ZM113.167 14.1766C113.007 14.557 112.816 14.8739 112.56 15.1591C112.305 15.4127 111.986 15.6345 111.635 15.7613C111.284 15.9197 110.901 15.9831 110.487 15.9831C110.072 15.9831 109.689 15.9197 109.338 15.7613C108.987 15.6028 108.668 15.4127 108.413 15.1591C108.157 14.8739 107.934 14.557 107.807 14.1766C107.647 13.7963 107.583 13.3843 107.583 12.9089C107.583 12.4335 107.647 12.0215 107.807 11.6412C107.966 11.2609 108.157 10.944 108.413 10.6587C108.668 10.3735 108.987 10.1834 109.338 10.0249C109.689 9.86642 110.072 9.80304 110.487 9.80304C110.901 9.80304 111.284 9.86642 111.635 10.0249C111.986 10.1834 112.305 10.3735 112.56 10.6587C112.816 10.9123 113.039 11.2609 113.167 11.6412C113.326 12.0215 113.39 12.4335 113.39 12.9089C113.422 13.3843 113.326 13.7963 113.167 14.1766Z" fill="white"/>
<path d="M120.664 11.6907C120.631 12.5242 120.599 13.2295 120.502 13.8386C120.405 14.4478 120.275 14.9287 120.049 15.2813C119.822 15.6019 119.498 15.7943 119.078 15.7943C118.948 15.7943 118.786 15.7943 118.657 15.7622L118.495 18.2949C118.754 18.359 119.013 18.3911 119.239 18.4231C119.466 18.4552 119.693 18.4552 119.919 18.4552C120.599 18.4552 121.181 18.2949 121.602 17.9743C122.055 17.6537 122.411 17.2049 122.638 16.5957C122.897 15.9866 123.059 15.2813 123.188 14.4157C123.318 13.5501 123.382 12.6204 123.415 11.5624L123.48 9.79919H126.619V18.2628H129.662V7.36269H120.825L120.664 11.6907Z" fill="white"/>
<path d="M142.903 16.9339C143.445 16.4268 143.86 15.8564 144.147 15.1591C144.466 14.4619 144.626 13.7329 144.626 12.9089C144.626 12.0849 144.466 11.356 144.147 10.6904C143.86 10.0249 143.445 9.42272 142.903 8.91564C142.36 8.40855 141.722 7.99655 140.988 7.743C140.255 7.45777 139.457 7.331 138.595 7.331C137.734 7.331 136.936 7.45777 136.202 7.743C135.469 8.02824 134.831 8.40855 134.288 8.91564C133.746 9.42272 133.331 9.99319 133.044 10.6904C132.757 11.3877 132.597 12.1166 132.597 12.9089C132.597 13.7013 132.757 14.4619 133.044 15.1274C133.331 15.793 133.746 16.3951 134.288 16.9022C134.831 17.4093 135.469 17.7896 136.202 18.0749C136.936 18.3601 137.734 18.4869 138.595 18.4869C139.457 18.4869 140.255 18.3601 140.988 18.0749C141.754 17.8213 142.36 17.441 142.903 16.9339ZM139.776 15.7613C139.425 15.9197 139.042 15.9831 138.627 15.9831C138.213 15.9831 137.83 15.9197 137.479 15.7613C137.128 15.6028 136.809 15.4127 136.553 15.1591C136.298 14.8739 136.075 14.557 135.947 14.1766C135.788 13.7963 135.724 13.3843 135.724 12.9089C135.724 12.4335 135.788 12.0215 135.947 11.6412C136.107 11.2609 136.298 10.944 136.553 10.6587C136.809 10.3735 137.128 10.1834 137.479 10.0249C137.83 9.86642 138.213 9.80304 138.627 9.80304C139.042 9.80304 139.425 9.86642 139.776 10.0249C140.127 10.1834 140.446 10.3735 140.701 10.6587C140.956 10.9123 141.18 11.2609 141.307 11.6412C141.467 12.0215 141.531 12.4335 141.531 12.9089C141.531 13.3843 141.467 13.7963 141.307 14.1766C141.148 14.557 140.956 14.8739 140.701 15.1591C140.446 15.4127 140.127 15.6345 139.776 15.7613Z" fill="white"/>
<path d="M155.729 7.52116H147.816V18.2967H150.815V9.92981H155.697L155.729 7.52116Z" fill="white"/>
<path d="M165.97 18.2967H168.97V7.52116H166.098L161.631 13.8597V7.52116H158.632V18.2967H161.504L165.97 11.9898V18.2967Z" fill="white"/>
<path d="M175.095 15.0641L172.83 18.3284H175.478L177.393 15.4444H179.69V18.3284H182.178V7.48947H177.488C176.531 7.48947 175.702 7.64793 175 7.99655C174.298 8.31348 173.755 8.78888 173.372 9.39104C172.99 9.9932 172.798 10.6904 172.798 11.5461C172.798 12.4019 172.99 13.1308 173.372 13.733C173.787 14.3034 174.362 14.7471 175.095 15.0641ZM175.925 10.0249C176.308 9.70797 176.85 9.51781 177.584 9.51781H179.722V13.4477H177.52C176.818 13.4477 176.276 13.2893 175.925 12.9406C175.574 12.592 175.383 12.1166 175.383 11.4828C175.351 10.8489 175.542 10.3735 175.925 10.0249Z" fill="white"/>
<path d="M61.7219 34.2957C61.1021 33.8027 60.1724 33.5562 58.9948 33.5562H56.4537V31.9846H61.9078V29.8584H53.7266V39.6267H58.6229C59.8935 39.6267 60.8852 39.3493 61.5979 38.7947C62.3107 38.24 62.6516 37.4697 62.6516 36.4836C62.6826 35.5283 62.3727 34.7888 61.7219 34.2957ZM59.5216 37.3464C59.2737 37.5313 58.9328 37.6237 58.468 37.6237H56.4846V35.5283H58.468C59.4287 35.5283 59.8935 35.8673 59.8935 36.576C59.8935 36.8842 59.7695 37.1615 59.5216 37.3464Z" fill="white"/>
<path d="M68.7565 29.8276L64.418 39.5959H67.238L68.0128 37.6854H72.1654L72.9401 39.5959H75.8221L71.4836 29.8276H68.7565ZM68.8495 35.6824L70.1201 32.5393L71.3906 35.6824H68.8495Z" fill="white"/>
<path d="M84.9021 33.4946H81.1214V29.8276H78.3633V39.5959H81.1214V35.8057H84.9021V39.5959H87.6602V29.8276H84.9021V33.4946Z" fill="white"/>
<path d="M100.459 29.8276H97.5459L95.2216 33.6178H93.8581V29.8276H91.131V39.5959H93.8581V35.8673H95.1287L97.3599 39.5959H100.49L97.3909 34.5423L100.459 29.8276Z" fill="white"/>
<path d="M109.539 30.259C108.888 29.9817 108.113 29.8276 107.215 29.8276H102.752V39.5959H105.51V37.0382H107.215C108.113 37.0382 108.888 36.8842 109.539 36.6068C110.19 36.2987 110.685 35.8981 111.057 35.3434C111.398 34.7888 111.584 34.1725 111.584 33.4329C111.584 32.6934 111.398 32.0463 111.057 31.4916C110.716 30.9678 110.221 30.5364 109.539 30.259ZM108.361 34.4806C108.082 34.7271 107.648 34.8504 107.06 34.8504H105.51V31.9846H107.06C107.648 31.9846 108.082 32.1079 108.361 32.3544C108.64 32.6009 108.795 32.9707 108.795 33.4021C108.795 33.8952 108.64 34.2341 108.361 34.4806Z" fill="white"/>
<path d="M123.081 31.091C122.585 30.6288 122.028 30.259 121.346 30.0125C120.695 29.766 119.982 29.6427 119.177 29.6427C118.402 29.6427 117.658 29.766 117.007 30.0125C116.357 30.259 115.768 30.6288 115.272 31.091C114.776 31.5532 114.404 32.0771 114.125 32.6934C113.846 33.3097 113.722 33.9876 113.722 34.7271C113.722 35.4667 113.846 36.1446 114.125 36.7609C114.404 37.3772 114.776 37.9011 115.272 38.3941C115.768 38.8563 116.357 39.1953 117.007 39.4418C117.658 39.6883 118.402 39.8116 119.177 39.8116C119.982 39.8116 120.695 39.6883 121.346 39.4418C121.997 39.1953 122.585 38.8255 123.081 38.3941C123.577 37.9319 123.949 37.408 124.228 36.7917C124.507 36.1754 124.662 35.4975 124.662 34.758C124.662 34.0184 124.507 33.3405 124.228 32.7242C123.949 32.0771 123.577 31.5532 123.081 31.091ZM121.625 35.8673C121.501 36.2063 121.315 36.5144 121.067 36.7609C120.819 37.0074 120.54 37.1923 120.23 37.3156C119.92 37.4388 119.579 37.5005 119.208 37.5005C118.836 37.5005 118.495 37.4388 118.154 37.3156C117.844 37.1923 117.565 37.0074 117.317 36.7609C117.069 36.5144 116.883 36.2063 116.759 35.8673C116.635 35.5283 116.573 35.1277 116.573 34.7271C116.573 34.2957 116.635 33.926 116.759 33.587C116.914 33.248 117.1 32.9399 117.317 32.6934C117.565 32.4469 117.844 32.262 118.154 32.1079C118.495 31.9846 118.836 31.923 119.208 31.923C119.579 31.923 119.92 31.9846 120.23 32.1079C120.571 32.2312 120.85 32.416 121.067 32.6934C121.315 32.9399 121.501 33.2172 121.625 33.587C121.78 33.926 121.842 34.2957 121.842 34.7271C121.842 35.1277 121.78 35.5283 121.625 35.8673Z" fill="white"/>
<path d="M126.552 32.0155H129.558V39.5959H132.285V32.0155H135.291V29.8276H126.552V32.0155Z" fill="white"/>
<path d="M140.745 32.6934C140.993 32.4469 141.272 32.262 141.613 32.1079C141.954 31.9846 142.326 31.923 142.729 31.923C143.194 31.923 143.627 32.0155 143.999 32.2312C144.371 32.4161 144.743 32.7242 145.053 33.094L146.819 31.4916C146.354 30.9061 145.735 30.4439 145.022 30.1358C144.309 29.8276 143.503 29.6735 142.605 29.6735C141.83 29.6735 141.117 29.7968 140.435 30.0433C139.785 30.2898 139.227 30.6288 138.731 31.091C138.266 31.5532 137.894 32.0771 137.615 32.7242C137.336 33.3405 137.213 34.0184 137.213 34.758C137.213 35.4975 137.336 36.1754 137.615 36.8225C137.894 37.4388 138.266 37.9627 138.731 38.4249C139.227 38.8871 139.785 39.2261 140.435 39.4726C141.086 39.7191 141.83 39.8424 142.605 39.8424C143.503 39.8424 144.309 39.6883 145.022 39.3802C145.735 39.0412 146.323 38.6098 146.819 38.0243L145.053 36.422C144.743 36.7917 144.371 37.0691 143.999 37.2848C143.627 37.4697 143.194 37.5929 142.729 37.5929C142.326 37.5929 141.954 37.5313 141.613 37.408C141.272 37.2848 140.993 37.0999 140.745 36.8534C140.497 36.6068 140.311 36.2987 140.188 35.9597C140.064 35.6208 140.002 35.2202 140.002 34.8196C140.002 34.3882 140.064 34.0184 140.188 33.6795C140.342 33.2172 140.528 32.9399 140.745 32.6934Z" fill="white"/>
<path d="M148.524 32.0155H151.53V39.5959H154.257V32.0155H157.263V29.8276H148.524V32.0155Z" fill="white"/>
<path d="M167.923 34.912C167.675 34.7271 167.396 34.6039 167.086 34.5114C167.241 34.4498 167.365 34.3574 167.52 34.2649C168.14 33.8027 168.419 33.1864 168.419 32.3852C168.419 31.5841 168.078 30.9369 167.427 30.5055C166.777 30.0433 165.878 29.8276 164.7 29.8276H159.928V39.5959H164.948C166.219 39.5959 167.179 39.3493 167.83 38.8563C168.512 38.3633 168.853 37.6854 168.853 36.8225C168.853 35.9597 168.543 35.3434 167.923 34.912ZM162.655 31.7998H164.421C164.824 31.7998 165.103 31.8922 165.289 32.0463C165.475 32.2003 165.568 32.4469 165.568 32.755C165.568 33.0632 165.475 33.3097 165.289 33.4946C165.103 33.6486 164.793 33.7411 164.421 33.7411H162.655V31.7998ZM165.754 37.3772C165.568 37.5313 165.258 37.6237 164.855 37.6237H162.686V35.6208H164.855C165.258 35.6208 165.568 35.7132 165.754 35.8673C165.971 36.0214 166.064 36.2679 166.064 36.6068C166.064 36.9458 165.94 37.1923 165.754 37.3772Z" fill="white"/>
<path d="M177.84 29.8276H175.113L170.774 39.5959H173.594L174.369 37.6854H178.522L179.296 39.5959H182.178L177.84 29.8276ZM175.175 35.6824L176.445 32.5701L177.716 35.6824H175.175Z" fill="white"/>
</svg>
