<svg width="183" height="85" viewBox="0 0 183 85" fill="none" xmlns="http://www.w3.org/2000/svg">
<path d="M39.3833 0H0.178406V4.23923H39.3833V0Z" fill="white"/>
<path d="M12.0102 7.39475C12.33 7.74536 12.7457 8.28722 13.0975 9.02032C13.4492 9.72154 13.6411 10.3909 13.737 10.869C13.769 11.124 13.801 11.3152 13.801 11.4427H25.4409C25.4409 11.3152 25.4729 11.124 25.5049 10.869C25.6008 10.3909 25.7607 9.72154 26.1445 9.02032C26.4962 8.28722 26.9119 7.77723 27.2317 7.39475C27.2957 7.331 27.3596 7.26725 27.3916 7.2035H11.8184C11.8823 7.26725 11.9463 7.331 12.0102 7.39475Z" fill="white"/>
<path d="M31.0371 8.76532C29.2463 8.76532 27.7434 10.1359 27.7434 11.8252V21.5149C27.7434 22.0249 27.9992 22.503 28.4469 22.7898L28.8306 23.0448L28.1591 23.7461C27.9032 24.0329 27.7434 24.4154 27.7434 24.7979V37.9299C27.7434 39.173 29.2143 39.9061 30.3336 39.2368L33.0197 37.0375V34.1688L31.101 35.9219V24.2879L33.0197 23.1723V19.6343L31.101 20.7499V11.9208H34.2988V36.1769L37.6565 33.627V8.76532H31.0371Z" fill="white"/>
<path d="M8.26881 8.76532H1.61741V33.627L4.97509 36.1769V11.9208H8.17288V20.7499L6.25421 19.6343V23.1723L8.17288 24.2879V35.9538L6.25421 34.2007V37.0694L8.94035 39.2687C10.0596 39.938 11.5306 39.2049 11.5306 37.9618V24.7979C11.5306 24.4154 11.3707 24.0329 11.1148 23.7461L10.4433 23.0448L10.827 22.7898C11.2747 22.503 11.5306 22.0249 11.5306 21.5149V11.8571C11.5625 10.1359 10.0596 8.76532 8.26881 8.76532Z" fill="white"/>
<path d="M14.0568 43.8904L18.2459 47.4921V18.6462H20.964V47.4921L25.1851 43.8904V14.407H14.0568V43.8904Z" fill="white"/>
<path d="M57.0448 18.2967H60.0439V9.92981H63.3621V7.52116H53.7266V9.92981H57.0448V18.2967Z" fill="white"/>
<path d="M74.9757 15.9514H69.3284V13.9865H74.1461V11.7046H69.3284V9.86642H74.7842V7.52116H66.2974V18.2967H74.9757V15.9514Z" fill="white"/>
<path d="M80.623 18.2967L82.7925 15.1274L84.9621 18.2967H88.5675L84.7069 12.6554L88.2484 7.52116H84.7069L82.7925 10.4369L80.8463 7.52116H77.3686L80.942 12.8139L77.1134 18.2967H80.623Z" fill="white"/>
<path d="M94.0871 14.1133H98.2668V18.2967H101.33V7.52116H98.2668V11.5778H94.0871V7.52116H91.0242V18.2967H94.0871V14.1133Z" fill="white"/>
<path d="M116.038 10.6904C115.751 10.0249 115.336 9.42272 114.794 8.91564C114.251 8.40855 113.613 7.99655 112.88 7.743C112.146 7.45777 111.348 7.331 110.487 7.331C109.625 7.331 108.828 7.45777 108.094 7.743C107.36 8.02824 106.722 8.40855 106.179 8.91564C105.637 9.42272 105.222 9.99319 104.935 10.6904C104.648 11.356 104.488 12.1166 104.488 12.9089C104.488 13.7013 104.648 14.4619 104.935 15.1274C105.222 15.793 105.637 16.3951 106.179 16.9022C106.722 17.4093 107.36 17.7896 108.094 18.0749C108.828 18.3601 109.625 18.4869 110.487 18.4869C111.348 18.4869 112.146 18.3601 112.88 18.0749C113.613 17.7896 114.251 17.4093 114.794 16.9022C115.336 16.3951 115.751 15.8247 116.038 15.1274C116.357 14.4302 116.517 13.7013 116.517 12.8772C116.517 12.0532 116.357 11.356 116.038 10.6904ZM113.167 14.1766C113.007 14.557 112.816 14.8739 112.56 15.1591C112.305 15.4127 111.986 15.6345 111.635 15.7613C111.284 15.9197 110.901 15.9831 110.487 15.9831C110.072 15.9831 109.689 15.9197 109.338 15.7613C108.987 15.6028 108.668 15.4127 108.413 15.1591C108.157 14.8739 107.934 14.557 107.807 14.1766C107.647 13.7963 107.583 13.3843 107.583 12.9089C107.583 12.4335 107.647 12.0215 107.807 11.6412C107.966 11.2609 108.157 10.944 108.413 10.6587C108.668 10.3735 108.987 10.1834 109.338 10.0249C109.689 9.86642 110.072 9.80304 110.487 9.80304C110.901 9.80304 111.284 9.86642 111.635 10.0249C111.986 10.1834 112.305 10.3735 112.56 10.6587C112.816 10.9123 113.039 11.2609 113.167 11.6412C113.326 12.0215 113.39 12.4335 113.39 12.9089C113.422 13.3843 113.326 13.7963 113.167 14.1766Z" fill="white"/>
<path d="M120.664 11.6907C120.631 12.5242 120.599 13.2295 120.502 13.8386C120.405 14.4478 120.275 14.9287 120.049 15.2813C119.822 15.6019 119.498 15.7943 119.078 15.7943C118.948 15.7943 118.786 15.7943 118.657 15.7622L118.495 18.2949C118.754 18.359 119.013 18.3911 119.239 18.4231C119.466 18.4552 119.693 18.4552 119.919 18.4552C120.599 18.4552 121.181 18.2949 121.602 17.9743C122.055 17.6537 122.411 17.2049 122.638 16.5957C122.897 15.9866 123.059 15.2813 123.188 14.4157C123.318 13.5501 123.382 12.6204 123.415 11.5624L123.48 9.79919H126.619V18.2628H129.662V7.36269H120.825L120.664 11.6907Z" fill="white"/>
<path d="M142.903 16.9339C143.445 16.4268 143.86 15.8564 144.147 15.1591C144.466 14.4619 144.626 13.7329 144.626 12.9089C144.626 12.0849 144.466 11.356 144.147 10.6904C143.86 10.0249 143.445 9.42272 142.903 8.91564C142.36 8.40855 141.722 7.99655 140.988 7.743C140.255 7.45777 139.457 7.331 138.595 7.331C137.734 7.331 136.936 7.45777 136.202 7.743C135.469 8.02824 134.831 8.40855 134.288 8.91564C133.746 9.42272 133.331 9.99319 133.044 10.6904C132.757 11.3877 132.597 12.1166 132.597 12.9089C132.597 13.7013 132.757 14.4619 133.044 15.1274C133.331 15.793 133.746 16.3951 134.288 16.9022C134.831 17.4093 135.469 17.7896 136.202 18.0749C136.936 18.3601 137.734 18.4869 138.595 18.4869C139.457 18.4869 140.255 18.3601 140.988 18.0749C141.754 17.8213 142.36 17.441 142.903 16.9339ZM139.776 15.7613C139.425 15.9197 139.042 15.9831 138.627 15.9831C138.213 15.9831 137.83 15.9197 137.479 15.7613C137.128 15.6028 136.809 15.4127 136.553 15.1591C136.298 14.8739 136.075 14.557 135.947 14.1766C135.788 13.7963 135.724 13.3843 135.724 12.9089C135.724 12.4335 135.788 12.0215 135.947 11.6412C136.107 11.2609 136.298 10.944 136.553 10.6587C136.809 10.3735 137.128 10.1834 137.479 10.0249C137.83 9.86642 138.213 9.80304 138.627 9.80304C139.042 9.80304 139.425 9.86642 139.776 10.0249C140.127 10.1834 140.446 10.3735 140.701 10.6587C140.956 10.9123 141.18 11.2609 141.307 11.6412C141.467 12.0215 141.531 12.4335 141.531 12.9089C141.531 13.3843 141.467 13.7963 141.307 14.1766C141.148 14.557 140.956 14.8739 140.701 15.1591C140.446 15.4127 140.127 15.6345 139.776 15.7613Z" fill="white"/>
<path d="M155.729 7.52116H147.816V18.2967H150.815V9.92981H155.697L155.729 7.52116Z" fill="white"/>
<path d="M165.97 18.2967H168.97V7.52116H166.098L161.631 13.8597V7.52116H158.632V18.2967H161.504L165.97 11.9898V18.2967Z" fill="white"/>
<path d="M175.095 15.0641L172.83 18.3284H175.478L177.393 15.4444H179.69V18.3284H182.178V7.48947H177.488C176.531 7.48947 175.702 7.64793 175 7.99655C174.298 8.31348 173.755 8.78888 173.372 9.39104C172.99 9.9932 172.798 10.6904 172.798 11.5461C172.798 12.4019 172.99 13.1308 173.372 13.733C173.787 14.3034 174.362 14.7471 175.095 15.0641ZM175.925 10.0249C176.308 9.70797 176.85 9.51781 177.584 9.51781H179.722V13.4477H177.52C176.818 13.4477 176.276 13.2893 175.925 12.9406C175.574 12.592 175.383 12.1166 175.383 11.4828C175.351 10.8489 175.542 10.3735 175.925 10.0249Z" fill="white"/>
<path d="M61.7219 34.2957C61.1021 33.8027 60.1724 33.5562 58.9948 33.5562H56.4537V31.9846H61.9078V29.8584H53.7266V39.6267H58.6229C59.8935 39.6267 60.8852 39.3493 61.5979 38.7947C62.3107 38.24 62.6516 37.4697 62.6516 36.4836C62.6826 35.5283 62.3727 34.7888 61.7219 34.2957ZM59.5216 37.3464C59.2737 37.5313 58.9328 37.6237 58.468 37.6237H56.4846V35.5283H58.468C59.4287 35.5283 59.8935 35.8673 59.8935 36.576C59.8935 36.8842 59.7695 37.1615 59.5216 37.3464Z" fill="white"/>
<path d="M68.7565 29.8276L64.418 39.5959H67.238L68.0128 37.6854H72.1654L72.9401 39.5959H75.8221L71.4836 29.8276H68.7565ZM68.8495 35.6824L70.1201 32.5393L71.3906 35.6824H68.8495Z" fill="white"/>
<path d="M84.9021 33.4946H81.1214V29.8276H78.3633V39.5959H81.1214V35.8057H84.9021V39.5959H87.6602V29.8276H84.9021V33.4946Z" fill="white"/>
<path d="M100.459 29.8276H97.5459L95.2216 33.6178H93.8581V29.8276H91.131V39.5959H93.8581V35.8673H95.1287L97.3599 39.5959H100.49L97.3909 34.5423L100.459 29.8276Z" fill="white"/>
<path d="M109.539 30.259C108.888 29.9817 108.113 29.8276 107.215 29.8276H102.752V39.5959H105.51V37.0382H107.215C108.113 37.0382 108.888 36.8842 109.539 36.6068C110.19 36.2987 110.685 35.8981 111.057 35.3434C111.398 34.7888 111.584 34.1725 111.584 33.4329C111.584 32.6934 111.398 32.0463 111.057 31.4916C110.716 30.9678 110.221 30.5364 109.539 30.259ZM108.361 34.4806C108.082 34.7271 107.648 34.8504 107.06 34.8504H105.51V31.9846H107.06C107.648 31.9846 108.082 32.1079 108.361 32.3544C108.64 32.6009 108.795 32.9707 108.795 33.4021C108.795 33.8952 108.64 34.2341 108.361 34.4806Z" fill="white"/>
<path d="M123.081 31.091C122.585 30.6288 122.028 30.259 121.346 30.0125C120.695 29.766 119.982 29.6427 119.177 29.6427C118.402 29.6427 117.658 29.766 117.007 30.0125C116.357 30.259 115.768 30.6288 115.272 31.091C114.776 31.5532 114.404 32.0771 114.125 32.6934C113.846 33.3097 113.722 33.9876 113.722 34.7271C113.722 35.4667 113.846 36.1446 114.125 36.7609C114.404 37.3772 114.776 37.9011 115.272 38.3941C115.768 38.8563 116.357 39.1953 117.007 39.4418C117.658 39.6883 118.402 39.8116 119.177 39.8116C119.982 39.8116 120.695 39.6883 121.346 39.4418C121.997 39.1953 122.585 38.8255 123.081 38.3941C123.577 37.9319 123.949 37.408 124.228 36.7917C124.507 36.1754 124.662 35.4975 124.662 34.758C124.662 34.0184 124.507 33.3405 124.228 32.7242C123.949 32.0771 123.577 31.5532 123.081 31.091ZM121.625 35.8673C121.501 36.2063 121.315 36.5144 121.067 36.7609C120.819 37.0074 120.54 37.1923 120.23 37.3156C119.92 37.4388 119.579 37.5005 119.208 37.5005C118.836 37.5005 118.495 37.4388 118.154 37.3156C117.844 37.1923 117.565 37.0074 117.317 36.7609C117.069 36.5144 116.883 36.2063 116.759 35.8673C116.635 35.5283 116.573 35.1277 116.573 34.7271C116.573 34.2957 116.635 33.926 116.759 33.587C116.914 33.248 117.1 32.9399 117.317 32.6934C117.565 32.4469 117.844 32.262 118.154 32.1079C118.495 31.9846 118.836 31.923 119.208 31.923C119.579 31.923 119.92 31.9846 120.23 32.1079C120.571 32.2312 120.85 32.416 121.067 32.6934C121.315 32.9399 121.501 33.2172 121.625 33.587C121.78 33.926 121.842 34.2957 121.842 34.7271C121.842 35.1277 121.78 35.5283 121.625 35.8673Z" fill="white"/>
<path d="M126.552 32.0155H129.558V39.5959H132.285V32.0155H135.291V29.8276H126.552V32.0155Z" fill="white"/>
<path d="M140.745 32.6934C140.993 32.4469 141.272 32.262 141.613 32.1079C141.954 31.9846 142.326 31.923 142.729 31.923C143.194 31.923 143.627 32.0155 143.999 32.2312C144.371 32.4161 144.743 32.7242 145.053 33.094L146.819 31.4916C146.354 30.9061 145.735 30.4439 145.022 30.1358C144.309 29.8276 143.503 29.6735 142.605 29.6735C141.83 29.6735 141.117 29.7968 140.435 30.0433C139.785 30.2898 139.227 30.6288 138.731 31.091C138.266 31.5532 137.894 32.0771 137.615 32.7242C137.336 33.3405 137.213 34.0184 137.213 34.758C137.213 35.4975 137.336 36.1754 137.615 36.8225C137.894 37.4388 138.266 37.9627 138.731 38.4249C139.227 38.8871 139.785 39.2261 140.435 39.4726C141.086 39.7191 141.83 39.8424 142.605 39.8424C143.503 39.8424 144.309 39.6883 145.022 39.3802C145.735 39.0412 146.323 38.6098 146.819 38.0243L145.053 36.422C144.743 36.7917 144.371 37.0691 143.999 37.2848C143.627 37.4697 143.194 37.5929 142.729 37.5929C142.326 37.5929 141.954 37.5313 141.613 37.408C141.272 37.2848 140.993 37.0999 140.745 36.8534C140.497 36.6068 140.311 36.2987 140.188 35.9597C140.064 35.6208 140.002 35.2202 140.002 34.8196C140.002 34.3882 140.064 34.0184 140.188 33.6795C140.342 33.2172 140.528 32.9399 140.745 32.6934Z" fill="white"/>
<path d="M148.524 32.0155H151.53V39.5959H154.257V32.0155H157.263V29.8276H148.524V32.0155Z" fill="white"/>
<path d="M167.923 34.912C167.675 34.7271 167.396 34.6039 167.086 34.5114C167.241 34.4498 167.365 34.3574 167.52 34.2649C168.14 33.8027 168.419 33.1864 168.419 32.3852C168.419 31.5841 168.078 30.9369 167.427 30.5055C166.777 30.0433 165.878 29.8276 164.7 29.8276H159.928V39.5959H164.948C166.219 39.5959 167.179 39.3493 167.83 38.8563C168.512 38.3633 168.853 37.6854 168.853 36.8225C168.853 35.9597 168.543 35.3434 167.923 34.912ZM162.655 31.7998H164.421C164.824 31.7998 165.103 31.8922 165.289 32.0463C165.475 32.2003 165.568 32.4469 165.568 32.755C165.568 33.0632 165.475 33.3097 165.289 33.4946C165.103 33.6486 164.793 33.7411 164.421 33.7411H162.655V31.7998ZM165.754 37.3772C165.568 37.5313 165.258 37.6237 164.855 37.6237H162.686V35.6208H164.855C165.258 35.6208 165.568 35.7132 165.754 35.8673C165.971 36.0214 166.064 36.2679 166.064 36.6068C166.064 36.9458 165.94 37.1923 165.754 37.3772Z" fill="white"/>
<path d="M177.84 29.8276H175.113L170.774 39.5959H173.594L174.369 37.6854H178.522L179.296 39.5959H182.178L177.84 29.8276ZM175.175 35.6824L176.445 32.5701L177.716 35.6824H175.175Z" fill="white"/>
<path d="M0.178406 60.4922L182.178 60.4922" stroke="#727584"/>
<path d="M182.178 76.1596V82.357H181.074V79.4571H178.075V82.357H176.971V76.1596H178.075V78.6312H181.074V76.1596H182.178Z" fill="white"/>
<path d="M174.224 79.5673C173.718 79.5836 173.286 79.6244 172.928 79.6896C172.574 79.7508 172.284 79.8324 172.058 79.9343C171.836 80.0363 171.673 80.1566 171.571 80.2953C171.472 80.434 171.422 80.589 171.422 80.7603C171.422 80.9234 171.449 81.0641 171.503 81.1824C171.556 81.3007 171.628 81.3986 171.719 81.4761C171.813 81.5495 171.922 81.6045 172.046 81.6412C172.173 81.6739 172.309 81.6902 172.453 81.6902C172.646 81.6902 172.823 81.6718 172.984 81.6351C173.144 81.5943 173.294 81.5372 173.434 81.4638C173.578 81.3904 173.714 81.3027 173.841 81.2008C173.973 81.0988 174.1 80.9826 174.224 80.852V79.5673ZM170.676 77.0345C171.021 76.7041 171.394 76.4573 171.793 76.2942C172.192 76.131 172.634 76.0495 173.119 76.0495C173.469 76.0495 173.78 76.1066 174.051 76.2208C174.323 76.335 174.551 76.494 174.736 76.698C174.921 76.9019 175.061 77.1487 175.156 77.4382C175.25 77.7278 175.297 78.046 175.297 78.3926V82.357H174.81C174.703 82.357 174.621 82.3407 174.563 82.3081C174.506 82.2714 174.46 82.2021 174.427 82.1001L174.304 81.5128C174.14 81.6637 173.979 81.7983 173.823 81.9166C173.666 82.0308 173.502 82.1286 173.329 82.2102C173.156 82.2877 172.971 82.3468 172.774 82.3876C172.58 82.4325 172.364 82.4549 172.126 82.4549C171.883 82.4549 171.655 82.4223 171.441 82.357C171.227 82.2877 171.04 82.1857 170.879 82.0511C170.723 81.9166 170.598 81.7473 170.503 81.5434C170.413 81.3354 170.367 81.0906 170.367 80.8092C170.367 80.5645 170.435 80.33 170.571 80.1057C170.707 79.8772 170.927 79.6754 171.231 79.5C171.536 79.3246 171.933 79.1818 172.422 79.0717C172.912 78.9575 173.512 78.8923 174.224 78.876V78.3926C174.224 77.9114 174.119 77.5484 173.909 77.3036C173.699 77.0549 173.393 76.9305 172.99 76.9305C172.718 76.9305 172.49 76.9651 172.305 77.0345C172.124 77.0997 171.965 77.1752 171.83 77.2608C171.698 77.3424 171.583 77.4178 171.484 77.4872C171.39 77.5524 171.295 77.5851 171.2 77.5851C171.126 77.5851 171.063 77.5667 171.009 77.53C170.956 77.4892 170.91 77.4403 170.873 77.3832L170.676 77.0345Z" fill="white"/>
<path d="M167.515 81.5617V77.0161H165.534C165.493 77.6524 165.435 78.2152 165.361 78.7046C165.287 79.1941 165.201 79.6244 165.102 79.9955C165.007 80.3626 164.9 80.6746 164.781 80.9316C164.666 81.1885 164.544 81.3986 164.417 81.5617H167.515ZM169.724 81.5311V84.1557C169.724 84.2617 169.693 84.3433 169.631 84.4004C169.573 84.4616 169.497 84.4922 169.403 84.4922H168.73V82.357H163.473V84.1802C163.473 84.2577 163.448 84.329 163.399 84.3943C163.354 84.4596 163.277 84.4922 163.171 84.4922H162.479V81.5617H162.683C162.827 81.5617 162.969 81.5372 163.109 81.4883C163.253 81.4394 163.391 81.3476 163.522 81.213C163.654 81.0743 163.777 80.8806 163.892 80.6318C164.012 80.383 164.119 80.0587 164.213 79.659C164.308 79.2593 164.39 78.774 164.46 78.203C164.53 77.6279 164.586 76.9468 164.627 76.1596H168.582V81.5311H169.724Z" fill="white"/>
<path d="M162.182 82.357H161.417C161.22 82.357 161.067 82.3264 160.96 82.2653C160.858 82.2041 160.777 82.1082 160.72 81.9777L159.504 80.0506C159.303 79.7325 159.013 79.5734 158.634 79.5734H158.005V82.3632H156.937V79.5734H156.314C156.129 79.5734 155.96 79.6142 155.808 79.6957C155.66 79.7773 155.539 79.8956 155.444 80.0506L154.229 81.9777C154.167 82.1082 154.083 82.2041 153.976 82.2653C153.873 82.3264 153.723 82.357 153.525 82.357H152.766L154.407 79.7936C154.514 79.6142 154.636 79.4694 154.772 79.3593C154.907 79.2491 155.074 79.1655 155.271 79.1084C155.115 79.0595 154.981 78.9881 154.87 78.8943C154.763 78.7964 154.663 78.672 154.568 78.5211L152.939 76.1596H153.803C153.91 76.1596 154.006 76.1881 154.093 76.2452C154.179 76.2983 154.247 76.3717 154.296 76.4655L155.623 78.4232C155.714 78.5578 155.823 78.6618 155.95 78.7352C156.078 78.8046 156.228 78.8392 156.401 78.8392H156.937V76.1596H158.005V78.8392H158.529C158.879 78.8392 159.142 78.7006 159.319 78.4232L160.646 76.4655C160.695 76.3717 160.763 76.2983 160.849 76.2452C160.94 76.1881 161.039 76.1596 161.146 76.1596H162.009L160.38 78.5211C160.286 78.672 160.183 78.7964 160.072 78.8943C159.965 78.9881 159.833 79.0595 159.677 79.1084C159.874 79.1655 160.041 79.2491 160.177 79.3593C160.313 79.4694 160.434 79.6142 160.541 79.7936L162.182 82.357Z" fill="white"/>
<path d="M150.735 79.5673C150.229 79.5836 149.797 79.6244 149.439 79.6896C149.086 79.7508 148.796 79.8324 148.569 79.9343C148.347 80.0363 148.185 80.1566 148.082 80.2953C147.983 80.434 147.934 80.589 147.934 80.7603C147.934 80.9234 147.961 81.0641 148.014 81.1824C148.067 81.3007 148.139 81.3986 148.23 81.4761C148.325 81.5495 148.434 81.6045 148.557 81.6412C148.685 81.6739 148.82 81.6902 148.964 81.6902C149.158 81.6902 149.334 81.6718 149.495 81.6351C149.655 81.5943 149.806 81.5372 149.945 81.4638C150.089 81.3904 150.225 81.3027 150.353 81.2008C150.484 81.0988 150.612 80.9826 150.735 80.852V79.5673ZM147.187 77.0345C147.533 76.7041 147.905 76.4573 148.304 76.2942C148.703 76.131 149.145 76.0495 149.631 76.0495C149.98 76.0495 150.291 76.1066 150.562 76.2208C150.834 76.335 151.062 76.494 151.247 76.698C151.432 76.9019 151.572 77.1487 151.667 77.4382C151.762 77.7278 151.809 78.046 151.809 78.3926V82.357H151.321C151.214 82.357 151.132 82.3407 151.075 82.3081C151.017 82.2714 150.972 82.2021 150.939 82.1001L150.815 81.5128C150.651 81.6637 150.49 81.7983 150.334 81.9166C150.178 82.0308 150.013 82.1286 149.84 82.2102C149.668 82.2877 149.483 82.3468 149.285 82.3876C149.092 82.4325 148.876 82.4549 148.637 82.4549C148.395 82.4549 148.166 82.4223 147.952 82.357C147.738 82.2877 147.551 82.1857 147.391 82.0511C147.234 81.9166 147.109 81.7473 147.014 81.5434C146.924 81.3354 146.879 81.0906 146.879 80.8092C146.879 80.5645 146.947 80.33 147.082 80.1057C147.218 79.8772 147.438 79.6754 147.743 79.5C148.047 79.3246 148.444 79.1818 148.933 79.0717C149.423 78.9575 150.024 78.8923 150.735 78.876V78.3926C150.735 77.9114 150.63 77.5484 150.42 77.3036C150.211 77.0549 149.904 76.9305 149.501 76.9305C149.23 76.9305 149.001 76.9651 148.816 77.0345C148.635 77.0997 148.477 77.1752 148.341 77.2608C148.209 77.3424 148.094 77.4178 147.996 77.4872C147.901 77.5524 147.806 77.5851 147.712 77.5851C147.638 77.5851 147.574 77.5667 147.52 77.53C147.467 77.4892 147.422 77.4403 147.385 77.3832L147.187 77.0345Z" fill="white"/>
<path d="M141.547 80.8643C141.748 81.1335 141.968 81.3231 142.207 81.4332C142.445 81.5434 142.713 81.5984 143.009 81.5984C143.593 81.5984 144.041 81.3925 144.354 80.9805C144.667 80.5686 144.823 79.9813 144.823 79.2186C144.823 78.8148 144.786 78.4681 144.712 78.1785C144.642 77.8889 144.539 77.6524 144.403 77.4688C144.268 77.2812 144.101 77.1446 143.904 77.0589C143.706 76.9733 143.482 76.9305 143.231 76.9305C142.873 76.9305 142.559 77.012 142.287 77.1752C142.02 77.3383 141.773 77.5688 141.547 77.8665V80.8643ZM141.491 77.1201C141.754 76.7979 142.059 76.5389 142.404 76.3431C142.75 76.1474 143.145 76.0495 143.589 76.0495C143.951 76.0495 144.278 76.1188 144.57 76.2575C144.862 76.3921 145.111 76.594 145.317 76.8632C145.522 77.1283 145.681 77.4586 145.792 77.8543C145.903 78.2499 145.958 78.7046 145.958 79.2186C145.958 79.6754 145.897 80.1016 145.773 80.4972C145.65 80.8887 145.471 81.2293 145.236 81.5189C145.006 81.8044 144.722 82.0308 144.385 82.198C144.052 82.3611 143.675 82.4427 143.256 82.4427C142.873 82.4427 142.544 82.3795 142.268 82.253C141.997 82.1225 141.756 81.9431 141.547 81.7147V84.4555H140.442V76.1596H141.102C141.259 76.1596 141.355 76.2351 141.392 76.386L141.491 77.1201Z" fill="white"/>
<path d="M139.398 76.9916H136.449V82.357H135.344V76.1596H139.398V76.9916Z" fill="white"/>
<path d="M131.216 76.1596L127.73 84.1863C127.693 84.2679 127.646 84.3331 127.588 84.3821C127.535 84.431 127.45 84.4555 127.335 84.4555H126.521L127.662 81.9961L125.083 76.1596H126.033C126.128 76.1596 126.202 76.1841 126.255 76.233C126.313 76.2779 126.352 76.3289 126.373 76.386L128.045 80.2892C128.111 80.4605 128.166 80.6399 128.211 80.8276C128.269 80.6359 128.331 80.4544 128.396 80.2831L130.019 76.386C130.044 76.3207 130.085 76.2677 130.143 76.2269C130.204 76.182 130.272 76.1596 130.346 76.1596H131.216Z" fill="white"/>
<path d="M122.27 81.5923C122.682 81.5923 123.007 81.4985 123.245 81.3109C123.484 81.1192 123.603 80.8581 123.603 80.5278C123.603 80.381 123.58 80.2484 123.535 80.1301C123.49 80.0078 123.416 79.9017 123.313 79.812C123.21 79.7223 123.072 79.6529 122.9 79.604C122.731 79.555 122.523 79.5306 122.276 79.5306H120.925V81.5923H122.27ZM120.925 76.8937V78.8392H122.128C122.309 78.8392 122.476 78.8148 122.628 78.7658C122.784 78.7128 122.918 78.6414 123.029 78.5517C123.14 78.4579 123.227 78.3478 123.288 78.2213C123.35 78.0908 123.381 77.9481 123.381 77.7931C123.381 77.6789 123.36 77.5688 123.319 77.4627C123.278 77.3526 123.208 77.2567 123.109 77.1752C123.011 77.0895 122.881 77.0222 122.721 76.9733C122.56 76.9203 122.363 76.8937 122.128 76.8937H120.925ZM122.159 76.1596C122.546 76.1596 122.877 76.1983 123.153 76.2758C123.428 76.3533 123.654 76.4594 123.831 76.594C124.008 76.7245 124.138 76.8795 124.22 77.0589C124.302 77.2384 124.343 77.4301 124.343 77.634C124.343 77.7686 124.325 77.9093 124.288 78.0561C124.251 78.203 124.185 78.3437 124.09 78.4783C124 78.6129 123.875 78.7352 123.714 78.8454C123.558 78.9514 123.36 79.035 123.122 79.0962C123.599 79.1778 123.967 79.3429 124.226 79.5917C124.485 79.8365 124.615 80.1607 124.615 80.5645C124.615 80.8663 124.553 81.1294 124.43 81.3537C124.311 81.5739 124.144 81.7595 123.93 81.9104C123.72 82.0613 123.473 82.1735 123.19 82.2469C122.906 82.3203 122.601 82.357 122.276 82.357H119.87V76.1596H122.159Z" fill="white"/>
<path d="M118.823 76.9916H116.422V82.357H115.324V76.9916H112.924V76.1596H118.823V76.9916Z" fill="white"/>
<path d="M112.084 77.2608C112.051 77.3057 112.018 77.3404 111.985 77.3648C111.952 77.3893 111.907 77.4015 111.85 77.4015C111.788 77.4015 111.72 77.3771 111.646 77.3281C111.572 77.2751 111.479 77.218 111.368 77.1568C111.261 77.0956 111.128 77.0406 110.967 76.9916C110.811 76.9386 110.618 76.9121 110.387 76.9121C110.079 76.9121 109.807 76.9672 109.573 77.0773C109.338 77.1833 109.141 77.3383 108.98 77.5422C108.824 77.7462 108.705 77.9929 108.622 78.2825C108.544 78.5721 108.505 78.8963 108.505 79.2553C108.505 79.6305 108.548 79.9649 108.635 80.2586C108.721 80.5482 108.843 80.7929 108.999 80.9927C109.159 81.1885 109.351 81.3394 109.573 81.4455C109.799 81.5474 110.052 81.5984 110.332 81.5984C110.599 81.5984 110.819 81.5678 110.992 81.5067C111.165 81.4414 111.307 81.37 111.418 81.2925C111.533 81.215 111.627 81.1457 111.701 81.0845C111.78 81.0193 111.856 80.9866 111.93 80.9866C112.02 80.9866 112.09 81.0213 112.14 81.0906L112.448 81.4883C112.312 81.6555 112.158 81.7983 111.985 81.9166C111.813 82.0348 111.625 82.1348 111.424 82.2163C111.226 82.2938 111.019 82.3509 110.801 82.3876C110.583 82.4243 110.36 82.4427 110.134 82.4427C109.743 82.4427 109.379 82.3713 109.042 82.2286C108.709 82.0858 108.419 81.8798 108.172 81.6107C107.925 81.3374 107.732 81.0029 107.592 80.6073C107.452 80.2117 107.382 79.761 107.382 79.2553C107.382 78.7944 107.446 78.3682 107.573 77.9766C107.705 77.5851 107.894 77.2486 108.141 76.9672C108.392 76.6817 108.699 76.4594 109.061 76.3003C109.427 76.1412 109.846 76.0617 110.319 76.0617C110.759 76.0617 111.146 76.1331 111.479 76.2758C111.817 76.4145 112.115 76.6123 112.374 76.8693L112.084 77.2608Z" fill="white"/>
<path d="M106.94 76.9916H104.539V82.357H103.441V76.9916H101.041V76.1596H106.94V76.9916Z" fill="white"/>
<path d="M97.6301 76.0617C98.0867 76.0617 98.4981 76.1372 98.8642 76.2881C99.2303 76.439 99.5429 76.6531 99.8021 76.9305C100.061 77.2078 100.259 77.5443 100.394 77.9399C100.534 78.3315 100.604 78.7699 100.604 79.2553C100.604 79.7447 100.534 80.1852 100.394 80.5767C100.259 80.9683 100.061 81.3027 99.8021 81.5801C99.5429 81.8574 99.2303 82.0715 98.8642 82.2224C98.4981 82.3693 98.0867 82.4427 97.6301 82.4427C97.1694 82.4427 96.7539 82.3693 96.3837 82.2224C96.0176 82.0715 95.7049 81.8574 95.4458 81.5801C95.1866 81.3027 94.9871 80.9683 94.8472 80.5767C94.7115 80.1852 94.6436 79.7447 94.6436 79.2553C94.6436 78.7699 94.7115 78.3315 94.8472 77.9399C94.9871 77.5443 95.1866 77.2078 95.4458 76.9305C95.7049 76.6531 96.0176 76.439 96.3837 76.2881C96.7539 76.1372 97.1694 76.0617 97.6301 76.0617ZM97.6301 81.5923C98.2471 81.5923 98.7079 81.3884 99.0123 80.9805C99.3167 80.5686 99.4689 79.9955 99.4689 79.2614C99.4689 78.5232 99.3167 77.9481 99.0123 77.5361C98.7079 77.1242 98.2471 76.9182 97.6301 76.9182C97.3175 76.9182 97.0439 76.9712 96.8094 77.0773C96.5791 77.1833 96.3857 77.3363 96.2294 77.5361C96.0772 77.736 95.962 77.9827 95.8839 78.2764C95.8098 78.566 95.7728 78.8943 95.7728 79.2614C95.7728 79.9955 95.925 80.5686 96.2294 80.9805C96.5379 81.3884 97.0048 81.5923 97.6301 81.5923Z" fill="white"/>
<path d="M89.1942 80.8643C89.3958 81.1335 89.6159 81.3231 89.8545 81.4332C90.093 81.5434 90.3604 81.5984 90.6566 81.5984C91.2407 81.5984 91.6891 81.3925 92.0018 80.9805C92.3144 80.5686 92.4707 79.9813 92.4707 79.2186C92.4707 78.8148 92.4337 78.4681 92.3597 78.1785C92.2897 77.8889 92.1869 77.6524 92.0511 77.4688C91.9154 77.2812 91.7488 77.1446 91.5513 77.0589C91.3539 76.9733 91.1297 76.9305 90.8788 76.9305C90.5209 76.9305 90.2062 77.012 89.9347 77.1752C89.6673 77.3383 89.4205 77.5688 89.1942 77.8665V80.8643ZM89.1387 77.1201C89.402 76.7979 89.7064 76.5389 90.0519 76.3431C90.3975 76.1474 90.7924 76.0495 91.2366 76.0495C91.5986 76.0495 91.9257 76.1188 92.2177 76.2575C92.5098 76.3921 92.7587 76.594 92.9644 76.8632C93.17 77.1283 93.3284 77.4586 93.4395 77.8543C93.5506 78.2499 93.6061 78.7046 93.6061 79.2186C93.6061 79.6754 93.5444 80.1016 93.421 80.4972C93.2976 80.8887 93.1186 81.2293 92.8841 81.5189C92.6538 81.8044 92.3699 82.0308 92.0326 82.198C91.6994 82.3611 91.323 82.4427 90.9034 82.4427C90.5209 82.4427 90.1918 82.3795 89.9162 82.253C89.6447 82.1225 89.404 81.9431 89.1942 81.7147V84.4555H88.0897V76.1596H88.75C88.9063 76.1596 89.0029 76.2351 89.04 76.386L89.1387 77.1201Z" fill="white"/>
<path d="M85.4972 76.4655C85.5548 76.3758 85.6309 76.3023 85.7255 76.2452C85.8201 76.1881 85.9209 76.1596 86.0278 76.1596H86.8855L85.2627 78.5211C85.164 78.672 85.0611 78.7964 84.9542 78.8943C84.8472 78.9881 84.7156 79.0615 84.5593 79.1145C84.7567 79.1676 84.9233 79.2512 85.0591 79.3654C85.1948 79.4755 85.3162 79.6183 85.4231 79.7936L87.0645 82.357H86.2993C86.1019 82.357 85.9497 82.3244 85.8427 82.2592C85.7358 82.1939 85.6432 82.1001 85.565 81.9777L84.3495 80.0506C84.1561 79.7325 83.8661 79.5734 83.4794 79.5734H82.8069V82.3632H81.7023V76.1596H82.8069V78.8392H83.3992C83.7283 78.8392 83.9854 78.7006 84.1705 78.4232L85.4972 76.4655Z" fill="white"/>
<path d="M79.9564 76.1596V82.357H78.8519V79.4571H75.8531V82.357H74.7486V76.1596H75.8531V78.6312H78.8519V76.1596H79.9564Z" fill="white"/>
<path d="M72.0018 79.5673C71.4959 79.5836 71.0639 79.6244 70.706 79.6896C70.3523 79.7508 70.0623 79.8324 69.836 79.9343C69.6139 80.0363 69.4514 80.1566 69.3485 80.2953C69.2498 80.434 69.2005 80.589 69.2005 80.7603C69.2005 80.9234 69.2272 81.0641 69.2807 81.1824C69.3342 81.3007 69.4061 81.3986 69.4966 81.4761C69.5913 81.5495 69.7003 81.6045 69.8237 81.6412C69.9512 81.6739 70.0869 81.6902 70.2309 81.6902C70.4243 81.6902 70.6012 81.6718 70.7616 81.6351C70.922 81.5943 71.0722 81.5372 71.212 81.4638C71.356 81.3904 71.4918 81.3027 71.6193 81.2008C71.7509 81.0988 71.8784 80.9826 72.0018 80.852V79.5673ZM68.4538 77.0345C68.7994 76.7041 69.1717 76.4573 69.5707 76.2942C69.9697 76.131 70.4119 76.0495 70.8973 76.0495C71.247 76.0495 71.5576 76.1066 71.8291 76.2208C72.1006 76.335 72.3289 76.494 72.514 76.698C72.6991 76.9019 72.839 77.1487 72.9336 77.4382C73.0282 77.7278 73.0755 78.046 73.0755 78.3926V82.357H72.588C72.4811 82.357 72.3988 82.3407 72.3412 82.3081C72.2836 82.2714 72.2384 82.2021 72.2055 82.1001L72.0821 81.5128C71.9175 81.6637 71.7571 81.7983 71.6008 81.9166C71.4444 82.0308 71.2799 82.1286 71.1071 82.2102C70.9344 82.2877 70.7492 82.3468 70.5518 82.3876C70.3584 82.4325 70.1425 82.4549 69.9039 82.4549C69.6612 82.4549 69.4329 82.4223 69.219 82.357C69.0051 82.2877 68.8179 82.1857 68.6575 82.0511C68.5011 81.9166 68.3757 81.7473 68.2811 81.5434C68.1906 81.3354 68.1453 81.0906 68.1453 80.8092C68.1453 80.5645 68.2132 80.33 68.3489 80.1057C68.4847 79.8772 68.7048 79.6754 69.0092 79.5C69.3136 79.3246 69.7106 79.1818 70.2001 79.0717C70.6896 78.9575 71.2902 78.8923 72.0018 78.876V78.3926C72.0018 77.9114 71.8969 77.5484 71.6871 77.3036C71.4774 77.0549 71.1709 76.9305 70.7678 76.9305C70.4963 76.9305 70.2679 76.9651 70.0828 77.0345C69.9018 77.0997 69.7435 77.1752 69.6077 77.2608C69.4761 77.3424 69.3609 77.4178 69.2622 77.4872C69.1676 77.5524 69.0729 77.5851 68.9783 77.5851C68.9043 77.5851 68.8405 77.5667 68.787 77.53C68.7336 77.4892 68.6883 77.4403 68.6513 77.3832L68.4538 77.0345Z" fill="white"/>
<path d="M64.2152 81.6351C64.8323 81.6351 65.2971 81.4414 65.6097 81.0539C65.9265 80.6624 66.0849 80.1158 66.0849 79.4143C66.0849 78.7169 65.9327 78.1724 65.6283 77.7808C65.328 77.3893 64.8755 77.1935 64.2708 77.1935C63.9787 77.1935 63.7154 77.2404 63.4809 77.3342C63.2465 77.424 63.047 77.5565 62.8824 77.7319C62.722 77.9073 62.5965 78.1234 62.506 78.3804C62.4196 78.6373 62.3764 78.931 62.3764 79.2614C62.3764 79.6325 62.4155 79.9649 62.4937 80.2586C62.5718 80.5523 62.687 80.8011 62.8392 81.005C62.9955 81.2089 63.1868 81.3659 63.4131 81.4761C63.6434 81.5821 63.9108 81.6351 64.2152 81.6351ZM64.641 74.7035C64.2214 74.7402 63.8615 74.832 63.5612 74.9788C63.265 75.1257 63.0182 75.3255 62.8207 75.5784C62.6233 75.8272 62.4752 76.127 62.3764 76.4777C62.2777 76.8285 62.2201 77.2241 62.2037 77.6646C62.3024 77.4688 62.4299 77.2934 62.5862 77.1385C62.7425 76.9794 62.9215 76.8448 63.1231 76.7347C63.3246 76.6205 63.5427 76.5348 63.7771 76.4777C64.0157 76.4165 64.2687 76.386 64.5361 76.386C64.9516 76.386 65.3239 76.4594 65.6529 76.6062C65.9861 76.749 66.2679 76.9529 66.4983 77.218C66.7328 77.4831 66.9117 77.8033 67.0351 78.1785C67.1585 78.5497 67.2202 78.9616 67.2202 79.4143C67.2202 79.8752 67.1482 80.2933 67.0043 80.6685C66.8644 81.0396 66.6628 81.3578 66.3996 81.6229C66.1363 81.8839 65.8195 82.0858 65.4493 82.2286C65.0832 82.3713 64.6718 82.4427 64.2152 82.4427C63.7956 82.4427 63.4028 82.3734 63.0367 82.2347C62.6706 82.096 62.3538 81.8676 62.0864 81.5495C61.819 81.2313 61.6072 80.8133 61.4509 80.2953C61.2987 79.7732 61.2226 79.1309 61.2226 78.3682C61.2226 77.7156 61.2822 77.116 61.4015 76.5695C61.5208 76.023 61.7121 75.5478 61.9754 75.144C62.2427 74.7402 62.5862 74.416 63.0058 74.1713C63.4295 73.9225 63.9437 73.7716 64.5484 73.7185L66.7821 73.5289L66.8438 74.0917C66.8562 74.2182 66.8377 74.3242 66.7883 74.4099C66.7389 74.4955 66.6505 74.5424 66.523 74.5506L64.641 74.7035Z" fill="white"/>
<path d="M53.8706 76.0617C54.3272 76.0617 54.7386 76.1372 55.1047 76.2881C55.4708 76.439 55.7834 76.6531 56.0426 76.9305C56.3017 77.2078 56.4992 77.5443 56.6349 77.9399C56.7748 78.3315 56.8447 78.7699 56.8447 79.2553C56.8447 79.7447 56.7748 80.1852 56.6349 80.5767C56.4992 80.9683 56.3017 81.3027 56.0426 81.5801C55.7834 81.8574 55.4708 82.0715 55.1047 82.2224C54.7386 82.3693 54.3272 82.4427 53.8706 82.4427C53.4099 82.4427 52.9944 82.3693 52.6242 82.2224C52.258 82.0715 51.9454 81.8574 51.6863 81.5801C51.4271 81.3027 51.2276 80.9683 51.0877 80.5767C50.952 80.1852 50.8841 79.7447 50.8841 79.2553C50.8841 78.7699 50.952 78.3315 51.0877 77.9399C51.2276 77.5443 51.4271 77.2078 51.6863 76.9305C51.9454 76.6531 52.258 76.439 52.6242 76.2881C52.9944 76.1372 53.4099 76.0617 53.8706 76.0617ZM53.8706 81.5923C54.4876 81.5923 54.9484 81.3884 55.2528 80.9805C55.5572 80.5686 55.7094 79.9955 55.7094 79.2614C55.7094 78.5232 55.5572 77.9481 55.2528 77.5361C54.9484 77.1242 54.4876 76.9182 53.8706 76.9182C53.558 76.9182 53.2844 76.9712 53.0499 77.0773C52.8195 77.1833 52.6262 77.3363 52.4699 77.5361C52.3177 77.736 52.2025 77.9827 52.1244 78.2764C52.0503 78.566 52.0133 78.8943 52.0133 79.2614C52.0133 79.9955 52.1655 80.5686 52.4699 80.9805C52.7784 81.3884 53.2453 81.5923 53.8706 81.5923Z" fill="white"/>
<path d="M49.4899 82.357H48.3854V76.9916H45.3865V82.357H44.282V76.1596H49.4899V82.357Z" fill="white"/>
<path d="M39.5814 77.2608C39.5485 77.3057 39.5156 77.3404 39.4827 77.3648C39.4498 77.3893 39.4045 77.4015 39.3469 77.4015C39.2852 77.4015 39.2173 77.3771 39.1433 77.3281C39.0692 77.2751 38.9767 77.218 38.8656 77.1568C38.7587 77.0956 38.625 77.0406 38.4645 76.9916C38.3082 76.9386 38.1149 76.9121 37.8845 76.9121C37.576 76.9121 37.3045 76.9672 37.07 77.0773C36.8355 77.1833 36.6381 77.3383 36.4777 77.5422C36.3213 77.7462 36.202 77.9929 36.1198 78.2825C36.0416 78.5721 36.0025 78.8963 36.0025 79.2553C36.0025 79.6305 36.0457 79.9649 36.1321 80.2586C36.2185 80.5482 36.3399 80.7929 36.4962 80.9927C36.6566 81.1885 36.8479 81.3394 37.07 81.4455C37.2963 81.5474 37.5493 81.5984 37.829 81.5984C38.0964 81.5984 38.3165 81.5678 38.4892 81.5067C38.662 81.4414 38.8039 81.37 38.915 81.2925C39.0302 81.215 39.1248 81.1457 39.1988 81.0845C39.277 81.0193 39.3531 80.9866 39.4271 80.9866C39.5176 80.9866 39.5876 81.0213 39.6369 81.0906L39.9454 81.4883C39.8097 81.6555 39.6554 81.7983 39.4827 81.9166C39.3099 82.0348 39.1227 82.1348 38.9212 82.2163C38.7237 82.2938 38.516 82.3509 38.2979 82.3876C38.0799 82.4243 37.8578 82.4427 37.6315 82.4427C37.2407 82.4427 36.8767 82.3713 36.5394 82.2286C36.2062 82.0858 35.9162 81.8798 35.6693 81.6107C35.4225 81.3374 35.2292 81.0029 35.0893 80.6073C34.9494 80.2117 34.8795 79.761 34.8795 79.2553C34.8795 78.7944 34.9433 78.3682 35.0708 77.9766C35.2024 77.5851 35.3917 77.2486 35.6385 76.9672C35.8894 76.6817 36.1959 76.4594 36.5579 76.3003C36.924 76.1412 37.3436 76.0617 37.8166 76.0617C38.2568 76.0617 38.6435 76.1331 38.9767 76.2758C39.314 76.4145 39.6122 76.6123 39.8714 76.8693L39.5814 77.2608Z" fill="white"/>
<path d="M33.4949 76.1596V82.357H32.3966V78.1479C32.3966 78.0663 32.4007 77.9787 32.4089 77.8848C32.4172 77.791 32.4274 77.6972 32.4398 77.6034C32.4028 77.685 32.3657 77.7604 32.3287 77.8298C32.2917 77.8991 32.2526 77.9623 32.2115 78.0194L29.1941 82.0878C29.1489 82.1531 29.0913 82.2163 29.0214 82.2775C28.9555 82.3346 28.8815 82.3632 28.7992 82.3632H28.1328V76.1657H29.2373V80.3748C29.2373 80.4523 29.2332 80.538 29.225 80.6318C29.2168 80.7215 29.2065 80.8133 29.1941 80.9071C29.2311 80.8296 29.2682 80.7582 29.3052 80.693C29.3422 80.6236 29.3792 80.5604 29.4163 80.5033L32.4336 76.4349C32.4789 76.3696 32.5364 76.3085 32.6064 76.2514C32.6763 76.1902 32.7524 76.1596 32.8347 76.1596H33.4949Z" fill="white"/>
<path d="M24.4109 81.5923C24.8222 81.5923 25.1472 81.4985 25.3858 81.3109C25.6244 81.1192 25.7437 80.8581 25.7437 80.5278C25.7437 80.381 25.7211 80.2484 25.6758 80.1301C25.6306 80.0078 25.5565 79.9017 25.4537 79.812C25.3508 79.7223 25.213 79.6529 25.0403 79.604C24.8716 79.555 24.6639 79.5306 24.417 79.5306H23.0657V81.5923H24.4109ZM23.0657 76.8937V78.8392H24.269C24.45 78.8392 24.6166 78.8148 24.7688 78.7658C24.9251 78.7128 25.0588 78.6414 25.1698 78.5517C25.2809 78.4579 25.3673 78.3478 25.429 78.2213C25.4907 78.0908 25.5216 77.9481 25.5216 77.7931C25.5216 77.6789 25.501 77.5688 25.4599 77.4627C25.4187 77.3526 25.3488 77.2567 25.2501 77.1752C25.1513 77.0895 25.0218 77.0222 24.8613 76.9733C24.7009 76.9203 24.5034 76.8937 24.269 76.8937H23.0657ZM24.2998 76.1596C24.6865 76.1596 25.0176 76.1983 25.2933 76.2758C25.5689 76.3533 25.7951 76.4594 25.972 76.594C26.1489 76.7245 26.2785 76.8795 26.3607 77.0589C26.443 77.2384 26.4841 77.4301 26.4841 77.634C26.4841 77.7686 26.4656 77.9093 26.4286 78.0561C26.3916 78.203 26.3258 78.3437 26.2312 78.4783C26.1407 78.6129 26.0152 78.7352 25.8548 78.8454C25.6984 78.9514 25.501 79.035 25.2624 79.0962C25.7396 79.1778 26.1077 79.3429 26.3669 79.5917C26.6261 79.8365 26.7556 80.1607 26.7556 80.5645C26.7556 80.8663 26.6939 81.1294 26.5705 81.3537C26.4512 81.5739 26.2846 81.7595 26.0707 81.9104C25.8609 82.0613 25.6141 82.1735 25.3303 82.2469C25.0464 82.3203 24.742 82.357 24.417 82.357H22.0106V76.1596H24.2998Z" fill="white"/>
<path d="M16.2095 80.8643C16.4111 81.1335 16.6311 81.3231 16.8697 81.4332C17.1083 81.5434 17.3757 81.5984 17.6719 81.5984C18.256 81.5984 18.7044 81.3925 19.017 80.9805C19.3297 80.5686 19.486 79.9813 19.486 79.2186C19.486 78.8148 19.449 78.4681 19.3749 78.1785C19.305 77.8889 19.2022 77.6524 19.0664 77.4688C18.9307 77.2812 18.7641 77.1446 18.5666 77.0589C18.3692 76.9733 18.145 76.9305 17.894 76.9305C17.5361 76.9305 17.2214 77.012 16.9499 77.1752C16.6826 77.3383 16.4357 77.5688 16.2095 77.8665V80.8643ZM16.154 77.1201C16.4172 76.7979 16.7216 76.5389 17.0672 76.3431C17.4127 76.1474 17.8076 76.0495 18.2519 76.0495C18.6139 76.0495 18.9409 76.1188 19.233 76.2575C19.5251 76.3921 19.774 76.594 19.9796 76.8632C20.1853 77.1283 20.3437 77.4586 20.4548 77.8543C20.5658 78.2499 20.6214 78.7046 20.6214 79.2186C20.6214 79.6754 20.5597 80.1016 20.4362 80.4972C20.3128 80.8887 20.1339 81.2293 19.8994 81.5189C19.6691 81.8044 19.3852 82.0308 19.0479 82.198C18.7147 82.3611 18.3383 82.4427 17.9187 82.4427C17.5361 82.4427 17.2071 82.3795 16.9314 82.253C16.6599 82.1225 16.4193 81.9431 16.2095 81.7147V84.4555H15.105V76.1596H15.7652C15.9215 76.1596 16.0182 76.2351 16.0552 76.386L16.154 77.1201Z" fill="white"/>
<path d="M12.7686 78.5823C12.7686 78.3294 12.7316 78.099 12.6575 77.891C12.5876 77.6789 12.4827 77.4974 12.3429 77.3465C12.2071 77.1915 12.0405 77.0732 11.843 76.9916C11.6456 76.906 11.4214 76.8632 11.1705 76.8632C10.6439 76.8632 10.2264 77.0161 9.91787 77.322C9.61346 77.6238 9.42423 78.0439 9.35019 78.5823H12.7686ZM13.6572 81.4883C13.5214 81.6514 13.3589 81.7942 13.1697 81.9166C12.9805 82.0348 12.7768 82.1327 12.5588 82.2102C12.3449 82.2877 12.1228 82.3448 11.8924 82.3815C11.662 82.4223 11.4337 82.4427 11.2075 82.4427C10.7756 82.4427 10.3765 82.3713 10.0104 82.2286C9.64843 82.0817 9.33373 81.8696 9.06635 81.5923C8.80308 81.3109 8.59739 80.9642 8.4493 80.5523C8.30121 80.1403 8.22717 79.6672 8.22717 79.1329C8.22717 78.7006 8.29299 78.2968 8.42462 77.9216C8.56037 77.5463 8.75371 77.2221 9.00464 76.9488C9.25557 76.6715 9.56204 76.4553 9.92404 76.3003C10.286 76.1412 10.6933 76.0617 11.1458 76.0617C11.5201 76.0617 11.8657 76.1249 12.1824 76.2514C12.5033 76.3737 12.7789 76.5532 13.0093 76.7897C13.2437 77.0222 13.4268 77.3118 13.5584 77.6585C13.6901 78.0011 13.7559 78.3926 13.7559 78.8331C13.7559 79.0044 13.7374 79.1186 13.7003 79.1757C13.6633 79.2328 13.5934 79.2614 13.4906 79.2614H9.31317C9.32551 79.6529 9.37898 79.9935 9.4736 80.2831C9.57232 80.5726 9.70807 80.8153 9.88085 81.0111C10.0536 81.2028 10.2593 81.3476 10.4979 81.4455C10.7365 81.5393 11.0039 81.5862 11.3 81.5862C11.5757 81.5862 11.8122 81.5556 12.0096 81.4944C12.2112 81.4292 12.384 81.3598 12.528 81.2864C12.6719 81.213 12.7912 81.1457 12.8858 81.0845C12.9846 81.0193 13.0689 80.9866 13.1388 80.9866C13.2293 80.9866 13.2993 81.0213 13.3486 81.0906L13.6572 81.4883Z" fill="white"/>
<path d="M6.92887 80.5461C6.99469 80.5461 7.05228 80.5726 7.10164 80.6257L7.57676 81.1335C7.21476 81.5495 6.77461 81.8737 6.25629 82.1062C5.74209 82.3387 5.11887 82.4549 4.38665 82.4549C3.75315 82.4549 3.17724 82.3468 2.65892 82.1307C2.14061 81.9104 1.69839 81.6045 1.33228 81.213C0.966165 80.8174 0.682325 80.3442 0.480757 79.7936C0.27919 79.243 0.178406 78.6374 0.178406 77.9766C0.178406 77.3159 0.283303 76.7102 0.493098 76.1596C0.702893 75.609 0.997017 75.1359 1.37547 74.7402C1.75804 74.3446 2.21465 74.0387 2.74531 73.8226C3.27597 73.6023 3.86216 73.4922 4.50388 73.4922C5.13327 73.4922 5.68861 73.5921 6.1699 73.792C6.6512 73.9918 7.0749 74.263 7.44101 74.6056L7.04611 75.1501C7.02142 75.1909 6.98851 75.2256 6.94738 75.2541C6.91036 75.2786 6.85894 75.2909 6.79312 75.2909C6.71907 75.2909 6.62857 75.2521 6.52162 75.1746C6.41466 75.093 6.2748 75.0033 6.10203 74.9054C5.92926 74.8075 5.71329 74.7198 5.45413 74.6424C5.19497 74.5608 4.87617 74.52 4.49771 74.52C4.0411 74.52 3.62357 74.5995 3.24511 74.7586C2.86666 74.9136 2.53963 75.1399 2.26401 75.4377C1.99251 75.7354 1.78066 76.0984 1.62846 76.5267C1.47625 76.9549 1.40015 77.4382 1.40015 77.9766C1.40015 78.5231 1.47831 79.0105 1.63463 79.4388C1.79506 79.8671 2.01103 80.23 2.28253 80.5278C2.55814 80.8214 2.88106 81.0458 3.25128 81.2008C3.62562 81.3557 4.02876 81.4332 4.46069 81.4332C4.72396 81.4332 4.9605 81.419 5.17029 81.3904C5.3842 81.3578 5.5796 81.3088 5.75648 81.2436C5.93748 81.1783 6.10408 81.0968 6.25629 80.9989C6.41261 80.8969 6.56687 80.7766 6.71907 80.6379C6.789 80.5767 6.85894 80.5461 6.92887 80.5461Z" fill="white"/>
</svg>
