<svg width="31" height="31" viewBox="0 0 31 31" fill="none" xmlns="http://www.w3.org/2000/svg">
<path fill-rule="evenodd" clip-rule="evenodd" d="M15.0165 0.338604C14.9425 0.444002 14.9253 0.584778 14.9524 0.861698C14.9793 1.13627 14.9644 1.26013 14.8984 1.31175C14.8483 1.35096 14.461 1.51583 14.0378 1.67823C13.1036 2.03658 12.8161 2.27805 12.6877 2.81202C12.6041 3.15963 12.6085 3.18206 12.9912 4.35338L13.3794 5.54195L12.9617 6.16172C12.7241 6.51436 12.5096 6.76691 12.4643 6.74765C12.4205 6.72905 12.1655 6.64413 11.8974 6.55894C11.5386 6.44495 11.41 6.37325 11.4096 6.28692C11.4092 6.22241 11.4845 5.81458 11.5768 5.38063C11.6692 4.94663 11.7449 4.47999 11.7451 4.34358C11.7456 3.96623 11.5213 3.75637 10.8957 3.54846L10.3659 3.37244L10.3322 2.88124C10.2971 2.36835 10.1989 2.20918 9.97129 2.29625C9.883 2.33008 9.86119 2.43743 9.86119 2.83847V3.33861L9.30999 3.52174C8.73342 3.71327 8.48194 3.89634 8.41168 4.17561C8.38847 4.26785 8.4744 4.8607 8.60448 5.50617L8.83907 6.67038L8.6137 6.9193C8.48975 7.05612 8.34083 7.25973 8.28282 7.37178C8.15207 7.62399 7.78067 9.12655 7.82233 9.23483C7.89036 9.41159 8.07394 9.36446 8.92729 8.9512C9.72593 8.56438 9.86301 8.51886 10.2275 8.51947C11.3059 8.52121 12.2165 9.47429 12.2165 10.6014C12.2165 10.8209 12.1382 11.3704 12.0425 11.8224L11.8686 12.6444L11.2504 13.5186C10.4329 14.6748 10.106 14.8564 9.44713 14.5207C9.01484 14.3004 8.89122 13.7716 9.09162 13.0001C9.22567 12.4841 9.17036 12.1474 8.8958 11.8079C8.61411 11.4597 0.582458 4.87674 0.395583 4.84096C0.302515 4.82317 0.226137 4.85788 0.18354 4.93729C0.0963277 5.10002 1.15674 7.87627 1.57336 8.57579C1.99125 9.27746 2.66244 10.0388 3.4524 10.7073C3.83228 11.0287 4.1351 11.2983 4.12534 11.3065C4.11558 11.3145 3.42623 11.234 2.59346 11.1276C0.955803 10.9182 0.791203 10.9137 0.689051 11.0766C0.600223 11.2182 0.890394 11.6415 1.46152 12.2038C2.20431 12.935 2.88283 13.3212 4.36154 13.8542C4.64929 13.9579 4.87371 14.0538 4.86026 14.0671C4.84686 14.0806 4.04378 14.1801 3.07569 14.2884C2.10754 14.3967 1.28507 14.504 1.24786 14.5269C1.21071 14.5499 1.1803 14.6365 1.1803 14.7195C1.1803 14.8416 1.33743 14.9617 2.00464 15.3498C3.30389 16.1054 4.29903 16.4946 5.57478 16.7462C5.90055 16.8104 6.14281 16.8835 6.11313 16.9086C6.08339 16.9336 5.89254 17.0714 5.68898 17.2146C4.71376 17.9009 3.7131 18.9921 3.75173 19.3271C3.77104 19.4943 3.77353 19.4949 4.44404 19.486C5.23347 19.4756 6.01246 19.2959 6.75828 18.9521C7.03189 18.8261 7.26567 18.7229 7.27792 18.7229C7.2901 18.7229 7.30861 19.1228 7.3189 19.6116C7.3436 20.782 7.3545 20.7843 8.32218 19.8218L9.05313 19.0949L9.54558 19.5829C9.85258 19.8872 10.0744 20.0568 10.1347 20.0334C10.1878 20.0128 10.35 19.8124 10.4952 19.5881C10.8306 19.0696 11.0997 18.8018 11.4411 18.6471C11.8838 18.4465 11.9025 18.4609 11.8655 18.9746C11.8224 19.573 11.645 19.905 11.0104 20.5748C10.2695 21.357 9.86119 22.2653 9.86119 23.1318C9.86119 23.5059 9.95675 23.6235 10.2605 23.6235C10.337 23.6235 10.3995 23.6382 10.3995 23.656C10.3995 23.6738 10.2878 23.9137 10.1513 24.1889L9.90305 24.6894L9.45131 24.7998L8.99956 24.9103L8.73402 24.6194C8.58799 24.4593 8.24069 24.0727 7.96216 23.7602L7.45578 23.192L7.59622 22.9232C7.76546 22.5993 7.77576 22.0698 7.61876 21.7669C7.40982 21.3637 6.9074 21.0712 6.42921 21.0744C6.1702 21.0761 5.73629 21.2991 5.5406 21.5312C4.76039 22.4562 5.62814 23.8621 6.78708 23.5506L7.0685 23.475L7.33768 23.7766C7.48572 23.9425 7.79682 24.2904 8.02892 24.5496L8.45105 25.0211L8.16835 25.1152C7.81317 25.2332 7.69945 25.3895 7.85543 25.5451C7.9592 25.6485 7.99756 25.6487 8.39264 25.5471L8.81814 25.4378L9.12291 25.7792C9.36019 26.0451 9.46436 26.1155 9.5933 26.0973C9.8332 26.0634 9.83407 25.8756 9.59565 25.5872C9.36268 25.3053 9.34693 25.3258 9.92849 25.1556C10.2237 25.0691 10.2406 25.0488 10.6004 24.3481L10.9695 23.6293L11.3392 23.6096C11.7069 23.5901 11.7101 23.588 11.9585 23.213C12.1818 22.8759 12.9135 22.1466 13.0285 22.1466C13.0731 22.1466 13.4278 22.6506 13.4278 22.714C13.4278 22.7323 13.0811 23.3607 12.6575 24.1105C11.7977 25.6325 11.5294 26.32 11.4127 27.3005C11.3291 28.0024 11.3814 28.2115 11.6318 28.1758C11.7491 28.1591 11.7872 28.0948 11.8232 27.8529C11.848 27.6867 11.9043 27.3091 11.9484 27.0137C12.0515 26.3243 12.2606 25.7763 12.755 24.8991C13.3223 23.8926 13.2995 23.9177 13.5533 24.0226C13.6693 24.0705 13.7642 24.1243 13.7642 24.1421C13.7642 24.1598 13.6767 24.4356 13.5696 24.7549C13.2915 25.5846 13.2033 26.2332 13.2426 27.16C13.2945 28.3823 13.4265 28.7992 13.7254 28.6847C13.8831 28.6244 13.8977 28.4849 13.796 28.0063C13.6682 27.4046 13.6713 26.36 13.8027 25.7252C13.9292 25.1143 14.2542 24.1928 14.3413 24.1977C14.3755 24.1997 14.5171 24.3635 14.6559 24.5616L14.9082 24.922V27.456C14.9082 28.8498 14.9266 30.0379 14.9491 30.0963C14.9937 30.2124 15.2796 30.242 15.3444 30.1372C15.3667 30.1014 15.3856 28.9406 15.3865 27.5577L15.3881 25.0433L15.6969 24.5618L16.0057 24.0804L16.169 24.467C16.5844 25.4497 16.7556 26.8009 16.5894 27.7857C16.4711 28.4868 16.4732 28.5974 16.6061 28.6824C16.9039 28.8728 17.1239 28.1214 17.1241 26.913C17.1243 26.0913 17.0137 25.4042 16.7669 24.6926C16.6699 24.4129 16.5906 24.1666 16.5906 24.1454C16.5906 24.124 16.6887 24.0725 16.8086 24.0308C17.0702 23.9398 17.0406 23.9069 17.6102 24.9175C18.1972 25.9589 18.3149 26.3286 18.523 27.7857C18.5671 28.0943 18.5998 28.1584 18.7226 28.1758C18.9734 28.2114 19.0258 28.0028 18.9422 27.3005C18.8232 26.3017 18.5588 25.6291 17.6881 24.1105L16.9089 22.7512L17.0871 22.4825C17.1852 22.3347 17.2926 22.2138 17.3257 22.2138C17.4817 22.2138 18.0879 22.7889 18.348 23.1836L18.6379 23.6235H19.0122H19.3866L19.7552 24.3752L20.1238 25.1268L20.8976 25.319L21.6713 25.5111L21.8507 25.8328C22.1871 26.436 23.0045 26.7978 23.6866 26.6453C24.1124 26.55 24.3137 26.4379 24.6121 26.1297C25.523 25.1888 25.1329 23.6826 23.8662 23.25C23.6242 23.1672 23.6443 23.136 23.6109 22.6858C23.5758 22.2127 23.5051 22.0936 23.3677 22.0936C23.2302 22.0936 23.1181 22.3157 23.1181 22.6858V23.1428L22.7687 23.2586C22.1471 23.4646 21.5703 24.2114 21.5703 24.8103C21.5703 24.9959 21.5389 24.9976 20.931 24.8445L20.46 24.7259L20.2016 24.2366C20.0595 23.9675 19.9596 23.7312 19.9795 23.7113C19.9994 23.6913 20.1157 23.6548 20.2378 23.6301C20.4527 23.5866 20.4606 23.5732 20.4808 23.2218C20.5305 22.3533 20.0902 21.3831 19.2242 20.4528C18.7995 19.9966 18.6623 19.7981 18.5797 19.5208C18.4852 19.2034 18.4327 18.5215 18.5029 18.5215C18.6093 18.5215 19.2105 18.8259 19.3405 18.9456C19.4281 19.0262 19.6485 19.3111 19.8304 19.5788C20.0227 19.8617 20.209 20.0655 20.2752 20.0655C20.338 20.0655 20.5946 19.8623 20.8455 19.6139L21.3017 19.1623L21.9983 19.8548C22.5529 20.4062 22.7278 20.5427 22.856 20.5246C23.0153 20.5022 23.0173 20.492 23.036 19.6386C23.0531 18.8577 23.0659 18.7789 23.1706 18.812C23.2342 18.8322 23.5437 18.9544 23.8583 19.0836C24.5999 19.3881 25.3705 19.5399 26.0474 19.5148C26.5443 19.4964 26.5852 19.4839 26.6051 19.3447C26.6483 19.0412 25.5679 17.8688 24.6419 17.2145L24.1806 16.8885L24.9111 16.7387C26.171 16.4803 27.137 16.0882 28.5331 15.2685C29.0557 14.9617 29.1745 14.8626 29.1745 14.7335C29.1745 14.6464 29.1327 14.559 29.0815 14.5394C29.0303 14.5199 28.2354 14.4235 27.315 14.3255C26.3946 14.2273 25.5962 14.1322 25.5406 14.114C25.4851 14.0958 25.7879 13.9517 26.2136 13.7939C27.2691 13.4025 27.8532 13.0969 28.4502 12.6236C28.9443 12.2319 29.5263 11.5916 29.6664 11.2855C29.7205 11.1674 29.7132 11.1085 29.6347 11.0303C29.5436 10.9394 29.3585 10.9506 27.8975 11.1353C26.9982 11.2491 26.2528 11.3328 26.2412 11.3212C26.2297 11.3097 26.5425 11.0293 26.9365 10.6983C27.7346 10.0277 28.3839 9.26974 28.836 8.48127C29.252 7.7557 30.2561 5.10069 30.1737 4.94401C30.0834 4.77248 29.8826 4.80001 29.6311 5.01839C29.5095 5.12392 27.6688 6.63668 25.5406 8.3801C23.4125 10.1235 21.5908 11.6412 21.4925 11.753C21.1931 12.093 21.1405 12.4585 21.2966 13.114C21.4718 13.8502 21.3735 14.2354 20.9435 14.4969C20.6797 14.6574 20.1166 14.6726 19.9053 14.525C19.8244 14.4684 19.4643 13.9954 19.1053 13.4738L18.4525 12.5255L18.2907 11.7473C18.0187 10.438 18.1467 9.71879 18.7614 9.1056C19.1383 8.72959 19.6261 8.52027 20.1273 8.51947C20.4918 8.51886 20.6289 8.56438 21.4275 8.9512C22.2907 9.36923 22.4642 9.41239 22.5356 9.22671C22.5779 9.11681 22.2031 7.62466 22.0675 7.36305C22.0119 7.25584 21.8653 7.05639 21.7416 6.91984L21.5167 6.67152L21.7548 5.52228C21.9025 4.809 21.9755 4.3041 21.9471 4.19125C21.8731 3.89742 21.631 3.71649 21.0561 3.5255L20.5162 3.34613L20.518 2.92682C20.5202 2.41829 20.4719 2.2755 20.2978 2.2755C20.1079 2.2755 20.0605 2.38385 20.0226 2.90554L19.9889 3.36774L19.4842 3.53376C18.578 3.83196 18.514 3.9916 18.771 5.31478C18.8672 5.80995 18.9456 6.25758 18.9452 6.30961C18.9448 6.36835 18.7475 6.4665 18.4237 6.56894C18.1372 6.65964 17.8821 6.73516 17.8567 6.73677C17.8086 6.73993 17.2101 5.91199 17.069 5.64702C16.999 5.51557 17.0408 5.3329 17.3669 4.34304C17.7947 3.04544 17.8066 2.82276 17.4735 2.36499C17.2557 2.06578 17.2028 2.0353 16.2205 1.64399L15.4802 1.34914L15.4466 0.836322C15.4234 0.481931 15.3817 0.303829 15.312 0.259992C15.166 0.168155 15.1294 0.17789 15.0165 0.338604ZM16.0343 2.07981C16.5068 2.26751 16.9466 2.46878 17.0118 2.52705C17.0768 2.58532 17.1632 2.74321 17.2036 2.87788C17.2702 3.09942 17.2424 3.22462 16.912 4.1928L16.5468 5.26289H15.1782H13.8097L13.4513 4.19287C13.1363 3.25228 13.101 3.09317 13.1591 2.87768C13.1955 2.74281 13.2784 2.58491 13.3434 2.52678C13.4278 2.45125 14.9823 1.77926 15.1595 1.7418C15.1681 1.73992 15.5618 1.89204 16.0343 2.07981ZM10.7241 3.98335C10.9896 4.07344 11.2328 4.16319 11.2647 4.18279C11.2966 4.20246 11.2272 4.69522 11.1106 5.27779L10.8986 6.337L10.0939 6.37332C9.6513 6.39332 9.28314 6.40742 9.27574 6.40467C9.25595 6.39728 8.85239 4.33727 8.85206 4.24194C8.85179 4.15238 9.79356 3.82767 10.0681 3.8227C10.1634 3.82095 10.4586 3.89325 10.7241 3.98335ZM20.9612 3.99033C21.3748 4.12063 21.503 4.18964 21.503 4.28188C21.503 4.41031 21.1105 6.38762 21.0822 6.40151C21.0731 6.40601 20.7035 6.39332 20.2609 6.37332L19.4562 6.337L19.2442 5.27779C19.1066 4.59002 19.0562 4.20367 19.1008 4.17622C19.2323 4.09512 20.1246 3.82552 20.2714 3.82256C20.3528 3.82089 20.6632 3.89641 20.9612 3.99033ZM16.9855 6.38735L17.3994 7.00832L17.2474 7.10446C16.9005 7.32364 16.0618 8.24295 15.8345 8.65306C15.7015 8.89306 15.5068 9.36842 15.4018 9.70939C15.2969 10.0504 15.1959 10.3296 15.1774 10.3298C15.1589 10.3301 15.0424 10.0127 14.9185 9.62453C14.5893 8.59311 13.9826 7.7449 13.1421 7.14104L12.9573 7.00832L13.3703 6.38735L13.7832 5.76638H15.1774H16.5716L16.9855 6.38735ZM3.54036 7.95012C4.25946 8.54189 5.6879 9.71684 6.71467 10.561C8.86962 12.3328 8.79203 12.2268 8.58005 13.1091C8.431 13.7296 8.45408 13.9913 8.69479 14.4111C8.99896 14.9417 9.65581 15.2218 10.2816 15.088C10.7012 14.9981 10.9149 14.8116 11.445 14.0724L11.88 13.4657V14.5504V15.6351L11.4682 15.9375C11.2417 16.1038 10.8884 16.2887 10.6828 16.3482C10.1514 16.5024 9.4431 16.4477 8.96807 16.2158C8.52918 16.0016 8.40388 15.9934 8.34607 16.1751C8.23786 16.5152 8.93537 16.8507 9.84363 16.8956C10.5456 16.9303 10.9494 16.8339 11.4941 16.5017C11.6705 16.3941 11.8294 16.3061 11.8474 16.3061C11.8653 16.3061 11.88 16.6967 11.88 17.1741V18.042L11.5224 18.1458C11.1045 18.2669 10.6913 18.5478 10.4224 18.8935C9.95325 19.4965 10.0593 19.4822 9.57755 19.0082C9.34296 18.7774 9.10569 18.5886 9.05037 18.5886C8.99506 18.5886 8.69304 18.8462 8.37925 19.1611L7.80873 19.7336L7.77509 18.95C7.74729 18.302 7.72118 18.1537 7.62441 18.093C7.53438 18.0365 7.46446 18.0475 7.32159 18.1407C7.00397 18.3478 6.21125 18.7053 5.81791 18.8188C5.44813 18.9256 4.39216 19.1276 4.3606 19.0976C4.35172 19.0892 4.60117 18.8244 4.9149 18.5093C5.51193 17.9097 6.10815 17.4737 6.81615 17.119C7.23909 16.9072 7.34434 16.7425 7.15262 16.5924C7.10639 16.5562 6.62537 16.447 6.08386 16.3498C5.54228 16.2526 4.81551 16.0817 4.46881 15.9701C3.84762 15.77 2.1897 14.9973 2.1897 14.9079C2.1897 14.8826 3.01486 14.774 4.02346 14.6666C5.03206 14.5592 5.93292 14.4516 6.02545 14.4276C6.21313 14.3788 6.28439 14.1527 6.14644 14.0434C6.09839 14.0052 5.42822 13.7387 4.6571 13.4511C3.88598 13.1634 3.07589 12.8196 2.85685 12.687C2.42476 12.4256 1.35438 11.5451 1.406 11.4936C1.4235 11.4762 2.18156 11.5569 3.09063 11.6731C4.93549 11.9087 5.17418 11.9121 5.20413 11.7032C5.2194 11.5969 5.01436 11.3907 4.3248 10.8189C2.58714 9.37809 1.98506 8.58861 1.34093 6.90595C1.14153 6.38513 0.978414 5.93092 0.978414 5.89655C0.978414 5.86211 1.26064 6.068 1.60566 6.35405C1.95067 6.64004 2.82125 7.35828 3.54036 7.95012ZM29.3016 6.18595C29.2245 6.37976 29.0731 6.78007 28.9651 7.07545C28.3835 8.66541 27.6882 9.48892 25.2485 11.4768C25.1578 11.5507 25.1336 11.625 25.1665 11.7285C25.2286 11.9237 25.3528 11.9205 27.2566 11.6747C28.1079 11.5649 28.8475 11.4744 28.9002 11.4738C29.1359 11.4709 28.0145 12.4132 27.3576 12.77C27.117 12.9007 26.3297 13.2256 25.6079 13.4922C24.8862 13.7587 24.2547 14.0141 24.2047 14.0598C24.0564 14.1952 24.1716 14.4076 24.4158 14.4492C24.5348 14.4695 25.3741 14.5649 26.2809 14.6613C27.1877 14.7577 28.0053 14.8529 28.0978 14.873C28.2388 14.9036 28.1366 14.9744 27.4674 15.3102C26.269 15.9115 25.4668 16.1575 23.7308 16.4556C22.9211 16.5947 22.918 16.8074 23.7198 17.2108C24.4473 17.5767 25.3723 18.306 25.8128 18.8609L26.0093 19.1084L25.3544 18.9871C24.4196 18.8139 23.8972 18.6321 23.2636 18.2594C23.0693 18.1451 22.8673 18.0516 22.8146 18.0516C22.6417 18.0516 22.5797 18.3017 22.5797 18.9991V19.687L21.9781 19.0998C21.2894 18.4274 21.3441 18.4311 20.7651 19.02C20.5628 19.2258 20.3785 19.3942 20.3557 19.3942C20.3328 19.3942 20.2009 19.2302 20.0625 19.0298C19.7672 18.602 19.2438 18.224 18.7944 18.1139L18.4748 18.0357V17.1709C18.4748 16.6953 18.4938 16.3061 18.5171 16.3061C18.5403 16.3061 18.7144 16.3939 18.904 16.5013C19.3613 16.7601 19.8947 16.9103 20.3571 16.9103C21.1379 16.9103 22.0725 16.5241 22.0288 16.2194C21.998 16.0046 21.8213 16.0039 21.3853 16.2167C21.0484 16.3812 20.9196 16.4058 20.3913 16.4062C19.8403 16.4068 19.7439 16.3867 19.3482 16.1889C19.1084 16.0691 18.8129 15.8878 18.6916 15.7861L18.471 15.6012L18.4897 14.535L18.5084 13.4687L18.9602 14.109C19.2086 14.4612 19.4966 14.8096 19.6001 14.8831C20.2939 15.3759 21.3145 15.1174 21.7097 14.3487C21.9023 13.9739 21.9317 13.6357 21.8118 13.1741C21.6612 12.5943 21.6739 12.2816 21.8566 12.0683C21.9398 11.9713 23.5521 10.629 25.4397 9.08526C27.3273 7.54162 28.9853 6.1785 29.1242 6.05605C29.2631 5.93367 29.3914 5.83351 29.4092 5.83351C29.4271 5.83351 29.3787 5.99214 29.3016 6.18595ZM11.4225 6.91367C12.7659 7.18938 14.0423 8.35137 14.4393 9.66004C14.5631 10.0683 14.9282 12.3477 14.8778 12.398C14.85 12.4258 12.4764 12.4256 12.4486 12.3978C12.4378 12.3871 12.4893 12.0914 12.563 11.7409C12.8774 10.2444 12.5912 9.221 11.6694 8.54599C11.1429 8.16044 10.7657 8.02705 10.2115 8.03048C9.76866 8.03323 9.65763 8.06391 9.0783 8.34331C8.72507 8.51369 8.42851 8.65306 8.41936 8.65306C8.37683 8.65306 8.64062 7.72402 8.73389 7.54538C8.85791 7.30773 9.07682 7.09915 9.35649 6.95207C9.6005 6.82371 10.8692 6.80015 11.4225 6.91367ZM21.0178 6.96858C21.4583 7.19468 21.6431 7.45348 21.8106 8.07948C21.8951 8.39494 21.9508 8.65306 21.9344 8.65306C21.9181 8.65306 21.6669 8.53222 21.3763 8.38447C20.7332 8.0576 20.2837 7.96126 19.8151 8.04995C19.2798 8.15118 18.9074 8.34754 18.4809 8.75342C17.7179 9.47946 17.5192 10.3228 17.7941 11.6678C17.8724 12.0508 17.9364 12.3749 17.9364 12.3882C17.9364 12.4016 17.377 12.4125 16.6932 12.4125H15.4499L15.4829 12.2279C15.5011 12.1263 15.5895 11.5408 15.6794 10.9266C15.8565 9.71697 16.0086 9.2457 16.4229 8.62312C16.934 7.85486 17.9347 7.15306 18.8259 6.93777C19.0214 6.89057 19.5384 6.84935 19.9748 6.8462C20.631 6.8415 20.8113 6.86265 21.0178 6.96858ZM18.0037 16.0778C18.0037 18.8306 17.9905 19.2338 17.8941 19.4367C17.8337 19.5636 17.7204 19.7015 17.6423 19.7432C17.5642 19.7849 16.9813 19.9907 16.347 20.2006L15.1936 20.5822L14.018 20.1965C13.3714 19.9843 12.7772 19.7702 12.6976 19.7206C12.3579 19.5089 12.3511 19.4372 12.3511 16.0778V12.9495H15.1774H18.0037V16.0778ZM13.9156 20.668L15.1774 21.0837L16.4392 20.668C17.1332 20.4395 17.8135 20.1804 17.9511 20.0923L18.2014 19.9321L18.2782 20.0754C18.3205 20.1542 18.5802 20.4588 18.8553 20.7522C19.1304 21.0457 19.4353 21.4115 19.5328 21.5652C19.7281 21.8728 20.0226 22.7285 20.0226 22.9883C20.0226 23.1507 20.0129 23.1536 19.4674 23.1519L18.9122 23.1501L18.6868 22.8186C18.2757 22.214 17.4102 21.551 17.1478 21.6397C17.0819 21.662 16.6192 22.298 16.1195 23.0531C15.6199 23.8081 15.1959 24.4265 15.1774 24.4273C15.1589 24.4281 14.7372 23.8239 14.2403 23.0847C13.7434 22.3455 13.294 21.7052 13.2416 21.6618C13.0336 21.4897 12.1124 22.1652 11.672 22.8129L11.4426 23.1501L10.8874 23.1519C10.2496 23.1539 10.2522 23.1576 10.43 22.4911C10.5898 21.8923 10.8641 21.4393 11.4483 20.8095C11.7541 20.4798 12.0379 20.1475 12.0789 20.0711L12.1534 19.9321L12.4037 20.0923C12.5413 20.1804 13.2217 20.4395 13.9156 20.668ZM7.02119 21.8077C7.64252 22.4274 6.96056 23.4237 6.17659 23.0415C5.82027 22.8678 5.64335 22.4961 5.74921 22.1437C5.85762 21.7828 6.10115 21.6096 6.50041 21.6096C6.7675 21.6096 6.85659 21.6435 7.02119 21.8077ZM23.0897 24.6074C23.0422 24.731 22.0403 24.737 22.0436 24.6137C22.0483 24.4379 22.4305 23.9838 22.7506 23.7738L23.0844 23.5548L23.1044 24.0361C23.1154 24.3007 23.1088 24.5578 23.0897 24.6074ZM24.0131 23.8064C24.2378 23.9459 24.6658 24.4949 24.6658 24.6437C24.6658 24.6734 24.4236 24.6977 24.1275 24.6977H23.5891V24.1231C23.5891 23.6817 23.6086 23.56 23.6732 23.5981C23.7195 23.6254 23.8724 23.7191 24.0131 23.8064ZM24.5925 25.3186C24.4241 25.6442 24.1753 25.9132 23.9244 26.0409C23.4358 26.2896 22.7636 26.1658 22.4071 25.7615C22.2575 25.5919 22.0414 25.2622 22.0414 25.2035C22.0414 25.1838 22.6329 25.1676 23.356 25.1676H24.6705L24.5925 25.3186Z" fill="white"/>
<path d="M11.4225 6.91367C12.7659 7.18938 14.0423 8.35137 14.4393 9.66004C14.5631 10.0683 14.9282 12.3477 14.8778 12.398C14.85 12.4258 12.4764 12.4256 12.4486 12.3978C12.4378 12.3871 12.4893 12.0914 12.563 11.7409C12.8774 10.2444 12.5912 9.221 11.6694 8.54599C11.1429 8.16044 10.7657 8.02705 10.2115 8.03048C9.76866 8.03323 9.65763 8.06391 9.0783 8.34331C8.72507 8.51369 8.42851 8.65306 8.41936 8.65306C8.37683 8.65306 8.64062 7.72402 8.73389 7.54538C8.85791 7.30773 9.07682 7.09915 9.35649 6.95207C9.6005 6.82371 10.8692 6.80015 11.4225 6.91367Z" fill="white"/>
<path d="M10.7241 3.98335C10.9896 4.07344 11.2328 4.16319 11.2647 4.18279C11.2966 4.20246 11.2272 4.69522 11.1106 5.27779L10.8986 6.337L10.0939 6.37332C9.6513 6.39332 9.28314 6.40742 9.27574 6.40467C9.25595 6.39728 8.85239 4.33727 8.85206 4.24194C8.85179 4.15238 9.79356 3.82767 10.0681 3.8227C10.1634 3.82095 10.4586 3.89325 10.7241 3.98335Z" fill="white"/>
<path d="M16.0343 2.07981C16.5068 2.26751 16.9466 2.46878 17.0118 2.52705C17.0768 2.58532 17.1632 2.74321 17.2036 2.87788C17.2702 3.09942 17.2424 3.22462 16.912 4.1928L16.5468 5.26289H15.1782H13.8097L13.4513 4.19287C13.1363 3.25228 13.101 3.09317 13.1591 2.87768C13.1955 2.74281 13.2784 2.58491 13.3434 2.52678C13.4278 2.45125 14.9823 1.77926 15.1595 1.7418C15.1681 1.73992 15.5618 1.89204 16.0343 2.07981Z" fill="white"/>
<path d="M16.9855 6.38735L17.3994 7.00832L17.2474 7.10446C16.9005 7.32364 16.0618 8.24295 15.8345 8.65306C15.7015 8.89306 15.5068 9.36842 15.4018 9.70939C15.2969 10.0504 15.1959 10.3296 15.1774 10.3298C15.1589 10.3301 15.0424 10.0127 14.9185 9.62453C14.5893 8.59311 13.9826 7.7449 13.1421 7.14104L12.9573 7.00832L13.3703 6.38735L13.7832 5.76638H15.1774H16.5716L16.9855 6.38735Z" fill="white"/>
<path d="M20.9612 3.99033C21.3748 4.12063 21.503 4.18964 21.503 4.28188C21.503 4.41031 21.1105 6.38762 21.0822 6.40151C21.0731 6.40601 20.7035 6.39332 20.2609 6.37332L19.4562 6.337L19.2442 5.27779C19.1066 4.59002 19.0562 4.20367 19.1008 4.17622C19.2323 4.09512 20.1246 3.82552 20.2714 3.82256C20.3528 3.82089 20.6632 3.89641 20.9612 3.99033Z" fill="white"/>
<path d="M21.0178 6.96858C21.4583 7.19468 21.6431 7.45348 21.8106 8.07948C21.8951 8.39494 21.9508 8.65306 21.9344 8.65306C21.9181 8.65306 21.6669 8.53222 21.3763 8.38447C20.7332 8.0576 20.2837 7.96126 19.8151 8.04995C19.2798 8.15118 18.9074 8.34754 18.4809 8.75342C17.7179 9.47946 17.5192 10.3228 17.7941 11.6678C17.8724 12.0508 17.9364 12.3749 17.9364 12.3882C17.9364 12.4016 17.377 12.4125 16.6932 12.4125H15.4499L15.4829 12.2279C15.5011 12.1263 15.5895 11.5408 15.6794 10.9266C15.8565 9.71697 16.0086 9.2457 16.4229 8.62312C16.934 7.85486 17.9347 7.15306 18.8259 6.93777C19.0214 6.89057 19.5384 6.84935 19.9748 6.8462C20.631 6.8415 20.8113 6.86265 21.0178 6.96858Z" fill="white"/>
<path d="M29.3016 6.18595C29.2245 6.37976 29.0731 6.78007 28.9651 7.07545C28.3835 8.66541 27.6882 9.48892 25.2485 11.4768C25.1578 11.5507 25.1336 11.625 25.1665 11.7285C25.2286 11.9237 25.3528 11.9205 27.2566 11.6747C28.1079 11.5649 28.8475 11.4744 28.9002 11.4738C29.1359 11.4709 28.0145 12.4132 27.3576 12.77C27.117 12.9007 26.3297 13.2256 25.6079 13.4922C24.8862 13.7587 24.2547 14.0141 24.2047 14.0598C24.0564 14.1952 24.1716 14.4076 24.4158 14.4492C24.5348 14.4695 25.3741 14.5649 26.2809 14.6613C27.1877 14.7577 28.0053 14.8529 28.0978 14.873C28.2388 14.9036 28.1366 14.9744 27.4674 15.3102C26.269 15.9115 25.4668 16.1575 23.7308 16.4556C22.9211 16.5947 22.918 16.8074 23.7198 17.2108C24.4473 17.5767 25.3723 18.306 25.8128 18.8609L26.0093 19.1084L25.3544 18.9871C24.4196 18.8139 23.8972 18.6321 23.2636 18.2594C23.0693 18.1451 22.8673 18.0516 22.8146 18.0516C22.6417 18.0516 22.5797 18.3017 22.5797 18.9991V19.687L21.9781 19.0998C21.2894 18.4274 21.3441 18.4311 20.7651 19.02C20.5628 19.2258 20.3785 19.3942 20.3557 19.3942C20.3328 19.3942 20.2009 19.2302 20.0625 19.0298C19.7672 18.602 19.2438 18.224 18.7944 18.1139L18.4748 18.0357V17.1709C18.4748 16.6953 18.4938 16.3061 18.5171 16.3061C18.5403 16.3061 18.7144 16.3939 18.904 16.5013C19.3613 16.7601 19.8947 16.9103 20.3571 16.9103C21.1379 16.9103 22.0725 16.5241 22.0288 16.2194C21.998 16.0046 21.8213 16.0039 21.3853 16.2167C21.0484 16.3812 20.9196 16.4058 20.3913 16.4062C19.8403 16.4068 19.7439 16.3867 19.3482 16.1889C19.1084 16.0691 18.8129 15.8878 18.6916 15.7861L18.471 15.6012L18.4897 14.535L18.5084 13.4687L18.9602 14.109C19.2086 14.4612 19.4966 14.8096 19.6001 14.8831C20.2939 15.3759 21.3145 15.1174 21.7097 14.3487C21.9023 13.9739 21.9317 13.6357 21.8118 13.1741C21.6612 12.5943 21.6739 12.2816 21.8566 12.0683C21.9398 11.9713 23.5521 10.629 25.4397 9.08526C27.3273 7.54162 28.9853 6.1785 29.1242 6.05605C29.2631 5.93367 29.3914 5.83351 29.4092 5.83351C29.4271 5.83351 29.3787 5.99214 29.3016 6.18595Z" fill="white"/>
<path d="M18.0037 16.0778C18.0037 18.8306 17.9905 19.2338 17.8941 19.4367C17.8337 19.5636 17.7204 19.7015 17.6423 19.7432C17.5642 19.7849 16.9813 19.9907 16.347 20.2006L15.1936 20.5822L14.018 20.1965C13.3714 19.9843 12.7772 19.7702 12.6976 19.7206C12.3579 19.5089 12.3511 19.4372 12.3511 16.0778V12.9495H15.1774H18.0037V16.0778Z" fill="white"/>
<path d="M3.54036 7.95012C4.25946 8.54189 5.6879 9.71684 6.71467 10.561C8.86962 12.3328 8.79203 12.2268 8.58005 13.1091C8.431 13.7296 8.45408 13.9913 8.69479 14.4111C8.99896 14.9417 9.65581 15.2218 10.2816 15.088C10.7012 14.9981 10.9149 14.8116 11.445 14.0724L11.88 13.4657V14.5504V15.6351L11.4682 15.9375C11.2417 16.1038 10.8884 16.2887 10.6828 16.3482C10.1514 16.5024 9.4431 16.4477 8.96807 16.2158C8.52918 16.0016 8.40388 15.9934 8.34607 16.1751C8.23786 16.5152 8.93537 16.8507 9.84363 16.8956C10.5456 16.9303 10.9494 16.8339 11.4941 16.5017C11.6705 16.3941 11.8294 16.3061 11.8474 16.3061C11.8653 16.3061 11.88 16.6967 11.88 17.1741V18.042L11.5224 18.1458C11.1045 18.2669 10.6913 18.5478 10.4224 18.8935C9.95325 19.4965 10.0593 19.4822 9.57755 19.0082C9.34296 18.7774 9.10569 18.5886 9.05037 18.5886C8.99506 18.5886 8.69304 18.8462 8.37925 19.1611L7.80873 19.7336L7.77509 18.95C7.74729 18.302 7.72118 18.1537 7.62441 18.093C7.53438 18.0365 7.46446 18.0475 7.32159 18.1407C7.00397 18.3478 6.21125 18.7053 5.81791 18.8188C5.44813 18.9256 4.39216 19.1276 4.3606 19.0976C4.35172 19.0892 4.60117 18.8244 4.9149 18.5093C5.51193 17.9097 6.10815 17.4737 6.81615 17.119C7.23909 16.9072 7.34434 16.7425 7.15262 16.5924C7.10639 16.5562 6.62537 16.447 6.08386 16.3498C5.54228 16.2526 4.81551 16.0817 4.46881 15.9701C3.84762 15.77 2.1897 14.9973 2.1897 14.9079C2.1897 14.8826 3.01486 14.774 4.02346 14.6666C5.03206 14.5592 5.93292 14.4516 6.02545 14.4276C6.21313 14.3788 6.28439 14.1527 6.14644 14.0434C6.09839 14.0052 5.42822 13.7387 4.6571 13.4511C3.88598 13.1634 3.07589 12.8196 2.85685 12.687C2.42476 12.4256 1.35438 11.5451 1.406 11.4936C1.4235 11.4762 2.18156 11.5569 3.09063 11.6731C4.93549 11.9087 5.17418 11.9121 5.20413 11.7032C5.2194 11.5969 5.01436 11.3907 4.3248 10.8189C2.58714 9.37809 1.98506 8.58861 1.34093 6.90595C1.14153 6.38513 0.978414 5.93092 0.978414 5.89655C0.978414 5.86211 1.26064 6.068 1.60566 6.35405C1.95067 6.64004 2.82125 7.35828 3.54036 7.95012Z" fill="white"/>
<path d="M13.9156 20.668L15.1774 21.0837L16.4392 20.668C17.1332 20.4395 17.8135 20.1804 17.9511 20.0923L18.2014 19.9321L18.2782 20.0754C18.3205 20.1542 18.5802 20.4588 18.8553 20.7522C19.1304 21.0457 19.4353 21.4115 19.5328 21.5652C19.7281 21.8728 20.0226 22.7285 20.0226 22.9883C20.0226 23.1507 20.0129 23.1536 19.4674 23.1519L18.9122 23.1501L18.6868 22.8186C18.2757 22.214 17.4102 21.551 17.1478 21.6397C17.0819 21.662 16.6192 22.298 16.1195 23.0531C15.6199 23.8081 15.1959 24.4265 15.1774 24.4273C15.1589 24.4281 14.7372 23.8239 14.2403 23.0847C13.7434 22.3455 13.294 21.7052 13.2416 21.6618C13.0336 21.4897 12.1124 22.1652 11.672 22.8129L11.4426 23.1501L10.8874 23.1519C10.2496 23.1539 10.2522 23.1576 10.43 22.4911C10.5898 21.8923 10.8641 21.4393 11.4483 20.8095C11.7541 20.4798 12.0379 20.1475 12.0789 20.0711L12.1534 19.9321L12.4037 20.0923C12.5413 20.1804 13.2217 20.4395 13.9156 20.668Z" fill="white"/>
<path d="M7.02119 21.8077C7.64252 22.4274 6.96056 23.4237 6.17659 23.0415C5.82027 22.8678 5.64335 22.4961 5.74921 22.1437C5.85762 21.7828 6.10115 21.6096 6.50041 21.6096C6.7675 21.6096 6.85659 21.6435 7.02119 21.8077Z" fill="white"/>
<path d="M24.5925 25.3186C24.4241 25.6442 24.1753 25.9132 23.9244 26.0409C23.4358 26.2896 22.7636 26.1658 22.4071 25.7615C22.2575 25.5919 22.0414 25.2622 22.0414 25.2035C22.0414 25.1838 22.6329 25.1676 23.356 25.1676H24.6705L24.5925 25.3186Z" fill="white"/>
<path d="M23.0897 24.6074C23.0422 24.731 22.0403 24.737 22.0436 24.6137C22.0483 24.4379 22.4305 23.9838 22.7506 23.7738L23.0844 23.5548L23.1044 24.0361C23.1154 24.3007 23.1088 24.5578 23.0897 24.6074Z" fill="white"/>
<path d="M24.0131 23.8064C24.2378 23.9459 24.6658 24.4949 24.6658 24.6437C24.6658 24.6734 24.4236 24.6977 24.1275 24.6977H23.5891V24.1231C23.5891 23.6817 23.6086 23.56 23.6732 23.5981C23.7195 23.6254 23.8724 23.7191 24.0131 23.8064Z" fill="white"/>
</svg>
