<svg width="78" height="25" viewBox="0 0 78 25" fill="none" xmlns="http://www.w3.org/2000/svg">
<path fill-rule="evenodd" clip-rule="evenodd" d="M9.19489 0.0169111C6.84125 0.202295 4.64633 1.20464 2.95209 2.86777C1.38244 4.40859 0.375695 6.36291 0.0830533 8.43714C-0.0367693 9.28638 -0.0264429 10.2819 0.110814 11.1179C0.505498 13.5215 1.81715 15.7271 3.75674 17.2489C5.37003 18.5147 7.24235 19.2249 9.36557 19.3764C9.78997 19.4067 10.8371 19.3897 11.2418 19.346C12.4852 19.2116 13.5833 18.9006 14.5923 18.3973C15.2396 18.0744 15.655 17.8089 16.2013 17.3688C17.6202 16.2257 18.6249 14.574 19.0332 12.7135C19.1826 12.0327 19.2446 11.4788 19.2558 10.7225C19.2661 10.0358 19.2271 9.48933 19.1325 8.99098L19.0993 8.81629L10.03 8.82635V11.461L13.2429 11.4661C15.2447 11.4692 16.4559 11.4782 16.4559 11.49C16.4559 11.5513 16.3877 12.0121 16.3523 12.1895C16.1788 13.0605 15.7987 13.8789 15.2584 14.5448C15.0712 14.7754 14.6946 15.1458 14.4599 15.33C13.4908 16.0908 12.255 16.5619 10.8447 16.7081C10.469 16.7471 9.69053 16.7485 9.32538 16.7109C7.67691 16.5411 6.17117 15.843 5.01953 14.7144C4.03422 13.7489 3.38315 12.5524 3.0932 11.1744C2.93704 10.4323 2.91016 9.43659 3.02521 8.65669C3.18852 7.54982 3.61492 6.47817 4.24316 5.59564C4.68847 4.97009 5.29253 4.3729 5.94625 3.91193C6.37589 3.60899 7.06568 3.25351 7.56509 3.07769C8.34951 2.80153 9.02661 2.67626 9.84873 2.65518C10.3782 2.64159 10.7408 2.66434 11.198 2.73981C12.5244 2.95875 13.8218 3.57198 14.7563 4.42158L14.8949 4.54763L15.0735 4.37168C15.1718 4.27492 15.5966 3.84545 16.0176 3.41732L16.7831 2.6389L16.5523 2.41934C16.0241 1.9168 15.2223 1.38312 14.409 0.992733C13.2557 0.439155 12.0337 0.114892 10.7326 0.0171905C10.4292 -0.00560324 9.48286 -0.00576292 9.19489 0.0169111ZM26.1 6.92357C23.9395 7.03877 21.9893 8.21986 20.9472 10.0442C20.5116 10.8068 20.2522 11.6179 20.1625 12.4982C20.1339 12.7789 20.1338 13.4353 20.1624 13.7172C20.4043 16.1049 21.8627 18.0593 24.0509 18.9282C25.1355 19.3588 26.4594 19.4964 27.6581 19.3031C28.7197 19.132 29.7178 18.6982 30.5728 18.0365C30.8225 17.8433 31.3194 17.3599 31.5154 17.1195C31.8735 16.6806 32.2678 16.0096 32.4715 15.4928C32.6313 15.0874 32.7587 14.6008 32.836 14.1001C32.8737 13.8563 32.8801 13.7261 32.8812 13.1775C32.8825 12.4898 32.8632 12.2687 32.7567 11.7504C32.3849 9.94191 31.2447 8.4746 29.5495 7.62337C28.5026 7.0977 27.3229 6.85836 26.1 6.92357ZM27.0573 9.40554C28.0726 9.55541 28.986 10.152 29.5327 11.0223C30.1433 11.9944 30.2868 13.3483 29.8997 14.4859C29.4415 15.8323 28.2931 16.7619 26.8943 16.9186C26.6966 16.9408 26.2612 16.9311 26.0393 16.8997C25.4804 16.8204 24.9401 16.6084 24.4706 16.284C24.2497 16.1315 23.8287 15.7146 23.6614 15.4829C22.9267 14.465 22.7285 13.0478 23.1481 11.812C23.5905 10.5088 24.6648 9.60859 26.0185 9.40648C26.2706 9.36883 26.8054 9.36835 27.0573 9.40554Z" fill="#FF4131"/>
<path fill-rule="evenodd" clip-rule="evenodd" d="M53.5657 6.93285C52.1539 7.06033 50.894 7.63985 49.8723 8.63174C48.2165 10.2392 47.5641 12.5328 48.1307 14.7543C48.7647 17.2401 50.95 19.1231 53.4944 19.3762C53.791 19.4057 54.482 19.3899 54.7785 19.3469C55.5552 19.2341 56.1581 18.9926 56.743 18.5598C56.8271 18.4977 57.0229 18.3225 57.1782 18.1705L57.4606 17.8942L57.4501 18.7294C57.439 19.6237 57.4247 19.7862 57.3213 20.193C56.9772 21.546 55.975 22.3823 54.523 22.5281C53.0973 22.6714 51.8565 22.0436 51.1106 20.8016C51.0477 20.6969 50.9684 20.5508 50.9345 20.477C50.9005 20.4033 50.8696 20.3397 50.8658 20.3356C50.8503 20.3194 48.434 21.3228 48.4336 21.3456C48.4333 21.3592 48.4846 21.4669 48.5475 21.5851C49.2196 22.8474 50.1507 23.7935 51.2791 24.3607C51.8913 24.6684 52.5084 24.8551 53.2398 24.9539C53.5714 24.9987 54.3266 25.0145 54.7201 24.9849C56.4518 24.8546 57.8774 24.1411 58.8104 22.9377C59.0499 22.6289 59.1858 22.4103 59.3814 22.0196C59.795 21.1931 60.0359 20.2312 60.1012 19.1454C60.1111 18.9807 60.1203 16.248 60.1217 13.0727L60.1242 7.2994H57.4559V8.34333L57.2573 8.15515C56.5771 7.51056 55.7662 7.11819 54.8081 6.97003C54.6009 6.938 53.7806 6.91343 53.5657 6.93285ZM56.0527 9.91556C55.7357 9.70461 55.2704 9.51154 54.8692 9.42454C54.7205 9.39228 54.0276 9.36651 53.8814 9.38781C53.0959 9.50218 52.4457 9.80812 51.9014 10.3194C51.308 10.8768 50.9426 11.58 50.7841 12.4692C50.7366 12.7352 50.726 13.4876 50.7659 13.7563C50.881 14.5321 51.1509 15.1657 51.5912 15.6937C51.8747 16.0338 52.3259 16.3915 52.7082 16.5793C53.8783 17.1542 55.2523 17.0273 56.2644 16.2509C57.0379 15.6574 57.5189 14.758 57.6381 13.6822C57.6652 13.4381 57.6656 12.8942 57.6389 12.6585C57.5068 11.4916 56.9349 10.5026 56.0527 9.91556Z" fill="#0086F8"/>
<path d="M61.9775 19.0157V0.632936H64.7679V19.0157H61.9775Z" fill="#00AA4B"/>
<path fill-rule="evenodd" clip-rule="evenodd" d="M71.5401 6.91287C70.4515 7.0069 69.5032 7.33086 68.6683 7.89402C67.2095 8.87793 66.2898 10.4538 66.0684 12.3492C66.0333 12.6492 66.0329 13.6267 66.0678 13.9061C66.2207 15.132 66.6031 16.1192 67.2612 16.9868C68.2318 18.2665 69.6721 19.0865 71.393 19.339C71.7841 19.3964 72.704 19.4015 73.1084 19.3485C74.3113 19.1908 75.3244 18.7662 76.2756 18.0212C76.5496 17.8066 77.1256 17.2351 77.371 16.9345C77.4855 16.7943 77.5791 16.6723 77.5791 16.6633C77.5791 16.6544 77.0869 16.3255 76.4853 15.9325L75.3915 15.2179L75.36 15.2655C75.1356 15.6041 74.7223 16.0411 74.4139 16.2659C73.738 16.7586 72.8746 16.9903 71.9729 16.921C71.0333 16.8487 70.3092 16.5123 69.7533 15.8898C69.6212 15.7419 69.3404 15.3464 69.2224 15.1419L69.1695 15.0504L73.4201 13.3187C75.758 12.3662 77.6742 11.5837 77.6784 11.5797C77.6893 11.5694 77.1434 10.3185 77.0373 10.1106C76.1549 8.38101 74.5648 7.21995 72.7072 6.94878C72.5116 6.92022 71.7325 6.89624 71.5401 6.91287ZM73.6574 9.77509C73.3485 9.56585 72.9393 9.40841 72.5387 9.34476C72.371 9.31809 71.8837 9.30873 71.7234 9.32911C70.2929 9.5108 68.9853 10.7725 68.7492 12.1989C68.7191 12.3805 68.7102 12.8719 68.7359 12.9287C68.7472 12.9535 69.2683 12.7462 71.5454 11.8109C73.0831 11.1794 74.356 10.6533 74.3741 10.642C74.4041 10.6232 74.4033 10.6142 74.3655 10.5422C74.2323 10.2888 73.9262 9.95718 73.6574 9.77509Z" fill="#FF4131"/>
<path fill-rule="evenodd" clip-rule="evenodd" d="M9.19489 0.0169111C6.84125 0.202295 4.64633 1.20464 2.95209 2.86777C1.38244 4.40859 0.375695 6.36291 0.0830533 8.43714C-0.0367693 9.28638 -0.0264429 10.2819 0.110814 11.1179C0.505498 13.5215 1.81715 15.7271 3.75674 17.2489C5.37003 18.5147 7.24235 19.2249 9.36557 19.3764C9.78997 19.4067 10.8371 19.3897 11.2418 19.346C12.4852 19.2116 13.5833 18.9006 14.5923 18.3973C15.2396 18.0744 15.655 17.8089 16.2013 17.3688C17.6202 16.2257 18.6249 14.574 19.0332 12.7135C19.1826 12.0327 19.2446 11.4788 19.2558 10.7225C19.2661 10.0358 19.2271 9.48933 19.1325 8.99098L19.0993 8.81629L10.03 8.82635V11.461L13.2429 11.4661C15.2447 11.4692 16.4559 11.4782 16.4559 11.49C16.4559 11.5513 16.3877 12.0121 16.3523 12.1895C16.1788 13.0605 15.7987 13.8789 15.2584 14.5448C15.0712 14.7754 14.6946 15.1458 14.4599 15.33C13.4908 16.0908 12.255 16.5619 10.8447 16.7081C10.469 16.7471 9.69053 16.7485 9.32538 16.7109C7.67691 16.5411 6.17117 15.843 5.01953 14.7144C4.03422 13.7489 3.38315 12.5524 3.0932 11.1744C2.93704 10.4323 2.91016 9.43659 3.02521 8.65669C3.18852 7.54982 3.61492 6.47817 4.24316 5.59564C4.68847 4.97009 5.29253 4.3729 5.94625 3.91193C6.37589 3.60899 7.06568 3.25351 7.56509 3.07769C8.34951 2.80153 9.02661 2.67626 9.84873 2.65518C10.3782 2.64159 10.7408 2.66434 11.198 2.73981C12.5244 2.95875 13.8218 3.57198 14.7563 4.42158L14.8949 4.54763L15.0735 4.37168C15.1718 4.27492 15.5966 3.84545 16.0176 3.41732L16.7831 2.6389L16.5523 2.41934C16.0241 1.9168 15.2223 1.38312 14.409 0.992733C13.2557 0.439155 12.0337 0.114892 10.7326 0.0171905C10.4292 -0.00560324 9.48286 -0.00576292 9.19489 0.0169111Z" fill="#0086F8"/>
<path fill-rule="evenodd" clip-rule="evenodd" d="M39.95 6.92359C37.7894 7.03879 35.8392 8.21988 34.7971 10.0442C34.3616 10.8068 34.1022 11.6179 34.0125 12.4982C33.9839 12.7789 33.9838 13.4354 34.0123 13.7173C34.2542 16.1049 35.7127 18.0594 37.9009 18.9282C38.9855 19.3588 40.3094 19.4964 41.5081 19.3032C42.5696 19.132 43.5678 18.6982 44.4227 18.0365C44.6724 17.8433 45.1694 17.3599 45.3654 17.1196C45.7234 16.6807 46.1178 16.0096 46.3215 15.4929C46.4813 15.0874 46.6086 14.6008 46.686 14.1001C46.7237 13.8563 46.7301 13.7261 46.7311 13.1775C46.7325 12.4898 46.7132 12.2687 46.6066 11.7504C46.2349 9.94193 45.0947 8.47462 43.3994 7.62339C42.3526 7.09771 41.1729 6.85838 39.95 6.92359ZM43.3827 11.0223C42.836 10.152 41.9226 9.55543 40.9072 9.40556C40.6554 9.36837 40.1205 9.36885 39.8685 9.40649C38.5148 9.6086 37.4405 10.5089 36.998 11.812C36.5784 13.0478 36.7766 14.465 37.5114 15.4829C37.6787 15.7146 38.0997 16.1315 38.3205 16.284C38.7901 16.6084 39.3304 16.8204 39.8892 16.8997C40.1111 16.9311 40.5466 16.9408 40.7443 16.9186C42.1431 16.7619 43.2914 15.8323 43.7496 14.4859C44.1367 13.3483 43.9933 11.9945 43.3827 11.0223Z" fill="#FFBD00"/>
</svg>
