<svg width="21" height="17" viewBox="0 0 21 17" fill="none" xmlns="http://www.w3.org/2000/svg">
<path fill-rule="evenodd" clip-rule="evenodd" d="M10.5 10.2295L1.51017 2.43456L1.5 14.3684C1.5 14.3683 1.5 14.3686 1.5 14.3684C1.50023 14.6368 1.74115 14.9211 2.1 14.9211H18.9C19.259 14.9211 19.5 14.6369 19.5 14.3684V2.42574L10.5 10.2295ZM18.278 1.5H2.72205L10.5 8.24416L18.278 1.5ZM0 14.3684L0.0105 2.05263C0.0105 0.923684 0.945 0 2.1 0H18.9C20.055 0 21 0.923684 21 2.05263V14.3684C21 15.4974 20.055 16.4211 18.9 16.4211H2.1C0.945 16.4211 0 15.4974 0 14.3684Z" fill="#FBA04D"/>
</svg>
