<svg width="18" height="19" viewBox="0 0 18 19" fill="none" xmlns="http://www.w3.org/2000/svg">
<path fill-rule="evenodd" clip-rule="evenodd" d="M16.839 5.36592L12.699 1.82529L13.86 0.421875L18 3.96251L16.839 5.36592ZM16.1429 6.74434C16.082 6.6287 16.0186 6.51471 15.9525 6.40245C15.0071 4.79496 13.5402 3.54241 11.7903 2.88784C11.7019 2.85477 11.6128 2.82324 11.523 2.79325C10.7289 2.52818 9.88088 2.38482 9 2.38482C8.1137 2.38482 7.26062 2.52995 6.46238 2.79816C6.37513 2.82748 6.28853 2.85827 6.20262 2.8905C4.45769 3.5451 2.99475 4.79445 2.05052 6.39728C1.98662 6.50574 1.9251 6.61582 1.86603 6.72744C1.24977 7.89195 0.9 9.2245 0.9 10.6402C0.9 15.199 4.518 18.8956 9 18.8956C13.473 18.8956 17.1 15.199 17.1 10.6402C17.1 9.23134 16.7536 7.90484 16.1429 6.74434ZM4.14 0.421875L0 3.95334L1.161 5.35675L5.292 1.82529L4.14 0.421875ZM5.769 10.0898L4.815 11.0621L7.677 13.979L13.077 8.47545L12.123 7.50315L7.686 12.0436L5.769 10.0898ZM14.9959 8.66146C15.1934 9.28458 15.3 9.94954 15.3 10.6402C15.3 14.19 12.483 17.061 9 17.061C5.517 17.061 2.7 14.19 2.7 10.6402C2.7 7.09038 5.517 4.21935 9 4.21935C11.5829 4.21935 13.7996 5.79823 14.7727 8.06195C14.8566 8.2569 14.9311 8.45693 14.9959 8.66146Z" fill="#FBA04D"/>
</svg>
