<svg width="18" height="18" viewBox="0 0 18 18" fill="none" xmlns="http://www.w3.org/2000/svg">
<path d="M15.4691 16.913L15.0911 16.5359M4.57293 1.29588C4.08899 0.884612 3.41487 0.92321 3.05607 1.28121L1.43471 2.89892C1.16188 3.18844 0.997721 3.63047 1.00002 4.25662C1.00235 4.88868 1.17616 5.66623 1.53356 6.54752C2.2476 8.30826 3.65335 10.382 5.62507 12.3493C7.59865 14.3184 9.678 15.7422 11.4426 16.4647C12.3259 16.8264 13.1029 17.0011 13.7329 17C14.358 16.9988 14.7996 16.8268 15.0911 16.5359L16.7034 14.9272C17.1157 14.4443 17.077 13.7718 16.7181 13.4138L14.3204 11.0214C13.7501 10.4524 12.8259 10.7099 12.6181 11.3835L12.6142 11.3962C12.2559 12.4687 11.0924 13.0269 10.0626 12.7985L10.0479 12.7953C9.05275 12.5471 7.95936 11.8085 7.07628 10.9385C6.20018 10.0755 5.4374 8.99069 5.18242 7.95358C4.82849 6.84454 5.56832 5.71258 6.5804 5.37602L6.59302 5.37183C7.26818 5.16455 7.52623 4.24254 6.95595 3.67354L4.57293 1.29588Z" stroke="#FBA04D" stroke-width="1.5"/>
</svg>
