<svg width="17" height="20" viewBox="0 0 17 20" fill="none" xmlns="http://www.w3.org/2000/svg">
<path fill-rule="evenodd" clip-rule="evenodd" d="M5.66667 2.78033H13.6C14.3136 2.78033 14.892 3.35077 14.892 4.05445V16.3486C14.892 17.0522 14.3136 17.6227 13.6 17.6227H5.66667C4.95311 17.6227 4.37467 17.0522 4.37467 16.3486V15.2309H2.26667V16.3486C2.26667 18.2003 3.7889 19.7015 5.66667 19.7015H13.6C15.4778 19.7015 17 18.2003 17 16.3486V4.05445C17 2.20267 15.4778 0.701508 13.6 0.701508H5.66667C3.7889 0.701508 2.26667 2.20267 2.26667 4.05445V5.1721H4.37467V4.05445C4.37467 3.35077 4.95311 2.78033 5.66667 2.78033Z" fill="#FBA04D"/>
<path fill-rule="evenodd" clip-rule="evenodd" d="M5.4823 5.60274C5.37166 5.65257 5.27399 5.76867 5.22181 5.91239C5.18486 6.01413 5.1809 6.11349 5.1748 7.09076L5.16813 8.15804L0.570861 8.16952L0.441002 8.22963C0.272295 8.3077 0.145488 8.43277 0.0693259 8.59621L0.00814097 8.72748L0.00205931 10.2909C-0.00326489 11.6548 0.000306179 11.8712 0.0299355 11.9863C0.0844544 12.1978 0.216975 12.3621 0.419359 12.4688L0.527575 12.5259L5.16811 12.5374L5.17447 13.5939C5.18001 14.5145 5.18544 14.6623 5.21659 14.7428C5.31673 15.0016 5.48739 15.1184 5.74925 15.1075L5.90187 15.1011L8.37498 12.9766C9.73521 11.8081 10.9771 10.7412 11.1347 10.6057C11.2923 10.4702 11.4167 10.352 11.4111 10.3431C11.4056 10.3341 10.1634 9.2634 8.65076 7.96367C6.90782 6.46604 5.87579 5.59349 5.83301 5.58133C5.7255 5.55074 5.5777 5.55978 5.4823 5.60274Z" fill="#FBA04D"/>
</svg>
