<svg width="116" height="29" viewBox="0 0 116 29" fill="none" xmlns="http://www.w3.org/2000/svg">
<path d="M24.9877 0H0V2.58859H24.9877V0Z" fill="white"/>
<path d="M7.54116 4.51544C7.74498 4.72953 8.00994 5.0604 8.23413 5.50805C8.45833 5.93624 8.58062 6.34497 8.64176 6.63691C8.66214 6.79262 8.68253 6.9094 8.68253 6.98725H16.1014C16.1014 6.9094 16.1218 6.79262 16.1422 6.63691C16.2033 6.34497 16.3052 5.93624 16.5498 5.50805C16.774 5.0604 17.0389 4.74899 17.2428 4.51544C17.2835 4.47651 17.3243 4.43758 17.3447 4.39866H7.41887C7.45963 4.43758 7.5004 4.47651 7.54116 4.51544Z" fill="white"/>
<path d="M19.6682 5.35235C18.5268 5.35235 17.5689 6.18926 17.5689 7.22081V13.1376C17.5689 13.449 17.7319 13.7409 18.0173 13.9161L18.2618 14.0718L17.8338 14.5C17.6708 14.6752 17.5689 14.9087 17.5689 15.1423V23.1611C17.5689 23.9201 18.5064 24.3678 19.2198 23.9591L20.9318 22.6161V20.8644L19.7089 21.9349V14.8309L20.9318 14.1497V11.9893L19.7089 12.6705V7.27919H21.7471V22.0906L23.8871 20.5336V5.35235H19.6682Z" fill="white"/>
<path d="M5.15652 5.35235H0.917168V20.5336L3.05723 22.0906V7.27919H5.09538V12.6705L3.87249 11.9893V14.1497L5.09538 14.8309V21.9544L3.87249 20.8839V22.6356L5.58454 23.9785C6.29789 24.3872 7.23544 23.9396 7.23544 23.1805V15.1423C7.23544 14.9087 7.13353 14.6752 6.97048 14.5L6.54247 14.0718L6.78705 13.9161C7.07239 13.7409 7.23544 13.449 7.23544 13.1376V7.24027C7.25582 6.18926 6.29789 5.35235 5.15652 5.35235Z" fill="white"/>
<path d="M8.84558 26.8007L11.5156 29V11.3859H13.248V29L15.9383 26.8007V8.79732H8.84558V26.8007Z" fill="white"/>
<path d="M36.2445 11.1725H38.156V6.06342H40.2709V4.59263H34.1296V6.06342H36.2445V11.1725Z" fill="white"/>
<path d="M47.673 9.74039H44.0736V8.54054H47.1443V7.14716H44.0736V6.02471H47.551V4.59263H42.1418V11.1725H47.673V9.74039Z" fill="white"/>
<path d="M51.2724 11.1725L52.6552 9.23723L54.038 11.1725H56.3359L53.8753 7.72773L56.1325 4.59263H53.8753L52.6552 6.37306L51.4147 4.59263H49.1981L51.4757 7.82449L49.0355 11.1725H51.2724Z" fill="white"/>
<path d="M59.8539 8.61795H62.5178V11.1725H64.47V4.59263H62.5178V7.06975H59.8539V4.59263H57.9017V11.1725H59.8539V8.61795Z" fill="white"/>
<path d="M73.8447 6.52788C73.6617 6.12147 73.3973 5.75378 73.0516 5.44414C72.7059 5.1345 72.2992 4.88291 71.8315 4.72809C71.3638 4.55392 70.8554 4.47651 70.3063 4.47651C69.7573 4.47651 69.2489 4.55392 68.7812 4.72809C68.3134 4.90227 67.9067 5.1345 67.561 5.44414C67.2153 5.75378 66.951 6.10212 66.768 6.52788C66.5849 6.93428 66.4832 7.39874 66.4832 7.88255C66.4832 8.36636 66.5849 8.83082 66.768 9.23723C66.951 9.64363 67.2153 10.0113 67.561 10.321C67.9067 10.6306 68.3134 10.8628 68.7812 11.037C69.2489 11.2112 69.7573 11.2886 70.3063 11.2886C70.8554 11.2886 71.3638 11.2112 71.8315 11.037C72.2992 10.8628 72.7059 10.6306 73.0516 10.321C73.3973 10.0113 73.6617 9.66298 73.8447 9.23723C74.048 8.81147 74.1497 8.36636 74.1497 7.8632C74.1497 7.36003 74.048 6.93428 73.8447 6.52788ZM72.0145 8.65665C71.9128 8.88888 71.7908 9.08241 71.6281 9.25658C71.4654 9.4114 71.2621 9.54687 71.0384 9.62428C70.8147 9.72104 70.5707 9.75974 70.3063 9.75974C70.042 9.75974 69.7979 9.72104 69.5742 9.62428C69.3505 9.52751 69.1472 9.4114 68.9845 9.25658C68.8218 9.08241 68.6795 8.88888 68.5981 8.65665C68.4965 8.42442 68.4558 8.17284 68.4558 7.88255C68.4558 7.59226 68.4965 7.34068 68.5981 7.10845C68.6998 6.87622 68.8218 6.6827 68.9845 6.50852C69.1472 6.33435 69.3505 6.21824 69.5742 6.12147C69.7979 6.02471 70.042 5.98601 70.3063 5.98601C70.5707 5.98601 70.8147 6.02471 71.0384 6.12147C71.2621 6.21824 71.4654 6.33435 71.6281 6.50852C71.7908 6.66334 71.9331 6.87622 72.0145 7.10845C72.1162 7.34068 72.1568 7.59226 72.1568 7.88255C72.1772 8.17284 72.1162 8.42442 72.0145 8.65665Z" fill="white"/>
<path d="M76.7927 7.13865C76.7721 7.64764 76.7515 8.07831 76.6896 8.45026C76.6277 8.82221 76.5452 9.11585 76.4007 9.33119C76.2563 9.52695 76.05 9.64441 75.7818 9.64441C75.6993 9.64441 75.5962 9.64441 75.5137 9.62484L75.4105 11.1714C75.5755 11.2105 75.7406 11.2301 75.885 11.2497C76.0294 11.2692 76.1738 11.2692 76.3182 11.2692C76.7515 11.2692 77.1228 11.1714 77.391 10.9756C77.6798 10.7798 77.9068 10.5058 78.0512 10.1338C78.2162 9.76187 78.3194 9.33119 78.4019 8.80263C78.4844 8.27408 78.5257 7.70637 78.5463 7.06035L78.5875 5.98366H80.5887V11.1518H82.5279V4.49586H76.8959L76.7927 7.13865Z" fill="white"/>
<path d="M90.9671 10.3403C91.3128 10.0307 91.5772 9.68233 91.7602 9.25658C91.9635 8.83082 92.0652 8.38572 92.0652 7.88255C92.0652 7.37939 91.9635 6.93428 91.7602 6.52788C91.5772 6.12147 91.3128 5.75378 90.9671 5.44414C90.6214 5.1345 90.2147 4.88291 89.747 4.72809C89.2793 4.55392 88.7709 4.47651 88.2218 4.47651C87.6728 4.47651 87.1644 4.55392 86.6967 4.72809C86.229 4.90227 85.8222 5.1345 85.4765 5.44414C85.1308 5.75378 84.8665 6.10212 84.6835 6.52788C84.5004 6.95363 84.3988 7.39874 84.3988 7.88255C84.3988 8.36636 84.5004 8.83082 84.6835 9.23723C84.8665 9.64363 85.1308 10.0113 85.4765 10.321C85.8222 10.6306 86.229 10.8628 86.6967 11.037C87.1644 11.2112 87.6728 11.2886 88.2218 11.2886C88.7709 11.2886 89.2793 11.2112 89.747 11.037C90.235 10.8822 90.6214 10.65 90.9671 10.3403ZM88.9742 9.62428C88.7505 9.72104 88.5065 9.75974 88.2422 9.75974C87.9778 9.75974 87.7338 9.72104 87.5101 9.62428C87.2864 9.52751 87.083 9.4114 86.9203 9.25658C86.7577 9.08241 86.6153 8.88888 86.534 8.65665C86.4323 8.42442 86.3916 8.17284 86.3916 7.88255C86.3916 7.59226 86.4323 7.34068 86.534 7.10845C86.6357 6.87622 86.7577 6.6827 86.9203 6.50852C87.083 6.33435 87.2864 6.21824 87.5101 6.12147C87.7338 6.02471 87.9778 5.98601 88.2422 5.98601C88.5065 5.98601 88.7505 6.02471 88.9742 6.12147C89.1979 6.21824 89.4013 6.33435 89.564 6.50852C89.7266 6.66334 89.869 6.87622 89.9503 7.10845C90.052 7.34068 90.0927 7.59226 90.0927 7.88255C90.0927 8.17284 90.052 8.42442 89.9503 8.65665C89.8487 8.88888 89.7266 9.08241 89.564 9.25658C89.4013 9.4114 89.1979 9.54687 88.9742 9.62428Z" fill="white"/>
<path d="M99.1419 4.59263H94.0988V11.1725H96.0103V6.06342H99.1216L99.1419 4.59263Z" fill="white"/>
<path d="M105.67 11.1725H107.581V4.59263H105.751L102.904 8.46313V4.59263H100.992V11.1725H102.823L105.67 7.32133V11.1725Z" fill="white"/>
<path d="M111.486 9.19853L110.042 11.1918H111.73L112.95 9.43076H114.414V11.1918H116V4.57328H113.011C112.401 4.57328 111.872 4.67004 111.425 4.88292C110.977 5.07644 110.631 5.36673 110.387 5.73443C110.143 6.10213 110.021 6.52788 110.021 7.0504C110.021 7.57292 110.143 8.01802 110.387 8.38572C110.652 8.73407 111.018 9.005 111.486 9.19853ZM112.014 6.12148C112.258 5.92795 112.604 5.81184 113.072 5.81184H114.434V8.21155H113.031C112.584 8.21155 112.238 8.11479 112.014 7.90191C111.791 7.68903 111.669 7.39874 111.669 7.01169C111.648 6.62464 111.77 6.33435 112.014 6.12148Z" fill="white"/>
<path d="M39.2255 20.9419C38.8305 20.6409 38.2379 20.4903 37.4874 20.4903H35.8677V19.5307H39.344V18.2324H34.1296V24.1971H37.2504C38.0602 24.1971 38.6922 24.0278 39.1465 23.6891C39.6008 23.3504 39.8181 22.88 39.8181 22.2779C39.8378 21.6946 39.6403 21.243 39.2255 20.9419ZM37.8231 22.8047C37.6651 22.9176 37.4479 22.9741 37.1516 22.9741H35.8875V21.6946H37.1516C37.7639 21.6946 38.0602 21.9016 38.0602 22.3343C38.0602 22.5225 37.9812 22.6918 37.8231 22.8047Z" fill="white"/>
<path d="M43.7091 18.2136L40.9439 24.1783H42.7413L43.2351 23.0117H45.8818L46.3756 24.1783H48.2125L45.4473 18.2136H43.7091ZM43.7684 21.7887L44.5782 19.8694L45.388 21.7887H43.7684Z" fill="white"/>
<path d="M53.9997 20.4527H51.59V18.2136H49.8321V24.1783H51.59V21.8639H53.9997V24.1783H55.7576V18.2136H53.9997V20.4527Z" fill="white"/>
<path d="M63.915 18.2136H62.0584L60.577 20.528H59.7079V18.2136H57.9698V24.1783H59.7079V21.9016H60.5177L61.9399 24.1783H63.9348L61.9596 21.0925L63.915 18.2136Z" fill="white"/>
<path d="M69.7022 18.477C69.2875 18.3076 68.7937 18.2136 68.2209 18.2136H65.3766V24.1783H67.1345V22.6166H68.2209C68.7937 22.6166 69.2875 22.5225 69.7022 22.3532C70.117 22.165 70.433 21.9204 70.6701 21.5817C70.8873 21.243 71.0058 20.8667 71.0058 20.4151C71.0058 19.9635 70.8873 19.5683 70.6701 19.2296C70.4528 18.9098 70.1368 18.6463 69.7022 18.477ZM68.9517 21.0548C68.7739 21.2054 68.4974 21.2806 68.1221 21.2806H67.1345V19.5307H68.1221C68.4974 19.5307 68.7739 19.606 68.9517 19.7565C69.1294 19.907 69.2282 20.1328 69.2282 20.3963C69.2282 20.6973 69.1294 20.9043 68.9517 21.0548Z" fill="white"/>
<path d="M78.3337 18.985C78.0177 18.7028 77.6621 18.477 77.2276 18.3265C76.8128 18.1759 76.3585 18.1007 75.845 18.1007C75.3512 18.1007 74.8772 18.1759 74.4624 18.3265C74.0476 18.477 73.6723 18.7028 73.3563 18.985C73.0403 19.2673 72.8032 19.5872 72.6255 19.9635C72.4477 20.3398 72.3687 20.7538 72.3687 21.2054C72.3687 21.6569 72.4477 22.0709 72.6255 22.4472C72.8032 22.8236 73.0403 23.1434 73.3563 23.4445C73.6723 23.7267 74.0476 23.9337 74.4624 24.0842C74.8772 24.2348 75.3512 24.31 75.845 24.31C76.3585 24.31 76.8128 24.2348 77.2276 24.0842C77.6424 23.9337 78.0177 23.7079 78.3337 23.4445C78.6497 23.1623 78.8867 22.8424 79.0645 22.466C79.2423 22.0897 79.341 21.6758 79.341 21.2242C79.341 20.7726 79.2423 20.3586 79.0645 19.9823C78.8867 19.5872 78.6497 19.2673 78.3337 18.985ZM77.4054 21.9016C77.3264 22.1085 77.2078 22.2967 77.0498 22.4472C76.8918 22.5978 76.7141 22.7107 76.5165 22.7859C76.319 22.8612 76.1018 22.8988 75.8647 22.8988C75.6277 22.8988 75.4104 22.8612 75.1932 22.7859C74.9957 22.7107 74.8179 22.5978 74.6599 22.4472C74.5019 22.2967 74.3834 22.1085 74.3044 21.9016C74.2254 21.6946 74.1859 21.45 74.1859 21.2054C74.1859 20.9419 74.2254 20.7161 74.3044 20.5092C74.4031 20.3022 74.5216 20.114 74.6599 19.9635C74.8179 19.813 74.9957 19.7001 75.1932 19.606C75.4104 19.5307 75.6277 19.4931 75.8647 19.4931C76.1018 19.4931 76.319 19.5307 76.5165 19.606C76.7338 19.6812 76.9116 19.7941 77.0498 19.9635C77.2078 20.114 77.3264 20.2834 77.4054 20.5092C77.5041 20.7161 77.5436 20.9419 77.5436 21.2054C77.5436 21.45 77.5041 21.6946 77.4054 21.9016Z" fill="white"/>
<path d="M80.5459 19.5495H82.4618V24.1783H84.1999V19.5495H86.1158V18.2136H80.5459V19.5495Z" fill="white"/>
<path d="M89.5921 19.9635C89.7501 19.813 89.9279 19.7001 90.1451 19.606C90.3624 19.5307 90.5994 19.4931 90.8562 19.4931C91.1525 19.4931 91.429 19.5495 91.666 19.6812C91.903 19.7941 92.1401 19.9823 92.3376 20.2081L93.4634 19.2296C93.1671 18.8721 92.7721 18.5899 92.3178 18.4017C91.8635 18.2136 91.35 18.1195 90.7772 18.1195C90.2834 18.1195 89.8291 18.1948 89.3946 18.3453C88.9798 18.4958 88.6243 18.7028 88.3083 18.985C88.012 19.2673 87.775 19.5872 87.5972 19.9823C87.4194 20.3586 87.3404 20.7726 87.3404 21.2242C87.3404 21.6758 87.4194 22.0897 87.5972 22.4849C87.775 22.8612 88.012 23.1811 88.3083 23.4633C88.6243 23.7456 88.9798 23.9525 89.3946 24.1031C89.8094 24.2536 90.2834 24.3289 90.7772 24.3289C91.35 24.3289 91.8635 24.2348 92.3178 24.0466C92.7721 23.8396 93.1474 23.5762 93.4634 23.2187L92.3376 22.2403C92.1401 22.466 91.903 22.6354 91.666 22.7671C91.429 22.88 91.1525 22.9553 90.8562 22.9553C90.5994 22.9553 90.3624 22.9176 90.1451 22.8424C89.9279 22.7671 89.7501 22.6542 89.5921 22.5037C89.4341 22.3531 89.3156 22.165 89.2366 21.958C89.1576 21.751 89.1181 21.5064 89.1181 21.2618C89.1181 20.9984 89.1576 20.7726 89.2366 20.5656C89.3353 20.2834 89.4538 20.114 89.5921 19.9635Z" fill="white"/>
<path d="M94.5498 19.5495H96.4657V24.1783H98.2038V19.5495H100.12V18.2136H94.5498V19.5495Z" fill="white"/>
<path d="M106.914 21.3183C106.756 21.2054 106.578 21.1301 106.381 21.0736C106.48 21.036 106.559 20.9796 106.657 20.9231C107.053 20.6409 107.23 20.2645 107.23 19.7753C107.23 19.2861 107.013 18.891 106.598 18.6275C106.183 18.3453 105.611 18.2136 104.86 18.2136H101.818V24.1783H105.018C105.828 24.1783 106.44 24.0278 106.855 23.7267C107.29 23.4257 107.507 23.0117 107.507 22.4849C107.507 21.958 107.309 21.5817 106.914 21.3183ZM103.556 19.4178H104.682C104.939 19.4178 105.117 19.4743 105.235 19.5683C105.354 19.6624 105.413 19.813 105.413 20.0011C105.413 20.1893 105.354 20.3398 105.235 20.4527C105.117 20.5468 104.919 20.6032 104.682 20.6032H103.556V19.4178ZM105.532 22.8236C105.413 22.9176 105.216 22.9741 104.959 22.9741H103.576V21.751H104.959C105.216 21.751 105.413 21.8075 105.532 21.9016C105.67 21.9956 105.729 22.1462 105.729 22.3532C105.729 22.5601 105.65 22.7107 105.532 22.8236Z" fill="white"/>
<path d="M113.235 18.2136H111.497L108.731 24.1783H110.529L111.023 23.0117H113.669L114.163 24.1783H116L113.235 18.2136ZM111.536 21.7887L112.346 19.8882L113.156 21.7887H111.536Z" fill="white"/>
</svg>
