<svg width="183" height="86" viewBox="0 0 183 86" fill="none" xmlns="http://www.w3.org/2000/svg">
<path d="M39.3833 0.955566H0.178406V5.1948H39.3833V0.955566Z" fill="white"/>
<path d="M12.0102 8.35031C12.33 8.70093 12.7457 9.24278 13.0975 9.97588C13.4492 10.6771 13.6411 11.3465 13.737 11.8246C13.769 12.0796 13.801 12.2708 13.801 12.3983H25.4409C25.4409 12.2708 25.4729 12.0796 25.5049 11.8246C25.6008 11.3465 25.7607 10.6771 26.1445 9.97588C26.4962 9.24278 26.9119 8.7328 27.2317 8.35031C27.2957 8.28656 27.3596 8.22282 27.3916 8.15907H11.8184C11.8823 8.22282 11.9463 8.28656 12.0102 8.35031Z" fill="white"/>
<path d="M31.0371 9.72089C29.2463 9.72089 27.7434 11.0915 27.7434 12.7808V22.4705C27.7434 22.9804 27.9992 23.4585 28.4469 23.7454L28.8306 24.0004L28.1591 24.7016C27.9032 24.9885 27.7434 25.371 27.7434 25.7535V38.8855C27.7434 40.1286 29.2143 40.8617 30.3336 40.1923L33.0197 37.993V35.1244L31.101 36.8775V25.2435L33.0197 24.1279V20.5899L31.101 21.7055V12.8764H34.2988V37.1325L37.6565 34.5825V9.72089H31.0371Z" fill="white"/>
<path d="M8.26881 9.72089H1.61741V34.5825L4.97509 37.1325V12.8764H8.17288V21.7055L6.25421 20.5899V24.1279L8.17288 25.2435V36.9093L6.25421 35.1563V38.0249L8.94035 40.2242C10.0596 40.8936 11.5306 40.1605 11.5306 38.9174V25.7535C11.5306 25.371 11.3707 24.9885 11.1148 24.7016L10.4433 24.0004L10.827 23.7454C11.2747 23.4585 11.5306 22.9804 11.5306 22.4705V12.8127C11.5625 11.0915 10.0596 9.72089 8.26881 9.72089Z" fill="white"/>
<path d="M14.0568 44.8459L18.2459 48.4477V19.6018H20.964V48.4477L25.1851 44.8459V15.3626H14.0568V44.8459Z" fill="white"/>
<path d="M57.0448 19.2523H60.0439V10.8854H63.3621V8.47672H53.7266V10.8854H57.0448V19.2523Z" fill="white"/>
<path d="M74.9757 16.907H69.3284V14.9421H74.1461V12.6602H69.3284V10.822H74.7842V8.47672H66.2974V19.2523H74.9757V16.907Z" fill="white"/>
<path d="M80.623 19.2523L82.7925 16.083L84.9621 19.2523H88.5675L84.7069 13.611L88.2484 8.47672H84.7069L82.7925 11.3925L80.8463 8.47672H77.3686L80.942 13.7694L77.1134 19.2523H80.623Z" fill="white"/>
<path d="M94.0871 15.0688H98.2668V19.2523H101.33V8.47672H98.2668V12.5334H94.0871V8.47672H91.0242V19.2523H94.0871V15.0688Z" fill="white"/>
<path d="M116.038 11.646C115.751 10.9805 115.336 10.3783 114.794 9.87121C114.251 9.36412 113.613 8.95211 112.88 8.69857C112.146 8.41334 111.348 8.28656 110.487 8.28656C109.625 8.28656 108.828 8.41334 108.094 8.69857C107.36 8.98381 106.722 9.36412 106.179 9.87121C105.637 10.3783 105.222 10.9488 104.935 11.646C104.648 12.3116 104.488 13.0722 104.488 13.8645C104.488 14.6568 104.648 15.4174 104.935 16.083C105.222 16.7485 105.637 17.3507 106.179 17.8578C106.722 18.3649 107.36 18.7452 108.094 19.0304C108.828 19.3157 109.625 19.4424 110.487 19.4424C111.348 19.4424 112.146 19.3157 112.88 19.0304C113.613 18.7452 114.251 18.3649 114.794 17.8578C115.336 17.3507 115.751 16.7802 116.038 16.083C116.357 15.3858 116.517 14.6568 116.517 13.8328C116.517 13.0088 116.357 12.3116 116.038 11.646ZM113.167 15.1322C113.007 15.5125 112.816 15.8295 112.56 16.1147C112.305 16.3682 111.986 16.5901 111.635 16.7169C111.284 16.8753 110.901 16.9387 110.487 16.9387C110.072 16.9387 109.689 16.8753 109.338 16.7169C108.987 16.5584 108.668 16.3682 108.413 16.1147C108.157 15.8295 107.934 15.5125 107.807 15.1322C107.647 14.7519 107.583 14.3399 107.583 13.8645C107.583 13.3891 107.647 12.9771 107.807 12.5968C107.966 12.2165 108.157 11.8995 108.413 11.6143C108.668 11.3291 108.987 11.1389 109.338 10.9805C109.689 10.822 110.072 10.7586 110.487 10.7586C110.901 10.7586 111.284 10.822 111.635 10.9805C111.986 11.1389 112.305 11.3291 112.56 11.6143C112.816 11.8679 113.039 12.2165 113.167 12.5968C113.326 12.9771 113.39 13.3891 113.39 13.8645C113.422 14.3399 113.326 14.7519 113.167 15.1322Z" fill="white"/>
<path d="M120.664 12.6462C120.631 13.4798 120.599 14.1851 120.502 14.7942C120.405 15.4033 120.275 15.8842 120.049 16.2369C119.822 16.5575 119.498 16.7498 119.078 16.7498C118.948 16.7498 118.786 16.7498 118.657 16.7178L118.495 19.2504C118.754 19.3146 119.013 19.3466 119.239 19.3787C119.466 19.4107 119.693 19.4107 119.919 19.4107C120.599 19.4107 121.181 19.2504 121.602 18.9299C122.055 18.6093 122.411 18.1604 122.638 17.5513C122.897 16.9422 123.059 16.2369 123.188 15.3713C123.318 14.5057 123.382 13.576 123.415 12.518L123.48 10.7548H126.619V19.2184H129.662V8.31826H120.825L120.664 12.6462Z" fill="white"/>
<path d="M142.903 17.8895C143.445 17.3824 143.86 16.8119 144.147 16.1147C144.466 15.4174 144.626 14.6885 144.626 13.8645C144.626 13.0405 144.466 12.3116 144.147 11.646C143.86 10.9805 143.445 10.3783 142.903 9.87121C142.36 9.36412 141.722 8.95211 140.988 8.69857C140.255 8.41334 139.457 8.28656 138.595 8.28656C137.734 8.28656 136.936 8.41334 136.202 8.69857C135.469 8.98381 134.831 9.36412 134.288 9.87121C133.746 10.3783 133.331 10.9488 133.044 11.646C132.757 12.3432 132.597 13.0722 132.597 13.8645C132.597 14.6568 132.757 15.4174 133.044 16.083C133.331 16.7485 133.746 17.3507 134.288 17.8578C134.831 18.3649 135.469 18.7452 136.202 19.0304C136.936 19.3157 137.734 19.4424 138.595 19.4424C139.457 19.4424 140.255 19.3157 140.988 19.0304C141.754 18.7769 142.36 18.3966 142.903 17.8895ZM139.776 16.7169C139.425 16.8753 139.042 16.9387 138.627 16.9387C138.213 16.9387 137.83 16.8753 137.479 16.7169C137.128 16.5584 136.809 16.3682 136.553 16.1147C136.298 15.8295 136.075 15.5125 135.947 15.1322C135.788 14.7519 135.724 14.3399 135.724 13.8645C135.724 13.3891 135.788 12.9771 135.947 12.5968C136.107 12.2165 136.298 11.8995 136.553 11.6143C136.809 11.3291 137.128 11.1389 137.479 10.9805C137.83 10.822 138.213 10.7586 138.627 10.7586C139.042 10.7586 139.425 10.822 139.776 10.9805C140.127 11.1389 140.446 11.3291 140.701 11.6143C140.956 11.8679 141.18 12.2165 141.307 12.5968C141.467 12.9771 141.531 13.3891 141.531 13.8645C141.531 14.3399 141.467 14.7519 141.307 15.1322C141.148 15.5125 140.956 15.8295 140.701 16.1147C140.446 16.3682 140.127 16.5901 139.776 16.7169Z" fill="white"/>
<path d="M155.729 8.47672H147.816V19.2523H150.815V10.8854H155.697L155.729 8.47672Z" fill="white"/>
<path d="M165.97 19.2523H168.97V8.47672H166.098L161.631 14.8153V8.47672H158.632V19.2523H161.504L165.97 12.9454V19.2523Z" fill="white"/>
<path d="M175.095 16.0196L172.83 19.284H175.478L177.393 16.3999H179.69V19.284H182.178V8.44504H177.488C176.531 8.44504 175.702 8.6035 175 8.95212C174.298 9.26905 173.755 9.74444 173.372 10.3466C172.99 10.9488 172.798 11.646 172.798 12.5017C172.798 13.3574 172.99 14.0864 173.372 14.6885C173.787 15.259 174.362 15.7027 175.095 16.0196ZM175.925 10.9805C176.308 10.6635 176.85 10.4734 177.584 10.4734H179.722V14.4033H177.52C176.818 14.4033 176.276 14.2448 175.925 13.8962C175.574 13.5476 175.383 13.0722 175.383 12.4383C175.351 11.8045 175.542 11.3291 175.925 10.9805Z" fill="white"/>
<path d="M61.7219 35.2513C61.1021 34.7583 60.1724 34.5118 58.9948 34.5118H56.4537V32.9402H61.9078V30.814H53.7266V40.5822H58.6229C59.8935 40.5822 60.8852 40.3049 61.5979 39.7503C62.3107 39.1956 62.6516 38.4252 62.6516 37.4392C62.6826 36.4839 62.3727 35.7443 61.7219 35.2513ZM59.5216 38.302C59.2737 38.4868 58.9328 38.5793 58.468 38.5793H56.4846V36.4839H58.468C59.4287 36.4839 59.8935 36.8229 59.8935 37.5316C59.8935 37.8397 59.7695 38.1171 59.5216 38.302Z" fill="white"/>
<path d="M68.7565 30.7832L64.418 40.5514H67.238L68.0128 38.6409H72.1654L72.9401 40.5514H75.8221L71.4836 30.7832H68.7565ZM68.8495 36.638L70.1201 33.4949L71.3906 36.638H68.8495Z" fill="white"/>
<path d="M84.9021 34.4501H81.1214V30.7832H78.3633V40.5514H81.1214V36.7612H84.9021V40.5514H87.6602V30.7832H84.9021V34.4501Z" fill="white"/>
<path d="M100.459 30.7832H97.5459L95.2216 34.5734H93.8581V30.7832H91.131V40.5514H93.8581V36.8229H95.1287L97.3599 40.5514H100.49L97.3909 35.4978L100.459 30.7832Z" fill="white"/>
<path d="M109.539 31.2146C108.888 30.9373 108.113 30.7832 107.215 30.7832H102.752V40.5514H105.51V37.9938H107.215C108.113 37.9938 108.888 37.8397 109.539 37.5624C110.19 37.2543 110.685 36.8537 111.057 36.299C111.398 35.7443 111.584 35.1281 111.584 34.3885C111.584 33.649 111.398 33.0018 111.057 32.4472C110.716 31.9233 110.221 31.4919 109.539 31.2146ZM108.361 35.4362C108.082 35.6827 107.648 35.806 107.06 35.806H105.51V32.9402H107.06C107.648 32.9402 108.082 33.0635 108.361 33.31C108.64 33.5565 108.795 33.9263 108.795 34.3577C108.795 34.8507 108.64 35.1897 108.361 35.4362Z" fill="white"/>
<path d="M123.081 32.0466C122.585 31.5844 122.028 31.2146 121.346 30.9681C120.695 30.7216 119.982 30.5983 119.177 30.5983C118.402 30.5983 117.658 30.7216 117.007 30.9681C116.357 31.2146 115.768 31.5844 115.272 32.0466C114.776 32.5088 114.404 33.0327 114.125 33.6489C113.846 34.2652 113.722 34.9432 113.722 35.6827C113.722 36.4223 113.846 37.1002 114.125 37.7165C114.404 38.3328 114.776 38.8566 115.272 39.3497C115.768 39.8119 116.357 40.1508 117.007 40.3974C117.658 40.6439 118.402 40.7671 119.177 40.7671C119.982 40.7671 120.695 40.6439 121.346 40.3974C121.997 40.1508 122.585 39.7811 123.081 39.3497C123.577 38.8874 123.949 38.3636 124.228 37.7473C124.507 37.131 124.662 36.4531 124.662 35.7135C124.662 34.974 124.507 34.2961 124.228 33.6798C123.949 33.0327 123.577 32.5088 123.081 32.0466ZM121.625 36.8229C121.501 37.1618 121.315 37.47 121.067 37.7165C120.819 37.963 120.54 38.1479 120.23 38.2711C119.92 38.3944 119.579 38.456 119.208 38.456C118.836 38.456 118.495 38.3944 118.154 38.2711C117.844 38.1479 117.565 37.963 117.317 37.7165C117.069 37.47 116.883 37.1618 116.759 36.8229C116.635 36.4839 116.573 36.0833 116.573 35.6827C116.573 35.2513 116.635 34.8815 116.759 34.5426C116.914 34.2036 117.1 33.8955 117.317 33.6489C117.565 33.4024 117.844 33.2175 118.154 33.0635C118.495 32.9402 118.836 32.8786 119.208 32.8786C119.579 32.8786 119.92 32.9402 120.23 33.0635C120.571 33.1867 120.85 33.3716 121.067 33.6489C121.315 33.8955 121.501 34.1728 121.625 34.5426C121.78 34.8815 121.842 35.2513 121.842 35.6827C121.842 36.0833 121.78 36.4839 121.625 36.8229Z" fill="white"/>
<path d="M126.552 32.971H129.558V40.5514H132.285V32.971H135.291V30.7832H126.552V32.971Z" fill="white"/>
<path d="M140.745 33.6489C140.993 33.4024 141.272 33.2175 141.613 33.0635C141.954 32.9402 142.326 32.8786 142.729 32.8786C143.194 32.8786 143.627 32.971 143.999 33.1867C144.371 33.3716 144.743 33.6798 145.053 34.0495L146.819 32.4472C146.354 31.8617 145.735 31.3995 145.022 31.0913C144.309 30.7832 143.503 30.6291 142.605 30.6291C141.83 30.6291 141.117 30.7524 140.435 30.9989C139.785 31.2454 139.227 31.5844 138.731 32.0466C138.266 32.5088 137.894 33.0327 137.615 33.6798C137.336 34.2961 137.213 34.974 137.213 35.7135C137.213 36.4531 137.336 37.131 137.615 37.7781C137.894 38.3944 138.266 38.9183 138.731 39.3805C139.227 39.8427 139.785 40.1817 140.435 40.4282C141.086 40.6747 141.83 40.7979 142.605 40.7979C143.503 40.7979 144.309 40.6439 145.022 40.3357C145.735 39.9968 146.323 39.5654 146.819 38.9799L145.053 37.3775C144.743 37.7473 144.371 38.0246 143.999 38.2403C143.627 38.4252 143.194 38.5485 142.729 38.5485C142.326 38.5485 141.954 38.4869 141.613 38.3636C141.272 38.2403 140.993 38.0554 140.745 37.8089C140.497 37.5624 140.311 37.2543 140.188 36.9153C140.064 36.5763 140.002 36.1758 140.002 35.7752C140.002 35.3438 140.064 34.974 140.188 34.635C140.342 34.1728 140.528 33.8955 140.745 33.6489Z" fill="white"/>
<path d="M148.524 32.971H151.53V40.5514H154.257V32.971H157.263V30.7832H148.524V32.971Z" fill="white"/>
<path d="M167.923 35.8676C167.675 35.6827 167.396 35.5595 167.086 35.467C167.241 35.4054 167.365 35.3129 167.52 35.2205C168.14 34.7583 168.419 34.142 168.419 33.3408C168.419 32.5396 168.078 31.8925 167.427 31.4611C166.777 30.9989 165.878 30.7832 164.7 30.7832H159.928V40.5514H164.948C166.219 40.5514 167.179 40.3049 167.83 39.8119C168.512 39.3188 168.853 38.6409 168.853 37.7781C168.853 36.9153 168.543 36.299 167.923 35.8676ZM162.655 32.7553H164.421C164.824 32.7553 165.103 32.8478 165.289 33.0018C165.475 33.1559 165.568 33.4024 165.568 33.7106C165.568 34.0187 165.475 34.2652 165.289 34.4501C165.103 34.6042 164.793 34.6966 164.421 34.6966H162.655V32.7553ZM165.754 38.3328C165.568 38.4869 165.258 38.5793 164.855 38.5793H162.686V36.5763H164.855C165.258 36.5763 165.568 36.6688 165.754 36.8229C165.971 36.9769 166.064 37.2234 166.064 37.5624C166.064 37.9014 165.94 38.1479 165.754 38.3328Z" fill="white"/>
<path d="M177.84 30.7832H175.113L170.774 40.5514H173.594L174.369 38.6409H178.522L179.296 40.5514H182.178L177.84 30.7832ZM175.175 36.638L176.445 33.5257L177.716 36.638H175.175Z" fill="white"/>
<path d="M0.178406 61.4478L182.178 61.4477" stroke="#727584"/>
<path d="M182.178 77.1152V83.3126H181.074V80.4127H178.075V83.3126H176.971V77.1152H178.075V79.5868H181.074V77.1152H182.178Z" fill="white"/>
<path d="M174.224 80.5228C173.718 80.5392 173.286 80.5799 172.928 80.6452C172.574 80.7064 172.284 80.7879 172.058 80.8899C171.836 80.9919 171.673 81.1122 171.571 81.2509C171.472 81.3895 171.422 81.5445 171.422 81.7158C171.422 81.879 171.449 82.0197 171.503 82.138C171.556 82.2562 171.628 82.3541 171.719 82.4316C171.813 82.505 171.922 82.5601 172.046 82.5968C172.173 82.6294 172.309 82.6458 172.453 82.6458C172.646 82.6458 172.823 82.6274 172.984 82.5907C173.144 82.5499 173.294 82.4928 173.434 82.4194C173.578 82.346 173.714 82.2583 173.841 82.1563C173.973 82.0544 174.1 81.9381 174.224 81.8076V80.5228ZM170.676 77.99C171.021 77.6597 171.394 77.4129 171.793 77.2498C172.192 77.0866 172.634 77.005 173.119 77.005C173.469 77.005 173.78 77.0621 174.051 77.1763C174.323 77.2905 174.551 77.4496 174.736 77.6535C174.921 77.8575 175.061 78.1042 175.156 78.3938C175.25 78.6834 175.297 79.0015 175.297 79.3482V83.3126H174.81C174.703 83.3126 174.621 83.2963 174.563 83.2637C174.506 83.227 174.46 83.1576 174.427 83.0557L174.304 82.4683C174.14 82.6192 173.979 82.7538 173.823 82.8721C173.666 82.9863 173.502 83.0842 173.329 83.1658C173.156 83.2433 172.971 83.3024 172.774 83.3432C172.58 83.3881 172.364 83.4105 172.126 83.4105C171.883 83.4105 171.655 83.3779 171.441 83.3126C171.227 83.2433 171.04 83.1413 170.879 83.0067C170.723 82.8721 170.598 82.7029 170.503 82.4989C170.413 82.2909 170.367 82.0462 170.367 81.7648C170.367 81.5201 170.435 81.2855 170.571 81.0612C170.707 80.8328 170.927 80.6309 171.231 80.4555C171.536 80.2802 171.933 80.1374 172.422 80.0273C172.912 79.9131 173.512 79.8478 174.224 79.8315V79.3482C174.224 78.8669 174.119 78.5039 173.909 78.2592C173.699 78.0104 173.393 77.886 172.99 77.886C172.718 77.886 172.49 77.9207 172.305 77.99C172.124 78.0553 171.965 78.1307 171.83 78.2164C171.698 78.298 171.583 78.3734 171.484 78.4428C171.39 78.508 171.295 78.5406 171.2 78.5406C171.126 78.5406 171.063 78.5223 171.009 78.4856C170.956 78.4448 170.91 78.3958 170.873 78.3387L170.676 77.99Z" fill="white"/>
<path d="M167.515 82.5173V77.9717H165.534C165.493 78.6079 165.435 79.1708 165.361 79.6602C165.287 80.1496 165.201 80.5799 165.102 80.9511C165.007 81.3182 164.9 81.6302 164.781 81.8871C164.666 82.1441 164.544 82.3541 164.417 82.5173H167.515ZM169.724 82.4867V85.1113C169.724 85.2173 169.693 85.2989 169.631 85.356C169.573 85.4172 169.497 85.4478 169.403 85.4478H168.73V83.3126H163.473V85.1357C163.473 85.2132 163.448 85.2846 163.399 85.3499C163.354 85.4151 163.277 85.4478 163.171 85.4478H162.479V82.5173H162.683C162.827 82.5173 162.969 82.4928 163.109 82.4439C163.253 82.3949 163.391 82.3031 163.522 82.1686C163.654 82.0299 163.777 81.8361 163.892 81.5874C164.012 81.3386 164.119 81.0143 164.213 80.6146C164.308 80.2149 164.39 79.7295 164.46 79.1585C164.53 78.5835 164.586 77.9023 164.627 77.1152H168.582V82.4867H169.724Z" fill="white"/>
<path d="M162.182 83.3126H161.417C161.22 83.3126 161.067 83.282 160.96 83.2208C160.858 83.1597 160.777 83.0638 160.72 82.9333L159.504 81.0062C159.303 80.688 159.013 80.529 158.634 80.529H158.005V83.3187H156.937V80.529H156.314C156.129 80.529 155.96 80.5697 155.808 80.6513C155.66 80.7329 155.539 80.8512 155.444 81.0062L154.229 82.9333C154.167 83.0638 154.083 83.1597 153.976 83.2208C153.873 83.282 153.723 83.3126 153.525 83.3126H152.766L154.407 80.7492C154.514 80.5697 154.636 80.4249 154.772 80.3148C154.907 80.2047 155.074 80.1211 155.271 80.064C155.115 80.015 154.981 79.9437 154.87 79.8499C154.763 79.752 154.663 79.6276 154.568 79.4767L152.939 77.1152H153.803C153.91 77.1152 154.006 77.1437 154.093 77.2008C154.179 77.2538 154.247 77.3272 154.296 77.4211L155.623 79.3788C155.714 79.5134 155.823 79.6174 155.95 79.6908C156.078 79.7601 156.228 79.7948 156.401 79.7948H156.937V77.1152H158.005V79.7948H158.529C158.879 79.7948 159.142 79.6561 159.319 79.3788L160.646 77.4211C160.695 77.3272 160.763 77.2538 160.849 77.2008C160.94 77.1437 161.039 77.1152 161.146 77.1152H162.009L160.38 79.4767C160.286 79.6276 160.183 79.752 160.072 79.8499C159.965 79.9437 159.833 80.015 159.677 80.064C159.874 80.1211 160.041 80.2047 160.177 80.3148C160.313 80.4249 160.434 80.5697 160.541 80.7492L162.182 83.3126Z" fill="white"/>
<path d="M150.735 80.5228C150.229 80.5392 149.797 80.5799 149.439 80.6452C149.086 80.7064 148.796 80.7879 148.569 80.8899C148.347 80.9919 148.185 81.1122 148.082 81.2509C147.983 81.3895 147.934 81.5445 147.934 81.7158C147.934 81.879 147.961 82.0197 148.014 82.138C148.068 82.2562 148.139 82.3541 148.23 82.4316C148.325 82.505 148.434 82.5601 148.557 82.5968C148.685 82.6294 148.82 82.6458 148.964 82.6458C149.158 82.6458 149.334 82.6274 149.495 82.5907C149.655 82.5499 149.806 82.4928 149.945 82.4194C150.089 82.346 150.225 82.2583 150.353 82.1563C150.484 82.0544 150.612 81.9381 150.735 81.8076V80.5228ZM147.187 77.99C147.533 77.6597 147.905 77.4129 148.304 77.2498C148.703 77.0866 149.145 77.005 149.631 77.005C149.98 77.005 150.291 77.0621 150.562 77.1763C150.834 77.2905 151.062 77.4496 151.247 77.6535C151.432 77.8575 151.572 78.1042 151.667 78.3938C151.762 78.6834 151.809 79.0015 151.809 79.3482V83.3126H151.321C151.214 83.3126 151.132 83.2963 151.075 83.2637C151.017 83.227 150.972 83.1576 150.939 83.0557L150.815 82.4683C150.651 82.6192 150.49 82.7538 150.334 82.8721C150.178 82.9863 150.013 83.0842 149.84 83.1658C149.668 83.2433 149.483 83.3024 149.285 83.3432C149.092 83.3881 148.876 83.4105 148.637 83.4105C148.395 83.4105 148.166 83.3779 147.952 83.3126C147.738 83.2433 147.551 83.1413 147.391 83.0067C147.234 82.8721 147.109 82.7029 147.014 82.4989C146.924 82.2909 146.879 82.0462 146.879 81.7648C146.879 81.5201 146.947 81.2855 147.082 81.0612C147.218 80.8328 147.438 80.6309 147.743 80.4555C148.047 80.2802 148.444 80.1374 148.933 80.0273C149.423 79.9131 150.024 79.8478 150.735 79.8315V79.3482C150.735 78.8669 150.63 78.5039 150.42 78.2592C150.211 78.0104 149.904 77.886 149.501 77.886C149.23 77.886 149.001 77.9207 148.816 77.99C148.635 78.0553 148.477 78.1307 148.341 78.2164C148.209 78.298 148.094 78.3734 147.996 78.4428C147.901 78.508 147.806 78.5406 147.712 78.5406C147.638 78.5406 147.574 78.5223 147.52 78.4856C147.467 78.4448 147.422 78.3958 147.385 78.3387L147.187 77.99Z" fill="white"/>
<path d="M141.547 81.8198C141.748 82.089 141.968 82.2787 142.207 82.3888C142.445 82.4989 142.713 82.554 143.009 82.554C143.593 82.554 144.041 82.348 144.354 81.9361C144.667 81.5241 144.823 80.9368 144.823 80.1741C144.823 79.7703 144.786 79.4237 144.712 79.1341C144.642 78.8445 144.539 78.6079 144.403 78.4244C144.268 78.2368 144.101 78.1001 143.904 78.0145C143.706 77.9288 143.482 77.886 143.231 77.886C142.873 77.886 142.559 77.9676 142.287 78.1307C142.02 78.2939 141.773 78.5243 141.547 78.8221V81.8198ZM141.491 78.0757C141.754 77.7535 142.059 77.4945 142.404 77.2987C142.75 77.1029 143.145 77.005 143.589 77.005C143.951 77.005 144.278 77.0744 144.57 77.2131C144.862 77.3476 145.111 77.5495 145.317 77.8187C145.522 78.0838 145.681 78.4142 145.792 78.8098C145.903 79.2055 145.958 79.6602 145.958 80.1741C145.958 80.6309 145.897 81.0571 145.773 81.4528C145.65 81.8443 145.471 82.1849 145.236 82.4745C145.006 82.76 144.722 82.9863 144.385 83.1535C144.052 83.3167 143.675 83.3983 143.256 83.3983C142.873 83.3983 142.544 83.335 142.268 83.2086C141.997 83.0781 141.756 82.8986 141.547 82.6702V85.4111H140.442V77.1152H141.102C141.259 77.1152 141.355 77.1906 141.392 77.3415L141.491 78.0757Z" fill="white"/>
<path d="M139.398 77.9472H136.449V83.3126H135.344V77.1152H139.398V77.9472Z" fill="white"/>
<path d="M131.216 77.1152L127.73 85.1419C127.693 85.2234 127.646 85.2887 127.588 85.3376C127.535 85.3866 127.45 85.411 127.335 85.411H126.521L127.662 82.9516L125.083 77.1152H126.033C126.128 77.1152 126.202 77.1396 126.255 77.1886C126.313 77.2334 126.352 77.2844 126.373 77.3415L128.045 81.2447C128.111 81.4161 128.166 81.5955 128.211 81.7831C128.269 81.5914 128.331 81.4099 128.396 81.2386L130.019 77.3415C130.044 77.2763 130.085 77.2232 130.143 77.1825C130.204 77.1376 130.272 77.1152 130.346 77.1152H131.216Z" fill="white"/>
<path d="M122.27 82.5479C122.682 82.5479 123.007 82.4541 123.245 82.2664C123.484 82.0747 123.603 81.8137 123.603 81.4833C123.603 81.3365 123.58 81.204 123.535 81.0857C123.49 80.9633 123.416 80.8573 123.313 80.7676C123.21 80.6778 123.072 80.6085 122.9 80.5595C122.731 80.5106 122.523 80.4861 122.276 80.4861H120.925V82.5479H122.27ZM120.925 77.8493V79.7948H122.128C122.309 79.7948 122.476 79.7703 122.628 79.7214C122.784 79.6684 122.918 79.597 123.029 79.5073C123.14 79.4135 123.227 79.3033 123.288 79.1769C123.35 79.0464 123.381 78.9036 123.381 78.7486C123.381 78.6344 123.36 78.5243 123.319 78.4183C123.278 78.3082 123.208 78.2123 123.109 78.1307C123.011 78.0451 122.881 77.9778 122.721 77.9288C122.56 77.8758 122.363 77.8493 122.128 77.8493H120.925ZM122.159 77.1152C122.546 77.1152 122.877 77.1539 123.153 77.2314C123.428 77.3089 123.654 77.4149 123.831 77.5495C124.008 77.68 124.138 77.835 124.22 78.0145C124.302 78.194 124.343 78.3856 124.343 78.5896C124.343 78.7242 124.325 78.8649 124.288 79.0117C124.251 79.1585 124.185 79.2993 124.09 79.4338C124 79.5684 123.875 79.6908 123.714 79.8009C123.558 79.907 123.36 79.9906 123.122 80.0518C123.599 80.1333 123.967 80.2985 124.226 80.5473C124.485 80.792 124.615 81.1163 124.615 81.5201C124.615 81.8219 124.553 82.0849 124.43 82.3093C124.311 82.5295 124.144 82.7151 123.93 82.866C123.72 83.0169 123.473 83.1291 123.19 83.2025C122.906 83.2759 122.601 83.3126 122.276 83.3126H119.87V77.1152H122.159Z" fill="white"/>
<path d="M118.823 77.9472H116.422V83.3126H115.324V77.9472H112.924V77.1152H118.823V77.9472Z" fill="white"/>
<path d="M112.084 78.2164C112.051 78.2613 112.018 78.2959 111.985 78.3204C111.952 78.3449 111.907 78.3571 111.85 78.3571C111.788 78.3571 111.72 78.3326 111.646 78.2837C111.572 78.2307 111.479 78.1736 111.368 78.1124C111.261 78.0512 111.128 77.9961 110.967 77.9472C110.811 77.8942 110.618 77.8677 110.387 77.8677C110.079 77.8677 109.807 77.9227 109.573 78.0329C109.338 78.1389 109.141 78.2939 108.98 78.4978C108.824 78.7017 108.705 78.9485 108.622 79.2381C108.544 79.5277 108.505 79.8519 108.505 80.2108C108.505 80.5861 108.548 80.9205 108.635 81.2142C108.721 81.5037 108.843 81.7485 108.999 81.9483C109.159 82.1441 109.351 82.295 109.573 82.401C109.799 82.503 110.052 82.554 110.332 82.554C110.599 82.554 110.819 82.5234 110.992 82.4622C111.165 82.397 111.307 82.3256 111.418 82.2481C111.533 82.1706 111.627 82.1013 111.701 82.0401C111.78 81.9748 111.856 81.9422 111.93 81.9422C112.02 81.9422 112.09 81.9769 112.14 82.0462L112.448 82.4439C112.312 82.6111 112.158 82.7538 111.985 82.8721C111.813 82.9904 111.625 83.0903 111.424 83.1719C111.226 83.2494 111.019 83.3065 110.801 83.3432C110.583 83.3799 110.36 83.3983 110.134 83.3983C109.743 83.3983 109.379 83.3269 109.042 83.1841C108.709 83.0414 108.419 82.8354 108.172 82.5662C107.925 82.293 107.732 81.9585 107.592 81.5629C107.452 81.1673 107.382 80.7166 107.382 80.2108C107.382 79.7499 107.446 79.3237 107.573 78.9322C107.705 78.5406 107.894 78.2042 108.141 77.9227C108.392 77.6372 108.699 77.4149 109.061 77.2559C109.427 77.0968 109.846 77.0173 110.319 77.0173C110.759 77.0173 111.146 77.0887 111.479 77.2314C111.817 77.3701 112.115 77.5679 112.374 77.8248L112.084 78.2164Z" fill="white"/>
<path d="M106.94 77.9472H104.539V83.3126H103.441V77.9472H101.041V77.1152H106.94V77.9472Z" fill="white"/>
<path d="M97.6301 77.0173C98.0867 77.0173 98.4981 77.0927 98.8642 77.2436C99.2303 77.3945 99.5429 77.6087 99.8021 77.886C100.061 78.1634 100.259 78.4999 100.394 78.8955C100.534 79.287 100.604 79.7255 100.604 80.2108C100.604 80.7003 100.534 81.1407 100.394 81.5323C100.259 81.9238 100.061 82.2583 99.8021 82.5356C99.5429 82.813 99.2303 83.0271 98.8642 83.178C98.4981 83.3248 98.0867 83.3983 97.6301 83.3983C97.1694 83.3983 96.7539 83.3248 96.3837 83.178C96.0176 83.0271 95.7049 82.813 95.4458 82.5356C95.1866 82.2583 94.9871 81.9238 94.8472 81.5323C94.7115 81.1407 94.6436 80.7003 94.6436 80.2108C94.6436 79.7255 94.7115 79.287 94.8472 78.8955C94.9871 78.4999 95.1866 78.1634 95.4458 77.886C95.7049 77.6087 96.0176 77.3945 96.3837 77.2436C96.7539 77.0927 97.1694 77.0173 97.6301 77.0173ZM97.6301 82.5479C98.2471 82.5479 98.7079 82.3439 99.0123 81.9361C99.3167 81.5241 99.4689 80.9511 99.4689 80.2169C99.4689 79.4787 99.3167 78.9036 99.0123 78.4917C98.7079 78.0798 98.2471 77.8738 97.6301 77.8738C97.3175 77.8738 97.0439 77.9268 96.8094 78.0329C96.5791 78.1389 96.3857 78.2918 96.2294 78.4917C96.0772 78.6915 95.962 78.9383 95.8839 79.232C95.8098 79.5215 95.7728 79.8499 95.7728 80.2169C95.7728 80.9511 95.925 81.5241 96.2294 81.9361C96.5379 82.3439 97.0048 82.5479 97.6301 82.5479Z" fill="white"/>
<path d="M89.1942 81.8198C89.3958 82.089 89.6159 82.2787 89.8545 82.3888C90.0931 82.4989 90.3604 82.554 90.6566 82.554C91.2408 82.554 91.6891 82.348 92.0018 81.9361C92.3144 81.5241 92.4707 80.9368 92.4707 80.1741C92.4707 79.7703 92.4337 79.4237 92.3597 79.1341C92.2897 78.8445 92.1869 78.6079 92.0511 78.4244C91.9154 78.2368 91.7488 78.1001 91.5513 78.0145C91.3539 77.9288 91.1297 77.886 90.8788 77.886C90.5209 77.886 90.2062 77.9676 89.9347 78.1307C89.6673 78.2939 89.4205 78.5243 89.1942 78.8221V81.8198ZM89.1387 78.0757C89.402 77.7535 89.7064 77.4945 90.0519 77.2987C90.3975 77.1029 90.7924 77.005 91.2366 77.005C91.5986 77.005 91.9257 77.0744 92.2177 77.2131C92.5098 77.3476 92.7587 77.5495 92.9644 77.8187C93.17 78.0838 93.3284 78.4142 93.4395 78.8098C93.5506 79.2055 93.6061 79.6602 93.6061 80.1741C93.6061 80.6309 93.5444 81.0571 93.421 81.4528C93.2976 81.8443 93.1186 82.1849 92.8841 82.4745C92.6538 82.76 92.3699 82.9863 92.0326 83.1535C91.6994 83.3167 91.323 83.3983 90.9034 83.3983C90.5209 83.3983 90.1918 83.335 89.9162 83.2086C89.6447 83.0781 89.404 82.8986 89.1942 82.6702V85.4111H88.0897V77.1152H88.75C88.9063 77.1152 89.0029 77.1906 89.04 77.3415L89.1387 78.0757Z" fill="white"/>
<path d="M85.4972 77.4211C85.5548 77.3313 85.6309 77.2579 85.7255 77.2008C85.8201 77.1437 85.9209 77.1152 86.0278 77.1152H86.8855L85.2627 79.4767C85.164 79.6276 85.0611 79.752 84.9542 79.8499C84.8472 79.9437 84.7156 80.0171 84.5593 80.0701C84.7567 80.1231 84.9233 80.2067 85.0591 80.3209C85.1948 80.4311 85.3162 80.5738 85.4231 80.7492L87.0645 83.3126H86.2993C86.1019 83.3126 85.9497 83.28 85.8427 83.2147C85.7358 83.1495 85.6432 83.0557 85.565 82.9333L84.3495 81.0062C84.1561 80.688 83.8661 80.529 83.4794 80.529H82.8069V83.3187H81.7023V77.1152H82.8069V79.7948H83.3992C83.7283 79.7948 83.9854 79.6561 84.1705 79.3788L85.4972 77.4211Z" fill="white"/>
<path d="M79.9564 77.1152V83.3126H78.8519V80.4127H75.8531V83.3126H74.7486V77.1152H75.8531V79.5868H78.8519V77.1152H79.9564Z" fill="white"/>
<path d="M72.0018 80.5228C71.4959 80.5392 71.0639 80.5799 70.706 80.6452C70.3523 80.7064 70.0623 80.7879 69.836 80.8899C69.6139 80.9919 69.4514 81.1122 69.3485 81.2509C69.2498 81.3895 69.2005 81.5445 69.2005 81.7158C69.2005 81.879 69.2272 82.0197 69.2807 82.138C69.3342 82.2562 69.4061 82.3541 69.4966 82.4316C69.5913 82.505 69.7003 82.5601 69.8237 82.5968C69.9512 82.6294 70.087 82.6458 70.2309 82.6458C70.4243 82.6458 70.6012 82.6274 70.7616 82.5907C70.922 82.5499 71.0722 82.4928 71.212 82.4194C71.356 82.346 71.4917 82.2583 71.6193 82.1563C71.7509 82.0544 71.8784 81.9381 72.0018 81.8076V80.5228ZM68.4538 77.99C68.7994 77.6597 69.1717 77.4129 69.5707 77.2498C69.9697 77.0866 70.4119 77.005 70.8973 77.005C71.247 77.005 71.5576 77.0621 71.8291 77.1763C72.1006 77.2905 72.3289 77.4496 72.514 77.6535C72.6991 77.8575 72.839 78.1042 72.9336 78.3938C73.0282 78.6834 73.0755 79.0015 73.0755 79.3482V83.3126H72.588C72.4811 83.3126 72.3988 83.2963 72.3412 83.2637C72.2836 83.227 72.2384 83.1576 72.2055 83.0557L72.0821 82.4683C71.9175 82.6192 71.7571 82.7538 71.6008 82.8721C71.4444 82.9863 71.2799 83.0842 71.1071 83.1658C70.9344 83.2433 70.7492 83.3024 70.5518 83.3432C70.3584 83.3881 70.1425 83.4105 69.9039 83.4105C69.6612 83.4105 69.4329 83.3779 69.219 83.3126C69.0051 83.2433 68.8179 83.1413 68.6575 83.0067C68.5011 82.8721 68.3757 82.7029 68.2811 82.4989C68.1906 82.2909 68.1453 82.0462 68.1453 81.7648C68.1453 81.5201 68.2132 81.2855 68.3489 81.0612C68.4847 80.8328 68.7048 80.6309 69.0092 80.4555C69.3136 80.2802 69.7105 80.1374 70.2001 80.0273C70.6896 79.9131 71.2902 79.8478 72.0018 79.8315V79.3482C72.0018 78.8669 71.8969 78.5039 71.6871 78.2592C71.4774 78.0104 71.1709 77.886 70.7678 77.886C70.4963 77.886 70.2679 77.9207 70.0828 77.99C69.9018 78.0553 69.7435 78.1307 69.6077 78.2164C69.4761 78.298 69.3609 78.3734 69.2622 78.4428C69.1676 78.508 69.0729 78.5406 68.9783 78.5406C68.9043 78.5406 68.8405 78.5223 68.787 78.4856C68.7336 78.4448 68.6883 78.3958 68.6513 78.3387L68.4538 77.99Z" fill="white"/>
<path d="M64.2152 82.5907C64.8323 82.5907 65.2971 82.397 65.6097 82.0095C65.9265 81.6179 66.0849 81.0714 66.0849 80.3699C66.0849 79.6724 65.9327 79.128 65.6283 78.7364C65.328 78.3449 64.8755 78.1491 64.2708 78.1491C63.9787 78.1491 63.7154 78.196 63.4809 78.2898C63.2465 78.3795 63.047 78.5121 62.8824 78.6875C62.722 78.8628 62.5965 79.079 62.506 79.336C62.4196 79.5929 62.3764 79.8866 62.3764 80.2169C62.3764 80.5881 62.4155 80.9205 62.4937 81.2142C62.5718 81.5078 62.687 81.7566 62.8392 81.9605C62.9955 82.1645 63.1868 82.3215 63.4131 82.4316C63.6434 82.5377 63.9108 82.5907 64.2152 82.5907ZM64.641 75.6591C64.2214 75.6958 63.8615 75.7876 63.5612 75.9344C63.265 76.0812 63.0182 76.2811 62.8207 76.534C62.6233 76.7828 62.4752 77.0825 62.3764 77.4333C62.2777 77.7841 62.2201 78.1797 62.2037 78.6202C62.3024 78.4244 62.4299 78.249 62.5862 78.094C62.7425 77.935 62.9215 77.8004 63.1231 77.6902C63.3246 77.576 63.5426 77.4904 63.7771 77.4333C64.0157 77.3721 64.2687 77.3415 64.5361 77.3415C64.9516 77.3415 65.3239 77.4149 65.6529 77.5618C65.9861 77.7045 66.2679 77.9085 66.4983 78.1736C66.7328 78.4387 66.9117 78.7588 67.0351 79.1341C67.1585 79.5052 67.2202 79.9172 67.2202 80.3699C67.2202 80.8308 67.1482 81.2488 67.0043 81.6241C66.8644 81.9952 66.6628 82.3133 66.3996 82.5785C66.1363 82.8395 65.8195 83.0414 65.4493 83.1841C65.0832 83.3269 64.6718 83.3983 64.2152 83.3983C63.7956 83.3983 63.4028 83.3289 63.0367 83.1902C62.6706 83.0516 62.3538 82.8232 62.0864 82.505C61.819 82.1869 61.6072 81.7689 61.4509 81.2509C61.2987 80.7288 61.2226 80.0864 61.2226 79.3237C61.2226 78.6711 61.2822 78.0716 61.4015 77.5251C61.5208 76.9785 61.7121 76.5034 61.9754 76.0996C62.2427 75.6958 62.5862 75.3716 63.0058 75.1268C63.4295 74.878 63.9437 74.7271 64.5484 74.6741L66.7821 74.4845L66.8438 75.0473C66.8562 75.1737 66.8377 75.2798 66.7883 75.3654C66.7389 75.4511 66.6505 75.498 66.523 75.5062L64.641 75.6591Z" fill="white"/>
<path d="M53.8706 77.0173C54.3272 77.0173 54.7386 77.0927 55.1047 77.2436C55.4708 77.3945 55.7834 77.6087 56.0426 77.886C56.3017 78.1634 56.4992 78.4999 56.6349 78.8955C56.7748 79.287 56.8447 79.7255 56.8447 80.2108C56.8447 80.7003 56.7748 81.1407 56.6349 81.5323C56.4992 81.9238 56.3017 82.2583 56.0426 82.5356C55.7834 82.813 55.4708 83.0271 55.1047 83.178C54.7386 83.3248 54.3272 83.3983 53.8706 83.3983C53.4099 83.3983 52.9944 83.3248 52.6242 83.178C52.258 83.0271 51.9454 82.813 51.6863 82.5356C51.4271 82.2583 51.2276 81.9238 51.0877 81.5323C50.952 81.1407 50.8841 80.7003 50.8841 80.2108C50.8841 79.7255 50.952 79.287 51.0877 78.8955C51.2276 78.4999 51.4271 78.1634 51.6863 77.886C51.9454 77.6087 52.258 77.3945 52.6242 77.2436C52.9944 77.0927 53.4099 77.0173 53.8706 77.0173ZM53.8706 82.5479C54.4876 82.5479 54.9484 82.3439 55.2528 81.9361C55.5572 81.5241 55.7094 80.9511 55.7094 80.2169C55.7094 79.4787 55.5572 78.9036 55.2528 78.4917C54.9484 78.0798 54.4876 77.8738 53.8706 77.8738C53.558 77.8738 53.2844 77.9268 53.0499 78.0329C52.8196 78.1389 52.6262 78.2918 52.4699 78.4917C52.3177 78.6915 52.2025 78.9383 52.1244 79.232C52.0503 79.5215 52.0133 79.8499 52.0133 80.2169C52.0133 80.9511 52.1655 81.5241 52.4699 81.9361C52.7784 82.3439 53.2453 82.5479 53.8706 82.5479Z" fill="white"/>
<path d="M49.4899 83.3126H48.3854V77.9472H45.3865V83.3126H44.282V77.1152H49.4899V83.3126Z" fill="white"/>
<path d="M39.5814 78.2164C39.5485 78.2613 39.5156 78.2959 39.4827 78.3204C39.4498 78.3449 39.4045 78.3571 39.3469 78.3571C39.2852 78.3571 39.2173 78.3326 39.1433 78.2837C39.0692 78.2307 38.9767 78.1736 38.8656 78.1124C38.7587 78.0512 38.625 77.9961 38.4645 77.9472C38.3082 77.8942 38.1149 77.8677 37.8845 77.8677C37.576 77.8677 37.3045 77.9227 37.07 78.0329C36.8355 78.1389 36.6381 78.2939 36.4777 78.4978C36.3213 78.7017 36.202 78.9485 36.1198 79.2381C36.0416 79.5277 36.0025 79.8519 36.0025 80.2108C36.0025 80.5861 36.0457 80.9205 36.1321 81.2142C36.2185 81.5037 36.3399 81.7485 36.4962 81.9483C36.6566 82.1441 36.8479 82.295 37.07 82.401C37.2963 82.503 37.5493 82.554 37.829 82.554C38.0964 82.554 38.3165 82.5234 38.4892 82.4622C38.662 82.397 38.8039 82.3256 38.915 82.2481C39.0302 82.1706 39.1248 82.1013 39.1988 82.0401C39.277 81.9748 39.3531 81.9422 39.4271 81.9422C39.5176 81.9422 39.5876 81.9769 39.6369 82.0462L39.9454 82.4439C39.8097 82.6111 39.6554 82.7538 39.4827 82.8721C39.3099 82.9904 39.1227 83.0903 38.9212 83.1719C38.7237 83.2494 38.516 83.3065 38.2979 83.3432C38.0799 83.3799 37.8578 83.3983 37.6315 83.3983C37.2407 83.3983 36.8767 83.3269 36.5394 83.1841C36.2062 83.0414 35.9162 82.8354 35.6693 82.5662C35.4225 82.293 35.2292 81.9585 35.0893 81.5629C34.9495 81.1673 34.8795 80.7166 34.8795 80.2108C34.8795 79.7499 34.9433 79.3237 35.0708 78.9322C35.2024 78.5406 35.3917 78.2042 35.6385 77.9227C35.8894 77.6372 36.1959 77.4149 36.5579 77.2559C36.924 77.0968 37.3436 77.0173 37.8166 77.0173C38.2568 77.0173 38.6435 77.0887 38.9767 77.2314C39.314 77.3701 39.6122 77.5679 39.8714 77.8248L39.5814 78.2164Z" fill="white"/>
<path d="M33.4949 77.1152V83.3126H32.3966V79.1035C32.3966 79.0219 32.4007 78.9342 32.4089 78.8404C32.4172 78.7466 32.4274 78.6528 32.4398 78.559C32.4028 78.6406 32.3657 78.716 32.3287 78.7853C32.2917 78.8547 32.2526 78.9179 32.2115 78.975L29.1941 83.0434C29.1489 83.1087 29.0913 83.1719 29.0214 83.2331C28.9555 83.2902 28.8815 83.3187 28.7992 83.3187H28.1328V77.1213H29.2373V81.3304C29.2373 81.4079 29.2332 81.4935 29.225 81.5874C29.2168 81.6771 29.2065 81.7689 29.1941 81.8627C29.2311 81.7852 29.2682 81.7138 29.3052 81.6485C29.3422 81.5792 29.3792 81.516 29.4163 81.4589L32.4336 77.3905C32.4789 77.3252 32.5364 77.264 32.6064 77.2069C32.6763 77.1457 32.7524 77.1152 32.8347 77.1152H33.4949Z" fill="white"/>
<path d="M24.4109 82.5479C24.8222 82.5479 25.1472 82.4541 25.3858 82.2664C25.6244 82.0747 25.7437 81.8137 25.7437 81.4833C25.7437 81.3365 25.7211 81.204 25.6758 81.0857C25.6306 80.9633 25.5565 80.8573 25.4537 80.7676C25.3508 80.6778 25.213 80.6085 25.0403 80.5595C24.8716 80.5106 24.6639 80.4861 24.417 80.4861H23.0657V82.5479H24.4109ZM23.0657 77.8493V79.7948H24.269C24.45 79.7948 24.6166 79.7703 24.7688 79.7214C24.9251 79.6684 25.0588 79.597 25.1698 79.5073C25.2809 79.4135 25.3673 79.3033 25.429 79.1769C25.4907 79.0464 25.5216 78.9036 25.5216 78.7486C25.5216 78.6344 25.501 78.5243 25.4599 78.4183C25.4187 78.3082 25.3488 78.2123 25.2501 78.1307C25.1513 78.0451 25.0218 77.9778 24.8613 77.9288C24.7009 77.8758 24.5034 77.8493 24.269 77.8493H23.0657ZM24.2998 77.1152C24.6865 77.1152 25.0176 77.1539 25.2933 77.2314C25.5689 77.3089 25.7951 77.4149 25.972 77.5495C26.1489 77.68 26.2785 77.835 26.3607 78.0145C26.443 78.194 26.4841 78.3856 26.4841 78.5896C26.4841 78.7242 26.4656 78.8649 26.4286 79.0117C26.3916 79.1585 26.3258 79.2993 26.2312 79.4338C26.1407 79.5684 26.0152 79.6908 25.8548 79.8009C25.6984 79.907 25.501 79.9906 25.2624 80.0518C25.7396 80.1333 26.1077 80.2985 26.3669 80.5473C26.6261 80.792 26.7556 81.1163 26.7556 81.5201C26.7556 81.8219 26.6939 82.0849 26.5705 82.3093C26.4512 82.5295 26.2846 82.7151 26.0707 82.866C25.8609 83.0169 25.6141 83.1291 25.3303 83.2025C25.0464 83.2759 24.742 83.3126 24.417 83.3126H22.0106V77.1152H24.2998Z" fill="white"/>
<path d="M16.2095 81.8198C16.4111 82.089 16.6311 82.2787 16.8697 82.3888C17.1083 82.4989 17.3757 82.554 17.6719 82.554C18.256 82.554 18.7044 82.348 19.017 81.9361C19.3297 81.5241 19.486 80.9368 19.486 80.1741C19.486 79.7703 19.449 79.4237 19.3749 79.1341C19.305 78.8445 19.2022 78.6079 19.0664 78.4244C18.9307 78.2368 18.7641 78.1001 18.5666 78.0145C18.3692 77.9288 18.145 77.886 17.894 77.886C17.5361 77.886 17.2214 77.9676 16.9499 78.1307C16.6826 78.2939 16.4357 78.5243 16.2095 78.8221V81.8198ZM16.154 78.0757C16.4172 77.7535 16.7216 77.4945 17.0672 77.2987C17.4127 77.1029 17.8076 77.005 18.2519 77.005C18.6139 77.005 18.9409 77.0744 19.233 77.2131C19.5251 77.3476 19.774 77.5495 19.9796 77.8187C20.1853 78.0838 20.3437 78.4142 20.4548 78.8098C20.5658 79.2055 20.6214 79.6602 20.6214 80.1741C20.6214 80.6309 20.5597 81.0571 20.4362 81.4528C20.3128 81.8443 20.1339 82.1849 19.8994 82.4745C19.6691 82.76 19.3852 82.9863 19.0479 83.1535C18.7147 83.3167 18.3383 83.3983 17.9187 83.3983C17.5361 83.3983 17.2071 83.335 16.9314 83.2086C16.6599 83.0781 16.4193 82.8986 16.2095 82.6702V85.4111H15.105V77.1152H15.7652C15.9215 77.1152 16.0182 77.1906 16.0552 77.3415L16.154 78.0757Z" fill="white"/>
<path d="M12.7686 79.5379C12.7686 79.285 12.7316 79.0545 12.6575 78.8465C12.5876 78.6344 12.4827 78.4529 12.3429 78.302C12.2071 78.1471 12.0405 78.0288 11.843 77.9472C11.6456 77.8615 11.4214 77.8187 11.1705 77.8187C10.6439 77.8187 10.2264 77.9717 9.91787 78.2776C9.61346 78.5794 9.42423 78.9995 9.35019 79.5379H12.7686ZM13.6572 82.4439C13.5214 82.607 13.3589 82.7498 13.1697 82.8721C12.9805 82.9904 12.7768 83.0883 12.5588 83.1658C12.3449 83.2433 12.1228 83.3004 11.8924 83.3371C11.662 83.3779 11.4337 83.3983 11.2075 83.3983C10.7756 83.3983 10.3765 83.3269 10.0104 83.1841C9.64843 83.0373 9.33373 82.8252 9.06635 82.5479C8.80308 82.2664 8.59739 81.9198 8.4493 81.5078C8.30121 81.0959 8.22717 80.6228 8.22717 80.0885C8.22717 79.6561 8.29299 79.2524 8.42462 78.8771C8.56037 78.5019 8.75371 78.1776 9.00464 77.9044C9.25557 77.627 9.56204 77.4109 9.92404 77.2559C10.286 77.0968 10.6933 77.0173 11.1458 77.0173C11.5201 77.0173 11.8657 77.0805 12.1824 77.2069C12.5033 77.3293 12.7789 77.5087 13.0093 77.7453C13.2437 77.9778 13.4268 78.2674 13.5584 78.6141C13.6901 78.9567 13.7559 79.3482 13.7559 79.7887C13.7559 79.96 13.7374 80.0742 13.7003 80.1313C13.6633 80.1884 13.5934 80.2169 13.4906 80.2169H9.31317C9.32551 80.6085 9.37898 80.9491 9.4736 81.2386C9.57232 81.5282 9.70807 81.7709 9.88085 81.9667C10.0536 82.1584 10.2593 82.3032 10.4979 82.401C10.7365 82.4948 11.0039 82.5418 11.3 82.5418C11.5757 82.5418 11.8122 82.5112 12.0096 82.45C12.2112 82.3847 12.384 82.3154 12.528 82.242C12.6719 82.1686 12.7912 82.1013 12.8858 82.0401C12.9846 81.9748 13.0689 81.9422 13.1388 81.9422C13.2293 81.9422 13.2993 81.9769 13.3486 82.0462L13.6572 82.4439Z" fill="white"/>
<path d="M6.92887 81.5017C6.99469 81.5017 7.05228 81.5282 7.10164 81.5812L7.57676 82.089C7.21476 82.505 6.77461 82.8293 6.25629 83.0618C5.74209 83.2943 5.11887 83.4105 4.38665 83.4105C3.75315 83.4105 3.17724 83.3024 2.65892 83.0862C2.14061 82.866 1.69839 82.5601 1.33228 82.1686C0.966165 81.7729 0.682325 81.2998 0.480757 80.7492C0.27919 80.1986 0.178406 79.5929 0.178406 78.9322C0.178406 78.2714 0.283303 77.6658 0.493098 77.1152C0.702893 76.5646 0.997017 76.0914 1.37547 75.6958C1.75804 75.3002 2.21465 74.9943 2.74531 74.7781C3.27597 74.5579 3.86216 74.4478 4.50388 74.4478C5.13327 74.4478 5.68861 74.5477 6.1699 74.7475C6.6512 74.9474 7.0749 75.2186 7.44101 75.5612L7.04611 76.1057C7.02142 76.1465 6.98851 76.1812 6.94738 76.2097C6.91036 76.2342 6.85894 76.2464 6.79312 76.2464C6.71907 76.2464 6.62857 76.2077 6.52162 76.1302C6.41466 76.0486 6.2748 75.9589 6.10203 75.861C5.92926 75.7631 5.71329 75.6754 5.45413 75.5979C5.19497 75.5163 4.87617 75.4756 4.49771 75.4756C4.0411 75.4756 3.62357 75.5551 3.24511 75.7142C2.86666 75.8691 2.53963 76.0955 2.26401 76.3932C1.99251 76.691 1.78066 77.054 1.62846 77.4822C1.47625 77.9105 1.40015 78.3938 1.40015 78.9322C1.40015 79.4787 1.47831 79.9661 1.63463 80.3944C1.79506 80.8226 2.01103 81.1856 2.28253 81.4834C2.55814 81.777 2.88106 82.0013 3.25128 82.1563C3.62562 82.3113 4.02876 82.3888 4.46069 82.3888C4.72396 82.3888 4.9605 82.3745 5.17029 82.346C5.3842 82.3133 5.5796 82.2644 5.75648 82.1991C5.93748 82.1339 6.10408 82.0523 6.25629 81.9544C6.41261 81.8525 6.56687 81.7321 6.71907 81.5935C6.789 81.5323 6.85894 81.5017 6.92887 81.5017Z" fill="white"/>
</svg>
