<svg width="17" height="16" viewBox="0 0 17 16" fill="none" xmlns="http://www.w3.org/2000/svg">
<path fill-rule="evenodd" clip-rule="evenodd" d="M1.84141 13.2524L1.86446 14.9751L15.4501 14.7859L15.4269 13.0514L15.404 12.9725C15.3324 12.7259 15.1669 12.5346 15.0237 12.4001C14.8694 12.2553 14.678 12.1188 14.4687 11.9921C14.0485 11.7379 13.4991 11.489 12.8828 11.2713C11.6519 10.8365 10.0786 10.5 8.59897 10.5206C7.11928 10.5412 5.55549 10.9214 4.33628 11.3918C3.7259 11.6274 3.183 11.8927 2.76949 12.1605C2.56342 12.2939 2.37555 12.4368 2.22512 12.5873C2.08493 12.7276 1.92588 12.9248 1.86168 13.1737L1.84141 13.2524ZM1.93898 13.2645L1.96051 14.8744H1.96069L1.93915 13.2645L1.95604 13.199C2.01365 12.9756 2.1581 12.7938 2.29348 12.6583C2.43743 12.5143 2.61926 12.3755 2.82184 12.2444C3.22815 11.9813 3.76464 11.7187 4.37088 11.4848C5.42118 11.0795 6.7281 10.7421 8.01265 10.6463C6.72805 10.7421 5.42108 11.0795 4.37073 11.4848C3.76448 11.7187 3.22799 11.9813 2.82168 12.2444C2.61909 12.3755 2.43726 12.5143 2.29331 12.6583C2.15793 12.7938 2.01348 12.9756 1.95587 13.199L1.93898 13.2645ZM8.6003 10.6199C8.60033 10.6199 8.60036 10.6199 8.60039 10.6199C8.60039 10.6199 8.60039 10.6199 8.6004 10.6199C8.60036 10.6199 8.60033 10.6199 8.6003 10.6199ZM12.0627 3.67652C12.0896 5.6806 10.5207 7.32574 8.55659 7.3531C6.5925 7.38046 4.98019 5.77963 4.95338 3.77555C4.92657 1.77147 6.49545 0.126337 8.45953 0.0989774C10.4236 0.0716179 12.0359 1.67244 12.0627 3.67652ZM11.1619 3.68907C11.142 2.19838 9.93277 0.997813 8.47183 1.01816C7.01089 1.03851 5.83428 2.27231 5.85422 3.76301C5.87417 5.2537 7.08335 6.45426 8.54429 6.43391C10.0052 6.41356 11.1818 5.17976 11.1619 3.68907ZM0.941508 13.3356C0.935043 12.8524 1.16145 12.3818 1.63959 11.919C2.12175 11.4524 2.8206 11.0355 3.6425 10.6861C5.28723 9.98711 7.27832 9.6196 8.58667 9.60138C9.89502 9.58315 11.8952 9.89507 13.558 10.548C14.389 10.8743 15.0987 11.2716 15.5932 11.7247C16.0835 12.174 16.3224 12.638 16.3289 13.1213L16.3571 15.2329C16.3605 15.4843 16.1593 15.6953 15.9129 15.6988L1.42633 15.9006C1.17993 15.904 0.973125 15.6987 0.969761 15.4473L0.941508 13.3356ZM12.1601 3.67517C12.1877 5.73413 10.5758 7.42436 8.55792 7.45247C8.5402 7.45272 8.52251 7.45284 8.50484 7.45283C8.52254 7.45284 8.54026 7.45272 8.55801 7.45247C10.5759 7.42436 12.1877 5.73413 12.1602 3.67517C12.1332 1.6588 10.544 0.0397302 8.58306 0C10.544 0.0397797 12.1332 1.65883 12.1601 3.67517ZM8.47325 1.11754C8.47322 1.11754 8.47319 1.11754 8.47316 1.11754C7.066 1.13714 5.9324 2.32584 5.95161 3.76165C5.97065 5.18486 7.11544 6.33381 8.50596 6.33479C7.1155 6.33376 5.97078 5.18482 5.95174 3.76165C5.93253 2.32584 7.06611 1.13714 8.47325 1.11754ZM1.41722 16C1.42075 16 1.42429 16 1.42784 15.9999H1.42766C1.42417 16 1.42069 16 1.41722 16ZM15.4584 11.4796C14.9694 11.087 14.3253 10.7428 13.593 10.4553C12.3403 9.96336 10.8985 9.66368 9.69879 9.5516C10.8985 9.66368 12.3403 9.96337 13.593 10.4553C14.3253 10.7428 14.9694 11.087 15.4584 11.4796ZM8.58543 9.50201C8.75047 9.49971 8.92632 9.50261 9.11096 9.51072L8.58543 9.50201Z" fill="#757575"/>
</svg>
