<svg width="13" height="20" viewBox="0 0 13 20" fill="none" xmlns="http://www.w3.org/2000/svg">
<path d="M7.27513 13.693C7.34758 13.7701 7.39801 13.8274 7.45186 13.8813C7.88684 14.3167 8.3228 14.751 8.75778 15.1864C9.25568 15.6853 9.75259 16.1852 10.2505 16.684C10.403 16.8368 10.5623 16.9829 10.7094 17.1406C11.0965 17.5545 11.0977 18.1753 10.646 18.6408C10.1996 19.1013 9.48553 19.0839 9.08971 18.668C8.45205 17.998 7.78599 17.3555 7.13168 16.7014C6.92704 16.4968 6.71995 16.2943 6.51801 16.0872C6.44947 16.017 6.40027 16.0106 6.32708 16.0846C5.77337 16.6427 5.21625 17.1973 4.66034 17.7532C4.35485 18.0587 4.05303 18.3679 3.74313 18.6687C3.27217 19.1262 2.65213 19.1052 2.1934 18.6345C2.00712 18.4435 1.87861 18.2342 1.85022 17.965C1.81497 17.6309 1.91778 17.3486 2.15326 17.1131C3.26042 16.0062 4.36807 14.8998 5.47498 13.7929C5.49946 13.7684 5.51978 13.7395 5.56188 13.6889C5.39763 13.6651 5.25933 13.6465 5.12176 13.625C4.28239 13.4933 3.45306 13.3212 2.69497 12.9166C2.2524 12.6803 1.83235 12.4052 1.45391 12.073C1.35355 11.9849 1.26127 11.8845 1.18024 11.7781C0.94476 11.4689 0.960916 11.136 1.10877 10.7967C1.25784 10.4548 1.48598 10.1995 1.86637 10.1143C2.2076 10.0376 2.5126 10.1444 2.79778 10.3155C2.99654 10.4347 3.18013 10.5791 3.37522 10.7049C3.82244 10.9933 4.31911 11.1632 4.83095 11.2895C5.33815 11.4146 5.85587 11.5022 6.37677 11.4951C6.79755 11.4892 7.22127 11.4332 7.63692 11.3612C8.31619 11.2437 8.96242 11.0214 9.54477 10.6413C9.71514 10.5302 9.87082 10.3948 10.0468 10.2942C10.4135 10.0844 10.7963 10.0004 11.1988 10.208C11.6073 10.4188 11.8915 11.0197 11.7833 11.4669C11.7287 11.6926 11.5863 11.8696 11.4164 12.018C10.7391 12.6084 9.98685 13.0673 9.1159 13.3182C8.57077 13.4754 8.01707 13.5868 7.45431 13.6553C7.40364 13.6607 7.35346 13.6759 7.27513 13.693Z" fill="#727584"/>
<path d="M6.39733 10.0824C3.89882 10.1035 1.84777 8.01769 1.85976 5.52603C1.87176 3.01577 3.95487 0.949298 6.50773 1.00095C8.91812 1.0499 10.988 3.05151 10.9513 5.61709C10.9158 8.09308 8.86377 10.1133 6.39733 10.0824ZM4.14433 5.52897C4.12402 6.74628 5.10756 7.80791 6.39684 7.81085C7.66115 7.81354 8.62682 6.81629 8.66819 5.63373C8.71372 4.32512 7.69052 3.29629 6.43992 3.2772C5.17169 3.25786 4.14899 4.27029 4.14433 5.52897Z" fill="#727584"/>
<path d="M7.27513 13.693C7.34758 13.7701 7.39801 13.8274 7.45186 13.8813C7.88684 14.3167 8.3228 14.751 8.75778 15.1864C9.25568 15.6853 9.75259 16.1852 10.2505 16.684C10.403 16.8368 10.5623 16.9829 10.7094 17.1406C11.0965 17.5545 11.0977 18.1753 10.646 18.6408C10.1996 19.1013 9.48553 19.0839 9.08971 18.668C8.45205 17.998 7.78599 17.3555 7.13168 16.7014C6.92704 16.4968 6.71995 16.2943 6.51801 16.0872C6.44947 16.017 6.40027 16.0106 6.32708 16.0846C5.77337 16.6427 5.21625 17.1973 4.66034 17.7532C4.35485 18.0587 4.05303 18.3679 3.74313 18.6687C3.27217 19.1262 2.65213 19.1052 2.1934 18.6345C2.00712 18.4435 1.87861 18.2342 1.85022 17.965C1.81497 17.6309 1.91778 17.3486 2.15326 17.1131C3.26042 16.0062 4.36807 14.8998 5.47498 13.7929C5.49946 13.7684 5.51978 13.7395 5.56188 13.6889C5.39763 13.6651 5.25933 13.6465 5.12176 13.625C4.28239 13.4933 3.45306 13.3212 2.69497 12.9166C2.2524 12.6803 1.83235 12.4052 1.45391 12.073C1.35355 11.9849 1.26127 11.8845 1.18024 11.7781C0.94476 11.4689 0.960916 11.136 1.10877 10.7967C1.25784 10.4548 1.48598 10.1995 1.86637 10.1143C2.2076 10.0376 2.5126 10.1444 2.79778 10.3155C2.99654 10.4347 3.18013 10.5791 3.37522 10.7049C3.82244 10.9933 4.31911 11.1632 4.83095 11.2895C5.33815 11.4146 5.85587 11.5022 6.37677 11.4951C6.79755 11.4892 7.22127 11.4332 7.63692 11.3612C8.31619 11.2437 8.96242 11.0214 9.54477 10.6413C9.71514 10.5302 9.87082 10.3948 10.0468 10.2942C10.4135 10.0844 10.7963 10.0004 11.1988 10.208C11.6073 10.4188 11.8915 11.0197 11.7833 11.4669C11.7287 11.6926 11.5863 11.8696 11.4164 12.018C10.7391 12.6084 9.98685 13.0673 9.1159 13.3182C8.57077 13.4754 8.01707 13.5868 7.45431 13.6553C7.40364 13.6607 7.35346 13.6759 7.27513 13.693Z" stroke="#727584" stroke-width="0.5"/>
<path d="M6.39733 10.0824C3.89882 10.1035 1.84777 8.01769 1.85976 5.52603C1.87176 3.01577 3.95487 0.949298 6.50773 1.00095C8.91812 1.0499 10.988 3.05151 10.9513 5.61709C10.9158 8.09308 8.86377 10.1133 6.39733 10.0824ZM4.14433 5.52897C4.12402 6.74628 5.10756 7.80791 6.39684 7.81085C7.66115 7.81354 8.62682 6.81629 8.66819 5.63373C8.71372 4.32512 7.69052 3.29629 6.43992 3.2772C5.17169 3.25786 4.14899 4.27029 4.14433 5.52897Z" stroke="#727584" stroke-width="0.5"/>
</svg>
