<svg width="104" height="25" viewBox="0 0 104 25" fill="none" xmlns="http://www.w3.org/2000/svg">
<path fill-rule="evenodd" clip-rule="evenodd" d="M11.8018 0.0601267C9.52507 0.229697 7.48588 0.916625 5.59428 2.15127C4.86399 2.6279 4.58144 2.85095 3.94101 3.45601C1.73926 5.53617 0.458973 8.04207 0.0559453 11.0602C-0.0620964 11.9443 0.0157237 13.955 0.204403 14.8964C0.989099 18.8109 3.58964 22.1132 7.21295 23.7962C11.5049 25.7897 16.5656 25.2795 20.3452 22.4722C20.9915 21.9921 22.1743 20.8567 22.6256 20.2833C24.3641 18.0736 25.2443 15.6778 25.3366 12.9033C25.4078 10.7641 24.9765 8.81388 24.0158 6.93125C22.1979 3.36911 18.783 0.870937 14.8309 0.212097C14.3618 0.133843 12.5923 -0.0240141 12.4888 0.00309265C12.4717 0.00763088 12.1625 0.0332653 11.8018 0.0601267ZM13.4098 0.731601C13.7869 0.916687 13.9899 1.11858 14.2097 1.52702C14.3785 1.84077 14.3696 2.57811 14.193 2.90688C14.0228 3.22395 13.7162 3.52672 13.3978 3.6923C13.0384 3.87923 12.3117 3.87794 11.9496 3.68973C11.5857 3.50066 11.3063 3.20653 11.1287 2.8255C10.8398 2.20591 11.0351 1.38216 11.5737 0.948823C12.1334 0.498496 12.779 0.422143 13.4098 0.731601ZM14.3625 4.51403C16.9085 4.97546 19.2201 6.83086 20.2585 9.24642C20.729 10.3411 20.8652 10.9536 20.9034 12.1474C20.9551 13.7638 20.7674 14.6912 20.105 16.0923C19.9525 16.4148 19.4162 17.2952 19.2817 17.4438C19.2383 17.4918 19.0483 17.7046 18.8594 17.9168C17.7855 19.123 16.3364 19.982 14.6123 20.4343C13.9375 20.6113 13.8243 20.6229 12.7387 20.6266C11.2337 20.6317 10.5728 20.4994 9.2472 19.9279C6.89318 18.913 5.06453 16.6663 4.56357 14.1735C3.80467 10.397 5.68422 6.72556 9.20117 5.11443C9.90773 4.7908 10.9983 4.47907 11.5989 4.42909L12.0517 4.39144V6.53403V8.67669L11.6354 8.78561C10.2885 9.13799 9.26207 10.1559 8.89489 11.5031C8.6703 12.3274 8.826 13.54 9.24995 14.2676C9.99936 15.5537 11.2073 16.2456 12.7031 16.2456C14.8695 16.2456 16.5485 14.596 16.5485 12.4672C16.5485 11.8182 16.4622 11.4216 16.1975 10.8546C15.8662 10.1447 15.3819 9.61469 14.6731 9.18638C14.3685 9.0024 14.0464 8.87919 13.3164 8.66749C13.2559 8.64995 13.2383 8.18159 13.2383 6.59346C13.2383 5.46522 13.2542 4.50134 13.2737 4.45148C13.3141 4.34814 13.5086 4.3593 14.3625 4.51403ZM29.3832 7.6394C28.686 7.72335 28.1592 7.97486 27.7424 8.42267C27.0938 9.11947 27.0219 9.57268 27.0556 12.7499C27.0779 14.8658 27.0953 15.215 27.1929 15.5097C27.4252 16.2107 27.7593 16.6601 28.2643 16.9507C28.8815 17.3058 28.9107 17.309 31.8064 17.3338C34.3369 17.3555 34.5064 17.35 34.985 17.2312C36.0546 16.9656 36.6412 16.3494 36.8729 15.248C37.0115 14.5892 37.0167 10.4779 36.8799 9.77562C36.6443 8.56673 35.9116 7.84901 34.7231 7.66295C34.3507 7.60463 29.8372 7.58469 29.3832 7.6394ZM38.0836 7.77413C38.0692 7.87121 38.0499 8.33553 38.0409 8.80597C38.0279 9.48081 38.0429 9.67639 38.1122 9.73281C38.1737 9.78298 38.7589 9.80922 40.0684 9.82063L41.9368 9.83688L41.9529 13.6238L41.969 17.4108H43.061H44.153L44.1691 13.6238L44.1852 9.83688L46.0589 9.80622L47.9326 9.77555V8.70232V7.62909L43.0213 7.61339L38.1101 7.5977L38.0836 7.77413ZM62.2974 7.66669C61.5812 7.76855 60.9031 8.20582 60.5464 8.79585C60.1975 9.37282 60.1739 9.60568 60.1739 12.474C60.1739 15.3118 60.1847 15.4211 60.5276 16.0812C60.8363 16.6754 61.5282 17.1464 62.2933 17.2833C62.5185 17.3235 63.6332 17.3493 65.135 17.349C67.3154 17.3486 67.6625 17.3353 68.0851 17.236C68.8766 17.05 69.4351 16.6187 69.7448 15.9543C70.0438 15.3132 70.0878 14.7842 70.0574 12.1982C70.0264 9.56949 70.0054 9.41127 69.6002 8.75623C69.2368 8.16884 68.6195 7.78891 67.8248 7.66344C67.3379 7.58659 62.842 7.58923 62.2974 7.66669ZM71.3015 7.63934C71.2786 7.66178 71.2598 9.85694 71.2598 12.5174V17.3547L75.1477 17.3368L79.0356 17.3188L79.4911 17.1554C80.5794 16.7649 81.0573 16.0265 81.1135 14.6481C81.1378 14.0516 81.1209 13.863 81.0065 13.4523C80.9317 13.184 80.8012 12.8479 80.7164 12.7053L80.5621 12.4461L80.7285 12.1992C81.2203 11.4695 81.2641 9.81088 80.8145 8.94543C80.627 8.58457 80.1888 8.14063 79.8334 7.95143C79.2122 7.62075 78.9039 7.59843 74.9578 7.59843C72.9697 7.59843 71.3243 7.61683 71.3015 7.63934ZM82.2952 7.63787C82.2714 7.66117 82.2521 9.86957 82.2521 12.5455V17.4108H83.3688H84.4855L84.7553 17.0582C84.9038 16.8642 85.3386 16.3192 85.7217 15.847C86.1047 15.3747 87.1834 14.0363 88.1188 12.8726C89.0541 11.7089 89.845 10.7477 89.8762 10.7366C89.9098 10.7245 89.9397 12.0806 89.9492 14.0482L89.9654 17.3802H91.0583H92.1513L92.1683 12.6273C92.1776 10.0132 92.17 7.81234 92.1514 7.73642C92.1181 7.5999 92.1061 7.59843 91.0369 7.59843H89.9559L89.6205 8.01239C89.4359 8.24004 89.1409 8.60573 88.9649 8.82498C88.7888 9.04422 88.2551 9.70656 87.7787 10.2968C87.3024 10.8871 86.7124 11.6184 86.4676 11.922C86.2229 12.2256 85.6941 12.881 85.2925 13.3785C84.891 13.8761 84.5347 14.2831 84.5008 14.2831C84.4611 14.2831 84.4333 13.0945 84.423 10.9561L84.4068 7.62909L83.3725 7.61235C82.8037 7.60309 82.3188 7.61462 82.2952 7.63787ZM93.286 7.63934C93.263 7.66178 93.2443 9.86957 93.2443 12.5455V17.4108L94.2436 17.42C94.7932 17.425 95.2781 17.432 95.321 17.4353C95.3812 17.4401 95.4062 17.0086 95.4303 15.5403L95.4615 13.6392L96.5969 13.6225L97.7322 13.6058L99.2091 15.4109C100.021 16.4037 100.719 17.2589 100.759 17.3113C100.821 17.3913 101.032 17.4081 102.069 17.4158C102.75 17.4208 103.318 17.4131 103.333 17.3986C103.348 17.384 102.892 16.7944 102.32 16.0883C101.748 15.3822 100.877 14.3076 100.385 13.7005C99.8929 13.0934 99.4901 12.5622 99.4901 12.5201C99.49 12.478 100.032 11.7743 100.695 10.9562C101.357 10.1382 102.207 9.08832 102.584 8.62309C102.96 8.15786 103.278 7.73703 103.289 7.68785C103.306 7.61186 103.125 7.59843 102.089 7.59843H100.87L99.3591 9.45358C98.5283 10.4739 97.8049 11.3433 97.7517 11.3854C97.6493 11.4664 95.7274 11.4995 95.5264 11.4238C95.4357 11.3897 95.4255 11.1948 95.4306 9.5993C95.4338 8.6169 95.4349 7.76475 95.4333 7.70575C95.4305 7.60794 95.3374 7.59843 94.3789 7.59843C93.8007 7.59843 93.3088 7.61683 93.286 7.63934ZM49.1255 7.71121C49.0691 7.80063 49.0741 9.75581 49.1308 9.81143C49.1606 9.84068 50.8002 9.87215 52.7745 9.88141C56.2526 9.89766 56.3693 9.90201 56.5316 10.0209C56.7491 10.1801 56.8327 10.3648 56.8316 10.683C56.8305 10.9955 56.7342 11.1934 56.5002 11.3642C56.3344 11.4851 56.2255 11.4946 54.6577 11.5234L52.9915 11.554L52.9744 12.6067L52.9574 13.6594L54.6295 13.68C56.1483 13.6986 56.3177 13.7112 56.4766 13.8169C56.9623 14.1402 56.9523 14.9826 56.4599 15.2327C56.3023 15.3126 55.7732 15.3257 52.6851 15.3257H49.0937L49.0753 16.3742C49.0646 16.9791 49.0814 17.4377 49.1151 17.458C49.2261 17.5252 56.6602 17.4732 57.0199 17.4028C57.8445 17.2413 58.5148 16.7655 58.8229 16.1229C58.9742 15.8074 58.9847 15.7263 58.9859 14.8657C58.9873 13.8831 58.931 13.5691 58.6563 13.0262C58.4829 12.6836 58.4859 12.6597 58.8029 11.8607C58.94 11.5152 58.979 11.2996 59.0026 10.7568C59.0374 9.95377 58.9586 9.47609 58.7092 8.9783C58.3483 8.25807 57.7308 7.8503 56.8124 7.72593C56.2301 7.64706 49.1743 7.63351 49.1255 7.71121ZM78.5565 9.88692C79.0592 10.1563 79.0716 10.99 78.5773 11.2918C78.3517 11.4295 78.3172 11.4316 76.0406 11.4502C74.7712 11.4606 73.6681 11.4532 73.5892 11.4337C73.4489 11.3991 73.4458 11.3813 73.4458 10.6074C73.4458 10.0329 73.4671 9.80751 73.5239 9.78377C73.5668 9.7658 74.6699 9.7566 75.9753 9.76335C78.1365 9.77445 78.3671 9.78549 78.5565 9.88692ZM34.3297 9.98775C34.7479 10.238 34.7544 10.278 34.7544 12.5966V14.6817L34.6045 14.888C34.3394 15.2531 34.2604 15.2644 31.9615 15.2641C29.0282 15.2638 29.2583 15.496 29.2583 12.5353C29.2583 10.6369 29.2684 10.4319 29.3716 10.2462C29.5725 9.88472 29.6575 9.87257 32.0063 9.87018C34.0047 9.86816 34.1416 9.87509 34.3297 9.98775ZM67.4314 9.98775C67.8196 10.2201 67.8248 10.2545 67.8245 12.5782C67.8243 14.5799 67.8182 14.6916 67.6982 14.8847C67.4718 15.2495 67.3685 15.2644 65.0631 15.2641C63.1129 15.2639 62.9721 15.2565 62.7848 15.1444C62.3543 14.8866 62.3599 14.9203 62.3599 12.5687C62.3599 10.6381 62.3699 10.4321 62.4732 10.2462C62.6741 9.88472 62.7591 9.87257 65.1079 9.87018C67.1063 9.86816 67.2432 9.87509 67.4314 9.98775ZM78.5485 13.7287C79.0595 14.0346 79.0754 14.7899 78.5773 15.0941C78.3495 15.2331 78.3387 15.2337 75.9128 15.2337H73.477L73.4593 14.5013C73.4496 14.0985 73.4557 13.7329 73.473 13.6887C73.4981 13.6246 73.9887 13.6086 75.9265 13.6088C78.2186 13.6089 78.3593 13.6154 78.5485 13.7287Z" fill="#B74746"/>
</svg>
