<svg width="35" height="32" viewBox="0 0 35 32" fill="none" xmlns="http://www.w3.org/2000/svg">
<path fill-rule="evenodd" clip-rule="evenodd" d="M16.2292 28.2696C22.6273 28.5238 28.0795 23.8699 28.9285 17.6748L32.7164 14.6089C32.7737 15.2747 32.7899 15.9518 32.7625 16.6374C32.4087 25.4672 24.9393 32.3391 16.0802 31.9871C7.22102 31.635 0.325248 24.1924 0.679043 15.3626C1.03284 6.53276 8.50217 -0.339078 17.3614 0.0129427C20.8841 0.15292 24.0951 1.41334 26.6644 3.43645L23.6718 5.85868C21.8253 4.59943 19.612 3.82573 17.2124 3.73038C10.4121 3.46017 4.67994 8.73486 4.40844 15.5108C4.13694 22.2867 9.42883 27.9994 16.2292 28.2696Z" fill="#A8A8A8"/>
<path fill-rule="evenodd" clip-rule="evenodd" d="M34.3304 8.22527C34.3133 8.18411 34.3476 8.26642 34.3304 8.22527L31.7517 5.02857L16.0548 17.8323L11.5708 12.615L8.66601 15.5108L15.7519 23.3219C15.7703 23.3936 34.3304 8.22527 34.3304 8.22527Z" fill="#A8A8A8"/>
</svg>
