<svg width="44" height="32" viewBox="0 0 44 32" fill="none" xmlns="http://www.w3.org/2000/svg">
<path fill-rule="evenodd" clip-rule="evenodd" d="M42.5393 17.8286C39.2206 19.0928 31.3444 21.0285 21.9989 21.0285C12.7041 21.0285 4.99181 19.4625 1.56066 17.8286L1.55999 14.7617C4.52884 16.1754 12.9934 18.2856 21.9989 18.2856C30.9392 18.2856 39.4579 15.8922 42.5393 14.7183V17.8286Z" fill="#A8A8A8"/>
<path fill-rule="evenodd" clip-rule="evenodd" d="M5.54213 10.0571C5.03719 10.0571 4.62785 10.4665 4.62785 10.9714V27.4286C4.62785 27.9335 5.03719 28.3429 5.54213 28.3429H38.4564C38.9614 28.3429 39.3707 27.9335 39.3707 27.4286V10.9714C39.3707 10.4665 38.9614 10.0571 38.4564 10.0571H5.54213ZM5.54213 6.4C3.0174 6.4 0.970703 8.4467 0.970703 10.9714V27.4286C0.970703 29.9533 3.0174 32 5.54213 32H38.4564C40.9811 32 43.0278 29.9533 43.0278 27.4286V10.9714C43.0278 8.4467 40.9811 6.4 38.4564 6.4H5.54213Z" fill="#A8A8A8"/>
<path fill-rule="evenodd" clip-rule="evenodd" d="M16.5136 3.65714V5.48571H27.485V3.65714H16.5136ZM15.5993 0C14.0844 0 12.8564 1.22802 12.8564 2.74286V6.4C12.8564 7.91484 14.0844 9.14286 15.5993 9.14286H28.3993C29.9141 9.14286 31.1421 7.91484 31.1421 6.4V2.74286C31.1421 1.22802 29.9141 0 28.3993 0H15.5993Z" fill="#A8A8A8"/>
<path d="M16.5136 17.3714C16.5136 16.8665 16.9229 16.4571 17.4278 16.4571H26.5707C27.0756 16.4571 27.485 16.8665 27.485 17.3714V21.0286C27.485 21.5335 27.0756 21.9429 26.5707 21.9429H17.4278C16.9229 21.9429 16.5136 21.5335 16.5136 21.0286V17.3714Z" fill="#A8A8A8"/>
</svg>
