<svg width="36" height="35" viewBox="0 0 36 35" fill="none" xmlns="http://www.w3.org/2000/svg">
<path d="M35.1785 17.5C35.1785 27.165 27.3435 35 17.6785 35C8.01355 35 0.178528 27.165 0.178528 17.5C0.178528 7.83502 8.01355 0 17.6785 0C27.3435 0 35.1785 7.83502 35.1785 17.5Z" fill="#FB964D"/>
<path d="M19.123 27.3333H16.3452V24.5714H19.123V27.3333ZM21.998 16.631L20.748 17.9014C19.748 18.9095 19.123 19.7381 19.123 21.8095H16.3452V21.119C16.3452 19.6 16.9702 18.219 17.9702 17.211L19.6924 15.471C20.2063 14.9738 20.5119 14.2833 20.5119 13.5238C20.5119 12.0048 19.2619 10.7619 17.7341 10.7619C16.2063 10.7619 14.9563 12.0048 14.9563 13.5238H12.1785C12.1785 10.4719 14.6646 8 17.7341 8C20.8035 8 23.2896 10.4719 23.2896 13.5238C23.2896 14.739 22.7896 15.8438 21.998 16.631Z" fill="white"/>
</svg>
