<svg width="18" height="18" viewBox="0 0 18 18" fill="none" xmlns="http://www.w3.org/2000/svg">
<path fill-rule="evenodd" clip-rule="evenodd" d="M0.178467 7.70261C0.178467 3.94659 3.22229 0.90332 6.979 0.90332C10.7357 0.90332 13.7795 3.94659 13.7795 7.70261C13.7795 9.28245 13.2436 10.7328 12.3413 11.8865L11.8246 12.5473L11.1636 13.064C10.0097 13.966 8.55912 14.5019 6.979 14.5019C3.22229 14.5019 0.178467 11.4586 0.178467 7.70261ZM12.0794 14.0876V12.8021H13.3651C13.4436 12.8021 13.5149 12.8324 13.5665 12.884L17.0957 16.4125L17.0965 16.4134C17.2063 16.5252 17.206 16.7057 17.0943 16.8174L16.0919 17.8196L16.0898 17.8218C15.9834 17.9293 15.8055 17.9324 15.6927 17.8196L12.1613 14.2889C12.1097 14.2373 12.0794 14.166 12.0794 14.0876ZM6.979 2.60314C4.15803 2.60314 1.8786 4.88627 1.8786 7.70261C1.8786 10.5231 4.16215 12.8021 6.979 12.8021C9.79997 12.8021 12.0794 10.5189 12.0794 7.70261C12.0794 4.88216 9.79585 2.60314 6.979 2.60314Z" fill="white"/>
</svg>
