<svg width="110" height="122" viewBox="0 0 110 122" fill="none" xmlns="http://www.w3.org/2000/svg">
<path d="M65.924 23.8048L65.6051 23.5923H16.8266L16.5077 23.8048C15.9764 24.2299 15.7638 24.5487 15.7638 25.0801C15.7638 25.7177 16.0827 26.249 16.614 26.4616L17.0391 26.6741H65.6051L65.924 26.4616C66.349 26.1428 66.6679 25.7177 66.6679 25.1863C66.6679 24.655 66.4553 24.1236 65.924 23.8048Z" fill="#565557"/>
<path d="M16.4015 38.4703L16.614 38.6828H65.6051L66.0302 38.364C66.4553 38.0452 66.6679 37.6201 66.6679 37.0887C66.6679 36.5574 66.4553 36.026 66.0302 35.7072L65.8177 35.4947H41.3753C19.6959 35.4947 16.9328 35.4947 16.614 35.6009C16.1889 35.8135 15.8701 36.3448 15.7638 36.8762C15.6576 37.3013 15.9764 38.1514 16.4015 38.4703Z" fill="#565557"/>
<path d="M0.354492 9.13934C0.354492 9.6707 0.354492 34.2194 0.354492 63.7629V117.961L0.567035 118.174C0.673306 118.386 0.885849 118.599 1.09839 118.705L1.31093 118.918H23.0966C42.7568 118.918 44.8822 118.918 45.201 118.705C45.7324 118.386 46.0512 117.961 46.0512 117.324C46.0512 116.686 45.7324 116.261 45.201 115.942C44.8822 115.73 42.8631 115.73 24.3718 115.73H3.43636V11.0522H78.5703V34.1131C78.5703 55.0486 78.5703 56.7489 78.7828 57.174C78.9953 57.4928 79.7392 57.9179 80.0581 57.9179C80.4831 57.9179 81.2271 57.4928 81.4396 57.0678C81.6521 56.7489 81.6521 54.9423 81.6521 32.8379C81.6521 16.8317 81.6521 11.2456 81.5511 9.46298C81.5225 8.95842 81.3603 8.40891 80.9082 8.1829C80.7003 8.04431 80.4561 7.97036 80.2062 7.97036H41.0564C11.8318 7.86409 1.84229 7.97036 1.20466 8.07663C0.779578 8.1829 0.354492 8.71426 0.354492 9.13934Z" fill="#565557"/>
<path d="M88.9849 0.7439C88.8786 0.531357 88.666 0.318814 88.4535 0.212543L88.241 0H48.6017C16.8266 0 9.28129 2.37535e-08 8.64366 0.106271C8.43112 0.106271 8.21858 0.212543 8.11231 0.425086C7.68722 0.7439 7.58095 0.956443 7.58095 2.86933C7.58095 4.88849 7.68722 4.99476 8.21858 5.41984C8.64366 5.73866 9.17502 5.84493 9.70638 5.63239C10.344 5.31357 10.7691 4.67594 10.7691 3.93204V3.08187H86.0093V39.0016C86.0093 60.1496 86.0093 62.3813 86.4343 62.5939C86.5406 62.5939 86.5406 62.7001 86.6469 62.7001C86.9657 63.019 87.3908 63.1252 87.8159 63.019C88.241 62.9127 88.6661 62.5939 88.8786 62.1688L89.0911 61.6374V0.956443L88.9849 0.7439Z" fill="#565557"/>
<path d="M16.9328 62.9127C17.1454 62.9127 18.6332 63.019 29.3666 63.019C40.5251 63.019 41.3753 63.019 41.8003 62.8064C42.3317 62.5939 42.6505 62.0625 42.7568 61.4249C42.7568 60.8935 42.5442 60.3622 42.0129 60.0434C41.6941 59.8308 40.9502 59.8308 29.2603 59.8308C22.0339 59.8308 17.1454 59.8308 16.7203 59.9371C16.4015 60.0434 15.9764 60.681 15.8701 60.9998C15.5513 61.85 16.0827 62.7001 16.9328 62.9127Z" fill="#565557"/>
<path d="M16.1889 50.4789C16.5077 50.904 17.9955 50.904 36.168 50.904H65.7114L66.0302 50.6915C66.5616 50.3727 66.7741 49.8413 66.7741 49.2037C66.7741 48.6723 66.4553 48.141 65.924 47.9284L65.4989 47.7159H17.0391L16.5077 47.9284C16.0827 48.141 15.7638 48.566 15.6576 48.9911C15.5513 49.4162 15.6576 49.8413 15.9764 50.1601C16.0827 50.3727 16.1889 50.4789 16.1889 50.4789Z" fill="#565557"/>
<path d="M74.0006 56.8556C73.1504 56.1117 72.4065 55.6866 71.2375 55.3678C70.7062 55.2616 70.1748 55.1553 69.7497 55.1553C69.3246 55.1553 68.8996 55.2616 68.3682 55.3678C66.1365 55.7929 64.2236 57.7058 63.6923 59.9375C62.9484 62.7006 64.4362 65.8887 66.9867 67.164C68.8996 68.1204 70.5999 68.1204 72.5128 67.164C74.7445 66.1012 76.0197 64.0821 76.0197 61.5316C76.0197 59.5124 75.3821 58.0246 74.0006 56.8556ZM72.8316 62.0629C72.6191 63.1256 71.8752 63.9758 70.8124 64.4009C70.4936 64.5072 70.1748 64.6134 69.7497 64.6134C69.0058 64.6134 68.2619 64.2946 67.6243 63.7633C66.7741 63.0194 66.4553 61.9567 66.6679 60.8939C66.8804 59.8312 67.6243 58.8748 68.7933 58.556C69.5372 58.3434 69.856 58.3434 70.7062 58.556C72.194 58.8748 73.0441 60.4689 72.8316 62.0629Z" fill="#FBA04D"/>
<path d="M109.602 92.8816C109.708 92.0315 109.602 91.7126 109.495 91.5001C109.389 91.2876 107.582 88.2057 105.138 84.0611C100.037 75.5594 100.037 75.5594 100.037 75.4531C100.037 75.1343 100.356 75.028 101.419 75.028C102.694 75.028 103.013 74.8155 103.332 74.2841C103.65 73.7528 103.757 73.3277 103.438 72.7963C103.013 72.0524 103.013 71.9462 100.25 71.5211C95.8925 70.7772 92.0667 69.8207 88.4535 68.6517C85.5842 67.6953 83.6713 66.9514 81.0145 65.5699C79.3142 64.7197 78.6765 64.5072 78.464 64.5072C77.7201 64.5072 77.1887 64.9323 76.9762 65.5699C76.7636 66.1012 76.8699 66.7389 77.4013 67.164C77.8264 67.589 81.5459 69.3957 83.9901 70.3521C85.7967 71.096 85.903 71.096 85.903 71.2023L86.1155 71.3085L86.0093 71.5211C85.903 71.7336 85.903 71.7336 69.856 71.7336H53.9153V71.3085L55.5094 70.6709C58.1661 69.6082 61.4606 67.9079 62.0982 67.2702C62.417 66.9514 62.6295 66.5263 62.5233 65.995C62.417 65.4636 62.0982 65.0385 61.6731 64.7197C61.3543 64.5072 60.7167 64.5072 60.3978 64.7197C60.1853 64.826 59.6539 65.1448 59.1226 65.4636C54.2341 68.3329 46.9014 70.5646 38.931 71.7336C38.2934 71.8399 36.9119 72.0524 36.6993 72.265C36.2742 72.5838 36.0617 73.0089 36.0617 73.5402C36.0617 74.0716 36.2742 74.4967 36.6993 74.8155C37.0181 75.028 37.1244 75.028 38.1871 75.1343C39.5686 75.1343 39.7812 75.1343 39.7812 75.5594C39.7812 75.8782 30.5356 91.075 30.4293 91.1813C30.1105 91.6064 29.8979 92.0315 30.1105 93.5193C30.8544 100.002 36.2742 104.997 42.7568 104.997C47.4327 104.997 51.5773 102.552 53.9153 98.4077C55.2968 95.9635 55.7219 92.5628 55.1905 91.5001C54.978 91.075 47.3265 78.2162 46.0512 76.197L45.5198 75.3469H68.1557V112.329L55.9344 112.436L55.0843 112.754C53.809 113.179 53.0651 113.711 52.0024 114.774C51.2585 115.517 51.046 115.836 50.6209 116.793C49.6644 118.706 49.4519 120.512 50.0895 121.256C50.0895 121.362 50.1958 121.362 50.1958 121.469C50.5146 122 51.4711 122 66.349 122H88.7723L88.9848 121.787C89.5162 121.362 89.7288 120.937 89.7288 120.193C89.7288 117.005 87.497 114.03 84.2026 112.861C83.4587 112.648 83.2462 112.648 77.6138 112.542L71.3438 112.436V75.028H82.7148C93.7671 75.028 93.7671 75.028 93.8733 75.3469L93.9796 75.5594L93.8733 75.7719C93.7671 75.8782 91.9605 78.9601 89.41 83.2109C86.9657 87.2492 84.8403 90.7562 84.6277 91.1813C84.3089 91.7126 84.2026 91.8189 84.2026 92.5628C84.2026 96.3886 86.3281 100.214 89.5162 102.552C91.9604 104.253 94.511 104.997 97.5928 104.89C103.969 104.465 109.176 99.3642 109.602 92.8816ZM52.1087 94.0506C52.1087 94.3694 51.5773 95.8572 51.1522 96.4949C49.5582 99.5767 46.5826 101.49 43.0756 101.596C42.8631 101.596 42.7568 101.596 42.5442 101.596C39.9937 101.596 37.762 100.639 35.9554 98.8328C34.6802 97.5576 33.7237 95.9635 33.4049 94.3694L33.2986 93.6255H42.7568C52.1087 93.6255 52.1087 93.6255 52.1087 94.0506ZM47.0076 83.5297L51.1522 90.4374H42.9693C40.9502 90.4374 39.4624 90.4374 38.2934 90.4374C35.2115 90.4374 35.1052 90.4374 34.999 90.3311C34.7864 90.1186 34.7864 90.1186 38.6122 83.636C39.4624 82.1482 42.438 77.2597 42.5442 77.0472L42.7568 76.8346L42.9693 77.0472C43.0756 77.0472 43.1819 77.0472 47.0076 83.5297ZM83.2462 115.305L83.9901 115.624C84.8403 116.049 85.6904 116.793 86.1155 117.537L86.6469 118.387H69.856C53.3839 118.387 53.3839 118.387 53.3839 117.962C53.3839 117.537 54.3404 116.474 54.7655 116.261C55.0843 116.049 55.6156 115.73 56.0407 115.517L56.8909 115.199L83.2462 115.305ZM92.8106 83.5297C96.7427 76.9409 96.7427 76.9409 97.0615 77.0472C97.1678 77.0472 97.274 77.1535 101.1 83.5297L105.138 90.3311H100.675C99.612 90.3311 98.2305 90.3311 96.8489 90.3311C95.4674 90.3311 94.0859 90.3311 93.0232 90.3311H88.6661L92.8106 83.5297ZM96.9552 101.596C96.7427 101.596 96.5301 101.596 96.4239 101.596C92.5981 101.383 89.4099 99.0454 88.0284 95.4321C88.0284 95.3259 87.9221 95.1133 87.8159 95.0071C87.7096 94.6883 87.4971 94.3694 87.7096 94.1569C88.0284 93.6255 88.8786 93.6255 94.1922 93.7318H106.413L106.201 94.4757C105.882 95.8572 105.032 97.4513 103.863 98.6203C101.95 100.639 99.612 101.596 96.9552 101.596Z" fill="#FBA04D"/>
</svg>
