<svg width="122" height="122" viewBox="0 0 122 122" fill="none" xmlns="http://www.w3.org/2000/svg">
<path fill-rule="evenodd" clip-rule="evenodd" d="M39.4337 84.0538C39.3919 84.0381 39.3601 84.0184 39.276 83.9623L39.2683 83.9573C38.5564 83.5124 38.3934 82.7463 38.7154 82.1517C38.7468 82.1183 38.8137 82.0522 38.9234 81.9488C39.0523 81.8274 39.227 81.6667 39.4419 81.4718C39.8715 81.0824 40.4576 80.5598 41.1491 79.9486C42.532 78.7264 44.334 77.1523 46.1429 75.5845C47.9519 74.0167 49.7671 72.4561 51.1766 71.2608C51.8815 70.6631 52.4841 70.1575 52.9333 69.7883C53.1581 69.6036 53.3433 69.4541 53.4831 69.3446C53.6205 69.2371 53.6984 69.1809 53.7274 69.1628C54.0639 68.9984 54.4871 68.9984 54.8236 69.1628C54.8534 69.1813 54.9326 69.2381 55.0714 69.3456C55.2129 69.4552 55.4004 69.6048 55.628 69.7897C56.0829 70.1591 56.6934 70.6651 57.4075 71.2636C58.8353 72.4605 60.6739 74.0244 62.5026 75.5986C64.3315 77.1729 66.1495 78.7565 67.5365 79.993C68.2302 80.6114 68.8147 81.1416 69.2383 81.5399C69.4503 81.7392 69.62 81.9036 69.7422 82.0284C69.8035 82.0909 69.8507 82.1414 69.8846 82.18C69.91 82.2091 69.9222 82.2251 69.9265 82.2309C69.9611 82.302 69.9742 82.3462 69.9823 82.42C69.993 82.5159 69.9938 82.6494 69.9938 82.9087C69.9448 83.1908 69.8758 83.383 69.7732 83.5472C69.6674 83.7165 69.5132 83.8763 69.2638 84.0769C69.1974 84.1207 69.1588 84.1416 69.1114 84.1577C69.0574 84.176 68.9757 84.1933 68.8199 84.2058C68.5008 84.2313 67.9551 84.2316 66.8745 84.2316H63.882V95.4933L63.7091 95.7526L63.7004 95.7699C63.6685 95.8339 63.5878 95.9404 63.4774 96.0508C63.367 96.1611 63.2605 96.2418 63.1966 96.2738L63.1792 96.2825L62.9199 96.4553H45.631L45.3717 96.2825L45.3543 96.2738C45.2904 96.2418 45.1839 96.1611 45.0735 96.0508C44.9631 95.9404 44.8824 95.8339 44.8505 95.7699L44.8418 95.7526L44.6689 95.4933V84.1244H41.6764C40.5414 84.1244 39.9968 84.1241 39.6918 84.0986C39.5438 84.0863 39.4756 84.0695 39.4337 84.0538ZM55.84 89.5733V93.6478H61.2889V84.1244H47.6909V93.6478H53.0325V89.5733H55.84ZM49.4082 76.4792L43.8448 81.3169H64.7223L59.1415 76.5853L59.1394 76.5836C58.7328 76.2448 58.155 75.7562 57.5474 75.2422C57.1949 74.9441 56.832 74.6373 56.4869 74.3464C56.0177 73.9509 55.5809 73.5847 55.2477 73.3104C55.0813 73.1733 54.9393 73.0581 54.8314 72.9733C54.7777 72.931 54.7307 72.8949 54.6925 72.8669C54.6619 72.8444 54.6167 72.8118 54.5758 72.7914L54.5706 72.7887C54.548 72.7771 54.4846 72.7444 54.406 72.7307C54.3125 72.7143 54.2211 72.7259 54.1306 72.7547C53.9679 72.8064 53.758 72.9313 53.4503 73.152C52.8209 73.6035 51.658 74.5508 49.4082 76.4792Z" fill="#FBA04D"/>
<path fill-rule="evenodd" clip-rule="evenodd" d="M82.4214 58.6718H84.2792V37.5932H89.2115C90.8107 37.5932 92.147 37.599 93.1261 37.6096C94.1127 37.6202 94.7218 37.6357 94.8801 37.6534C97.3556 37.9292 99.1799 38.7712 100.541 40.24C101.987 41.801 102.666 43.8667 102.582 46.5401C102.55 47.5828 102.461 48.2101 102.232 49.0256C101.431 51.8868 99.2603 53.8276 96.097 54.483C94.98 54.7145 94.4511 54.7429 90.8781 54.7429H87.2698V58.6718H97.6437C98.499 58.6718 99.1924 59.3652 99.1924 60.2204C99.1924 61.0757 98.499 61.7691 97.6438 61.7691H87.2698V67.3C87.2698 68.1258 86.6003 68.7953 85.7745 68.7953C84.9486 68.7953 84.2792 68.1258 84.2792 67.3V61.7691H82.4213C81.5661 61.7691 80.8727 61.0757 80.8727 60.2204C80.8727 59.3652 81.5661 58.6718 82.4214 58.6718ZM94.6479 51.5617C95.3046 51.5184 95.6067 51.4398 96.1279 51.2924C97.7939 50.821 98.8875 49.7498 99.3421 48.1316C99.7783 46.5796 99.6319 44.5319 98.9798 43.252C98.8596 43.0162 98.604 42.65 98.4057 42.4268C97.645 41.5707 96.72 41.1179 95.2143 40.8273C95.0115 40.7881 94.7019 40.7646 94.093 40.7474C93.48 40.7301 92.5504 40.719 91.0986 40.7083L87.2698 40.6799V51.6569L91.0986 51.6278C93.009 51.6133 94.0036 51.6041 94.6479 51.5617Z" fill="#FBA04D"/>
<path d="M72.8514 104.491C72.8514 103.543 72.0833 102.775 71.1358 102.775H60.8421C59.8946 102.775 59.1265 103.543 59.1265 104.491C59.1265 105.439 59.8946 106.207 60.8421 106.207H71.1358C72.0833 106.207 72.8514 105.439 72.8514 104.491Z" fill="#565557"/>
<path d="M44.0077 112.747C44.0077 111.8 43.2396 111.032 42.2921 111.032H34.0357C33.0882 111.032 32.3201 111.8 32.3201 112.747C32.3201 113.695 33.0882 114.463 34.0357 114.463H42.2921C43.2396 114.463 44.0077 113.695 44.0077 112.747Z" fill="#565557"/>
<path d="M44.0077 104.491C44.0077 103.543 43.2396 102.775 42.2921 102.775H34.0357C33.0882 102.775 32.3201 103.543 32.3201 104.491C32.3201 105.439 33.0882 106.207 34.0357 106.207H42.2921C43.2396 106.207 44.0077 105.439 44.0077 104.491Z" fill="#565557"/>
<path d="M72.8514 112.747C72.8514 111.8 72.0833 111.032 71.1358 111.032H66.954C66.0065 111.032 65.2384 111.8 65.2384 112.747C65.2384 113.695 66.0065 114.463 66.954 114.463H71.1358C72.0833 114.463 72.8514 113.695 72.8514 112.747Z" fill="#565557"/>
<path d="M89.257 106.528C89.257 105.581 88.4888 104.813 87.5413 104.813C86.5938 104.813 85.8257 105.581 85.8257 106.528V110.71C85.8257 111.658 86.5938 112.426 87.5413 112.426C88.4888 112.426 89.257 111.658 89.257 110.71V106.528Z" fill="#565557"/>
<path d="M89.257 90.1227C89.257 89.1752 88.4888 88.4071 87.5413 88.4071C86.5938 88.4071 85.8257 89.1752 85.8257 90.1227C85.8257 91.0702 86.5938 91.8384 87.5413 91.8384C88.4888 91.8384 89.257 91.0702 89.257 90.1227Z" fill="#565557"/>
<path d="M89.257 98.3791C89.257 97.4316 88.4888 96.6635 87.5413 96.6635C86.5938 96.6635 85.8257 97.4316 85.8257 98.3791C85.8257 99.3266 86.5938 100.095 87.5413 100.095C88.4888 100.095 89.257 99.3266 89.257 98.3791Z" fill="#565557"/>
<path d="M75.3781 20.3472L75.453 20.3579L75.4779 20.3589L79.638 20.5323L80.5597 19.7949L78.7066 17.4784L78.6268 17.4752L75.4221 20.0389L75.3957 20.2239L75.3781 20.3472Z" fill="#565557"/>
<path d="M73.0142 19.4308C73.5994 19.807 74.1733 20.0307 74.5949 20.1612C74.7965 20.2236 74.9697 20.2667 75.1014 20.2955L75.3254 20.1163C74.5165 18.9148 73.1468 18.1222 71.5915 18.1137C72.0109 18.6767 72.5141 19.1093 73.0142 19.4308Z" fill="#565557"/>
<path d="M65.5284 27.1705H71.5663C72.3148 27.1705 73.0209 26.9888 73.6429 26.6673C73.0209 26.3457 72.3148 26.1641 71.5663 26.1641H65.5284C64.7799 26.1641 64.0738 26.3458 63.4518 26.6673C64.0738 26.9889 64.7799 27.1705 65.5284 27.1705Z" fill="#565557"/>
<path d="M65.5284 35.221H71.5663C72.6447 35.221 73.6351 34.844 74.4128 34.2147C73.6351 33.5853 72.6447 33.2083 71.5663 33.2083H65.5284C64.45 33.2083 63.4596 33.5853 62.6819 34.2147C63.4596 34.844 64.45 35.221 65.5284 35.221Z" fill="#565557"/>
<path fill-rule="evenodd" clip-rule="evenodd" d="M78.3827 0.0457812C76.6064 -0.292571 75.0638 1.29766 75.4561 3.06288L76.9951 9.98829C76.1802 9.98502 75.3216 10.0762 74.5195 10.285C73.6006 10.5242 72.625 10.9502 71.8599 11.692C71.0571 12.4703 70.56 13.5295 70.56 14.8276C70.56 16.2291 70.9895 17.3057 71.5915 18.1137L71.5663 18.1136H65.5284C63.0274 18.1136 61 20.1411 61 22.642C61 24.3945 61.9955 25.9145 63.4518 26.6673C61.9955 27.4201 61 28.9401 61 30.6926C61 32.1151 61.6559 33.3845 62.6819 34.2147C61.6559 35.0448 61 36.3142 61 37.7367C61 39.4892 61.9955 41.0092 63.4518 41.762C61.9955 42.5148 61 44.0348 61 45.7873C61 47.264 61.7069 48.5757 62.8008 49.4023C62.4219 49.1738 61.9779 49.0423 61.5031 49.0423H54.3121L37.0286 40.4005C34.9904 39.3814 32.5689 39.4965 30.6366 40.7042L17.2956 49.0423H4.64645C2.14548 49.0423 0.118042 51.0697 0.118042 53.5707V75.7096C0.118042 78.2106 2.14548 80.238 4.64645 80.238H24.7727V115.459C24.7727 119.071 27.7012 122 31.3138 122H74.0251C77.6664 122 80.6067 119.026 80.5658 115.385L80.1426 77.7661C82.6827 78.387 85.5173 78.7285 88.6736 78.7285C99.2644 78.7285 105.944 74.0106 109.758 68.0305C113.086 62.8123 114.198 56.6959 113.97 52.0612H119.366C120.756 52.0612 121.882 50.9349 121.882 49.5455V22.8781C121.882 21.4887 120.756 20.3624 119.366 20.3624H104.67L102.676 16.6593C101.828 15.0845 100.576 13.7642 99.0479 12.8343L96.4416 11.2478L98.7331 3.22775C99.2477 1.42648 97.6836 -0.285275 95.8434 0.0652518L87.1641 1.71843L78.3827 0.0457812ZM73.6429 41.762C73.0209 41.4404 72.3148 41.2588 71.5663 41.2588H65.5284C64.7799 41.2588 64.0738 41.4404 63.4518 41.762C64.0738 42.0836 64.7799 42.2652 65.5284 42.2652H71.5663C72.3148 42.2652 73.0209 42.0836 73.6429 41.762ZM74.4128 34.2147C75.4387 35.0448 76.0947 36.3142 76.0947 37.7367C76.0947 39.4892 75.0992 41.0092 73.6429 41.762C75.0992 42.5148 76.0947 44.0348 76.0947 45.7873C76.0947 48.2882 74.0673 50.3157 71.5663 50.3157H65.5284C64.6255 50.3157 63.7842 50.0514 63.0779 49.596C63.6517 50.0571 64.0189 50.7647 64.0189 51.5581V52.0914L64.0177 52.1216C63.7559 58.6669 66.7781 70.3697 79.0732 74.3292C81.7683 75.1972 84.9424 75.7096 88.6736 75.7096C98.2091 75.7096 103.94 71.5384 107.213 66.4072C110.524 61.2151 111.361 54.9574 110.835 50.8234C110.507 49.4437 109.877 47.2019 109.043 44.9189C108.181 42.5633 107.152 40.3042 106.083 38.8785C104.761 37.1155 103.863 35.1723 103.279 33.6617C103.023 33.0004 102.824 32.4129 102.675 31.9497C100.148 31.8393 96.0135 30.8433 92.6378 27.4676C89.6361 24.4659 87.747 22.1241 86.8358 20.8322L79.638 20.5323L80.5597 19.7949L78.7066 17.4784L88.5431 17.8818L88.9617 18.5794C89.376 19.2699 91.1935 21.7538 94.7725 25.3329C97.283 27.8433 100.32 28.7 102.259 28.8953V22.2524L100.406 18.812C99.5584 17.2373 98.3061 15.917 96.7783 14.987L96.4471 14.7854C94.8705 13.8258 93.0604 13.3182 91.2148 13.3182H78.4879C78.4178 13.3182 78.3498 13.3147 78.28 13.3087C77.5833 13.2496 73.5789 12.9899 73.5789 14.8276C73.5789 15.9719 74.1036 16.5422 74.6467 16.8913C74.9412 17.0806 75.5757 17.2854 75.8162 17.3599L75.8139 17.3598L75.8184 17.3606L75.8162 17.3599L78.6268 17.4752L75.4221 20.0389L75.3957 20.2239C75.4238 20.2684 75.4512 20.3134 75.4779 20.3589L79.638 20.5323L76.0281 23.4202C75.7827 24.8372 74.8787 26.0285 73.6429 26.6673C73.0209 26.3457 72.3148 26.1641 71.5663 26.1641H65.5284C64.7799 26.1641 64.0738 26.3458 63.4518 26.6673C64.0738 26.9889 64.7799 27.1705 65.5284 27.1705H71.5663C72.3148 27.1705 73.0209 26.9888 73.6429 26.6673C75.0992 27.4201 76.0947 28.9401 76.0947 30.6926C76.0947 32.1151 75.4387 33.3845 74.4128 34.2147ZM74.4128 34.2147C73.6351 33.5853 72.6447 33.2083 71.5663 33.2083H65.5284C64.45 33.2083 63.4596 33.5853 62.6819 34.2147C63.4596 34.844 64.45 35.221 65.5284 35.221H71.5663C72.6447 35.221 73.6351 34.844 74.4128 34.2147ZM78.6268 17.4752L78.6738 17.4375L78.7066 17.4784L78.6268 17.4752ZM71.5915 18.1137C73.1468 18.1222 74.5165 18.9148 75.3254 20.1163L75.1014 20.2955C74.9697 20.2667 74.7965 20.2236 74.5949 20.1612C74.1733 20.0307 73.5994 19.807 73.0142 19.4308C72.5141 19.1093 72.0109 18.6767 71.5915 18.1137ZM93.5729 10.2992H80.2016L80.0671 9.89574L78.5691 3.15449L87.1641 4.79165L95.6059 3.1837L93.5729 10.2992ZM105.289 30.1997L105.278 30.1631V23.3813H118.863V49.0423H113.499C113.121 47.6147 112.566 45.7632 111.878 43.8824C110.995 41.4665 109.844 38.8617 108.498 37.0672C107.405 35.61 106.626 33.9472 106.094 32.5731C105.831 31.8915 105.633 31.2926 105.489 30.8377C105.443 30.6918 105.408 30.5814 105.377 30.4791L105.376 30.4771C105.353 30.4043 105.332 30.3355 105.309 30.2607L105.302 30.2382L105.289 30.1997ZM35.6784 43.1007L47.5616 49.0423H35.6981C33.592 49.0423 32.9781 51.7505 34.6109 52.7952C37.0597 54.3618 39.5578 56.3408 40.9819 58.4413C41.6843 59.4772 42.0693 60.4613 42.1274 61.3797C42.1833 62.2632 41.9461 63.2104 41.1756 64.2376C40.4677 65.1815 39.1184 65.4298 36.9913 64.5859C34.9495 63.7758 32.8758 62.1689 31.7148 60.7384C31.4631 60.4282 31.1591 60.2838 30.9703 60.2163C30.7727 60.1456 30.5911 60.1195 30.4593 60.1089C30.196 60.0876 29.9447 60.1142 29.7447 60.1514C29.5409 60.1893 29.3117 60.253 29.0917 60.3517C28.9816 60.4012 28.8429 60.4731 28.702 60.5764C28.5735 60.6706 28.3589 60.8516 28.1989 61.1456C27.9682 61.5696 27.309 62.3468 25.6293 63.1526C25.2292 63.3446 24.7739 63.5367 24.2569 63.7247C22.0191 64.5385 20.3771 65.1277 19.238 65.5323V51.3884L32.2366 43.2643C33.2771 42.614 34.581 42.552 35.6784 43.1007ZM19.238 77.2191V68.7342C20.2794 68.3686 22.0647 67.7326 24.7727 66.7493V77.2191H19.238ZM27.7917 115.459V65.4279C28.8334 64.8368 29.6173 64.1986 30.1809 63.546C31.6697 65.0687 33.7562 66.5502 35.8779 67.392C38.3348 68.3668 41.5884 68.7189 43.5908 66.049C44.7585 64.492 45.2451 62.8443 45.1404 61.1891C45.0379 59.5688 44.3779 58.0704 43.4806 56.7471C42.2921 54.9941 40.5905 53.4076 38.8308 52.0612H60.9989C60.7368 59.1344 63.9021 72.0051 77.1131 76.8469L77.547 115.419C77.5691 117.38 75.9858 118.981 74.0251 118.981H31.3138C29.3686 118.981 27.7917 117.404 27.7917 115.459ZM16.2191 52.0612V77.2191H4.64645C3.81279 77.2191 3.13698 76.5433 3.13698 75.7096V53.5707C3.13698 52.737 3.81279 52.0612 4.64645 52.0612H16.2191ZM71.5663 20.6294H65.5284C64.4169 20.6294 63.5158 21.5305 63.5158 22.642C63.5158 23.7536 64.4169 24.6547 65.5284 24.6547H71.5663C72.6778 24.6547 73.5789 23.7536 73.5789 22.642C73.5789 21.5305 72.6778 20.6294 71.5663 20.6294ZM65.5284 28.6799H71.5663C72.6778 28.6799 73.5789 29.581 73.5789 30.6926C73.5789 31.8041 72.6778 32.7052 71.5663 32.7052H65.5284C64.4169 32.7052 63.5158 31.8041 63.5158 30.6926C63.5158 29.581 64.4169 28.6799 65.5284 28.6799ZM71.5663 35.7241H65.5284C64.4169 35.7241 63.5158 36.6252 63.5158 37.7367C63.5158 38.8483 64.4169 39.7494 65.5284 39.7494H71.5663C72.6778 39.7494 73.5789 38.8483 73.5789 37.7367C73.5789 36.6252 72.6778 35.7241 71.5663 35.7241ZM65.5284 43.7746H71.5663C72.6778 43.7746 73.5789 44.6757 73.5789 45.7873C73.5789 46.8988 72.6778 47.7999 71.5663 47.7999H65.5284C64.4169 47.7999 63.5158 46.8988 63.5158 45.7873C63.5158 44.6757 64.4169 43.7746 65.5284 43.7746Z" fill="#565557"/>
<path d="M65.5284 42.2652H71.5663C72.3148 42.2652 73.0209 42.0836 73.6429 41.762C73.0209 41.4404 72.3148 41.2588 71.5663 41.2588H65.5284C64.7799 41.2588 64.0738 41.4404 63.4518 41.762C64.0738 42.0836 64.7799 42.2652 65.5284 42.2652Z" fill="#565557"/>
</svg>
