<svg width="122" height="122" viewBox="0 0 122 122" fill="none" xmlns="http://www.w3.org/2000/svg">
<path d="M22.0948 65.6921C21.9125 66.4211 21.9125 67.0588 21.9125 70.7034V75.4412H13.9857V86.2837H17.9947V119.084H1.50322C0.698091 119.084 0.0454102 119.737 0.0454102 120.542C0.0454102 121.347 0.698093 122 1.50322 122H120.497C121.302 122 121.955 121.347 121.955 120.542C121.955 119.737 121.302 119.084 120.497 119.084H100.088L99.9053 118.355C99.8142 117.718 99.1764 110.975 99.0853 110.155C98.3564 102.32 98.3564 102.32 98.6297 102.137C98.7208 102.046 98.8119 101.955 99.7231 101.773C100.088 101.682 100.908 101.408 101.454 101.226C105.554 99.5862 108.47 96.3972 109.654 92.0238L109.928 90.9305L110.004 68.1674C110.012 65.6454 107.97 63.5965 105.448 63.5965H102.092V61.2276C102.092 59.2231 101.91 58.4031 101.363 57.2186C100.908 56.3075 99.9053 55.2141 99.0853 54.7586L97.9008 54.0297L98.9942 53.0274C99.9053 52.1163 100.908 50.5674 101.363 49.2918C102.001 47.5606 102.001 47.3784 102.001 43.2783C102.001 39.5427 102.001 39.3605 101.728 38.4493C100.725 34.8959 98.083 31.9803 94.7119 30.6136C92.0696 29.6114 88.6073 29.7025 85.965 30.887C83.5961 31.9803 81.5916 33.9848 80.4071 36.3537C79.496 38.3582 79.4049 38.8138 79.3137 42.7317C79.2226 46.4673 79.3137 47.2873 79.8604 48.8362C80.2249 50.0207 80.5893 50.6585 81.3182 51.7519C82.4116 53.3008 84.4161 55.0319 86.1472 55.6697L87.605 56.2164L76.307 67.4233H64.5534L64.3712 66.5122C64.0068 64.4166 62.9134 62.5943 61.3645 61.4098C60.2711 60.5898 59.7244 60.4076 55.1688 59.132L50.522 57.8564V53.6652L51.342 52.8452C52.4354 51.843 53.4376 50.2029 53.8932 48.7451C54.4399 47.1051 54.531 46.2851 54.4399 42.5494C54.3488 39.4516 54.3488 38.996 54.1666 38.176C52.9821 33.9848 49.4287 30.7047 45.3286 29.8847C44.1441 29.7025 42.1396 29.7025 41.0463 29.8847C37.4018 30.6136 34.395 33.0737 32.8461 36.3537C32.0261 38.176 31.935 38.7227 31.8439 42.4583C31.7527 46.194 31.8439 47.014 32.3905 48.5629C32.9372 50.2029 33.8483 51.7519 35.0328 52.8452L35.8528 53.6652V57.8564L30.9327 59.2231C26.3771 60.4987 25.6482 60.772 24.5548 61.6832C23.3703 62.5943 22.4592 64.1432 22.0948 65.6921ZM16.8102 83.3681V78.2657H79.4049V83.3681H16.8102ZM29.566 118.993L30.858 116.409C31.6297 114.866 33.2072 113.891 34.9327 113.891H59.2778C61.0034 113.891 62.5808 114.866 63.3525 116.409L64.6446 118.993H29.566ZM73.4825 91.2949H33.2106C32.4054 91.2949 31.7527 91.9476 31.7527 92.7527C31.7527 93.5578 32.4054 94.2105 33.2106 94.2105H73.3914V119.084H67.8335L65.0887 113.657C64.3133 112.124 62.7414 111.158 61.0234 111.158H33.0961C31.378 111.158 29.8061 112.124 29.0308 113.657L26.286 119.084H20.7281V94.2105H25.1926C25.9977 94.2105 26.6504 93.5578 26.6504 92.7527C26.6504 91.9476 25.9977 91.2949 25.1926 91.2949H20.7281V86.1926H73.3914V91.2949H73.4825ZM76.307 118.993V102.046H87.3317L87.5139 102.775C87.605 103.048 88.2428 110.064 88.2428 110.155C88.6073 113.982 88.9717 117.444 88.9717 117.809L89.154 118.993H76.307ZM94.5296 118.993C92.434 118.993 92.1607 118.993 91.9785 118.264C91.8873 117.991 91.4318 112.798 91.2495 110.884C90.8851 107.057 90.5207 103.595 90.5207 103.231L90.3384 102.046H92.8896C94.9852 102.046 95.2585 102.046 95.4408 102.775C95.5319 103.048 95.9874 108.242 96.1697 110.155C96.5341 113.982 96.8986 117.444 96.8986 117.809L97.0808 118.993H94.5296ZM101.09 88.926L101.272 88.6526C102.001 87.1037 102.001 87.1037 102.092 78.448V66.4211H104.444C105.96 66.4211 107.187 67.6553 107.177 69.1716L107.103 80.908C107.103 91.2949 107.103 91.2949 106.101 93.1172L105.919 93.4816C105.372 94.6661 105.099 95.0305 104.005 96.1239C103.003 97.1261 102.548 97.4906 101.545 98.0373C100.908 98.4017 99.9053 98.7662 99.3586 98.9484C98.3564 99.2217 98.1741 99.2217 87.5139 99.3129H76.307V94.2105H86.8761C94.9852 94.2105 94.9852 94.2105 96.5341 93.4816L96.8074 93.3905C98.7208 92.2971 100.179 90.8393 101.09 88.926ZM98.083 60.1343H98.6297C99.1764 60.2254 99.1764 60.2254 99.2675 72.7079C99.2675 73.9834 99.2675 84.8259 99.1764 85.737C98.7208 88.3793 96.6252 90.566 93.9829 91.0216C93.8007 91.0216 93.1629 91.2038 85.0539 91.2038H76.3981V86.1015H82.3205V77.3546L90.1562 69.5189C97.7186 61.9565 97.7186 61.9565 97.9919 60.5898L98.083 60.1343ZM84.7805 51.0229C83.7783 50.0207 83.2316 49.0185 82.6849 47.6518L82.3205 46.4673V39.4516L82.6849 38.4493C83.7783 35.4426 86.2383 33.2559 89.3362 32.7092C90.4295 32.527 92.2518 32.6181 93.3452 33.0737C94.7119 33.5292 95.7141 34.167 96.7163 35.1693C97.7186 36.1715 98.2653 37.1738 98.8119 38.5405L99.1764 39.7249V46.7406L98.8119 47.7429C98.3564 49.1096 97.7186 50.1118 96.7163 51.1141C95.7141 52.1163 94.7119 52.7541 93.3452 53.2097C92.434 53.483 92.0696 53.5741 90.794 53.5741C89.5184 53.5741 89.154 53.483 88.2428 53.2097C86.785 52.663 85.7828 52.0252 84.7805 51.0229ZM77.4915 70.3389L84.1427 63.6877C90.5207 57.3097 91.2496 56.7631 91.614 56.5808C92.3429 56.3986 93.3452 56.4897 93.9829 56.8542C94.9852 57.492 95.4408 58.7676 95.1674 59.952C94.9852 60.5898 94.5296 61.1365 87.6962 67.97L80.316 75.3501H58.54L57.9022 75.0768C57.0822 74.7123 56.5355 73.7101 56.5355 72.8901C56.5355 72.0701 57.1733 71.0678 57.9022 70.7034L58.54 70.3389H77.4915ZM35.1239 47.6518L34.7595 46.4673V39.4516L35.1239 38.4493C36.2173 35.4426 38.6773 33.2559 41.7752 32.7092C42.8685 32.527 44.6908 32.6181 45.7842 33.0737C47.1508 33.5292 48.1531 34.167 49.1553 35.1693C50.1576 36.1715 50.7043 37.1738 51.2509 38.5405L51.6154 39.7249V46.7406L51.2509 47.7429C50.7954 49.1096 50.1576 50.1118 49.1553 51.1141C48.1531 52.1163 47.1508 52.7541 45.7842 53.2097C44.873 53.483 44.5086 53.5741 43.233 53.5741C41.9574 53.5741 41.593 53.483 40.6818 53.2097C39.3151 52.7541 38.3129 52.1163 37.3106 51.1141C36.2173 50.1118 35.5795 49.0185 35.1239 47.6518ZM47.6975 57.4009C47.6975 58.4942 47.6975 58.6764 47.1508 59.3142C45.9664 60.772 44.7819 61.4098 43.233 61.4098C41.6841 61.4098 40.4085 60.772 39.3151 59.3142C38.7685 58.5853 38.7684 58.4031 38.7684 57.4009C38.7684 57.1275 38.7684 56.8542 38.7684 56.672C38.7684 56.3986 38.8596 55.8519 39.3151 55.8519C39.4062 55.8519 39.4974 55.8519 40.4996 56.1253C41.2285 56.3075 41.6841 56.3986 43.233 56.3986C44.7819 56.3986 45.2375 56.3986 45.9664 56.1253C46.9686 55.8519 47.0597 55.8519 47.1508 55.8519C47.6975 55.8519 47.6975 56.3986 47.6975 56.672C47.6064 56.8542 47.6975 57.1275 47.6975 57.4009ZM24.737 70.6123C24.737 66.6033 24.8282 66.3299 25.1015 65.601C25.4659 64.8721 26.1949 63.961 26.9238 63.5054C27.3793 63.2321 35.7617 60.772 36.1262 60.6809C36.3995 60.6809 36.4906 60.6809 37.7662 61.9565C39.4062 63.5965 41.0463 64.3254 43.1419 64.3254C45.2375 64.3254 46.8775 63.5965 48.5175 61.9565L49.8842 60.5898L54.3488 61.8654C56.3533 62.4121 58.7222 63.141 59.0867 63.3232C60.0889 63.7788 61.0911 65.0544 61.3645 66.2388L61.6378 67.3322H59.6333C57.6288 67.3322 56.4444 67.7878 55.2599 68.9722C54.1666 70.0656 53.711 71.25 53.711 72.799C53.711 73.2545 53.8021 73.8012 53.8932 74.0745L54.2577 75.3501H24.737V70.6123Z" fill="#565557"/>
<path d="M76.8537 7.92683H65.009C64.2039 7.92683 63.5512 8.57952 63.5512 9.38464C63.5512 10.1898 64.2039 10.8425 65.009 10.8425H76.8537C77.6588 10.8425 78.3115 10.1898 78.3115 9.38464C78.3115 8.57952 77.6588 7.92683 76.8537 7.92683Z" fill="#FBA04D"/>
<path d="M83.4138 9.38464C83.4138 10.1898 84.0665 10.8425 84.8717 10.8425C85.6768 10.8425 86.3295 10.1898 86.3295 9.38464C86.3295 8.57952 85.6768 7.92683 84.8717 7.92683C84.0665 7.92683 83.4138 8.57952 83.4138 9.38464Z" fill="#FBA04D"/>
<path d="M47.6975 14.2136C47.6975 16.7296 49.7372 18.7693 52.2532 18.7693H61.5467L61.6378 30.3406L75.487 18.7693H89.7006C92.2166 18.7693 94.2563 16.7297 94.2563 14.2136V4.55566C94.2563 2.03964 92.2167 0 89.7006 0H52.2532C49.7372 0 47.6975 2.03963 47.6975 4.55565V14.2136ZM50.522 5.64901C50.522 4.1394 51.7458 2.91562 53.2554 2.91562H88.5162C90.0258 2.91562 91.2495 4.1394 91.2495 5.64901V13.1203C91.2495 14.6299 90.0258 15.8537 88.5162 15.8537H74.3025L64.4623 24.0538L64.3712 15.8537H53.2554C51.7458 15.8537 50.522 14.6299 50.522 13.1203V5.64901Z" fill="#FBA04D"/>
<path d="M55.6244 9.38464C55.6244 10.1898 56.277 10.8425 57.0822 10.8425C57.8873 10.8425 58.54 10.1898 58.54 9.38464C58.54 8.57952 57.8873 7.92683 57.0822 7.92683C56.277 7.92683 55.6244 8.57952 55.6244 9.38464Z" fill="#FBA04D"/>
</svg>
