<svg width="102" height="122" viewBox="0 0 102 122" fill="none" xmlns="http://www.w3.org/2000/svg">
<path d="M101.399 70.8774C101.292 70.1299 96.1669 64.7911 86.023 54.754C73.2097 41.9407 70.5403 39.8051 70.0064 39.4848C69.5793 39.6983 68.1912 40.7661 65.6285 43.3288C62.1048 46.8524 61.7845 47.2795 61.8913 48.1337C61.9981 49.3083 61.4642 50.0557 60.2896 51.4439C59.5422 52.2981 58.9015 53.0455 58.7947 53.2591C58.9015 53.4726 59.1151 53.793 59.4354 54.2201L60.5032 55.5014L50.4661 60.6267L46.0882 58.1708C42.8849 56.4624 42.1374 55.9285 42.0307 55.2878C41.9239 54.9675 42.1374 54.6472 42.2442 54.5404C43.2052 53.3658 43.2052 53.0455 41.6035 51.3371C40.2154 49.8422 39.7883 49.2015 40.0019 48.027C40.1087 47.2795 39.8951 46.8524 36.3714 43.3288C33.8088 40.7661 32.3139 39.5915 31.8868 39.4848C31.3529 39.8051 28.6835 42.0474 15.8701 54.754C5.93983 64.8978 0.70773 70.1299 0.600952 70.8774C0.600952 71.518 2.20262 73.2265 4.55172 75.4688C8.07538 78.8857 8.50249 79.206 9.14316 79.0993C10.2109 78.8857 10.8516 79.206 12.2397 80.4874C14.1617 82.1958 14.3753 82.089 15.443 81.2348L16.8311 80.167L23.0242 90.6312L22.17 92.5532C21.7429 93.4074 21.4226 94.6888 21.4226 95.2227C21.4226 97.8921 23.9852 100.989 26.5479 101.416C27.1886 101.523 28.2563 101.736 28.2563 102.804C28.2563 103.765 29.6445 106.114 30.7122 106.968C31.2461 107.395 32.4207 107.929 33.2749 108.143C34.8766 108.57 35.1969 108.89 35.4104 110.385C35.7308 112.627 38.2934 114.977 40.3222 114.977C41.4968 114.977 41.7103 115.724 42.1374 117.005C42.6713 118.927 43.9527 120.529 45.7679 121.383C47.4763 122.131 49.3983 122.131 51 121.383C51.6406 121.063 52.0677 120.956 52.4949 120.956C52.922 120.956 53.2423 121.063 53.883 121.383C55.3779 122.131 57.1931 122.237 58.9015 121.49C60.7167 120.636 62.1048 119.034 62.6387 117.112C63.0658 115.724 63.2794 115.083 64.5607 115.083C66.4827 115.083 69.4725 112.094 69.4725 110.172C69.4725 108.997 70.0064 108.677 71.608 108.25C73.7436 107.716 75.9859 105.473 76.3063 103.551C76.5198 102.056 76.8401 101.736 78.2283 101.523C80.7909 101.095 83.3536 97.9989 83.3536 95.4362C83.3536 94.1549 82.3926 91.9126 81.3248 90.8448L80.1503 89.6702L85.3823 80.3806L86.6637 81.4484C87.7315 82.3026 87.945 82.4094 89.7602 80.5941C91.1483 79.3128 91.789 78.8857 92.8568 79.206C93.4974 79.3128 93.9246 79.0993 97.4482 75.5756C99.7973 73.2265 101.399 71.6248 101.399 70.8774ZM8.82283 75.362L4.12461 70.7706L17.8989 57.1031C31.3529 43.6491 31.78 43.6491 31.9936 43.6491C32.4207 43.6491 33.8088 44.8236 34.5562 45.5711L36.6918 47.7066L8.82283 75.362ZM13.8414 77.3908C13.6278 77.3908 13.4143 77.284 13.3075 77.1773C12.56 76.323 12.8804 75.8959 24.9462 63.9368C37.1189 51.6574 37.3324 51.6574 37.546 51.6574C37.9731 51.6574 38.4002 52.1913 38.507 52.2981C39.0409 52.832 39.1477 53.0455 26.6547 65.5385C16.2973 75.8959 14.8024 77.3908 13.8414 77.3908ZM27.7225 98.3192C26.975 98.3192 26.3344 97.9989 25.6937 97.465C25.1598 96.9311 24.8395 96.2904 24.7327 95.543C24.7327 94.4752 25.2666 93.4074 26.2276 92.3397C27.2953 91.2719 28.4699 90.738 29.4309 90.738C30.2851 90.738 31.0326 91.1651 31.5665 91.9126C32.9546 93.7278 32.5275 94.7956 30.819 96.504C29.858 97.7853 28.7902 98.3192 27.7225 98.3192ZM34.4494 105.153H34.3427C33.4884 105.153 32.8478 104.726 32.2071 103.872C30.7122 101.95 31.8868 100.348 33.3817 98.8531C35.3037 97.0379 36.2647 96.9311 37.9731 98.2124C38.7206 98.7463 39.1477 99.4938 39.1477 100.241C39.2544 101.202 38.7206 102.377 37.546 103.445C36.4782 104.619 35.5172 105.153 34.4494 105.153ZM41.2832 111.987H41.1764C40.429 111.987 39.6815 111.56 39.1477 110.812C37.8663 109.104 38.0799 107.716 39.8951 105.794C41.8171 103.872 43.5255 103.658 45.0204 105.153C45.6611 105.794 46.0882 106.541 46.0882 107.289C46.0882 108.25 45.5543 109.317 44.4865 110.385C43.312 111.453 42.2442 111.987 41.2832 111.987ZM51.1068 117.112C50.039 118.18 49.1848 118.821 48.2238 118.821C47.6899 118.821 47.0492 118.607 46.3018 117.966C45.5543 117.432 45.1272 116.685 45.1272 115.938C45.0204 114.977 45.5543 113.802 46.7289 112.734C47.7966 111.56 48.9712 111.026 49.9322 111.133C50.7864 111.133 51.4271 111.56 52.0677 112.307C53.5626 114.122 52.922 115.297 51.1068 117.112ZM76.7334 98.3192C75.7724 98.3192 74.9181 97.8921 73.6368 96.6108C72.8894 95.9701 71.1809 94.4752 70.2199 95.4362C69.4725 96.1837 69.8996 97.3582 71.5013 99.0667C73.4233 101.095 73.8504 102.163 72.4623 103.978C71.8216 104.726 71.0742 105.153 70.2199 105.153C69.2589 105.153 68.1912 104.726 67.3369 103.765C66.0556 102.377 64.8811 101.736 64.1336 101.843C63.7065 101.843 63.493 102.163 63.2794 102.59C62.8523 103.445 62.7455 103.551 64.5607 105.58C66.2692 107.502 67.1234 109.211 65.4149 111.026C63.493 113.055 61.571 111.773 59.8625 110.172C58.2608 108.677 57.9405 108.57 57.4066 108.783C56.9795 108.89 56.5524 109.211 56.4456 109.638C56.2321 110.065 56.2321 110.492 56.4456 110.919C56.6592 111.239 57.2999 112.2 58.0473 112.948C59.0083 114.016 59.5422 115.083 59.4354 116.044C59.3286 116.899 59.0083 117.539 58.2608 118.18C57.5134 118.821 56.766 119.141 56.1253 119.141C55.805 119.141 55.5914 119.034 55.3779 118.927C55.1643 118.714 54.7372 118.18 55.3779 116.899C56.1253 115.404 56.1253 113.695 55.3779 111.987C54.5236 110.172 52.922 108.783 51 108.25C49.6119 107.929 48.9712 107.609 48.9712 106.434C48.9712 104.406 46.5153 101.843 44.273 101.523C42.8849 101.309 42.5645 100.882 42.1374 99.2802C41.6035 97.1447 39.7883 95.3294 37.6528 94.7956C35.8376 94.3684 35.624 94.0481 35.4104 92.5532C35.0901 90.738 32.9546 88.4957 30.9258 87.9618C29.4309 87.5347 28.6835 87.6415 26.2276 88.3889C25.9072 88.4957 25.4801 88.6025 22.17 83.3704L18.9667 78.1383L28.897 68.2079C38.7206 58.3844 39.0409 58.3844 39.2544 58.3844C39.6815 58.3844 42.4578 59.8793 43.7391 60.6267C44.3798 60.9471 47.6899 62.7623 47.9034 62.9758L48.0102 63.0826V63.2962C48.0102 63.5097 48.0102 63.8301 42.6713 69.1689C38.507 73.3333 37.2257 74.9349 36.9053 76.0027C36.3714 77.8179 36.6918 79.7399 37.7596 81.2348C38.8273 82.8365 40.5358 83.7975 42.4578 83.9043C45.234 84.1178 46.5153 83.3704 51.961 77.8179C55.805 73.9739 57.1931 72.9062 58.0473 72.9062C58.9015 72.9062 60.61 74.2943 69.5793 83.3704C79.4028 93.1939 80.0435 93.8346 80.0435 95.3294C79.9367 97.0379 78.6554 98.3192 76.7334 98.3192ZM82.8197 78.3518C82.8197 78.4586 78.335 86.6805 77.6944 86.6805C77.4808 86.6805 77.2673 86.6805 68.7251 78.1383L68.0844 77.4976C57.9405 67.3537 57.9405 67.3537 50.3593 74.8282L49.8254 75.362C47.6899 77.4976 44.273 80.5941 43.4188 80.8077C42.6713 81.0212 41.8171 80.8077 41.0697 80.2738C40.3222 79.6331 39.7883 78.6721 39.7883 77.6044C39.7883 76.1095 40.2154 75.5756 46.4085 69.4893C52.8152 63.0826 52.922 62.9758 57.727 60.52L62.8523 57.9573L72.9961 67.9944C83.0332 77.8179 82.9265 78.0315 82.8197 78.3518ZM88.6925 77.0705C88.5857 77.284 88.3721 77.284 88.1586 77.284C87.3044 77.284 85.7027 75.8959 75.3453 65.5385C62.7455 53.1523 62.9591 52.9387 63.3862 52.2981C63.493 52.1913 63.9201 51.6574 64.3472 51.6574C64.5607 51.6574 64.7743 51.6574 76.9469 63.8301C89.1196 75.7891 89.3331 76.2163 88.6925 77.0705ZM93.1771 75.362L65.4149 47.7066L67.5505 45.5711C68.2979 44.8236 69.5793 43.6491 70.1132 43.6491C70.2199 43.6491 70.647 43.6491 84.2078 57.1031L97.8753 70.7706L93.1771 75.362Z" fill="#565557"/>
<path d="M62.1048 18.6627C62.1048 17.5949 61.9981 17.1678 58.7947 17.1678C56.9795 17.1678 56.0185 17.2746 55.6982 17.5949C55.2711 18.0221 55.0575 18.5559 55.5914 19.6237C55.805 20.0508 56.0185 20.1576 58.5812 20.1576C61.9981 20.1576 62.1048 19.8373 62.1048 18.6627Z" fill="#FBA04D"/>
<path d="M51.3203 9.58537C50.7864 9.4786 50.2525 9.58537 49.9322 9.90571C49.6119 10.226 49.3983 10.5464 49.3983 10.6531C49.3983 10.9735 49.3983 11.4006 45.7679 11.4006C43.5255 11.4006 42.1374 11.7209 41.8171 12.2548C41.6035 12.5751 41.7103 13.109 42.1374 13.8565C42.351 14.2836 42.6713 14.3904 45.6611 14.3904H49.5051V26.7766H45.8746C42.2442 26.7766 41.8171 27.3105 41.8171 28.3782C41.8171 29.5528 41.8171 29.7663 51 29.7663C60.1828 29.7663 60.1828 29.6596 60.1828 28.2715C60.1828 27.2037 60.1828 26.7766 56.3388 26.7766H52.4949V14.3904H56.3388C60.1828 14.3904 60.1828 13.9633 60.1828 12.8955C60.1828 11.8277 60.1828 11.4006 56.3388 11.4006C53.3491 11.4006 52.7084 11.4006 52.2813 10.3328C52.1745 10.0125 51.8542 9.69215 51.3203 9.58537Z" fill="#FBA04D"/>
<path d="M40.3222 17.702C39.8951 18.1291 39.6816 18.663 40.2154 19.7307C40.429 20.1579 40.6426 20.2646 43.2052 20.2646C46.5153 20.2646 46.7289 19.9443 46.7289 18.7697C46.7289 17.702 46.6221 17.2749 43.4188 17.2749C41.6036 17.1681 40.6426 17.3816 40.3222 17.702Z" fill="#FBA04D"/>
<path d="M36.3714 6.06248C31.3529 11.081 29.2173 17.9148 30.7122 24.7486C32.2071 31.7959 37.1189 37.5619 44.0594 40.2313C45.9814 40.9787 46.9424 41.0855 51 41.0855C55.1643 41.0855 56.0185 40.9787 57.9405 40.2313C63.8133 37.8822 68.2979 33.5043 70.4335 27.9519C72.4622 22.5062 72.1419 16.5267 69.4725 11.1878C67.0166 6.27603 61.4642 1.89815 56.0185 0.510044C53.1355 -0.237399 48.3305 -0.130622 45.4475 0.616821C42.1374 1.57782 38.9341 3.49982 36.3714 6.06248ZM56.3388 3.92693C61.0371 5.31504 65.6285 9.69292 67.4437 14.4979C69.2589 19.4097 68.8318 24.7486 66.2691 29.34C63.5997 33.9314 59.0083 37.1348 53.5626 38.0958C52.7084 38.0958 51.8542 38.2025 51 38.2025C46.5153 38.2025 42.0306 36.3873 38.6138 32.9704C34.5562 28.9129 32.741 23.3604 33.5952 17.9148C34.4494 12.7895 37.3324 8.51836 41.6035 5.74215C45.9814 3.07271 51.3203 2.43204 56.3388 3.92693Z" fill="#FBA04D"/>
</svg>
