<svg width="152" height="122" viewBox="0 0 152 122" fill="none" xmlns="http://www.w3.org/2000/svg">
<path fill-rule="evenodd" clip-rule="evenodd" d="M126.032 21.0344L125.932 13.5221C125.832 6.00983 125.832 6.00983 125.03 4.60754C123.728 2.30377 121.525 0.901475 118.419 0.200328C117.718 0.100164 107.101 0.100164 86.5673 0C68.037 0 54.9155 -3.7314e-08 54.3145 0.100164C51.2095 0.400655 48.505 2.10344 47.1027 4.40721C46.3014 5.8095 46.0009 6.71098 46.0009 8.51393V10.6174H42.1947C39.5905 10.6174 38.8893 10.6174 37.9878 10.8177C34.4821 11.5188 31.8778 13.7225 30.9764 16.527C30.776 17.128 30.6759 17.8292 30.6759 18.8308V20.9342L30.8762 24.1395V43.1706C30.8762 52.3857 30.8762 53.0869 31.0765 53.8882C31.8778 56.4924 33.9813 58.3955 37.1865 59.4973L38.2883 59.898L49.5067 59.9982L53.3129 64.205C56.5182 67.8109 56.9188 68.1114 57.3195 68.3118C58.0206 68.5121 58.7218 68.5121 59.2226 68.1114C59.4229 67.9111 60.9254 66.4087 63.0288 64.0047L66.7349 59.898H76.0501C85.6658 59.898 85.6658 59.898 87.7693 58.9965C89.4721 58.2954 91.0747 56.9932 91.876 55.591C92.6773 54.1887 92.8776 53.4875 92.9778 51.5844L93.078 49.2806L94.2799 49.3808L94.2883 49.3818C95.082 49.481 95.1941 49.495 98.7873 53.4875C101.792 56.8931 102.493 57.3939 102.694 57.4941C103.195 57.6944 104.096 57.6944 104.597 57.4941C104.697 57.3939 105.398 56.8931 108.503 53.4875L112.209 49.3808L115.415 49.2806C118.419 49.1805 119.121 49.0803 120.523 48.4793C122.526 47.678 124.029 46.3759 124.93 44.8734C125.83 43.3742 125.832 43.2712 125.931 37.9964L125.932 37.9621L126.032 32.5533V21.0344ZM50.4082 5.90967L50.0075 6.61082V42.8701L50.5083 43.7716C51.0091 44.6731 52.2111 45.6747 53.3129 46.0754L54.0141 46.3759L75.5493 46.476C79.7714 46.509 83.4396 46.5312 86.4929 46.5496C92.7114 46.5871 96.3798 46.6092 96.9844 46.6764C97.385 46.8767 98.3867 47.8783 100.59 50.3824C102.894 52.9867 103.295 53.3873 103.595 53.3873H103.796C104.096 53.2872 104.096 53.2872 107.101 49.9818C108.804 48.0787 110.006 46.7765 110.206 46.6764C110.47 46.5885 110.81 46.5777 112.986 46.5088L112.991 46.5086C112.998 46.5084 113.006 46.5082 113.013 46.5079C113.311 46.4985 113.642 46.488 114.012 46.476C114.15 46.472 114.284 46.4681 114.412 46.4643C117.451 46.3754 117.851 46.3637 118.62 46.0754C119.822 45.4744 120.723 44.7733 121.324 43.7716L121.925 42.77V20.3333C121.925 7.87358 121.925 6.10285 121.04 5.21879C120.893 5.07234 120.722 4.95022 120.523 4.80787L120.222 4.50737C119.521 4.00656 118.92 3.6059 118.319 3.40557C117.518 3.10508 117.518 3.10508 86.2668 3.10508C73.7463 3.10508 54.9155 3.10508 54.4147 3.20524C52.7119 3.50574 51.2095 4.50737 50.4082 5.90967ZM38.4887 13.9228C36.886 14.4236 35.3836 15.7257 34.9829 17.128C34.8828 17.4285 34.7826 19.1313 34.7826 35.6583V53.4875L35.2834 54.2888C35.7842 55.2905 36.9862 56.1919 37.9878 56.5926C38.7754 56.8879 39.0792 56.893 44.7959 56.9882L45.0995 56.9932C50.6085 56.9932 51.2095 56.9932 51.51 57.1936C51.7103 57.2937 52.7119 58.2954 54.7152 60.499C57.62 63.7042 57.8203 63.9046 58.1208 63.9046H58.2209C58.5214 63.9046 58.5214 63.9046 61.2259 60.8996C62.7283 59.1969 63.9303 57.8947 64.1306 57.6944L64.2308 57.5942C64.7304 57.0946 64.8313 57.0934 73.3853 56.9939L73.4458 56.9932L84.9647 56.8931H85.0648L85.9663 56.4924C88.1699 55.4908 89.1716 53.8882 89.1716 51.2839V49.481L53.8137 49.3808L52.8121 49.0803C51.2095 48.6796 50.0075 48.0787 48.8055 47.077C47.6036 46.1755 46.9024 45.1739 46.4016 43.8718L46.1011 43.0705L46.0009 13.7225H42.2949C39.9911 13.7225 38.9895 13.8226 38.4887 13.9228Z" fill="#FBA04D"/>
<path fill-rule="evenodd" clip-rule="evenodd" d="M113.013 46.5079C113.006 46.5082 112.998 46.5084 112.991 46.5086L113.013 46.5079Z" fill="#FBA04D"/>
<path d="M67.6848 12.1198C67.7131 11.2432 67.0101 10.5172 66.1331 10.5172H65.2825C64.425 10.5172 63.7299 11.2123 63.7299 12.0697C63.7299 12.9272 64.425 13.6223 65.2825 13.6223H66.1331C66.971 13.6223 67.6578 12.9573 67.6848 12.1198Z" fill="#FBA04D"/>
<path d="M60.2221 18.931C59.337 18.931 58.6216 19.6485 58.6216 20.5336C58.6216 21.3634 59.2943 22.0361 60.1241 22.0361H111.759C112.616 22.0361 113.311 21.341 113.311 20.4835C113.311 19.6261 112.616 18.931 111.759 18.931H86.0665C73.4243 18.931 64.1601 18.931 60.2221 18.931Z" fill="#FBA04D"/>
<path d="M60.2208 35.9119C59.3209 35.9263 58.6216 36.6615 58.6216 37.5615C58.6216 38.3364 59.2489 38.9652 60.0239 38.9669L101.54 39.0604C102.398 39.0623 103.094 38.3675 103.094 37.5096C103.094 36.6531 102.4 35.9588 101.544 35.9588H80.9581C69.9777 35.8781 63.2925 35.8624 60.2208 35.9119Z" fill="#FBA04D"/>
<path d="M58.6216 29.0475C58.6216 29.8224 59.249 30.451 60.0239 30.4524L111.657 30.5471C112.515 30.5487 113.211 29.8538 113.211 28.996C113.211 28.1394 112.516 27.4449 111.66 27.4449H85.9663C71.6198 27.4449 63.5246 27.4449 60.1189 27.5027C59.2767 27.517 58.6216 28.2053 58.6216 29.0475Z" fill="#FBA04D"/>
<path d="M111.759 10.5172H75.4992C74.6418 10.5172 73.9467 11.2123 73.9467 12.0697C73.9467 12.9272 74.6418 13.6223 75.4992 13.6223H111.759C112.616 13.6223 113.311 12.9272 113.311 12.0697C113.311 11.2123 112.616 10.5172 111.759 10.5172Z" fill="#FBA04D"/>
<path fill-rule="evenodd" clip-rule="evenodd" d="M126.132 33.5553H132.142V93.6536H120.924V91.5502C120.924 89.1462 120.423 87.5436 119.121 85.8408C118.52 84.9394 117.117 83.7374 116.216 83.1364L115.114 82.4353L116.316 81.1331C117.117 80.3318 117.818 79.1299 118.119 78.1282C118.419 77.2267 118.419 75.3236 118.119 74.4222C117.318 71.6176 114.613 69.414 111.308 68.7128C110.607 68.6126 109.705 68.5125 108.904 68.5125C106.199 68.5125 104.096 69.2136 102.093 70.8163C101.091 71.6176 100.791 71.9181 100.29 72.8195C99.5886 74.1217 99.2881 74.923 99.2881 76.2251C99.2881 78.1282 100.19 80.1315 101.592 81.3335L102.694 82.3351L101.492 83.0363C99.5886 84.2382 97.986 86.0412 97.1847 88.1446C96.8842 88.9459 96.784 89.2464 96.784 91.0494L96.6839 93.6536H55.1159L55.0157 91.0494C54.9155 89.2464 54.9155 88.9459 54.615 88.1446C53.8137 86.0412 52.2111 84.2382 50.308 83.0363L49.2062 82.3351L50.4082 81.2333C51.2095 80.5322 52.1109 79.0297 52.3113 78.0281C52.6118 77.1266 52.6118 75.524 52.4114 74.5223C52.3113 74.2218 52.0108 73.4205 51.6101 72.7194C51.1093 71.8179 50.8088 71.5174 49.8072 70.7161C47.9041 69.1135 45.7005 68.4123 42.996 68.4123C40.2916 68.4123 38.1882 69.1135 36.1849 70.7161C34.2818 72.3187 33.4805 73.9213 33.4805 76.2251C33.4805 78.1282 34.1816 79.7308 35.4837 81.1331L36.6857 82.4353L35.5839 83.1364C34.6824 83.7374 33.4805 84.8392 32.7793 85.6405C31.4772 87.3433 30.8762 89.1462 30.8762 91.5502V93.7538H19.758V33.6555H30.9764V30.5504H23.5642C17.6546 30.5504 16.8533 30.5504 16.6529 30.7507C16.4526 30.8509 16.1521 31.1514 16.0519 31.2515L15.8516 31.4518V63.4041V95.7571C15.9518 96.0576 16.6529 96.5584 17.1537 96.6585C19.3574 96.8589 132.543 96.8589 134.746 96.6585C135.247 96.5584 135.948 95.9574 136.048 95.7571C136.048 94.6553 136.148 81.634 136.048 63.4041V31.4518L135.848 31.2515C135.748 31.1514 135.447 30.8509 135.247 30.7507C135.047 30.5504 134.546 30.5504 130.94 30.5504H126.132V33.5553ZM111.208 84.4385C110.506 84.2382 109.805 84.138 108.804 84.138C105.999 84.138 103.595 85.2399 102.093 87.2431C101.091 88.5453 100.791 89.5469 100.791 91.5502V93.6536H117.017V91.5502C117.017 89.7472 116.717 88.7456 116.015 87.6438C115.014 86.1413 113.211 84.9394 111.208 84.4385ZM107.301 71.7177C105.298 72.2186 103.595 73.9213 103.295 75.7243C103.094 76.6258 103.595 78.0281 104.296 78.9295C105.098 79.9312 106.5 80.7325 107.802 80.9328C108.203 81.033 108.503 81.033 108.904 81.033C110.406 81.033 111.909 80.432 113.011 79.4303C114.213 78.3285 114.713 76.8261 114.413 75.3236C114.012 73.721 112.71 72.4189 110.907 71.8179C109.905 71.5174 108.203 71.5174 107.301 71.7177ZM45.1996 84.3384C43.8975 84.0379 41.7941 84.0379 40.4919 84.4385C37.7875 85.2399 35.8844 86.9426 35.1832 89.1462C34.9829 89.6471 34.8828 90.5485 34.8828 91.5502V93.6536H51.1093V91.45C51.1093 88.9459 50.5083 87.5436 48.7054 86.0412C47.6036 85.2399 46.6019 84.739 45.1996 84.3384ZM40.8926 71.8179C38.8893 72.5191 37.3869 74.2218 37.3869 76.1249C37.3869 77.6274 37.8877 78.5289 39.0896 79.5305C39.9588 80.3031 40.3624 80.4239 41.2881 80.7009C41.3224 80.7112 41.3575 80.7217 41.3934 80.7325C41.9944 80.8326 42.5954 80.9328 43.0962 80.9328C43.7973 80.9328 44.5987 80.8326 45.2998 80.5322C47.7037 79.6307 49.106 77.3269 48.4049 75.1233C47.9041 73.6208 46.9024 72.6192 45.2998 71.9181C44.2982 71.5174 42.0946 71.4172 40.8926 71.8179Z" fill="#565557"/>
<path fill-rule="evenodd" clip-rule="evenodd" d="M0.827037 107.076C0.626709 107.276 0.626709 107.376 0.626709 111.282C0.626709 115.914 0.723644 116.086 1.58503 117.616L1.62835 117.693C2.52982 119.195 4.03228 120.397 5.83523 121.099C6.53638 121.399 7.53802 121.7 8.03884 121.8C8.84015 121.9 24.9665 122 76.0501 122C140.155 122 143.36 122 144.262 121.8C146.966 121.199 149.27 119.696 150.372 117.693L150.415 117.616C151.276 116.086 151.373 115.914 151.373 111.282C151.373 107.476 151.373 107.376 151.173 107.076C150.672 106.475 150.572 106.374 148.669 106.274L146.365 106.174L146.265 28.4469L145.964 27.6456C144.963 25.1415 142.759 23.3386 139.754 22.4371L138.552 22.1366L126.132 22.0364V25.1415L138.252 25.2417L139.153 25.6423C140.355 26.1432 141.557 27.245 142.058 28.2466L142.459 29.0479V106.374H120.018C103.594 106.374 98.4868 106.374 97.8858 106.475C97.6855 106.575 96.6839 107.276 95.2816 108.478L92.8776 110.481H59.0222L56.6183 108.478C55.3162 107.376 54.2144 106.575 54.0141 106.475C53.5133 106.374 48.3055 106.374 31.9817 106.374H9.54129V59.3976C9.54129 28.0463 9.54129 28.0463 10.5429 27.245L10.6431 27.1448C11.4444 26.3435 12.2457 25.7425 13.3475 25.442C14.1488 25.2417 14.85 25.1415 22.3623 25.1415H30.9764L30.776 21.9363L13.1472 22.0364L12.1456 22.4371C9.2408 23.2384 7.0372 25.1415 6.03556 27.5455L5.6349 28.4469L5.53474 106.274L3.23097 106.374C1.32786 106.374 1.32786 106.475 0.827037 107.076ZM52.3113 109.379H4.73343V112.585C4.73343 115.189 4.73343 115.289 5.23425 116.19C5.83523 117.192 7.13736 118.194 8.33933 118.594C9.14064 118.895 9.2408 118.895 76.0501 118.895C142.561 118.895 142.957 118.796 143.75 118.597L143.761 118.594C144.963 118.294 146.265 117.292 146.866 116.19C147.367 115.289 147.367 115.189 147.367 112.585V109.379H99.5886L97.1847 111.383C95.7824 112.585 94.7807 113.286 94.5804 113.386C94.0796 113.586 91.9762 113.586 75.9499 113.586C59.9237 113.586 57.8203 113.586 57.3195 113.386C57.1191 113.286 56.1175 112.585 54.7152 111.383L52.3113 109.379Z" fill="#565557"/>
<path d="M77.8531 102.067H74.0468V105.172H77.8531V102.067Z" fill="#565557"/>
</svg>
