<svg width="122" height="122" viewBox="0 0 122 122" fill="none" xmlns="http://www.w3.org/2000/svg">
<path d="M100.183 94.7971C101.554 96.1678 103.241 98.2765 104.19 99.7526C105.561 101.861 105.982 102.283 107.037 102.916C108.302 103.654 109.989 103.759 111.36 103.338C112.519 103.021 120.638 95.0079 121.271 93.6373C121.798 92.4774 121.798 90.3687 121.271 89.2089C120.744 88.049 119.795 87.2056 117.58 85.8349C116.526 85.2022 114.628 83.5152 113.152 82.1445C110.516 79.614 110.305 79.614 109.567 80.0358C108.829 80.4575 108.829 80.4575 95.0168 66.6452C81.3099 52.9383 81.3099 52.8328 81.6262 52.2002C82.048 51.3567 82.048 51.0404 78.674 47.6664C75.3 44.2924 75.0891 44.2924 74.351 44.7141C73.7184 45.0305 73.2966 44.8196 72.7695 44.2924C72.2423 43.7652 72.0314 43.3435 72.3477 42.6054C72.664 41.7619 72.664 41.6565 70.977 39.864C69.6063 38.4933 69.3955 38.0716 69.3955 37.6498C69.3955 37.5444 69.5009 37.3335 69.8172 37.2281C70.1335 37.1226 70.5553 37.1226 70.8716 37.2281C71.2933 37.4389 72.664 36.9118 73.8238 35.7519C75.1945 34.4867 75.6163 33.7486 75.6163 32.7997C75.6163 31.8507 76.038 31.6399 78.674 30.2692C81.5208 28.793 82.1534 28.2659 82.8915 26.5789C83.3132 25.419 83.3132 23.6266 82.786 22.4668C82.3643 21.6233 78.674 17.7221 72.2423 11.2904C66.3378 5.49131 61.6985 0.957484 61.1713 0.641171C60.0115 0.00854432 58.1136 -0.202331 56.8484 0.21942C54.9505 0.957484 54.3179 1.69555 52.6309 5.17499C51.7874 6.96743 51.3656 7.60006 50.6275 7.60006C48.6242 7.60006 45.9883 10.3414 45.9883 12.4502C45.9883 13.5046 45.8828 13.9263 44.9339 14.7698L43.7741 15.9296L41.2436 14.4535C37.3424 12.1339 36.9206 12.1339 33.5466 15.5079C30.1726 18.8819 30.0672 19.1982 32.4922 23.2048L33.9684 25.7354L32.914 26.7897C32.1759 27.5278 31.7542 27.8441 30.8052 27.8441C30.3835 27.8441 29.6454 27.9495 29.2237 28.1604C27.6421 28.793 25.7442 31.1127 25.7442 32.4834C25.7442 33.3269 25.1116 33.6432 23.1083 34.6976C19.2071 36.7009 18.2582 37.6498 18.2582 40.4966C18.2582 41.8673 18.3636 42.1836 18.7853 43.0271C19.1017 43.5543 23.53 48.1936 29.54 54.2035C35.9717 60.6352 39.8729 64.431 40.7164 64.7473C41.8762 65.2745 43.7741 65.3799 44.8285 64.8527C46.41 64.2201 47.0427 63.4821 48.5188 60.6352C49.8895 57.9993 50.1003 57.5775 51.0493 57.5775C51.8928 57.5775 52.6309 57.1558 54.0015 55.7851C55.1614 54.5199 55.6885 53.2546 55.4777 52.8328C55.3722 52.5165 55.3722 52.0948 55.4777 51.7785C55.5831 51.4622 55.794 51.4622 55.8994 51.3567C56.3212 51.2513 56.6375 51.5676 58.1136 52.9383C59.9061 54.6253 59.9061 54.6253 60.855 54.309C61.5931 53.9927 62.0148 54.2035 62.542 54.7307C63.0692 55.2579 63.2801 55.6797 62.9638 56.3123C62.542 57.0504 62.542 57.3667 65.916 60.6352C69.29 64.1147 69.6063 64.1147 70.4498 63.5875C70.5553 63.5875 70.5553 63.4821 70.6607 63.4821C71.2933 63.4821 72.9803 65.0636 84.8948 76.9781C98.6017 90.7904 98.6017 90.7904 98.2854 91.5285C97.8636 92.1611 97.8636 92.4774 100.183 94.7971ZM110.305 83.5152L112.309 85.4131C113.258 86.2566 114.839 87.6273 115.999 88.3654C118.108 89.7361 118.951 90.5796 118.635 91.8448C118.424 92.4774 114.945 96.0623 114.523 96.4841L114.101 96.9058C111.676 99.3309 110.516 100.385 109.462 100.385H109.356C108.407 100.28 107.669 99.2254 106.404 97.433L106.088 97.0113C105.35 95.8514 104.084 94.3753 103.346 93.6373L101.765 92.1611L110.305 83.5152ZM55.4777 6.44025C55.6885 6.01849 56.8484 3.69886 57.2701 3.38255C57.5864 3.17168 58.2191 3.06624 58.6408 3.06624C59.5897 3.06624 60.0115 3.38255 69.7118 13.0828C69.8172 13.1883 79.7283 23.0994 80.0447 23.8375C80.7827 25.6299 79.6229 26.4734 76.8815 27.8441L74.1402 29.4257L54.107 9.3925L55.4777 6.44025ZM49.8895 11.5013C50.6275 10.7632 50.8384 10.7632 50.9439 10.7632C51.1547 10.7632 51.2602 10.7632 62.0148 21.5178L72.9803 32.4834L70.977 34.3812L49.046 12.4502L49.8895 11.5013ZM35.7608 17.5112C37.5533 15.7188 37.5533 15.7188 37.7641 15.7188C37.8696 15.7188 37.975 15.7188 39.4511 16.6677C40.5055 17.3003 41.0327 17.7221 41.1381 17.8275C41.349 18.1438 41.4545 18.2493 38.924 20.7798L36.288 23.4157L35.3391 21.9396C35.0228 21.4124 34.4956 20.6743 34.3901 20.358C33.8629 19.4091 34.1792 19.0928 35.7608 17.5112ZM46.1992 58.7374C45.1448 60.8461 44.3013 62.1114 43.1415 62.1114C42.8251 62.1114 42.5088 62.0059 42.1925 61.9005C41.4545 61.5842 31.5433 51.673 31.4379 51.5676C21.7376 41.8673 21.4213 41.4456 21.4213 40.4966C21.4213 39.9694 21.5267 39.3368 21.843 39.0205C22.1593 38.5988 26.904 36.0682 27.4312 36.0682C27.6421 36.0682 27.853 36.0682 37.7641 45.874L47.6753 55.7851L46.1992 58.7374ZM50.733 54.7307L28.8019 32.6942L29.6454 31.7453C30.3835 31.0072 30.5944 31.0072 30.6998 31.0072C30.9107 31.0072 31.0161 31.0072 41.7708 41.7619L52.7363 52.7274L50.733 54.7307ZM53.4744 49.3534L34.0738 29.9529L48.097 15.9296L67.4976 35.3302L53.4744 49.3534ZM60.3278 50.6187L58.4299 48.7208L66.9704 40.1803L68.8683 42.0782L60.3278 50.6187ZM65.7051 53.36L63.8073 51.4622L66.7595 48.5099C69.5009 45.7685 69.6063 45.7685 69.8172 45.7685C69.9226 45.7685 70.1335 45.7685 70.8716 46.5066L71.7151 47.4555L65.7051 53.36ZM69.7118 60.1081L66.4432 56.9449L74.9837 48.299L78.2522 51.5676L69.7118 60.1081ZM73.1912 60.9516L79.0957 54.9416L106.931 82.6717L101.027 88.6817L73.1912 60.9516Z" fill="#565557"/>
<path fill-rule="evenodd" clip-rule="evenodd" d="M52.8417 117.361C52.8417 113.776 52.8417 113.67 52.42 113.038C52.1037 112.616 51.5765 112.089 51.1547 111.773C50.5252 111.353 50.4177 111.351 45.0145 111.247L44.9339 111.245H37.975L26.4823 111.14L14.8841 111.456H8.13613C2.65337 111.456 2.65337 111.456 2.02074 111.878C1.59899 112.194 1.0718 112.721 0.755491 113.143C0.33374 113.776 0.33374 113.987 0.33374 117.466C0.33374 121.051 0.33374 121.051 0.755491 121.578L1.17724 122H51.8928L52.3145 121.578C52.8417 120.946 52.8417 120.946 52.8417 117.361ZM3.286 118.942H49.8895V114.303H3.286V118.942Z" fill="#565557"/>
<path fill-rule="evenodd" clip-rule="evenodd" d="M38.3968 111.243L40.1892 109.961C41.4545 108.999 44.0904 106.329 45.1448 104.94C46.5155 103.124 48.097 99.7058 48.7297 97.2489C49.4677 94.3647 49.4677 88.7031 48.7297 85.9258C47.6753 81.8665 45.5665 78.2346 42.5088 75.3504C39.5566 72.4662 36.8152 70.8638 32.8086 69.6888C30.2781 68.941 25.4279 68.7274 22.792 69.2615C14.357 70.9707 7.81982 76.9527 5.18388 85.4985C4.65669 87.4213 4.55125 87.8485 4.55125 91.6941C4.55125 95.5397 4.55125 95.967 5.18388 97.8898C6.66 102.697 9.29595 106.649 13.1971 109.747L15.3059 111.456L38.3968 111.243ZM10.2449 81.6529C7.39807 86.7803 6.87088 92.8692 8.8742 98.4239C10.983 104.299 16.044 108.999 22.0539 110.602C23.4246 111.029 24.7953 111.136 26.904 111.136H27.1149C30.5944 111.136 32.3868 110.602 35.7608 108.999C37.975 107.931 38.6076 107.397 40.611 105.367C42.5088 103.551 43.1415 102.59 44.0904 100.774C45.7774 97.5694 46.3046 95.3261 46.3046 91.6941C46.3046 87.9554 45.8828 86.0326 44.3013 82.7211C41.7708 77.7005 37.1315 73.8549 31.6487 72.4662C29.6454 71.9321 26.166 71.7184 24.2681 72.0389C18.3636 72.8935 13.1971 76.4186 10.2449 81.6529Z" fill="#FBA04D"/>
<path fill-rule="evenodd" clip-rule="evenodd" d="M17.578 97.7224H19.2918V78.5667H23.8418C25.3169 78.5667 26.5497 78.572 27.4529 78.5816C28.363 78.5913 28.9249 78.6053 29.0709 78.6214C31.3545 78.872 33.0374 79.6372 34.2926 80.972C35.6267 82.3906 36.2536 84.2679 36.1762 86.6974C36.146 87.645 36.0637 88.215 35.8529 88.9562C35.1135 91.5564 33.1115 93.3202 30.1934 93.9158C29.163 94.1261 28.6751 94.1519 25.3792 94.1519H22.0506V97.7224H31.6203C32.4093 97.7224 33.0489 98.3525 33.0489 99.1298C33.0489 99.9071 32.4093 100.537 31.6203 100.537H22.0506V105.563C22.0506 106.314 21.433 106.922 20.6712 106.922C19.9094 106.922 19.2918 106.314 19.2918 105.563V100.537H17.578C16.789 100.537 16.1494 99.9071 16.1494 99.1298C16.1494 98.3525 16.789 97.7224 17.578 97.7224ZM28.8567 91.2609C29.4625 91.2216 29.7412 91.1502 30.222 91.0162C31.7588 90.5878 32.7676 89.6143 33.187 88.1437C33.5894 86.7333 33.4544 84.8724 32.8528 83.7093C32.7419 83.4949 32.5061 83.1622 32.3232 82.9594C31.6215 82.1813 30.7682 81.7699 29.3792 81.5058C29.1921 81.4702 28.9065 81.4488 28.3448 81.4332C27.7794 81.4174 26.9218 81.4073 25.5826 81.3976L22.0506 81.3718V91.3475L25.5826 91.321C27.3448 91.3078 28.2623 91.2995 28.8567 91.2609Z" fill="#FBA04D"/>
</svg>
