<svg width="15" height="12" viewBox="0 0 15 12" fill="none" xmlns="http://www.w3.org/2000/svg">
<path fill-rule="evenodd" clip-rule="evenodd" d="M10.712 6.31233C10.5525 8.40314 8.80549 10.05 6.67383 10.05C4.43707 10.05 2.62383 8.23675 2.62383 6C2.62383 3.76325 4.43707 1.95 6.67383 1.95C7.51804 1.95 8.30193 2.2083 8.95076 2.65018L10.2553 1.50134C9.27282 0.71811 8.02799 0.25 6.67383 0.25C3.49819 0.25 0.923828 2.82436 0.923828 6C0.923828 9.17564 3.49819 11.75 6.67383 11.75C9.84947 11.75 12.4238 9.17564 12.4238 6C12.4238 5.62301 12.3875 5.25449 12.3183 4.89774L10.712 6.31233ZM14.0746 2.00924C14.0687 1.99497 14.0805 2.0235 14.0746 2.00924L12.7731 0.490723L6.47615 5.88807L4.63095 4.04287L3.21674 5.45709L6.37154 8.61189C6.37791 8.63673 14.0746 2.00924 14.0746 2.00924Z" fill="#A8A8A8"/>
</svg>
