<svg width="11" height="12" viewBox="0 0 11 12" fill="none" xmlns="http://www.w3.org/2000/svg">
<path d="M9.7425 1.2H7.20917C6.95462 0.504 6.28796 0 5.50008 0C4.7122 0 4.04553 0.504 3.79099 1.2H1.25765C0.590987 1.2 0.0455322 1.74 0.0455322 2.4V10.8C0.0455322 11.46 0.590987 12 1.25765 12H9.7425C10.4092 12 10.9546 11.46 10.9546 10.8V2.4C10.9546 1.74 10.4092 1.2 9.7425 1.2ZM5.50008 1.2C5.83341 1.2 6.10614 1.47 6.10614 1.8C6.10614 2.13 5.83341 2.4 5.50008 2.4C5.16674 2.4 4.89402 2.13 4.89402 1.8C4.89402 1.47 5.16674 1.2 5.50008 1.2ZM6.7122 9.6H2.46977V8.4H6.7122V9.6ZM8.53038 7.2H2.46977V6H8.53038V7.2ZM8.53038 4.8H2.46977V3.6H8.53038V4.8Z" fill="#A8A8A8"/>
</svg>
