<svg width="14" height="12" viewBox="0 0 14 12" fill="none" xmlns="http://www.w3.org/2000/svg">
<path fill-rule="evenodd" clip-rule="evenodd" d="M5.26743 0.594819C4.8393 0.640788 4.48598 0.930631 4.33789 1.35737C4.30468 1.45306 4.29358 1.55276 4.28381 1.84347L4.27147 2.2092L2.88736 2.20955C1.74407 2.20986 1.4781 2.21524 1.35884 2.24046C0.959008 2.32504 0.626582 2.64563 0.534632 3.0353C0.489069 3.22838 0.488203 5.00832 0.53358 5.18237C0.636895 5.57855 0.979819 5.90666 1.3668 5.97952C1.43765 5.99285 2.28401 6.00043 3.70267 6.00043H5.92746L5.92754 5.83044C5.92762 5.63175 5.96312 5.55344 6.07768 5.49912C6.14182 5.46871 6.24897 5.46471 7 5.46471C7.75103 5.46471 7.85818 5.46871 7.92232 5.49912C8.03688 5.55344 8.07238 5.63175 8.07246 5.83044L8.07254 6.00043H10.2973C11.716 6.00043 12.5623 5.99285 12.6332 5.97952C13.0202 5.90666 13.3631 5.57855 13.4664 5.18237C13.5118 5.00832 13.5109 3.22838 13.4654 3.0353C13.3734 2.64563 13.041 2.32504 12.6412 2.24046C12.5219 2.21524 12.2559 2.20986 11.1126 2.20955L9.72853 2.2092L9.71619 1.84347C9.70642 1.55276 9.69532 1.45306 9.66211 1.35737C9.53928 1.00345 9.28326 0.748426 8.93194 0.630053C8.83432 0.597168 8.67919 0.593851 7.0825 0.590616C6.12392 0.588658 5.30714 0.590554 5.26743 0.594819ZM8.61913 1.94134V2.1989H7H5.38087L5.375 1.96321C5.37178 1.83358 5.37382 1.71531 5.37955 1.70037C5.38809 1.67818 5.68426 1.67419 7.00456 1.67851L8.61913 1.68379V1.94134ZM0.71158 6.26858C0.673216 6.2775 0.612886 6.3137 0.577513 6.34906L0.513181 6.4133L0.506704 8.4064C0.502167 9.80161 0.507096 10.4397 0.523122 10.5335C0.576502 10.8456 0.811286 11.1516 1.11133 11.3001C1.3463 11.4163 0.957419 11.4091 7 11.4091C13.0426 11.4091 12.6537 11.4163 12.8887 11.3001C13.1887 11.1516 13.4235 10.8456 13.4769 10.5335C13.4929 10.4397 13.4978 9.80161 13.4933 8.4064L13.4868 6.4133L13.4231 6.34968C13.3881 6.31469 13.3231 6.27762 13.2787 6.2673C13.2095 6.25121 13.1835 6.25632 13.0949 6.30352C12.8472 6.43558 12.7575 6.47545 12.642 6.50485C12.5358 6.53188 12.2165 6.53615 10.2958 6.53615H8.07254V6.97088C8.07254 7.46547 8.06085 7.51606 7.93173 7.58024C7.86201 7.61487 7.78762 7.61788 7 7.61788C6.21238 7.61788 6.13799 7.61487 6.06827 7.58024C5.93917 7.51606 5.92746 7.46543 5.92746 6.97131V6.53703L3.65346 6.53143L1.37947 6.52584L1.25592 6.47889C1.18795 6.45307 1.07193 6.3963 0.998094 6.35275C0.836841 6.25764 0.802272 6.24748 0.71158 6.26858Z" fill="#A8A8A8"/>
</svg>
