<svg width="18" height="17" viewBox="0 0 18 17" fill="none" xmlns="http://www.w3.org/2000/svg">
<path d="M13.2422 11.7158L13.2424 11.7158L15.6443 11.99C15.6446 11.9901 15.6449 11.9901 15.6451 11.9901C16.4022 12.0805 16.9645 12.7157 16.9571 13.4627H16.9571V13.4666V15.1038C16.9571 15.9576 16.2473 16.6483 15.4229 16.5973C7.5518 16.1082 1.24894 9.81447 0.759889 1.93422C0.708819 1.1098 1.39956 0.4 2.25335 0.4H3.89054C4.65187 0.4 5.28639 0.966271 5.37648 1.72153C5.37651 1.72177 5.37654 1.722 5.37657 1.72224L5.65082 4.10546C5.70319 4.5618 5.5464 5.00859 5.22595 5.32904L4.34585 6.20915L4.14078 6.41422L4.27193 6.67288C5.67335 9.43681 7.93061 11.6841 10.6837 13.085L10.9426 13.2167L11.148 13.0113L12.0186 12.1407C12.3391 11.8202 12.7858 11.6634 13.2422 11.7158Z" stroke="#757575" stroke-width="0.8"/>
</svg>
