<svg width="20" height="17" viewBox="0 0 20 17" fill="none" xmlns="http://www.w3.org/2000/svg">
<path fill-rule="evenodd" clip-rule="evenodd" d="M19.9587 0.375947C20.388 0.886436 17.3448 16.0936 16.6823 16.7471C16.1378 17.2843 15.6782 17.0745 12.9604 15.0474C11.9239 14.2745 10.9239 13.642 10.7381 13.642C10.552 13.642 9.88244 14.165 9.24995 14.8042C7.36072 16.7131 7.01621 16.4254 5.62138 11.7738L5.1049 10.0511L2.53961 9.20738C0.0334997 8.3831 -0.449704 7.95921 0.361225 7.29502C0.699849 7.01784 18.9655 0.035999 19.4463 0.000261861C19.5479 -0.00758288 19.7785 0.161814 19.9587 0.375947ZM11.2496 6.31616C8.27971 8.14079 6.1773 9.61619 6.17024 9.88117C6.16346 10.1299 6.45056 11.1758 6.80833 12.2055L7.45819 14.0778L7.69611 12.4798C7.82714 11.6009 8.10687 10.7511 8.31799 10.5913C9.05531 10.0331 16.4641 3.38948 16.4641 3.28634C16.4641 3.11259 16.4753 3.10592 11.2496 6.31616Z" fill="#727584"/>
</svg>
