<svg width="20" height="18" viewBox="0 0 20 18" fill="none" xmlns="http://www.w3.org/2000/svg">
<path fill-rule="evenodd" clip-rule="evenodd" d="M19.9587 0.645478C20.388 1.15597 17.3448 16.3631 16.6823 17.0166C16.1378 17.5538 15.6782 17.344 12.9604 15.3169C11.9239 14.544 10.9239 13.9115 10.7381 13.9115C10.552 13.9115 9.88244 14.4345 9.24995 15.0737C7.36072 16.9826 7.01621 16.695 5.62138 12.0433L5.1049 10.3207L2.53961 9.47691C0.0334997 8.65263 -0.449704 8.22874 0.361225 7.56455C0.699849 7.28737 18.9655 0.30553 19.4463 0.269793C19.5479 0.261948 19.7785 0.431345 19.9587 0.645478ZM11.2496 6.58569C8.27971 8.41032 6.1773 9.88572 6.17024 10.1507C6.16346 10.3994 6.45056 11.4454 6.80833 12.4751L7.45819 14.3473L7.69611 12.7493C7.82714 11.8704 8.10687 11.0206 8.318 10.8608C9.05531 10.3026 16.4641 3.65901 16.4641 3.55587C16.4641 3.38212 16.4753 3.37545 11.2496 6.58569Z" fill="#FBA04D"/>
</svg>
