<svg width="20" height="18" viewBox="0 0 20 18" fill="none" xmlns="http://www.w3.org/2000/svg">
<path fill-rule="evenodd" clip-rule="evenodd" d="M19.9587 1.07745C20.388 1.58794 17.3448 16.7951 16.6823 17.4486C16.1378 17.9858 15.6782 17.776 12.9604 15.7489C11.9239 14.976 10.9239 14.3435 10.7381 14.3435C10.552 14.3435 9.88244 14.8665 9.24995 15.5057C7.36072 17.4146 7.01621 17.1269 5.62138 12.4753L5.1049 10.7526L2.53961 9.90889C0.0334997 9.08461 -0.449704 8.66071 0.361225 7.99652C0.699849 7.71934 18.9655 0.737507 19.4463 0.701769C19.5479 0.693925 19.7785 0.863322 19.9587 1.07745ZM11.2496 7.01767C8.27971 8.8423 6.1773 10.3177 6.17024 10.5827C6.16346 10.8314 6.45056 11.8773 6.80833 12.907L7.45819 14.7793L7.69611 13.1813C7.82714 12.3024 8.10687 11.4526 8.318 11.2928C9.05531 10.7346 16.4641 4.09099 16.4641 3.98784C16.4641 3.8141 16.4753 3.80743 11.2496 7.01767Z" fill="white"/>
</svg>
