<svg width="24" height="14" viewBox="0 0 24 14" fill="none" xmlns="http://www.w3.org/2000/svg">
<path fill-rule="evenodd" clip-rule="evenodd" d="M13.7023 0.371542C13.9265 0.597726 14.0564 1.73668 14.0564 3.47889C14.0564 5.11782 14.1845 6.30886 14.3733 6.42671C14.9033 6.75706 16.0338 5.41484 17.311 2.93902L18.5239 0.587904L21.2332 0.673021L23.9422 0.758435L23.8829 1.60454C23.8481 2.09976 23.0835 3.47829 22.0386 4.92854C21.0568 6.2913 20.2535 7.56745 20.2535 7.76447C20.2535 7.96149 21.039 8.96979 21.9993 10.0049C24.9111 13.1441 24.698 14.0036 21.0086 14C18.6859 13.9979 18.0954 13.717 16.3723 11.795C15.096 10.3712 14.4433 10.4912 14.1724 12.1995C13.9135 13.8321 13.4803 14.1175 11.5645 13.9181C8.38366 13.5869 6.00928 11.9873 3.73877 8.6451C2.18949 6.36511 -0.179279 1.5224 0.0107658 1.0236C0.12674 0.718555 0.780092 0.60963 2.49345 0.60963H4.81854L5.37983 1.86763C6.26513 3.85149 8.10066 6.56183 8.55895 6.56183C9.14236 6.56183 9.33477 5.89637 9.33477 3.88036C9.33477 2.18428 9.02491 1.49442 8.0859 1.10128C7.81647 0.988487 7.87195 0.814385 8.2845 0.479574C8.99363 -0.0963007 13.156 -0.179334 13.7023 0.371542Z" fill="#727584"/>
</svg>
