<svg width="24" height="15" viewBox="0 0 24 15" fill="none" xmlns="http://www.w3.org/2000/svg">
<path fill-rule="evenodd" clip-rule="evenodd" d="M13.7023 0.641074C13.9265 0.867257 14.0564 2.00621 14.0564 3.74842C14.0564 5.38735 14.1845 6.57839 14.3733 6.69624C14.9033 7.02659 16.0338 5.68437 17.311 3.20855L18.5239 0.857435L21.2332 0.942552L23.9422 1.02797L23.8829 1.87407C23.8481 2.36929 23.0835 3.74782 22.0386 5.19808C21.0568 6.56083 20.2535 7.83698 20.2535 8.034C20.2535 8.23102 21.039 9.23932 21.9993 10.2744C24.9111 13.4136 24.698 14.2731 21.0086 14.2695C18.6859 14.2674 18.0954 13.9865 16.3723 12.0645C15.096 10.6408 14.4433 10.7607 14.1724 12.469C13.9135 14.1017 13.4803 14.3871 11.5645 14.1877C8.38366 13.8564 6.00928 12.2568 3.73877 8.91463C2.18949 6.63464 -0.179279 1.79193 0.0107658 1.29314C0.12674 0.988086 0.780092 0.879161 2.49345 0.879161H4.81854L5.37983 2.13716C6.26513 4.12103 8.10066 6.83136 8.55895 6.83136C9.14236 6.83136 9.33477 6.1659 9.33477 4.14989C9.33477 2.45382 9.02491 1.76396 8.0859 1.37081C7.81647 1.25802 7.87195 1.08392 8.2845 0.749106C8.99363 0.173231 13.156 0.0901977 13.7023 0.641074Z" fill="#FBA04D"/>
</svg>
