<svg width="24" height="15" viewBox="0 0 24 15" fill="none" xmlns="http://www.w3.org/2000/svg">
<path fill-rule="evenodd" clip-rule="evenodd" d="M13.7023 0.57305C13.9265 0.799233 14.0564 1.93819 14.0564 3.68039C14.0564 5.31933 14.1845 6.51037 14.3733 6.62822C14.9033 6.95857 16.0338 5.61635 17.311 3.14053L18.5239 0.789411L21.2332 0.874529L23.9422 0.959942L23.8829 1.80605C23.8481 2.30127 23.0835 3.6798 22.0386 5.13005C21.0568 6.49281 20.2535 7.76896 20.2535 7.96598C20.2535 8.16299 21.039 9.1713 21.9993 10.2064C24.9111 13.3456 24.698 14.2051 21.0086 14.2015C18.6859 14.1994 18.0954 13.9185 16.3723 11.9965C15.096 10.5727 14.4433 10.6927 14.1724 12.401C13.9135 14.0336 13.4803 14.3191 11.5645 14.1197C8.38366 13.7884 6.00928 12.1888 3.73877 8.8466C2.18949 6.56662 -0.179279 1.72391 0.0107658 1.22511C0.12674 0.920062 0.780092 0.811137 2.49345 0.811137H4.81854L5.37983 2.06913C6.26513 4.053 8.10066 6.76334 8.55895 6.76334C9.14236 6.76334 9.33477 6.09788 9.33477 4.08187C9.33477 2.38579 9.02491 1.69593 8.0859 1.30279C7.81647 1.18999 7.87195 1.01589 8.2845 0.681082C8.99363 0.105207 13.156 0.0221741 13.7023 0.57305Z" fill="white"/>
</svg>
