<svg width="19" height="19" viewBox="0 0 19 19" fill="none" xmlns="http://www.w3.org/2000/svg">
<path fill-rule="evenodd" clip-rule="evenodd" d="M13.618 0.876938C15.7216 1.82743 17.6525 3.84283 18.4443 5.91427C19.2809 8.10304 19.1576 11.5945 18.1774 13.4694C17.1858 15.3663 15.6174 16.9098 13.7731 17.8036C12.373 18.4823 11.7318 18.611 9.75328 18.611C8.21375 18.611 6.97789 18.4405 6.18164 18.1182C4.99139 17.6364 4.91047 17.6425 2.58705 18.3943C1.27997 18.8172 0.125916 19.08 0.0226331 18.978C-0.0806496 18.8764 0.179468 17.772 0.600838 16.5238L1.36649 14.2549L0.778272 12.7271C0.0526443 10.8424 0.0176325 8.31474 0.688823 6.26362C1.27292 4.47823 3.52365 1.88173 5.23297 1.02127C7.83299 -0.287866 10.9223 -0.341012 13.618 0.876938ZM8.17815 1.94998C3.25 2.84674 0.573181 8.18494 2.78773 12.6998C3.39212 13.932 3.40595 14.0949 3.00194 15.2249C2.52055 16.5718 2.50259 16.5555 3.98651 16.1167C4.87368 15.8545 5.36656 15.9038 6.88019 16.4071C9.04501 17.1267 9.89276 17.1572 11.846 16.5848C16.276 15.2864 18.5564 10.1184 16.4981 6.04233C14.953 2.98236 11.5915 1.32881 8.17815 1.94998ZM7.93303 6.09722C8.32027 7.21847 8.32204 7.45224 7.94775 7.97961C7.42015 8.72305 7.69557 9.31285 9.16389 10.5851C10.3862 11.6442 10.7946 11.7049 11.5023 10.933C12.0129 10.3766 12.0337 10.3772 13.3134 10.9911C14.85 11.7276 15.0263 12.5816 13.8331 13.5077C12.77 14.3333 11.7789 14.2642 9.65471 13.2165C7.04792 11.9311 4.89811 9.15458 4.89811 7.07384C4.89811 5.74031 5.61609 4.81684 6.65274 4.81684C7.38072 4.81684 7.54933 4.98527 7.93303 6.09722Z" fill="#727584"/>
</svg>
