<svg width="19" height="20" viewBox="0 0 19 20" fill="none" xmlns="http://www.w3.org/2000/svg">
<path fill-rule="evenodd" clip-rule="evenodd" d="M13.618 1.14647C15.7216 2.09696 17.6525 4.11236 18.4443 6.1838C19.2809 8.37257 19.1576 11.8641 18.1774 13.7389C17.1858 15.6358 15.6174 17.1793 13.7731 18.0732C12.373 18.7519 11.7318 18.8805 9.75328 18.8805C8.21375 18.8805 6.97789 18.71 6.18164 18.3877C4.99139 17.9059 4.91047 17.912 2.58705 18.6639C1.27997 19.0867 0.125916 19.3495 0.0226331 19.2476C-0.0806496 19.1459 0.179468 18.0415 0.600838 16.7934L1.36649 14.5245L0.778272 12.9967C0.0526443 11.1119 0.0176325 8.58427 0.688823 6.53316C1.27292 4.74776 3.52365 2.15127 5.23297 1.2908C7.83299 -0.0183347 10.9223 -0.0714811 13.618 1.14647ZM8.17815 2.21951C3.25 3.11627 0.573181 8.45447 2.78773 12.9694C3.39212 14.2015 3.40595 14.3645 3.00194 15.4944C2.52055 16.8413 2.50259 16.825 3.98651 16.3862C4.87368 16.124 5.36656 16.1734 6.88019 16.6766C9.04501 17.3963 9.89276 17.4268 11.846 16.8544C16.276 15.556 18.5564 10.388 16.4981 6.31186C14.953 3.25189 11.5915 1.59834 8.17815 2.21951ZM7.93303 6.36676C8.32027 7.488 8.32204 7.72177 7.94775 8.24915C7.42015 8.99258 7.69557 9.58238 9.16389 10.8546C10.3862 11.9137 10.7946 11.9744 11.5023 11.2025C12.0129 10.6461 12.0337 10.6467 13.3134 11.2606C14.85 11.9971 15.0263 12.8512 13.8331 13.7773C12.77 14.6029 11.7789 14.5338 9.65471 13.486C7.04792 12.2007 4.89811 9.42411 4.89811 7.34337C4.89811 6.00984 5.61609 5.08637 6.65274 5.08637C7.38072 5.08637 7.54933 5.2548 7.93303 6.36676Z" fill="#FBA04D"/>
</svg>
