<svg width="19" height="20" viewBox="0 0 19 20" fill="none" xmlns="http://www.w3.org/2000/svg">
<path fill-rule="evenodd" clip-rule="evenodd" d="M13.618 1.57845C15.7216 2.52893 17.6525 4.54433 18.4443 6.61578C19.2809 8.80454 19.1576 12.2961 18.1774 14.1709C17.1858 16.0678 15.6174 17.6113 13.7731 18.5052C12.373 19.1838 11.7318 19.3125 9.75328 19.3125C8.21375 19.3125 6.97789 19.142 6.18164 18.8197C4.99139 18.3379 4.91047 18.344 2.58705 19.0959C1.27997 19.5187 0.125916 19.7815 0.0226331 19.6795C-0.0806496 19.5779 0.179468 18.4735 0.600838 17.2254L1.36649 14.9564L0.778272 13.4286C0.0526443 11.5439 0.0176325 9.01625 0.688823 6.96513C1.27292 5.17974 3.52365 2.58324 5.23297 1.72278C7.83299 0.413642 10.9223 0.360495 13.618 1.57845ZM8.17815 2.65149C3.25 3.54825 0.573181 8.88644 2.78773 13.4013C3.39212 14.6335 3.40595 14.7964 3.00194 15.9264C2.52055 17.2733 2.50259 17.257 3.98651 16.8182C4.87368 16.556 5.36656 16.6054 6.88019 17.1086C9.04501 17.8282 9.89276 17.8587 11.846 17.2863C16.276 15.988 18.5564 10.8199 16.4981 6.74384C14.953 3.68386 11.5915 2.03031 8.17815 2.65149ZM7.93303 6.79873C8.32027 7.91998 8.32204 8.15375 7.94775 8.68112C7.42015 9.42455 7.69557 10.0144 9.16389 11.2866C10.3862 12.3457 10.7946 12.4064 11.5023 11.6345C12.0129 11.0781 12.0337 11.0787 13.3134 11.6926C14.85 12.4291 15.0263 13.2831 13.8331 14.2092C12.77 15.0348 11.7789 14.9657 9.65471 13.918C7.04792 12.6326 4.89811 9.85609 4.89811 7.77535C4.89811 6.44182 5.61609 5.51835 6.65274 5.51835C7.38072 5.51835 7.54933 5.68678 7.93303 6.79873Z" fill="white"/>
</svg>
