<svg width="63" height="25" viewBox="0 0 63 25" fill="none" xmlns="http://www.w3.org/2000/svg">
<path fill-rule="evenodd" clip-rule="evenodd" d="M38.4332 7.01298C35.9838 7.42754 34.4728 10.5934 34.4721 15.312C34.4719 16.3767 34.5185 16.9484 34.6673 17.709C35.1257 20.0523 36.2723 21.6489 37.9231 22.2424C38.4 22.4138 38.7399 22.466 39.382 22.4663C40.0232 22.4666 40.2928 22.4314 40.9228 22.2653C41.7201 22.0552 42.7399 21.5636 42.7918 21.3644C42.8176 21.2655 42.6042 20.2955 42.5299 20.1736C42.5035 20.1301 42.4517 20.0849 42.4148 20.0732C42.378 20.0614 42.1466 20.0995 41.9005 20.1578C41.2293 20.317 40.864 20.3611 40.2285 20.3596C39.5499 20.358 39.3139 20.3092 38.8237 20.0692C38.0703 19.7003 37.5338 19.0098 37.2059 17.9869C37.0089 17.3726 36.9302 16.8231 36.9066 15.8975L36.8863 15.1026L37.0805 15.1257C37.7003 15.1996 38.4925 15.221 40.5977 15.2211L42.9481 15.2212V14.2093C42.9481 13.1235 42.9137 12.5369 42.8059 11.7878C42.4129 9.05544 41.2564 7.35485 39.568 7.02634C39.2852 6.97131 38.7187 6.96462 38.4332 7.01298ZM58.6595 7.01563C58.1342 7.10372 57.4976 7.39823 57.0064 7.78043C56.5644 8.12427 55.9655 8.86458 55.5991 9.52C54.9747 10.6367 54.535 12.272 54.3813 14.0495C54.3012 14.9753 54.3279 16.4684 54.4376 17.2011C54.8621 20.0344 56.1617 21.8241 58.1709 22.3424C59.2824 22.629 60.4969 22.4605 61.7412 21.8468C62.2585 21.5918 62.4717 21.4257 62.4717 21.2782C62.4717 21.1147 62.2285 20.1552 62.1729 20.099C62.125 20.0507 62.074 20.0555 61.7168 20.1416C61.1069 20.2887 60.7687 20.3414 60.2744 20.3663C59.3013 20.4154 58.6982 20.2 58.0746 19.5805C57.1724 18.6842 56.7384 17.1361 56.7354 14.8034C56.7337 13.5007 56.848 12.5152 57.1247 11.4483C57.4724 10.1078 58.0018 9.22778 58.6521 8.90959C58.8225 8.82626 58.8963 8.81231 59.1578 8.8142C59.6603 8.81776 60.0078 8.97879 60.6176 9.49057C60.8281 9.6672 60.9849 9.77211 61.0384 9.77211C61.1907 9.77211 61.3419 9.58459 61.7664 8.86963C62.2275 8.09295 62.2604 7.98778 62.0919 7.83031C61.9625 7.70934 61.1972 7.3696 60.7067 7.21536C60.4789 7.14368 60.1385 7.06035 59.9502 7.03012C59.5805 6.97076 58.968 6.9639 58.6595 7.01563ZM13.5387 7.41893C13.4884 7.49133 13.4827 8.24247 13.4832 14.7116C13.4836 20.4518 13.493 21.9421 13.5292 22.0144L13.5748 22.1052L14.6003 22.1153C15.61 22.1251 15.6269 22.1241 15.6889 22.0477C15.748 21.9749 15.752 21.7513 15.752 18.5048V15.0396H19.102V18.5214C19.102 21.8483 19.1049 22.0059 19.1678 22.0633C19.2258 22.1162 19.3531 22.1234 20.2249 22.1234C21.1394 22.1234 21.2207 22.1183 21.2757 22.057C21.3307 21.9956 21.3353 21.4344 21.3353 14.7215C21.3353 8.16161 21.3298 7.4468 21.2787 7.39525C21.2299 7.3461 21.0831 7.33818 20.2216 7.33818C19.2982 7.33818 19.2166 7.3433 19.1616 7.40462C19.1072 7.46525 19.102 7.71936 19.102 10.3108V13.1506H15.752V10.3146C15.752 8.42923 15.7395 7.45515 15.7147 7.40844C15.6791 7.34145 15.6287 7.33818 14.6361 7.33818C13.6008 7.33818 13.5944 7.33865 13.5387 7.41893ZM25.9555 7.38359C25.9343 7.41069 25.9037 8.26405 25.8794 9.49966C25.8304 11.9941 25.7397 13.3 25.511 14.8034C25.2182 16.7284 24.6824 18.5379 23.9977 19.9138L23.8201 20.2707H23.4443C23.0967 20.2707 23.0642 20.2768 23.0123 20.3515C22.9631 20.4224 22.9563 20.702 22.9563 22.6556C22.9563 24.6285 22.9626 24.8855 23.0128 24.9362C23.097 25.021 24.7015 25.0214 24.8216 24.9366C25.004 24.8077 25.0095 24.7631 25.0095 23.3967V22.1234H31.2412V23.4776C31.2412 24.6445 31.2489 24.8429 31.2973 24.9125C31.3526 24.9921 31.3651 24.9933 32.2068 24.9921C33.1079 24.9909 33.1116 24.9902 33.233 24.8126C33.2891 24.7305 33.2944 24.5392 33.2944 22.5763C33.2944 20.045 33.3378 20.2709 32.8517 20.2705C32.4862 20.2703 32.3109 20.2236 32.2154 20.1011C32.1418 20.0068 32.1417 19.9979 32.1417 13.7656C32.1417 9.79841 32.1289 7.49061 32.1066 7.43136L32.0715 7.33818H29.0312C26.6418 7.33818 25.9833 7.34791 25.9555 7.38359ZM45.3628 7.40844C45.3375 7.45621 45.3256 9.79798 45.3256 14.7203C45.3256 21.2157 45.3313 21.9703 45.3816 22.0427C45.4373 22.1229 45.4446 22.1234 46.4551 22.1234C47.1983 22.1234 47.4841 22.1117 47.5157 22.0798C47.5487 22.0465 47.5589 21.1521 47.5589 18.2755C47.5589 14.5845 47.5601 14.5162 47.6271 14.5865C47.6646 14.6259 47.9542 15.1976 48.2706 15.8569C50.6222 20.757 51.1088 21.757 51.1959 21.8691C51.3827 22.1095 51.4859 22.1257 52.7576 22.1148C53.7573 22.1063 53.8809 22.0989 53.8909 22.0466C53.9013 21.9919 53.4762 21.1606 50.8089 16.0204C50.2438 14.9315 49.7813 14.0226 49.7809 14.0005C49.7805 13.9785 50.2025 13.1857 50.7186 12.2387C53.0784 7.90863 53.3279 7.44164 53.3088 7.39129C53.2917 7.34635 53.1259 7.33818 52.2324 7.33818C51.2082 7.33818 51.1715 7.34065 51.0177 7.41992C50.9304 7.46489 50.8149 7.55887 50.761 7.6288C50.7071 7.69873 50.4934 8.11558 50.2861 8.55515C48.9118 11.4695 47.8925 13.5942 47.7939 13.75C47.5391 14.1522 47.5589 14.4064 47.5589 10.7283C47.5589 8.20778 47.5486 7.41505 47.5157 7.38177C47.484 7.34988 47.1941 7.33818 46.4363 7.33818C45.4487 7.33818 45.3984 7.34148 45.3628 7.40844ZM39.3259 8.89561C39.807 9.11019 40.2128 9.88008 40.4225 10.9759C40.5082 11.4237 40.5908 12.1991 40.6261 12.8872L40.6508 13.3685L39.3951 13.3689C38.2742 13.3692 37.5998 13.3968 37.1169 13.4621L36.959 13.4834L36.9843 13.0354C37.0557 11.7696 37.3355 10.4484 37.6791 9.75395C38.0787 8.94628 38.7063 8.61919 39.3259 8.89561ZM29.8724 20.2707H27.7831C26.634 20.2707 25.6939 20.262 25.6939 20.2514C25.6939 20.2408 25.7584 20.1173 25.8372 19.977C26.6877 18.4635 27.3245 16.4442 27.6545 14.2144C27.8115 13.1533 27.9668 11.3045 28.0194 9.87201L28.043 9.2272H29.8724V20.2707Z" fill="black"/>
<path fill-rule="evenodd" clip-rule="evenodd" d="M6.0442 0.0416313C5.41072 0.123186 4.55478 0.396295 4.04501 0.679539C2.32621 1.63451 1.24938 3.34695 0.873429 5.72312C0.77682 6.33396 0.739429 7.61599 0.800414 8.22851C0.978612 10.0182 1.71125 11.5114 2.90788 12.524C3.30855 12.863 3.62219 13.0717 4.12288 13.3321L4.50698 13.5319L4.21881 14.0587C3.65126 15.0962 3.10168 16.1023 2.14502 17.8549C1.61064 18.8339 0.910099 20.1158 0.588284 20.7035C-0.0400737 21.851 -0.080454 21.9612 0.0793731 22.0916C0.156963 22.155 0.242154 22.1596 1.32038 22.1591C2.16563 22.1587 2.50239 22.1465 2.56813 22.1137C2.6624 22.0668 2.66326 22.0652 3.91457 19.5984C4.24896 18.9392 4.61566 18.22 4.72945 18.0002C4.84324 17.7804 5.12273 17.2328 5.35053 16.7832C5.57837 16.3337 5.99506 15.5122 6.27653 14.9578L6.78829 13.9497H8.22349V17.9739C8.22349 21.5574 8.22965 22.007 8.27958 22.0789C8.33523 22.1591 8.34308 22.1597 9.33663 22.1597C10.2606 22.1597 10.3422 22.1546 10.3972 22.0932C10.4524 22.0317 10.4568 21.2167 10.4568 11.1026V0.178331L10.28 0L8.28815 0.00457723C7.19267 0.00712014 6.18288 0.0237945 6.0442 0.0416313ZM8.22349 12.0317V1.85269L7.33196 1.85596C6.76657 1.85803 6.34818 1.87656 6.18828 1.90657C5.58359 2.02002 5.07731 2.29451 4.6184 2.75768C4.16658 3.21366 3.86418 3.70474 3.63209 4.35928C3.12711 5.78349 3.08936 7.90407 3.54395 9.31066C3.76642 9.9991 4.07923 10.5327 4.53043 10.9937C4.98455 11.4576 5.50045 11.7531 6.15226 11.9227C6.39331 11.9854 6.58617 12.0004 7.33196 12.0147L8.22349 12.0317Z" fill="#E31E25"/>
</svg>
