<svg width="100" height="20" viewBox="0 0 100 20" fill="none" xmlns="http://www.w3.org/2000/svg">
<path fill-rule="evenodd" clip-rule="evenodd" d="M33.3333 0H94.2165L100 9.3381L94.23 19.1919H33.3333V0ZM34.9842 1.64033V17.5516H93.2806L98.0762 9.36172L93.294 1.64033H34.9842Z" fill="#FFCD00"/>
<path d="M40.7995 11.861C38.7579 10.3059 38.9865 6.48719 41.1869 5.39002C42.082 4.94377 43.0303 4.93381 43.9643 5.36084C44.7364 5.71396 44.7912 5.81722 44.4528 6.28338C44.239 6.57813 44.2105 6.57847 43.7794 6.29401C43.226 5.92874 42.1828 5.88268 41.5983 6.19784C40.6479 6.71007 40.1751 8.83776 40.7198 10.1509C41.2261 11.3716 42.6394 11.8144 43.7842 11.1114L44.3158 10.7848L44.5736 11.1809C44.8171 11.5553 44.8063 11.5943 44.3768 11.8878C43.7033 12.3481 41.4165 12.3311 40.7995 11.861Z" fill="black"/>
<path d="M88.4793 8.22599C88.6153 7.96094 88.8585 7.66687 89.0198 7.57221C89.5509 7.26059 89.8992 7.35558 89.8992 7.81179C89.8992 8.07094 89.804 8.23359 89.6523 8.23359C89.5164 8.23359 89.2788 8.48042 89.124 8.78192C88.9692 9.08342 88.7224 9.42271 88.5753 9.53575C88.404 9.66752 88.3822 9.74327 88.5145 9.74664C88.6281 9.74968 88.912 10.1317 89.1454 10.5956C89.3789 11.0596 89.6439 11.4392 89.7345 11.4392C89.8251 11.4392 89.8992 11.629 89.8992 11.861C89.8992 12.1313 89.805 12.2828 89.6369 12.2828C89.1141 12.2828 88.6981 11.9059 88.3701 11.1355C88.0159 10.3031 87.8144 10.0962 87.3529 10.092C87.1198 10.09 87.0586 10.2818 87.0179 11.144C86.9707 12.1429 86.9459 12.1984 86.5493 12.1984H86.1306L86.0711 7.55872H86.5615C87.0382 7.55872 87.0518 7.58217 87.0518 8.4023C87.0518 9.12306 87.0988 9.24589 87.3749 9.24589C87.7554 9.24589 88.1363 8.89411 88.4793 8.22599Z" fill="black"/>
<path d="M46.2254 12.2524C45.8499 12.3061 45.8486 12.2977 45.8486 9.93257V7.55872H49.5334V9.93257C49.5334 12.2977 49.5321 12.3061 49.1565 12.2524C48.7933 12.2005 48.778 12.1269 48.7324 10.216L48.6854 8.23359H46.6966L46.6495 10.216C46.604 12.1269 46.5887 12.2005 46.2254 12.2524Z" fill="black"/>
<path d="M70.9942 9.817C70.8901 9.58704 70.805 8.98472 70.805 8.47873C70.805 7.57829 70.8152 7.55872 71.2854 7.55872C71.7557 7.55872 71.7664 7.5793 71.7878 8.52041C71.8001 9.04933 71.8751 9.54773 71.9547 9.62787C72.0342 9.70801 72.43 9.74985 72.834 9.72066L73.5686 9.66768L73.6185 8.6132C73.6654 7.61996 73.6922 7.55872 74.0791 7.55872H74.4898V9.93257C74.4898 12.2977 74.4885 12.3061 74.113 12.2524C73.785 12.2054 73.7296 12.0842 73.6857 11.3171L73.6351 10.4357L72.8945 10.5379C71.9868 10.6633 71.2507 10.3841 70.9942 9.817Z" fill="black"/>
<path d="M76.2066 12.2524C75.8311 12.3061 75.8298 12.2977 75.8298 9.93257V7.55872H76.2485C76.6393 7.55872 76.6672 7.6149 76.6672 8.4023V9.24589H78.8446V8.4023C78.8446 7.61237 78.8716 7.55872 79.2681 7.55872H79.6915L79.6449 9.87858C79.5995 12.1396 79.5888 12.1998 79.2215 12.2524C78.8636 12.3036 78.8446 12.2507 78.8446 11.198V10.0895H76.6831L76.6334 11.144C76.5885 12.0911 76.5451 12.204 76.2066 12.2524Z" fill="black"/>
<path d="M81.3492 12.2828C81.0403 12.2828 81.022 12.1514 81.022 9.92076V7.55872H81.4342C81.8367 7.55872 81.8476 7.59331 81.8948 9.01728L81.9433 10.476L82.9901 9.20017C83.5659 8.49847 84.0369 7.84216 84.0369 7.74161C84.0369 7.64105 84.2275 7.55872 84.4603 7.55872H84.8838L84.8372 9.87858C84.7918 12.1396 84.7811 12.1998 84.4138 12.2524C84.0465 12.3049 84.0367 12.2664 84.0304 10.734L84.0238 9.16153L83.1134 10.1738C82.6126 10.7306 82.0843 11.433 81.9396 11.7345C81.7759 12.0754 81.5527 12.2828 81.3492 12.2828Z" fill="black"/>
<path fill-rule="evenodd" clip-rule="evenodd" d="M52.1714 7.64561C51.9108 7.79357 51.7108 7.83136 51.7108 7.73283C51.7108 7.637 51.5224 7.55872 51.2921 7.55872H50.8733V14.1387H51.2921C51.6991 14.1387 51.7108 14.1056 51.7108 12.9481V11.7576L52.0831 12.0201C52.2878 12.1645 52.7836 12.2828 53.1846 12.2828C53.7628 12.2828 54.0127 12.1833 54.39 11.8033C55.3434 10.8428 55.4348 8.99821 54.5769 8.03113C54.0284 7.41261 52.9008 7.23191 52.1714 7.64561ZM54.1395 9.8364C54.1395 9.19544 54.0495 8.84384 53.8204 8.58874C53.4145 8.13691 52.7183 8.13472 52.1522 8.58334C51.7649 8.89007 51.7108 9.0544 51.7108 9.92346C51.7108 10.7557 51.7703 10.9558 52.0831 11.1765C52.6163 11.5528 53.4385 11.5091 53.8204 11.0841C54.0495 10.829 54.1395 10.4774 54.1395 9.8364Z" fill="black"/>
<path fill-rule="evenodd" clip-rule="evenodd" d="M66.681 7.63245C65.2166 8.27442 64.9017 10.5211 66.1123 11.6896C66.7821 12.3359 68.2631 12.4792 69.0597 11.9746C70.0923 11.3204 70.4025 9.90912 69.7927 8.64003C69.2491 7.50911 67.9338 7.0831 66.681 7.63245ZM68.6926 11.1227C69.3163 10.4283 69.1691 8.78445 68.4482 8.39589C67.5953 7.93614 66.6235 8.4428 66.381 9.47383C66.2381 10.0812 66.5482 11.0525 66.955 11.2718C67.4674 11.548 68.3809 11.4696 68.6926 11.1227Z" fill="black"/>
<path fill-rule="evenodd" clip-rule="evenodd" d="M61.0904 12.3329V7.55872H62.393C63.9718 7.55872 64.4403 7.80707 64.4403 8.64425C64.4403 8.95249 64.3267 9.29954 64.1877 9.41562C63.9669 9.60036 63.9879 9.67983 64.3552 10.0498C64.8756 10.574 64.89 11.1185 64.3984 11.6896C64.0631 12.0792 63.8597 12.1389 62.556 12.2302L61.0904 12.3329ZM63.3614 8.47671C63.8658 8.85413 63.4876 9.3176 62.6226 9.38205C61.9285 9.43401 61.9279 9.43351 61.9279 8.83372C61.9279 8.26699 61.9587 8.23359 62.4821 8.23359C62.7869 8.23359 63.1826 8.34308 63.3614 8.47671ZM62.7064 11.4063C63.5308 11.3518 63.9066 11.0281 63.7185 10.5342C63.6403 10.3292 63.3963 10.2582 62.7705 10.2582H61.9279V11.4578L62.7064 11.4063Z" fill="black"/>
<path fill-rule="evenodd" clip-rule="evenodd" d="M56.6016 7.63565C56.1112 7.8587 56.0701 7.92686 56.2376 8.24202C56.3689 8.48919 56.5117 8.55921 56.7066 8.47249C57.2418 8.23426 58.2479 8.1963 58.4974 8.405C58.6338 8.51906 58.7455 8.75492 58.7455 8.92904C58.7455 9.1892 58.6182 9.24589 58.0337 9.24623C56.1373 9.2469 55.0932 10.8393 56.2668 11.9406C56.7049 12.352 57.7077 12.3958 58.402 12.0341C58.8226 11.8151 58.9036 11.8151 59.0842 12.0341C59.1969 12.1709 59.4682 12.2828 59.6871 12.2828C60.0004 12.2828 60.0854 12.1927 60.0854 11.861C60.0854 11.629 60.0191 11.4392 59.9379 11.4392C59.8568 11.4392 59.759 10.7164 59.7206 9.8332C59.6615 8.47215 59.5962 8.17184 59.2919 7.86545C58.8291 7.39911 57.3922 7.27645 56.6016 7.63565ZM57.3756 11.4087C58.1516 11.4836 58.7455 11.0564 58.7455 10.423C58.7455 9.87757 58.6284 9.84366 57.5933 10.0898C56.9582 10.241 56.7133 10.519 56.7765 11.0174C56.8079 11.2651 56.9672 11.3692 57.3756 11.4087Z" fill="black"/>
<path fill-rule="evenodd" clip-rule="evenodd" d="M17.3999 7.15586C16.291 7.34012 15.6069 8.74715 15.6065 10.8443C15.6065 11.3175 15.6275 11.5716 15.6949 11.9097C15.9024 12.9511 16.4216 13.6607 17.1689 13.9245C17.3848 14.0007 17.5387 14.0239 17.8294 14.024C18.1197 14.0241 18.2418 14.0085 18.527 13.9347C18.888 13.8413 19.3496 13.6228 19.3731 13.5343C19.3848 13.4903 19.2882 13.0592 19.2546 13.005C19.2426 12.9857 19.2191 12.9656 19.2025 12.9604C19.1858 12.9551 19.081 12.9721 18.9696 12.998C18.6657 13.0688 18.5004 13.0884 18.2127 13.0877C17.9054 13.087 17.7986 13.0653 17.5766 12.9586C17.2355 12.7947 16.9927 12.4878 16.8442 12.0332C16.755 11.7601 16.7194 11.5159 16.7087 11.1045L16.6996 10.7512L16.7875 10.7615C17.0681 10.7943 17.4267 10.8039 18.3798 10.8039L19.4439 10.804V10.3542C19.4439 9.87165 19.4283 9.61093 19.3795 9.27801C19.2016 8.06363 18.678 7.30781 17.9136 7.16181C17.7856 7.13735 17.5291 7.13438 17.3999 7.15586ZM26.5569 7.15704C26.3191 7.1962 26.0309 7.32709 25.8085 7.49695C25.6084 7.64977 25.3373 7.9788 25.1714 8.2701C24.8887 8.76639 24.6896 9.49321 24.62 10.2832C24.5838 10.6947 24.5959 11.3583 24.6455 11.6839C24.8377 12.9432 25.4261 13.7386 26.3357 13.9689C26.8389 14.0963 27.3887 14.0214 27.9521 13.7487C28.1863 13.6353 28.2828 13.5615 28.2828 13.496C28.2828 13.4233 28.1727 12.9968 28.1475 12.9719C28.1258 12.9504 28.1027 12.9525 27.9411 12.9908C27.6649 13.0562 27.5118 13.0796 27.288 13.0907C26.8475 13.1125 26.5744 13.0168 26.2921 12.7414C25.8837 12.3431 25.6872 11.655 25.6858 10.6183C25.6851 10.0393 25.7368 9.60131 25.8621 9.12713C26.0195 8.53136 26.2592 8.14022 26.5536 7.9988C26.6307 7.96177 26.6641 7.95557 26.7825 7.95641C27.01 7.95799 27.1673 8.02956 27.4434 8.25702C27.5387 8.33552 27.6097 8.38215 27.6339 8.38215C27.7029 8.38215 27.7713 8.2988 27.9635 7.98104C28.1723 7.63585 28.1872 7.58911 28.1109 7.51912C28.0523 7.46536 27.7058 7.31436 27.4837 7.24581C27.3806 7.21396 27.2265 7.17692 27.1413 7.16349C26.9739 7.1371 26.6966 7.13405 26.5569 7.15704ZM6.12938 7.33629C6.10659 7.36847 6.10402 7.70231 6.10423 10.5775C6.10441 13.1287 6.10867 13.791 6.12509 13.8232L6.1457 13.8635L6.61001 13.868C7.06712 13.8724 7.07475 13.8719 7.10285 13.8379C7.12959 13.8056 7.13139 13.7062 7.13139 12.2633V10.7232H8.64803V12.2707C8.64803 13.7494 8.64935 13.8194 8.67786 13.8449C8.70408 13.8684 8.76174 13.8716 9.15641 13.8716C9.57042 13.8716 9.60723 13.8693 9.63213 13.8421C9.65705 13.8148 9.65912 13.5654 9.65912 10.5819C9.65912 7.66637 9.65663 7.34867 9.6335 7.32576C9.61142 7.30392 9.54495 7.3004 9.15495 7.3004C8.73686 7.3004 8.69994 7.30268 8.67502 7.32993C8.65039 7.35688 8.64803 7.46981 8.64803 8.62157V9.88368H7.13139V8.62326C7.13139 7.78531 7.12573 7.35239 7.11451 7.33162C7.09841 7.30185 7.0756 7.3004 6.6262 7.3004C6.15751 7.3004 6.1546 7.30061 6.12938 7.33629ZM11.7508 7.32058C11.7412 7.33263 11.7274 7.7119 11.7164 8.26105C11.6942 9.36968 11.6531 9.95008 11.5496 10.6183C11.417 11.4738 11.1744 12.278 10.8645 12.8896L10.7841 13.0482H10.6139C10.4566 13.0482 10.4418 13.0509 10.4184 13.0841C10.3961 13.1156 10.393 13.2399 10.393 14.1082C10.393 14.985 10.3959 15.0992 10.4186 15.1217C10.4567 15.1594 11.1831 15.1596 11.2375 15.1219C11.3201 15.0646 11.3225 15.0448 11.3225 14.4375V13.8716H14.1438V14.4735C14.1438 14.9921 14.1473 15.0803 14.1692 15.1112C14.1942 15.1466 14.1999 15.1471 14.581 15.1466C14.9889 15.1461 14.9906 15.1457 15.0456 15.0668C15.071 15.0303 15.0734 14.9453 15.0734 14.0729C15.0734 12.9479 15.093 13.0483 14.873 13.0481C14.7075 13.048 14.6281 13.0273 14.5849 12.9728C14.5516 12.9309 14.5515 12.9269 14.5515 10.157C14.5515 8.39384 14.5457 7.36815 14.5356 7.34181L14.5197 7.3004H13.1433C12.0615 7.3004 11.7634 7.30473 11.7508 7.32058ZM20.5371 7.33162C20.5256 7.35286 20.5202 8.39364 20.5202 10.5814C20.5202 13.4682 20.5228 13.8035 20.5456 13.8357C20.5708 13.8714 20.5741 13.8716 21.0316 13.8716C21.3681 13.8716 21.4975 13.8664 21.5118 13.8522C21.5267 13.8374 21.5313 13.4399 21.5313 12.1614C21.5313 10.521 21.5319 10.4906 21.5622 10.5219C21.5792 10.5394 21.7103 10.7935 21.8535 11.0865C22.9182 13.2643 23.1385 13.7088 23.1779 13.7586C23.2625 13.8654 23.3092 13.8726 23.8849 13.8678C24.3375 13.864 24.3935 13.8607 24.398 13.8375C24.4027 13.8131 24.2103 13.4437 23.0027 11.1592C22.7469 10.6752 22.5375 10.2712 22.5373 10.2614C22.5371 10.2517 22.7282 9.89929 22.9618 9.47839C24.0302 7.55393 24.1431 7.34638 24.1345 7.324C24.1267 7.30403 24.0517 7.3004 23.6472 7.3004C23.1835 7.3004 23.1669 7.3015 23.0972 7.33673C23.0577 7.35671 23.0054 7.39848 22.981 7.42956C22.9566 7.46064 22.8599 7.64591 22.766 7.84127C22.1439 9.13656 21.6824 10.0809 21.6377 10.1501C21.5224 10.3289 21.5313 10.4418 21.5313 8.80713C21.5313 7.68689 21.5267 7.33456 21.5118 7.31977C21.4974 7.3056 21.3662 7.3004 21.0231 7.3004C20.576 7.3004 20.5532 7.30187 20.5371 7.33162ZM17.804 7.99259C18.0218 8.08796 18.2055 8.43013 18.3005 8.91716C18.3393 9.11619 18.3766 9.46081 18.3926 9.76662L18.4038 9.98055L17.8353 9.98071C17.3279 9.98087 17.0225 9.99313 16.8039 10.0221L16.7324 10.0316L16.7439 9.83251C16.7762 9.26992 16.9029 8.68273 17.0585 8.37407C17.2394 8.01511 17.5235 7.86974 17.804 7.99259ZM13.5241 13.0482H12.5783C12.058 13.0482 11.6324 13.0443 11.6324 13.0396C11.6324 13.0349 11.6616 12.98 11.6973 12.9176C12.0823 12.245 12.3706 11.3475 12.52 10.3565C12.5911 9.8849 12.6614 9.06321 12.6852 8.42655L12.6959 8.13996H13.5241V13.0482Z" fill="black"/>
<path fill-rule="evenodd" clip-rule="evenodd" d="M2.73639 4.05749C2.4496 4.09374 2.06209 4.21512 1.8313 4.341C1.05314 4.76544 0.565634 5.52652 0.395428 6.58259C0.35169 6.85408 0.334762 7.42387 0.362371 7.6961C0.443047 8.49151 0.774735 9.15518 1.31649 9.60522C1.49788 9.75589 1.63987 9.84862 1.86655 9.96438L2.04045 10.0532L1.90998 10.2873C1.65303 10.7484 1.40422 11.1956 0.971115 11.9745C0.729186 12.4096 0.412029 12.9793 0.266334 13.2406C-0.0181426 13.7505 -0.0364239 13.7995 0.0359346 13.8575C0.0710619 13.8857 0.10963 13.8877 0.597777 13.8875C0.980443 13.8873 1.13291 13.8819 1.16267 13.8673C1.20535 13.8464 1.20574 13.8457 1.77224 12.7494C1.92363 12.4564 2.08965 12.1368 2.14116 12.0391C2.19268 11.9414 2.31921 11.698 2.42235 11.4982C2.52549 11.2984 2.71414 10.9333 2.84157 10.6869L3.07326 10.2389H3.72302V12.0274C3.72302 13.6201 3.72581 13.8199 3.74841 13.8518C3.77361 13.8875 3.77716 13.8877 4.22697 13.8877C4.64529 13.8877 4.68221 13.8855 4.70713 13.8582C4.73211 13.8309 4.73411 13.4686 4.73411 8.97347V4.11824L4.65406 4.03899L3.75229 4.04102C3.25634 4.04215 2.79917 4.04956 2.73639 4.05749ZM3.72302 9.3864V4.86241L3.3194 4.86386C3.06343 4.86478 2.87401 4.87301 2.80162 4.88635C2.52786 4.93677 2.29865 5.05877 2.09089 5.26462C1.88634 5.46728 1.74943 5.68554 1.64436 5.97644C1.41574 6.60943 1.39865 7.55191 1.60445 8.17706C1.70517 8.48303 1.84679 8.72019 2.05106 8.92506C2.25666 9.13124 2.49022 9.26258 2.78531 9.33797C2.89444 9.36583 2.98176 9.37252 3.3194 9.37885L3.72302 9.3864Z" fill="#E31E25"/>
</svg>
