<svg width="82" height="20" viewBox="0 0 82 20" fill="none" xmlns="http://www.w3.org/2000/svg">
<path fill-rule="evenodd" clip-rule="evenodd" d="M0.216708 0.926064C0.00777479 1.1511 0 1.23892 0 3.37867C0 5.56511 0.00338927 5.6011 0.229667 5.81616C0.45764 6.03283 0.493424 6.03454 5.21505 6.06055L9.97078 6.08677L5.14139 10.1553C1.82258 12.9512 0.26326 14.3277 0.156002 14.5563C0.0306026 14.8236 0 15.2846 0 16.9079V18.927L0.262661 19.1359C0.523828 19.3437 0.574766 19.3449 9.22057 19.3449C17.8664 19.3449 17.9173 19.3437 18.1785 19.1359L18.4411 18.927V16.6851C18.4411 14.9084 18.4118 14.4025 18.2997 14.2474C18.1639 14.0596 17.9637 14.0497 13.3244 14.0013L8.4906 13.9509L13.2811 9.91802C15.9159 7.69993 18.1547 5.74901 18.256 5.58265C18.4197 5.31416 18.4404 5.04729 18.4407 3.20566C18.4411 1.16733 18.4372 1.12741 18.2105 0.91195L17.9797 0.692761H0.433516L0.216708 0.926064Z" fill="#3D3F55"/>
<path fill-rule="evenodd" clip-rule="evenodd" d="M29.1569 0.0975949C26.8341 0.312145 24.8652 1.18325 23.313 2.68319C22.0111 3.94135 21.1832 5.41467 20.7136 7.30923C20.5253 8.06883 20.4918 8.47817 20.4918 10.0188C20.4918 11.5595 20.5253 11.9688 20.7136 12.7284C21.1809 14.6139 22.0222 16.1071 23.3284 17.3693C24.9079 18.8957 26.8353 19.7261 29.3073 19.9455C31.3507 20.1269 33.3088 19.7869 35.0382 18.9504C37.7573 17.6353 39.5073 15.2153 40.0754 11.9849C40.1388 11.6244 40.1907 10.7397 40.1907 10.0188C40.1907 9.29795 40.1388 8.41324 40.0754 8.0528C39.2677 3.45972 36.0644 0.536779 31.3499 0.0908412C30.7469 0.0338765 30.2086 -0.00665396 30.1538 0.000907724C30.0989 0.00857024 29.6504 0.0520232 29.1569 0.0975949ZM34.8887 10.0188C34.8887 7.7464 33.7334 6.10248 31.7636 5.57206C31.4812 5.49604 30.8017 5.43575 30.2534 5.43807C29.1641 5.4426 28.4393 5.62055 27.6831 6.06881C25.2827 7.49162 25.0517 11.8277 27.2785 13.6581C28.0431 14.2866 28.7549 14.529 29.9968 14.5843C31.6359 14.6571 32.6416 14.337 33.5889 13.4408C34.4511 12.625 34.8887 11.4731 34.8887 10.0188Z" fill="url(#paint0_linear_1216_8516)"/>
<path fill-rule="evenodd" clip-rule="evenodd" d="M50.198 0.0992536C46.8023 0.435396 43.9972 2.29819 42.5994 5.14522C41.8431 6.68599 41.5484 8.05193 41.5484 10.019C41.5484 11.986 41.8431 13.352 42.5994 14.8927C43.4795 16.6855 44.8488 18.0395 46.6972 18.9453C49.8567 20.4935 53.9578 20.3245 56.9568 18.5224C58.3918 17.66 59.7894 16.0201 60.4601 14.4114C61.1003 12.8762 61.2503 12.0422 61.2503 10.019C61.2503 7.99416 61.1004 7.16197 60.4581 5.6213C59.5191 3.36963 57.5506 1.51389 55.2138 0.677469C53.7547 0.155209 51.8503 -0.0642805 50.198 0.0992536ZM55.5334 7.79221C55.0151 6.67187 54.2458 6.00786 53.0183 5.6215C52.3096 5.39838 50.6582 5.37388 49.9406 5.57583C47.9915 6.12441 46.8505 7.76499 46.8505 10.019C46.8505 11.4732 47.288 12.6251 48.1502 13.4409C49.0975 14.3371 50.1032 14.6572 51.7424 14.5844C52.9842 14.5292 53.696 14.2867 54.4606 13.6583C55.992 12.3995 56.466 9.80786 55.5334 7.79221Z" fill="url(#paint1_linear_1216_8516)"/>
<path d="M63.298 1.15947L63.5147 0.926064C63.7268 0.697802 63.773 0.692761 65.661 0.692761C67.0599 0.692761 67.6797 0.730367 67.9142 0.829475C68.3213 1.00148 68.3796 1.06792 72.7678 6.36382L76.4061 10.7548L76.5058 1.0781L76.7412 0.885434C76.9563 0.709297 77.158 0.692761 79.0952 0.692761C81.0876 0.692761 81.2295 0.705162 81.4765 0.901766L81.7391 1.11067V18.927L81.4765 19.1359C81.2316 19.3307 81.085 19.3449 79.315 19.3449C77.6098 19.3449 77.3748 19.3242 77.0108 19.1413C76.694 18.982 75.7346 17.8854 72.6182 14.1212L68.631 9.30492L68.5313 18.9596L68.2959 19.1523C68.0808 19.3284 67.8792 19.3449 65.9419 19.3449C63.9495 19.3449 63.8077 19.3325 63.5606 19.1359L63.298 18.927V1.15947Z" fill="#6339F5"/>
<defs>
<linearGradient id="paint0_linear_1216_8516" x1="69.6655" y1="5.95062" x2="57.5983" y2="34.7622" gradientUnits="userSpaceOnUse">
<stop stop-color="#4F3CA2"/>
<stop offset="1" stop-color="#403F60"/>
</linearGradient>
<linearGradient id="paint1_linear_1216_8516" x1="77.8277" y1="8.03824" x2="60.9078" y2="34.4969" gradientUnits="userSpaceOnUse">
<stop stop-color="#6139EB"/>
<stop offset="1" stop-color="#523CAD"/>
</linearGradient>
</defs>
</svg>
