<svg width="25" height="15" viewBox="0 0 25 15" fill="none" xmlns="http://www.w3.org/2000/svg"><path d="M21.24 15l-1.083-3.556H14.71L13.627 15h-3.412l5.272-15h3.873l5.293 15H21.24zM19.4 8.787a3004.421 3004.421 0 01-1.696-5.466 17.134 17.134 0 01-.265-1.002c-.225.872-.869 3.028-1.931 6.468H19.4zm-16.293.136H0V7.166h3.107V4.04h1.758v3.127h3.107v1.757H4.865v3.088H3.107v-3.09z" fill="#9B2828"/><path d="M3.107 8.923H0V7.166h3.107V4.04h1.758v3.127h3.107v1.757H4.865v3.088H3.107v-3.09z" fill="#9B2828"/></svg>