<svg width="892" height="52" viewBox="0 0 892 52" fill="none" xmlns="http://www.w3.org/2000/svg"><mask id="mask0_1539_25" style="mask-type:alpha" maskUnits="userSpaceOnUse" x="0" y="0" width="892" height="52"><path d="M0 0h892v52H0V0z" fill="#9B2828"/></mask><g mask="url(#mask0_1539_25)"><path d="M787.831 170.998h-.4c-14.437-.022-24.303-7.717-26.682-13.406-3.587 7.215-6.473 11.191-19.836 13.031-.322.042-1.077.104-2.151.104-4.412-.005-14.216-1.01-19.342-8.788-1.228 2.193-3.488 3.673-6.087 3.673-3.923-.002-7.071-3.36-7.078-7.475.007-4.118 3.155-7.474 7.078-7.477 1.046 0 2.039.245 2.932.676-.02-.453-.031-.914-.031-1.387a36.49 36.49 0 01.22-3.905c-10.632 5.455-20.6 12.379-32.103 17.181-2.497.958-5.055 1.602-7.501 2.479-8.799 3.145-16.76 4.45-23.915 4.45-15.277 0-26.869-5.944-35.071-12.507-.601 3.474-3.475 6.123-6.958 6.125-3.924-.002-7.071-3.36-7.079-7.475.001-3.423 2.178-6.313 5.169-7.195-3.063-3.577-5.049-7.245-6.032-9.063a30.911 30.911 0 00-.322-.592c-1.471 2.809-3.587 6.573-6.719 10.49 2.02 1.32 3.359 3.675 3.359 6.36-.007 4.115-3.153 7.473-7.077 7.476-2.826-.001-5.253-1.751-6.387-4.264-7.721 5.466-18.507 9.688-33.632 9.801l-.511.002c-10.109-.003-22.013-2.278-30.333-6.67-14.606-7.718-23.027-16.304-28.447-20.026.418 1.128.642 2.662.652 4.464 0 1.125-.094 2.351-.303 3.638.289-.037.584-.057.883-.057 3.922.004 7.071 3.36 7.078 7.477-.007 4.115-3.156 7.473-7.078 7.476-2.501-.001-4.696-1.374-5.952-3.432-3.178 3.943-8.007 7.298-15.047 8.809l-.04.008h-.441c-14.438-.023-24.304-7.717-26.683-13.406-3.586 7.214-6.471 11.191-19.836 13.031-.32.042-1.075.104-2.15.104-4.411-.005-14.216-1.01-19.345-8.788-1.226 2.193-3.486 3.673-6.085 3.673-3.922-.002-7.071-3.36-7.077-7.475.007-4.118 3.155-7.474 7.077-7.477 1.047 0 2.04.244 2.932.676a30.228 30.228 0 01-.031-1.394c0-1.229.071-2.526.22-3.898-10.632 5.455-20.599 12.379-32.103 17.181-2.497.958-5.053 1.602-7.503 2.479-8.795 3.145-16.757 4.449-23.913 4.449-15.277 0-26.869-5.944-35.071-12.506-.6 3.474-3.475 6.123-6.959 6.125-3.922-.002-7.071-3.361-7.077-7.476 0-3.421 2.177-6.311 5.167-7.194-3.194-3.731-5.226-7.578-6.154-9.292-1.462 2.767-3.528 6.377-6.527 10.127 2.019 1.321 3.359 3.675 3.359 6.359-.007 4.115-3.153 7.474-7.077 7.477-2.827-.001-5.254-1.751-6.387-4.264-7.722 5.465-18.507 9.688-33.632 9.801l-.511.002c-10.111-.003-22.014-2.278-30.332-6.67-14.604-7.717-23.026-16.301-28.446-20.024.418 1.128.641 2.661.65 4.462 0 1.126-.095 2.351-.303 3.638a6.77 6.77 0 01.882-.057c3.924.004 7.071 3.36 7.077 7.476-.007 4.115-3.153 7.474-7.077 7.477-2.502-.001-4.697-1.373-5.952-3.433-3.177 3.943-8.006 7.299-15.048 8.809l-.04.009h-.44c-14.438-.023-24.303-7.717-26.68-13.407-3.588 7.214-6.473 11.191-19.836 13.032-.322.041-1.075.104-2.151.104-4.412-.005-14.218-1.01-19.344-8.788-1.228 2.193-3.488 3.672-6.087 3.672-3.923-.001-7.07-3.36-7.078-7.475.007-4.117 3.155-7.473 7.078-7.476 1.047 0 2.04.244 2.932.676-.02-.456-.03-.919-.032-1.394a36.34 36.34 0 01.22-3.897c-10.632 5.455-20.6 12.378-32.103 17.18-2.495.958-5.053 1.602-7.5 2.479-8.797 3.145-16.759 4.449-23.916 4.449-15.278 0-26.87-5.944-35.072-12.506-.6 3.474-3.473 6.123-6.957 6.124-3.922-.001-7.07-3.36-7.08-7.475.002-3.422 2.18-6.312 5.17-7.194-1.95-2.279-3.464-4.595-4.562-6.45-1.164-1.971-1.906-3.487-2.078-3.695l.054-.042.147-.172-.374-.075v-30.928l.103-.113c5.067-5.569 9.087-10.832 13.756-15.487-4.586-4.583-9.176-10.669-13.744-15.24l-.115-.117V39.476c-.014-.05.024-.157.09-.246l.022-.045c.031-.075.08-.199.135-.359.117-.322.278-.796.469-1.368.384-1.151.898-2.715 1.47-4.36 1.061-3.026 2.277-6.285 3.332-7.888-2.303-1.239-3.872-3.762-3.874-6.668.009-4.115 3.158-7.473 7.08-7.476 3.31.001 6.068 2.395 6.85 5.612 8.88-4.948 19.731-6.358 29.282-6.36 12.526.002 22.825 2.434 23.536 2.608 1.605.394 3.2.843 4.78 1.34a92.928 92.928 0 017.032 2.539C62.671 20.452 71.84 26 80.497 31.86a360.217 360.217 0 014.568 3.144c.004-.18.005-.381.005-.6 0-.374-.003-.801-.003-1.271.002-2.033.073-4.873.86-7.84a6.63 6.63 0 01-1.61.2c-3.922-.004-7.07-3.362-7.076-7.477.007-4.116 3.154-7.473 7.077-7.477 3.448.002 6.3 2.596 6.94 6.018 1.511-1.29 3.387-2.418 5.703-3.289 3.579-1.343 7.027-1.934 10.412-1.934 2.405 0 4.777.297 7.147.836 1.896.43 3.766.957 5.638 1.513 3.563 1.455 7.069 2.05 10.548 2.05 6.72.002 13.35-2.233 20.042-4.838a20.53 20.53 0 015.96-.895c6.462.001 12.103 3.137 16.159 7.144.413-3.708 3.387-6.601 7.029-6.605 3.925.004 7.071 3.361 7.078 7.477-.007 4.115-3.153 7.473-7.078 7.477-.469 0-.928-.05-1.371-.144.671 1.65 1.038 3.23 1.039 4.628 0 .35-.022.688-.07 1.013 5.891-3.394 11.892-6.673 18.046-9.5a130.011 130.011 0 016.492-2.776c14.085-5.206 26.049-7.252 36.151-7.25 13.191-.002 23.204 3.49 30.605 7.964a7.383 7.383 0 01-.053-.887c.007-4.115 3.155-7.473 7.078-7.476 3.923.003 7.071 3.361 7.077 7.476 0 3.593-2.402 6.605-5.626 7.315 4.998 4.697 7.792 9.24 8.929 11.373 1.111-3.327 3.144-9.609 4.725-12.02-2.304-1.239-3.872-3.763-3.874-6.668.007-4.115 3.155-7.473 7.077-7.476 3.311.001 6.069 2.395 6.851 5.612 8.88-4.948 19.731-6.358 29.283-6.36 12.525.002 22.825 2.434 23.536 2.608 1.603.394 3.198.843 4.779 1.34a92.68 92.68 0 017.032 2.539c9.465 3.647 18.633 9.195 27.292 15.056a347.701 347.701 0 014.567 3.144c.004-.18.005-.38.005-.6 0-.374-.003-.801-.003-1.271 0-2.033.071-4.872.858-7.84a6.611 6.611 0 01-1.607.199c-3.925-.004-7.073-3.362-7.08-7.477.007-4.116 3.155-7.473 7.08-7.476 3.447.001 6.299 2.596 6.94 6.017 1.51-1.29 3.385-2.418 5.703-3.288 3.578-1.344 7.024-1.935 10.412-1.935 2.403 0 4.775.297 7.146.836 1.896.43 3.764.957 5.636 1.514 3.565 1.454 7.069 2.05 10.55 2.05 6.718.001 13.35-2.233 20.042-4.839a20.513 20.513 0 015.959-.895c6.461.002 12.102 3.136 16.158 7.143.415-3.706 3.388-6.6 7.03-6.603 3.924.004 7.069 3.361 7.078 7.477-.009 4.115-3.156 7.473-7.078 7.477-.471 0-.929-.05-1.372-.144.67 1.65 1.038 3.231 1.038 4.63 0 .349-.023.687-.071 1.012 5.892-3.395 11.891-6.674 18.047-9.5a128.465 128.465 0 016.493-2.777c14.085-5.206 26.049-7.252 36.151-7.25 13.188-.002 23.203 3.49 30.602 7.964a7.383 7.383 0 01-.053-.887c.007-4.115 3.156-7.473 7.078-7.476 3.924.003 7.07 3.361 7.077 7.476 0 3.593-2.403 6.605-5.625 7.315 5.385 5.065 8.206 9.926 9.167 11.831 1.059-3.157 3.225-9.953 4.879-12.477-2.304-1.239-3.873-3.763-3.875-6.669.009-4.115 3.156-7.473 7.08-7.476 3.308.001 6.066 2.395 6.848 5.612 8.879-4.948 19.729-6.358 29.282-6.36 12.524.002 22.826 2.434 23.537 2.608 1.606.394 3.197.843 4.781 1.34a93.128 93.128 0 017.031 2.539c9.464 3.647 18.632 9.195 27.29 15.056a355.469 355.469 0 014.566 3.143c.004-.178.006-.377.006-.594 0-.378-.002-.808-.004-1.283.001-2.031.075-4.87.86-7.834a6.6 6.6 0 01-1.608.2c-3.924-.003-7.071-3.361-7.08-7.476.009-4.116 3.156-7.473 7.08-7.477 3.448.002 6.301 2.596 6.941 6.018 1.51-1.29 3.385-2.418 5.702-3.289 3.577-1.343 7.025-1.934 10.412-1.934 2.404 0 4.777.297 7.146.836 1.896.43 3.766.957 5.637 1.513 3.564 1.455 7.067 2.05 10.548 2.05 6.719.002 13.351-2.233 20.043-4.838a20.523 20.523 0 015.959-.895c6.46.001 12.102 3.136 16.158 7.143.415-3.706 3.388-6.6 7.03-6.603 3.924.003 7.071 3.361 7.078 7.477-.007 4.115-3.156 7.473-7.078 7.476-.47 0-.928-.05-1.373-.143.671 1.65 1.038 3.23 1.038 4.63 0 .349-.022.687-.07 1.012 5.892-3.395 11.891-6.674 18.047-9.5a128.465 128.465 0 016.493-2.777c14.084-5.206 26.049-7.252 36.151-7.25 13.188-.002 23.203 3.489 30.601 7.964a7.596 7.596 0 01-.052-.887c.007-4.115 3.155-7.473 7.077-7.477 3.925.004 7.071 3.362 7.078 7.477.002 3.593-2.403 6.605-5.626 7.314 6.607 6.214 9.353 12.12 9.542 12.637l.022.063V76.82l-.096.112c-2.421 2.78-12.057 12.676-14.502 14.72 3.492 3.49 12.251 13.656 14.188 15.857.091.073.082.143.106.164.018.049.024.08.031.114.012.066.02.135.029.222.016.174.031.414.045.721.027.609.05 1.482.071 2.547.039 2.131.067 5.037.087 8.156.038 6.24.042 13.343.042 16.811v2.092l-.044.082c-1.479 2.876-3.725 7.109-7.253 11.52 2.02 1.321 3.358 3.674 3.36 6.359-.009 4.115-3.155 7.474-7.08 7.477-2.825-.001-5.253-1.751-6.386-4.264-7.72 5.465-18.506 9.688-33.632 9.801l-.51.002c-10.11-.003-22.013-2.278-30.333-6.67-14.605-7.718-23.028-16.304-28.448-20.026.419 1.128.642 2.661.653 4.464 0 1.124-.094 2.351-.303 3.638.289-.038.583-.057.882-.057 3.924.004 7.071 3.36 7.078 7.476-.007 4.115-3.154 7.474-7.078 7.477-2.502-.001-4.696-1.373-5.952-3.433-3.176 3.943-8.007 7.299-15.048 8.809l-.04.009h-.035v-.002zm-26.648-14.515c1.434 5.207 11.34 13.753 26.249 13.728l.358-.001c7.128-1.542 11.857-4.981 14.916-8.973l.375-.489.28.549c1.068 2.106 3.154 3.528 5.55 3.528 3.466-.007 6.296-2.982 6.299-6.688-.003-3.708-2.833-6.682-6.299-6.688a5.87 5.87 0 00-1.279.139l-.575.127.109-.584c.269-1.444.386-2.817.386-4.052.016-2.686-.605-4.748-1.29-5.374l.463-.627c5.557 3.228 13.978 12.526 29.761 20.865 8.15 4.309 19.979 6.583 29.974 6.58h.507c15.243-.119 25.957-4.431 33.58-9.942l.412-.296.178.477c.931 2.48 3.201 4.222 5.851 4.222 3.467-.007 6.299-2.982 6.299-6.688.001-2.572-1.364-4.791-3.354-5.913l-.409-.23.298-.364c3.604-4.43 5.893-8.714 7.405-11.651v-1.895c.003-6.601-.025-26.61-.251-28.25-2.067-2.353-11.28-13.04-14.432-16.09l-.36-.347.418-.271c1.264-.8 11.968-11.724 14.626-14.763v-37.82c-.301-.723-3.23-6.75-9.91-12.815l-.663-.605.888-.082c3.207-.294 5.745-3.15 5.745-6.658 0-3.706-2.833-6.68-6.299-6.688-3.463.008-6.297 2.982-6.298 6.688 0 .545.068 1.075.185 1.589l.213.924-.796-.501c-7.356-4.618-17.44-8.3-30.931-8.3-9.999 0-21.871 2.021-35.876 7.2a125.728 125.728 0 00-6.444 2.755c-6.392 2.936-12.629 6.369-18.758 9.914l-.887.512.323-.979a5.37 5.37 0 00.242-1.676c.001-1.451-.449-3.212-1.296-5.06l-.381-.834.86.294a5.928 5.928 0 001.931.324c3.465-.007 6.297-2.981 6.298-6.688-.001-3.706-2.833-6.68-6.298-6.688-3.465.007-6.299 2.982-6.3 6.67l.048 1.08-.715-.753c-3.982-4.193-9.695-7.538-16.22-7.536-1.851 0-3.768.266-5.708.852-6.684 2.602-13.402 4.88-20.295 4.881-3.567 0-7.18-.613-10.802-2.095-1.83-.54-3.685-1.062-5.555-1.487-2.321-.526-4.634-.817-6.974-.819-3.298.002-6.646.576-10.141 1.887-2.52.946-4.472 2.197-5.995 3.62l-.582.543-.07-.798c-.307-3.402-3.005-6.046-6.268-6.045-3.465.007-6.298 2.982-6.298 6.688 0 3.706 2.833 6.681 6.298 6.688.718 0 1.403-.134 2.047-.369l.734-.268-.228.756c-.937 3.09-1.025 6.135-1.025 8.303 0 .472.004.902.004 1.283 0 .564-.007 1.018-.053 1.37l-.086.637-.521-.368a388.033 388.033 0 00-5.122-3.532c-8.638-5.847-17.762-11.364-27.143-14.978a91.963 91.963 0 00-6.978-2.52 77.7 77.7 0 00-4.734-1.327c-.667-.165-10.926-2.584-23.354-2.584-9.644-.002-20.589 1.461-29.362 6.519l-.484.28-.092-.556c-.534-3.135-3.107-5.499-6.192-5.496-3.465.007-6.299 2.981-6.299 6.688-.001 2.772 1.591 5.144 3.839 6.158l.466.21-.323.4c-1.677 2.048-4.535 11.244-5.392 13.687l-.755-.131v-.163c-.301-.722-3.228-6.75-9.91-12.816l-.662-.605.888-.082c3.206-.294 5.744-3.15 5.744-6.658 0-3.706-2.832-6.68-6.298-6.688-3.464.008-6.297 2.982-6.299 6.688 0 .545.069 1.075.186 1.589l.211.924-.796-.501c-7.354-4.618-17.438-8.3-30.93-8.3-9.999 0-21.871 2.021-35.875 7.2a126.173 126.173 0 00-6.446 2.755c-6.39 2.936-12.626 6.369-18.756 9.914l-.886.512.321-.979a5.311 5.311 0 00.243-1.676c.002-1.451-.449-3.212-1.295-5.06l-.382-.834.86.294a5.919 5.919 0 001.931.324c3.465-.007 6.297-2.981 6.297-6.688 0-3.706-2.832-6.68-6.297-6.688-3.465.007-6.298 2.982-6.3 6.67l.049 1.083-.716-.756c-3.984-4.192-9.695-7.537-16.22-7.535-1.851 0-3.77.266-5.708.851-6.684 2.603-13.402 4.88-20.294 4.882-3.568 0-7.181-.613-10.804-2.095-1.829-.54-3.684-1.062-5.554-1.488-2.321-.526-4.634-.817-6.974-.818-3.298.001-6.645.576-10.14 1.887-2.52.946-4.475 2.197-5.996 3.62l-.581.541-.071-.796c-.306-3.403-3.005-6.046-6.267-6.045-3.465.007-6.298 2.982-6.3 6.688.001 3.706 2.835 6.68 6.3 6.688.717 0 1.402-.134 2.047-.37l.733-.267-.228.755c-.937 3.093-1.025 6.143-1.023 8.312l.002 1.271c0 .568-.005 1.024-.053 1.374l-.086.636-.521-.366a371.124 371.124 0 00-5.124-3.532c-8.637-5.847-17.76-11.364-27.141-14.978a92.722 92.722 0 00-6.98-2.522 78.514 78.514 0 00-4.732-1.326c-.667-.165-10.927-2.584-23.351-2.584-9.645-.001-20.588 1.462-29.364 6.52l-.484.278-.093-.554c-.533-3.135-3.109-5.498-6.193-5.496-3.463.007-6.297 2.982-6.298 6.688 0 2.772 1.591 5.144 3.839 6.159l.467.209-.323.4c-1.552 1.893-4.138 9.966-5.174 13.055l-.308.909-.411-.868c-.702-1.479-3.658-6.96-9.774-12.52l-.662-.605.886-.082c3.207-.294 5.746-3.15 5.746-6.658-.001-3.706-2.834-6.68-6.298-6.688-3.465.007-6.298 2.982-6.298 6.688a7.2 7.2 0 00.185 1.589l.214.924-.798-.502c-7.355-4.618-17.439-8.3-30.931-8.3-9.998 0-21.87 2.022-35.876 7.2a125.728 125.728 0 00-6.444 2.755c-6.392 2.937-12.627 6.37-18.758 9.915l-.886.51.324-.977c.162-.491.243-1.055.243-1.678.001-1.45-.449-3.212-1.298-5.058l-.38-.834.859.294a5.926 5.926 0 001.93.324c3.466-.007 6.298-2.982 6.298-6.688 0-3.706-2.832-6.68-6.298-6.688-3.464.007-6.297 2.982-6.298 6.67l.047 1.08-.716-.754c-3.982-4.192-9.693-7.537-16.22-7.535-1.849 0-3.768.266-5.708.851-6.684 2.603-13.4 4.88-20.294 4.882-3.566 0-7.179-.613-10.802-2.095-1.829-.54-3.684-1.062-5.554-1.488-2.321-.526-4.636-.817-6.976-.818-3.296.001-6.643.576-10.14 1.887-2.52.946-4.473 2.197-5.995 3.62l-.58.541-.073-.796c-.306-3.403-3.003-6.046-6.267-6.045-3.465.007-6.298 2.982-6.298 6.688 0 3.706 2.834 6.68 6.298 6.688a5.97 5.97 0 002.05-.37l.731-.265-.228.754c-.938 3.093-1.024 6.143-1.024 8.311 0 .467.004.893.004 1.272 0 .568-.008 1.024-.055 1.374l-.087.636-.52-.366a374.48 374.48 0 00-5.122-3.532C71.439 26.67 62.316 21.155 52.934 17.54a92.935 92.935 0 00-6.978-2.522 78.357 78.357 0 00-4.734-1.326c-.668-.165-10.926-2.584-23.351-2.584-9.643-.002-20.588 1.462-29.364 6.52l-.484.278-.093-.554c-.534-3.135-3.107-5.499-6.192-5.496-3.465.007-6.298 2.981-6.298 6.688-.002 2.772 1.59 5.144 3.838 6.158l.466.21-.322.4c-.92 1.123-2.271 4.563-3.378 7.741-1.104 3.139-1.966 5.958-2.25 6.546v36.86c4.676 4.71 9.322 10.889 13.908 15.402l.285.28-.285.284c-4.707 4.638-8.76 9.955-13.908 15.626v30.417l.006.005c.05.066.095.136.148.224.106.175.236.413.4.714.324.601.777 1.449 1.364 2.458 1.17 2.015 2.874 4.662 5.125 7.2l.466.52-.683.131c-2.933.555-5.18 3.279-5.18 6.576 0 3.706 2.834 6.681 6.299 6.688 3.284.002 5.994-2.678 6.27-6.117l.06-.741.573.467c8.136 6.656 19.716 12.771 35.124 12.772 7.063 0 14.935-1.287 23.656-4.404 2.496-.891 5.048-1.536 7.475-2.468 11.625-4.85 21.746-11.942 32.686-17.48l.652-.331-.09.732a36.308 36.308 0 00-.3 4.53c0 .706.024 1.389.07 2.047l.058.767-.648-.398a5.972 5.972 0 00-3.16-.91c-3.465.007-6.297 2.98-6.299 6.688.002 3.706 2.834 6.681 6.299 6.687 2.512.001 4.679-1.565 5.693-3.839l.303-.687.385.643c4.724 7.91 14.621 9.002 19.05 8.997 1.041 0 1.781-.061 2.046-.098 13.747-1.99 15.779-5.715 19.65-13.426l.448-.9.275.969c1.434 5.208 11.34 13.754 26.248 13.729l.358-.002c7.128-1.542 11.857-4.981 14.916-8.973l.375-.491.281.552c1.068 2.106 3.154 3.527 5.55 3.527 3.466-.007 6.298-2.981 6.298-6.688 0-3.708-2.833-6.681-6.298-6.688-.439 0-.868.05-1.279.14l-.577.127.11-.585c.269-1.444.387-2.816.387-4.052.016-2.688-.605-4.747-1.29-5.373l.461-.628c5.557 3.227 13.98 12.525 29.764 20.864 8.148 4.309 19.977 6.583 29.973 6.58h.507c15.241-.118 25.957-4.43 33.581-9.942l.411-.298.179.479c.931 2.481 3.201 4.222 5.851 4.222 3.467-.007 6.297-2.981 6.298-6.688 0-2.571-1.366-4.791-3.355-5.912l-.409-.231.298-.363c3.348-4.116 5.55-8.087 7.06-10.988l.325-.624.355.608c.745 1.279 2.971 5.921 6.839 10.282l.464.521-.681.13c-2.933.555-5.182 3.28-5.182 6.577.001 3.705 2.835 6.68 6.298 6.688 3.286.001 5.996-2.679 6.273-6.117l.06-.742.573.467c8.135 6.657 19.716 12.771 35.124 12.773 7.062 0 14.935-1.288 23.655-4.405 2.495-.891 5.046-1.536 7.473-2.468 11.627-4.85 21.746-11.942 32.688-17.48l.652-.331-.091.732a35.996 35.996 0 00-.299 4.53c0 .707.024 1.39.07 2.048l.055.766-.646-.398a5.969 5.969 0 00-3.159-.91c-3.465.008-6.298 2.98-6.298 6.688 0 3.706 2.834 6.681 6.298 6.687 2.512.001 4.679-1.564 5.692-3.839l.303-.686.386.642c4.724 7.91 14.619 9.003 19.048 8.997 1.043 0 1.783-.061 2.047-.098 13.748-1.99 15.78-5.715 19.649-13.425l.449-.901.276.969c1.433 5.208 11.339 13.754 26.249 13.729l.357-.002c7.127-1.542 11.858-4.981 14.917-8.973l.375-.489.279.55c1.068 2.106 3.154 3.527 5.55 3.527 3.467-.007 6.298-2.981 6.299-6.688-.001-3.708-2.832-6.681-6.299-6.688-.439 0-.866.048-1.278.14l-.576.127.108-.584c.271-1.445.387-2.817.387-4.052.016-2.687-.605-4.748-1.29-5.374l.464-.627c5.557 3.227 13.977 12.525 29.761 20.864 8.149 4.309 19.979 6.583 29.973 6.58h.507c15.243-.118 25.957-4.43 33.581-9.942l.411-.295.178.476c.931 2.481 3.202 4.222 5.852 4.222 3.467-.007 6.298-2.981 6.298-6.688.002-2.571-1.364-4.791-3.353-5.912l-.409-.231.297-.363c3.469-4.263 5.708-8.378 7.223-11.3l.158-.307.32.12c.314.18.261.256.408.45.107.179.241.424.406.729.329.609.783 1.456 1.368 2.457 1.17 2.003 2.859 4.618 5.085 7.129l.467.522-.684.129c-2.933.555-5.181 3.28-5.179 6.577 0 3.705 2.833 6.68 6.298 6.688 3.284.001 5.994-2.679 6.271-6.117l.06-.74.573.465c8.133 6.657 19.716 12.771 35.124 12.773 7.061 0 14.933-1.288 23.655-4.405 2.495-.891 5.049-1.536 7.474-2.468 11.626-4.85 21.748-11.942 32.688-17.48l.652-.331-.091.732a36.065 36.065 0 00-.3 4.537c.002.705.024 1.384.071 2.043l.054.764-.646-.398a5.969 5.969 0 00-3.159-.91c-3.465.008-6.298 2.98-6.298 6.688 0 3.706 2.833 6.681 6.298 6.687 2.512.001 4.679-1.564 5.693-3.839l.303-.682.385.639c4.724 7.91 14.619 9.002 19.049 8.997 1.041 0 1.78-.061 2.047-.098 13.748-1.99 15.779-5.715 19.649-13.426l.449-.9.265.967zm21.942 5.868l-.045-.008c-2.922-.634-5.959-1.628-8.457-3.048-2.677-1.019-4.283-3.492-5.083-5.92l-.314-.958.872.489a10.59 10.59 0 005.23 1.379c5.276.01 10.789-3.812 11.336-8.965a27.47 27.47 0 00.178-3.093c-.04-9.383-5.316-12.872-11.816-12.92-1.626 0-3.324.231-5.02.664l-1.065.272.658-.891c.595-.793 1.063-2.514 1.056-3.935.001-.745-.129-1.409-.36-1.801l-.028-.045-.014-.052c-.341-1.404-6.455-11.158-9.521-15.139-1.569 1.942-3.936 5.266-5.972 8.388-2.172 3.3-3.983 6.534-4.018 7.263.088 2.389.236 3.423 1.565 5.328l.745 1.056-1.2-.456c-1.775-.674-3.613-1.021-5.397-1.021-4.342.007-8.338 2.019-10.48 6.35a13.442 13.442 0 00-1.387 5.957c.002 4.636 2.368 9.251 7.087 11.876 1.039.576 2.228.827 3.505.827 1.631 0 3.395-.414 5.115-1.064l.525-.201v.57c0 2.11-1.041 3.983-2.558 5.415-1.519 1.434-3.525 2.448-5.574 2.864-.814.101-1.629.152-2.44.153-5.518.002-10.836-2.41-12.775-7.502-1.239-3.263-1.786-6.318-1.786-9.186.022-13.175 11.399-22.24 19.126-30.457 1.376-1.466 2.744-2.917 4.068-4.345 3.984-4.306 8.084-8.081 11.04-11.855l.252-.325.309.274c3.131 2.773 14.01 13.09 17.625 16.533 1.211 1.187 17.763 16.707 18.684 28.928a38.53 38.53 0 01.174 3.573c.061 8.597-3.599 14.717-13.787 15.03h-.053v-.002zm-8.208-3.787l.029.009.028.017c2.388 1.367 5.356 2.348 8.22 2.971 9.798-.418 12.931-5.843 12.991-14.239 0-1.118-.06-2.287-.172-3.506-.79-11.654-17.242-27.31-18.441-28.419-3.498-3.334-13.846-13.142-17.3-16.242-2.989 3.737-6.98 7.421-10.826 11.58-1.324 1.431-2.694 2.882-4.068 4.351-7.823 8.27-18.936 17.249-18.912 29.911 0 2.768.525 5.722 1.731 8.904 1.772 4.685 6.729 6.992 12.05 6.996.777 0 1.562-.051 2.316-.143 1.873-.379 3.764-1.336 5.166-2.664 1.259-1.188 2.118-2.656 2.283-4.268-1.607.559-3.254.913-4.832.913-1.376.001-2.703-.271-3.881-.924-4.97-2.758-7.494-7.661-7.49-12.567 0-2.161.488-4.324 1.469-6.31 2.271-4.615 6.603-6.792 11.178-6.784 1.523 0 3.075.238 4.596.702-.869-1.524-1.031-2.816-1.085-4.844.145-1.262 1.952-4.284 4.142-7.674 2.19-3.359 4.741-6.922 6.333-8.835l.305-.368.297.375c3.003 3.821 9.326 13.767 9.945 15.754.323.588.442 1.346.445 2.158-.006 1.221-.276 2.559-.741 3.583a20.685 20.685 0 014.333-.479c3.393-.002 6.552.96 8.864 3.18 2.314 2.22 3.736 5.674 3.732 10.526 0 .999-.059 2.059-.182 3.18-.652 5.687-6.502 9.659-12.11 9.668-1.567 0-3.161-.32-4.7-1.018.831 1.954 2.231 3.74 4.287 4.506zm-306.576 3.787l-.044-.008c-2.923-.634-5.96-1.628-8.457-3.048-2.677-1.019-4.284-3.492-5.082-5.92l-.315-.958.872.489a10.585 10.585 0 005.231 1.379c5.273.01 10.788-3.812 11.335-8.965.121-1.095.178-2.126.178-3.093-.04-9.383-5.316-12.872-11.816-12.92-1.626 0-3.325.231-5.02.664l-1.065.272.657-.891c.596-.793 1.063-2.514 1.056-3.935.003-.745-.128-1.409-.36-1.801l-.026-.045-.014-.052c-.342-1.404-6.456-11.158-9.522-15.139-1.568 1.942-3.937 5.266-5.973 8.388-2.171 3.3-3.984 6.534-4.017 7.263.087 2.389.234 3.423 1.564 5.328l.743 1.054-1.198-.454c-1.775-.674-3.613-1.021-5.396-1.021-4.341.007-8.339 2.019-10.481 6.35a13.446 13.446 0 00-1.387 5.957c.003 4.634 2.37 9.251 7.087 11.876 1.039.576 2.228.827 3.506.827 1.629 0 3.396-.414 5.113-1.064l.527-.201v.57c0 2.11-1.041 3.983-2.558 5.415-1.521 1.434-3.525 2.448-5.574 2.864-.814.101-1.63.152-2.44.153-5.517.002-10.837-2.41-12.778-7.502-1.236-3.263-1.784-6.318-1.784-9.186.023-13.175 11.399-22.24 19.126-30.457 1.378-1.466 2.744-2.917 4.067-4.345 3.983-4.306 8.084-8.081 11.04-11.855l.253-.325.308.274c3.131 2.773 14.01 13.09 17.625 16.533 1.212 1.187 17.764 16.707 18.684 28.928a38.89 38.89 0 01.175 3.573c.06 8.597-3.599 14.717-13.788 15.03h-.052v-.002zm-8.208-3.787l.03.009.027.017c2.388 1.367 5.356 2.348 8.22 2.971 9.798-.418 12.932-5.843 12.992-14.239 0-1.118-.06-2.287-.173-3.506-.79-11.654-17.242-27.31-18.441-28.419-3.498-3.334-13.845-13.142-17.3-16.242-2.991 3.737-6.98 7.421-10.826 11.58-1.324 1.431-2.692 2.882-4.071 4.351-7.821 8.27-18.933 17.249-18.91 29.911 0 2.768.524 5.722 1.732 8.904 1.772 4.685 6.729 6.992 12.05 6.994.777.002 1.562-.05 2.314-.141 1.875-.379 3.766-1.336 5.168-2.664 1.257-1.188 2.116-2.655 2.281-4.267-1.607.558-3.254.912-4.83.913-1.377 0-2.705-.272-3.881-.925-4.968-2.758-7.493-7.663-7.491-12.567 0-2.161.489-4.327 1.469-6.31 2.273-4.615 6.604-6.792 11.178-6.784 1.523 0 3.075.238 4.595.701-.868-1.523-1.029-2.815-1.084-4.843.146-1.262 1.953-4.284 4.143-7.674 2.19-3.359 4.741-6.922 6.333-8.835l.304-.368.297.375c3.004 3.821 9.326 13.767 9.946 15.754.323.588.441 1.346.442 2.158-.005 1.221-.274 2.559-.739 3.583a20.694 20.694 0 014.334-.479c3.393-.002 6.552.96 8.863 3.18 2.315 2.22 3.736 5.674 3.732 10.526 0 .999-.058 2.059-.182 3.18-.652 5.687-6.502 9.659-12.109 9.668-1.568 0-3.163-.32-4.7-1.017.831 1.953 2.231 3.739 4.287 4.505zm-306.186 3.787l-.046-.008c-2.921-.634-5.959-1.628-8.457-3.048-2.676-1.019-4.284-3.492-5.082-5.92l-.317-.962.876.493a10.577 10.577 0 005.228 1.379c5.275.01 10.79-3.812 11.337-8.965.122-1.098.178-2.126.178-3.093-.041-9.38-5.316-12.872-11.816-12.918-1.626 0-3.324.229-5.022.662l-1.063.267.655-.886c.597-.793 1.065-2.514 1.056-3.933.004-.747-.127-1.412-.359-1.801l-.028-.047-.014-.052c-.34-1.404-6.454-11.158-9.521-15.14-1.569 1.943-3.937 5.267-5.972 8.389-2.171 3.3-3.984 6.534-4.016 7.263.085 2.389.233 3.423 1.562 5.328l.745 1.054-1.199-.454c-1.776-.674-3.613-1.021-5.398-1.021-4.341.007-8.337 2.019-10.479 6.35a13.446 13.446 0 00-1.387 5.957c.002 4.634 2.367 9.251 7.085 11.876 1.039.576 2.229.827 3.507.827 1.629 0 3.396-.414 5.114-1.064l.525-.201v.57c0 2.11-1.041 3.983-2.559 5.415-1.519 1.434-3.525 2.448-5.574 2.864a19.99 19.99 0 01-2.439.153c-5.518.002-10.837-2.41-12.776-7.502-1.239-3.263-1.786-6.318-1.786-9.186.022-13.175 11.399-22.24 19.127-30.457 1.377-1.466 2.742-2.917 4.065-4.345 3.985-4.306 8.084-8.081 11.04-11.855l.255-.325.307.274c3.13 2.773 14.01 13.09 17.626 16.533 1.209 1.187 17.763 16.707 18.684 28.928a39.98 39.98 0 01.175 3.573c.058 8.597-3.603 14.717-13.791 15.03h-.046v-.002zm-8.208-3.787l.028.009.029.017c2.388 1.367 5.356 2.348 8.22 2.971 9.802-.417 12.933-5.842 12.993-14.239 0-1.118-.06-2.287-.172-3.506-.791-11.654-17.242-27.31-18.443-28.419-3.498-3.334-13.846-13.144-17.299-16.243-2.99 3.738-6.98 7.421-10.825 11.581-1.327 1.431-2.694 2.882-4.071 4.351-7.821 8.27-18.935 17.249-18.91 29.911 0 2.768.524 5.722 1.73 8.904 1.773 4.685 6.728 6.992 12.05 6.994a19.05 19.05 0 002.316-.141c1.875-.379 3.765-1.336 5.166-2.664 1.259-1.188 2.117-2.656 2.283-4.267-1.606.558-3.254.912-4.832.913-1.376 0-2.703-.272-3.88-.925-4.968-2.758-7.494-7.663-7.491-12.567 0-2.161.489-4.327 1.468-6.31 2.273-4.615 6.605-6.792 11.178-6.784 1.523 0 3.075.238 4.596.702-.869-1.524-1.031-2.816-1.085-4.844.147-1.262 1.953-4.284 4.145-7.674 2.188-3.359 4.739-6.922 6.33-8.835l.305-.368.298.375c3.006 3.823 9.33 13.776 9.947 15.756.323.589.441 1.347.442 2.158-.005 1.219-.274 2.557-.741 3.581a20.718 20.718 0 014.335-.479c3.391-.002 6.551.96 8.863 3.18 2.312 2.22 3.734 5.674 3.731 10.526 0 .999-.06 2.057-.184 3.18-.651 5.687-6.501 9.659-12.11 9.668-1.566 0-3.161-.32-4.699-1.018.832 1.954 2.233 3.74 4.289 4.506zm474.164-9.037a38.868 38.868 0 01-3.566-4.383c-3.254-4.632-5.626-10.005-7.234-15.615l-.092-.316.291-.147c2.631-1.328 4.272-3.436 4.269-5.749.002-2.156-1.413-4.134-3.73-5.471l-.218-.125.022-.251c1.196-13.261 14.539-17.74 15.085-17.877l.237-.055.153.195c1.256 1.598 2.847 2.534 4.569 2.531 1.932.003 3.714-1.176 5.016-3.151l.134-.2.237.027c11.979 1.41 19.569 10.371 21.317 17.561.361 2.01.703 4.217.703 6.458 0 .625-.026 1.256-.087 1.888-.278 2.874-1.288 5.738-3.699 8.177-2.606 2.637-6.145 4.08-9.621 4.083-2.943.001-5.853-1.045-8.071-3.296l-.755-.766 1.064.095c.28.024.556.037.824.037 2.997-.004 5.201-1.557 6.711-3.837 1.504-2.278 2.264-5.283 2.262-8.049 0-1.443-.206-2.82-.605-3.987a13.056 13.056 0 00-3.702-5.581c-1.566-1.575-3.517-2.699-5.795-3.101a10.772 10.772 0 00-1.881-.164c-1.802 0-3.779.432-5.909 1.425-3.811 1.776-6.233 5.725-6.236 10.678 0 1.936.371 4.025 1.186 6.193l.153.41-.418.114c-2.111.557-4.223 2.659-5.347 5.196-.548 1.228-.869 2.55-.869 3.832.003 1.279.315 2.516 1.034 3.617 2.177-.507 3.745-1.258 6.09-1.263h.098l.088.048c3.888 2.127 7.463 3.619 10.741 4.583l.777.231-.663.472c-1.815 1.295-3.015 3.492-3.015 5.995.001 3.995 3.057 7.205 6.796 7.212 3.742-.007 6.794-3.216 6.795-7.212a7.45 7.45 0 00-1.584-4.626l-.496-.631.796-.01c14.064-.136 20.217-11.88 20.225-19.695.003-1.187-.142-2.279-.416-3.212l-.396-1.358 1.033.956c5.272 4.889 10.416 8.04 15.296 9.923l.626.238-.516.434c-1.444 1.211-2.379 3.081-2.379 5.193.001 3.664 2.801 6.603 6.226 6.609 3.425-.006 6.224-2.945 6.226-6.609a6.91 6.91 0 00-.71-3.058l-.303-.616.679.048a32.62 32.62 0 002.258.078c13.703.037 23.664-8.967 25.022-12.255 1.387-2.456 1.986-5.756 1.986-9.135 0-3.948-.816-8-2.05-10.911l-.232-.55h.592c1.753.022 8.509-2.435 14.655-4.893a499.584 499.584 0 0011.148-4.605 140.916 140.916 0 00-8.738-4.628c-5.285-2.563-11.75-5.215-16.317-5.594l-.534-.047.205-.498c.953-2.315 1.293-4.527 1.688-6.597.146-.764.216-1.55.216-2.348.005-5.197-3.047-10.995-8.119-15.474-5.07-4.481-12.132-7.642-20.092-7.642-.654 0-1.315.023-1.978.066l-.749.05.39-.647a6.886 6.886 0 00.983-3.555c-.002-3.664-2.801-6.604-6.226-6.61-3.424.007-6.225 2.946-6.225 6.61-.001 2.282 1.088 4.286 2.734 5.474l.6.432-.691.26c-6.155 2.305-12.544 6.677-18.757 13.83l-.681.784v-1.046l-.002-.161c-.029-8.453-3.143-20.863-18.402-22.94l-1.001-.136.831-.58c1.911-1.334 3.179-3.63 3.179-6.247-.001-4.142-3.165-7.468-7.043-7.477-3.877.009-7.043 3.335-7.043 7.477-.002 2.765 1.416 5.169 3.511 6.46l.792.489-.897.23c-5.222 1.336-9.886 4.8-15.164 4.82-1.595 0-3.242-.327-4.947-1.13-.716 1.456-1.35 2.87-1.347 4.165.623 6.246 7.207 10.07 7.281 16.192a8.358 8.358 0 01-.179 1.73c.262 2.774 1.124 5.157 2.482 7a12.223 12.223 0 009.56 4.59c3.739-.002 7.433-1.715 9.752-5.229 1.579-2.514 2.279-5.009 2.279-7.375.004-5.614-3.972-10.617-9.904-13.35l-.741-.34.728-.372c2.384-1.205 5.161-2.011 7.87-2.013 2.703-.001 5.352.818 7.413 2.909 2.543 3.213 3.63 6.686 3.628 10.127-.022 9.494-8.12 18.695-16.223 22.812l-.061.03-.063.008c-.309.04-.609.073-.905.107l-.273.031-.12-.25c-1.307-2.727-3.419-4.435-5.737-4.43-2.146-.001-4.111 1.457-5.434 3.837l-.148.268-.291-.079c-4.079-1.109-7.278-3.204-8.055-3.924-5.103-4.74-7.549-8.698-7.544-17.283l-.002-.269.244-.098c3.11-1.271 5.118-3.581 5.11-6.132.01-2.694-2.237-5.127-5.647-6.338l-.289-.102.032-.309c1.491-15.542 11.521-31.103 39.478-31.064 6.109 0 13.075.735 21.003 2.363 25.731 5.275 38.08 19.769 39.747 21.404 9.3 9.252 18.656 17.931 27.47 27.495a263.24 263.24 0 014.272 4.467 178.495 178.495 0 016.172 6.948c2.016 2.398 4.445 6.032 6.29 8.538l.168.228-.163.233c-3.288 4.733-7.156 8.256-10.639 12.864-1.246 1.624-36.688 39.739-59.558 49.806l-.001-.001a118.011 118.011 0 01-7.817 3.169c-7.859 2.844-16.089 4.696-24.113 4.696-10.914-.004-21.458-3.447-30.073-12.461zm-2.932-4.84a38.385 38.385 0 003.493 4.292c8.458 8.845 18.752 12.21 29.508 12.212 7.904 0 16.052-1.826 23.851-4.651 2.632-.95 5.226-2.015 7.769-3.146l.156.36-.155-.362c22.551-9.872 58.157-48.092 59.251-49.561 3.482-4.6 7.271-8.076 10.458-12.604-1.834-2.513-4.177-5.994-6.09-8.268a178.728 178.728 0 00-6.143-6.916 269.232 269.232 0 00-4.269-4.462c-8.793-9.545-18.14-18.215-27.451-27.477-1.707-1.668-13.836-15.944-39.357-21.196-7.886-1.622-14.802-2.35-20.85-2.35-27.465.037-37.034 14.905-38.672 30.053 3.441 1.308 5.869 3.889 5.88 6.975-.009 2.925-2.199 5.399-5.354 6.76.082 8.258 2.319 11.769 7.292 16.443.593.564 3.653 2.59 7.439 3.662 1.409-2.394 3.534-3.972 5.961-3.974 2.643.005 4.918 1.866 6.315 4.623.184-.021.369-.042.555-.066 7.884-4.004 15.756-13.077 15.733-22.076-.001-3.274-1.022-6.548-3.428-9.602-1.863-1.884-4.277-2.644-6.834-2.645-2.286-.002-4.671.617-6.788 1.578 5.722 2.888 9.611 7.94 9.617 13.707 0 2.527-.752 5.175-2.408 7.807-2.472 3.752-6.432 5.587-10.403 5.586-3.78 0-7.583-1.653-10.175-4.895-1.478-2.005-2.385-4.554-2.647-7.478l-.007-.063.014-.058c.12-.56.176-1.097.176-1.616.074-5.496-6.477-9.375-7.28-16.148.006-1.712.824-3.33 1.601-4.908l.173-.353.348.176c1.727.873 3.356 1.215 4.948 1.217 4.678.016 9.096-3.045 14.161-4.566-1.932-1.507-3.181-3.922-3.181-6.645.007-4.551 3.488-8.262 7.822-8.266 4.336.003 7.815 3.715 7.823 8.266 0 2.532-1.08 4.799-2.783 6.317 14.485 2.412 17.974 14.33 18.167 22.726 5.86-6.547 11.889-10.71 17.756-13.038-1.536-1.36-2.508-3.398-2.51-5.673.009-4.074 3.123-7.396 7.006-7.4 3.882.003 6.998 3.326 7.005 7.4a7.682 7.682 0 01-.753 3.326c.445-.019.888-.029 1.327-.029 16.329.023 28.958 12.902 28.991 23.905 0 .847-.076 1.681-.231 2.498-.366 1.909-.691 4.022-1.54 6.259 9.598 1.122 25.511 10.665 25.541 10.671l.663.396-.707.307a504.18 504.18 0 01-11.888 4.924c-5.746 2.275-11.803 4.549-14.378 4.899 1.165 2.98 1.905 6.881 1.905 10.719-.002 3.469-.602 6.89-2.068 9.485-1.604 3.695-11.647 12.658-25.717 12.694-.55 0-1.107-.013-1.67-.041.337.863.524 1.809.524 2.8-.007 4.074-3.123 7.397-7.005 7.401-3.883-.004-6.997-3.327-7.006-7.401.002-2.109.84-4.011 2.183-5.36-4.518-1.826-9.234-4.72-14.042-9.015.114.693.171 1.43.171 2.202.01 8.024-6.219 19.909-20.253 20.465a8.276 8.276 0 011.311 4.496c-.007 4.404-3.376 7.998-7.575 8.001-4.198-.003-7.568-3.597-7.575-8.001 0-2.474 1.064-4.689 2.74-6.159-3.112-.976-6.469-2.407-10.085-4.38-2.185.019-3.695.771-6.079 1.302l-.249.054-.15-.209c-.928-1.298-1.326-2.79-1.326-4.291.002-1.416.351-2.841.937-4.156 1.146-2.558 3.179-4.718 5.451-5.509-.747-2.113-1.094-4.161-1.094-6.079-.005-5.213 2.581-9.487 6.69-11.393 2.217-1.037 4.308-1.498 6.235-1.497.694-.001 1.367.059 2.014.175 2.449.43 4.548 1.643 6.192 3.301a13.823 13.823 0 013.908 5.9c.434 1.267.647 2.727.647 4.245-.009 5.721-3.083 12.509-9.56 12.671 1.94 1.601 4.316 2.354 6.746 2.354 3.263.002 6.614-1.365 9.07-3.852 2.265-2.296 3.204-4.95 3.474-7.696.058-.604.086-1.207.086-1.81 0-2.161-.334-4.321-.688-6.294-1.637-6.785-8.924-15.473-20.412-16.912-1.391 2.009-3.338 3.302-5.531 3.302-1.931 0-3.676-1.011-5.011-2.621-1.762.605-13.115 5.208-14.234 16.857 2.354 1.426 3.903 3.576 3.904 6.028-.003 2.62-1.773 4.885-4.408 6.304 1.588 5.427 3.899 10.607 7.032 15.067zm-311.852 4.84a38.987 38.987 0 01-3.567-4.383c-3.253-4.632-5.625-10.005-7.236-15.615l-.089-.318.29-.145c2.629-1.328 4.272-3.436 4.267-5.749.004-2.156-1.411-4.134-3.728-5.471l-.219-.125.023-.251c1.196-13.261 14.538-17.74 15.085-17.877l.237-.055.153.195c1.256 1.598 2.847 2.534 4.57 2.531 1.931.003 3.713-1.176 5.016-3.151l.133-.2.236.027c11.982 1.41 19.572 10.371 21.319 17.561.361 2.01.703 4.217.703 6.458 0 .625-.028 1.256-.088 1.888-.278 2.874-1.289 5.738-3.699 8.177-2.606 2.637-6.145 4.08-9.62 4.083-2.944.001-5.852-1.045-8.072-3.294l-.758-.768 1.067.095c.281.024.556.037.825.037 2.996-.004 5.202-1.557 6.712-3.837 1.504-2.278 2.263-5.283 2.26-8.049 0-1.443-.205-2.82-.605-3.987a13.051 13.051 0 00-3.704-5.581c-1.564-1.575-3.515-2.699-5.795-3.101a10.73 10.73 0 00-1.878-.164c-1.802 0-3.78.432-5.909 1.425-3.814 1.776-6.233 5.725-6.238 10.678 0 1.936.373 4.026 1.187 6.195l.153.407-.418.114c-2.111.557-4.224 2.659-5.347 5.196-.549 1.229-.867 2.551-.867 3.832 0 1.279.312 2.516 1.032 3.618 2.176-.508 3.744-1.258 6.091-1.264h.098l.085.048c3.891 2.127 7.465 3.619 10.741 4.584l.778.228-.663.474c-1.813 1.295-3.013 3.492-3.013 5.995.001 3.995 3.056 7.205 6.795 7.213 3.74-.008 6.794-3.217 6.796-7.213a7.444 7.444 0 00-1.584-4.625l-.498-.633.798-.009c14.061-.136 20.217-11.88 20.227-19.694 0-1.188-.144-2.28-.418-3.213l-.397-1.361 1.034.959c5.271 4.889 10.416 8.04 15.297 9.923l.625.241-.517.431c-1.444 1.211-2.379 3.081-2.379 5.193.001 3.664 2.801 6.603 6.226 6.609 3.425-.006 6.225-2.945 6.227-6.609a6.9 6.9 0 00-.71-3.058l-.304-.617.679.049a32.67 32.67 0 002.261.079c13.701.036 23.661-8.968 25.018-12.256 1.388-2.456 1.987-5.756 1.985-9.135.002-3.948-.813-8-2.047-10.911l-.233-.55h.59c1.755.022 8.511-2.435 14.656-4.892a502.961 502.961 0 0011.149-4.605 140.369 140.369 0 00-8.739-4.629c-5.285-2.563-11.75-5.214-16.319-5.594l-.532-.047.204-.498c.954-2.315 1.295-4.526 1.689-6.597.146-.764.217-1.55.217-2.348.005-5.199-3.049-10.995-8.119-15.474-5.068-4.481-12.132-7.642-20.09-7.642-.654 0-1.315.023-1.981.066l-.748.051.39-.648a6.872 6.872 0 00.983-3.555c-.002-3.664-2.803-6.604-6.227-6.61-3.425.007-6.224 2.947-6.226 6.61 0 2.282 1.089 4.287 2.736 5.474l.6.432-.691.26c-6.157 2.305-12.543 6.677-18.757 13.83l-.683.784v-1.21c-.027-8.45-3.145-20.86-18.402-22.938l-.999-.135.829-.58c1.911-1.334 3.18-3.63 3.18-6.247-.002-4.142-3.166-7.468-7.046-7.477-3.874.009-7.042 3.335-7.042 7.477-.001 2.765 1.418 5.169 3.512 6.46l.792.489-.899.231c-5.221 1.336-9.885 4.8-15.163 4.819-1.594 0-3.242-.327-4.946-1.13-.716 1.456-1.35 2.87-1.347 4.166.623 6.245 7.208 10.07 7.283 16.191 0 .559-.058 1.132-.182 1.725.261 2.777 1.122 5.161 2.482 7.006a12.225 12.225 0 009.559 4.59c3.74-.002 7.434-1.715 9.751-5.229 1.581-2.514 2.282-5.009 2.282-7.375.003-5.614-3.973-10.617-9.904-13.35l-.744-.343.73-.369c2.385-1.205 5.161-2.011 7.869-2.013 2.703-.001 5.352.818 7.413 2.909 2.541 3.213 3.629 6.686 3.629 10.127-.023 9.494-8.121 18.695-16.225 22.812l-.059.03-.065.008c-.309.04-.607.073-.903.107l-.273.031-.121-.25c-1.306-2.727-3.418-4.435-5.735-4.43-2.148-.001-4.114 1.457-5.435 3.837l-.148.268-.292-.079c-4.078-1.109-7.276-3.206-8.053-3.924-5.104-4.74-7.549-8.698-7.544-17.283l-.001-.269.243-.098c3.111-1.271 5.119-3.581 5.11-6.132.011-2.696-2.234-5.127-5.646-6.338l-.289-.102.031-.309c1.492-15.542 11.521-31.103 39.478-31.064 6.109 0 13.075.735 21.003 2.363 25.731 5.275 38.078 19.769 39.747 21.404 9.301 9.252 18.656 17.931 27.47 27.495a263.297 263.297 0 014.273 4.467 179.302 179.302 0 016.171 6.948c2.017 2.398 4.446 6.032 6.29 8.538l.167.228-.163.233c-3.288 4.733-7.155 8.256-10.638 12.864-1.246 1.624-36.688 39.739-59.559 49.806a117.809 117.809 0 01-7.818 3.168c-7.858 2.844-16.089 4.696-24.113 4.696-10.912-.004-21.456-3.447-30.071-12.461zm-2.931-4.84a38.488 38.488 0 003.492 4.292c8.459 8.845 18.754 12.21 29.509 12.212 7.905 0 16.053-1.826 23.852-4.651 2.632-.95 5.225-2.015 7.766-3.146l.158.36-.155-.362c22.551-9.872 58.157-48.092 59.251-49.561 3.481-4.6 7.269-8.076 10.457-12.604-1.833-2.513-4.177-5.995-6.089-8.27a177.944 177.944 0 00-6.145-6.915 260.728 260.728 0 00-4.267-4.462c-8.797-9.544-18.142-18.215-27.452-27.477-1.707-1.668-13.836-15.944-39.359-21.196-7.884-1.621-14.801-2.35-20.848-2.35-27.465.037-37.035 14.906-38.67 30.053 3.44 1.308 5.868 3.89 5.877 6.974-.007 2.925-2.196 5.398-5.353 6.76.083 8.259 2.319 11.77 7.293 16.443.592.564 3.652 2.59 7.438 3.662 1.409-2.394 3.535-3.972 5.962-3.973 2.642.004 4.918 1.866 6.314 4.623l.553-.066c7.886-4.004 15.758-13.078 15.736-22.076-.002-3.274-1.023-6.548-3.429-9.602-1.863-1.884-4.279-2.644-6.834-2.645-2.286-.002-4.67.617-6.788 1.578 5.723 2.889 9.611 7.94 9.617 13.707 0 2.528-.752 5.175-2.409 7.808-2.47 3.751-6.432 5.586-10.403 5.585a13.01 13.01 0 01-10.175-4.894c-1.476-2.005-2.382-4.555-2.647-7.479l-.005-.061.014-.06c.12-.56.176-1.097.176-1.616.075-5.496-6.476-9.375-7.279-16.148.004-1.712.824-3.33 1.598-4.908l.175-.353.347.176c1.728.874 3.357 1.215 4.948 1.217 4.678.016 9.096-3.046 14.16-4.566-1.931-1.507-3.181-3.921-3.181-6.645.008-4.551 3.489-8.262 7.823-8.265 4.336.003 7.815 3.715 7.824 8.265 0 2.533-1.08 4.8-2.784 6.316 14.485 2.411 17.975 14.33 18.168 22.727 5.858-6.547 11.888-10.711 17.756-13.038-1.536-1.36-2.509-3.399-2.509-5.674.007-4.074 3.122-7.396 7.005-7.4 3.883.003 6.997 3.326 7.006 7.4a7.695 7.695 0 01-.752 3.327c.445-.02.888-.03 1.328-.03 16.327.023 28.956 12.9 28.989 23.906 0 .844-.075 1.68-.23 2.498-.366 1.908-.693 4.022-1.541 6.258 9.597 1.122 25.511 10.665 25.541 10.672l.663.396-.707.306c-.003.002-5.7 2.46-11.888 4.924-5.746 2.276-11.804 4.55-14.38 4.9 1.166 2.979 1.905 6.88 1.906 10.718-.001 3.469-.602 6.89-2.068 9.485-1.603 3.696-11.647 12.658-25.714 12.695-.552 0-1.108-.014-1.672-.041.336.863.524 1.808.522 2.8-.007 4.073-3.12 7.396-7.004 7.4-3.882-.004-6.998-3.327-7.005-7.4 0-2.109.838-4.012 2.183-5.36-4.517-1.826-9.234-4.721-14.042-9.014.114.692.17 1.43.17 2.201.011 8.024-6.216 19.908-20.252 20.464a8.276 8.276 0 011.311 4.496c-.009 4.405-3.377 7.998-7.575 8.002-4.198-.004-7.568-3.597-7.575-8.002 0-2.473 1.063-4.689 2.739-6.158-3.112-.977-6.468-2.408-10.084-4.38-2.186.019-3.696.77-6.079 1.302l-.249.053-.148-.209c-.929-1.298-1.329-2.789-1.326-4.29 0-1.415.349-2.842.936-4.156 1.144-2.558 3.178-4.718 5.449-5.509-.746-2.112-1.093-4.159-1.093-6.08-.003-5.212 2.58-9.487 6.691-11.393 2.217-1.036 4.309-1.498 6.234-1.498.694 0 1.366.061 2.013.177 2.451.43 4.549 1.642 6.194 3.3a13.851 13.851 0 013.907 5.9c.434 1.268.649 2.728.649 4.245-.01 5.722-3.084 12.509-9.561 12.672 1.942 1.602 4.316 2.353 6.746 2.353 3.262.003 6.613-1.364 9.068-3.852 2.266-2.295 3.203-4.949 3.475-7.696.059-.603.084-1.207.084-1.809 0-2.162-.332-4.322-.686-6.295-1.637-6.785-8.922-15.472-20.413-16.912-1.391 2.009-3.338 3.303-5.53 3.303-1.932 0-3.676-1.011-5.012-2.622-1.761.605-13.113 5.208-14.235 16.858 2.355 1.426 3.904 3.575 3.906 6.027-.004 2.621-1.775 4.885-4.409 6.304 1.586 5.429 3.898 10.609 7.032 15.069zm-311.464 4.84a39.1 39.1 0 01-3.566-4.383c-3.253-4.632-5.626-10.005-7.235-15.615l-.091-.318.29-.145c2.631-1.328 4.272-3.436 4.269-5.749.002-2.156-1.413-4.134-3.73-5.471l-.219-.125.023-.251c1.196-13.261 14.539-17.74 15.084-17.877l.238-.055.154.195c1.256 1.598 2.847 2.534 4.569 2.531 1.933.003 3.712-1.176 5.016-3.151l.132-.2.238.027c11.98 1.41 19.571 10.371 21.317 17.561.361 2.01.704 4.217.704 6.458 0 .625-.026 1.256-.087 1.888-.28 2.874-1.29 5.738-3.7 8.177-2.606 2.637-6.144 4.08-9.62 4.083-2.944.001-5.851-1.045-8.072-3.294l-.758-.768 1.067.095c.282.024.555.037.826.037 2.995-.004 5.2-1.557 6.711-3.837 1.504-2.278 2.263-5.283 2.263-8.049 0-1.443-.207-2.82-.607-3.987a13.057 13.057 0 00-3.702-5.581c-1.566-1.575-3.517-2.699-5.795-3.101a10.75 10.75 0 00-1.879-.164c-1.803 0-3.78.432-5.91 1.425-3.812 1.776-6.233 5.725-6.238 10.678.002 1.936.374 4.026 1.187 6.195l.153.407-.419.114c-2.11.557-4.223 2.659-5.346 5.196-.55 1.229-.867 2.551-.867 3.832.001 1.279.313 2.516 1.033 3.618 2.176-.508 3.745-1.258 6.089-1.264h.1l.085.048c3.888 2.127 7.464 3.619 10.741 4.584l.776.228-.66.474c-1.815 1.295-3.017 3.492-3.017 5.995.002 3.995 3.058 7.205 6.796 7.213 3.742-.008 6.795-3.217 6.796-7.213a7.439 7.439 0 00-1.585-4.625l-.495-.633.796-.009c14.063-.136 20.218-11.88 20.227-19.694 0-1.188-.145-2.28-.417-3.213l-.397-1.361 1.034.959c5.271 4.889 10.415 8.04 15.296 9.923l.624.241-.514.431c-1.445 1.211-2.381 3.081-2.381 5.193.001 3.664 2.8 6.603 6.226 6.609 3.425-.006 6.225-2.945 6.226-6.609a6.897 6.897 0 00-.709-3.058l-.303-.617.68.049c.762.053 1.515.079 2.258.079 13.701.036 23.663-8.968 25.02-12.256 1.389-2.456 1.986-5.756 1.986-9.135 0-3.948-.814-8-2.05-10.911l-.232-.55h.592c1.753.022 8.51-2.435 14.656-4.892a501.638 501.638 0 0011.147-4.605 140.747 140.747 0 00-8.737-4.629c-5.284-2.563-11.751-5.214-16.319-5.594l-.533-.047.205-.498c.953-2.315 1.293-4.526 1.687-6.597.147-.764.217-1.55.217-2.348.005-5.199-3.047-10.995-8.119-15.474-5.068-4.481-12.13-7.642-20.09-7.642-.654 0-1.315.023-1.98.066l-.749.051.39-.648a6.861 6.861 0 00.983-3.555c-.001-3.664-2.8-6.604-6.226-6.61-3.424.007-6.225 2.947-6.225 6.61-.001 2.282 1.088 4.287 2.734 5.474l.601.432-.692.26c-6.155 2.305-12.544 6.677-18.758 13.83l-.681.784v-1.045l-.002-.165c-.027-8.45-3.143-20.86-18.402-22.938l-1-.135.83-.58c1.911-1.334 3.18-3.63 3.18-6.247-.002-4.142-3.166-7.468-7.044-7.477-3.876.009-7.042 3.335-7.044 7.477 0 2.765 1.417 5.169 3.513 6.46l.79.489-.896.231c-5.223 1.336-9.887 4.8-15.164 4.819-1.595 0-3.24-.327-4.946-1.13-.715 1.456-1.35 2.87-1.349 4.165.623 6.245 7.21 10.07 7.283 16.192a8.51 8.51 0 01-.18 1.723c.26 2.777 1.122 5.162 2.481 7.008a12.23 12.23 0 009.56 4.589c3.739-.002 7.435-1.714 9.752-5.228 1.58-2.515 2.279-5.01 2.279-7.376.005-5.614-3.97-10.617-9.904-13.35l-.742-.342.728-.37c2.384-1.205 5.163-2.01 7.869-2.012 2.703-.002 5.352.817 7.414 2.908 2.542 3.213 3.63 6.686 3.628 10.128-.023 9.493-8.12 18.694-16.224 22.81l-.06.03-.064.01c-.309.04-.609.073-.905.106l-.274.031-.12-.25c-1.305-2.726-3.418-4.435-5.736-4.43-2.145 0-4.111 1.457-5.433 3.837l-.15.268-.29-.079c-4.08-1.109-7.277-3.206-8.055-3.924-5.103-4.74-7.55-8.697-7.544-17.283l-.002-.268.247-.099c3.11-1.271 5.116-3.58 5.11-6.132.008-2.696-2.237-5.127-5.647-6.338l-.29-.102.03-.308c1.493-15.543 11.521-31.104 39.478-31.065 6.11 0 13.076.735 21.005 2.363 25.73 5.275 38.077 19.769 39.744 21.405 9.301 9.251 18.657 17.93 27.472 27.494a259.303 259.303 0 014.271 4.467 176.904 176.904 0 016.171 6.948c2.017 2.398 4.446 6.032 6.291 8.538l.168.228-.162.234c-3.29 4.732-7.158 8.256-10.641 12.864-1.246 1.623-36.687 39.739-59.56 49.805a118.328 118.328 0 01-7.814 3.168c-7.86 2.844-16.09 4.696-24.115 4.696-10.908-.003-21.452-3.446-30.067-12.46zm-2.931-4.84a38.444 38.444 0 003.494 4.292c8.459 8.845 18.753 12.21 29.508 12.212 7.905 0 16.053-1.826 23.851-4.651a116.42 116.42 0 007.768-3.146l.157.36-.155-.362c22.55-9.872 58.157-48.092 59.251-49.561 3.481-4.6 7.271-8.076 10.458-12.604-1.835-2.513-4.178-5.994-6.09-8.268a177.92 177.92 0 00-6.144-6.916 273.348 273.348 0 00-4.268-4.462c-8.795-9.545-18.14-18.215-27.453-27.477-1.706-1.668-13.836-15.944-39.357-21.196-7.886-1.622-14.802-2.35-20.85-2.35-27.463.037-37.032 14.905-38.67 30.053 3.44 1.308 5.869 3.889 5.878 6.975-.009 2.924-2.197 5.398-5.352 6.76.083 8.258 2.319 11.77 7.29 16.443.593.564 3.653 2.59 7.44 3.662 1.408-2.394 3.533-3.972 5.96-3.974 2.643.005 4.919 1.866 6.315 4.623.184-.021.369-.042.555-.066 7.883-4.004 15.756-13.077 15.734-22.076-.002-3.274-1.02-6.548-3.429-9.602-1.861-1.884-4.277-2.644-6.834-2.645-2.285-.002-4.67.617-6.788 1.578 5.723 2.888 9.613 7.94 9.617 13.707 0 2.527-.752 5.175-2.407 7.807-2.473 3.752-6.432 5.587-10.404 5.586a13.004 13.004 0 01-10.174-4.895c-1.478-2.005-2.383-4.554-2.648-7.478l-.005-.062.012-.059c.12-.56.176-1.097.176-1.616.076-5.496-6.475-9.375-7.279-16.148.006-1.712.825-3.33 1.6-4.908l.174-.353.347.176c1.73.873 3.357 1.215 4.95 1.217 4.675.016 9.093-3.046 14.16-4.566C2.248 39.188.998 36.775.998 34.052c.007-4.551 3.489-8.262 7.823-8.266 4.335.003 7.816 3.715 7.823 8.266 0 2.533-1.081 4.8-2.784 6.316 14.486 2.412 17.977 14.33 18.168 22.726 5.86-6.547 11.888-10.71 17.755-13.038-1.534-1.36-2.508-3.399-2.51-5.674.01-4.074 3.123-7.396 7.006-7.4 3.883.003 6.998 3.326 7.005 7.4a7.68 7.68 0 01-.752 3.327c.445-.02.888-.03 1.328-.03 16.327.023 28.959 12.9 28.99 23.905 0 .844-.075 1.68-.231 2.498-.364 1.909-.69 4.022-1.538 6.259 9.598 1.123 25.509 10.665 25.539 10.67l.662.397-.707.307c-.002.001-5.7 2.46-11.888 4.923-5.746 2.276-11.803 4.55-14.378 4.9 1.167 2.979 1.905 6.88 1.905 10.719-.001 3.469-.602 6.889-2.066 9.485-1.605 3.695-11.647 12.658-25.717 12.694a33.56 33.56 0 01-1.67-.041 7.73 7.73 0 01.523 2.8c-.007 4.073-3.123 7.396-7.006 7.4-3.882-.004-6.997-3.327-7.005-7.4.001-2.109.84-4.012 2.184-5.36-4.517-1.826-9.235-4.72-14.042-9.014.113.691.171 1.43.171 2.201.009 8.024-6.22 19.908-20.254 20.465a8.269 8.269 0 011.31 4.496c-.006 4.404-3.375 7.998-7.574 8.001-4.198-.003-7.567-3.597-7.575-8.001 0-2.474 1.065-4.69 2.74-6.159-3.113-.977-6.469-2.407-10.086-4.38-2.185.019-3.696.77-6.077 1.302l-.25.054-.149-.209c-.929-1.299-1.327-2.79-1.327-4.291 0-1.414.35-2.841.936-4.156 1.145-2.558 3.18-4.719 5.45-5.51-.745-2.111-1.092-4.158-1.092-6.079-.006-5.212 2.58-9.486 6.69-11.393 2.218-1.036 4.309-1.498 6.235-1.498.694 0 1.364.061 2.013.177 2.448.43 4.547 1.642 6.192 3.3a13.83 13.83 0 013.907 5.9c.435 1.268.649 2.728.649 4.245-.009 5.722-3.084 12.509-9.56 12.672 1.94 1.602 4.314 2.354 6.745 2.354 3.263.002 6.615-1.365 9.07-3.853 2.266-2.295 3.203-4.949 3.475-7.696a19.26 19.26 0 00.084-1.809c0-2.161-.333-4.322-.688-6.295-1.635-6.785-8.924-15.473-20.412-16.912-1.389 2.01-3.338 3.303-5.53 3.303-1.93 0-3.676-1.011-5.011-2.621-1.766.607-13.114 5.209-14.233 16.857 2.354 1.426 3.902 3.575 3.904 6.028-.004 2.619-1.774 4.884-4.407 6.303 1.585 5.43 3.897 10.61 7.03 15.07zm848.77 8.594a161.936 161.936 0 01-6.983-4.423 177.62 177.62 0 01-10.208-7.527 229.447 229.447 0 01-4.937-4.027c-2.519-2.128-4.951-4.178-7.324-6.271-1.208-1.063-10.495-9.913-19.806-19.012-9.322-9.118-18.583-18.368-19.881-20.46l-.149-.246.186-.217c8.313-9.827 28.746-35.34 30.707-37.267 8.745-9.615 19.176-17.59 30.611-23.426a104.62 104.62 0 016.956-3.24c8.75-4.255 20.547-6.84 32.315-6.84 18.098 0 36.206 6.126 42.773 21.975.211.52 1.229 3.616 1.932 8.055l.058.367-.359.08c-4.241.947-7.2 3.702-7.183 6.785-.019 3.131 3.039 5.924 7.39 6.825l.363.075-.054.371c-1.217 8.053-5.218 16.366-15.155 21.103-2.249 1.072-4.466 1.783-6.635 2.187l-.311.058-.12-.295c-1.263-3.088-3.522-5.073-6.012-5.066-2.253-.003-4.307 1.61-5.623 4.204l-.151.3-.315-.104c-9.196-3.019-16.239-10.513-19.172-15.947l-.016-.026-.008-.022c-.857-2.318-1.301-4.998-1.303-7.749.004-4.907 1.411-10.043 4.509-13.703 3.089-3.127 7.02-4.648 10.933-4.647 5.183-.001 10.343 2.66 13.522 7.716l.446.708-.823-.105a15.047 15.047 0 00-1.86-.117c-5.564.002-11.19 3.058-12.516 8.489a12.452 12.452 0 00-.289 2.687c.003 6.064 4.295 11.95 10.842 12.61.365.021.719.034 1.065.034 5.25-.01 8.513-2.726 10.558-6.625 2.038-3.901 2.768-8.986 2.767-13.525.037-1.092.97-1.703 1.975-2.376 1.03-.672 2.25-1.395 3.198-2.464 1.25-.99 2.069-2.01 2.059-3.066-.001-.588-.234-1.25-.855-2.028a1.9 1.9 0 00-.777-.146c-1.313-.02-3.214.996-5.211 1.01h-.031l-.025-.005c-3.616-.523-6.943-2.139-10.186-3.922l-.886-.49.981-.242c3.303-.805 5.787-3.943 5.787-7.713 0-4.39-3.358-7.92-7.467-7.926-4.11.007-7.465 3.535-7.467 7.925 0 1.15.236 2.238.651 3.224l.374.89-.882-.37c-2.351-.987-4.738-1.637-7.24-1.637-1.507 0-3.057.235-4.671.78l-.679.23.177-.7a6.16 6.16 0 00.198-1.533c0-2.167-1.262-3.862-3.094-5.114-1.007-.334-2.624-.669-3.993-.666-.759-.003-1.441.105-1.882.329-.44.236-.636.487-.648.986 0 .139.018.294.063.47.316 1.173.453 2.321.453 3.447-.033 7.025-5.203 13.063-5.17 19.87 0 .396.016.797.055 1.2l.121 1.295-.812-1.006c-3.765-4.667-9.559-7.756-15.927-9.234l-.879-.204.75-.509c1.727-1.17 2.881-3.22 2.881-5.568-.001-3.666-2.8-6.605-6.225-6.612-3.424.007-6.224 2.946-6.224 6.612 0 1.794.674 3.414 1.763 4.603l.623.68-.915-.017a41.709 41.709 0 00-.764-.008c-6.727-.002-13.327 1.69-18.216 5.026-4.839 3.312-8.006 8.193-8.074 14.734l.033.025-.04.24a25.745 25.745 0 00-.363 4.294c-.001 1.06.066 2.12.207 3.173.313 2.42 1.808 4.886 3.05 7.178l.296.543-.612.038c-3.115.195-10.206 2.625-16.438 5.006a358.864 358.864 0 00-10.744 4.31c1.691.586 5.435 1.85 9.795 3.115 5.941 1.726 13.034 3.447 17.494 3.443h.223l.634.006-.294.572c-1.584 3.058-2.847 5.99-2.887 8.639-.003.157-.005.313-.005.465 0 2.552.346 4.935 1.008 7.121 2.772 9.146 13.73 16.837 23.346 16.815.298 0 .594-.007.891-.02l.579-.028-.194.554a7.074 7.074 0 00-.399 2.304c.003 3.664 2.802 6.604 6.227 6.61 3.425-.006 6.224-2.945 6.225-6.61a6.818 6.818 0 00-1.534-4.337l-.375-.456.563-.173c7.508-2.309 11.892-5.832 16.922-9.79l.629-.495v.806c-.017 1.379 1.865 7.908 1.867 13.497.028 4.395-1.22 8.548-5.687 8.991-1.079.881-1.467 1.685-1.467 2.401-.03 1.261 1.333 2.644 3.387 3.724 2.029 1.079 4.655 1.87 6.918 2.17 5.379-.169 7.551-3.135 7.596-7.489 0-.62-.05-1.272-.143-1.942l-.091-.673.621.25c2.291.929 4.838 1.351 7.46 1.348a26.4 26.4 0 003.776-.275l.694-.101-.284.652a8.27 8.27 0 00-.697 3.327c.001 4.391 3.356 7.916 7.467 7.925 4.111-.009 7.466-3.534 7.466-7.925 0-2.999-1.57-5.601-3.874-6.947l-.586-.342.586-.341c4.608-2.686 7.989-6.453 8.625-10.398.075-.892.112-1.806.112-2.73-.015-8.798-3.441-18.256-12.968-18.927-3.182-.001-6.22 1.521-8.463 3.947-2.243 2.426-3.681 5.745-3.681 9.304 0 .429.017.863.064 1.292.375 3.028 2.046 5.291 4.352 6.951 2.427 2.175 4.639 2.17 7.822 2.97l.488.124-.24.447c-1.884 3.505-5.163 5.05-8.597 5.044-5.399-.01-11.271-3.711-13.392-9.382a23.172 23.172 0 01-1.717-4.83 24.848 24.848 0 01-.669-5.732c0-3.196.618-6.348 1.858-9.107 2.018-4.739 7.818-8.612 14.719-10.257l.361-.086.103.364c1.085 3.87 3.648 6.488 6.502 6.474 2.842.012 5.397-2.583 6.489-6.426l.105-.37.367.096c5.713 1.492 11.095 5.005 14.794 11.289.463.785 2.119 3.943 3.137 8.759l.062.296-.265.138c-2.565 1.332-4.158 3.411-4.154 5.693-.007 2.426 1.801 4.633 4.657 5.941l.261.118-.034.287c-.534 4.369-1.875 9.206-4.52 14.311l-.019.035-.027.035c-9.658 11.775-24.596 17.677-39.598 17.677-10.343-.002-20.723-2.808-29.429-8.442zm-48.717-41.826c9.3 9.086 18.611 17.958 19.777 18.981 2.365 2.086 4.793 4.133 7.31 6.261a233.914 233.914 0 004.92 4.011 176.67 176.67 0 0010.161 7.493 158.704 158.704 0 006.957 4.407c8.578 5.552 18.816 8.323 29.02 8.323 14.791 0 29.493-5.82 38.976-17.364 2.53-4.895 3.836-9.522 4.379-13.716-2.884-1.398-4.85-3.767-4.854-6.535.003-2.59 1.732-4.831 4.312-6.253-.999-4.545-2.571-7.531-2.982-8.229-3.52-5.966-8.552-9.328-13.958-10.83-1.204 3.846-3.885 6.615-7.127 6.626-3.261-.014-5.949-2.81-7.145-6.686-6.577 1.64-12.018 5.411-13.827 9.72-1.19 2.651-1.791 5.696-1.791 8.79a24.1 24.1 0 00.647 5.549 22.635 22.635 0 001.673 4.698c1.986 5.362 7.622 8.916 12.678 8.906 3.063-.008 5.881-1.265 7.655-4.184-2.82-.662-5.152-.789-7.613-2.994-2.403-1.718-4.238-4.189-4.643-7.477a13.216 13.216 0 01-.069-1.383c.009-7.544 6.061-14.025 12.951-14.039 10.177.75 13.738 10.791 13.721 19.715 0 .947-.04 1.883-.117 2.828-.69 4.166-4.012 7.916-8.461 10.652 2.242 1.561 3.715 4.24 3.715 7.278-.01 4.801-3.679 8.711-8.246 8.714-4.569-.003-8.238-3.913-8.246-8.714a9.05 9.05 0 01.513-3.01 27.589 27.589 0 01-3.223.198c-2.479-.001-4.905-.366-7.14-1.173.046.475.071.941.073 1.398.043 4.662-2.664 8.201-8.396 8.277l-.029.002-.029-.005c-2.364-.313-5.06-1.12-7.202-2.255-2.121-1.14-3.777-2.595-3.804-4.423 0-1.061.605-2.112 1.857-3.094l.091-.073.117-.009c3.957-.324 5.059-3.827 5.089-8.217.001-4.855-1.453-10.374-1.795-12.747-4.683 3.688-9.038 7.054-16.083 9.316a7.604 7.604 0 011.364 4.379c-.007 4.074-3.121 7.397-7.003 7.4-3.883-.003-6.997-3.326-7.004-7.4a7.583 7.583 0 01.273-2.023c-.124.002-.247.004-.373.004-10.002-.022-21.147-7.819-24.091-17.371-.686-2.27-1.043-4.732-1.043-7.355 0-.16.002-.32.006-.479.049-2.711 1.221-5.53 2.683-8.418-9.39-.212-28.068-6.933-28.093-6.936l-.944-.34.923-.395c.032-.005 20.517-8.804 27.775-9.714-1.168-2.133-2.526-4.47-2.856-6.927a24.884 24.884 0 01-.214-3.28 26.51 26.51 0 01.37-4.386c.001-6.897 3.367-12.118 8.42-15.558 5.042-3.44 11.757-5.15 18.59-5.162a7.626 7.626 0 01-1.428-4.469c.009-4.074 3.123-7.399 7.006-7.402 3.882.003 6.996 3.329 7.005 7.402-.001 2.297-.995 4.35-2.556 5.708 5.781 1.475 11.078 4.272 14.808 8.428l-.001-.11c.033-7.2 5.203-13.247 5.171-19.87 0-1.062-.128-2.136-.426-3.243a2.724 2.724 0 01-.091-.674c-.012-.794.46-1.398 1.082-1.693.625-.308 1.401-.409 2.228-.41 1.516.001 3.206.36 4.293.726l.049.016.046.029c1.976 1.33 3.48 3.274 3.479 5.798 0 .343-.027.694-.083 1.054 1.468-.43 2.893-.62 4.278-.62 2.342.002 4.567.543 6.723 1.37a9.081 9.081 0 01-.405-2.687c.008-4.8 3.677-8.713 8.246-8.715 4.569.001 8.236 3.915 8.246 8.715 0 3.773-2.273 6.989-5.469 8.198 2.946 1.58 5.928 2.927 9.082 3.386 1.734 0 3.558-.99 5.179-1.01.41 0 .819.07 1.197.262l.072.036.053.065c.738.897 1.088 1.763 1.088 2.598-.01 1.487-1.061 2.653-2.305 3.638-1.011 1.142-2.302 1.896-3.307 2.555-1.032.657-1.655 1.23-1.619 1.713-.001 4.623-.731 9.81-2.855 13.892-2.113 4.081-5.707 7.057-11.249 7.047-.365 0-.734-.012-1.129-.038-7.01-.717-11.56-6.972-11.557-13.395-.002-.955.1-1.914.309-2.868 1.468-5.908 7.462-9.097 13.275-9.095.376 0 .752.014 1.125.04-3.06-4.385-7.728-6.665-12.411-6.667-3.717.002-7.438 1.437-10.362 4.394-2.921 3.442-4.303 8.41-4.3 13.169-.002 2.656.429 5.243 1.245 7.453 2.804 5.193 9.626 12.455 18.403 15.436 1.404-2.595 3.611-4.33 6.158-4.334 2.84.007 5.249 2.151 6.608 5.258a26.005 26.005 0 006.138-2.067c9.521-4.551 13.389-12.37 14.658-20.142-4.372-1.023-7.631-3.925-7.651-7.518.019-3.534 3.175-6.404 7.438-7.468-.687-4.174-1.658-7.116-1.824-7.515-6.35-15.396-24.093-21.49-42.054-21.49-11.654 0-23.361 2.57-31.996 6.77-2.344.99-4.654 2.065-6.925 3.224-11.349 5.795-21.706 13.712-30.402 23.274-1.847 1.803-22.061 27.025-30.482 37.002 1.655 2.305 10.662 11.341 19.604 20.072zm-266.067 41.826a161.936 161.936 0 01-6.983-4.423 176.214 176.214 0 01-10.207-7.527 224.737 224.737 0 01-4.939-4.027c-2.518-2.128-4.949-4.178-7.323-6.271-1.208-1.063-10.495-9.913-19.807-19.012-9.321-9.118-18.583-18.368-19.879-20.46l-.15-.246.186-.217c8.313-9.827 28.746-35.34 30.707-37.267 8.745-9.615 19.176-17.59 30.609-23.426a105.14 105.14 0 016.958-3.24c8.75-4.255 20.547-6.84 32.315-6.84 18.097 0 36.206 6.126 42.773 21.975.211.52 1.226 3.616 1.932 8.055l.058.367-.359.08c-4.241.947-7.2 3.702-7.183 6.785-.019 3.131 3.039 5.924 7.39 6.825l.363.075-.054.371c-1.217 8.053-5.218 16.366-15.155 21.103-2.249 1.072-4.466 1.783-6.634 2.187l-.312.058-.12-.295c-1.263-3.088-3.522-5.073-6.014-5.066-2.251-.003-4.304 1.61-5.621 4.204l-.151.3-.315-.104c-9.196-3.019-16.239-10.513-19.172-15.947l-.016-.026-.008-.022c-.859-2.318-1.301-4.998-1.303-7.749.002-4.907 1.411-10.043 4.509-13.703 3.089-3.127 7.019-4.648 10.933-4.647 5.183-.001 10.343 2.66 13.523 7.716l.445.708-.823-.105a15.047 15.047 0 00-1.86-.117c-5.564.002-11.189 3.058-12.516 8.489a12.513 12.513 0 00-.288 2.687c0 6.064 4.294 11.95 10.841 12.61.363.021.719.034 1.065.034 5.251-.01 8.513-2.726 10.559-6.625 2.034-3.901 2.768-8.986 2.766-13.525.037-1.092.971-1.703 1.975-2.376 1.03-.672 2.25-1.395 3.198-2.464 1.25-.99 2.069-2.01 2.058-3.066 0-.588-.233-1.25-.854-2.028a1.9 1.9 0 00-.777-.146c-1.313-.02-3.214.996-5.211 1.01h-.031l-.025-.005c-3.616-.523-6.944-2.139-10.185-3.922l-.887-.49.981-.242c3.303-.805 5.786-3.943 5.786-7.713-.001-4.39-3.356-7.92-7.466-7.926-4.11.007-7.465 3.535-7.467 7.925 0 1.15.236 2.238.651 3.224l.374.89-.882-.37c-2.351-.987-4.739-1.637-7.24-1.637-1.507 0-3.057.235-4.671.78l-.679.23.177-.7c.136-.54.198-1.05.198-1.533 0-2.166-1.261-3.86-3.092-5.113-1.008-.334-2.624-.669-3.994-.667-.759-.003-1.442.105-1.883.329-.44.236-.636.487-.648.986 0 .139.019.294.063.47.317 1.173.453 2.321.453 3.447-.033 7.025-5.203 13.063-5.172 19.87.002.396.018.797.057 1.2l.122 1.295-.813-1.006c-3.766-4.667-9.559-7.756-15.927-9.234l-.879-.204.751-.509c1.727-1.17 2.881-3.22 2.879-5.568 0-3.666-2.801-6.605-6.224-6.612-3.425.007-6.224 2.946-6.226 6.612 0 1.794.676 3.414 1.765 4.603l.623.68-.915-.017a41.81 41.81 0 00-.764-.008c-6.726-.002-13.327 1.69-18.215 5.026-4.84 3.312-8.007 8.193-8.075 14.734l.034.025-.04.24a25.535 25.535 0 00-.363 4.294 23.58 23.58 0 00.206 3.173c.313 2.42 1.808 4.886 3.051 7.178l.296.543-.612.038c-3.116.195-10.207 2.625-16.439 5.006a360.35 360.35 0 00-10.745 4.31c1.691.586 5.437 1.85 9.796 3.115 5.941 1.726 13.034 3.447 17.492 3.443h.223l.636.006-.294.572c-1.584 3.058-2.847 5.99-2.887 8.639-.003.157-.007.313-.005.465 0 2.552.345 4.935 1.006 7.121 2.774 9.146 13.733 16.837 23.348 16.815.298 0 .594-.007.89-.02l.58-.028-.195.554a6.943 6.943 0 00-.397 2.304c.002 3.664 2.801 6.604 6.226 6.61 3.425-.006 6.224-2.945 6.226-6.61a6.83 6.83 0 00-1.535-4.337l-.375-.456.563-.173c7.508-2.309 11.892-5.832 16.923-9.79l.628-.495v.806c-.017 1.379 1.865 7.908 1.867 13.497.028 4.395-1.22 8.548-5.687 8.991-1.079.881-1.467 1.685-1.467 2.401-.03 1.261 1.333 2.644 3.388 3.724 2.029 1.079 4.654 1.87 6.917 2.17 5.38-.169 7.55-3.136 7.596-7.489 0-.62-.05-1.272-.143-1.942l-.091-.673.621.25c2.291.929 4.838 1.351 7.46 1.348a26.376 26.376 0 003.775-.275l.695-.101-.284.652a8.286 8.286 0 00-.697 3.327c.002 4.391 3.356 7.916 7.466 7.925 4.111-.009 7.466-3.534 7.467-7.925 0-2.999-1.571-5.601-3.875-6.947l-.585-.342.585-.341c4.609-2.686 7.99-6.453 8.627-10.398.074-.892.112-1.806.112-2.73-.016-8.798-3.441-18.256-12.969-18.927-3.181-.001-6.219 1.521-8.463 3.947-2.243 2.426-3.684 5.745-3.684 9.304.002.429.021.863.066 1.292.377 3.028 2.047 5.291 4.353 6.951 2.427 2.175 4.64 2.17 7.823 2.97l.488.124-.241.447c-1.884 3.505-5.163 5.05-8.597 5.044-5.4-.01-11.271-3.711-13.392-9.382a23.12 23.12 0 01-1.719-4.83 24.956 24.956 0 01-.667-5.732c0-3.196.618-6.348 1.858-9.107 2.018-4.739 7.818-8.612 14.719-10.257l.361-.086.103.364c1.085 3.87 3.648 6.488 6.501 6.474 2.843.012 5.399-2.583 6.49-6.426l.105-.37.367.096c5.714 1.492 11.095 5.005 14.794 11.289.462.785 2.117 3.943 3.137 8.759l.063.296-.266.138c-2.565 1.332-4.158 3.411-4.155 5.693-.007 2.426 1.802 4.633 4.658 5.941l.261.118-.034.287c-.534 4.369-1.875 9.206-4.52 14.311l-.018.035-.028.035c-9.658 11.775-24.597 17.677-39.598 17.677-10.343-.002-20.724-2.808-29.429-8.442zm-48.716-41.826c9.298 9.086 18.61 17.958 19.776 18.981 2.365 2.086 4.793 4.133 7.31 6.261a231.368 231.368 0 004.92 4.011c3.31 2.62 6.693 5.131 10.159 7.493a159.978 159.978 0 006.959 4.407c8.579 5.552 18.816 8.323 29.02 8.323 14.79 0 29.489-5.817 38.973-17.359 2.533-4.897 3.839-9.525 4.383-13.721-2.884-1.398-4.85-3.767-4.854-6.535.003-2.59 1.732-4.832 4.312-6.253-.999-4.546-2.571-7.531-2.982-8.229-3.519-5.966-8.552-9.328-13.958-10.83-1.205 3.846-3.884 6.615-7.129 6.626-3.26-.014-5.947-2.81-7.143-6.686-6.578 1.64-12.019 5.411-13.827 9.72-1.19 2.651-1.791 5.696-1.791 8.79a24.1 24.1 0 00.647 5.549 22.523 22.523 0 001.674 4.698c1.985 5.362 7.621 8.916 12.678 8.906 3.063-.008 5.881-1.265 7.655-4.184-2.821-.662-5.153-.789-7.613-2.994-2.403-1.718-4.239-4.189-4.643-7.477a13.216 13.216 0 01-.069-1.383c.009-7.544 6.06-14.025 12.951-14.039 10.176.75 13.737 10.791 13.72 19.715 0 .947-.04 1.883-.117 2.828-.689 4.166-4.011 7.916-8.46 10.652 2.242 1.561 3.714 4.24 3.714 7.278-.008 4.801-3.678 8.711-8.246 8.714-4.569-.003-8.237-3.913-8.246-8.714 0-1.059.184-2.073.513-3.01a27.575 27.575 0 01-3.223.198c-2.478-.001-4.905-.366-7.141-1.173.047.476.072.942.072 1.398.045 4.662-2.661 8.201-8.393 8.277l-.029.002-.03-.005c-2.363-.313-5.059-1.12-7.201-2.255-2.121-1.14-3.776-2.595-3.804-4.423 0-1.061.605-2.112 1.856-3.094l.091-.073.115-.009c3.959-.324 5.062-3.827 5.091-8.217.002-4.855-1.452-10.375-1.794-12.748-4.685 3.689-9.039 7.055-16.083 9.317a7.612 7.612 0 011.364 4.379c-.007 4.074-3.121 7.397-7.004 7.4-3.882-.003-6.998-3.326-7.003-7.4a7.665 7.665 0 01.271-2.023c-.123.002-.247.004-.371.004-10.003-.022-21.148-7.819-24.091-17.371-.687-2.27-1.043-4.732-1.043-7.355 0-.16.002-.32.005-.479.049-2.711 1.222-5.53 2.682-8.418-9.388-.212-28.066-6.933-28.091-6.936l-.944-.34.922-.395c.032-.005 20.516-8.803 27.775-9.714-1.169-2.133-2.526-4.47-2.855-6.927a25.058 25.058 0 01-.215-3.28 26.72 26.72 0 01.37-4.386c.003-6.897 3.367-12.118 8.421-15.558 5.041-3.44 11.757-5.15 18.589-5.162a7.626 7.626 0 01-1.427-4.469c.007-4.074 3.123-7.399 7.005-7.402 3.883.003 6.997 3.329 7.006 7.402-.002 2.297-.995 4.35-2.557 5.708 5.783 1.475 11.079 4.272 14.808 8.428v-.11c.033-7.2 5.203-13.247 5.17-19.87 0-1.062-.127-2.136-.425-3.243a2.678 2.678 0 01-.091-.674c-.012-.794.459-1.398 1.083-1.693.624-.308 1.4-.409 2.227-.41 1.516.001 3.205.36 4.293.726l.05.016.044.029c1.977 1.33 3.481 3.274 3.479 5.798.001.343-.026.694-.083 1.054 1.468-.43 2.894-.62 4.28-.62 2.34.002 4.566.543 6.722 1.37a9.082 9.082 0 01-.406-2.687c.009-4.8 3.677-8.713 8.246-8.715 4.569.001 8.238 3.915 8.246 8.715 0 3.773-2.273 6.99-5.469 8.198 2.945 1.58 5.928 2.927 9.081 3.386 1.733.001 3.559-.99 5.18-1.01.411 0 .819.07 1.196.262l.074.036.051.065c.74.897 1.089 1.763 1.089 2.598-.011 1.487-1.061 2.653-2.305 3.638-1.01 1.142-2.302 1.896-3.307 2.555-1.032.657-1.655 1.23-1.618 1.713-.003 4.623-.734 9.81-2.857 13.892-2.112 4.081-5.708 7.057-11.248 7.047-.365 0-.734-.012-1.13-.038-7.009-.717-11.559-6.972-11.556-13.395-.002-.955.099-1.914.309-2.868 1.468-5.908 7.461-9.097 13.275-9.095.375 0 .752.014 1.125.04-3.061-4.385-7.729-6.665-12.412-6.667-3.716.002-7.437 1.437-10.362 4.394-2.921 3.442-4.302 8.41-4.301 13.169 0 2.651.43 5.236 1.242 7.443 2.8 5.194 9.626 12.464 18.407 15.447 1.404-2.595 3.612-4.331 6.157-4.335 2.841.007 5.252 2.151 6.609 5.258a26.012 26.012 0 006.139-2.067c9.521-4.551 13.389-12.37 14.659-20.142-4.371-1.023-7.633-3.925-7.651-7.518.018-3.534 3.174-6.403 7.436-7.468-.685-4.174-1.657-7.116-1.823-7.515-6.349-15.396-24.092-21.49-42.054-21.49-11.654 0-23.361 2.57-31.996 6.77-2.343.99-4.654 2.065-6.924 3.224-11.349 5.795-21.706 13.712-30.402 23.274-1.847 1.802-22.061 27.023-30.484 37.002 1.653 2.303 10.66 11.34 19.605 20.072zm-265.679 41.826a160.642 160.642 0 01-6.981-4.423 176.602 176.602 0 01-10.209-7.527 231.986 231.986 0 01-4.938-4.027c-2.518-2.128-4.948-4.178-7.324-6.271-1.207-1.063-10.494-9.913-19.805-19.012-9.322-9.118-18.583-18.368-19.881-20.46l-.149-.246.185-.217c8.313-9.827 28.748-35.34 30.71-37.267 8.743-9.615 19.175-17.59 30.609-23.426a104.62 104.62 0 016.956-3.24c8.75-4.255 20.549-6.84 32.314-6.84 18.099 0 36.208 6.126 42.774 21.973.212.523 1.227 3.617 1.931 8.056l.058.368-.359.08c-4.241.946-7.2 3.701-7.183 6.784-.019 3.132 3.042 5.925 7.391 6.826l.363.075-.055.37c-1.215 8.053-5.218 16.366-15.153 21.103-2.249 1.073-4.466 1.783-6.636 2.187l-.309.058-.121-.294c-1.264-3.088-3.521-5.074-6.014-5.067-2.253-.003-4.305 1.61-5.621 4.204l-.151.3-.315-.104c-9.197-3.019-16.241-10.513-19.174-15.947l-.014-.026-.008-.022c-.859-2.318-1.302-4.998-1.302-7.748.001-4.908 1.409-10.044 4.507-13.704 3.09-3.127 7.019-4.648 10.935-4.646 5.182-.002 10.343 2.66 13.521 7.715l.446.709-.822-.106a15.092 15.092 0 00-1.86-.117c-5.562.002-11.188 3.058-12.516 8.489a12.453 12.453 0 00-.289 2.687c.001 6.064 4.294 11.95 10.842 12.61a17.7 17.7 0 001.065.034c5.251-.01 8.513-2.726 10.56-6.625 2.035-3.9 2.766-8.986 2.765-13.525.036-1.091.972-1.703 1.975-2.375 1.031-.672 2.25-1.396 3.149-2.417l.025-.028.024-.019c1.249-.99 2.07-2.01 2.06-3.066-.002-.588-.232-1.25-.853-2.027a1.898 1.898 0 00-.78-.147c-1.311-.02-3.214.996-5.211 1.01h-.028l-.027-.005c-3.615-.523-6.944-2.139-10.187-3.922l-.886-.492.983-.24c3.303-.805 5.785-3.943 5.785-7.713-.001-4.39-3.357-7.92-7.468-7.926-4.109.007-7.465 3.535-7.467 7.925 0 1.15.236 2.238.651 3.224l.376.892-.884-.374c-2.35-.986-4.737-1.636-7.238-1.636-1.508 0-3.058.235-4.673.78l-.678.229.178-.7a6.25 6.25 0 00.198-1.532c0-2.166-1.263-3.86-3.092-5.113-1.007-.334-2.625-.67-3.996-.667-.759-.003-1.442.106-1.883.329-.438.237-.634.487-.646.986 0 .137.018.294.062.47.316 1.174.454 2.321.454 3.447-.034 7.026-5.202 13.063-5.171 19.87.001.397.017.797.054 1.201l.119 1.289-.809-1.002c-3.766-4.667-9.559-7.756-15.928-9.234l-.877-.203.748-.51c1.727-1.169 2.881-3.22 2.881-5.567 0-3.666-2.8-6.606-6.224-6.613-3.425.007-6.224 2.947-6.226 6.613a6.78 6.78 0 001.765 4.602l.625.681-.919-.017c-.255-.005-.51-.009-.762-.009-6.729-.002-13.33 1.69-18.218 5.027-4.858 3.324-8.032 8.23-8.075 14.808l.022.033-.026.155a25.66 25.66 0 00-.365 4.296c0 1.057.067 2.12.207 3.172.315 2.42 1.808 4.886 3.052 7.178l.294.542-.611.04c-3.116.194-10.207 2.624-16.441 5.005a360.771 360.771 0 00-10.743 4.31c1.692.585 5.436 1.85 9.796 3.115 5.94 1.726 13.034 3.447 17.493 3.443.069 0 .143-.002.224 0l.635.005-.294.572c-1.583 3.058-2.847 5.991-2.887 8.638l-.003.467c0 2.552.346 4.935 1.007 7.121 2.773 9.146 13.732 16.837 23.346 16.815.298 0 .594-.007.891-.02l.578-.028-.193.554a6.934 6.934 0 00-.397 2.304c.001 3.664 2.8 6.604 6.226 6.61 3.424-.006 6.224-2.945 6.224-6.61a6.818 6.818 0 00-1.534-4.337l-.375-.456.563-.173c7.509-2.309 11.893-5.833 16.922-9.791l.629-.494v.806c-.017 1.379 1.863 7.908 1.866 13.497.028 4.395-1.219 8.55-5.687 8.991-1.077.881-1.467 1.685-1.467 2.398-.029 1.262 1.333 2.646 3.388 3.726 2.029 1.08 4.654 1.871 6.918 2.171 5.379-.169 7.551-3.135 7.595-7.489 0-.62-.048-1.272-.142-1.942l-.094-.674.623.252c2.293.928 4.839 1.35 7.461 1.348a26.668 26.668 0 003.775-.275l.695-.101-.284.651a8.295 8.295 0 00-.698 3.328c.001 4.39 3.356 7.916 7.467 7.925 4.111-.009 7.466-3.534 7.468-7.925 0-2.999-1.571-5.601-3.875-6.947l-.584-.342.584-.342c4.607-2.685 7.99-6.452 8.626-10.397.073-.892.112-1.806.112-2.731-.017-8.797-3.44-18.256-12.97-18.926-3.181-.002-6.217 1.52-8.462 3.947-2.242 2.425-3.682 5.745-3.682 9.303.001.43.021.864.065 1.293.375 3.028 2.045 5.29 4.351 6.951 2.428 2.175 4.64 2.17 7.823 2.969l.488.124-.241.447c-1.882 3.506-5.162 5.051-8.595 5.045-5.4-.01-11.269-3.712-13.393-9.383a23.299 23.299 0 01-1.717-4.829 24.848 24.848 0 01-.669-5.732c0-3.196.618-6.348 1.858-9.107 2.02-4.739 7.817-8.612 14.72-10.257l.362-.087.101.365c1.085 3.87 3.649 6.487 6.501 6.473 2.843.013 5.397-2.582 6.49-6.426l.107-.37.366.096c5.712 1.493 11.093 5.008 14.792 11.29.462.785 2.119 3.942 3.137 8.759l.064.295-.266.138c-2.564 1.333-4.159 3.412-4.156 5.694-.004 2.426 1.803 4.633 4.659 5.941l.26.117-.035.287c-.533 4.37-1.873 9.207-4.519 14.312l-.019.037-.025.033c-9.66 11.775-24.599 17.677-39.599 17.677-10.345 0-20.726-2.806-29.432-8.44zm-48.715-41.826c9.297 9.086 18.608 17.958 19.775 18.981 2.367 2.086 4.792 4.133 7.311 6.261a233.859 233.859 0 004.919 4.011 177.02 177.02 0 0010.161 7.493 159.338 159.338 0 006.958 4.407c8.577 5.552 18.816 8.323 29.021 8.323 14.788 0 29.489-5.817 38.973-17.359 2.531-4.896 3.838-9.524 4.383-13.72-2.885-1.398-4.851-3.768-4.855-6.536.003-2.59 1.731-4.832 4.313-6.253-1-4.546-2.571-7.531-2.984-8.229-3.517-5.968-8.551-9.327-13.957-10.83-1.205 3.847-3.884 6.615-7.128 6.626-3.26-.014-5.948-2.81-7.144-6.685-6.579 1.64-12.018 5.411-13.828 9.719-1.191 2.651-1.791 5.696-1.791 8.79a24.1 24.1 0 00.647 5.549 22.692 22.692 0 001.673 4.698c1.987 5.362 7.624 8.916 12.68 8.906 3.061-.008 5.879-1.265 7.654-4.184-2.821-.662-5.153-.789-7.613-2.994-2.402-1.718-4.239-4.189-4.642-7.479a13.428 13.428 0 01-.069-1.381c.009-7.544 6.059-14.025 12.95-14.039 10.176.75 13.738 10.791 13.72 19.715 0 .947-.038 1.883-.116 2.828-.689 4.166-4.012 7.916-8.459 10.652 2.241 1.561 3.713 4.24 3.713 7.278-.008 4.801-3.678 8.711-8.247 8.714-4.568-.003-8.237-3.913-8.246-8.714 0-1.059.184-2.073.513-3.01a27.515 27.515 0 01-3.221.198c-2.478-.001-4.905-.366-7.141-1.173.047.476.071.942.071 1.398.045 4.662-2.661 8.201-8.395 8.277l-.028.002-.031-.005c-2.364-.313-5.06-1.122-7.199-2.257-2.122-1.138-3.777-2.595-3.806-4.424 0-1.058.607-2.109 1.856-3.091l.093-.073.115-.009c3.959-.324 5.06-3.827 5.09-8.217.001-4.855-1.453-10.374-1.794-12.747-4.683 3.688-9.036 7.053-16.082 9.316a7.626 7.626 0 011.364 4.379c-.007 4.074-3.122 7.397-7.003 7.4-3.883-.003-6.999-3.326-7.006-7.4 0-.704.097-1.381.273-2.023-.124.002-.248.004-.373.004-10-.022-21.146-7.819-24.091-17.371-.685-2.27-1.041-4.732-1.041-7.355 0-.16.002-.32.006-.479.048-2.711 1.221-5.53 2.682-8.418-9.388-.212-28.067-6.933-28.093-6.936l-.945-.341.925-.394c.032-.005 20.515-8.803 27.775-9.714-1.169-2.133-2.527-4.47-2.857-6.927a25.046 25.046 0 01-.213-3.277c0-1.482.129-2.955.369-4.388.001-6.897 3.367-12.12 8.42-15.559 5.042-3.44 11.756-5.15 18.591-5.162a7.626 7.626 0 01-1.427-4.469c.007-4.074 3.123-7.399 7.005-7.402 3.883.003 6.997 3.329 7.004 7.402 0 2.297-.994 4.35-2.556 5.708 5.782 1.475 11.08 4.272 14.809 8.43v-.114c.032-7.2 5.203-13.246 5.17-19.87 0-1.06-.129-2.135-.426-3.246a2.664 2.664 0 01-.09-.67c-.012-.795.458-1.399 1.083-1.693.622-.309 1.398-.41 2.226-.411 1.518.002 3.205.36 4.294.726l.048.016.045.03c1.979 1.33 3.481 3.273 3.481 5.798 0 .342-.028.693-.084 1.053a15.13 15.13 0 014.28-.62c2.341.002 4.566.543 6.722 1.37a9.082 9.082 0 01-.406-2.687c.008-4.8 3.678-8.713 8.246-8.715 4.569.002 8.238 3.916 8.247 8.715-.002 3.774-2.274 6.99-5.469 8.199 2.945 1.58 5.928 2.926 9.081 3.385 1.734 0 3.558-.99 5.179-1.01.411 0 .819.07 1.197.262l.073.036.053.065c.74.897 1.089 1.764 1.087 2.598-.01 1.48-1.049 2.639-2.332 3.669-1.006 1.126-2.284 1.872-3.28 2.524-1.032.657-1.655 1.23-1.619 1.713-.002 4.624-.731 9.81-2.856 13.893-2.111 4.08-5.706 7.057-11.248 7.047-.363 0-.735-.013-1.129-.039-7.011-.716-11.56-6.972-11.557-13.395 0-.954.099-1.913.309-2.868 1.469-5.908 7.461-9.097 13.275-9.094.376 0 .752.013 1.126.04-3.059-4.386-7.727-6.666-12.41-6.668-3.718.002-7.44 1.438-10.364 4.395-2.919 3.441-4.302 8.41-4.299 13.168 0 2.656.429 5.243 1.246 7.453 2.805 5.193 9.625 12.456 18.404 15.437 1.404-2.595 3.609-4.331 6.157-4.334 2.841.006 5.25 2.15 6.608 5.256a25.931 25.931 0 006.139-2.066c9.521-4.55 13.389-12.37 14.657-20.141-4.37-1.023-7.631-3.925-7.649-7.518.016-3.535 3.172-6.404 7.435-7.47-.686-4.172-1.656-7.115-1.823-7.514-6.349-15.396-24.093-21.49-42.054-21.49-11.653 0-23.362 2.571-31.997 6.771-2.343.99-4.654 2.064-6.923 3.224-11.349 5.794-21.708 13.712-30.403 23.273-1.846 1.803-22.062 27.026-30.482 37.003 1.651 2.306 10.659 11.341 19.601 20.073zm519.67 9.629c-2.46-.998-4.809-2.195-6.753-3.809-8.722-7.149-24.236-25.26-24.246-25.269l-.201-.234.178-.251c.044-.016 22.494-32.413 41.749-35.872a24.09 24.09 0 012.716-.158c1.397.001 2.792.127 4.162.388 4.512.856 8.76 3.186 11.936 7.207l.019.024.015.026c1.524 2.703 2.684 6.134 2.688 9.377.011 3.499-1.41 6.836-5.205 8.532l-.607.271.062-.667c.052-.608.08-1.224.08-1.844.004-5.895-2.487-12.028-7.31-14.29l.166-.357.165-.36c5.221 2.486 7.753 8.912 7.757 15.006 0 .41-.012.818-.034 1.224 3.035-1.636 4.131-4.405 4.143-7.517.004-3.041-1.104-6.362-2.568-8.96-3.055-3.85-7.112-6.071-11.451-6.899a21.445 21.445 0 00-4.019-.374c-.875 0-1.752.052-2.605.15-13.956 2.432-30.228 21.213-37.418 30.455a136.376 136.376 0 00-3.628 4.839c.855.991 4.335 5.01 8.638 9.703 4.958 5.411 11.007 11.714 15.311 15.237 1.853 1.538 4.131 2.707 6.581 3.702a27.841 27.841 0 0012.775 3.084c4.306-.001 8.676-.971 12.849-2.89 3.032-1.531 6.064-4.62 6.802-8.388.095-.593.142-1.183.142-1.764.003-3.687-1.878-7.096-4.758-8.576.053.648.081 1.285.081 1.907.014 5.986-2.561 10.768-8.167 13.59-1.877.841-3.762 1.25-5.577 1.25-3.404 0-6.558-1.432-8.946-4.035-1.221-1.329-2.244-2.961-3.016-4.878a14.395 14.395 0 01-.742-4.624c-.002-.348.011-.699.035-1.053-1.827 1.097-3.563 1.911-5.783 2.129-.81.121-1.616.181-2.411.182-5.706 0-10.911-3.096-13.046-8.138-.679-2.061-1.034-4.37-1.035-6.7.001-5.861 2.253-11.93 7.464-14.285 1.781-.904 3.668-1.25 5.568-1.25 3.009.002 6.051.865 8.831 1.781a9.46 9.46 0 01-.271-2.247c.033-6.313 6.125-11.796 11.694-12.533.711-.108 1.399-.16 2.062-.16 1.761 0 3.347.37 4.743 1.031l-.166.359-.165.357c-1.292-.613-2.758-.957-4.412-.957a12.7 12.7 0 00-1.954.153c-5.198.648-11.054 5.979-11.022 11.75 0 .9.138 1.815.44 2.73l.249.752-.741-.251c-2.949-.996-6.183-1.977-9.288-1.975-1.807 0-3.567.325-5.236 1.172-4.817 2.156-7.018 7.888-7.018 13.574 0 2.249.344 4.478.984 6.42 1.98 4.679 6.884 7.628 12.319 7.629.755 0 1.523-.059 2.314-.178 2.338-.231 4.075-1.138 6.135-2.425l.687-.427-.095.809c-.07.592-.105 1.175-.105 1.751 0 1.546.246 3.016.695 4.347.731 1.815 1.705 3.367 2.858 4.618 2.256 2.45 5.187 3.782 8.375 3.782 1.7 0 3.475-.38 5.245-1.174 5.341-2.721 7.705-7.112 7.719-12.876 0-.808-.048-1.644-.141-2.504l-.07-.652.601.243c3.569 1.452 5.845 5.366 5.846 9.582.002.625-.049 1.257-.154 1.905-.817 4.105-4.018 7.327-7.233 8.957-4.284 1.97-8.762 2.968-13.185 2.968a28.53 28.53 0 01-13.097-3.152zm-314.782 0c-2.462-.998-4.809-2.195-6.753-3.809-8.724-7.149-24.239-25.26-24.248-25.269l-.201-.234.178-.251c.045-.016 22.494-32.413 41.749-35.872a24.09 24.09 0 012.716-.158 22.35 22.35 0 014.163.388c4.513.856 8.759 3.186 11.935 7.207l.021.024.014.026c1.524 2.703 2.684 6.134 2.686 9.377.015 3.499-1.407 6.836-5.203 8.532l-.607.271.06-.667c.056-.608.083-1.224.081-1.844.005-5.895-2.486-12.028-7.308-14.29l.165-.357.165-.36c5.222 2.486 7.754 8.912 7.758 15.006 0 .41-.011.818-.034 1.224 3.036-1.636 4.131-4.405 4.144-7.517.003-3.041-1.104-6.362-2.568-8.96-3.056-3.85-7.11-6.071-11.452-6.899a21.421 21.421 0 00-4.019-.374c-.877 0-1.755.052-2.606.15-13.954 2.432-30.226 21.213-37.417 30.455a137.727 137.727 0 00-3.628 4.839c.855.992 4.335 5.01 8.638 9.703 4.958 5.411 11.009 11.714 15.311 15.237 1.853 1.538 4.129 2.707 6.581 3.702a27.841 27.841 0 0012.775 3.084c4.307-.001 8.676-.971 12.85-2.89 3.032-1.531 6.065-4.62 6.801-8.39.098-.591.145-1.181.145-1.762.001-3.687-1.88-7.096-4.76-8.576.053.648.081 1.285.081 1.907.014 5.986-2.564 10.768-8.167 13.59-1.877.841-3.762 1.25-5.577 1.25-3.405 0-6.558-1.432-8.946-4.035-1.221-1.329-2.245-2.961-3.016-4.878a14.451 14.451 0 01-.745-4.624c0-.348.012-.699.036-1.053-1.825 1.098-3.562 1.911-5.782 2.129-.809.121-1.614.181-2.41.182-5.707 0-10.911-3.096-13.046-8.138-.68-2.061-1.034-4.37-1.034-6.7 0-5.861 2.252-11.93 7.463-14.285 1.78-.904 3.669-1.25 5.567-1.25 3.009.002 6.051.865 8.83 1.781a9.504 9.504 0 01-.27-2.247c.033-6.313 6.125-11.796 11.694-12.533.712-.108 1.4-.16 2.063-.16 1.76 0 3.344.37 4.741 1.031l-.165.359-.165.357c-1.294-.613-2.759-.957-4.411-.957-.623 0-1.272.047-1.954.153-5.197.648-11.056 5.979-11.023 11.75 0 .9.138 1.815.44 2.732l.248.75-.74-.251c-2.949-.996-6.183-1.977-9.288-1.975-1.806 0-3.565.325-5.235 1.172-4.818 2.156-7.016 7.888-7.016 13.574 0 2.249.344 4.478.982 6.42 1.979 4.679 6.882 7.628 12.319 7.628.757.001 1.524-.058 2.314-.177 2.338-.231 4.072-1.138 6.135-2.425l.687-.429-.095.811a14.682 14.682 0 00-.105 1.751c0 1.546.247 3.016.695 4.347.73 1.815 1.704 3.367 2.855 4.618 2.258 2.45 5.191 3.78 8.377 3.782 1.7 0 3.475-.38 5.245-1.174 5.342-2.721 7.706-7.112 7.72-12.876 0-.808-.049-1.644-.141-2.503l-.073-.654.604.244c3.57 1.452 5.846 5.366 5.848 9.582 0 .625-.05 1.257-.157 1.905-.819 4.105-4.019 7.327-7.232 8.957-4.282 1.97-8.763 2.968-13.185 2.968a28.522 28.522 0 01-13.098-3.152zm-314.395 0c-2.461-.998-4.809-2.195-6.753-3.809-8.725-7.149-24.237-25.26-24.248-25.269l-.2-.234.177-.251c.046-.016 22.494-32.413 41.749-35.872.903-.104 1.81-.157 2.716-.158a22.36 22.36 0 014.164.388c4.513.856 8.759 3.186 11.936 7.207l.019.024.014.026c1.525 2.703 2.684 6.134 2.687 9.377.014 3.499-1.41 6.836-5.204 8.532l-.608.271.063-.667c.053-.608.08-1.224.08-1.844.004-5.895-2.487-12.028-7.31-14.29l.166-.357.165-.36c5.223 2.486 7.754 8.912 7.759 15.006 0 .41-.011.817-.034 1.223 3.034-1.635 4.13-4.404 4.144-7.516.001-3.041-1.106-6.362-2.57-8.96-3.055-3.85-7.11-6.071-11.451-6.899a21.41 21.41 0 00-4.02-.374c-.875 0-1.752.052-2.604.15C46.043 58.86 29.771 77.64 22.58 86.883a142.26 142.26 0 00-3.627 4.838c.855.992 4.336 5.01 8.637 9.704 4.96 5.411 11.01 11.714 15.312 15.237 1.853 1.538 4.131 2.707 6.582 3.702a27.843 27.843 0 0012.776 3.084c4.306-.001 8.674-.971 12.847-2.89 3.032-1.531 6.064-4.62 6.802-8.39.097-.591.144-1.181.144-1.762.003-3.687-1.88-7.096-4.761-8.576.054.648.081 1.285.081 1.907.016 5.986-2.562 10.768-8.166 13.59-1.877.841-3.761 1.25-5.578 1.25-3.403 0-6.558-1.432-8.946-4.035-1.222-1.329-2.243-2.961-3.016-4.878a14.454 14.454 0 01-.744-4.624c0-.348.013-.7.036-1.054-1.827 1.098-3.563 1.912-5.784 2.13a16.4 16.4 0 01-2.408.182c-5.708 0-10.91-3.096-13.048-8.138-.678-2.061-1.032-4.37-1.034-6.7.002-5.861 2.252-11.93 7.463-14.285 1.781-.904 3.67-1.25 5.568-1.25 3.011.002 6.052.865 8.831 1.782a9.43 9.43 0 01-.271-2.248c.033-6.313 6.125-11.796 11.694-12.533.712-.108 1.4-.16 2.064-.16 1.76 0 3.345.37 4.74 1.031l-.165.359-.165.357c-1.292-.613-2.758-.957-4.41-.957-.622 0-1.273.047-1.956.153-5.196.648-11.055 5.979-11.022 11.75 0 .9.137 1.815.44 2.732l.248.75-.74-.251c-2.949-.996-6.183-1.977-9.288-1.975-1.806 0-3.565.325-5.235 1.172-4.817 2.156-7.016 7.888-7.016 13.574 0 2.249.345 4.478.983 6.42 1.98 4.679 6.883 7.628 12.32 7.628.755.001 1.522-.058 2.314-.177 2.337-.231 4.072-1.138 6.133-2.425l.687-.429-.095.811a15.761 15.761 0 00-.105 1.751 13.7 13.7 0 00.695 4.347c.73 1.815 1.705 3.367 2.857 4.618 2.256 2.45 5.19 3.78 8.375 3.782 1.702 0 3.477-.38 5.246-1.174 5.343-2.721 7.706-7.112 7.719-12.876 0-.808-.048-1.644-.141-2.503l-.073-.654.604.244c3.57 1.452 5.846 5.366 5.848 9.582 0 .625-.05 1.257-.157 1.905-.817 4.105-4.017 7.327-7.233 8.957-4.282 1.97-8.761 2.968-13.183 2.968-4.53.002-9-1.046-13.097-3.152zm758.932-13.953c0-2.358.734-4.777 2.405-7.059l.697.303c-.162.929-.24 1.812-.24 2.649.015 7.75 6.519 11.813 12.942 11.829 6.054-.026 11.805-3.591 11.815-11.173 0-.503-.024-1.025-.076-1.563l-.072-.753.65.372c1.916 1.094 3.853 1.789 5.758 2.135.78.173 1.581.258 2.393.258 6.718.003 13.996-5.819 14.024-14.326-.044-3.16-1.057-6.317-3.067-8.858-2.843-3.288-6.768-4.816-10.753-4.817a16.25 16.25 0 00-9.756 3.295l-.999.762.396-1.201c.318-.97.466-1.977.466-2.978.007-3.68-2.036-7.258-4.913-8.553-1.733-.983-3.811-1.475-5.959-1.526a15.536 15.536 0 00-.377-.005c-4.189-.003-8.563 1.665-11.036 4.453-1.179 1.589-1.892 3.588-1.893 6.037 0 .052 0 .094.002.127l.06 1.29-.763-1.035c-1.457-1.971-1.987-3.908-2.078-5.707a18.011 18.011 0 01-.024-.8c-.008-5.463 2.992-9.007 6.849-11.097 3.861-2.1 8.59-2.832 12.267-2.836a24.604 24.604 0 018.734 1.603c8.917 4.221 20.951 19.492 26.751 27.896 1.933 2.824 3.139 4.782 3.36 5.529l.02.076-.01.08c-.52 3.864-5.844 10.675-13.116 17.111-7.276 6.408-16.492 12.334-24.855 14.022-.816.166-1.648.243-2.484.243-8.231-.026-17.08-7.481-17.118-15.783zm.781 0c-.005 3.856 2.107 7.612 5.227 10.402 3.115 2.79 7.222 4.594 11.11 4.591.788 0 1.571-.073 2.333-.226 8.131-1.634 17.291-7.493 24.495-13.846 7.151-6.273 12.384-13.14 12.845-16.535-.201-.562-1.409-2.587-3.227-5.215a163.83 163.83 0 00-7.493-9.98c-5.914-7.29-13.235-14.972-18.917-17.64a23.914 23.914 0 00-8.436-1.54c-3.575-.001-8.207.728-11.897 2.742-3.691 2.026-6.431 5.25-6.44 10.402 0 .247.009.5.022.757a9.234 9.234 0 001.269 4.277c.183-2.13.907-3.95 2.023-5.447 2.705-3.029 7.252-4.737 11.639-4.743.134 0 .265.003.395.007 2.253.055 4.453.568 6.291 1.608 3.197 1.465 5.339 5.296 5.342 9.258 0 .719-.07 1.441-.219 2.155a17.027 17.027 0 019.334-2.822c4.179-.002 8.337 1.613 11.351 5.1 2.135 2.704 3.2 6.032 3.245 9.36-.051 9-7.667 15.116-14.801 15.118-.865 0-1.723-.089-2.546-.272-1.769-.32-3.57-.937-5.353-1.874.016.31.025.613.025.91.003 4.015-1.558 7.04-3.923 9.022-2.362 1.984-5.5 2.94-8.672 2.941-6.708-.014-13.719-4.341-13.719-12.619 0-.345.012-.695.036-1.052-.93 1.71-1.339 3.449-1.339 5.161zm-315.565 0c0-2.358.733-4.777 2.405-7.059l.697.303a15.42 15.42 0 00-.239 2.649c.014 7.75 6.518 11.813 12.94 11.829 6.055-.026 11.806-3.591 11.817-11.173 0-.503-.026-1.025-.077-1.563l-.072-.753.65.372c1.916 1.094 3.853 1.789 5.758 2.135.78.173 1.581.258 2.393.258 6.719.003 13.996-5.819 14.024-14.326-.044-3.16-1.056-6.317-3.066-8.858-2.844-3.288-6.769-4.816-10.754-4.817a16.25 16.25 0 00-9.756 3.295l-.999.762.396-1.201c.318-.97.466-1.977.466-2.978.007-3.68-2.037-7.258-4.913-8.553-1.733-.983-3.811-1.475-5.959-1.526a15.536 15.536 0 00-.377-.005c-4.189-.003-8.562 1.665-11.037 4.453-1.178 1.589-1.89 3.588-1.892 6.037 0 .052 0 .094.002.127l.058 1.289-.761-1.033c-1.457-1.972-1.987-3.908-2.08-5.707-.014-.268-.02-.537-.022-.8-.008-5.463 2.992-9.007 6.849-11.097 3.861-2.1 8.59-2.832 12.267-2.836a24.604 24.604 0 018.734 1.603c8.917 4.221 20.952 19.492 26.751 27.895 1.933 2.825 3.139 4.783 3.36 5.53l.02.075-.01.08c-.52 3.865-5.844 10.676-13.116 17.112-7.276 6.408-16.492 12.333-24.855 14.022-.815.166-1.648.243-2.484.243-8.231-.027-17.08-7.482-17.118-15.784zm.779 0c-.003 3.856 2.11 7.612 5.227 10.402 3.117 2.79 7.224 4.594 11.112 4.591.788 0 1.569-.073 2.333-.226 8.131-1.634 17.292-7.493 24.495-13.846 7.151-6.273 12.384-13.14 12.845-16.535-.201-.562-1.408-2.587-3.228-5.215a162.649 162.649 0 00-7.494-9.98c-5.913-7.29-13.233-14.972-18.915-17.64a23.907 23.907 0 00-8.436-1.54c-3.575-.001-8.207.728-11.897 2.742-3.692 2.026-6.43 5.25-6.44 10.402 0 .247.01.5.023.757a9.22 9.22 0 001.268 4.277c.183-2.13.907-3.95 2.023-5.447 2.705-3.029 7.252-4.737 11.639-4.743.134 0 .265.003.396.007 2.252.055 4.452.568 6.29 1.608 3.197 1.465 5.337 5.296 5.343 9.258 0 .719-.07 1.441-.22 2.155a17.027 17.027 0 019.334-2.822c4.179-.002 8.337 1.613 11.352 5.1 2.134 2.704 3.199 6.032 3.244 9.36-.051 9-7.666 15.116-14.801 15.118-.865 0-1.723-.089-2.546-.272-1.77-.321-3.571-.937-5.354-1.874.017.309.024.613.026.91.003 4.015-1.557 7.04-3.922 9.022-2.363 1.984-5.501 2.94-8.673 2.941-6.708-.014-13.718-4.341-13.721-12.619 0-.344.013-.694.038-1.051-.93 1.709-1.34 3.449-1.341 5.16zm-315.172 0c-.002-2.358.733-4.776 2.403-7.059l.697.303a15.515 15.515 0 00-.238 2.649c.014 7.75 6.519 11.813 12.941 11.829 6.054-.026 11.805-3.591 11.816-11.173 0-.503-.026-1.025-.077-1.563l-.073-.753.65.372c1.917 1.094 3.854 1.789 5.759 2.135.779.173 1.581.258 2.393.258 6.72.003 13.995-5.819 14.023-14.326-.043-3.16-1.056-6.317-3.064-8.858-2.844-3.288-6.77-4.816-10.754-4.817-3.45 0-6.935 1.15-9.757 3.295l-.997.76.393-1.199c.32-.972.468-1.978.468-2.978.007-3.682-2.036-7.258-4.913-8.553-1.732-.983-3.813-1.475-5.961-1.526a15.186 15.186 0 00-.375-.005c-4.188-.003-8.562 1.665-11.038 4.453-1.177 1.589-1.89 3.586-1.891 6.033l.001.134.049 1.267-.75-1.015c-1.458-1.971-1.989-3.908-2.08-5.707-.014-.272-.02-.538-.02-.802-.009-5.463 2.989-9.005 6.848-11.095 3.861-2.1 8.591-2.833 12.265-2.836a24.624 24.624 0 018.735 1.603c8.915 4.221 20.949 19.492 26.749 27.896 1.935 2.824 3.14 4.782 3.359 5.529l.022.076-.009.08c-.521 3.864-5.846 10.675-13.117 17.111-7.277 6.408-16.493 12.334-24.856 14.022-.815.166-1.646.243-2.482.243-8.231-.026-17.081-7.481-17.119-15.783zm.78 0c-.004 3.856 2.107 7.612 5.226 10.402 3.116 2.79 7.224 4.594 11.112 4.591.788 0 1.569-.073 2.331-.226 8.133-1.634 17.292-7.493 24.496-13.846 7.15-6.273 12.383-13.141 12.844-16.535-.199-.563-1.408-2.587-3.225-5.215a163.12 163.12 0 00-7.495-9.98c-5.913-7.29-13.233-14.972-18.917-17.64a23.887 23.887 0 00-8.434-1.54c-3.573-.001-8.206.727-11.897 2.742-3.691 2.026-6.429 5.25-6.437 10.4 0 .25.007.502.018.76a9.246 9.246 0 001.269 4.277c.183-2.13.91-3.95 2.024-5.447 2.703-3.03 7.252-4.738 11.639-4.743.133 0 .265.003.394.007 2.254.054 4.454.568 6.292 1.608 3.197 1.463 5.337 5.296 5.343 9.258 0 .718-.071 1.44-.22 2.155a17.027 17.027 0 019.333-2.822c4.179-.002 8.337 1.613 11.351 5.1 2.137 2.704 3.2 6.032 3.247 9.36-.053 9-7.668 15.115-14.803 15.118-.865 0-1.722-.089-2.544-.272-1.77-.321-3.571-.937-5.355-1.874.017.309.026.612.026.91.003 4.015-1.557 7.039-3.922 9.022-2.363 1.984-5.501 2.94-8.673 2.941-6.708-.014-13.718-4.34-13.721-12.62 0-.344.013-.694.038-1.052-.931 1.71-1.34 3.449-1.34 5.161zm108.026.776c-2.199-2.508-11.24-12.99-14.359-16.005l-.357-.347.418-.271c1.234-.78 11.508-11.254 14.437-14.551l.276-.31.289.296c4.594 4.678 9.156 10.707 13.661 15.14l.286.28-.286.285c-4.67 4.6-8.699 9.867-13.786 15.486l-.292.322-.287-.325zm.294-.852c4.825-5.355 8.733-10.418 13.242-14.913-4.372-4.366-8.743-10.087-13.097-14.573-3.095 3.413-11.65 12.173-13.933 14.083 3.292 3.289 11.269 12.52 13.788 15.403zm314.47 1.131l-.144-.019-.072-.082a.22.22 0 01-.042-.049c-1.991-2.264-11.298-13.064-14.471-16.134l-.359-.347.418-.271c1.264-.8 11.971-11.728 14.624-14.76l.272-.313.293.296c4.661 4.704 9.293 10.853 13.864 15.353l.285.28-.285.284c-4.738 4.668-8.815 10.026-14.011 15.738l-.23-.214-.111.008-.031.23zm.118-.91c4.918-5.438 8.866-10.578 13.437-15.135-4.438-4.432-8.877-10.268-13.296-14.783-2.91 3.24-11.791 12.341-14.124 14.294 3.382 3.378 11.704 13.021 13.983 15.624zm157.857-22.748c-10.661-11.322-26.231-27.766-27.604-29.677-4.642-5.232-9.044-13.591-9.054-21.244-.011-5.096 2.004-9.904 7.221-13.062l.024-.016.032-.012c1.746-.707 3.666-1.075 5.574-1.135.449-.054.897-.08 1.35-.08 4.914.008 9.801 3.017 12.729 6.712l-.477.598c-1.853-.938-3.771-1.372-5.652-1.372-4.258-.002-8.34 2.23-10.978 5.949-.937 1.902-1.579 4.088-1.577 6.37 0 1.416.244 2.87.815 4.316 2.256 5.124 6.698 8.88 12.619 8.882 2.118 0 4.435-.482 6.925-1.57l.447.623c-.948 1.121-2.291 1.722-2.331 6.359v.212l-.002.026c-.01.103-.016.213-.016.329-.023 2.47 2.542 7.653 5.13 12.087a150.609 150.609 0 004.843 7.76 109.03 109.03 0 004.32-7.257c2.336-4.298 4.683-9.507 4.783-12.877.002-.08.002-.16.002-.242.005-2.57-1.319-4.988-2.049-6.883l-.498-1.302 1.098.846c2.695 2.09 5.271 2.869 7.642 2.87 6.525.038 11.686-6.095 12.529-7.774 1.055-2.06 1.446-3.987 1.446-5.72.01-3.878-2.007-6.815-2.992-7.74-2.878-2.728-7.35-4.037-11.725-4.034-2.064-.001-4.104.29-5.936.847l-.357-.683c3.852-3.178 10.787-6.872 16.018-6.888.695 0 1.36.066 1.99.214 1.679.393 4.154.869 5.772 1.59 5.487 2.438 7.608 6.2 7.592 10.282-.04 10.821-14.225 23.944-14.9 24.75-.495.682-13.936 16.381-24.181 27.937l-.282.317-.29-.308zm-35.879-50.921c-.009 7.343 4.313 15.615 8.88 20.75 1.266 1.773 16.641 18.037 27.273 29.316 10.207-11.519 23.535-27.094 23.844-27.547.114-.152.326-.345.764-.79a95.6 95.6 0 001.71-1.762 79.411 79.411 0 005.057-5.874c3.655-4.707 7.236-10.704 7.223-15.868-.016-3.796-1.842-7.174-7.128-9.561-1.471-.663-3.937-1.15-5.632-1.544a7.955 7.955 0 00-1.813-.193c-4.29-.013-10.157 2.788-14.037 5.564a22.122 22.122 0 014.311-.417c4.523.001 9.169 1.332 12.258 4.246 1.138 1.086 3.229 4.15 3.237 8.316.002 1.853-.421 3.917-1.533 6.083-1.001 1.906-6.19 8.163-13.222 8.2-2.205.001-4.574-.64-6.997-2.231.707 1.648 1.58 3.68 1.584 5.91l-.003.267c-.273 7.292-9.549 20.997-9.555 21.036l-.322.477-.32-.474c-.007-.057-10.378-15.101-10.435-20.776a3.295 3.295 0 01.017-.39l-.001-.178c-.026-3.09.684-4.662 1.418-5.646-1.999.7-3.899 1.023-5.679 1.023-6.273.001-10.993-4.013-13.337-9.365a12.479 12.479 0 01-.879-4.623c.002-2.442.688-4.75 1.672-6.743l.014-.028.017-.025c2.77-3.929 7.09-6.311 11.633-6.311 1.456 0 2.935.246 4.387.762-2.838-2.92-6.97-5.13-10.986-5.123-.422 0-.842.024-1.292.076-1.851.06-3.673.411-5.316 1.07-4.952 3.035-6.802 7.484-6.812 12.373zM445.679 84.528c-10.661-11.322-26.231-27.766-27.606-29.677-4.64-5.232-9.042-13.593-9.053-21.244-.01-5.096 2.006-9.904 7.22-13.062l.025-.016.031-.012c1.747-.707 3.668-1.075 5.575-1.135.45-.054.9-.08 1.351-.08 4.916.008 9.803 3.017 12.729 6.712l-.478.598c-1.855-.938-3.772-1.372-5.652-1.372-4.26-.002-8.345 2.234-10.983 5.956-.933 1.9-1.574 4.083-1.574 6.362 0 1.416.246 2.87.817 4.316 2.256 5.124 6.698 8.88 12.619 8.882 2.12 0 4.435-.482 6.923-1.57l.447.623c-.945 1.122-2.288 1.723-2.329 6.36l.001.181v.029l-.003.027a3.41 3.41 0 00-.015.33c-.025 2.469 2.542 7.652 5.128 12.086a151.526 151.526 0 004.843 7.76 108.95 108.95 0 004.319-7.257c2.335-4.298 4.682-9.507 4.782-12.878.003-.08.003-.16.003-.242.006-2.569-1.319-4.988-2.049-6.883l-.497-1.302 1.097.846c2.696 2.09 5.272 2.87 7.643 2.87 6.523.039 11.687-6.095 12.53-7.774 1.055-2.059 1.444-3.987 1.444-5.72.01-3.878-2.006-6.814-2.992-7.74-2.878-2.727-7.35-4.037-11.725-4.033-2.064-.002-4.105.29-5.935.846l-.358-.683c3.852-3.178 10.787-6.872 16.017-6.888a8.75 8.75 0 011.991.214c1.679.394 4.155.87 5.772 1.59 5.489 2.438 7.608 6.2 7.592 10.283-.041 10.82-14.224 23.944-14.899 24.75-.495.682-13.939 16.38-24.181 27.936l-.283.317-.287-.306zM409.8 33.607c-.009 7.344 4.311 15.615 8.879 20.75 1.266 1.773 16.645 18.038 27.272 29.318 10.207-11.52 23.534-27.095 23.845-27.55.114-.15.327-.344.763-.788a91.473 91.473 0 001.712-1.763 79.667 79.667 0 005.056-5.874c3.655-4.707 7.236-10.704 7.224-15.868-.017-3.796-1.843-7.174-7.129-9.561-1.473-.663-3.937-1.15-5.633-1.544a7.943 7.943 0 00-1.813-.193c-4.289-.013-10.154 2.788-14.035 5.564a22.122 22.122 0 014.311-.417c4.523.001 9.168 1.332 12.256 4.246 1.141 1.086 3.23 4.15 3.239 8.316.002 1.853-.421 3.917-1.533 6.083-1.001 1.906-6.19 8.163-13.221 8.2-2.206.001-4.576-.639-6.997-2.23.706 1.648 1.578 3.68 1.582 5.91l-.003.267c-.272 7.292-9.549 20.997-9.554 21.036l-.321.477-.322-.474c-.007-.057-10.378-15.102-10.434-20.777 0-.134.006-.265.018-.392l-.001-.176c-.026-3.089.684-4.661 1.418-5.645-1.999.699-3.898 1.022-5.68 1.022-6.272.002-10.993-4.012-13.336-9.365a12.478 12.478 0 01-.879-4.622c.002-2.442.687-4.75 1.672-6.743l.014-.028.018-.025c2.77-3.929 7.092-6.312 11.633-6.312 1.457 0 2.935.246 4.388.764-2.837-2.92-6.97-5.132-10.987-5.125-.422 0-.843.025-1.292.077-1.851.06-3.673.41-5.316 1.07-4.954 3.034-6.804 7.483-6.814 12.372zM131.284 84.528c-10.662-11.322-26.229-27.766-27.604-29.677-4.642-5.232-9.044-13.593-9.055-21.244-.008-5.096 2.007-9.904 7.221-13.062l.024-.016.033-.012c1.746-.707 3.666-1.075 5.574-1.135.449-.054.9-.08 1.35-.08 4.915.008 9.803 3.017 12.73 6.712l-.479.598c-1.853-.938-3.769-1.372-5.651-1.372-4.261-.002-8.345 2.234-10.982 5.956-.935 1.9-1.574 4.083-1.574 6.362 0 1.416.244 2.87.815 4.316 2.258 5.124 6.698 8.88 12.621 8.882 2.118 0 4.435-.482 6.923-1.57l.447.623c-.948 1.122-2.29 1.723-2.331 6.36 0 .065 0 .126.002.181v.029l-.002.027a2.854 2.854 0 00-.017.33c-.024 2.469 2.543 7.652 5.129 12.086a151.822 151.822 0 004.844 7.76c.71-1.09 2.505-3.906 4.319-7.256 2.336-4.298 4.682-9.507 4.783-12.88.001-.08.003-.16.003-.242.003-2.569-1.32-4.986-2.051-6.88l-.495-1.305 1.096.848c2.697 2.09 5.273 2.868 7.644 2.87 6.524.038 11.688-6.096 12.528-7.775 1.056-2.059 1.447-3.987 1.447-5.718.008-3.88-2.007-6.816-2.992-7.742-2.878-2.727-7.35-4.037-11.724-4.033-2.065-.002-4.104.29-5.936.846l-.359-.683c3.853-3.178 10.787-6.872 16.019-6.888.695 0 1.361.067 1.989.214 1.679.394 4.156.87 5.772 1.59 5.49 2.438 7.611 6.2 7.594 10.283-.04 10.82-14.221 23.942-14.902 24.75-.491.68-13.935 16.38-24.181 27.936l-.281.317-.291-.306zm-35.88-50.921c-.008 7.344 4.314 15.615 8.88 20.75 1.266 1.773 16.644 18.037 27.273 29.316 10.209-11.519 23.536-27.094 23.846-27.547.112-.15.327-.345.763-.79a94.602 94.602 0 001.712-1.762 79.877 79.877 0 005.058-5.874c3.654-4.707 7.234-10.704 7.223-15.868-.016-3.796-1.843-7.174-7.13-9.561-1.472-.663-3.938-1.15-5.634-1.544a7.913 7.913 0 00-1.811-.193c-4.289-.013-10.155 2.788-14.036 5.564a22.249 22.249 0 014.312-.42c4.522.003 9.169 1.334 12.257 4.249 1.14 1.086 3.23 4.15 3.239 8.317 0 1.851-.421 3.915-1.534 6.082-1 1.905-6.189 8.163-13.22 8.199-2.206.001-4.576-.64-6.998-2.23.706 1.647 1.578 3.678 1.582 5.909 0 .086 0 .175-.003.268-.27 7.292-9.549 20.997-9.553 21.036l-.321.477-.323-.474c-.007-.057-10.378-15.101-10.435-20.776 0-.13.006-.258.018-.382v-.187c-.026-3.09.684-4.661 1.418-5.645-1.998.7-3.899 1.023-5.678 1.023-6.272.002-10.995-4.012-13.339-9.365a12.474 12.474 0 01-.877-4.622c0-2.442.686-4.75 1.67-6.743l.014-.028.018-.025c2.771-3.929 7.092-6.312 11.633-6.312 1.457 0 2.936.246 4.387.763-2.837-2.92-6.97-5.131-10.986-5.124-.422 0-.842.025-1.292.077-1.851.06-3.673.41-5.316 1.07-4.957 3.034-6.806 7.483-6.817 12.372z" fill="#A64A4A"/></g></svg>