<svg width="31" height="31" viewBox="0 0 31 31" fill="none" xmlns="http://www.w3.org/2000/svg"><path fill-rule="evenodd" clip-rule="evenodd" d="M15.017.339c-.074.105-.092.246-.065.523.027.274.012.398-.054.45-.05.039-.437.204-.86.366-.934.359-1.222.6-1.35 1.134-.084.348-.08.37.303 1.541l.388 1.189-.417.62c-.238.352-.452.605-.498.586a14.195 14.195 0 00-.567-.19c-.358-.113-.487-.185-.487-.271 0-.065.075-.472.167-.906.092-.434.168-.901.168-1.037 0-.378-.224-.588-.85-.796l-.53-.176-.033-.49c-.035-.514-.133-.673-.36-.586-.089.034-.11.141-.11.542v.5l-.552.184c-.577.191-.828.374-.898.654-.024.092.062.685.192 1.33L8.84 6.67l-.225.25c-.124.136-.273.34-.331.452-.13.252-.502 1.755-.46 1.863.067.177.25.13 1.104-.284.799-.387.936-.432 1.3-.432 1.079.002 1.99.955 1.99 2.082 0 .22-.079.77-.175 1.221l-.173.822-.619.875c-.817 1.156-1.144 1.337-1.803 1.002-.432-.22-.556-.75-.355-1.52.134-.517.078-.854-.196-1.193C8.614 11.46.582 4.877.396 4.84c-.093-.018-.17.017-.212.096-.088.163.973 2.94 1.39 3.639.417.701 1.088 1.463 1.878 2.131.38.322.683.591.673.6-.01.008-.699-.073-1.532-.18-1.637-.209-1.802-.213-1.904-.05-.089.141.201.565.773 1.127.742.731 1.42 1.117 2.9 1.65.287.104.512.2.498.213-.013.014-.816.113-1.784.221-.968.109-1.79.216-1.828.239-.037.023-.068.11-.068.193 0 .122.157.242.825.63 1.299.755 2.294 1.145 3.57 1.396.326.064.568.138.538.163-.03.025-.22.162-.424.306-.975.686-1.976 1.777-1.937 2.112.019.167.022.168.692.159a5.68 5.68 0 002.314-.534 9.94 9.94 0 01.52-.23c.012 0 .03.4.04.89.026 1.17.037 1.172 1.004.21l.731-.727.493.488c.307.304.528.474.589.45.053-.02.215-.22.36-.445.336-.518.605-.786.946-.94.443-.201.461-.187.425.327-.044.598-.221.93-.856 1.6-.74.782-1.149 1.69-1.149 2.557 0 .374.096.491.4.491.076 0 .139.015.139.033 0 .018-.112.258-.249.533l-.248.5-.452.11L9 24.91l-.266-.29c-.146-.16-.493-.547-.772-.86l-.506-.568.14-.269c.17-.324.18-.853.023-1.156-.21-.403-.712-.696-1.19-.693-.259.002-.693.225-.888.457-.78.925.087 2.331 1.246 2.02l.282-.076.269.302.69.773.423.471-.283.094c-.355.118-.469.275-.313.43.104.103.143.104.538.002l.425-.11.305.342c.237.266.341.337.47.318.24-.034.241-.221.003-.51-.233-.282-.25-.261.332-.431.296-.087.313-.107.672-.808l.37-.719.37-.02c.367-.019.37-.021.619-.396.223-.337.955-1.066 1.07-1.066.044 0 .399.504.399.567 0 .018-.347.647-.77 1.396-.86 1.523-1.129 2.21-1.245 3.19-.084.702-.032.912.219.876.117-.017.155-.081.191-.323l.125-.84c.104-.689.313-1.237.807-2.114.567-1.006.544-.981.798-.876.116.047.211.101.211.12 0 .017-.087.293-.194.612-.279.83-.367 1.478-.327 2.405.051 1.222.184 1.64.482 1.525.158-.06.173-.2.071-.679-.128-.601-.125-1.646.007-2.28.126-.612.451-1.533.538-1.528.035.002.176.165.315.364l.252.36v2.534c0 1.394.019 2.582.041 2.64.045.116.33.146.395.041.023-.036.042-1.196.043-2.58l.001-2.514.309-.481.309-.482.163.387c.415.983.587 2.334.42 3.319-.118.7-.116.811.017.896.298.19.518-.56.518-1.769 0-.822-.11-1.509-.357-2.22a7.35 7.35 0 01-.176-.548c0-.021.098-.072.218-.114.261-.091.232-.124.801.887.587 1.04.705 1.41.913 2.868.044.308.077.372.2.39.25.035.303-.173.22-.875-.12-1-.384-1.672-1.255-3.19l-.78-1.36.18-.268c.097-.148.205-.27.238-.27.156 0 .762.576 1.022.97l.29.44h.749l.368.752.369.752.774.192.773.192.18.322c.336.603 1.154.965 1.836.812.425-.095.627-.207.925-.515.911-.941.52-2.447-.746-2.88-.242-.083-.222-.114-.255-.564-.035-.473-.106-.592-.243-.592-.138 0-.25.222-.25.592v.457l-.35.116c-.62.206-1.198.952-1.198 1.551 0 .186-.031.188-.639.035l-.471-.12-.258-.488c-.143-.27-.242-.506-.223-.526.02-.02.137-.056.259-.08.215-.044.223-.058.243-.41.05-.868-.39-1.838-1.257-2.768-.425-.456-.562-.655-.644-.932-.095-.318-.147-1-.077-1 .106 0 .707.305.837.425.088.08.308.365.49.633.193.283.379.486.445.486.063 0 .32-.203.57-.451l.457-.452.696.693c.555.551.73.688.858.67.16-.023.161-.033.18-.886.017-.781.03-.86.135-.827.063.02.373.142.687.272.742.304 1.512.456 2.19.43.496-.018.537-.03.557-.17.043-.303-1.037-1.475-1.963-2.13l-.461-.325.73-.15c1.26-.259 2.226-.65 3.622-1.47.523-.307.641-.406.641-.536 0-.087-.041-.174-.093-.194-.05-.02-.846-.115-1.766-.213-.92-.099-1.719-.194-1.774-.212-.056-.018.247-.162.673-.32 1.055-.392 1.64-.697 2.236-1.17.494-.392 1.076-1.032 1.216-1.338.055-.119.047-.178-.031-.256-.091-.09-.277-.08-1.738.105-.899.114-1.644.198-1.656.186-.011-.011.302-.292.695-.623.799-.67 1.448-1.428 1.9-2.217.416-.725 1.42-3.38 1.338-3.537-.09-.172-.291-.144-.543.074-.122.106-1.962 1.619-4.09 3.362s-3.95 3.261-4.049 3.373c-.299.34-.352.706-.195 1.361.175.736.076 1.121-.354 1.383-.263.16-.826.176-1.038.028-.08-.057-.44-.53-.8-1.051l-.652-.949-.162-.778c-.272-1.309-.144-2.028.47-2.641a1.943 1.943 0 011.366-.587c.365 0 .502.045 1.3.432.864.418 1.037.461 1.109.276.042-.11-.333-1.602-.469-1.864a2.678 2.678 0 00-.325-.443l-.225-.248.238-1.15c.148-.713.22-1.218.192-1.33-.074-.295-.316-.476-.89-.667l-.54-.179.001-.42c.002-.508-.046-.65-.22-.65-.19 0-.237.108-.275.63l-.034.462-.505.166c-.906.298-.97.458-.713 1.78.096.496.175.944.174.996 0 .058-.198.157-.521.259a9.04 9.04 0 01-.567.168c-.048.003-.647-.825-.788-1.09-.07-.131-.028-.314.298-1.304.428-1.298.44-1.52.107-1.978-.218-.3-.271-.33-1.253-.721l-.74-.295-.034-.513c-.024-.354-.065-.532-.135-.576-.146-.092-.183-.082-.295.079zm1.017 1.74c.473.189.913.39.978.448a.916.916 0 01.192.35c.066.222.038.348-.292 1.316l-.365 1.07H13.81l-.359-1.07c-.315-.94-.35-1.1-.292-1.315a.867.867 0 01.184-.351c.085-.076 1.64-.748 1.816-.785.01-.002.403.15.875.338zm-5.31 1.904c.266.09.509.18.54.2.033.02-.037.512-.153 1.095l-.212 1.059-.805.036c-.443.02-.81.034-.818.032-.02-.008-.424-2.068-.424-2.163 0-.09.942-.414 1.216-.42.095-.001.39.071.656.161zm10.237.007c.414.13.542.2.542.292 0 .128-.393 2.106-.42 2.12a19.74 19.74 0 01-.822-.029l-.805-.036-.212-1.06c-.137-.687-.188-1.073-.143-1.1.131-.082 1.024-.351 1.17-.354.082-.002.392.073.69.167zm-3.976 2.397l.414.621-.152.096c-.346.22-1.185 1.139-1.412 1.55a6.76 6.76 0 00-.433 1.055c-.105.341-.206.62-.225.62-.018.001-.135-.316-.258-.704-.33-1.032-.936-1.88-1.777-2.484l-.185-.133.413-.62.413-.622h2.789l.413.621zM3.54 7.95l3.175 2.611c2.155 1.772 2.077 1.666 1.865 2.548-.149.62-.126.882.115 1.302.304.53.96.81 1.587.677.42-.09.633-.276 1.163-1.016l.435-.606v2.169l-.412.303a3.11 3.11 0 01-.785.41c-.532.154-1.24.1-1.715-.132-.439-.214-.564-.223-.622-.04-.108.34.59.675 1.498.72.702.034 1.105-.062 1.65-.394.177-.108.335-.196.353-.196.018 0 .033.39.033.868v.868l-.358.104a2.238 2.238 0 00-1.1.747c-.469.604-.363.59-.844.115-.235-.23-.472-.42-.528-.42-.055 0-.357.258-.67.573l-.571.573-.034-.784c-.028-.648-.054-.796-.15-.857-.09-.056-.16-.046-.303.048-.318.207-1.11.564-1.504.678-.37.107-1.426.309-1.457.279-.01-.009.24-.274.554-.589a7.074 7.074 0 011.901-1.39c.423-.212.528-.377.337-.527-.047-.036-.528-.145-1.07-.242a15.552 15.552 0 01-1.614-.38c-.621-.2-2.28-.973-2.28-1.062 0-.025.826-.134 1.834-.241 1.01-.108 1.91-.215 2.002-.24.188-.048.26-.274.121-.384-.048-.038-.718-.304-1.489-.592-.771-.288-1.581-.631-1.8-.764-.432-.261-1.503-1.142-1.451-1.193.018-.018.776.063 1.685.18 1.844.235 2.083.238 2.113.03.015-.107-.19-.313-.88-.885-1.737-1.44-2.339-2.23-2.983-3.913-.2-.52-.363-.975-.363-1.01 0-.034.283.172.628.458C1.95 6.64 2.82 7.358 3.54 7.95zm25.762-1.764c-.078.194-.229.594-.337.89-.581 1.59-1.277 2.413-3.716 4.4-.091.075-.115.149-.082.252.062.196.186.193 2.09-.053.85-.11 1.59-.2 1.643-.201.236-.003-.885.94-1.542 1.296-.241.13-1.028.456-1.75.722-.722.267-1.353.522-1.403.568-.149.135-.033.348.21.39.12.02.96.115 1.866.211.907.097 1.724.192 1.817.212.14.03.039.101-.63.437-1.199.601-2.001.847-3.737 1.146-.81.139-.813.351-.011.755.727.366 1.652 1.095 2.093 1.65l.196.247-.655-.12c-.934-.174-1.457-.356-2.09-.729-.195-.114-.397-.207-.45-.207-.172 0-.234.25-.234.947v.688l-.602-.587c-.689-.673-.634-.669-1.213-.08-.202.206-.387.374-.41.374-.022 0-.154-.164-.293-.364-.295-.428-.818-.806-1.268-.916l-.32-.078v-.865c0-.476.02-.865.043-.865.023 0 .197.088.387.195.457.26.99.41 1.453.41.78 0 1.716-.387 1.672-.692-.031-.214-.208-.215-.644-.002-.337.164-.465.189-.994.19-.55 0-.647-.02-1.043-.218a4.21 4.21 0 01-.656-.403l-.221-.185.019-1.066.018-1.066.452.64c.249.352.537.7.64.774.694.493 1.714.234 2.11-.534.192-.375.222-.713.102-1.175-.15-.58-.138-.892.045-1.106.083-.097 1.695-1.439 3.583-2.983a520.24 520.24 0 003.684-3.029c.14-.122.267-.222.285-.222.018 0-.03.158-.107.352zm-17.88.728c1.344.275 2.62 1.437 3.017 2.746.124.408.49 2.688.439 2.738-.028.028-2.402.028-2.43 0-.01-.01.041-.307.115-.657.314-1.497.028-2.52-.894-3.195-.526-.386-.903-.519-1.458-.516-.442.003-.553.034-1.133.313-.353.17-.65.31-.659.31-.042 0 .222-.929.315-1.108a1.46 1.46 0 01.622-.593c.245-.128 1.513-.152 2.066-.038zm9.596.055c.44.226.625.484.793 1.11.084.316.14.574.123.574a7.41 7.41 0 01-.558-.269c-.643-.326-1.092-.423-1.56-.334-.536.101-.909.298-1.335.703-.763.726-.962 1.57-.687 2.915.078.383.142.707.142.72 0 .014-.559.024-1.243.024H15.45l.033-.184c.018-.102.106-.687.196-1.301.178-1.21.33-1.681.744-2.304.511-.768 1.512-1.47 2.403-1.685.195-.047.712-.089 1.149-.092.656-.005.836.017 1.043.123zm-3.014 9.109c0 2.753-.014 3.156-.11 3.359-.06.127-.174.264-.252.306-.078.042-.66.248-1.295.458l-1.153.381-1.176-.386c-.647-.212-1.24-.426-1.32-.475-.34-.212-.347-.284-.347-3.643V12.95h5.653v3.128zm-4.088 4.59l1.261.416 1.262-.416c.694-.229 1.375-.488 1.512-.576l.25-.16.077.143c.043.08.302.384.577.677.275.294.58.66.678.813.195.308.49 1.163.49 1.423 0 .163-.01.166-.556.164l-.555-.002-.225-.331c-.411-.605-1.277-1.268-1.54-1.18-.065.023-.528.659-1.027 1.414-.5.755-.924 1.373-.943 1.374-.018.001-.44-.603-.937-1.342-.497-.74-.946-1.38-.998-1.423-.208-.172-1.13.503-1.57 1.15l-.23.338-.555.002c-.637.002-.635.006-.457-.66.16-.6.434-1.053 1.018-1.683.306-.33.59-.662.63-.738l.075-.139.25.16c.138.088.819.348 1.513.576zm-6.895 1.14c.622.62-.06 1.616-.844 1.233-.357-.173-.534-.545-.428-.897.109-.361.352-.534.751-.534.268 0 .357.034.521.198zm16.069 2.8c-.048.123-1.05.129-1.046.006.004-.176.386-.63.707-.84l.333-.22.02.482c.011.265.005.522-.014.571zm.923-.802c.225.14.653.689.653.838 0 .03-.242.054-.538.054h-.539v-.575c0-.441.02-.563.084-.525.047.027.2.121.34.208zm.58 1.513c-.169.325-.418.594-.669.722-.488.249-1.16.125-1.517-.28-.15-.17-.366-.499-.366-.558 0-.02.592-.035 1.315-.035h1.314l-.078.15z" fill="#fff"/><path d="M11.422 6.914c1.344.275 2.62 1.437 3.017 2.746.124.408.49 2.688.439 2.738-.028.028-2.402.028-2.43 0-.01-.01.041-.307.115-.657.314-1.497.028-2.52-.894-3.195-.526-.386-.903-.519-1.458-.516-.442.003-.553.034-1.133.313-.353.17-.65.31-.659.31-.042 0 .222-.929.315-1.108a1.46 1.46 0 01.622-.593c.245-.128 1.513-.152 2.066-.038zm-.698-2.931c.266.09.509.18.54.2.033.02-.037.512-.153 1.095l-.212 1.059-.805.036c-.443.02-.81.034-.818.032-.02-.008-.424-2.068-.424-2.163 0-.09.942-.414 1.216-.42.095-.001.39.071.656.161zm5.31-1.903c.473.188.913.389.978.447a.916.916 0 01.192.35c.066.222.038.348-.292 1.316l-.365 1.07H13.81l-.359-1.07c-.315-.94-.35-1.1-.292-1.315a.867.867 0 01.184-.351c.085-.076 1.64-.748 1.816-.785.01-.002.403.15.875.338zm.951 4.307l.414.621-.152.096c-.346.22-1.185 1.139-1.412 1.55a6.76 6.76 0 00-.433 1.055c-.105.341-.206.62-.225.62-.018.001-.135-.316-.258-.704-.33-1.032-.936-1.88-1.777-2.484l-.185-.133.413-.62.413-.622h2.789l.413.621zm3.976-2.397c.414.13.542.2.542.292 0 .128-.393 2.106-.42 2.12a19.74 19.74 0 01-.822-.029l-.805-.036-.212-1.06c-.137-.687-.188-1.073-.143-1.1.131-.082 1.024-.351 1.17-.354.082-.002.392.073.69.167zm.057 2.979c.44.226.625.484.793 1.11.084.316.14.574.123.574a7.41 7.41 0 01-.558-.269c-.643-.326-1.092-.423-1.56-.334-.536.101-.909.298-1.335.703-.763.726-.962 1.57-.687 2.915.078.383.142.707.142.72 0 .014-.559.024-1.243.024H15.45l.033-.184c.018-.102.106-.687.196-1.301.178-1.21.33-1.681.744-2.304.511-.768 1.512-1.47 2.403-1.685.195-.047.712-.089 1.149-.092.656-.005.836.017 1.043.123zm8.284-.783c-.078.194-.229.594-.337.89-.581 1.59-1.277 2.413-3.716 4.4-.091.075-.115.149-.082.252.062.196.186.193 2.09-.053.85-.11 1.59-.2 1.643-.201.236-.003-.885.94-1.542 1.296-.241.13-1.028.456-1.75.722-.722.267-1.353.522-1.403.568-.149.135-.033.348.21.39.12.02.96.115 1.866.211.907.097 1.724.192 1.817.212.14.03.039.101-.63.437-1.199.601-2.001.847-3.737 1.146-.81.139-.813.351-.011.755.727.366 1.652 1.095 2.093 1.65l.196.247-.655-.12c-.934-.174-1.457-.356-2.09-.729-.195-.114-.397-.207-.45-.207-.172 0-.234.25-.234.947v.688l-.602-.587c-.689-.673-.634-.669-1.213-.08-.202.206-.387.374-.41.374-.022 0-.154-.164-.293-.364-.295-.428-.818-.806-1.268-.916l-.32-.078v-.865c0-.476.02-.865.043-.865.023 0 .197.088.387.195.457.26.99.41 1.453.41.78 0 1.716-.387 1.672-.692-.031-.214-.208-.215-.644-.002-.337.164-.465.189-.994.19-.55 0-.647-.02-1.043-.218a4.21 4.21 0 01-.656-.403l-.221-.185.019-1.066.018-1.066.452.64c.249.352.537.7.64.774.694.493 1.714.234 2.11-.534.192-.375.222-.713.102-1.175-.15-.58-.138-.892.045-1.106.083-.097 1.695-1.439 3.583-2.983a520.24 520.24 0 003.684-3.029c.14-.122.267-.222.285-.222.018 0-.03.158-.107.352zm-11.298 9.892c0 2.753-.014 3.156-.11 3.359-.06.127-.174.264-.252.306-.078.042-.66.248-1.295.458l-1.153.381-1.176-.386c-.647-.212-1.24-.426-1.32-.475-.34-.212-.347-.284-.347-3.643V12.95h5.653v3.128zM3.54 7.95l3.175 2.611c2.155 1.772 2.077 1.666 1.865 2.548-.149.62-.126.882.115 1.302.304.53.96.81 1.587.677.42-.09.633-.276 1.163-1.016l.435-.606v2.169l-.412.303a3.11 3.11 0 01-.785.41c-.532.154-1.24.1-1.715-.132-.439-.214-.564-.223-.622-.04-.108.34.59.675 1.498.72.702.034 1.105-.062 1.65-.394.177-.108.335-.196.353-.196.018 0 .033.39.033.868v.868l-.358.104a2.238 2.238 0 00-1.1.747c-.469.604-.363.59-.844.115-.235-.23-.472-.42-.528-.42-.055 0-.357.258-.67.573l-.571.573-.034-.784c-.028-.648-.054-.796-.15-.857-.09-.056-.16-.046-.303.048-.318.207-1.11.564-1.504.678-.37.107-1.426.309-1.457.279-.01-.009.24-.274.554-.589a7.074 7.074 0 011.901-1.39c.423-.212.528-.377.337-.527-.047-.036-.528-.145-1.07-.242a15.552 15.552 0 01-1.614-.38c-.621-.2-2.28-.973-2.28-1.062 0-.025.826-.134 1.834-.241 1.01-.108 1.91-.215 2.002-.24.188-.048.26-.274.121-.384-.048-.038-.718-.304-1.489-.592-.771-.288-1.581-.631-1.8-.764-.432-.261-1.503-1.142-1.451-1.193.018-.018.776.063 1.685.18 1.844.235 2.083.238 2.113.03.015-.107-.19-.313-.88-.885-1.737-1.44-2.339-2.23-2.983-3.913-.2-.52-.363-.975-.363-1.01 0-.034.283.172.628.458C1.95 6.64 2.82 7.358 3.54 7.95z" fill="#fff"/><path d="M13.916 20.668l1.261.416 1.262-.416c.694-.229 1.375-.488 1.512-.576l.25-.16.077.143c.043.08.302.384.577.677.275.294.58.66.678.813.195.308.49 1.163.49 1.423 0 .163-.01.166-.556.164l-.555-.002-.225-.331c-.411-.605-1.277-1.268-1.54-1.18-.065.023-.528.659-1.027 1.414-.5.755-.924 1.373-.943 1.374-.018.001-.44-.603-.937-1.342-.497-.74-.946-1.38-.998-1.423-.208-.172-1.13.503-1.57 1.15l-.23.338-.555.002c-.637.002-.635.006-.457-.66.16-.6.434-1.053 1.018-1.683.306-.33.59-.662.63-.738l.075-.139.25.16c.138.088.819.348 1.513.576zm-6.895 1.14c.622.62-.06 1.616-.844 1.233-.357-.173-.534-.545-.428-.897.109-.361.352-.534.751-.534.268 0 .357.034.521.198zm17.572 3.511c-.169.325-.418.594-.669.722-.488.249-1.16.125-1.517-.28-.15-.17-.366-.499-.366-.558 0-.02.592-.035 1.315-.035h1.314l-.078.15zm-1.503-.712c-.048.124-1.05.13-1.046.007.004-.176.386-.63.707-.84l.333-.22.02.482c.011.265.005.522-.014.571zm.923-.801c.225.14.653.689.653.838 0 .03-.242.054-.538.054h-.539v-.575c0-.441.02-.563.084-.525.047.027.2.121.34.208z" fill="#fff"/></svg>