<svg width="579" height="423" viewBox="0 0 579 423" fill="none" xmlns="http://www.w3.org/2000/svg"><path fill-rule="evenodd" clip-rule="evenodd" d="M100.735 60.054c-22.554 0-40.838 18.332-40.838 40.946v159.566c0 16.583-13.409 30.027-29.949 30.027S0 277.149 0 260.566V101C0 45.22 45.1 0 100.735 0h6.262c117.334 0 212.451 95.368 212.451 213.01 0 16.583-13.408 30.027-29.948 30.027s-29.948-13.444-29.948-30.027c0-84.475-68.301-152.956-152.555-152.956h-6.262z" fill="#F7F6E4"/><path fill-rule="evenodd" clip-rule="evenodd" d="M478.265 60.054c22.554 0 40.839 18.332 40.839 40.946v291.973c0 16.583 13.408 30.027 29.948 30.027S579 409.556 579 392.973V101C579 45.22 533.899 0 478.265 0 357.473 0 259.552 98.179 259.552 219.288v41.278c0 16.583 13.408 30.027 29.948 30.027s29.948-13.444 29.948-30.027v-41.278c0-87.943 71.105-159.234 158.817-159.234z" fill="#F7F6E4"/></svg>