<svg width="278" height="46" viewBox="0 0 278 46" fill="none" xmlns="http://www.w3.org/2000/svg"><path d="M27.105 8.521c-.45 0-.865.15-1.19.4.017-.097.026-.196.026-.297 0-.995-.849-1.802-1.895-1.802-.94 0-1.72.652-1.87 1.506h-3.152v-1.84c.898-.14 1.584-.883 1.584-1.777 0-.995-.85-1.802-1.896-1.802-.08 0-.158.005-.236.014.258-.307.413-.697.413-1.121 0-.995-.85-1.802-1.896-1.802-1.046 0-1.895.807-1.895 1.802 0 .429.158.822.421 1.132a2.005 2.005 0 00-.313-.025c-1.046 0-1.895.807-1.895 1.802 0 .894.686 1.636 1.584 1.778v1.84h-3.072c-.148-.855-.928-1.507-1.869-1.507-1.046 0-1.895.807-1.895 1.802 0 .076.006.151.015.225a1.949 1.949 0 00-1.179-.392C5.848 8.457 5 9.264 5 10.259s.848 1.802 1.895 1.802c.451 0 .865-.15 1.19-.4a1.71 1.71 0 00-.026.297c0 .995.849 1.802 1.895 1.802.94 0 1.72-.652 1.87-1.506h3.071v10.258c-.898.14-1.584.883-1.584 1.777 0 .995.849 1.802 1.896 1.802.08 0 .158-.005.236-.015a1.74 1.74 0 00-.413 1.122c0 .995.849 1.802 1.896 1.802 1.046 0 1.895-.807 1.895-1.802 0-.429-.158-.822-.421-1.132.102.016.206.025.313.025 1.046 0 1.895-.807 1.895-1.802 0-.894-.686-1.636-1.584-1.777V12.254h3.152c.15.854.93 1.506 1.87 1.506 1.046 0 1.895-.807 1.895-1.802 0-.076-.006-.151-.015-.225a1.95 1.95 0 001.179.392c1.046 0 1.895-.807 1.895-1.802s-.848-1.802-1.895-1.802z" fill="#D07474"/><path d="M4 42V22.546A3.545 3.545 0 017.545 19h.314A9.14 9.14 0 0117 28.14v0" stroke="#fff" stroke-width="8" stroke-linecap="round"/><path d="M30 37V22.546A3.546 3.546 0 0026.454 19v0A9.454 9.454 0 0017 28.454v1.456" stroke="#fff" stroke-width="8" stroke-linecap="round"/><path d="M4 44V24.546A3.545 3.545 0 017.545 21h.314A9.14 9.14 0 0117 30.14v0" stroke="#9B2828" stroke-width="4" stroke-linecap="round"/><path d="M30 40V24.546A3.546 3.546 0 0026.454 21v0A9.454 9.454 0 0017 30.454v2.063" stroke="#9B2828" stroke-width="4" stroke-linecap="round"/><path d="M44.879 21.836h7.617l4.526 8.584 4.285-8.584h7.01v2.344h-2.344v13.476h2.343V40h-9.375v-2.344h2.344V27.087l-4.687 9.397h-1.465l-4.98-9.433v10.605h2.343V40H44.88v-2.344h2.344V24.18H44.88v-2.344zm31.772-.015a11.034 11.034 0 012.505-.278c.874 0 1.707.093 2.498.278a9.172 9.172 0 013.933 1.934c.542.454 1.01.957 1.406 1.509a9.56 9.56 0 011.004 1.75c.278.615.485 1.253.622 1.912a9.815 9.815 0 010 3.992 9.304 9.304 0 01-.622 1.911 9.904 9.904 0 01-1.004 1.75 8.312 8.312 0 01-1.406 1.502 9.163 9.163 0 01-3.933 1.934 10.94 10.94 0 01-2.498.278c-.874 0-1.709-.093-2.505-.278a9.326 9.326 0 01-2.153-.762 9.449 9.449 0 01-1.772-1.172 8.312 8.312 0 01-1.407-1.501 10.25 10.25 0 01-1.01-1.75 9.587 9.587 0 01-.82-3.912c0-.674.068-1.338.204-1.992.137-.66.342-1.297.616-1.912a9.88 9.88 0 011.01-1.75 8.192 8.192 0 011.407-1.51 9.454 9.454 0 011.772-1.171 9.335 9.335 0 012.153-.762zm4.117 2.432a3.523 3.523 0 00-1.612-.366c-.59 0-1.13.122-1.618.366a3.65 3.65 0 00-1.238.996 5.952 5.952 0 00-.857 1.53 9.197 9.197 0 00-.52 1.927c-.108.693-.161 1.43-.161 2.212 0 .977.093 1.887.278 2.732.19.84.464 1.582.82 2.227.357.644.816 1.152 1.377 1.523.567.366 1.206.55 1.92.55.712 0 1.35-.184 1.91-.55a4.224 4.224 0 001.385-1.523c.357-.645.628-1.387.813-2.227.19-.845.286-1.755.286-2.732 0-.781-.056-1.519-.169-2.212a8.905 8.905 0 00-.512-1.926 5.823 5.823 0 00-.865-1.531 3.56 3.56 0 00-1.237-.996zm12.744-2.417h16.992v2.344h-2.344v13.476h2.344V40h-9.375v-2.344h2.344V24.18h-4.102v6.445c0 1.196-.034 2.251-.102 3.164a18.015 18.015 0 01-.345 2.468c-.156.733-.361 1.348-.615 1.846a4.177 4.177 0 01-.937 1.245 3.358 3.358 0 01-1.29.718c-.488.151-1.052.227-1.691.227-.435 0-.86-.046-1.275-.14a4.811 4.811 0 01-1.194-.439 4.222 4.222 0 01-.996-.747 3.3 3.3 0 01-.68-1.076 3.832 3.832 0 01-.25-1.407c0-1.123.271-2.004.813-2.644a2.32 2.32 0 011.824-.871c.65 0 1.201.23 1.655.688.46.454.689 1.006.689 1.656 0 .522-.157.99-.47 1.406-.307.41-.702.688-1.186.835.288.068.645.102 1.07.102.312 0 .586-.107.82-.322.234-.22.447-.584.637-1.091.195-.513.342-1.24.44-2.183.102-.942.153-2.087.153-3.435V24.18h-2.93v-2.344zm18.75 0h9.375v2.344h-2.344v9.39l6.775-11.734h6.702v2.344h-2.344v13.476h2.344V40h-9.375v-2.344h2.343v-9.39L118.963 40h-6.701v-2.344h2.343V24.18h-2.343v-2.344zm22.119 0h16.992v5.86h-2.637v-1.173c0-.239-.022-.485-.066-.74a4.15 4.15 0 00-.19-.754 1.482 1.482 0 00-.366-.608.757.757 0 00-.55-.241h-2.343v13.476h2.343V40h-9.375v-2.344h2.344V24.18h-2.344a.756.756 0 00-.549.241 1.538 1.538 0 00-.373.608c-.083.25-.147.5-.191.755-.039.254-.058.5-.058.74v1.171h-2.637v-5.86zm18.603 0h7.618c1.772 0 3.161.056 4.167.168 1.011.113 1.797.288 2.358.528a4.794 4.794 0 011.561 1.062c.424.425.744.96.959 1.604.22.64.33 1.325.33 2.058 0 .723-.245 1.438-.733 2.146s-1.162 1.338-2.021 1.89c1.001.322 1.757.786 2.27 1.391.518.6.777 1.38.777 2.337 0 1.635-.547 2.888-1.641 3.757-.239.19-.481.351-.725.483a4.074 4.074 0 01-.894.337c-.351.093-.7.166-1.047.22-.347.049-.813.088-1.399.117-.586.03-1.162.049-1.729.059-.561.005-1.306.007-2.233.007h-7.618v-2.344h2.344V24.18h-2.344v-2.344zm7.032 2.344v6.445h1.172c2.343 0 3.515-1.074 3.515-3.223a8.02 8.02 0 00-.073-1.179 3.28 3.28 0 00-.264-.9 1.544 1.544 0 00-.512-.645 2.354 2.354 0 00-.843-.367 5.031 5.031 0 00-1.238-.131h-1.757zm0 8.789v4.687h1.757c1.177 0 2.007-.173 2.491-.52.488-.346.732-.954.732-1.824 0-.595-.122-1.06-.366-1.391-.239-.337-.63-.579-1.172-.725-.542-.152-1.299-.227-2.27-.227h-1.172zm18.296-11.148c.795-.185 1.63-.278 2.504-.278.874 0 1.707.093 2.498.278a9.158 9.158 0 013.933 1.934 8.173 8.173 0 011.406 1.509c.396.547.73 1.13 1.004 1.75a9.09 9.09 0 01.622 1.912 9.8 9.8 0 010 3.992 9.278 9.278 0 01-.622 1.911 9.907 9.907 0 01-1.004 1.75 8.292 8.292 0 01-1.406 1.502 9.149 9.149 0 01-3.933 1.934 10.94 10.94 0 01-2.498.278c-.874 0-1.709-.093-2.504-.278a9.337 9.337 0 01-2.154-.762 9.465 9.465 0 01-1.772-1.172 8.334 8.334 0 01-1.407-1.501 10.26 10.26 0 01-1.01-1.75 9.503 9.503 0 01-.615-1.913 9.801 9.801 0 010-3.991c.136-.66.341-1.297.615-1.912a9.89 9.89 0 011.01-1.75 8.213 8.213 0 011.407-1.51 9.47 9.47 0 011.772-1.171 9.347 9.347 0 012.154-.762zm4.116 2.432a3.527 3.527 0 00-1.612-.366c-.59 0-1.13.122-1.618.366-.484.24-.896.571-1.238.996a5.94 5.94 0 00-.857 1.53 9.203 9.203 0 00-.52 1.927c-.107.693-.161 1.43-.161 2.212 0 .977.093 1.887.278 2.732.191.84.464 1.582.821 2.227.356.644.815 1.152 1.376 1.523.567.366 1.207.55 1.919.55.713 0 1.351-.184 1.912-.55a4.224 4.224 0 001.384-1.523c.357-.645.628-1.387.813-2.227.191-.845.286-1.755.286-2.732 0-.781-.056-1.519-.169-2.212a8.904 8.904 0 00-.512-1.926 5.865 5.865 0 00-.864-1.531 3.564 3.564 0 00-1.238-.996zm18.31-2.71c2.564 0 4.615.684 6.153 2.05.63.557 1.079 1.119 1.347 1.685.274.562.41 1.27.41 2.124 0 .65-.229 1.204-.688 1.663a2.253 2.253 0 01-1.655.681c-.65 0-1.204-.227-1.663-.681a2.278 2.278 0 01-.681-1.663 2.371 2.371 0 01.747-1.714c-.352-.654-.828-1.118-1.428-1.391-.596-.274-1.345-.41-2.249-.41-.591 0-1.14.12-1.648.359a3.96 3.96 0 00-1.311 1.003c-.366.43-.681.938-.945 1.524a8.565 8.565 0 00-.593 1.933 12.35 12.35 0 00-.19 2.212c0 .767.078 1.504.234 2.212.156.708.383 1.352.681 1.933a6.818 6.818 0 001.048 1.524c.4.43.859.764 1.377 1.003.522.24 1.069.36 1.64.36a4.3 4.3 0 002.315-.667c.717-.445 1.311-1.067 1.779-1.868.474-.806.77-1.719.887-2.74l2.343.587a15.57 15.57 0 01-.41 1.596c-.156.489-.351.977-.586 1.465-.234.484-.5.92-.798 1.311a6.7 6.7 0 01-1.055 1.092c-.405.337-.852.62-1.34.85a7.58 7.58 0 01-1.677.526c-.63.128-1.311.191-2.044.191a11 11 0 01-2.505-.278 9.33 9.33 0 01-2.153-.762 9.433 9.433 0 01-1.772-1.172 8.334 8.334 0 01-1.407-1.501 10.26 10.26 0 01-1.01-1.75 9.57 9.57 0 01-.821-3.912c0-.674.069-1.338.205-1.992.137-.66.342-1.297.616-1.912a9.89 9.89 0 011.01-1.75 8.213 8.213 0 011.407-1.51 9.438 9.438 0 011.772-1.171 9.338 9.338 0 012.153-.762 11 11 0 012.505-.278zm12.891.293h16.992v2.344h-2.344v13.476h2.344V40h-9.375v-2.344h2.344V24.18h-4.102v6.445c0 1.196-.034 2.251-.102 3.164a18.023 18.023 0 01-.344 2.468c-.157.733-.362 1.348-.616 1.846a4.176 4.176 0 01-.937 1.245 3.353 3.353 0 01-1.289.718c-.489.151-1.053.227-1.692.227-.435 0-.86-.046-1.275-.14a4.794 4.794 0 01-1.193-.439 4.246 4.246 0 01-.997-.747 3.305 3.305 0 01-.681-1.076 3.832 3.832 0 01-.249-1.407c0-1.123.271-2.004.813-2.644a2.32 2.32 0 011.824-.871c.649 0 1.201.23 1.655.688.459.454.689 1.006.689 1.656 0 .522-.156.99-.469 1.406-.308.41-.703.688-1.187.835.289.068.645.102 1.07.102.312 0 .586-.107.82-.322.234-.22.447-.584.637-1.091.196-.513.342-1.24.44-2.183.102-.942.154-2.087.154-3.435V24.18h-2.93v-2.344zm25.327-.015a11 11 0 012.505-.278c.874 0 1.706.093 2.497.278a9.2 9.2 0 012.154.762 9.37 9.37 0 011.78 1.172c.542.454 1.01.957 1.406 1.509.395.547.73 1.13 1.003 1.75.279.615.486 1.253.623 1.912a9.8 9.8 0 010 3.992 9.281 9.281 0 01-.623 1.911 9.902 9.902 0 01-1.003 1.75 8.327 8.327 0 01-1.406 1.502 9.173 9.173 0 01-3.934 1.934c-.791.185-1.623.278-2.497.278a11 11 0 01-2.505-.278 9.312 9.312 0 01-2.153-.762 9.44 9.44 0 01-1.773-1.172 8.327 8.327 0 01-1.406-1.501 10.332 10.332 0 01-1.011-1.75 9.631 9.631 0 01-.82-3.912c0-.674.068-1.338.205-1.992a9.43 9.43 0 01.615-1.912 9.957 9.957 0 011.011-1.75 8.207 8.207 0 011.406-1.51 9.446 9.446 0 011.773-1.171 9.322 9.322 0 012.153-.762zm4.116 2.432a3.52 3.52 0 00-1.611-.366c-.591 0-1.13.122-1.619.366-.483.24-.896.571-1.238.996a5.968 5.968 0 00-.856 1.53 9.143 9.143 0 00-.52 1.927c-.108.693-.162 1.43-.162 2.212 0 .977.093 1.887.279 2.732.19.84.464 1.582.82 2.227.356.644.815 1.152 1.377 1.523.566.366 1.206.55 1.919.55.713 0 1.35-.184 1.912-.55.566-.371 1.027-.879 1.384-1.523.356-.645.627-1.387.813-2.227.19-.845.285-1.755.285-2.732 0-.781-.056-1.519-.168-2.212a8.848 8.848 0 00-.513-1.926 5.808 5.808 0 00-.864-1.531 3.554 3.554 0 00-1.238-.996zm9.229-2.417h7.617c1.772 0 3.162.056 4.167.168 1.011.113 1.797.288 2.359.528a4.801 4.801 0 011.56 1.062c.425.425.745.96.959 1.604.22.64.33 1.325.33 2.058 0 .723-.244 1.438-.732 2.146-.489.708-1.163 1.338-2.022 1.89 1.001.322 1.758.786 2.271 1.391.517.6.776 1.38.776 2.337 0 1.635-.547 2.888-1.641 3.757-.239.19-.481.351-.725.483a4.084 4.084 0 01-.893.337c-.352.093-.701.166-1.048.22-.346.049-.813.088-1.399.117-.586.03-1.162.049-1.728.059-.562.005-1.306.007-2.234.007h-7.617v-2.344h2.344V24.18h-2.344v-2.344zm7.031 2.344v6.445h1.172c2.344 0 3.516-1.074 3.516-3.223 0-.463-.025-.857-.074-1.179a3.28 3.28 0 00-.263-.9 1.539 1.539 0 00-.513-.645 2.357 2.357 0 00-.842-.367 5.037 5.037 0 00-1.238-.131h-1.758zm0 8.789v4.687h1.758c1.177 0 2.007-.173 2.49-.52.488-.346.732-.954.732-1.824 0-.595-.122-1.06-.366-1.391-.239-.337-.63-.579-1.172-.725-.542-.152-1.298-.227-2.27-.227h-1.172z" fill="#9B2828"/></svg>