<svg width="183" height="86" viewBox="0 0 183 86" fill="none" xmlns="http://www.w3.org/2000/svg"><path d="M39.383.956H.178v4.239h39.205V.955zM12.01 8.35c.32.35.736.893 1.088 1.626.351.701.543 1.37.639 1.849.032.255.064.446.064.573h11.64c0-.127.032-.318.064-.573.096-.478.256-1.148.64-1.85.351-.732.767-1.242 1.087-1.625a.845.845 0 00.16-.19H11.818l.192.19zm19.027 1.37c-1.79 0-3.294 1.371-3.294 3.06v9.69c0 .51.256.989.704 1.275l.384.255-.672.702a1.61 1.61 0 00-.416 1.051v13.133c0 1.243 1.471 1.976 2.59 1.306l2.687-2.199v-2.869l-1.92 1.753V25.243l1.919-1.115V20.59L31.1 21.706v-8.83h3.198v24.257l3.358-2.55V9.72h-6.62zm-22.768 0H1.617v24.863l3.358 2.55V12.875h3.198v8.83L6.254 20.59v3.538l1.919 1.116v11.665l-1.919-1.753v2.869l2.686 2.2c1.12.669 2.59-.065 2.59-1.308V25.753c0-.382-.16-.765-.415-1.051L10.443 24l.384-.255c.448-.287.704-.765.704-1.274v-9.658c.031-1.722-1.471-3.092-3.262-3.092zm5.788 35.126l4.189 3.602V19.602h2.718v28.846l4.221-3.602V15.363H14.057v29.483zm42.988-25.594h2.999v-8.367h3.318V8.477h-9.635v2.408h3.318v8.367zm17.931-2.345h-5.648v-1.965h4.818V12.66h-4.818v-1.838h5.456V8.477h-8.487v10.775h8.679v-2.345zm5.647 2.345l2.17-3.169 2.17 3.17h3.605l-3.861-5.642 3.541-5.134h-3.541l-1.914 2.915-1.947-2.915H77.37l3.573 5.292-3.829 5.483h3.51zm13.464-4.183h4.18v4.183h3.063V8.477h-3.063v4.056h-4.18V8.477h-3.063v10.775h3.063V15.07zm21.951-3.423a5.28 5.28 0 00-1.244-1.775A5.383 5.383 0 00112.88 8.7c-.734-.286-1.532-.412-2.393-.412-.862 0-1.659.126-2.393.412-.734.285-1.372.665-1.915 1.172a4.985 4.985 0 00-1.244 1.775 5.627 5.627 0 00-.447 2.218c0 .793.16 1.553.447 2.219a5.28 5.28 0 001.244 1.775c.543.507 1.181.887 1.915 1.172.734.286 1.531.412 2.393.412.861 0 1.659-.126 2.393-.412.733-.285 1.371-.665 1.914-1.172a4.985 4.985 0 001.244-1.775 5.275 5.275 0 00.479-2.25c0-.824-.16-1.521-.479-2.187zm-2.871 3.486a3.4 3.4 0 01-.607.983 2.59 2.59 0 01-.925.602 2.758 2.758 0 01-1.148.222c-.415 0-.798-.064-1.149-.222-.351-.159-.67-.349-.925-.602-.256-.285-.479-.602-.606-.983-.16-.38-.224-.792-.224-1.268 0-.475.064-.887.224-1.267.159-.38.35-.697.606-.983.255-.285.574-.475.925-.634.351-.158.734-.221 1.149-.221.414 0 .797.063 1.148.221.351.159.67.35.925.634.256.254.479.602.607.983.159.38.223.792.223 1.268.032.475-.064.887-.223 1.267zm7.497-2.486c-.033.834-.065 1.54-.162 2.148-.097.61-.227 1.09-.453 1.443-.227.32-.551.513-.971.513-.13 0-.292 0-.421-.032l-.162 2.532c.259.065.518.097.744.129.227.032.454.032.68.032.68 0 1.262-.16 1.683-.481.453-.32.809-.77 1.036-1.379.259-.609.421-1.314.55-2.18.13-.865.194-1.795.227-2.853l.065-1.763h3.139v8.463h3.043v-10.9h-8.837l-.161 4.328zm22.239 5.244a4.985 4.985 0 001.244-1.775 5.275 5.275 0 00.479-2.25c0-.825-.16-1.553-.479-2.219a5.28 5.28 0 00-1.244-1.775 5.378 5.378 0 00-1.915-1.172c-.733-.286-1.531-.412-2.393-.412-.861 0-1.659.126-2.393.412-.733.285-1.371.665-1.914 1.172a4.985 4.985 0 00-1.244 1.775 5.744 5.744 0 000 4.437 5.28 5.28 0 001.244 1.775c.543.507 1.181.887 1.914 1.172.734.286 1.532.412 2.393.412.862 0 1.66-.126 2.393-.412a5.049 5.049 0 001.915-1.14zm-3.127-1.173c-.351.158-.734.222-1.149.222-.414 0-.797-.064-1.148-.222-.351-.159-.67-.349-.926-.602-.255-.285-.478-.602-.606-.983-.159-.38-.223-.792-.223-1.268 0-.475.064-.887.223-1.267.16-.38.351-.697.606-.983.256-.285.575-.475.926-.634.351-.158.734-.221 1.148-.221.415 0 .798.063 1.149.221.351.159.67.35.925.634.255.254.479.602.606.983.16.38.224.792.224 1.268 0 .475-.064.887-.224 1.267-.159.38-.351.697-.606.983a2.59 2.59 0 01-.925.602zm15.953-8.24h-7.913v10.775h2.999v-8.367h4.882l.032-2.408zm10.241 10.775h3V8.477h-2.872l-4.467 6.338V8.477h-2.999v10.775h2.872l4.466-6.307v6.307zm9.125-3.232l-2.265 3.264h2.648l1.915-2.884h2.297v2.884h2.488V8.445h-4.69c-.957 0-1.786.159-2.488.507a3.69 3.69 0 00-1.628 1.395c-.382.602-.574 1.299-.574 2.155 0 .855.192 1.584.574 2.186.415.571.99 1.015 1.723 1.332zm.83-5.04c.383-.316.925-.507 1.659-.507h2.138v3.93h-2.202c-.702 0-1.244-.158-1.595-.507-.351-.348-.542-.824-.542-1.458-.032-.633.159-1.109.542-1.458zM61.722 35.251c-.62-.493-1.55-.74-2.727-.74h-2.541v-1.57h5.454v-2.127h-8.181v9.768h4.896c1.27 0 2.262-.277 2.975-.832.713-.554 1.054-1.325 1.054-2.31.03-.956-.28-1.696-.93-2.189zm-2.2 3.051c-.248.185-.59.277-1.054.277h-1.983v-2.095h1.983c.96 0 1.425.339 1.425 1.048a.933.933 0 01-.371.77zm9.235-7.519l-4.339 9.768h2.82l.775-1.91h4.152l.775 1.91h2.882l-4.338-9.768h-2.727zm.093 5.855l1.27-3.143 1.27 3.143h-2.54zm16.052-2.188h-3.78v-3.667h-2.759v9.768h2.758v-3.79h3.781v3.79h2.758v-9.768h-2.758v3.667zm15.557-3.667h-2.913l-2.324 3.79h-1.364v-3.79h-2.727v9.768h2.727v-3.728h1.27l2.232 3.728h3.13l-3.1-5.053 3.069-4.715zm9.08.432c-.651-.278-1.426-.432-2.324-.432h-4.463v9.768h2.758v-2.557h1.705c.898 0 1.673-.154 2.324-.432.651-.308 1.146-.708 1.518-1.263.341-.555.527-1.17.527-1.91s-.186-1.387-.527-1.942a3.207 3.207 0 00-1.518-1.232zm-1.178 4.221c-.279.247-.713.37-1.301.37h-1.55V32.94h1.55c.588 0 1.022.123 1.301.37.279.246.434.616.434 1.048 0 .493-.155.832-.434 1.078zm14.72-3.389a4.995 4.995 0 00-1.735-1.079c-.651-.246-1.364-.37-2.169-.37-.775 0-1.519.124-2.17.37a5.309 5.309 0 00-1.735 1.079 4.914 4.914 0 00-1.147 1.602c-.279.616-.403 1.294-.403 2.034 0 .74.124 1.417.403 2.034.279.616.651 1.14 1.147 1.633.496.462 1.085.8 1.735 1.047.651.247 1.395.37 2.17.37.805 0 1.518-.123 2.169-.37a5.79 5.79 0 001.735-1.047 4.915 4.915 0 001.147-1.603 4.882 4.882 0 00.434-2.033 4.88 4.88 0 00-.434-2.034 4.73 4.73 0 00-1.147-1.633zm-1.456 4.776a2.43 2.43 0 01-1.395 1.448c-.31.123-.651.185-1.022.185a3.04 3.04 0 01-1.054-.185 2.43 2.43 0 01-1.395-1.448 3.385 3.385 0 01-.186-1.14c0-.432.062-.801.186-1.14a3.66 3.66 0 01.558-.894c.248-.247.527-.431.837-.586a3.034 3.034 0 011.054-.184c.371 0 .712.061 1.022.184.341.124.62.309.837.586.248.246.434.524.558.894.155.339.217.708.217 1.14 0 .4-.062.8-.217 1.14zm4.927-3.852h3.006v7.58h2.727v-7.58h3.006v-2.188h-8.739v2.188zm14.193.678c.248-.247.527-.431.868-.586a3.26 3.26 0 011.116-.184c.465 0 .898.092 1.27.308.372.185.744.493 1.054.863l1.766-1.603a4.626 4.626 0 00-1.797-1.356c-.713-.308-1.519-.462-2.417-.462a6.28 6.28 0 00-2.17.37 5.094 5.094 0 00-1.704 1.048 5.104 5.104 0 00-1.116 1.633c-.279.616-.402 1.294-.402 2.034 0 .74.123 1.417.402 2.064.279.616.651 1.14 1.116 1.602a5.094 5.094 0 001.704 1.048c.651.247 1.395.37 2.17.37.898 0 1.704-.154 2.417-.462.713-.34 1.301-.77 1.797-1.356l-1.766-1.602c-.31.37-.682.647-1.054.862a2.86 2.86 0 01-1.27.308 3.26 3.26 0 01-1.116-.184 2.327 2.327 0 01-.868-.555 2.413 2.413 0 01-.557-.894 3.385 3.385 0 01-.186-1.14c0-.431.062-.801.186-1.14.154-.462.34-.74.557-.986zm7.779-.678h3.006v7.58h2.727v-7.58h3.006v-2.188h-8.739v2.188zm19.399 2.897a2.627 2.627 0 00-.837-.401c.155-.062.279-.154.434-.246.62-.463.899-1.079.899-1.88 0-.801-.341-1.449-.992-1.88-.65-.462-1.549-.678-2.727-.678h-4.772v9.768h5.02c1.271 0 2.231-.246 2.882-.74.682-.492 1.023-1.17 1.023-2.033s-.31-1.479-.93-1.91zm-5.268-3.113h1.766c.403 0 .682.093.868.247.186.154.279.4.279.709 0 .308-.093.554-.279.74-.186.153-.496.246-.868.246h-1.766v-1.942zm3.099 5.578c-.186.154-.496.246-.899.246h-2.169v-2.003h2.169c.403 0 .713.093.899.247.217.154.31.4.31.74 0 .338-.124.585-.31.77zm12.086-7.55h-2.727l-4.339 9.768h2.82l.775-1.91h4.153l.774 1.91h2.882l-4.338-9.768zm-2.665 5.855l1.27-3.112 1.271 3.112h-2.541z" fill="#fff"/><path d="M.178 61.448h182" stroke="#727584"/><path d="M182.178 77.115v6.198h-1.104v-2.9h-2.999v2.9h-1.104v-6.198h1.104v2.472h2.999v-2.472h1.104zm-7.954 3.408a8.974 8.974 0 00-1.296.122 3.665 3.665 0 00-.87.245c-.222.102-.385.222-.487.36a.782.782 0 00-.149.466c0 .163.027.304.081.422a.82.82 0 00.216.294.975.975 0 00.327.165c.127.032.263.049.407.049.193 0 .37-.019.531-.055a2.361 2.361 0 00.857-.434c.132-.103.259-.219.383-.35v-1.284zm-3.548-2.533a3.57 3.57 0 011.117-.74 3.471 3.471 0 011.326-.245c.35 0 .661.057.932.171.272.114.5.274.685.477.185.204.325.451.42.74.094.29.141.608.141.955v3.965h-.487a.51.51 0 01-.247-.05c-.057-.036-.103-.105-.136-.207l-.123-.588a6.533 6.533 0 01-.481.404 3.048 3.048 0 01-.494.294 2.685 2.685 0 01-.555.177c-.194.045-.41.067-.648.067-.243 0-.471-.032-.685-.097a1.665 1.665 0 01-.562-.306 1.49 1.49 0 01-.376-.508 1.837 1.837 0 01-.136-.734c0-.245.068-.48.204-.704.136-.228.356-.43.66-.606.305-.175.702-.318 1.191-.428.49-.114 1.09-.18 1.802-.195v-.484c0-.481-.105-.844-.315-1.089-.21-.249-.516-.373-.919-.373-.272 0-.5.035-.685.104-.181.065-.34.14-.475.226a7.224 7.224 0 00-.346.227.496.496 0 01-.284.098.33.33 0 01-.191-.055.59.59 0 01-.136-.147l-.197-.349zm-3.161 4.527v-4.545h-1.981a20.001 20.001 0 01-.173 1.688c-.074.49-.16.92-.259 1.291a5.54 5.54 0 01-.321.936 3.073 3.073 0 01-.364.63h3.098zm2.209-.03v2.624c0 .106-.031.188-.093.245a.3.3 0 01-.228.092h-.673v-2.135h-5.257v1.823a.35.35 0 01-.074.214c-.045.065-.122.098-.228.098h-.692v-2.93h.204c.144 0 .286-.025.426-.074a1.06 1.06 0 00.413-.275c.132-.14.255-.333.37-.582.12-.248.227-.573.321-.972.095-.4.177-.885.247-1.456.07-.576.126-1.257.167-2.044h3.955v5.372h1.142zm-7.542.826h-.765c-.197 0-.35-.031-.457-.092a.605.605 0 01-.24-.288l-1.216-1.927a.969.969 0 00-.87-.477h-.629v2.79h-1.068v-2.79h-.623c-.185 0-.354.04-.506.122a.978.978 0 00-.364.355l-1.215 1.927a.628.628 0 01-.253.288c-.103.061-.253.092-.451.092h-.759l1.641-2.564c.107-.18.229-.324.365-.434.135-.11.302-.194.499-.251a1.145 1.145 0 01-.401-.214 1.804 1.804 0 01-.302-.373l-1.629-2.362h.864c.107 0 .203.029.29.086a.555.555 0 01.203.22l1.327 1.958c.091.134.2.238.327.312.128.07.278.104.451.104h.536v-2.68h1.068v2.68h.524c.35 0 .613-.139.79-.416l1.327-1.958a.555.555 0 01.203-.22.548.548 0 01.297-.086h.863l-1.629 2.362c-.094.15-.197.275-.308.373a1.083 1.083 0 01-.395.214c.197.057.364.14.5.25.136.11.257.256.364.435l1.641 2.564zm-11.447-2.79a8.974 8.974 0 00-1.296.122 3.693 3.693 0 00-.87.245c-.222.102-.384.222-.487.36a.78.78 0 00-.148.466c0 .163.027.304.08.422a.831.831 0 00.216.294.994.994 0 00.327.165c.128.032.263.049.407.049.194 0 .37-.019.531-.055a2.324 2.324 0 00.858-.435c.131-.102.259-.218.382-.348v-1.285zm-3.548-2.533a3.58 3.58 0 011.117-.74 3.473 3.473 0 011.327-.245c.349 0 .66.057.931.171.272.114.5.274.685.477.185.204.325.451.42.74.095.29.142.608.142.955v3.965h-.488a.502.502 0 01-.246-.05c-.058-.036-.103-.105-.136-.207l-.124-.588a6.533 6.533 0 01-.481.404 3.006 3.006 0 01-.494.294 2.647 2.647 0 01-.555.177 2.866 2.866 0 01-.648.067c-.242 0-.471-.032-.685-.097a1.651 1.651 0 01-.561-.306 1.48 1.48 0 01-.377-.508 1.838 1.838 0 01-.135-.734c0-.245.068-.48.203-.704.136-.228.356-.43.661-.606.304-.175.701-.318 1.19-.428.49-.114 1.091-.18 1.802-.195v-.484c0-.481-.105-.844-.315-1.089-.209-.249-.516-.373-.919-.373-.271 0-.5.035-.685.104a2.41 2.41 0 00-.475.226 6.688 6.688 0 00-.345.227.5.5 0 01-.284.098.333.333 0 01-.192-.055.586.586 0 01-.135-.147l-.198-.349zm-5.64 3.83c.201.269.421.459.66.569.238.11.506.165.802.165.584 0 1.032-.206 1.345-.618.313-.412.469-1 .469-1.762 0-.404-.037-.75-.111-1.04a1.952 1.952 0 00-.309-.71 1.198 1.198 0 00-.499-.41 1.678 1.678 0 00-.673-.128 1.8 1.8 0 00-.944.245 2.724 2.724 0 00-.74.691v2.998zm-.056-3.744a3.24 3.24 0 01.913-.777 2.364 2.364 0 011.185-.294c.362 0 .689.07.981.208.292.135.541.337.747.606.205.265.364.595.475.99.111.397.166.851.166 1.365 0 .457-.061.883-.185 1.279a3.056 3.056 0 01-.537 1.022c-.23.285-.514.511-.851.678-.333.164-.71.245-1.129.245-.383 0-.712-.063-.988-.19a2.358 2.358 0 01-.721-.538v2.741h-1.105v-8.296h.66c.157 0 .253.076.29.227l.099.734zm-2.093-.129h-2.949v5.366h-1.105v-6.198h4.054v.832zm-8.182-.832l-3.486 8.027a.545.545 0 01-.142.196c-.053.049-.138.073-.253.073h-.814l1.141-2.46-2.579-5.836h.95c.095 0 .169.025.222.074a.344.344 0 01.118.153l1.672 3.903c.066.171.121.35.166.538.058-.192.12-.373.185-.544l1.623-3.898a.338.338 0 01.124-.158.335.335 0 01.203-.068h.87zm-8.946 5.433c.412 0 .737-.094.975-.282.239-.191.358-.452.358-.783 0-.147-.023-.279-.068-.397a.77.77 0 00-.222-.318 1.064 1.064 0 00-.413-.209 2.276 2.276 0 00-.624-.073h-1.351v2.062h1.345zm-1.345-4.699v1.946h1.203c.181 0 .348-.025.5-.074.156-.053.29-.124.401-.214a1 1 0 00.259-.33.985.985 0 00.031-.759.676.676 0 00-.21-.287 1.051 1.051 0 00-.388-.202 1.912 1.912 0 00-.593-.08h-1.203zm1.234-.734c.387 0 .718.039.994.116.275.078.501.184.678.319.177.13.307.285.389.465.082.179.123.37.123.575 0 .134-.018.275-.055.422a1.38 1.38 0 01-.574.79 1.905 1.905 0 01-.592.25c.477.081.845.246 1.104.495.259.245.389.57.389.973 0 .302-.062.565-.185.79-.119.22-.286.405-.5.556-.21.15-.457.263-.74.337-.284.073-.589.11-.914.11h-2.406v-6.198h2.289zm-3.336.832h-2.401v5.366h-1.098v-5.366h-2.4v-.832h5.899v.832zm-6.739.269a.488.488 0 01-.099.104.222.222 0 01-.135.037.378.378 0 01-.204-.073 2.843 2.843 0 00-.278-.172 1.957 1.957 0 00-.401-.165 1.82 1.82 0 00-.58-.08c-.308 0-.58.056-.814.166a1.565 1.565 0 00-.593.465c-.156.204-.275.45-.358.74a3.74 3.74 0 00-.117.973c0 .375.043.71.13 1.003.086.29.208.535.364.734.16.196.352.347.574.453.226.102.479.153.759.153.267 0 .487-.03.66-.092.173-.065.315-.136.426-.214a3.66 3.66 0 00.283-.208.364.364 0 01.229-.098c.09 0 .16.035.21.104l.308.398a2.18 2.18 0 01-.463.428c-.172.118-.36.218-.561.3a3.125 3.125 0 01-.623.171 4.017 4.017 0 01-.667.055 2.77 2.77 0 01-1.092-.214 2.51 2.51 0 01-.87-.618 2.935 2.935 0 01-.58-1.003 4.04 4.04 0 01-.21-1.352c0-.461.064-.887.191-1.279a2.94 2.94 0 01.568-1.01 2.6 2.6 0 01.92-.666c.366-.16.785-.239 1.258-.239.44 0 .827.072 1.16.214.338.14.636.337.895.594l-.29.391zm-5.144-.269h-2.401v5.366h-1.098v-5.366h-2.4v-.832h5.899v.832zm-9.31-.93c.457 0 .868.076 1.234.227.366.15.679.365.938.642.259.277.457.614.592 1.01.14.391.21.83.21 1.315 0 .49-.07.93-.21 1.321a2.645 2.645 0 01-1.53 1.646c-.366.147-.777.22-1.234.22-.46 0-.876-.073-1.246-.22a2.644 2.644 0 01-.938-.642 2.855 2.855 0 01-.599-1.004 4.02 4.02 0 01-.203-1.321c0-.486.067-.924.203-1.316.14-.395.34-.732.599-1.009.259-.277.572-.492.938-.642a3.27 3.27 0 011.246-.227zm0 5.53c.617 0 1.078-.203 1.382-.61.305-.413.457-.986.457-1.72 0-.738-.152-1.313-.457-1.725-.304-.412-.765-.618-1.382-.618a1.97 1.97 0 00-.82.159c-.23.106-.424.259-.58.459a2.08 2.08 0 00-.346.74c-.074.29-.111.618-.111.985 0 .734.152 1.307.456 1.72.309.407.776.61 1.401.61zm-8.436-.727c.202.269.422.459.66.569.24.11.506.165.803.165.584 0 1.032-.206 1.345-.618.312-.412.469-1 .469-1.762 0-.404-.037-.75-.111-1.04a1.955 1.955 0 00-.309-.71 1.201 1.201 0 00-.5-.41 1.674 1.674 0 00-.672-.128c-.358 0-.673.082-.944.245a2.724 2.724 0 00-.74.691v2.998zm-.055-3.744c.263-.322.567-.581.913-.777.345-.196.74-.294 1.185-.294.362 0 .689.07.98.208.293.135.542.337.747.606.206.265.364.595.475.99.112.397.167.851.167 1.365 0 .457-.062.883-.185 1.279a3.072 3.072 0 01-.537 1.022c-.23.285-.514.511-.851.678-.334.164-.71.245-1.13.245-.382 0-.711-.063-.987-.19a2.365 2.365 0 01-.722-.538v2.741H88.09v-8.296h.66c.156 0 .253.076.29.227l.099.734zm-3.642-.655a.69.69 0 01.228-.22.575.575 0 01.303-.086h.857l-1.622 2.362a1.99 1.99 0 01-.309.373 1.152 1.152 0 01-.395.22c.198.053.364.137.5.25.136.111.257.254.364.43l1.641 2.563H86.3c-.197 0-.35-.033-.456-.098a.87.87 0 01-.278-.282l-1.215-1.927c-.194-.318-.484-.477-.87-.477h-.673v2.79h-1.105v-6.204h1.105v2.68h.592a.88.88 0 00.772-.416l1.326-1.958zm-5.541-.306v6.198h-1.104v-2.9h-2.999v2.9H74.75v-6.198h1.104v2.472h2.999v-2.472h1.104zm-7.954 3.408a8.971 8.971 0 00-1.296.122 3.673 3.673 0 00-.87.245c-.222.102-.385.222-.487.36a.783.783 0 00-.148.466c0 .163.026.304.08.422a.83.83 0 00.216.294.988.988 0 00.327.165c.127.032.263.049.407.049.193 0 .37-.019.53-.055a2.28 2.28 0 00.858-.435c.132-.102.26-.218.383-.348v-1.285zm-3.548-2.533a3.57 3.57 0 011.117-.74 3.473 3.473 0 011.326-.245c.35 0 .66.057.932.171.272.114.5.274.685.477.185.204.325.451.42.74.094.29.142.608.142.955v3.965h-.488a.508.508 0 01-.247-.05c-.057-.036-.103-.105-.135-.207l-.124-.588a6.533 6.533 0 01-.481.404 3.094 3.094 0 01-.494.294 2.674 2.674 0 01-.555.177 2.87 2.87 0 01-.648.067c-.243 0-.471-.032-.685-.097a1.658 1.658 0 01-.561-.306 1.48 1.48 0 01-.377-.508 1.829 1.829 0 01-.136-.734c0-.245.068-.48.204-.704.136-.228.356-.43.66-.606.305-.175.701-.318 1.191-.428.49-.114 1.09-.18 1.802-.195v-.484c0-.481-.105-.844-.315-1.089-.21-.249-.516-.373-.92-.373-.27 0-.5.035-.684.104a2.44 2.44 0 00-.475.226 7.24 7.24 0 00-.346.227.498.498 0 01-.284.098.33.33 0 01-.191-.055.581.581 0 01-.136-.147l-.197-.349zm-4.239 4.6c.617 0 1.082-.193 1.395-.58.317-.392.475-.939.475-1.64 0-.698-.152-1.242-.457-1.634-.3-.391-.752-.587-1.357-.587a2.11 2.11 0 00-.79.14c-.235.09-.434.223-.599.398-.16.176-.285.392-.376.649a2.76 2.76 0 00-.13.88c0 .372.04.705.118.998.078.294.193.543.345.746.157.205.348.362.574.472a1.9 1.9 0 00.802.159zm.426-6.93c-.42.036-.78.128-1.08.274a2.12 2.12 0 00-.74.6 2.533 2.533 0 00-.445.9c-.098.35-.156.746-.172 1.186.098-.196.226-.371.382-.526a2.554 2.554 0 011.191-.661c.239-.06.492-.092.76-.092.415 0 .787.074 1.116.22a2.3 2.3 0 01.845.613c.235.265.414.585.537.96a3.9 3.9 0 01.185 1.236c0 .46-.072.879-.216 1.254a2.68 2.68 0 01-.604.955c-.264.26-.58.462-.95.605a3.373 3.373 0 01-1.235.214c-.42 0-.812-.07-1.178-.208a2.287 2.287 0 01-.95-.685c-.268-.318-.48-.736-.636-1.254-.152-.522-.228-1.165-.228-1.927 0-.653.06-1.252.178-1.799a4.24 4.24 0 01.574-1.425 3.093 3.093 0 011.03-.973c.424-.249.939-.4 1.543-.453l2.234-.19.062.563a.522.522 0 01-.056.318c-.05.086-.138.133-.265.141l-1.882.153zM53.87 77.017c.457 0 .869.076 1.235.227.366.15.678.365.938.642.259.277.456.614.592 1.01.14.391.21.83.21 1.315 0 .49-.07.93-.21 1.321a2.645 2.645 0 01-1.53 1.646c-.366.147-.778.22-1.234.22-.461 0-.877-.073-1.247-.22a2.643 2.643 0 01-.938-.642 2.855 2.855 0 01-.598-1.004 4.02 4.02 0 01-.204-1.321c0-.486.068-.924.204-1.316.14-.395.34-.732.598-1.009.26-.277.572-.492.938-.642.37-.151.786-.227 1.247-.227zm0 5.53c.618 0 1.078-.203 1.383-.61.304-.413.456-.986.456-1.72 0-.738-.152-1.313-.456-1.725-.305-.412-.765-.618-1.382-.618-.313 0-.587.053-.821.159-.23.106-.424.259-.58.459-.152.2-.267.446-.346.74-.074.29-.11.618-.11.985 0 .734.151 1.307.456 1.72.308.407.775.61 1.4.61zm-4.38.766h-1.105v-5.366h-2.998v5.366h-1.105v-6.198h5.208v6.198zm-9.909-5.097a.488.488 0 01-.098.104.223.223 0 01-.136.037.378.378 0 01-.204-.073 2.834 2.834 0 00-.277-.172 1.967 1.967 0 00-.401-.165 1.825 1.825 0 00-.58-.08 1.9 1.9 0 00-.815.166 1.562 1.562 0 00-.592.465 2.18 2.18 0 00-.358.74c-.078.29-.117.614-.117.973 0 .375.043.71.13 1.003.085.29.207.535.363.734.16.196.352.347.574.453.226.102.48.153.759.153.267 0 .487-.03.66-.092.173-.065.315-.136.426-.214.115-.077.21-.147.284-.208a.36.36 0 01.228-.098c.09 0 .16.035.21.104l.308.398c-.135.167-.29.31-.462.428-.173.118-.36.218-.562.3a3.117 3.117 0 01-.623.171c-.218.037-.44.055-.666.055-.391 0-.755-.071-1.093-.214a2.508 2.508 0 01-.87-.618 2.936 2.936 0 01-.58-1.003 4.045 4.045 0 01-.21-1.352c0-.461.064-.887.192-1.279.131-.391.32-.728.568-1.01a2.59 2.59 0 01.919-.666c.366-.16.786-.239 1.259-.239.44 0 .827.072 1.16.214.337.14.635.337.894.594l-.29.391zm-6.086-1.101v6.198h-1.098v-4.21c0-.081.004-.169.012-.263.008-.093.018-.187.03-.281a3.905 3.905 0 01-.11.226c-.037.07-.076.133-.117.19l-3.018 4.068a1.046 1.046 0 01-.173.19.33.33 0 01-.222.086h-.666V77.12h1.104v4.21c0 .077-.004.162-.012.256-.008.09-.019.182-.03.276.036-.078.073-.15.11-.215.037-.069.074-.132.111-.19l3.018-4.067a.901.901 0 01.172-.184.34.34 0 01.229-.092h.66zm-9.085 5.433c.412 0 .737-.094.976-.282.238-.191.358-.452.358-.783 0-.147-.023-.279-.068-.397a.773.773 0 00-.222-.318 1.06 1.06 0 00-.414-.209 2.27 2.27 0 00-.623-.073h-1.351v2.062h1.345zm-1.344-4.699v1.946h1.203c.181 0 .348-.025.5-.074a1.29 1.29 0 00.4-.214c.112-.094.198-.204.26-.33a.99.99 0 00.03-.759.68.68 0 00-.209-.287 1.057 1.057 0 00-.389-.202 1.907 1.907 0 00-.592-.08h-1.203zm1.234-.734c.386 0 .718.039.993.116.276.078.502.184.679.319.177.13.306.285.389.465.082.179.123.37.123.575 0 .134-.018.275-.055.422a1.398 1.398 0 01-.574.79 1.912 1.912 0 01-.593.25c.478.081.846.246 1.105.495.26.245.389.57.389.973 0 .302-.062.565-.186.79a1.62 1.62 0 01-.5.556c-.21.15-.456.263-.74.337-.284.073-.588.11-.913.11h-2.406v-6.198H24.3zm-8.09 4.705c.201.269.421.459.66.569.238.11.506.165.802.165.584 0 1.032-.206 1.345-.618.313-.412.469-1 .469-1.762 0-.404-.037-.75-.111-1.04a1.953 1.953 0 00-.309-.71 1.201 1.201 0 00-.5-.41 1.674 1.674 0 00-.672-.128c-.358 0-.673.082-.944.245a2.724 2.724 0 00-.74.691v2.998zm-.056-3.744a3.23 3.23 0 01.913-.777 2.36 2.36 0 011.185-.294c.362 0 .689.07.981.208.292.135.541.337.747.606.205.265.364.595.475.99.11.397.166.851.166 1.365 0 .457-.061.883-.185 1.279a3.072 3.072 0 01-.537 1.022c-.23.285-.514.511-.851.678-.333.164-.71.245-1.13.245-.382 0-.71-.063-.987-.19a2.365 2.365 0 01-.722-.538v2.741h-1.104v-8.296h.66c.156 0 .253.076.29.227l.099.734zm-3.385 1.462c0-.253-.037-.483-.111-.691a1.463 1.463 0 00-.315-.545 1.33 1.33 0 00-.5-.355 1.674 1.674 0 00-.672-.128c-.527 0-.945.153-1.253.459-.305.301-.494.721-.568 1.26h3.419zm.888 2.906a2.142 2.142 0 01-.487.428 3.19 3.19 0 01-.611.294 3.626 3.626 0 01-.667.171c-.23.04-.458.061-.684.061-.432 0-.832-.071-1.198-.214a2.712 2.712 0 01-.944-.636 2.971 2.971 0 01-.617-1.04 4.184 4.184 0 01-.222-1.42c0-.432.066-.836.198-1.21.135-.376.329-.7.58-.974.25-.277.557-.493.919-.648.362-.16.77-.239 1.222-.239.374 0 .72.064 1.036.19.321.122.597.302.827.538.235.233.418.522.55.87.131.342.197.733.197 1.174 0 .171-.019.285-.056.342-.037.057-.107.086-.21.086H9.314c.013.392.066.732.16 1.022.1.29.235.532.408.728.173.191.378.336.617.434.239.094.506.14.802.14.276 0 .512-.03.71-.091a3.58 3.58 0 00.876-.41.486.486 0 01.253-.098c.09 0 .16.035.21.104l.308.398zm-6.728-.942a.23.23 0 01.173.08l.475.507c-.362.416-.802.74-1.32.973-.515.232-1.138.349-1.87.349-.634 0-1.21-.109-1.728-.325a3.855 3.855 0 01-1.327-.917 4.176 4.176 0 01-.851-1.42 5.25 5.25 0 01-.303-1.817c0-.66.105-1.266.315-1.817a4.2 4.2 0 01.882-1.42c.383-.395.84-.7 1.37-.917a4.551 4.551 0 011.759-.33c.63 0 1.185.1 1.666.3.481.2.905.47 1.271.813l-.395.545a.34.34 0 01-.099.104.278.278 0 01-.154.036c-.074 0-.164-.038-.271-.116a3.766 3.766 0 00-.42-.269 3.221 3.221 0 00-1.604-.385 3.2 3.2 0 00-1.253.238 2.73 2.73 0 00-.981.68 3.18 3.18 0 00-.636 1.088 4.312 4.312 0 00-.228 1.45c0 .547.078 1.034.235 1.462.16.429.376.792.648 1.09.275.293.598.517.968.672a3.13 3.13 0 001.21.233c.263 0 .5-.014.71-.043a3 3 0 00.585-.147c.181-.065.348-.147.5-.245.157-.101.31-.222.463-.36a.32.32 0 01.21-.092z" fill="#fff"/></svg>