<svg width="18" height="19" viewBox="0 0 18 19" fill="none" xmlns="http://www.w3.org/2000/svg"><path fill-rule="evenodd" clip-rule="evenodd" d="M0 3a3 3 0 013-3h12a3 3 0 013 3v12a3 3 0 01-3 3H4.133V7.403c0-.37.3-.67.67-.67h.135a3.095 3.095 0 013.095 3.095v1.029a.866.866 0 101.733 0v-.893c0-1.045.496-1.974 1.264-2.564a3.22 3.22 0 011.966-.667c.37 0 .67.3.67.67V14.1a.866.866 0 101.733 0V7.403A2.404 2.404 0 0012.996 5a4.96 4.96 0 00-4.064 2.114A4.822 4.822 0 004.938 5h-.135a2.404 2.404 0 00-2.404 2.403V17.94A3 3 0 010 15V3z" fill="#9B2828"/></svg>