<svg width="18" height="18" viewBox="0 0 18 18" fill="none" xmlns="http://www.w3.org/2000/svg"><path d="M13.5 11.25h-2.25v2.25h2.25v-2.25zm-3.375 0h-2.25v2.25h2.25v-2.25zM6.75 7.875H4.5v2.25h2.25v-2.25zm0 3.375H4.5v2.25h2.25v-2.25zm6.75-3.375h-2.25v2.25h2.25v-2.25zm-3.375 0h-2.25v2.25h2.25v-2.25zM6.139.515H3.375V2.25h2.764V.514zM15.75 15.75H2.25V5.625h13.5V15.75zM16.875 0H15.75v3.375h-4.5l-1.479-.032H8.23l-1.479.032h-4.5V0H1.125C.503 0 0 .504 0 1.125v15.75C0 17.497.503 18 1.125 18h15.75c.622 0 1.125-.503 1.125-1.125V1.125C18 .504 17.497 0 16.875 0zm-2.25.514h-2.764V2.25h2.764V.514z" fill="#9B2828"/></svg>