<svg width="18" height="18" viewBox="0 0 18 18" fill="none" xmlns="http://www.w3.org/2000/svg"><path fill-rule="evenodd" clip-rule="evenodd" d="M.178 7.703c0-3.756 3.044-6.8 6.801-6.8s6.8 3.044 6.8 6.8c0 1.58-.535 3.03-1.438 4.183l-.516.661-.661.517a6.766 6.766 0 01-4.185 1.438 6.799 6.799 0 01-6.8-6.8zm11.901 6.385v-1.286h1.286c.079 0 .15.03.201.082l3.53 3.529c.11.112.11.293-.002.404l-1.002 1.003-.002.002a.28.28 0 01-.397-.002l-3.532-3.531a.283.283 0 01-.082-.201zM6.98 2.603a5.097 5.097 0 00-5.1 5.1c0 2.82 2.283 5.1 5.1 5.1 2.821 0 5.1-2.284 5.1-5.1 0-2.82-2.283-5.1-5.1-5.1z" fill="#fff"/></svg>