<svg width="120" height="41" viewBox="0 0 120 41" fill="none" xmlns="http://www.w3.org/2000/svg"><path d="M58.49.164c-1.989.656-3.152 2.72-3.311 5.871-.047.9-.019 1.163.187 2.017.282 1.144.77 2.542 1.876 5.346 1.013 2.58 1.191 3.152 1.604 5.206.44 2.204.994 5.318.994 5.562 0 .112.038.215.075.244.047.028.235-.873.432-1.989.881-5.074 1.088-5.89 2.429-9.492.722-1.97 1.304-3.733 1.538-4.69.244-1.003.216-3-.047-4.267-.394-1.857-1.35-3.217-2.616-3.714-.779-.3-2.383-.347-3.161-.094zM43.83 8.886c-2.092.723-2.786 2.992-1.435 4.7.656.825 2.026 1.528 4.924 2.532 1.913.656 2.982 1.163 4.136 1.932.91.6 2.251 1.838 2.964 2.739l.488.61.131-.32c.45-1.088-.506-3.948-2.176-6.509-1.135-1.735-2.626-3.405-3.949-4.408-.656-.497-2.054-1.2-2.691-1.35-.666-.16-1.83-.123-2.392.074zm28.982.047c-1.341.44-2.635 1.341-4.033 2.804-2.138 2.233-4.024 5.581-4.446 7.879-.103.59-.056 1.407.103 1.66.075.122.113.103.254-.094.384-.553 1.294-1.528 1.857-2.007 1.35-1.144 2.26-1.632 5.018-2.72 3.517-1.379 4.258-1.744 5.14-2.542.694-.628 1.003-1.303 1.003-2.204 0-.544-.047-.806-.216-1.135a3.131 3.131 0 00-1.5-1.51c-.563-.281-.713-.31-1.567-.328-.778-.028-1.05.01-1.613.197z" fill="#D8DCBF"/><path d="M24.105 10.96c-2.232.29-4.193 1.219-5.384 2.56-1.341 1.491-1.988 3.742-1.744 6.003.347 3.17 2.138 5.327 5.205 6.284 1.173.366 2.045.469 3.442.413 1.332-.057 2.026-.197 3.95-.788.75-.235 1.134-.31 1.2-.244.14.14-6.725 6.237-9.68 8.582-4.54 3.61-7.231 4.924-10.72 5.234-2.767.253-5.047-.404-6.538-1.876-1.144-1.126-1.538-2.092-1.538-3.752 0-1.238.15-1.82.675-2.598.357-.525.694-.825 1.313-1.144.9-.45 2.59-.629 3.293-.329.375.15.862.572.862.732 0 .056-.215.216-.469.356-.619.347-.872.835-.881 1.67-.01 1.003.412 1.594 1.5 2.082.62.281 1.839.3 2.524.038 1.078-.413 1.707-1.08 2.035-2.158.553-1.82-.432-3.676-2.476-4.652-.985-.478-1.83-.656-3.086-.656-3.714 0-6.425 1.613-7.344 4.38-.225.666-.244.863-.244 2.241 0 1.332.028 1.576.225 2.158.938 2.776 3.039 4.511 6.247 5.149 1.04.206 3.151.281 4.314.15 3.443-.394 6.603-1.81 10.365-4.652 1.697-1.285 2.4-1.885 5.909-5.065 1.5-1.36 2.963-2.673 3.264-2.917.74-.61.825-.497.45.61-.629 1.866-.797 4.324-.404 5.824.582 2.186 1.97 4.043 3.78 5.056 1.585.881 3.865 1.228 5.994.9 1.125-.169 1.744-.356 2.607-.778 1.463-.723 2.551-1.792 3.217-3.161.582-1.2.657-1.97.3-3.227-.272-.994-.76-1.791-1.566-2.588-1.172-1.173-2.335-1.642-4.042-1.642-1.876 0-3.264.666-3.94 1.886-.253.46-.281.59-.281 1.35 0 .741.037.91.263 1.388.43.872 1.012 1.191 2.175 1.191.91 0 1.567-.319 1.96-.966.235-.384.282-.572.32-1.238.028-.45 0-.91-.066-1.088l-.103-.3.469.047c.656.066 1.604.553 2.054 1.07 1.05 1.2 1.07 3.16.028 4.464-.694.881-1.895 1.604-3.189 1.923-.9.225-2.654.197-3.63-.057-2.701-.694-4.136-2.532-4.399-5.637-.065-.76.075-2.307.282-3.16.806-3.208 3.095-5.328 6.828-6.313 1.782-.469 2.964-.61 5.262-.6 1.876 0 2.166.019 3.236.253 6.04 1.285 9.548 4.624 10.045 9.548.234 2.392-.366 4.512-1.566 5.506-1.417 1.182-4.015 1.388-5.272.422-.713-.544-.985-1.838-.553-2.607.225-.394.994-.985 1.294-.985.132 0 .178.066.178.253 0 .45.423 1.022.892 1.2.778.3 1.547-.056 1.97-.937.215-.432.252-.6.196-.957-.112-.853-.778-1.604-1.688-1.904-.225-.075-.657-.103-1.135-.075-1.923.103-3.677 1.65-3.855 3.414-.234 2.232 1.135 4.014 3.452 4.502.816.178 2.504.122 3.451-.103 2.007-.488 3.593-1.885 4.277-3.77.14-.385.3-.676.347-.657.057.019.17.244.263.516.506 1.491 1.566 2.73 2.907 3.386 1.201.581 1.792.713 3.32.713.995 0 1.445-.047 1.867-.179 2.204-.666 3.264-2.1 3.133-4.24-.056-.918-.319-1.51-.966-2.156-1.032-1.032-2.805-1.51-4.146-1.117-.272.085-.647.3-.9.526-.835.722-.891 1.716-.15 2.56.656.741 1.407.798 2.054.15.216-.215.403-.525.469-.74.112-.441.16-.45.638-.207a1.961 1.961 0 011.088 1.791c.009 1.023-.75 1.82-2.008 2.102-2.157.497-4.155-.385-5.027-2.223-.431-.92-.6-1.764-.6-3.124 0-2.851.9-5.149 2.776-7.015 1.716-1.717 4.38-3.04 7.372-3.64.92-.187 1.332-.216 3.077-.206 4.699.01 8.038 1.097 10.148 3.302 1.642 1.725 2.458 4.126 2.289 6.818-.103 1.81-.535 2.936-1.52 3.986-1.003 1.06-2.26 1.604-4.145 1.792-2.58.263-5.121-.92-6.003-2.804-.225-.479-.253-.648-.253-1.52 0-.863.028-1.05.253-1.51.45-.966 1.37-1.65 2.363-1.754l.45-.047-.065.394c-.075.478.103 1.632.338 2.082.225.45.75.891 1.181 1.013.498.141 1.482.132 1.839-.018.881-.376 1.388-1.201 1.454-2.383.037-.694.018-.825-.207-1.285-.628-1.285-2.11-2.026-4.042-2.026-1.004 0-1.726.17-2.627.6-2.297 1.126-3.667 4.024-2.954 6.256.704 2.186 2.795 3.874 5.534 4.465 1.172.253 3.414.225 4.53-.047 2.908-.722 4.952-2.73 5.797-5.693.506-1.782.271-4.277-.591-6.172-.582-1.266-.197-1.04 2.645 1.53 4.314 3.901 5.937 5.27 7.878 6.658 2.88 2.055 5.731 3.368 8.489 3.912 1.181.234 4.089.234 5.205 0 3.105-.648 5.093-2.083 6.228-4.484.507-1.06.666-1.763.657-2.898-.01-2.86-1.595-5.065-4.324-6.012-1.473-.506-3.911-.713-5.14-.422-2.514.59-4.221 2.636-3.902 4.652.197 1.21.863 2.101 1.96 2.608.451.206.666.253 1.379.253 1.069 0 1.698-.207 2.251-.741.994-.957.769-2.636-.441-3.255-.197-.103-.356-.216-.356-.262 0-.179.403-.573.778-.75.788-.385 2.458-.207 3.555.384 1.248.666 1.857 1.857 1.857 3.639 0 1.51-.459 2.701-1.435 3.677-1.36 1.36-3.095 1.97-5.599 1.97-4.69 0-8.095-1.867-16.367-9.014-4.061-3.499-5.403-4.727-5.309-4.821.066-.066.525.028 1.482.29 2.955.835 4.268.957 6.153.573 1.894-.385 3.17-1.032 4.38-2.242.919-.91 1.463-1.848 1.801-3.067.272-.994.291-3.227.037-4.202-.403-1.585-1.388-3.058-2.626-3.93-2.42-1.716-6.097-2.213-8.779-1.172-2.467.947-4.22 3.245-3.977 5.186.225 1.783 1.388 2.833 3.227 2.946 1.125.065 1.772-.132 2.354-.713.506-.516.694-1.032.619-1.764-.122-1.219-.92-1.894-2.26-1.941-.32-.01-.526-.066-.526-.122 0-.16.638-.985 1.004-1.294 1.304-1.107 4.192-1.042 6.293.14.788.441 1.81 1.52 2.167 2.28 1.079 2.241.525 5.205-1.238 6.762-.563.497-1.745 1.107-2.551 1.313-1.717.45-3.949.188-7.27-.844-2.635-.826-7.118-1.698-10.785-2.12-2.298-.253-4.765-.281-6.21-.047-4.455.704-8.497 2.955-10.58 5.881-.45.647-1.19 2.036-1.481 2.805l-.132.328-.094-.235c-.816-1.904-1.857-3.489-3.038-4.595-3.377-3.152-8.48-4.878-13.338-4.521-3.658.281-9.192 1.36-12.962 2.541-2.383.741-4.409 1.098-5.769 1.013-1.725-.112-2.973-.647-4.089-1.754-1.144-1.134-1.595-2.279-1.595-4.033-.009-1.679.432-2.767 1.558-3.892 1.097-1.107 2.523-1.707 4.23-1.8 1.81-.104 3.114.421 3.901 1.565.188.282.357.535.357.563 0 .028-.282.066-.629.075-1.19.028-1.95.61-2.185 1.66-.347 1.576.778 2.767 2.626 2.767 1.632 0 2.814-.713 3.302-1.998.985-2.588-1.144-5.505-4.671-6.406-1.004-.253-2.542-.356-3.508-.225z" fill="#D8DCBF"/></svg>